<svg width="300" height="300" viewBox="0 0 300 300" fill="none" xmlns="http://www.w3.org/2000/svg">
<g opacity="0.3">
<g opacity="0.55">
<path d="M224.211 124.714V133.993M224.211 133.993H205.652M224.211 133.993H242.769M214.932 133.993H233.49M214.932 133.993V143.272M214.932 133.993H199.326M233.49 133.993V143.272M233.49 133.993H239.923M233.49 143.272H214.932M233.49 143.272H246.883M214.932 143.272H205.652H224.211M229.484 152.552H224.211M224.211 152.552V143.272M224.211 152.552H209.162M224.211 143.272H242.769" stroke="#474747" stroke-width="1.56" stroke-miterlimit="10" stroke-linecap="round" stroke-linejoin="round"/>
</g>
<g opacity="0.55">
<path d="M199.794 100.944L183.727 84.8771C181.38 82.5299 181.38 78.7244 183.727 76.3772L199.794 60.3107C202.141 57.9635 205.946 57.9635 208.294 60.3107L224.36 76.3772C226.707 78.7244 226.707 82.5299 224.36 84.8771L208.294 100.944C205.946 103.291 202.141 103.291 199.794 100.944Z" stroke="#333333" stroke-width="2.6" stroke-miterlimit="10" stroke-linecap="round" stroke-linejoin="round"/>
<path d="M204.044 64.4894V61.5698M204.044 99.6845V96.7646M220.181 80.627H223.101M184.986 80.627H187.906" stroke="#333333" stroke-width="1.56" stroke-miterlimit="10" stroke-linecap="round" stroke-linejoin="round"/>
<path d="M204.044 80.6272L199.361 76.2715" stroke="#333333" stroke-width="2.08" stroke-miterlimit="10" stroke-linecap="round" stroke-linejoin="round"/>
<path d="M211.041 71.3789L204.045 81.164" stroke="#333333" stroke-width="1.3" stroke-miterlimit="10" stroke-linecap="round" stroke-linejoin="round"/>
<path d="M204.408 82.9196C205.674 82.9196 206.7 81.8933 206.7 80.6273C206.7 79.3613 205.674 78.335 204.408 78.335C203.142 78.335 202.115 79.3613 202.115 80.6273C202.115 81.8933 203.142 82.9196 204.408 82.9196Z" fill="#333333"/>
</g>
<g opacity="0.55">
<path d="M71.9922 79.2237H102.619V109.704H71.9922V79.2237ZM108.286 57.1035H131.402V87.5835H108.286V57.1035Z" stroke="#333333" stroke-width="2.6" stroke-miterlimit="10" stroke-linecap="round" stroke-linejoin="round"/>
<path d="M77.9902 95.2635L86.1952 87.0585M85.369 94.4637L92.7742 87.0585M79.6165 100.216L82.6348 97.1979M115.14 71.3037L120.74 65.7036M123.521 69.9435L125.68 67.7835M114.24 79.2237L121.121 72.3435" stroke="#333333" stroke-width="1.04" stroke-miterlimit="10" stroke-linecap="round" stroke-linejoin="round"/>
</g>
<path d="M227.502 225.265H233.302M238.402 225.265H239.852M72.3017 225.265H222.002M58.6484 225.265H65.7017" stroke="#43293A" stroke-width="2.6" stroke-miterlimit="10" stroke-linecap="round" stroke-linejoin="round"/>
<path d="M113.752 115.563C113.752 113.2 115.667 111.285 118.03 111.285C120.392 111.285 122.308 113.2 122.308 115.563H113.752Z" fill="#FFE5CC"/>
<path d="M113.752 115.563C113.752 113.2 115.667 111.285 118.03 111.285C120.392 111.285 122.308 113.2 122.308 115.563H113.752Z" stroke="#43293A" stroke-width="2.08" stroke-miterlimit="10" stroke-linecap="round" stroke-linejoin="round"/>
<path d="M177.691 115.563C177.691 113.2 179.607 111.285 181.969 111.285C184.332 111.285 186.247 113.2 186.247 115.563H177.691Z" fill="#FFE5CC"/>
<path d="M177.691 115.563C177.691 113.2 179.607 111.285 181.969 111.285C184.332 111.285 186.247 113.2 186.247 115.563H177.691Z" stroke="#43293A" stroke-width="2.08" stroke-miterlimit="10" stroke-linecap="round" stroke-linejoin="round"/>
<path d="M183.71 119.241C177.435 119.241 172.363 116.848 169.407 112.37L167.481 109.8C163.511 104.503 157.112 101.341 150.362 101.341H149.636C142.886 101.341 136.487 104.503 132.517 109.8L130.591 112.37C126.902 117.959 119.915 120.3 111.41 118.794L112.038 115.249C116.177 115.982 123.704 116.32 127.611 110.349L127.677 110.255L129.636 107.641C134.282 101.442 141.759 97.7412 149.636 97.7412H150.362C158.24 97.7412 165.716 101.442 170.362 107.642L172.387 110.35C176.294 116.32 183.821 115.982 187.96 115.25L188.588 118.794C186.898 119.093 185.266 119.241 183.71 119.241Z" fill="#AD5349"/>
<path d="M183.71 119.241C177.435 119.241 172.363 116.848 169.407 112.37L167.481 109.8C163.511 104.503 157.112 101.341 150.362 101.341H149.636C142.886 101.341 136.487 104.503 132.517 109.8L130.591 112.37C126.902 117.959 119.915 120.3 111.41 118.794L112.038 115.249C116.177 115.982 123.704 116.32 127.611 110.349L127.677 110.255L129.636 107.641C134.282 101.442 141.759 97.7412 149.636 97.7412H150.362C158.24 97.7412 165.716 101.442 170.362 107.642L172.387 110.35C176.294 116.32 183.821 115.982 187.96 115.25L188.588 118.794C186.898 119.093 185.266 119.241 183.71 119.241Z" stroke="#43293A" stroke-width="2.6" stroke-miterlimit="10" stroke-linecap="round" stroke-linejoin="round"/>
<path d="M90.5999 167.012H84.9302L78.5 209.31C78.5 209.31 83.0375 207.186 84.5501 207.186C89.3999 207.186 90.5999 209.31 90.5999 209.31V167.012Z" fill="#FF8345"/>
<path d="M90.5999 167.012H84.9302L78.5 209.31C78.5 209.31 83.0375 207.186 84.5501 207.186C89.3999 207.186 90.5999 209.31 90.5999 209.31V167.012Z" stroke="#43293A" stroke-width="2.6" stroke-miterlimit="10" stroke-linecap="round" stroke-linejoin="round"/>
<path d="M90.5999 167.012H84.9302L78.5 209.31C78.5 209.31 83.0375 207.186 84.5501 207.186C89.3999 207.186 90.5999 209.31 90.5999 209.31V167.012Z" stroke="#43293A" stroke-width="2.6" stroke-miterlimit="10" stroke-linecap="round" stroke-linejoin="round"/>
<path d="M89.7752 167.012H84.9302L78.5 209.31C78.5 209.31 81.7283 207.799 83.6465 207.326L89.7752 167.012Z" fill="#AD5349"/>
<path d="M89.7752 167.012H84.9302L78.5 209.31C78.5 209.31 81.7283 207.799 83.6465 207.326L89.7752 167.012Z" stroke="#43293A" stroke-width="2.6" stroke-miterlimit="10" stroke-linecap="round" stroke-linejoin="round"/>
<path d="M209.4 167.012H215.07L221.5 209.31C221.5 209.31 216.963 207.186 215.45 207.186C210.6 207.186 209.4 209.31 209.4 209.31V167.012Z" fill="#FF8345"/>
<path d="M209.4 167.012H215.07L221.5 209.31C221.5 209.31 216.963 207.186 215.45 207.186C210.6 207.186 209.4 209.31 209.4 209.31V167.012Z" stroke="#43293A" stroke-width="2.6" stroke-miterlimit="10" stroke-linecap="round" stroke-linejoin="round"/>
<path d="M209.4 167.012H215.07L221.5 209.31C221.5 209.31 216.963 207.186 215.45 207.186C210.6 207.186 209.4 209.31 209.4 209.31V167.012Z" stroke="#43293A" stroke-width="2.6" stroke-miterlimit="10" stroke-linecap="round" stroke-linejoin="round"/>
<path d="M210.225 167.012H215.07L221.5 209.31C221.5 209.31 218.271 207.799 216.353 207.326L210.225 167.012Z" fill="#AD5349"/>
<path d="M210.225 167.012H215.07L221.5 209.31C221.5 209.31 218.271 207.799 216.353 207.326L210.225 167.012Z" stroke="#43293A" stroke-width="2.6" stroke-miterlimit="10" stroke-linecap="round" stroke-linejoin="round"/>
<path d="M202.751 225.1H97.1512C93.1747 225.1 89.9512 221.876 89.9512 217.9V142.9H209.951V217.9C209.951 221.876 206.728 225.1 202.751 225.1Z" fill="#AD5349"/>
<path opacity="0.48" d="M166.8 205.51H133.2C130.549 205.51 128.4 203.362 128.4 200.71V188.506H171.6V200.71C171.6 203.362 169.451 205.51 166.8 205.51Z" fill="#AD5349" stroke="#AD5349" stroke-width="2.6" stroke-miterlimit="10"/>
<path d="M153.58 203.611C153.58 205.588 151.977 207.19 150.001 207.19C148.024 207.19 146.422 205.588 146.422 203.611H143.73C143.73 207.074 146.538 209.882 150.001 209.882C153.464 209.882 156.271 207.074 156.271 203.611H153.58Z" fill="white"/>
<path d="M153.58 203.611C153.58 205.588 151.977 207.19 150.001 207.19C148.024 207.19 146.422 205.588 146.422 203.611H143.73C143.73 207.074 146.538 209.882 150.001 209.882C153.464 209.882 156.271 207.074 156.271 203.611H153.58Z" stroke="#43293A" stroke-width="1.04" stroke-miterlimit="10" stroke-linecap="round" stroke-linejoin="round"/>
<path opacity="0.48" d="M202.8 221.699H97.2C93.2235 221.699 90 218.476 90 214.499V218.05C90 222.026 93.2235 225.25 97.2 225.25H202.8C206.777 225.25 210 222.026 210 218.05V214.499C210 218.476 206.777 221.699 202.8 221.699Z" fill="#AD5349"/>
<path d="M210 176.976V144.25H90V176.976C91.6595 177.762 93.4089 178.342 95.2092 178.703C110.847 181.847 127.95 183.312 149.034 183.312H150.966C172.049 183.312 189.151 181.847 204.79 178.703C206.591 178.342 208.34 177.762 210 176.976Z" fill="#933B34"/>
<path d="M166.8 203.41H133.2C130.549 203.41 128.4 201.261 128.4 198.61V186.406H171.6V198.61C171.6 201.261 169.451 203.41 166.8 203.41Z" fill="#FF8345"/>
<path opacity="0.45" d="M128.4 193.061C130.043 194.623 132.26 195.585 134.7 195.585H165.3C167.74 195.585 169.958 194.623 171.6 193.061V187.606H128.4V193.061Z" fill="#FF8345"/>
<path d="M135.5 200.11H133.2C132.208 200.11 131.4 199.303 131.4 198.31V189.105M168.6 195.285V198.31C168.6 199.303 167.793 200.11 166.8 200.11H138.6" stroke="#43293A" stroke-width="0.78" stroke-miterlimit="10" stroke-linecap="round" stroke-linejoin="round" stroke-dasharray="1.3 1.82"/>
<path d="M166.8 203.41H133.2C130.549 203.41 128.4 201.261 128.4 198.61V186.406H171.6V198.61C171.6 201.261 169.451 203.41 166.8 203.41Z" stroke="#43293A" stroke-width="2.6" stroke-miterlimit="10" stroke-linecap="round" stroke-linejoin="round"/>
<path d="M165.3 192.585H134.7C130.64 192.585 127.35 189.294 127.35 185.235V177.886H172.65V185.235C172.65 189.294 169.359 192.585 165.3 192.585Z" fill="#EDAB7A"/>
<path opacity="0.84" d="M127.35 182.711C134.127 183.115 141.313 183.312 149.034 183.312H150.966C158.687 183.312 165.873 183.115 172.65 182.712V177.887H127.35V182.711H127.35Z" fill="#EDAB7A"/>
<path d="M165.3 192.585H134.7C130.64 192.585 127.35 189.294 127.35 185.235V177.886H172.65V185.235C172.65 189.294 169.359 192.585 165.3 192.585Z" stroke="#43293A" stroke-width="2.6" stroke-miterlimit="10" stroke-linecap="round" stroke-linejoin="round"/>
<path d="M130.35 184.894V179.25H169.65V184.894C169.65 187.297 167.702 189.244 165.3 189.244H134.7C132.297 189.244 130.35 187.297 130.35 184.894Z" stroke="#43293A" stroke-width="0.78" stroke-miterlimit="10" stroke-linecap="round" stroke-linejoin="round" stroke-dasharray="1.3 1.82"/>
<path d="M202.8 225.25H97.2C93.2235 225.25 90 222.026 90 218.05V143.05H210V218.05C210 222.026 206.777 225.25 202.8 225.25Z" stroke="#43293A" stroke-width="2.6" stroke-miterlimit="10" stroke-linecap="round" stroke-linejoin="round"/>
<path d="M97.2008 220.45C95.8775 220.45 94.8008 219.373 94.8008 218.05V147.85H205.201V218.05C205.201 219.373 204.124 220.45 202.801 220.45H97.2008Z" stroke="#43293A" stroke-width="1.04" stroke-miterlimit="10" stroke-linecap="round" stroke-linejoin="round" stroke-dasharray="1.82 2.34"/>
<path d="M85.6644 125.751L81.6114 155.305C80.3559 164.46 86.2401 172.64 95.8011 174.562C113.443 178.109 131.685 179.15 150.001 179.111C168.316 179.149 186.559 178.109 204.2 174.562C213.761 172.64 219.645 164.459 218.389 155.305L214.336 125.75C213.826 122.032 210.127 119.001 205.905 118.799C168.656 117.019 131.344 117.019 94.0962 118.799C89.8734 119.001 86.1744 122.033 85.6644 125.751Z" fill="#FF8345"/>
<path opacity="0.55" d="M218.389 155.305L214.336 125.75C213.826 122.032 210.127 119.001 205.905 118.799C168.656 117.019 131.344 117.019 94.0962 118.799C89.8734 119.001 86.1744 122.033 85.6644 125.75L81.6114 155.305C80.3559 164.459 86.2401 172.64 95.8011 174.562C113.442 178.109 131.685 179.149 150 179.111C168.316 179.149 186.558 178.109 204.199 174.562C213.761 172.64 219.645 164.459 218.389 155.305ZM204.187 174.648C188.78 177.878 171.871 179.382 150.976 179.382H149.025C128.128 179.382 111.22 177.878 95.8134 174.648C87.6861 172.944 82.5705 165.752 83.6499 157.547L87.7422 126.432C88.0758 123.896 90.7416 121.713 93.6849 121.567C112.391 120.636 131.338 120.164 150.001 120.164C168.663 120.164 187.61 120.636 206.316 121.567C209.259 121.713 211.925 123.896 212.259 126.432L216.351 157.547C217.43 165.752 212.314 172.944 204.187 174.648Z" fill="#FF8345"/>
<path opacity="0.45" d="M204.199 171.695C186.558 175.242 168.315 176.282 150 176.244C131.684 176.282 113.442 175.242 95.8003 171.695C87.6082 170.048 82.12 163.806 81.505 156.293C80.788 165.042 86.5849 172.709 95.8003 174.562C113.442 178.109 131.684 179.15 150 179.111C168.315 179.149 186.558 178.109 204.199 174.562C213.414 172.709 219.211 165.042 218.494 156.293C217.879 163.805 212.391 170.048 204.199 171.695Z" fill="#FF8345"/>
<path d="M85.6644 125.751L81.6114 155.305C80.3559 164.46 86.2401 172.64 95.8011 174.562C113.443 178.109 131.685 179.15 150.001 179.111C168.316 179.149 186.559 178.109 204.2 174.562C213.761 172.64 219.645 164.459 218.389 155.305L214.336 125.75C213.826 122.032 210.127 119.001 205.905 118.799C168.656 117.019 131.344 117.019 94.0962 118.799C89.8734 119.001 86.1744 122.033 85.6644 125.751Z" stroke="#43293A" stroke-width="2.6" stroke-miterlimit="10" stroke-linecap="round" stroke-linejoin="round"/>
<path d="M149.034 174.312C128.48 174.312 111.865 172.896 96.7467 169.856C89.7066 168.441 85.4382 162.725 86.3664 155.957L90.4194 126.403C90.5907 125.154 92.2365 123.694 94.3245 123.594C112.87 122.71 131.434 122.267 150 122.264C168.45 122.264 187.182 122.711 205.675 123.594C207.763 123.694 209.409 125.154 209.581 126.403L213.634 155.957C214.562 162.725 210.293 168.441 203.253 169.856C188.134 172.896 171.519 174.312 150.966 174.312H149.034Z" stroke="#43293A" stroke-width="1.04" stroke-linecap="round" stroke-linejoin="round" stroke-dasharray="1.82 2.34"/>
<path d="M115.664 229.561C112.681 229.561 110.264 227.143 110.264 224.161V148.288H121.064V224.161C121.064 227.144 118.646 229.561 115.664 229.561Z" fill="#EDAB7A"/>
<path d="M110.264 148.288H121.064V152.179H110.264V148.288Z" fill="#43293A"/>
<path opacity="0.78" d="M110.264 169.261H121.064V174.661H110.264V169.261Z" fill="#EDAB7A"/>
<path d="M115.664 229.561C112.681 229.561 110.264 227.143 110.264 224.161V148.288H121.064V224.161C121.064 227.144 118.646 229.561 115.664 229.561Z" stroke="#43293A" stroke-width="2.6" stroke-miterlimit="10" stroke-linecap="round" stroke-linejoin="round"/>
<path d="M106.664 165.661V182.161H110.264V169.261H121.064V182.161H124.664V165.661H106.664Z" fill="white"/>
<path d="M121.729 165.661H109.6C107.979 165.661 106.664 166.975 106.664 168.597V179.226C106.664 180.004 106.973 180.751 107.524 181.302C108.075 181.852 108.821 182.161 109.6 182.161H110.264V169.261H121.064V182.161H121.728C123.349 182.161 124.664 180.847 124.664 179.226V168.597C124.664 166.976 123.35 165.661 121.729 165.661Z" stroke="#43293A" stroke-width="2.08" stroke-miterlimit="10" stroke-linecap="round" stroke-linejoin="round"/>
<path d="M115.664 161.461C116.575 161.461 117.314 160.722 117.314 159.811C117.314 158.9 116.575 158.161 115.664 158.161C114.752 158.161 114.014 158.9 114.014 159.811C114.014 160.722 114.752 161.461 115.664 161.461Z" fill="white"/>
<path d="M115.664 161.461C116.575 161.461 117.314 160.722 117.314 159.811C117.314 158.9 116.575 158.161 115.664 158.161C114.752 158.161 114.014 158.9 114.014 159.811C114.014 160.722 114.752 161.461 115.664 161.461Z" stroke="#43293A" stroke-width="1.04" stroke-miterlimit="10" stroke-linecap="round" stroke-linejoin="round"/>
<path d="M115.664 177.614C116.575 177.614 117.314 176.876 117.314 175.964C117.314 175.053 116.575 174.314 115.664 174.314C114.752 174.314 114.014 175.053 114.014 175.964C114.014 176.876 114.752 177.614 115.664 177.614Z" fill="white"/>
<path d="M115.664 178.053C116.575 178.053 117.314 177.314 117.314 176.403C117.314 175.492 116.575 174.753 115.664 174.753C114.752 174.753 114.014 175.492 114.014 176.403C114.014 177.314 114.752 178.053 115.664 178.053Z" stroke="#43293A" stroke-width="1.04" stroke-miterlimit="10" stroke-linecap="round" stroke-linejoin="round"/>
<path d="M115.664 199.411C116.575 199.411 117.314 198.672 117.314 197.761C117.314 196.85 116.575 196.111 115.664 196.111C114.752 196.111 114.014 196.85 114.014 197.761C114.014 198.672 114.752 199.411 115.664 199.411Z" fill="#AD5349"/>
<path d="M115.664 199.411C116.575 199.411 117.314 198.672 117.314 197.761C117.314 196.85 116.575 196.111 115.664 196.111C114.752 196.111 114.014 196.85 114.014 197.761C114.014 198.672 114.752 199.411 115.664 199.411Z" stroke="#43293A" stroke-width="1.04" stroke-miterlimit="10" stroke-linecap="round" stroke-linejoin="round"/>
<path d="M115.664 210.085C116.575 210.085 117.314 209.346 117.314 208.435C117.314 207.524 116.575 206.785 115.664 206.785C114.752 206.785 114.014 207.524 114.014 208.435C114.014 209.346 114.752 210.085 115.664 210.085Z" fill="#AD5349"/>
<path d="M115.664 210.085C116.575 210.085 117.314 209.346 117.314 208.435C117.314 207.524 116.575 206.785 115.664 206.785C114.752 206.785 114.014 207.524 114.014 208.435C114.014 209.346 114.752 210.085 115.664 210.085Z" stroke="#43293A" stroke-width="1.04" stroke-miterlimit="10" stroke-linecap="round" stroke-linejoin="round"/>
<path d="M115.665 177.615C115.508 177.615 115.352 177.584 115.207 177.524C115.062 177.463 114.93 177.375 114.819 177.264C114.708 177.153 114.62 177.021 114.56 176.876C114.5 176.731 114.469 176.575 114.469 176.418V166.858C114.469 166.54 114.595 166.236 114.819 166.012C115.044 165.787 115.348 165.661 115.665 165.661C115.982 165.661 116.287 165.787 116.511 166.012C116.736 166.236 116.862 166.54 116.862 166.858V176.418C116.861 176.736 116.735 177.04 116.511 177.264C116.287 177.488 115.982 177.615 115.665 177.615Z" fill="white"/>
<path d="M115.665 177.615C115.508 177.615 115.352 177.584 115.207 177.524C115.062 177.463 114.93 177.375 114.819 177.264C114.708 177.153 114.62 177.021 114.56 176.876C114.5 176.731 114.469 176.575 114.469 176.418V166.858C114.469 166.54 114.595 166.236 114.819 166.012C115.044 165.787 115.348 165.661 115.665 165.661C115.982 165.661 116.287 165.787 116.511 166.012C116.736 166.236 116.862 166.54 116.862 166.858V176.418C116.861 176.736 116.735 177.04 116.511 177.264C116.287 177.488 115.982 177.615 115.665 177.615Z" stroke="#43293A" stroke-width="1.04" stroke-miterlimit="10" stroke-linecap="round" stroke-linejoin="round"/>
<path d="M184.336 229.561C181.353 229.561 178.936 227.143 178.936 224.161V148.288H189.736V224.161C189.736 227.144 187.318 229.561 184.336 229.561Z" fill="#EDAB7A"/>
<path opacity="0.78" d="M178.59 169.353H189.39V174.753H178.59V169.353Z" fill="#EDAB7A"/>
<path d="M184.336 229.561C181.353 229.561 178.936 227.143 178.936 224.161V148.288H189.736V224.161C189.736 227.144 187.318 229.561 184.336 229.561Z" stroke="#43293A" stroke-width="2.6" stroke-miterlimit="10" stroke-linecap="round" stroke-linejoin="round"/>
<path d="M175.336 165.661V182.161H178.936V169.261H189.736V182.161H193.336V165.661H175.336Z" fill="white"/>
<path d="M190.4 165.661H178.272C176.651 165.661 175.336 166.975 175.336 168.597V179.226C175.336 180.004 175.645 180.751 176.196 181.302C176.746 181.852 177.493 182.161 178.272 182.161H178.936V169.261H189.736V182.161H190.4C192.021 182.161 193.336 180.847 193.336 179.226V168.597C193.336 166.976 192.022 165.661 190.4 165.661Z" stroke="#43293A" stroke-width="2.08" stroke-miterlimit="10" stroke-linecap="round" stroke-linejoin="round"/>
<path d="M184.336 161.461C185.247 161.461 185.986 160.722 185.986 159.811C185.986 158.9 185.247 158.161 184.336 158.161C183.424 158.161 182.686 158.9 182.686 159.811C182.686 160.722 183.424 161.461 184.336 161.461Z" fill="white"/>
<path d="M184.336 161.461C185.247 161.461 185.986 160.722 185.986 159.811C185.986 158.9 185.247 158.161 184.336 158.161C183.424 158.161 182.686 158.9 182.686 159.811C182.686 160.722 183.424 161.461 184.336 161.461Z" stroke="#43293A" stroke-width="1.04" stroke-miterlimit="10" stroke-linecap="round" stroke-linejoin="round"/>
<path d="M184.336 177.614C185.247 177.614 185.986 176.876 185.986 175.964C185.986 175.053 185.247 174.314 184.336 174.314C183.424 174.314 182.686 175.053 182.686 175.964C182.686 176.876 183.424 177.614 184.336 177.614Z" fill="white"/>
<path d="M184.336 178.053C185.247 178.053 185.986 177.314 185.986 176.403C185.986 175.492 185.247 174.753 184.336 174.753C183.424 174.753 182.686 175.492 182.686 176.403C182.686 177.314 183.424 178.053 184.336 178.053Z" stroke="#43293A" stroke-width="1.04" stroke-miterlimit="10" stroke-linecap="round" stroke-linejoin="round"/>
<path d="M184.336 199.411C185.247 199.411 185.986 198.672 185.986 197.761C185.986 196.85 185.247 196.111 184.336 196.111C183.424 196.111 182.686 196.85 182.686 197.761C182.686 198.672 183.424 199.411 184.336 199.411Z" fill="#AD5349"/>
<path d="M184.336 199.411C185.247 199.411 185.986 198.672 185.986 197.761C185.986 196.85 185.247 196.111 184.336 196.111C183.424 196.111 182.686 196.85 182.686 197.761C182.686 198.672 183.424 199.411 184.336 199.411Z" stroke="#43293A" stroke-width="1.04" stroke-miterlimit="10" stroke-linecap="round" stroke-linejoin="round"/>
<path d="M184.336 210.085C185.247 210.085 185.986 209.346 185.986 208.435C185.986 207.524 185.247 206.785 184.336 206.785C183.424 206.785 182.686 207.524 182.686 208.435C182.686 209.346 183.424 210.085 184.336 210.085Z" fill="#AD5349"/>
<path d="M184.336 210.085C185.247 210.085 185.986 209.346 185.986 208.435C185.986 207.524 185.247 206.785 184.336 206.785C183.424 206.785 182.686 207.524 182.686 208.435C182.686 209.346 183.424 210.085 184.336 210.085Z" stroke="#43293A" stroke-width="1.04" stroke-miterlimit="10" stroke-linecap="round" stroke-linejoin="round"/>
<path d="M184.335 177.615C184.178 177.615 184.022 177.584 183.877 177.524C183.732 177.463 183.6 177.375 183.489 177.264C183.378 177.153 183.29 177.021 183.23 176.876C183.17 176.731 183.139 176.575 183.139 176.418V166.858C183.139 166.54 183.265 166.236 183.489 166.012C183.713 165.787 184.018 165.661 184.335 165.661C184.652 165.661 184.957 165.787 185.181 166.012C185.405 166.236 185.531 166.54 185.531 166.858V176.418C185.532 176.575 185.501 176.731 185.44 176.876C185.38 177.021 185.292 177.153 185.181 177.264C185.07 177.375 184.938 177.464 184.793 177.524C184.648 177.584 184.492 177.615 184.335 177.615Z" fill="white"/>
<path d="M184.335 177.615C184.178 177.615 184.022 177.584 183.877 177.524C183.732 177.463 183.6 177.375 183.489 177.264C183.378 177.153 183.29 177.021 183.23 176.876C183.17 176.731 183.139 176.575 183.139 176.418V166.858C183.139 166.54 183.265 166.236 183.489 166.012C183.713 165.787 184.018 165.661 184.335 165.661C184.652 165.661 184.957 165.787 185.181 166.012C185.405 166.236 185.531 166.54 185.531 166.858V176.418C185.532 176.575 185.501 176.731 185.44 176.876C185.38 177.021 185.292 177.153 185.181 177.264C185.07 177.375 184.938 177.464 184.793 177.524C184.648 177.584 184.492 177.615 184.335 177.615Z" stroke="#43293A" stroke-width="1.04" stroke-miterlimit="10" stroke-linecap="round" stroke-linejoin="round"/>
<path d="M178.936 148.288H189.736V152.179H178.936V148.288Z" fill="#43293A"/>
<path opacity="0.84" d="M150.75 186.745C151.699 186.745 152.468 185.976 152.468 185.027C152.468 184.078 151.699 183.309 150.75 183.309C149.801 183.309 149.031 184.078 149.031 185.027C149.031 185.976 149.801 186.745 150.75 186.745Z" fill="#EDAB7A"/>
<path d="M150.75 186.745C151.699 186.745 152.468 185.976 152.468 185.027C152.468 184.078 151.699 183.309 150.75 183.309C149.801 183.309 149.031 184.078 149.031 185.027C149.031 185.976 149.801 186.745 150.75 186.745Z" stroke="#43293A" stroke-width="1.04" stroke-miterlimit="10" stroke-linecap="round" stroke-linejoin="round"/>
<path d="M158.095 153.365C158.155 152.579 157.712 151.841 156.996 151.512C155.038 150.613 152.908 150.149 150.752 150.152C148.596 150.149 146.464 150.614 144.504 151.514C143.788 151.844 143.346 152.582 143.406 153.367C143.752 157.923 146.137 161.908 149.651 164.414C149.971 164.643 150.356 164.766 150.75 164.766C151.144 164.766 151.529 164.643 151.85 164.414C155.364 161.907 157.749 157.921 158.095 153.365Z" fill="#F7CFB5"/>
<path opacity="0.75" d="M151.849 161.109C151.528 161.338 151.144 161.461 150.75 161.461C150.355 161.461 149.971 161.338 149.65 161.109C146.694 159 144.542 155.842 143.726 152.181C143.488 152.528 143.375 152.947 143.405 153.367C143.752 157.923 146.137 161.908 149.65 164.414C149.971 164.643 150.355 164.766 150.75 164.766C151.144 164.766 151.528 164.643 151.849 164.414C155.363 161.908 157.749 157.921 158.094 153.365C158.125 152.945 158.012 152.527 157.774 152.179C156.958 155.841 154.806 159 151.849 161.109Z" fill="#F7CFB5"/>
<path d="M158.095 153.365C158.155 152.579 157.712 151.841 156.996 151.512C155.038 150.613 152.908 150.149 150.752 150.152C148.596 150.149 146.464 150.614 144.504 151.514C143.788 151.844 143.346 152.582 143.406 153.367C143.752 157.923 146.137 161.908 149.651 164.414C149.971 164.643 150.356 164.766 150.75 164.766C151.144 164.766 151.529 164.643 151.85 164.414C155.364 161.907 157.749 157.921 158.095 153.365Z" stroke="#43293A" stroke-width="1.3" stroke-miterlimit="10" stroke-linecap="round" stroke-linejoin="round"/>
<path d="M147.471 152.982C148.541 152.695 149.644 152.55 150.752 152.551C151.873 152.551 152.969 152.695 154.029 152.981C155.022 153.249 155.615 154.265 155.367 155.263C155.076 156.432 154.619 157.552 154.008 158.589" stroke="#43293A" stroke-width="0.78" stroke-miterlimit="10" stroke-linecap="round" stroke-linejoin="round"/>
</g>
</svg>
