<svg width="30" height="30" viewBox="0 0 30 30" fill="none" xmlns="http://www.w3.org/2000/svg">
<g id="Route 1">
<g id="Group">
<g id="Group_2">
<path id="Vector" d="M19.0078 17.4963C18.8789 15.8674 24.3633 15.9143 24.3633 15.9143C24.3633 15.9143 20.0977 14.9885 18.1055 16.6408C15.5742 18.7385 19.3945 20.0744 20.25 20.9299C21.1055 21.7854 21.1875 23.2854 17.4141 23.3791C13.6406 23.4611 10.9805 23.2033 10.9805 23.2033C10.9805 23.2033 10.2305 26.3205 9.5625 27.9611C9.5625 27.9611 16.8047 28.1721 19.7227 27.4924C22.6406 26.801 25.7227 24.4924 24.3984 21.8322C23.0859 19.1721 19.1367 19.1252 19.0078 17.4963Z" fill="#727176"/>
<path id="Vector_2" d="M8.37891 5.35547C4.39453 5.35547 1.17188 8.57812 1.17188 12.5625C1.17188 16.5469 6.91406 19.6758 8.37891 27.6211C10.4297 19.8047 15.5859 16.5469 15.5859 12.5625C15.5859 8.57812 12.3516 5.35547 8.37891 5.35547ZM8.37891 16.3828C6.26953 16.3828 4.55859 14.6719 4.55859 12.5625C4.55859 10.4531 6.26953 8.74219 8.37891 8.74219C10.4883 8.74219 12.1992 10.4531 12.1992 12.5625C12.1992 14.6719 10.4766 16.3828 8.37891 16.3828Z" fill="#727176"/>
<path id="Vector_3" d="M28.8281 6.28125C28.8281 3.92578 26.918 2.01562 24.5625 2.01562C22.207 2.01562 20.2969 3.92578 20.2969 6.28125C20.2969 8.63672 23.6953 10.5 24.5625 15.1992C25.7813 10.5703 28.8281 8.63672 28.8281 6.28125ZM22.3008 6.28125C22.3008 5.03906 23.3086 4.01953 24.5625 4.01953C25.8047 4.01953 26.8242 5.02734 26.8242 6.28125C26.8242 7.52344 25.8164 8.54297 24.5625 8.54297C23.3086 8.54297 22.3008 7.52344 22.3008 6.28125Z" fill="#727176"/>
</g>
</g>
</g>
</svg>
