<svg width="24" height="24" viewBox="0 0 24 24" fill="none" xmlns="http://www.w3.org/2000/svg">
<g id="MDI - map-marker-distance 1" clip-path="url(#clip0_1034_7842)">
<path id="Path / map-marker-distance" d="M6.22285 7.95313C5.88063 7.95313 5.54609 7.85165 5.26155 7.66153C4.97701 7.4714 4.75523 7.20117 4.62427 6.885C4.49331 6.56883 4.45904 6.22093 4.52581 5.88528C4.59257 5.54964 4.75736 5.24133 4.99935 4.99935C5.24133 4.75736 5.54964 4.59257 5.88528 4.52581C6.22093 4.45904 6.56883 4.49331 6.885 4.62427C7.20117 4.75523 7.4714 4.97701 7.66153 5.26155C7.85165 5.54609 7.95313 5.88063 7.95313 6.22285C7.95313 6.68175 7.77083 7.12185 7.44634 7.44634C7.12185 7.77083 6.68175 7.95313 6.22285 7.95313ZM6.22285 1.38627C5.58694 1.38355 4.95678 1.5068 4.36875 1.74889C3.78073 1.99099 3.24646 2.34714 2.7968 2.7968C2.34714 3.24646 1.99099 3.78073 1.74889 4.36875C1.5068 4.95678 1.38355 5.58694 1.38627 6.22285C1.38627 9.84342 6.22285 15.208 6.22285 15.208C6.22285 15.208 11.0594 9.84342 11.0594 6.22285C11.0621 5.58694 10.9389 4.95678 10.6968 4.36875C10.4547 3.78073 10.0985 3.24646 9.64889 2.7968C9.19923 2.34714 8.66497 1.99099 8.07694 1.74889C7.48891 1.5068 6.85876 1.38355 6.22285 1.38627ZM18.0457 7.95313C17.7035 7.95313 17.3689 7.85165 17.0844 7.66153C16.7999 7.4714 16.5781 7.20117 16.4471 6.885C16.3162 6.56883 16.2819 6.22093 16.3487 5.88528C16.4154 5.54964 16.5802 5.24133 16.8222 4.99935C17.0642 4.75736 17.3725 4.59257 17.7081 4.52581C18.0438 4.45904 18.3917 4.49331 18.7079 4.62427C19.024 4.75523 19.2943 4.97701 19.4844 5.26155C19.6745 5.54609 19.776 5.88063 19.776 6.22285C19.776 6.68175 19.5937 7.12185 19.2692 7.44634C18.9447 7.77083 18.5046 7.95313 18.0457 7.95313ZM18.0457 1.38627C17.4098 1.38355 16.7796 1.5068 16.1916 1.74889C15.6036 1.99099 15.0693 2.34714 14.6197 2.7968C14.17 3.24646 13.8138 3.78073 13.5717 4.36875C13.3297 4.95678 13.2064 5.58694 13.2091 6.22285C13.2091 9.84456 18.0457 15.208 18.0457 15.208C18.0457 15.208 22.8823 9.84342 22.8823 6.22285C22.885 5.58694 22.7618 4.95678 22.5197 4.36875C22.2776 3.78073 21.9214 3.24646 21.4717 2.7968C21.0221 2.34714 20.4878 1.99099 19.8998 1.74889C19.3118 1.5068 18.6816 1.38355 18.0457 1.38627ZM18.0457 16.4331C17.3799 16.4326 16.7304 16.6393 16.1873 17.0245C15.6443 17.4097 15.2345 17.9543 15.0148 18.5828H9.2537C9.04077 17.9809 8.654 17.4556 8.14238 17.0736C7.63076 16.6916 7.01729 16.47 6.37964 16.4368C5.74199 16.4037 5.10884 16.5605 4.56036 16.8874C4.01187 17.2143 3.57272 17.6966 3.2985 18.2732C3.02428 18.8498 2.92733 19.4948 3.01992 20.1266C3.11251 20.7584 3.39048 21.3485 3.81863 21.8221C4.24678 22.2958 4.80586 22.6318 5.42508 22.7876C6.0443 22.9433 6.69581 22.9119 7.29713 22.6971C7.7472 22.5322 8.15564 22.2707 8.49369 21.9308C8.83173 21.591 9.09116 21.1812 9.2537 20.7303H15.0251C15.3178 21.527 15.9126 22.1764 16.6807 22.5376C17.4488 22.8988 18.3283 22.9427 19.1286 22.6599C19.9288 22.3771 20.5855 21.7904 20.9561 21.0268C21.3267 20.2632 21.3815 19.3843 21.1086 18.5806C20.8818 17.9503 20.4658 17.4055 19.9175 17.0207C19.3693 16.6359 18.7155 16.4299 18.0457 16.4308M18.0457 21.2674C17.7268 21.2674 17.415 21.1728 17.1498 20.9956C16.8846 20.8185 16.6779 20.5666 16.5559 20.272C16.4338 19.9773 16.4019 19.6531 16.4641 19.3403C16.5263 19.0274 16.6799 18.7401 16.9054 18.5146C17.131 18.2891 17.4183 18.1355 17.7311 18.0733C18.0439 18.011 18.3681 18.043 18.6628 18.165C18.9575 18.2871 19.2093 18.4938 19.3865 18.7589C19.5637 19.0241 19.6583 19.3359 19.6583 19.6548C19.6589 19.867 19.6176 20.0772 19.5368 20.2734C19.4561 20.4695 19.3374 20.6478 19.1876 20.7981C19.0378 20.9483 18.8598 21.0675 18.6639 21.1488C18.4679 21.2301 18.2579 21.272 18.0457 21.272V21.2674Z" fill="#9390BC"/>
</g>
<defs>
<clipPath id="clip0_1034_7842">
<rect width="24" height="24" fill="white"/>
</clipPath>
</defs>
</svg>
