<svg width="24" height="24" viewBox="0 0 24 24" fill="none" xmlns="http://www.w3.org/2000/svg">
<g id="Event" clip-path="url(#clip0_1034_7876)">
<path id="Vector" opacity="0.3" d="M5.69995 8.4001H18.3V6.6001H5.69995V8.4001Z" fill="#727176"/>
<path id="Vector_2" d="M18.2999 4.8H17.3999V3H15.5999V4.8H8.39991V3H6.59991V4.8H5.6999C4.7009 4.8 3.9089 5.61 3.9089 6.6L3.8999 19.2C3.8999 19.6774 4.08954 20.1352 4.42711 20.4728C4.76468 20.8104 5.22251 21 5.6999 21H18.2999C19.2899 21 20.0999 20.19 20.0999 19.2V6.6C20.0999 5.61 19.2899 4.8 18.2999 4.8ZM18.2999 19.2H5.6999V10.2H18.2999V19.2ZM18.2999 8.40001H5.6999V6.6H18.2999V8.40001ZM11.9999 12.9H16.4999V17.4H11.9999V12.9Z" fill="#727176"/>
</g>
<defs>
<clipPath id="clip0_1034_7876">
<rect width="24" height="24" fill="white"/>
</clipPath>
</defs>
</svg>
