<svg width="20" height="20" viewBox="0 0 20 20" fill="none" xmlns="http://www.w3.org/2000/svg">
<g id="Clip path group">
<mask id="mask0_1032_6164" style="mask-type:luminance" maskUnits="userSpaceOnUse" x="0" y="0" width="20" height="20">
<g id="clip-path">
<path id="Rectangle 1515" d="M20 0H0V20H20V0Z" fill="white"/>
</g>
</mask>
<g mask="url(#mask0_1032_6164)">
<g id="Group 1970">
<path id="Path 2559" d="M13.3978 3.8954C13.3978 4.79655 13.1251 5.6698 12.6262 6.36635C12.1273 7.0629 11.4331 7.53964 10.6619 7.71535C9.89068 7.89106 9.09016 7.75486 8.39675 7.32996C7.70333 6.90506 7.15993 6.21776 6.85912 5.38515C6.55831 4.55254 6.51871 3.62616 6.74707 2.76384C6.97544 1.90153 7.45762 1.15664 8.11148 0.6561C8.76534 0.155563 9.55041 -0.0696539 10.3329 0.0188264C11.1154 0.107307 11.8469 0.504009 12.4029 1.14134C13.04 1.87184 13.3979 2.86249 13.3978 3.8954Z" fill="#807EAD"/>
<path id="Path 2560" d="M19.0237 5.33104C19.0237 5.81806 18.8977 6.29413 18.6616 6.69907C18.4255 7.10401 18.0899 7.41962 17.6973 7.60599C17.3047 7.79236 16.8727 7.84113 16.456 7.74612C16.0392 7.65111 15.6563 7.41658 15.3559 7.07221C15.0554 6.72784 14.8507 6.28909 14.7678 5.81143C14.6849 5.33377 14.7275 4.83867 14.8901 4.38873C15.0527 3.93878 15.3281 3.55421 15.6814 3.28364C16.0348 3.01307 16.4502 2.86865 16.8751 2.86865C17.4449 2.86865 17.9915 3.12808 18.3944 3.58987C18.7973 4.05166 19.0237 4.67798 19.0237 5.33104Z" fill="#807EAD"/>
<path id="Path 2561" d="M5.27368 5.33104C5.27368 5.81806 5.14768 6.29413 4.91159 6.69907C4.6755 7.10401 4.33994 7.41962 3.94734 7.60599C3.55474 7.79236 3.12274 7.84113 2.70596 7.74612C2.28918 7.65111 1.90634 7.41658 1.60586 7.07221C1.30538 6.72784 1.10075 6.28909 1.01785 5.81143C0.934945 5.33377 0.977494 4.83867 1.14011 4.38873C1.30273 3.93878 1.57812 3.55421 1.93145 3.28364C2.28478 3.01307 2.70018 2.86865 3.12512 2.86865C3.69496 2.86865 4.24145 3.12808 4.64439 3.58987C5.04732 4.05166 5.27368 4.67798 5.27368 5.33104Z" fill="#807EAD"/>
<path id="Path 2562" d="M5.24157 10.0048C4.39593 9.21082 3.63015 9.31616 2.65238 9.31616C1.95129 9.31458 1.27828 9.63181 0.781029 10.1982C0.283776 10.7647 0.00288944 11.534 0 12.3375L0 17.2268C0.00121572 17.5751 0.122803 17.9086 0.338144 18.1545C0.553485 18.4003 0.845034 18.5383 1.14896 18.5383C3.88407 18.5383 3.55489 18.5949 3.55489 18.4033C3.55489 14.9388 3.19699 12.3981 5.24214 10.0055" fill="#807EAD"/>
<path id="Path 2563" d="M10.9304 9.3328C9.2225 9.16952 7.73804 9.3328 6.45752 10.5462C4.31471 12.5135 4.72718 15.1622 4.72718 18.4022C4.72779 18.8177 4.8721 19.216 5.12849 19.5099C5.38487 19.8037 5.73244 19.9691 6.09502 19.9698C14.3406 19.9698 14.6686 20.2746 15.1575 19.0336C15.3178 18.6142 15.2724 18.7472 15.2724 14.7329C15.2724 11.5443 12.8636 9.33412 10.9293 9.33412" fill="#807EAD"/>
<path id="Path 2564" d="M17.347 9.31601C16.3641 9.31601 15.6023 9.21199 14.7578 10.0053C16.7875 12.3808 16.4451 14.7458 16.4451 18.4031C16.4451 18.5961 16.1716 18.5381 18.8102 18.5381C19.125 18.5385 19.4271 18.3956 19.6502 18.141C19.8733 17.8863 19.999 17.5407 20 17.1799V12.3374C19.9971 11.5339 19.7162 10.7645 19.2189 10.1981C18.7217 9.63166 18.0487 9.31444 17.3476 9.31601" fill="#807EAD"/>
</g>
</g>
</g>
</svg>
