<svg width="20" height="20" viewBox="0 0 20 20" fill="none" xmlns="http://www.w3.org/2000/svg">
<g id="Component 8">
<path id="Vector" d="M7.66667 2C9.5 2 11 3.5 11 5.33333C11 7.16667 9.5 8.66667 7.66667 8.66667C5.83333 8.66667 4.33333 7.16667 4.33333 5.33333C4.33333 3.5 5.83333 2 7.66667 2ZM13.5 16.1667L15 17.6417C15.4167 18.0583 16 17.725 16 17.2333V13.6667L18.3333 10.8333C18.4262 10.7095 18.4827 10.5623 18.4966 10.4082C18.5105 10.254 18.4812 10.0991 18.412 9.96066C18.3428 9.82224 18.2364 9.70582 18.1048 9.62446C17.9731 9.5431 17.8214 9.5 17.6667 9.5H11.8333C11.1667 9.5 10.75 10.3333 11.1667 10.8333L13.5 13.6667V16.1667ZM11.8333 14.25L9.91667 11.9167C9.58333 11.5 9.41667 11 9.41667 10.5C8.83333 10.3333 8.25 10.3333 7.66667 10.3333C4 10.3333 1 11.8333 1 13.6667V15.3333H11.8333V14.25Z" fill="#807EAD"/>
</g>
</svg>
