<svg width="24" height="24" viewBox="0 0 24 24" fill="none" xmlns="http://www.w3.org/2000/svg">
<g id="solar:sleeping-bold">
<g id="Group">
<path id="Vector" d="M2.74927 6C2.74927 5.80109 2.67025 5.61032 2.5296 5.46967C2.38895 5.32902 2.19818 5.25 1.99927 5.25C1.80036 5.25 1.60959 5.32902 1.46894 5.46967C1.32829 5.61032 1.24927 5.80109 1.24927 6V18C1.24927 18.1989 1.32829 18.3897 1.46894 18.5303C1.60959 18.671 1.80036 18.75 1.99927 18.75C2.19818 18.75 2.38895 18.671 2.5296 18.5303C2.67025 18.3897 2.74927 18.1989 2.74927 18V16.75H21.1413V18C21.1413 18.1989 21.2203 18.3897 21.3609 18.5303C21.5016 18.671 21.6924 18.75 21.8913 18.75C22.0902 18.75 22.2809 18.671 22.4216 18.5303C22.5623 18.3897 22.6413 18.1989 22.6413 18V15.643C22.6413 13.648 22.6413 12.651 22.3613 11.849C22.1132 11.14 21.7085 10.496 21.1774 9.96488C20.6462 9.43374 20.0023 9.02909 19.2933 8.781C18.4913 8.501 17.4933 8.501 15.4993 8.501H15.4973C14.6993 8.501 13.6593 8.501 13.3383 8.612C13.0547 8.71124 12.7972 8.87308 12.5848 9.0855C12.3723 9.29792 12.2105 9.55546 12.1113 9.839C11.9993 10.16 11.9993 10.56 11.9993 11.357V15.25H2.74927V6Z" fill="#777777"/>
<path id="Vector_2" d="M7 13.5C7.66304 13.5 8.29893 13.2366 8.76777 12.7678C9.23661 12.2989 9.5 11.663 9.5 11C9.5 10.337 9.23661 9.70107 8.76777 9.23223C8.29893 8.76339 7.66304 8.5 7 8.5C6.33696 8.5 5.70107 8.76339 5.23223 9.23223C4.76339 9.70107 4.5 10.337 4.5 11C4.5 11.663 4.76339 12.2989 5.23223 12.7678C5.70107 13.2366 6.33696 13.5 7 13.5Z" fill="#777777"/>
</g>
</g>
</svg>
