<svg width="242" height="152" viewBox="0 0 242 152" fill="none" xmlns="http://www.w3.org/2000/svg">
<g opacity="0.3" clip-path="url(#clip0_2673_3419)">
<path d="M46.8478 24.0195C45.9859 24.0195 45.1749 24.2382 44.4675 24.6228C42.9799 22.1601 40.2777 20.5131 37.1904 20.5131C35.732 20.5114 34.2979 20.887 33.0277 21.6036C30.6609 18.1413 26.6826 15.8682 22.1724 15.8682C14.9148 15.8682 9.03125 21.7518 9.03125 29.0094H51.8368C51.8377 26.2536 49.6035 24.0195 46.8478 24.0195Z" fill="#ECF9FF"/>
<path d="M206.775 41.6274H189.375L184.239 12.8274H200.172L206.775 41.6274Z" fill="white"/>
<path d="M189.375 41.6274H171.975L168.307 12.8274H184.239L189.375 41.6274Z" fill="#F5A623"/>
<path d="M171.974 41.6274H154.574L152.374 12.8274H168.306L171.974 41.6274Z" fill="white"/>
<path d="M154.575 41.6274H137.175L136.441 12.8274H152.374L154.575 41.6274Z" fill="#F5A623"/>
<path d="M137.174 41.6274H119.774L120.508 12.8274H136.441L137.174 41.6274Z" fill="white"/>
<path d="M119.775 41.6274H102.375L104.575 12.8274H120.508L119.775 41.6274Z" fill="#F5A623"/>
<path d="M102.375 41.6274H84.9746L88.6424 12.8274H104.575L102.375 41.6274Z" fill="white"/>
<path d="M84.9747 41.6274H67.5747L72.7098 12.8274H88.6425L84.9747 41.6274Z" fill="#F5A623"/>
<path d="M67.5743 41.6274H50.1743L56.7767 12.8274H72.7094L67.5743 41.6274Z" fill="white"/>
<path d="M56.7744 52.5725H107.474V123.373H56.7744V52.5725Z" fill="#F5969C"/>
<path opacity="0.18" d="M64.7246 108.962H99.5246V110.784H64.7246V108.962Z" fill="#282828" stroke="#282828" stroke-width="1.8" stroke-miterlimit="10" stroke-linecap="round" stroke-linejoin="round"/>
<path d="M97.4487 70.2837H105.05V73.7976H97.4487V70.2837ZM56.7744 64.1838H61.8495V67.6977H56.7744V64.1838ZM102.649 74.6976H108.049V78.2115H102.649V74.6976ZM103.15 111.984H106.95V115.498H103.15V111.984ZM70.1487 111.984H77.7495V115.498H70.1487V111.984ZM65.9487 116.398H73.5495V119.912H65.9487V116.398Z" fill="#DF747C"/>
<path d="M56.7744 52.5725H107.774V123.373H56.7744V52.5725Z" stroke="#2D255E" stroke-width="1.8" stroke-miterlimit="10" stroke-linecap="round" stroke-linejoin="round"/>
<path d="M66.5244 54.9624H97.7244V106.562H66.5244V54.9624Z" fill="#66CDFD"/>
<path d="M86.6261 103.634H75.1211C75.013 103.634 74.9059 103.613 74.806 103.572C74.7062 103.53 74.6154 103.47 74.539 103.393C74.4625 103.317 74.4019 103.226 74.3605 103.126C74.3191 103.026 74.2979 102.919 74.2979 102.811V102.446C74.2979 102.338 74.3191 102.231 74.3605 102.131C74.4019 102.031 74.4625 101.94 74.539 101.864C74.6154 101.787 74.7062 101.727 74.806 101.685C74.9059 101.644 75.013 101.623 75.1211 101.623H86.6261C86.7342 101.623 86.8412 101.644 86.9411 101.685C87.041 101.727 87.1317 101.787 87.2081 101.864C87.2846 101.94 87.3452 102.031 87.3866 102.131C87.428 102.231 87.4493 102.338 87.4493 102.446V102.811C87.4493 102.919 87.428 103.026 87.3867 103.126C87.3453 103.226 87.2847 103.317 87.2082 103.393C87.1318 103.47 87.041 103.53 86.9411 103.572C86.8412 103.613 86.7342 103.634 86.6261 103.634Z" fill="#3297D9"/>
<path d="M78.4493 103.269H83.3492V106.798H78.4493V103.269ZM92.018 106.884H89.618V95.5477C89.618 95.2294 89.7445 94.9242 89.9695 94.6991C90.1945 94.4741 90.4998 94.3477 90.818 94.3477C91.1363 94.3477 91.4415 94.4741 91.6665 94.6991C91.8916 94.9242 92.018 95.2294 92.018 95.5477V106.884ZM72.4991 106.884H70.0991V95.5477C70.0991 95.2294 70.2255 94.9242 70.4506 94.6991C70.6756 94.4741 70.9809 94.3477 71.2991 94.3477C71.6174 94.3477 71.9226 94.4741 72.1477 94.6991C72.3727 94.9242 72.4991 95.2294 72.4991 95.5477V106.884Z" fill="#3297D9"/>
<path opacity="0.3" d="M96.5911 106.562L97.7245 104.944V83.1945L81.3619 106.562H96.5911ZM79.3117 106.562L97.7245 80.2662V75.3528L75.8713 106.562H79.3117ZM73.186 106.562L97.7245 71.5176V69.0609L71.4658 106.562H73.186Z" fill="white"/>
<path d="M66.5244 54.9624H97.7244V106.562H66.5244V54.9624Z" stroke="#2D255E" stroke-width="1.8" stroke-miterlimit="10" stroke-linecap="round" stroke-linejoin="round"/>
<path d="M64.7246 106.562H99.5246V110.162H64.7246V106.562Z" fill="#D49D7F"/>
<path d="M64.7246 106.562H99.5246V110.162H64.7246V106.562Z" stroke="#2D255E" stroke-width="1.8" stroke-miterlimit="10" stroke-linecap="round" stroke-linejoin="round"/>
<path d="M149.174 53.5974V141.373H107.774V53.5974H149.174Z" fill="#D49D7F"/>
<path d="M149.174 53.5974V141.373H107.774V53.5974H149.174Z" stroke="#2D255E" stroke-width="1.8" stroke-miterlimit="10" stroke-linecap="round" stroke-linejoin="round"/>
<path d="M112.274 58.4976H144.674V119.298H112.274V58.4976Z" fill="#66CDFD"/>
<path opacity="0.3" d="M144.974 119.598V90.6894L128.284 119.598H144.974ZM126.314 119.298L144.674 87.4965V77.5614L120.578 119.298H126.314ZM117.9 119.298L144.674 72.9234V69.699L116.039 119.298H117.9Z" fill="white"/>
<path d="M112.274 58.4976H144.674V119.298H112.274V58.4976Z" stroke="#2D255E" stroke-width="1.8" stroke-miterlimit="10" stroke-linecap="round" stroke-linejoin="round"/>
<path d="M51.0747 123.373H110.1V141.373H51.0747V123.373Z" fill="#DB6B7B"/>
<path d="M51.0747 123.373H53.6004V141.373H51.0747V123.373ZM108.1 123.373H109.562V141.373H108.1V123.373Z" fill="#CE5569"/>
<path d="M51.0747 123.373H110.1V141.373H51.0747V123.373Z" stroke="#2D255E" stroke-width="1.8" stroke-miterlimit="10" stroke-linecap="round" stroke-linejoin="round"/>
<path d="M200 123.373H149.3V52.5726H200V123.373Z" fill="#F5969C"/>
<path d="M188.249 116.398H195.85V119.912H188.249V116.398ZM149.3 116.398H156.901V119.912H149.3V116.398ZM183.699 111.984H191.3V115.498H183.699V111.984ZM154.575 62.6274H159.225V66.1413H154.575V62.6274ZM149 96.6726H153.65V100.187H149V96.6726Z" fill="#DF747C"/>
<path d="M200 123.373H149V52.5726H200V123.373Z" stroke="#2D255E" stroke-width="1.8" stroke-miterlimit="10" stroke-linecap="round" stroke-linejoin="round"/>
<path d="M159.05 54.9624H190.25V106.562H159.05V54.9624Z" fill="#66CDFD"/>
<path d="M170.148 103.634H181.653C181.761 103.634 181.868 103.613 181.968 103.572C182.068 103.53 182.159 103.47 182.235 103.393C182.311 103.317 182.372 103.226 182.413 103.126C182.455 103.026 182.476 102.919 182.476 102.811V102.446C182.476 102.338 182.455 102.231 182.413 102.131C182.372 102.031 182.311 101.94 182.235 101.864C182.159 101.787 182.068 101.727 181.968 101.685C181.868 101.644 181.761 101.623 181.653 101.623H170.148C170.04 101.623 169.933 101.644 169.833 101.685C169.733 101.727 169.642 101.787 169.566 101.864C169.489 101.94 169.429 102.031 169.387 102.131C169.346 102.231 169.325 102.338 169.325 102.446V102.811C169.325 103.029 169.411 103.239 169.566 103.393C169.72 103.548 169.93 103.634 170.148 103.634Z" fill="#3297D9"/>
<path d="M178.325 106.797H173.425V103.269H178.325V106.797Z" fill="#3297D9"/>
<path d="M164.755 106.884H167.155V95.5477C167.155 95.2294 167.029 94.9242 166.804 94.6991C166.579 94.4741 166.274 94.3477 165.955 94.3477C165.637 94.3477 165.332 94.4741 165.107 94.6991C164.882 94.9242 164.755 95.2294 164.755 95.5477V106.884ZM184.274 106.884H186.674V95.5477C186.674 95.2294 186.548 94.9242 186.323 94.6991C186.098 94.4741 185.793 94.3477 185.474 94.3477C185.156 94.3477 184.851 94.4741 184.626 94.6991C184.401 94.9242 184.274 95.2294 184.274 95.5477V106.884Z" fill="#3297D9"/>
<path opacity="0.3" d="M189.116 106.562L190.25 104.944V83.1945L173.887 106.562H189.116ZM171.837 106.562L190.25 80.2662V75.3528L168.397 106.562H171.837ZM165.711 106.562L190.25 71.5176V69.0609L163.991 106.562H165.711Z" fill="white"/>
<path d="M159.05 54.9624H190.25V106.562H159.05V54.9624Z" stroke="#2D255E" stroke-width="1.8" stroke-miterlimit="10" stroke-linecap="round" stroke-linejoin="round"/>
<path opacity="0.18" d="M157.25 108.962H192.05V110.784H157.25V108.962Z" fill="#282828" stroke="#282828" stroke-width="1.8" stroke-miterlimit="10" stroke-linecap="round" stroke-linejoin="round"/>
<path d="M192.05 110.162H157.25V106.562H192.05V110.162Z" fill="#D49D7F"/>
<path d="M192.05 110.162H157.25V106.562H192.05V110.162Z" stroke="#2D255E" stroke-width="1.8" stroke-miterlimit="10" stroke-linecap="round" stroke-linejoin="round"/>
<path d="M205.699 141.373H147.149V123.373H205.699V141.373Z" fill="#DB6B7B"/>
<path d="M147.149 123.373H149.3V141.373H147.149V123.373Z" fill="#CE5569"/>
<path d="M205.699 141.373H147.149V123.373H205.699V141.373Z" stroke="#2D255E" stroke-width="1.8" stroke-miterlimit="10" stroke-linecap="round" stroke-linejoin="round"/>
<path d="M118.1 101.098C117.741 101.098 117.398 100.955 117.145 100.702C116.892 100.449 116.75 100.106 116.75 99.7476V85.2477C116.75 84.8897 116.892 84.5463 117.145 84.2931C117.398 84.0399 117.741 83.8977 118.1 83.8977C118.458 83.8977 118.801 84.0399 119.054 84.2931C119.307 84.5463 119.45 84.8897 119.45 85.2477V99.7476C119.45 100.106 119.307 100.449 119.054 100.702C118.801 100.955 118.458 101.098 118.1 101.098Z" fill="#2D255E"/>
<path opacity="0.18" d="M189.374 43.4275H56.7744V61.7707C57.447 61.9375 58.1502 62.0275 58.8744 62.0275C63.6792 62.0275 67.5744 58.1323 67.5744 53.3275C67.5744 58.1323 71.4696 62.0275 76.2744 62.0275C81.0792 62.0275 84.9744 58.1323 84.9744 53.3275C84.9744 58.1323 88.8696 62.0275 93.6744 62.0275C98.4792 62.0275 102.374 58.1323 102.374 53.3275C102.374 58.1323 106.27 62.0275 111.074 62.0275C115.879 62.0275 119.774 58.1323 119.774 53.3275C119.774 58.1323 123.67 62.0275 128.474 62.0275C133.279 62.0275 137.174 58.1323 137.174 53.3275C137.174 58.1323 141.07 62.0275 145.874 62.0275C150.679 62.0275 154.574 58.1323 154.574 53.3275C154.574 58.1323 158.47 62.0275 163.274 62.0275C168.079 62.0275 171.974 58.1323 171.974 53.3275C171.974 58.1323 175.87 62.0275 180.674 62.0275C185.479 62.0275 189.374 58.1323 189.374 53.3275C189.374 58.1323 193.27 62.0275 198.074 62.0275C198.736 62.0275 199.38 61.951 199.999 61.8112V43.4275H189.374Z" fill="#282828" stroke="#282828" stroke-width="1.8" stroke-miterlimit="10" stroke-linecap="round" stroke-linejoin="round"/>
<path d="M180.675 60.2274C175.87 60.2274 171.975 56.3322 171.975 51.5274V41.6274H189.375V51.5274C189.375 56.3322 185.479 60.2274 180.675 60.2274Z" fill="#D68821"/>
<path d="M163.275 60.2274C158.47 60.2274 154.575 56.3322 154.575 51.5274V41.6274H171.975V51.5274C171.975 56.3322 168.08 60.2274 163.275 60.2274Z" fill="#D6D6D6"/>
<path d="M145.874 60.2274C141.07 60.2274 137.174 56.3322 137.174 51.5274V41.6274H154.574V51.5274C154.574 56.3322 150.679 60.2274 145.874 60.2274Z" fill="#D68821"/>
<path d="M128.474 60.2274C123.67 60.2274 119.774 56.3322 119.774 51.5274V41.6274H137.174V51.5274C137.174 56.3322 133.279 60.2274 128.474 60.2274Z" fill="#D6D6D6"/>
<path d="M111.075 60.2274C106.27 60.2274 102.375 56.3322 102.375 51.5274V41.6274H119.775V51.5274C119.775 56.3322 115.879 60.2274 111.075 60.2274Z" fill="#D68821"/>
<path d="M93.6746 60.2274C88.8698 60.2274 84.9746 56.3322 84.9746 51.5274V41.6274H102.375V51.5274C102.375 56.3322 98.4794 60.2274 93.6746 60.2274Z" fill="#D6D6D6"/>
<path d="M76.2747 60.2274C71.4699 60.2274 67.5747 56.3322 67.5747 51.5274V41.6274H84.9747V51.5274C84.9747 56.3322 81.0795 60.2274 76.2747 60.2274Z" fill="#D68821"/>
<path d="M58.8743 60.2274C54.0695 60.2274 50.1743 56.3322 50.1743 51.5274V41.6274H67.5743V51.5274C67.5743 56.3322 63.6791 60.2274 58.8743 60.2274Z" fill="#D6D6D6"/>
<path d="M171.974 51.5274C171.974 56.3322 175.87 60.2274 180.674 60.2274C185.479 60.2274 189.374 56.3322 189.374 51.5274V41.6274H171.974M171.974 51.5274V41.6274M171.974 51.5274C171.974 56.3322 168.079 60.2274 163.274 60.2274C158.47 60.2274 154.574 56.3322 154.574 51.5274M171.974 41.6274H154.574M154.574 51.5274V41.6274M154.574 51.5274C154.574 56.3322 150.679 60.2274 145.874 60.2274C141.07 60.2274 137.174 56.3322 137.174 51.5274M154.574 41.6274H137.174M137.174 51.5274V41.6274M137.174 51.5274C137.174 56.3322 133.279 60.2274 128.474 60.2274C123.67 60.2274 119.774 56.3322 119.774 51.5274V41.6274H137.174" stroke="#2D255E" stroke-width="1.8" stroke-miterlimit="10" stroke-linecap="round" stroke-linejoin="round"/>
<path d="M102.374 51.5274C102.374 56.3322 106.27 60.2274 111.074 60.2274C115.879 60.2274 119.774 56.3322 119.774 51.5274V41.6274H102.374M102.374 51.5274V41.6274M102.374 51.5274C102.374 56.3322 98.4791 60.2274 93.6743 60.2274C88.8695 60.2274 84.9743 56.3322 84.9743 51.5274M102.374 41.6274H84.9743M84.9743 51.5274V41.6274M84.9743 51.5274C84.9743 56.3322 81.0791 60.2274 76.2743 60.2274C71.4695 60.2274 67.5743 56.3322 67.5743 51.5274M84.9743 41.6274H67.5743M67.5743 51.5274V41.6274M67.5743 51.5274C67.5743 56.3322 63.6791 60.2274 58.8743 60.2274C54.0695 60.2274 50.1743 56.3322 50.1743 51.5274V41.6274H67.5743M206.774 41.6274H189.374L184.239 12.8274H200.172L206.774 41.6274Z" stroke="#2D255E" stroke-width="1.8" stroke-miterlimit="10" stroke-linecap="round" stroke-linejoin="round"/>
<path d="M189.375 41.6274H171.975L168.307 12.8274H184.239L189.375 41.6274Z" stroke="#2D255E" stroke-width="1.8" stroke-miterlimit="10" stroke-linecap="round" stroke-linejoin="round"/>
<path d="M171.974 41.6274H154.574L152.374 12.8274H168.306L171.974 41.6274Z" stroke="#2D255E" stroke-width="1.8" stroke-miterlimit="10" stroke-linecap="round" stroke-linejoin="round"/>
<path d="M154.575 41.6274H137.175L136.441 12.8274H152.374L154.575 41.6274Z" stroke="#2D255E" stroke-width="1.8" stroke-miterlimit="10" stroke-linecap="round" stroke-linejoin="round"/>
<path d="M137.174 41.6274H119.774L120.508 12.8274H136.441L137.174 41.6274Z" stroke="#2D255E" stroke-width="1.8" stroke-miterlimit="10" stroke-linecap="round" stroke-linejoin="round"/>
<path d="M119.775 41.6274H102.375L104.575 12.8274H120.508L119.775 41.6274Z" stroke="#2D255E" stroke-width="1.8" stroke-miterlimit="10" stroke-linecap="round" stroke-linejoin="round"/>
<path d="M102.375 41.6274H84.9746L88.6424 12.8274H104.575L102.375 41.6274Z" stroke="#2D255E" stroke-width="1.8" stroke-miterlimit="10" stroke-linecap="round" stroke-linejoin="round"/>
<path d="M67.5743 41.6274H84.9743L88.6421 12.8274H72.7094M67.5743 41.6274L72.7094 12.8274M67.5743 41.6274H50.1743L56.7767 12.8274H72.7094" stroke="#2D255E" stroke-width="1.8" stroke-miterlimit="10" stroke-linecap="round" stroke-linejoin="round"/>
<path d="M56.7744 7.42737H200.174V12.8274H56.7744V7.42737Z" fill="#DB6B7B"/>
<path d="M56.7744 7.42737H200.174V9.29757H56.7744V7.42737Z" fill="#F5969C"/>
<path d="M35.6328 106.807V123.903M56.7744 7.42737H200.174V12.8274H56.7744V7.42737Z" stroke="#2D255E" stroke-width="1.8" stroke-miterlimit="10" stroke-linecap="round" stroke-linejoin="round"/>
<path d="M41.2656 107.348H39.4632C35.9097 107.348 33.0288 104.467 33.0288 100.914V86.1463C33.0288 82.5928 35.9097 79.7119 39.4632 79.7119H41.2656C44.8191 79.7119 47.7 82.5928 47.7 86.1463V100.914C47.7 104.467 44.8191 107.348 41.2656 107.348Z" fill="#14A56A"/>
<path d="M30.7573 112.759L31.6477 117.322L35.6329 118.838M41.2654 107.348H39.463C35.9095 107.348 33.0286 104.467 33.0286 100.914V86.1463C33.0286 82.5928 35.9095 79.7119 39.463 79.7119H41.2654C44.8189 79.7119 47.6998 82.5928 47.6998 86.1463V100.914C47.6998 104.467 44.8189 107.348 41.2654 107.348Z" stroke="#2D255E" stroke-width="1.8" stroke-miterlimit="10" stroke-linecap="round" stroke-linejoin="round"/>
<path d="M28.8593 113.527C25.9361 113.527 23.5664 111.157 23.5664 108.234V100.39C23.5664 97.4672 25.9361 95.0975 28.8593 95.0975C31.7825 95.0975 34.1522 97.4672 34.1522 100.39V108.234C34.1522 111.157 31.7825 113.527 28.8593 113.527Z" fill="#12B075"/>
<path d="M28.8593 113.527C25.9361 113.527 23.5664 111.157 23.5664 108.234V100.39C23.5664 97.4672 25.9361 95.0975 28.8593 95.0975C31.7825 95.0975 34.1522 97.4672 34.1522 100.39V108.234C34.1522 111.157 31.7825 113.527 28.8593 113.527Z" stroke="#2D255E" stroke-width="1.8" stroke-miterlimit="10" stroke-linecap="round" stroke-linejoin="round"/>
<path d="M42.4526 140.872H28.8131L26.9741 123.017H44.2919L42.4526 140.872Z" fill="#69351F"/>
<path d="M39.0934 123.017L37.2544 140.872H42.4528L44.2918 123.017H39.0934Z" fill="#632D1B"/>
<path d="M37.1744 126.748H43.6523V129.226H37.1744V126.748ZM27.6743 131.134H33.1952V133.612H27.6743V131.134ZM35.3237 135.034H42.9266V137.512H35.3237V135.034Z" fill="#562314"/>
<path d="M35.9498 117.234L40.2185 114.912V93.5299M40.4135 100.098L43.6523 97.4977M42.4526 140.872H28.8131L26.9741 123.017H44.2919L42.4526 140.872Z" stroke="#2D255E" stroke-width="1.8" stroke-miterlimit="10" stroke-linecap="round" stroke-linejoin="round"/>
<path d="M121.707 81.2548L137.553 77.8866L139.133 85.3204L123.287 88.6886L121.707 81.2548Z" fill="#E8E8E8"/>
<path d="M121.707 81.2548L137.553 77.8866L139.133 85.3204L123.287 88.6886L121.707 81.2548Z" stroke="#2D255E" stroke-width="0.9" stroke-miterlimit="10" stroke-linecap="round" stroke-linejoin="round"/>
<path d="M125.251 82.9532L135.009 80.879C135.101 80.8595 135.195 80.8583 135.287 80.8753C135.379 80.8923 135.467 80.9273 135.545 80.9782C135.624 81.0292 135.691 81.095 135.744 81.1721C135.797 81.2492 135.834 81.3359 135.854 81.4274L136.14 82.7735C136.179 82.9582 136.144 83.1509 136.041 83.3093C135.938 83.4676 135.776 83.5787 135.592 83.618L125.834 85.6922C125.742 85.7116 125.648 85.7129 125.556 85.6959C125.464 85.6788 125.376 85.6438 125.298 85.5929C125.22 85.542 125.152 85.4761 125.099 85.3991C125.046 85.322 125.009 85.2352 124.989 85.1438L124.703 83.7977C124.684 83.7062 124.682 83.6119 124.699 83.5199C124.716 83.428 124.751 83.3403 124.802 83.2619C124.853 83.1834 124.919 83.1158 124.996 83.0628C125.073 83.0099 125.16 82.9726 125.251 82.9532Z" fill="#D3D3D3"/>
<path d="M126.651 79.8928L129.126 72.5977L132.154 78.5167" stroke="#2D255E" stroke-width="0.6" stroke-miterlimit="10" stroke-linecap="round" stroke-linejoin="round"/>
<path d="M129.127 73.8975C129.624 73.8975 130.027 73.4946 130.027 72.9975C130.027 72.5005 129.624 72.0975 129.127 72.0975C128.63 72.0975 128.227 72.5005 128.227 72.9975C128.227 73.4946 128.63 73.8975 129.127 73.8975Z" fill="#2D255E"/>
<path d="M74.4492 116.398H82.05V119.911H74.4492V116.398Z" fill="#DF747C"/>
<path opacity="0.38" d="M36.6245 90.9726L38.084 93.5298M37.8497 85.2843L39.3092 87.8415" stroke="#006837" stroke-width="1.8" stroke-miterlimit="10" stroke-linecap="round" stroke-linejoin="round"/>
<path d="M41.3027 84.8058L42.7625 87.3627" stroke="#39D188" stroke-width="1.8" stroke-miterlimit="10" stroke-linecap="round" stroke-linejoin="round"/>
<path opacity="0.38" d="M27.8838 105.382L28.7934 106.932" stroke="#006837" stroke-width="1.8" stroke-miterlimit="10" stroke-linecap="round" stroke-linejoin="round"/>
<path d="M28.4043 101.16L29.3139 102.71" stroke="#39D188" stroke-width="1.8" stroke-miterlimit="10" stroke-linecap="round" stroke-linejoin="round"/>
<path d="M198.075 60.2274C193.27 60.2274 189.375 56.3322 189.375 51.5274V41.6274H206.775V51.5274C206.775 56.3322 202.879 60.2274 198.075 60.2274Z" fill="#D6D6D6"/>
<path d="M198.075 60.2274C193.27 60.2274 189.375 56.3322 189.375 51.5274V41.6274H206.775V51.5274C206.775 56.3322 202.879 60.2274 198.075 60.2274Z" stroke="#2D255E" stroke-width="1.8" stroke-miterlimit="10" stroke-linecap="round" stroke-linejoin="round"/>
<path d="M198.049 94.8783H209.449V141.373H198.049V94.8783Z" fill="#D6D6D6"/>
<path d="M200.549 94.8783H206.349V141.373H200.549V94.8783Z" fill="white"/>
<path d="M198.049 94.8783H209.449V141.373H198.049V94.8783Z" stroke="#2D255E" stroke-width="1.8" stroke-miterlimit="10" stroke-linecap="round" stroke-linejoin="round"/>
<path d="M204.359 101.148H202.84C202.458 101.148 202.091 100.996 201.821 100.726C201.551 100.456 201.399 100.089 201.399 99.7073V95.5479H205.8V99.7073C205.799 100.089 205.648 100.456 205.377 100.726C205.107 100.996 204.741 101.148 204.359 101.148Z" fill="#2D255E"/>
<path d="M13.854 141.373H223.3" stroke="#2D255E" stroke-width="2.4" stroke-miterlimit="10" stroke-linecap="round" stroke-linejoin="round"/>
<path d="M226.1 -5.31144C224.696 -5.31144 223.409 -4.80984 222.408 -3.97734C220.666 -8.15484 216.544 -11.0915 211.735 -11.0915C205.35 -11.0915 200.175 -5.91594 200.175 0.468658H231.88C231.88 -2.72364 229.293 -5.31144 226.1 -5.31144ZM142.849 -11.0915C142.781 -15.4961 139.192 -19.0466 134.771 -19.0466C133.386 -19.0482 132.024 -18.6922 130.817 -18.0128C129.544 -20.1503 127.313 -21.6506 124.716 -21.9206C123.848 -25.448 120.666 -28.0649 116.871 -28.0649C115.835 -28.0649 114.846 -27.8681 113.937 -27.5132C111.103 -32.072 106.051 -35.1086 100.288 -35.1086C92.6982 -35.1086 86.3424 -29.8421 84.6642 -22.7651C83.4327 -23.3082 82.1014 -23.5882 80.7555 -23.5871C75.3966 -23.5871 71.0522 -19.2428 71.0522 -13.8839C71.0522 -12.9131 71.1965 -11.9762 71.462 -11.0918H142.849V-11.0915Z" fill="#ECF9FF"/>
</g>
<defs>
<clipPath id="clip0_2673_3419">
<rect width="242" height="152" fill="white"/>
</clipPath>
</defs>
</svg>
