<svg width="29" height="30" viewBox="0 0 29 30" fill="none" xmlns="http://www.w3.org/2000/svg">
<g id="fluent-mdl2:account-activity" clip-path="url(#clip0_2539_10829)">
<path id="Vector" d="M25.375 3.82715V29.2021H3.625V3.82715H10.875C10.875 3.32682 10.9694 2.85954 11.1582 2.42529C11.347 1.99105 11.6066 1.604 11.937 1.26416C12.2674 0.924316 12.6497 0.664714 13.084 0.485352C13.5182 0.30599 13.9902 0.211589 14.5 0.202148C15.0003 0.202148 15.4676 0.296549 15.9019 0.485352C16.3361 0.674154 16.7231 0.933757 17.063 1.26416C17.4028 1.59456 17.6624 1.97689 17.8418 2.41113C18.0212 2.84538 18.1156 3.31738 18.125 3.82715H25.375ZM9.0625 5.63965V7.45215H19.9375V5.63965H16.3125V3.82715C16.3125 3.57227 16.2653 3.33626 16.1709 3.11914C16.0765 2.90202 15.9491 2.71322 15.7886 2.55273C15.6281 2.39225 15.4346 2.26009 15.208 2.15625C14.9814 2.05241 14.7454 2.00521 14.5 2.01465C14.2451 2.01465 14.0091 2.06185 13.792 2.15625C13.5749 2.25065 13.3861 2.37809 13.2256 2.53857C13.0651 2.69906 12.9329 2.89258 12.8291 3.11914C12.7253 3.3457 12.6781 3.58171 12.6875 3.82715V5.63965H9.0625ZM23.5625 5.63965H21.75V9.26465H7.25V5.63965H5.4375V27.3896H23.5625V5.63965ZM17.8276 10.3833C18.2241 10.3833 18.5923 10.4541 18.9321 10.5957C19.272 10.7373 19.5741 10.9355 19.8384 11.1904C20.1027 11.4453 20.3009 11.7427 20.4331 12.0825C20.5653 12.4224 20.6408 12.7905 20.6597 13.187C20.6597 13.5552 20.5889 13.9139 20.4473 14.2632C20.3057 14.6125 20.1027 14.9193 19.8384 15.1836L12.3901 22.7026L7.3208 23.6655L8.38281 18.6953L15.8311 11.1904C16.0954 10.9261 16.4022 10.7279 16.7515 10.5957C17.1007 10.4635 17.4595 10.3927 17.8276 10.3833ZM18.5498 13.9092C18.748 13.6921 18.8472 13.4513 18.8472 13.187C18.8472 12.8944 18.7528 12.6584 18.564 12.479C18.3752 12.2996 18.1297 12.2052 17.8276 12.1958C17.6955 12.1958 17.568 12.2147 17.4453 12.2524C17.3226 12.2902 17.214 12.361 17.1196 12.4648L10.0537 19.5874L9.67139 21.3716L11.498 21.0176L18.5498 13.9092Z" fill="white"/>
</g>
<defs>
<clipPath id="clip0_2539_10829">
<rect width="29" height="29" fill="white" transform="translate(0 0.202148)"/>
</clipPath>
</defs>
</svg>
