<svg width="30" height="31" viewBox="0 0 30 31" fill="none" xmlns="http://www.w3.org/2000/svg">
<g id="mingcute:alert-fill" clip-path="url(#clip0_2255_7793)">
<g id="Group">
<path id="Vector" d="M16.6238 4.435L27.4163 23.1275C27.5808 23.4125 27.6675 23.7359 27.6675 24.065C27.6675 24.3941 27.5808 24.7174 27.4163 25.0025C27.2517 25.2875 27.015 25.5242 26.73 25.6888C26.445 25.8533 26.1216 25.94 25.7925 25.94H4.2075C3.87838 25.94 3.55505 25.8533 3.27002 25.6888C2.98499 25.5242 2.7483 25.2875 2.58374 25.0025C2.41918 24.7174 2.33255 24.3941 2.33255 24.065C2.33255 23.7359 2.41919 23.4125 2.58375 23.1275L13.3763 4.435C14.0975 3.185 15.9013 3.185 16.6238 4.435ZM15 19.25C14.6685 19.25 14.3505 19.3817 14.1161 19.6161C13.8817 19.8505 13.75 20.1685 13.75 20.5C13.75 20.8315 13.8817 21.1495 14.1161 21.3839C14.3505 21.6183 14.6685 21.75 15 21.75C15.3315 21.75 15.6495 21.6183 15.8839 21.3839C16.1183 21.1495 16.25 20.8315 16.25 20.5C16.25 20.1685 16.1183 19.8505 15.8839 19.6161C15.6495 19.3817 15.3315 19.25 15 19.25ZM15 10.5C14.6938 10.5 14.3983 10.6124 14.1695 10.8159C13.9407 11.0193 13.7946 11.2997 13.7588 11.6037L13.75 11.75V16.75C13.7504 17.0686 13.8724 17.375 14.0911 17.6067C14.3098 17.8384 14.6087 17.9778 14.9267 17.9965C15.2448 18.0151 15.558 17.9117 15.8023 17.7072C16.0466 17.5027 16.2036 17.2126 16.2413 16.8962L16.25 16.75V11.75C16.25 11.4185 16.1183 11.1005 15.8839 10.8661C15.6495 10.6317 15.3315 10.5 15 10.5Z" fill="black"/>
</g>
</g>
<defs>
<clipPath id="clip0_2255_7793">
<rect width="30" height="30" fill="white" transform="translate(0 0.5)"/>
</clipPath>
</defs>
</svg>
