<svg xmlns="http://www.w3.org/2000/svg" width="16.348" height="21.008" viewBox="0 0 16.348 21.008">
  <g id="_Group_" data-name="&lt;Group&gt;" transform="translate(-99 -44)">
    <path id="_Group_2" data-name="&lt;Group&gt;" d="M114.718,47.468h-2.6v.694h1.265a.419.419,0,0,1,.288.121.379.379,0,0,1,.112.28V63.135a.367.367,0,0,1-.114.274.406.406,0,0,1-.287.112H100.963a.406.406,0,0,1-.287-.112.367.367,0,0,1-.114-.274V48.563a.379.379,0,0,1,.112-.28.419.419,0,0,1,.288-.121h1.317v-.694H99.63a.633.633,0,0,0-.63.614V64.409a.621.621,0,0,0,.63.6h15.088a.621.621,0,0,0,.63-.6V48.083A.633.633,0,0,0,114.718,47.468ZM107.434,44h-.5a1.215,1.215,0,0,0-1.218,1.09h2.936A1.212,1.212,0,0,0,107.434,44Z" transform="translate(0 0)" fill="#9390bc"/>
    <path id="_Group_3" data-name="&lt;Group&gt;" d="M155.185,83.166A1.224,1.224,0,0,0,153.92,82h-5.913a1.287,1.287,0,0,0-.881.343,1.111,1.111,0,0,0-.357.824v1.725h8.416Zm-9.273,1.924H145V98.947h11.9V85.09h-.858v.219a.405.405,0,0,1-.434.379h-9.29a.411.411,0,0,1-.292-.107.353.353,0,0,1-.115-.272Zm3.9,3.19H148.3a.4.4,0,1,1,0-.8h5.3a.4.4,0,1,1,0,.8h-1.812a2.349,2.349,0,0,1,.7,1.346H153.6a.4.4,0,1,1,0,.8h-1.115a2.638,2.638,0,0,1-2.669,2.093h-.44l3.007,2.642a.379.379,0,0,1,.016.563.452.452,0,0,1-.606.015L148,92.407a.383.383,0,0,1-.1-.438.434.434,0,0,1,.4-.255h1.517a1.819,1.819,0,0,0,1.8-1.3H148.3a.4.4,0,1,1,0-.8h3.313A1.8,1.8,0,0,0,149.814,88.28Zm-2.578,8.673h7.424a.4.4,0,1,1,0,.8h-7.424a.4.4,0,1,1,0-.8Z" transform="translate(-43.776 -36.163)" fill="#9390bc"/>
  </g>
</svg>
