<svg xmlns="http://www.w3.org/2000/svg" width="33.333" height="36.865" viewBox="0 0 33.333 36.865">
  <g id="Group_2042" data-name="Group 2042" transform="translate(-66.948 -165.89)">
    <path id="Path_2588" data-name="Path 2588" d="M102.286,236.91a2.758,2.758,0,0,0-3.653-.108v-8.878a.54.54,0,0,0-1.08,0v9.638a29.444,29.444,0,0,1-3.682,2.526V224.1a1.349,1.349,0,0,1,1.348-1.347h.987a1.349,1.349,0,0,1,1.347,1.347v1.611a.54.54,0,0,0,1.08,0V224.1a2.43,2.43,0,0,0-2.427-2.427h-.987a2.43,2.43,0,0,0-2.428,2.427v16.413a5.654,5.654,0,0,1-.988.184V229.315a2.442,2.442,0,0,0-2.439-2.44H88.4a2.442,2.442,0,0,0-2.439,2.44v5.5l-.989.525v-1.831a2.2,2.2,0,0,0-2.2-2.2H81.328a2.2,2.2,0,0,0-2.2,2.2v4.932l-1.763.936-4.951,1.415a3.413,3.413,0,0,0-2.365,4.14l.554,2.131a.54.54,0,1,0,1.045-.272l-.554-2.131a2.319,2.319,0,0,1,1.617-2.83l4.527-1.294,3.4,9.081a2.419,2.419,0,0,1-1.608,2.982l-3.421.777a2.239,2.239,0,0,1-2.675-1.628l-.694-2.672a.54.54,0,1,0-1.046.272l.695,2.672a3.312,3.312,0,0,0,3.209,2.493,26.476,26.476,0,0,0,4.171-.862,3.328,3.328,0,0,0,2.519-3.933l11.835-2.9a6.808,6.808,0,0,0,2.686-1.345l5.76-4.732a2.562,2.562,0,0,0,.21-3.836ZM88.4,227.955h.963a1.361,1.361,0,0,1,1.359,1.359v11.412H87.316c-.313,0-.1-.209-.079-.223l.981-.795a5.132,5.132,0,0,0,1.777-3.065,2.141,2.141,0,0,0-2.953-2.391v-4.936a1.361,1.361,0,0,1,1.359-1.359Zm-8.189,5.555a1.117,1.117,0,0,1,1.116-1.116h1.449a1.118,1.118,0,0,1,1.116,1.116v2.4l-3.682,1.954v-4.358Zm21.179,6.4-5.76,4.733a5.716,5.716,0,0,1-2.258,1.13L81.45,248.694l-3.206-8.557,9.155-4.86a1.061,1.061,0,0,1,1.538,1.149,4.081,4.081,0,0,1-1.4,2.442l-.981.8a1.206,1.206,0,0,0,.758,2.143l3.935,0h0a6.732,6.732,0,0,0,3.893-1.232l4.4-3.092a1.521,1.521,0,0,1,1.97.181,1.5,1.5,0,0,1-.122,2.247Zm0,0" transform="translate(-2.777 -51.761)" fill="#312b81"/>
    <path id="Path_2589" data-name="Path 2589" d="M134.9,586.44a2.128,2.128,0,1,0-2.127,2.128,2.13,2.13,0,0,0,2.127-2.128Zm-3.175,0a1.047,1.047,0,1,1,1.048,1.048,1.048,1.048,0,0,1-1.048-1.048Zm0,0" transform="translate(-59.102 -388.236)" fill="#312b81"/>
    <path id="Path_2590" data-name="Path 2590" d="M69.787,182.845l7.85-7.911,1.766.913a1.661,1.661,0,0,0,1.915-.279l4.273-4.113s-.118,2.113,1.662,2.113a1.663,1.663,0,0,0,1.661-1.662v-4.356s0-.01,0-.015a1.572,1.572,0,0,0-1.661-1.646H82.935a1.663,1.663,0,0,0-1.661,1.661,1.637,1.637,0,0,0,1.858,1.661l-3.26,3.138-1.791-.926a1.654,1.654,0,0,0-1.942.305L67.429,180.5a1.663,1.663,0,0,0,.009,2.349,1.638,1.638,0,0,0,2.349-.009Zm-1.591-1.58,8.709-8.776a.491.491,0,0,1,.68-.107l2.135,1.1a.539.539,0,0,0,.623-.09l4.5-4.335a.54.54,0,0,0-.374-.929H82.935a.581.581,0,1,1,0-1.162h4.318a.508.508,0,0,1,.581.578s0,.009,0,.014v4.345a.581.581,0,0,1-1.162,0v-1.72a.54.54,0,0,0-.914-.389l-5.188,4.993a.581.581,0,0,1-.67.1l-2.118-1.1a.54.54,0,0,0-.631.1l-8.129,8.192a.558.558,0,0,1-.822,0,.582.582,0,0,1,0-.822Zm0,0" transform="translate(0 0)" fill="#312b81"/>
  </g>
</svg>
