<svg width="210" height="270" viewBox="0 0 210 270" fill="none" xmlns="http://www.w3.org/2000/svg">
<path d="M67.792 237.758V258H63.732V249.387H55.061V258H51.001V237.758H55.061V246.081H63.732V237.758H67.792ZM78.9221 258.261C77.3754 258.261 75.9834 257.923 74.7461 257.246C73.5088 256.55 72.5324 255.574 71.8171 254.317C71.1211 253.06 70.7731 251.61 70.7731 249.967C70.7731 248.324 71.1308 246.874 71.8461 245.617C72.5808 244.36 73.5764 243.394 74.8331 242.717C76.0898 242.021 77.4914 241.673 79.0381 241.673C80.5848 241.673 81.9864 242.021 83.2431 242.717C84.4998 243.394 85.4858 244.36 86.2011 245.617C86.9358 246.874 87.3031 248.324 87.3031 249.967C87.3031 251.61 86.9261 253.06 86.1721 254.317C85.4374 255.574 84.4321 256.55 83.1561 257.246C81.8994 257.923 80.4881 258.261 78.9221 258.261ZM78.9221 254.723C79.6568 254.723 80.3431 254.549 80.9811 254.201C81.6384 253.834 82.1604 253.292 82.5471 252.577C82.9338 251.862 83.1271 250.992 83.1271 249.967C83.1271 248.44 82.7211 247.27 81.9091 246.458C81.1164 245.627 80.1401 245.211 78.9801 245.211C77.8201 245.211 76.8438 245.627 76.0511 246.458C75.2778 247.27 74.8911 248.44 74.8911 249.967C74.8911 251.494 75.2681 252.674 76.0221 253.505C76.7954 254.317 77.7621 254.723 78.9221 254.723ZM94.3413 236.54V258H90.2813V236.54H94.3413ZM100.412 240.02C99.6962 240.02 99.0969 239.798 98.6136 239.353C98.1496 238.889 97.9176 238.319 97.9176 237.642C97.9176 236.965 98.1496 236.405 98.6136 235.96C99.0969 235.496 99.6962 235.264 100.412 235.264C101.127 235.264 101.717 235.496 102.181 235.96C102.664 236.405 102.906 236.965 102.906 237.642C102.906 238.319 102.664 238.889 102.181 239.353C101.717 239.798 101.127 240.02 100.412 240.02ZM102.413 241.934V258H98.3526V241.934H102.413ZM105.38 249.909C105.38 248.285 105.699 246.845 106.337 245.588C106.994 244.331 107.884 243.365 109.005 242.688C110.126 242.011 111.373 241.673 112.746 241.673C113.79 241.673 114.786 241.905 115.733 242.369C116.68 242.814 117.434 243.413 117.995 244.167V236.54H122.113V258H117.995V255.622C117.492 256.415 116.787 257.053 115.878 257.536C114.969 258.019 113.916 258.261 112.717 258.261C111.364 258.261 110.126 257.913 109.005 257.217C107.884 256.521 106.994 255.545 106.337 254.288C105.699 253.012 105.38 251.552 105.38 249.909ZM118.024 249.967C118.024 248.981 117.831 248.14 117.444 247.444C117.057 246.729 116.535 246.187 115.878 245.82C115.221 245.433 114.515 245.24 113.761 245.24C113.007 245.24 112.311 245.424 111.673 245.791C111.035 246.158 110.513 246.7 110.107 247.415C109.72 248.111 109.527 248.942 109.527 249.909C109.527 250.876 109.72 251.726 110.107 252.461C110.513 253.176 111.035 253.727 111.673 254.114C112.33 254.501 113.026 254.694 113.761 254.694C114.515 254.694 115.221 254.51 115.878 254.143C116.535 253.756 117.057 253.215 117.444 252.519C117.831 251.804 118.024 250.953 118.024 249.967ZM125.034 249.909C125.034 248.285 125.353 246.845 125.991 245.588C126.648 244.331 127.528 243.365 128.63 242.688C129.751 242.011 130.998 241.673 132.371 241.673C133.57 241.673 134.614 241.915 135.503 242.398C136.412 242.881 137.137 243.49 137.678 244.225V241.934H141.767V258H137.678V255.651C137.156 256.405 136.431 257.033 135.503 257.536C134.594 258.019 133.541 258.261 132.342 258.261C130.989 258.261 129.751 257.913 128.63 257.217C127.528 256.521 126.648 255.545 125.991 254.288C125.353 253.012 125.034 251.552 125.034 249.909ZM137.678 249.967C137.678 248.981 137.485 248.14 137.098 247.444C136.711 246.729 136.189 246.187 135.532 245.82C134.875 245.433 134.169 245.24 133.415 245.24C132.661 245.24 131.965 245.424 131.327 245.791C130.689 246.158 130.167 246.7 129.761 247.415C129.374 248.111 129.181 248.942 129.181 249.909C129.181 250.876 129.374 251.726 129.761 252.461C130.167 253.176 130.689 253.727 131.327 254.114C131.984 254.501 132.68 254.694 133.415 254.694C134.169 254.694 134.875 254.51 135.532 254.143C136.189 253.756 136.711 253.215 137.098 252.519C137.485 251.804 137.678 250.953 137.678 249.967ZM161.102 241.934L151.155 265.598H146.834L150.314 257.594L143.876 241.934H148.429L152.576 253.157L156.781 241.934H161.102Z" fill="#F09F41"/>
<g clip-path="url(#clip0_2539_11458)">
<path opacity="0.3" d="M35 70V166.25H155.225L58.975 70H35ZM108.5 70L175 136.5V70H108.5Z" fill="#CECECE"/>
<path d="M87.5001 34.9996H122.5V52.4996H91.0001L108.5 69.9996H175V136.5L192.5 154V69.9996C192.5 60.2871 184.713 52.4996 175 52.4996H140V34.9996C140 25.2871 132.213 17.4996 122.5 17.4996H87.5001C78.8376 17.4996 71.7501 23.6246 70.3501 31.8496L87.5001 48.9996V34.9996ZM29.7501 16.0996L17.4126 28.4371L41.4751 52.4996H35.0001C25.2876 52.4996 17.5876 60.2871 17.5876 69.9996L17.5001 166.25C17.5001 175.962 25.2876 183.75 35.0001 183.75H172.725L190.225 201.25L202.563 188.912L29.7501 16.0996ZM35.0001 166.25V69.9996H58.9751L155.225 166.25H35.0001Z" fill="#CECECE"/>
</g>
<defs>
<clipPath id="clip0_2539_11458">
<rect width="210" height="210" fill="white"/>
</clipPath>
</defs>
</svg>
