<svg width="30" height="30" viewBox="0 0 30 30" fill="none" xmlns="http://www.w3.org/2000/svg">
<path d="M26.25 16.25H18.75C18.0625 16.25 17.5 15.6875 17.5 15C17.5 14.3125 18.0625 13.75 18.75 13.75H26.25C26.9375 13.75 27.5 14.3125 27.5 15C27.5 15.6875 26.9375 16.25 26.25 16.25ZM26.25 8.75H18.75C18.0625 8.75 17.5 9.3125 17.5 10C17.5 10.6875 18.0625 11.25 18.75 11.25H26.25C26.9375 11.25 27.5 10.6875 27.5 10C27.5 9.3125 26.9375 8.75 26.25 8.75ZM18.75 21.25H26.25C26.9375 21.25 27.5 20.6875 27.5 20C27.5 19.3125 26.9375 18.75 26.25 18.75H18.75C18.0625 18.75 17.5 19.3125 17.5 20C17.5 20.6875 18.0625 21.25 18.75 21.25ZM15 11.25V18.75C15 20.125 13.875 21.25 12.5 21.25H5C3.625 21.25 2.5 20.125 2.5 18.75V11.25C2.5 9.875 3.625 8.75 5 8.75H12.5C13.875 8.75 15 9.875 15 11.25ZM12.375 17.75L10.8 15.65C10.55 15.325 10.0625 15.3125 9.8 15.6375L8.125 17.825L7.0625 16.5375C6.8125 16.225 6.3375 16.2375 6.0875 16.55L5.1625 17.7375C4.8375 18.15 5.1375 18.75 5.65 18.75H11.875C12.3875 18.75 12.6875 18.1625 12.375 17.75Z" fill="#727176"/>
</svg>
