<svg width="27" height="24" viewBox="0 0 27 24" fill="none" xmlns="http://www.w3.org/2000/svg">
<g clip-path="url(#clip0_2539_11367)">
<path d="M14.1937 14.625C15.6984 12.7453 19.125 8.18438 19.125 5.625C19.125 2.51719 16.6078 0 13.5 0C10.3922 0 7.875 2.51719 7.875 5.625C7.875 8.18438 11.3016 12.7453 12.8063 14.625C13.1672 15.075 13.8375 15.075 14.1937 14.625ZM19.5 23.5781L26.2922 20.8594C26.7188 20.6906 27 20.2734 27 19.8141V7.125C27 6.32813 26.1984 5.78438 25.4578 6.07969L20.0203 8.25469C19.9969 8.31094 19.9734 8.37188 19.95 8.42813C19.8141 8.74688 19.6641 9.07031 19.5 9.39375V23.5781ZM0.707813 8.77969C0.28125 8.95313 0 9.36563 0 9.825V22.5188C0 23.3156 0.801563 23.8594 1.54219 23.5641L7.5 21.1781V9.39375C7.33594 9.07031 7.18594 8.74688 7.05 8.42813C6.7875 7.80938 6.5625 7.14375 6.45 6.48281L0.703125 8.77969H0.707813ZM18 11.9531C17.0391 13.4203 16.0172 14.7469 15.3656 15.5625C14.4047 16.7625 12.5953 16.7625 11.6344 15.5625C10.9828 14.7469 9.96094 13.4203 9 11.9531V21.0656L18 23.6391V11.9531Z" fill="#888888"/>
</g>
<defs>
<clipPath id="clip0_2539_11367">
<rect width="27" height="24" fill="white"/>
</clipPath>
</defs>
</svg>
