<svg xmlns="http://www.w3.org/2000/svg" width="31.644" height="31.647" viewBox="0 0 31.644 31.647">
  <path id="Path_2596" data-name="Path 2596" d="M165.741,351.772H137.11a.754.754,0,0,0-.753.753v13.562a2.26,2.26,0,0,0,2.261,2.261h28.63a.754.754,0,0,0,.753-.753V354.032a2.26,2.26,0,0,0-2.261-2.26Zm.754,15.069H138.618a.754.754,0,0,1-.754-.754V353.279h27.877a.754.754,0,0,1,.754.753Zm-14.315-10.548a3.767,3.767,0,1,0,3.767,3.768,3.768,3.768,0,0,0-3.767-3.768Zm0,6.028a2.26,2.26,0,1,1,2.26-2.26,2.26,2.26,0,0,1-2.26,2.26ZM147.131,342.5a.723.723,0,0,1,0-1.055l4.521-4.521a.723.723,0,0,1,1.055,0l4.521,4.521a.753.753,0,0,1-.528,1.281.709.709,0,0,1-.527-.226l-3.24-3.225v8.725a.753.753,0,1,1-1.507,0V339.28l-3.24,3.225a.723.723,0,0,1-1.055,0Zm0,0" transform="translate(-136.357 -336.701)" fill="#312b81"/>
</svg>
