<svg width="100" height="100" viewBox="0 0 100 100" fill="none" xmlns="http://www.w3.org/2000/svg">
<path d="M80.27 33.5004H75.77C74.67 33.5004 73.77 34.4004 73.77 35.5004C73.77 36.6004 74.67 37.5004 75.77 37.5004H83.77C83.93 37.5004 84.09 37.4704 84.24 37.4404C84.29 37.4304 84.33 37.4104 84.37 37.4004C84.48 37.3604 84.59 37.3204 84.69 37.2704C84.73 37.2504 84.77 37.2304 84.81 37.2004C84.93 37.1304 85.04 37.0404 85.14 36.9504C85.15 36.9404 85.17 36.9304 85.18 36.9204C85.2874 36.8084 85.3813 36.6842 85.46 36.5504C85.47 36.5404 85.49 36.5304 85.49 36.5104L93.18 23.4504C95.18 20.0404 95.28 15.9104 93.45 12.3804C91.71 9.03043 88.45 6.84043 84.75 6.54043C84.1 6.49043 83.44 6.49043 82.79 6.54043C79.09 6.84043 75.83 9.03043 74.09 12.3804C72.26 15.9104 72.36 20.0404 74.36 23.4504L80.27 33.5004ZM81.81 17.1104C81.83 16.9804 81.87 16.8604 81.92 16.7304C81.97 16.6104 82.04 16.5004 82.11 16.3904C82.18 16.2804 82.26 16.1804 82.36 16.0904C82.45 15.9904 82.55 15.9104 82.66 15.8404C82.77 15.7704 82.88 15.7004 83 15.6504C83.12 15.6004 83.25 15.5604 83.38 15.5404C84.03 15.4104 84.72 15.6204 85.18 16.0904C85.3665 16.2748 85.5145 16.4944 85.6156 16.7365C85.7166 16.9785 85.7686 17.2382 85.7686 17.5004C85.7686 17.7627 85.7166 18.0224 85.6156 18.2644C85.5145 18.5064 85.3665 18.726 85.18 18.9104C84.9499 19.1453 84.6645 19.3187 84.3501 19.4148C84.0356 19.5109 83.7021 19.5266 83.38 19.4604C83.25 19.4404 83.12 19.4004 83 19.3504C82.88 19.3004 82.77 19.2404 82.66 19.1604C82.55 19.0904 82.45 19.0104 82.36 18.9104C82.26 18.8204 82.18 18.7204 82.11 18.6104C82.04 18.5004 81.97 18.3904 81.92 18.2704C81.87 18.1504 81.83 18.0204 81.81 17.8904C81.78 17.7604 81.77 17.6304 81.77 17.5004C81.77 17.3704 81.78 17.2404 81.81 17.1104ZM23.77 64.5004C23.77 66.1504 22.42 67.5004 20.77 67.5004C19.12 67.5004 17.77 66.1504 17.77 64.5004C17.77 62.8504 19.12 61.5004 20.77 61.5004C22.42 61.5004 23.77 62.8504 23.77 64.5004ZM61.77 91.5004C61.77 92.6004 60.87 93.5004 59.77 93.5004H51.77C50.67 93.5004 49.77 92.6004 49.77 91.5004C49.77 90.4004 50.67 89.5004 51.77 89.5004H59.77C60.88 89.5004 61.77 90.3904 61.77 91.5004ZM45.77 91.5004C45.77 92.6004 44.87 93.5004 43.77 93.5004H35.77C34.67 93.5004 33.77 92.6004 33.77 91.5004C33.77 90.4004 34.67 89.5004 35.77 89.5004H43.77C44.88 89.5004 45.77 90.3904 45.77 91.5004ZM27.77 89.5004H24.23L34.16 72.2904C36.94 67.4704 37.03 61.6304 34.39 56.6804C31.86 51.9404 27.2 48.9004 21.93 48.5404C21.16 48.4904 20.38 48.4904 19.61 48.5404C14.34 48.9004 9.67998 51.9404 7.14998 56.6804C4.50998 61.6304 4.59998 67.4704 7.37998 72.2904L19.04 92.5004C19.05 92.5104 19.06 92.5304 19.07 92.5404C19.15 92.6804 19.25 92.8004 19.36 92.9204C19.472 93.0278 19.5962 93.1218 19.73 93.2004C19.77 93.2204 19.8 93.2404 19.84 93.2604C19.95 93.3204 20.06 93.3604 20.17 93.4004C20.21 93.4104 20.25 93.4304 20.29 93.4404C20.45 93.4704 20.61 93.5004 20.77 93.5004H27.77C28.3004 93.5004 28.8091 93.2897 29.1842 92.9146C29.5593 92.5396 29.77 92.0309 29.77 91.5004C29.77 90.97 29.5593 90.4613 29.1842 90.0862C28.8091 89.7111 28.3004 89.5004 27.77 89.5004ZM13.77 64.5004C13.77 60.6404 16.91 57.5004 20.77 57.5004C24.63 57.5004 27.77 60.6404 27.77 64.5004C27.77 68.3604 24.63 71.5004 20.77 71.5004C16.91 71.5004 13.77 68.3604 13.77 64.5004ZM77.66 90.6504C77.7335 90.9026 77.7567 91.1667 77.7281 91.4278C77.6996 91.6889 77.6199 91.9418 77.4936 92.1721C77.3673 92.4024 77.1969 92.6055 76.9921 92.77C76.7873 92.9344 76.5521 93.0569 76.3 93.1304C75.48 93.3704 74.63 93.4904 73.76 93.4904H67.76C66.66 93.4904 65.76 92.5904 65.76 91.4904C65.76 90.3904 66.66 89.4904 67.76 89.4904H73.76C74.24 89.4904 74.72 89.4204 75.17 89.2904C76.24 88.9804 77.35 89.5904 77.66 90.6504ZM87.77 49.5004C87.77 50.6004 86.87 51.5004 85.77 51.5004H77.77C76.67 51.5004 75.77 50.6004 75.77 49.5004C75.77 48.4004 76.67 47.5004 77.77 47.5004H85.77C86.3004 47.5004 86.8091 47.7111 87.1842 48.0862C87.5593 48.4613 87.77 48.97 87.77 49.5004ZM82.77 84.5004C82.77 84.9204 82.74 85.3504 82.68 85.7704C82.5976 86.2883 82.315 86.7532 81.8932 87.0648C81.4714 87.3764 80.9441 87.5099 80.4248 87.4364C79.9055 87.363 79.4359 87.0885 79.117 86.6722C78.7981 86.2558 78.6556 85.7309 78.72 85.2104C78.75 84.9704 78.77 84.7304 78.77 84.4904C78.77 82.7804 77.91 81.2104 76.47 80.2804C75.54 79.6804 75.27 78.4504 75.87 77.5204C76.47 76.5904 77.7 76.3204 78.63 76.9204C79.9012 77.7344 80.9469 78.8556 81.6705 80.1804C82.3941 81.5052 82.7722 82.9909 82.77 84.5004ZM94.77 56.5004C94.77 58.6704 93.99 60.7604 92.57 62.4004C92.3981 62.599 92.1888 62.7616 91.9539 62.8792C91.7191 62.9967 91.4634 63.0667 91.2015 63.0853C90.9395 63.1039 90.6765 63.0706 90.4274 62.9874C90.1784 62.9042 89.9482 62.7727 89.75 62.6004C88.92 61.8804 88.83 60.6104 89.55 59.7804C90.34 58.8704 90.77 57.7104 90.77 56.5104C90.77 55.7804 90.62 55.0904 90.32 54.4304C89.86 53.4304 90.3 52.2404 91.31 51.7804C92.31 51.3204 93.5 51.7604 93.96 52.7704C94.5 53.9304 94.77 55.1904 94.77 56.5004ZM85.77 63.5004C85.77 64.6004 84.87 65.5004 83.77 65.5004H75.77C74.67 65.5004 73.77 64.6004 73.77 63.5004C73.77 62.4004 74.67 61.5004 75.77 61.5004H83.77C84.88 61.5004 85.77 62.3904 85.77 63.5004ZM36.97 48.3904C35.5522 46.7555 34.7712 44.6644 34.77 42.5004C34.77 41.2004 35.04 39.9404 35.58 38.7604C36.04 37.7604 37.23 37.3104 38.23 37.7704C39.23 38.2304 39.68 39.4204 39.22 40.4204C38.92 41.0704 38.77 41.7704 38.77 42.5004C38.77 43.7004 39.2 44.8704 39.99 45.7704C40.71 46.6004 40.62 47.8704 39.79 48.5904C39.41 48.9204 38.95 49.0804 38.48 49.0804C37.92 49.0804 37.36 48.8504 36.97 48.3904ZM59.77 77.5004C59.77 76.4004 60.67 75.5004 61.77 75.5004H69.77C70.87 75.5004 71.77 76.4004 71.77 77.5004C71.77 78.6004 70.87 79.5004 69.77 79.5004H61.77C61.2396 79.5004 60.7308 79.2897 60.3558 78.9146C59.9807 78.5396 59.77 78.0309 59.77 77.5004ZM67.77 65.5004H59.77C58.67 65.5004 57.77 64.6004 57.77 63.5004C57.77 62.4004 58.67 61.5004 59.77 61.5004H67.77C68.3004 61.5004 68.8091 61.7111 69.1842 62.0862C69.5593 62.4613 69.77 62.97 69.77 63.5004C69.77 64.0309 69.5593 64.5396 69.1842 64.9146C68.8091 65.2897 68.3004 65.5004 67.77 65.5004ZM57.77 35.5004C57.77 34.4004 58.67 33.5004 59.77 33.5004H67.77C68.87 33.5004 69.77 34.4004 69.77 35.5004C69.77 36.6004 68.87 37.5004 67.77 37.5004H59.77C58.67 37.5004 57.77 36.6004 57.77 35.5004ZM69.77 47.5004C70.87 47.5004 71.77 48.4004 71.77 49.5004C71.77 50.6004 70.87 51.5004 69.77 51.5004H61.77C60.67 51.5004 59.77 50.6004 59.77 49.5004C59.77 48.4004 60.67 47.5004 61.77 47.5004H69.77ZM44.97 76.3904C44.25 75.5604 44.34 74.2904 45.17 73.5704C46 72.8504 47.27 72.9404 47.99 73.7704C48.94 74.8704 50.32 75.5004 51.77 75.5004H53.77C54.87 75.5004 55.77 76.4004 55.77 77.5004C55.77 78.6004 54.87 79.5004 53.77 79.5004H51.77C49.16 79.5004 46.68 78.3704 44.97 76.3904ZM45.4 69.5904C45.12 69.5904 44.84 69.5304 44.57 69.4104C43.57 68.9504 43.12 67.7604 43.58 66.7604C44.3001 65.1929 45.4541 63.8645 46.9055 62.9323C48.3569 62.0001 50.045 61.5032 51.77 61.5004C52.3004 61.5004 52.8091 61.7111 53.1842 62.0862C53.5593 62.4613 53.77 62.97 53.77 63.5004C53.77 64.0309 53.5593 64.5396 53.1842 64.9146C52.8091 65.2897 52.3004 65.5004 51.77 65.5004C49.82 65.5004 48.03 66.6504 47.22 68.4204C46.88 69.1604 46.16 69.5904 45.4 69.5904ZM53.77 47.5004C54.87 47.5004 55.77 48.4004 55.77 49.5004C55.77 50.6004 54.87 51.5004 53.77 51.5004H45.77C44.67 51.5004 43.77 50.6004 43.77 49.5004C43.77 48.4004 44.67 47.5004 45.77 47.5004H53.77ZM41.77 35.5004C41.77 34.4004 42.67 33.5004 43.77 33.5004H51.77C52.87 33.5004 53.77 34.4004 53.77 35.5004C53.77 36.6004 52.87 37.5004 51.77 37.5004H43.77C42.67 37.5004 41.77 36.6004 41.77 35.5004Z" fill="#CECECE"/>
</svg>
