<svg width="25" height="24" viewBox="0 0 25 24" fill="none" xmlns="http://www.w3.org/2000/svg">
<g id="add_a_photo">
<mask id="mask0_796_1190" style="mask-type:alpha" maskUnits="userSpaceOnUse" x="0" y="0" width="25" height="24">
<rect id="Bounding box" x="0.5" width="24" height="24" fill="#D9D9D9"/>
</mask>
<g mask="url(#mask0_796_1190)">
<path id="add_a_photo_2" d="M3.5 21C2.95 21 2.47917 20.8042 2.0875 20.4125C1.69583 20.0208 1.5 19.55 1.5 19V7C1.5 6.45 1.69583 5.97917 2.0875 5.5875C2.47917 5.19583 2.95 5 3.5 5H6.65L8.5 3H14.5V5H9.375L7.55 7H3.5V19H19.5V10H21.5V19C21.5 19.55 21.3042 20.0208 20.9125 20.4125C20.5208 20.8042 20.05 21 19.5 21H3.5ZM19.5 7V5H17.5V3H19.5V1H21.5V3H23.5V5H21.5V7H19.5ZM11.5 17.5C12.75 17.5 13.8125 17.0625 14.6875 16.1875C15.5625 15.3125 16 14.25 16 13C16 11.75 15.5625 10.6875 14.6875 9.8125C13.8125 8.9375 12.75 8.5 11.5 8.5C10.25 8.5 9.1875 8.9375 8.3125 9.8125C7.4375 10.6875 7 11.75 7 13C7 14.25 7.4375 15.3125 8.3125 16.1875C9.1875 17.0625 10.25 17.5 11.5 17.5ZM11.5 15.5C10.8 15.5 10.2083 15.2583 9.725 14.775C9.24167 14.2917 9 13.7 9 13C9 12.3 9.24167 11.7083 9.725 11.225C10.2083 10.7417 10.8 10.5 11.5 10.5C12.2 10.5 12.7917 10.7417 13.275 11.225C13.7583 11.7083 14 12.3 14 13C14 13.7 13.7583 14.2917 13.275 14.775C12.7917 15.2583 12.2 15.5 11.5 15.5Z" fill="#312B81"/>
</g>
</g>
</svg>
