<svg width="25" height="24" viewBox="0 0 25 24" fill="none" xmlns="http://www.w3.org/2000/svg">
<g id="camera_front">
<mask id="mask0_796_1193" style="mask-type:alpha" maskUnits="userSpaceOnUse" x="0" y="0" width="25" height="24">
<rect id="Bounding box" x="0.5" width="24" height="24" fill="#D9D9D9"/>
</mask>
<g mask="url(#mask0_796_1193)">
<path id="camera_front_2" d="M10.05 20H6.5C6.21667 20 5.97917 19.9042 5.7875 19.7125C5.59583 19.5208 5.5 19.2833 5.5 19C5.5 18.7167 5.59583 18.4792 5.7875 18.2875C5.97917 18.0958 6.21667 18 6.5 18H10.05L9.65 17.6C9.46667 17.4167 9.375 17.1833 9.375 16.9C9.375 16.6167 9.46667 16.3833 9.65 16.2C9.83333 16.0167 10.0667 15.925 10.35 15.925C10.6333 15.925 10.8667 16.0167 11.05 16.2L13.15 18.3C13.35 18.5 13.45 18.7333 13.45 19C13.45 19.2667 13.35 19.5 13.15 19.7L11.05 21.8C10.8667 21.9833 10.6333 22.075 10.35 22.075C10.0667 22.075 9.83333 21.9833 9.65 21.8C9.46667 21.6167 9.375 21.3833 9.375 21.1C9.375 20.8167 9.46667 20.5833 9.65 20.4L10.05 20ZM5.5 4C5.5 3.45 5.69583 2.97917 6.0875 2.5875C6.47917 2.19583 6.95 2 7.5 2H17.5C18.05 2 18.5208 2.19583 18.9125 2.5875C19.3042 2.97917 19.5 3.45 19.5 4V16C19.5 16.2833 19.4042 16.5208 19.2125 16.7125C19.0208 16.9042 18.7833 17 18.5 17C18.2167 17 17.9792 16.9042 17.7875 16.7125C17.5958 16.5208 17.5 16.2833 17.5 16V15.45C16.8333 14.9667 16.0792 14.6042 15.2375 14.3625C14.3958 14.1208 13.4833 14 12.5 14C11.5167 14 10.6042 14.1208 9.7625 14.3625C8.92083 14.6042 8.16667 14.9667 7.5 15.45V16C7.5 16.2833 7.40417 16.5208 7.2125 16.7125C7.02083 16.9042 6.78333 17 6.5 17C6.21667 17 5.97917 16.9042 5.7875 16.7125C5.59583 16.5208 5.5 16.2833 5.5 16V4ZM7.5 13.15C8.3 12.7667 9.12083 12.4792 9.9625 12.2875C10.8042 12.0958 11.65 12 12.5 12C13.35 12 14.1958 12.0958 15.0375 12.2875C15.8792 12.4792 16.7 12.7667 17.5 13.15V4H7.5V13.15ZM15.5 20C15.2167 20 14.9792 19.9042 14.7875 19.7125C14.5958 19.5208 14.5 19.2833 14.5 19C14.5 18.7167 14.5958 18.4792 14.7875 18.2875C14.9792 18.0958 15.2167 18 15.5 18H18.5C18.7833 18 19.0208 18.0958 19.2125 18.2875C19.4042 18.4792 19.5 18.7167 19.5 19C19.5 19.2833 19.4042 19.5208 19.2125 19.7125C19.0208 19.9042 18.7833 20 18.5 20H15.5ZM12.5 11C11.6667 11 10.9583 10.7083 10.375 10.125C9.79167 9.54167 9.5 8.83333 9.5 8C9.5 7.16667 9.79167 6.45833 10.375 5.875C10.9583 5.29167 11.6667 5 12.5 5C13.3333 5 14.0417 5.29167 14.625 5.875C15.2083 6.45833 15.5 7.16667 15.5 8C15.5 8.83333 15.2083 9.54167 14.625 10.125C14.0417 10.7083 13.3333 11 12.5 11ZM12.5 9C12.7833 9 13.0208 8.90417 13.2125 8.7125C13.4042 8.52083 13.5 8.28333 13.5 8C13.5 7.71667 13.4042 7.47917 13.2125 7.2875C13.0208 7.09583 12.7833 7 12.5 7C12.2167 7 11.9792 7.09583 11.7875 7.2875C11.5958 7.47917 11.5 7.71667 11.5 8C11.5 8.28333 11.5958 8.52083 11.7875 8.7125C11.9792 8.90417 12.2167 9 12.5 9Z" fill="#727176"/>
</g>
</g>
</svg>
