<svg width="24" height="24" viewBox="0 0 24 24" fill="none" xmlns="http://www.w3.org/2000/svg">
<g id="uis:clock-nine">
<path id="Vector" d="M12 2C6.5 2 2 6.5 2 12C2 17.5 6.5 22 12 22C17.5 22 22 17.5 22 12C22 6.5 17.5 2 12 2ZM13 12C13 12.6 12.6 13 12 13H9C8.4 13 8 12.6 8 12C8 11.4 8.4 11 9 11H11V7C11 6.4 11.4 6 12 6C12.6 6 13 6.4 13 7V12Z" fill="url(#paint0_linear_796_21)"/>
</g>
<defs>
<linearGradient id="paint0_linear_796_21" x1="2.06024" y1="2.5" x2="22.9447" y2="3.61906" gradientUnits="userSpaceOnUse">
<stop stop-color="#322E80"/>
<stop offset="1" stop-color="#322E80" stop-opacity="0.7"/>
</linearGradient>
</defs>
</svg>
