<svg width="25" height="24" viewBox="0 0 25 24" fill="none" xmlns="http://www.w3.org/2000/svg">
<g id="mode_comment">
<mask id="mask0_796_1181" style="mask-type:alpha" maskUnits="userSpaceOnUse" x="0" y="0" width="25" height="24">
<rect id="Bounding box" x="0.5" width="24" height="24" fill="#D9D9D9"/>
</mask>
<g mask="url(#mask0_796_1181)">
<path id="mode_comment_2" d="M4.5 18C3.95 18 3.47917 17.8042 3.0875 17.4125C2.69583 17.0208 2.5 16.55 2.5 16V4C2.5 3.45 2.69583 2.97917 3.0875 2.5875C3.47917 2.19583 3.95 2 4.5 2H20.5C21.05 2 21.5208 2.19583 21.9125 2.5875C22.3042 2.97917 22.5 3.45 22.5 4V19.575C22.5 20.025 22.2958 20.3375 21.8875 20.5125C21.4792 20.6875 21.1167 20.6167 20.8 20.3L18.5 18H4.5ZM19.35 16L20.5 17.125V4H4.5V16H19.35Z" fill="#727176"/>
</g>
</g>
</svg>
