<svg width="150" height="140" viewBox="0 0 150 140" fill="none" xmlns="http://www.w3.org/2000/svg">
<g opacity="0.3" clip-path="url(#clip0_2338_19625)">
<path d="M45.7137 37.1278L45.4365 110.553L23.0053 110.481L22.9727 120.349C22.9658 123.318 24.1394 126.168 26.2357 128.273C28.3321 130.378 31.1795 131.566 34.1524 131.575L45.368 131.611L110.183 131.82C111.656 131.824 113.115 131.539 114.478 130.981C115.84 130.422 117.079 129.601 118.124 128.565C119.169 127.528 119.999 126.296 120.567 124.939C121.135 123.582 121.43 122.126 121.434 120.655L121.78 26.1621L56.9652 25.9537C55.4915 25.949 54.0313 26.2343 52.6681 26.7934C51.305 27.3526 50.0655 28.1745 49.0206 29.2122C47.9756 30.25 47.1458 31.4832 46.5783 32.8414C46.0109 34.1996 45.7171 35.6561 45.7137 37.1278Z" fill="#FFCD52"/>
<path d="M23.0156 110.468L45.4467 110.538L45.4157 120.406C45.4063 123.377 44.2157 126.222 42.1058 128.316C39.9959 130.409 37.1394 131.581 34.1649 131.571C31.1903 131.562 28.3413 130.373 26.2446 128.266C24.1479 126.159 22.9752 123.306 22.9846 120.336L23.0156 110.468Z" fill="#FDA01F"/>
<path d="M22.2112 131.605C25.7559 131.605 28.6294 126.632 28.6294 120.499C28.6294 114.365 25.7559 109.393 22.2112 109.393C18.6665 109.393 15.793 114.365 15.793 120.499C15.793 126.632 18.6665 131.605 22.2112 131.605Z" stroke="#FF5061" stroke-linecap="round" stroke-linejoin="round"/>
<path d="M16.7069 125.387C15.7938 123.283 16.4852 121.994 16.4852 120.502C16.4852 117.366 17.5353 113.813 19.4203 111.585C19.9257 113.179 20.1959 114.838 20.2226 116.509C20.2226 119.646 18.592 123.153 16.7069 125.387Z" fill="#FF5061"/>
<path d="M12.3362 127.638C15.8809 127.638 18.7544 122.666 18.7544 116.532C18.7544 110.398 15.8809 105.426 12.3362 105.426C8.79151 105.426 5.91797 110.398 5.91797 116.532C5.91797 122.666 8.79151 127.638 12.3362 127.638Z" fill="white"/>
<path d="M28.0946 120.847C28.0946 122.085 28.6001 123.075 27.912 124.755C24.9768 122.407 22.7461 118.466 22.7461 114.405C22.7851 112.974 22.9942 111.553 23.369 110.171C26.3172 112.493 28.0946 116.786 28.0946 120.847Z" fill="#FF5061"/>
<path d="M30.3128 124.87C33.8574 124.87 36.731 119.897 36.731 113.764C36.731 107.63 33.8574 102.658 30.3128 102.658C26.7681 102.658 23.8945 107.63 23.8945 113.764C23.8945 119.897 26.7681 124.87 30.3128 124.87Z" fill="white"/>
<path d="M22.2116 131.605V114.949M22.2116 121.473L24.8109 118.506M22.2116 125.016L25.9589 120.74M22.2116 128.667L26.0795 124.251M22.2116 121.479L19.0612 117.88M22.2116 125.023L18.3438 120.606M22.2116 128.673L18.3438 124.257" stroke="#FF5061" stroke-linecap="round" stroke-linejoin="round"/>
<path d="M30.3128 124.87C33.8574 124.87 36.731 119.897 36.731 113.764C36.731 107.63 33.8574 102.658 30.3128 102.658C26.7681 102.658 23.8945 107.63 23.8945 113.764C23.8945 119.897 26.7681 124.87 30.3128 124.87Z" stroke="#008EF8" stroke-miterlimit="10"/>
<path d="M30.3132 108.214V131.647M30.3132 114.738L33.4604 111.145M30.3132 118.281L34.1811 113.865M30.3132 121.932L34.1811 117.516M30.3132 114.744L27.1595 111.145M30.3132 118.288L26.4453 113.871M30.3132 121.939L26.4453 117.522" stroke="#008EF8" stroke-linecap="round" stroke-linejoin="round"/>
<path d="M12.3362 127.638C15.8809 127.638 18.7544 122.666 18.7544 116.532C18.7544 110.398 15.8809 105.426 12.3362 105.426C8.79151 105.426 5.91797 110.398 5.91797 116.532C5.91797 122.666 8.79151 127.638 12.3362 127.638Z" stroke="#FFCD52" stroke-linecap="round" stroke-linejoin="round"/>
<path d="M12.3366 110.982V131.647M12.3366 117.506L15.4838 113.914M12.3366 121.049L16.2045 116.633M12.3366 124.7L16.2045 120.284M12.3366 117.512L9.18624 113.914M12.3366 121.056L8.46875 116.64M12.3366 124.71L8.46875 120.29" stroke="#FFCD52" stroke-linecap="round" stroke-linejoin="round"/>
<path d="M117.574 113.52L122.175 109.863L143.211 136.263L138.61 139.919L117.574 113.52Z" fill="#008EF8"/>
<path d="M126.929 125.254L126.988 125.329L130.096 129.237C131.756 126.257 130.539 121.056 130.275 120.033L126.688 115.548C126.688 115.548 129.303 122.104 126.929 125.254Z" fill="#0234C1"/>
<path d="M64.9946 72.0405H32.2284C31.688 72.0405 31.25 72.478 31.25 73.0176V96.9877C31.25 97.5273 31.688 97.9648 32.2284 97.9648H64.9946C65.535 97.9648 65.973 97.5273 65.973 96.9877V73.0176C65.973 72.478 65.535 72.0405 64.9946 72.0405Z" stroke="#0234C1" stroke-miterlimit="10"/>
<path d="M63.438 73.6982H33.7831C33.2427 73.6982 32.8047 74.1357 32.8047 74.6753V95.3267C32.8047 95.8664 33.2427 96.3038 33.7831 96.3038H63.438C63.9784 96.3038 64.4164 95.8664 64.4164 95.3267V74.6753C64.4164 74.1357 63.9784 73.6982 63.438 73.6982Z" fill="#008EF8"/>
<path d="M61.3701 75.3042H53.8104C53.2701 75.3042 52.832 75.7416 52.832 76.2812V93.5814C52.832 94.121 53.2701 94.5585 53.8104 94.5585H61.3701C61.9104 94.5585 62.3485 94.121 62.3485 93.5814V76.2812C62.3485 75.7416 61.9104 75.3042 61.3701 75.3042Z" fill="#C1E3F7"/>
<path d="M49.9521 87.9697H36.4667C35.9263 87.9697 35.4883 88.4072 35.4883 88.9468V93.5845C35.4883 94.1241 35.9263 94.5615 36.4667 94.5615H49.9521C50.4925 94.5615 50.9305 94.1241 50.9305 93.5845V88.9468C50.9305 88.4072 50.4925 87.9697 49.9521 87.9697Z" fill="#C1E3F7"/>
<path d="M50.6044 75.3042H35.8144C35.6343 75.3042 35.4883 75.45 35.4883 75.6299V77.3527C35.4883 77.5326 35.6343 77.6784 35.8144 77.6784H50.6044C50.7845 77.6784 50.9305 77.5326 50.9305 77.3527V75.6299C50.9305 75.45 50.7845 75.3042 50.6044 75.3042Z" fill="#C1E3F7"/>
<path d="M40.7039 79.7954H36.9632C36.3039 79.7954 35.7695 80.3291 35.7695 80.9874V84.723C35.7695 85.3813 36.3039 85.915 36.9632 85.915H40.7039C41.3631 85.915 41.8975 85.3813 41.8975 84.723V80.9874C41.8975 80.3291 41.3631 79.7954 40.7039 79.7954Z" fill="#C1E3F7"/>
<path d="M49.2351 79.7954H45.4944C44.8352 79.7954 44.3008 80.3291 44.3008 80.9874V84.723C44.3008 85.3813 44.8352 85.915 45.4944 85.915H49.2351C49.8943 85.915 50.4288 85.3813 50.4288 84.723V80.9874C50.4288 80.3291 49.8943 79.7954 49.2351 79.7954Z" fill="#C1E3F7"/>
<path d="M138.678 15.1313H105.912C105.372 15.1313 104.934 15.5688 104.934 16.1084V40.0785C104.934 40.6181 105.372 41.0556 105.912 41.0556H138.678C139.219 41.0556 139.657 40.6181 139.657 40.0785V16.1084C139.657 15.5688 139.219 15.1313 138.678 15.1313Z" stroke="#0234C1" stroke-miterlimit="10"/>
<path d="M137.122 16.792H107.467C106.926 16.792 106.488 17.2294 106.488 17.769V38.4205C106.488 38.9601 106.926 39.3975 107.467 39.3975H137.122C137.662 39.3975 138.1 38.9601 138.1 38.4205V17.769C138.1 17.2294 137.662 16.792 137.122 16.792Z" fill="#008EF8"/>
<path d="M135.054 18.3979H127.494C126.954 18.3979 126.516 18.8354 126.516 19.375V36.6752C126.516 37.2148 126.954 37.6522 127.494 37.6522H135.054C135.594 37.6522 136.032 37.2148 136.032 36.6752V19.375C136.032 18.8354 135.594 18.3979 135.054 18.3979Z" fill="#C1E3F7"/>
<path d="M123.636 31.0601H110.15C109.61 31.0601 109.172 31.4975 109.172 32.0371V36.6748C109.172 37.2144 109.61 37.6518 110.15 37.6518H123.636C124.176 37.6518 124.614 37.2144 124.614 36.6748V32.0371C124.614 31.4975 124.176 31.0601 123.636 31.0601Z" fill="#C1E3F7"/>
<path d="M124.288 18.3979H109.498C109.318 18.3979 109.172 18.5438 109.172 18.7236V20.4465C109.172 20.6264 109.318 20.7722 109.498 20.7722H124.288C124.468 20.7722 124.614 20.6264 124.614 20.4465V18.7236C124.614 18.5438 124.468 18.3979 124.288 18.3979Z" fill="#C1E3F7"/>
<path d="M114.391 22.8857H110.651C109.991 22.8857 109.457 23.4194 109.457 24.0777V27.8133C109.457 28.4716 109.991 29.0053 110.651 29.0053H114.391C115.051 29.0053 115.585 28.4716 115.585 27.8133V24.0777C115.585 23.4194 115.051 22.8857 114.391 22.8857Z" fill="#C1E3F7"/>
<path d="M122.919 22.8857H119.178C118.519 22.8857 117.984 23.4194 117.984 24.0777V27.8133C117.984 28.4716 118.519 29.0053 119.178 29.0053H122.919C123.578 29.0053 124.112 28.4716 124.112 27.8133V24.0777C124.112 23.4194 123.578 22.8857 122.919 22.8857Z" fill="#C1E3F7"/>
<path d="M101.19 102.107L122.019 47.2236L144.454 47.2985L144.483 37.4271C144.488 35.9563 144.203 34.4989 143.643 33.1382C143.084 31.7776 142.262 30.5402 141.224 29.4969C140.185 28.4535 138.952 27.6246 137.593 27.0574C136.234 26.4901 134.776 26.1958 133.304 26.1911L122.088 26.1553L57.2729 25.9468C55.7987 25.9421 54.338 26.2277 52.9744 26.7872C51.6108 27.3468 50.3711 28.1693 49.326 29.2077C48.281 30.2461 47.4513 31.4801 46.8843 32.8391C46.3172 34.198 46.024 35.6553 46.0215 37.1275L45.6758 131.621L101.19 102.107Z" fill="#FFCD52"/>
<path d="M144.447 47.313L122.026 47.2426L122.057 37.3745C122.066 34.4041 123.257 31.559 125.367 29.4651C127.477 27.3713 130.333 26.2002 133.308 26.2096C136.282 26.2189 139.131 27.4079 141.228 29.5149C143.325 31.6219 144.497 34.4744 144.488 37.4449L144.457 47.313L144.447 47.313Z" fill="#FDA01F"/>
<path d="M116.934 107.999C116.405 108.418 115.852 108.805 115.277 109.158L118.294 112.946L121.454 110.432L118.438 106.647C117.963 107.126 117.461 107.578 116.934 107.999Z" fill="#FF5061"/>
<path d="M103.087 110.484C114.233 110.484 123.268 101.461 123.268 90.3309C123.268 79.2006 114.233 70.1777 103.087 70.1777C91.9415 70.1777 82.9062 79.2006 82.9062 90.3309C82.9062 101.461 91.9415 110.484 103.087 110.484Z" fill="#489EE0"/>
<path d="M81.0735 106.312L60.5865 105.666C59.3263 105.626 58.2724 106.614 58.2326 107.872L57.7514 123.077C57.7116 124.336 58.7009 125.388 59.9611 125.428L80.4481 126.075C81.7083 126.114 82.7621 125.126 82.802 123.868L83.2831 108.663C83.3229 107.404 82.3336 106.352 81.0735 106.312Z" fill="#008EF8"/>
<path d="M77.1594 43.9431L56.6724 43.2966C55.4122 43.2568 54.3583 44.2448 54.3185 45.5032L53.8374 60.7082C53.7975 61.9667 54.7868 63.0191 56.047 63.0589L76.534 63.7054C77.7942 63.7452 78.8481 62.7572 78.8879 61.4988L79.3691 46.2938C79.4089 45.0353 78.4196 43.9829 77.1594 43.9431Z" fill="#008EF8"/>
<path d="M79.8542 86.0906L52.28 85.0028M79.7694 93.8223L52.2734 93.1611M81.9773 100.701L57.26 100.665M83.6601 45.6084L113.804 46.7971M83.5427 53.4248L113.511 54.6102M88.6499 60.8275L113.86 61.7492" stroke="#0850EC" stroke-width="2" stroke-linecap="round" stroke-linejoin="round"/>
<path d="M144.548 56.7046C144.723 57.5539 144.855 58.4116 144.943 59.2742C145.041 60.1308 145.099 60.9906 145.155 61.8504C145.21 62.7102 145.226 63.5732 145.22 64.4363C145.228 65.3061 145.19 66.1758 145.106 67.0417C144.931 66.1926 144.8 65.3349 144.714 64.4721C144.613 63.6123 144.555 62.7525 144.502 61.8927C144.45 61.0329 144.431 60.1698 144.434 59.3068C144.437 58.4437 144.476 57.5709 144.548 56.7046Z" fill="#0850EC"/>
<path d="M150 61.5894C149.15 61.7639 148.291 61.8954 147.427 61.9835C146.566 62.0812 145.705 62.1398 144.844 62.1919C143.983 62.2441 143.119 62.2669 142.255 62.2603C141.384 62.2665 140.513 62.2285 139.646 62.1464C140.496 61.9716 141.355 61.8401 142.219 61.7523C143.076 61.6546 143.937 61.5959 144.798 61.5438C145.659 61.4917 146.524 61.4722 147.407 61.4754C148.291 61.4787 149.129 61.5015 150 61.5894ZM138.344 67.5331C138.502 68.0992 138.618 68.6761 138.69 69.2592C138.768 69.8357 138.827 70.4121 138.856 70.9919C138.886 71.5716 138.895 72.1545 138.879 72.7375C138.869 73.3247 138.816 73.9103 138.719 74.4897C138.561 73.9237 138.444 73.3467 138.37 72.7636C138.292 72.1871 138.233 71.6074 138.204 71.0277C138.175 70.448 138.168 69.8683 138.185 69.2853C138.194 68.6981 138.248 68.1124 138.344 67.5331Z" fill="#0850EC"/>
<path d="M142.013 70.8227C141.446 70.98 140.869 71.0964 140.285 71.1711C139.708 71.2493 139.13 71.3047 138.55 71.3372C137.969 71.3698 137.386 71.3731 136.802 71.3568C136.214 71.3468 135.627 71.2935 135.047 71.1972C135.614 71.0397 136.192 70.9243 136.776 70.852C137.353 70.7738 137.934 70.7152 138.514 70.6859C139.095 70.6566 139.675 70.6468 140.259 70.6631C140.847 70.676 141.433 70.7293 142.013 70.8227ZM7.91223 70.0215C8.0916 70.878 8.20901 71.7346 8.30359 72.5911C8.39816 73.4477 8.46339 74.3107 8.51557 75.1705C8.56775 76.0303 8.58732 76.8934 8.58406 77.7564C8.58914 78.6263 8.54996 79.4959 8.46665 80.3619C8.28728 79.5086 8.16987 78.652 8.0753 77.7955C7.98072 76.939 7.91549 76.0759 7.86331 75.2161C7.81113 74.3563 7.79156 73.4932 7.79809 72.6302C7.79027 71.7592 7.82837 70.8885 7.91223 70.0215Z" fill="#0850EC"/>
<path d="M13.3741 74.9066C12.5236 75.0802 11.6648 75.2107 10.801 75.2974C9.94326 75.3951 9.08228 75.457 8.21804 75.5091C7.35379 75.5612 6.49281 75.584 5.62857 75.5775C4.75752 75.5836 3.88672 75.5455 3.01953 75.4635C3.87003 75.2888 4.72885 75.1573 5.59269 75.0694C6.45041 74.9717 7.3114 74.9131 8.17564 74.861C9.03988 74.8089 9.90086 74.7861 10.7651 74.7926C11.6362 74.7865 12.507 74.8246 13.3741 74.9066ZM14.0655 80.5799C14.2233 81.146 14.3388 81.723 14.4112 82.3061C14.4928 82.8825 14.5482 83.4622 14.5776 84.0419C14.6069 84.6217 14.6167 85.2014 14.6004 85.7843C14.5907 86.3715 14.5373 86.9572 14.4406 87.5365C14.2834 86.9701 14.1668 86.3933 14.0916 85.8104C14.0134 85.2339 13.9579 84.6542 13.9286 84.0745C13.8992 83.4948 13.8894 82.9151 13.9057 82.3321C13.9156 81.7449 13.969 81.1593 14.0655 80.5799Z" fill="#0850EC"/>
<path d="M17.7324 83.8727C17.1664 84.029 16.5898 84.1444 16.0072 84.2179C15.4267 84.2961 14.8494 84.3547 14.2689 84.384C13.6884 84.4134 13.1079 84.4231 12.5241 84.4068C11.9361 84.3972 11.3496 84.3438 10.7695 84.2473C11.3347 84.0868 11.9115 83.9703 12.4948 83.8988C13.0753 83.8206 13.6525 83.762 14.233 83.7327C14.8135 83.7034 15.394 83.7001 15.9811 83.7001C16.5683 83.7142 17.1537 83.7719 17.7324 83.8727ZM80.5939 0C80.7732 0.853285 80.8906 1.70983 80.9852 2.56963C81.0798 3.42943 81.145 4.28597 81.1972 5.14902C81.2494 6.01208 81.2689 6.87188 81.2657 7.73493C81.2624 8.59799 81.2396 9.46104 81.1515 10.3404C80.9766 9.49106 80.8449 8.63341 80.7569 7.77076C80.6591 6.91422 80.5971 6.05442 80.5449 5.19136C80.4928 4.32831 80.4732 3.46851 80.4797 2.60545C80.4736 1.7356 80.5117 0.865998 80.5939 0Z" fill="#0850EC"/>
<path d="M86.0421 4.88522C85.1876 5.06434 84.3299 5.18159 83.469 5.27603C82.608 5.37048 81.7502 5.43562 80.8893 5.48773C80.0283 5.53984 79.164 5.55938 78.2965 5.55612C77.4254 5.56111 76.5546 5.52198 75.6875 5.43888C76.542 5.25975 77.3997 5.14251 78.2607 5.04806C79.1216 4.95361 79.9826 4.88847 80.8436 4.83636C81.7046 4.78426 82.5688 4.76471 83.4331 4.77123C84.3042 4.76341 85.175 4.80146 86.0421 4.88522ZM86.7498 10.5521C86.9074 11.1184 87.024 11.6952 87.0988 12.2782C87.177 12.8546 87.2325 13.4311 87.2651 14.0108C87.2977 14.5905 87.301 15.1735 87.2847 15.7532C87.2748 16.3415 87.2214 16.9282 87.1249 17.5086C86.9671 16.9426 86.8516 16.3656 86.7792 15.7825C86.6976 15.2061 86.6422 14.6263 86.6128 14.0466C86.5835 13.4669 86.5737 12.8872 86.59 12.3042C86.5997 11.717 86.6531 11.1314 86.7498 10.5521Z" fill="#0850EC"/>
<path d="M90.4153 13.8413C89.8482 13.9983 89.2706 14.1147 88.6869 14.1897C88.1096 14.2679 87.5291 14.3233 86.9486 14.3558C86.3681 14.3884 85.7876 14.3917 85.2038 14.3754C84.6158 14.3657 84.0293 14.3124 83.4492 14.2158C84.016 14.058 84.5937 13.9426 85.1777 13.8706C85.755 13.7891 86.3322 13.7338 86.9127 13.7045C87.4932 13.6752 88.077 13.6654 88.6575 13.6817C89.2466 13.6915 89.8341 13.7448 90.4153 13.8413Z" fill="#0850EC"/>
<path d="M0.164062 131.647H127.296" stroke="#545454" stroke-linecap="round" stroke-linejoin="round"/>
<path d="M102.97 113.633C115.938 113.633 126.451 103.135 126.451 90.1844C126.451 77.2339 115.938 66.7354 102.97 66.7354C90.0012 66.7354 79.4883 77.2339 79.4883 90.1844C79.4883 103.135 90.0012 113.633 102.97 113.633Z" fill="#C1E3F7"/>
<path d="M103.087 110.484C114.233 110.484 123.268 101.461 123.268 90.3309C123.268 79.2006 114.233 70.1777 103.087 70.1777C91.9415 70.1777 82.9062 79.2006 82.9062 90.3309C82.9062 101.461 91.9415 110.484 103.087 110.484Z" fill="#008EF8"/>
<path d="M83.0568 87.8527L101.796 88.1132L101.848 84.205L83.9439 83.9575C83.5216 85.2239 83.2245 86.5285 83.0568 87.8527ZM83.6113 95.6397L102.582 95.9003L102.638 91.9921L82.9492 91.7185C83.0404 93.0441 83.2622 94.3575 83.6113 95.6397ZM86.0605 101.15C86.4703 101.796 86.9178 102.417 87.4009 103.01L102.266 103.218L102.396 99.3101L84.906 99.0724C85.2488 99.7875 85.6343 100.481 86.0605 101.15Z" fill="#0234C1"/>
</g>
<defs>
<clipPath id="clip0_2338_19625">
<rect width="150" height="139.916" fill="white"/>
</clipPath>
</defs>
</svg>
