<svg width="132" height="132" viewBox="0 0 132 132" fill="none" xmlns="http://www.w3.org/2000/svg">
<g opacity="0.3" clip-path="url(#clip0_2338_19966)">
<g opacity="0.15">
<path d="M-2.48828 43.584H13.3817M13.3817 43.584V51.32M13.3817 43.584H19.4583M13.3817 51.32H-2.48828M13.3817 51.32H29.2515M-0.0200836 59.0934H13.3817V66.8296H8.24672M5.44672 51.32H21.3165V59.0562H5.44672V51.32Z" stroke="#474747" stroke-width="1.2" stroke-miterlimit="10" stroke-linecap="round" stroke-linejoin="round"/>
<path d="M82.1104 71.5916H97.9802M97.9802 71.5916V79.3278M97.9802 71.5916H104.057M97.9802 79.3278H82.1104M97.9802 79.3278H113.85M13.3828 59.0928H29.2526V66.829H13.3828V59.0928Z" stroke="#474747" stroke-width="1.2" stroke-miterlimit="10" stroke-linecap="round" stroke-linejoin="round"/>
<path d="M84.5746 87.1016H97.9762M97.9762 87.1016V94.8378M97.9762 87.1016H111.19M97.9762 94.8378H92.8414M97.9762 94.8378H108.203M90.0414 79.3284H105.911V87.0646H90.0414V79.3284ZM30.3594 14.5918H54.9878V34.5562H30.3594V14.5918Z" stroke="#474747" stroke-width="1.2" stroke-miterlimit="10" stroke-linecap="round" stroke-linejoin="round"/>
<path d="M33.7578 29.9328L38.2702 23.3994L42.937 29.1826" stroke="#474747" stroke-width="1.2" stroke-miterlimit="10" stroke-linecap="round" stroke-linejoin="round"/>
<path d="M41.2266 27.0614L47.5226 20.9502L51.9906 29.9338" stroke="#474747" stroke-width="1.2" stroke-miterlimit="10" stroke-linecap="round" stroke-linejoin="round"/>
<path d="M39.5781 25.0236C39.8895 24.0802 40.7783 23.3994 41.8259 23.3994C42.6891 23.3994 43.4443 23.8616 43.8577 24.5518M119.004 48.038H83.9757C82.6825 48.038 81.6341 46.9896 81.6341 45.6964C81.6341 44.4032 82.6825 43.3548 83.9757 43.3548H119.004C120.297 43.3548 121.346 44.4032 121.346 45.6964C121.345 46.9898 120.297 48.038 119.004 48.038Z" stroke="#474747" stroke-width="1.2" stroke-miterlimit="10" stroke-linecap="round" stroke-linejoin="round"/>
<path d="M106.142 14.8805L108.766 10.5401C109.271 9.70494 110.407 9.52574 111.144 10.1651C111.881 10.8045 111.865 11.9541 111.11 12.5721L106.195 16.5943M106.969 43.3559H96.712L94.5786 30.2681H109.102L106.969 43.3559ZM92.6406 26.4677H111.102V30.2681H92.6406V26.4677ZM104.216 26.4677H100.428C99.3978 22.8401 98.4922 19.0391 98.6034 15.3321C98.736 13.5555 100.655 12.0505 102.322 12.0511C103.989 12.0505 105.908 13.5555 106.041 15.3321C106.152 19.0393 105.246 22.8401 104.216 26.4677Z" stroke="#474747" stroke-width="1.2" stroke-miterlimit="10" stroke-linecap="round" stroke-linejoin="round"/>
<path d="M108.803 10.4933L107.553 6.61453C107.361 6.01833 107.752 5.39293 108.372 5.30493C108.518 5.28427 108.666 5.29568 108.807 5.33838C108.948 5.38107 109.078 5.45401 109.187 5.5521C109.297 5.65019 109.384 5.77105 109.442 5.90623C109.5 6.04142 109.528 6.18766 109.524 6.33473L109.431 9.46953" stroke="#474747" stroke-width="1.2" stroke-miterlimit="10" stroke-linecap="round" stroke-linejoin="round"/>
</g>
<path d="M100.406 41.3232L74.0171 95.4555L47.8879 82.7177L74.2771 28.5854L100.406 41.3232Z" fill="#77BA85"/>
<path d="M100.406 41.3232L74.0171 95.4555L47.8879 82.7177L74.2771 28.5854L100.406 41.3232Z" stroke="#474747" stroke-width="1.2" stroke-miterlimit="10" stroke-linecap="round" stroke-linejoin="round"/>
<path d="M90.0539 39.9816L81.7013 35.9092C80.1153 39.162 76.193 40.5132 72.9402 38.9272L52.3438 81.172L72.4756 90.9874L93.0721 48.7428C89.8193 47.1568 88.4681 43.2344 90.0539 39.9816Z" fill="#F6F9EA"/>
<path d="M90.0539 39.9816L81.7013 35.9092C80.1153 39.162 76.193 40.5132 72.9402 38.9272L52.3438 81.172L72.4756 90.9874L93.0721 48.7428C89.8193 47.1568 88.4681 43.2344 90.0539 39.9816Z" stroke="#474747" stroke-width="1.2" stroke-miterlimit="10" stroke-linecap="round" stroke-linejoin="round"/>
<path d="M75.8203 33.0352L95.9532 42.8485L72.4899 90.9852L52.357 81.1718L75.8203 33.0352Z" stroke="#474747" stroke-width="1.2" stroke-miterlimit="10" stroke-linecap="round" stroke-linejoin="round"/>
<path d="M76.1438 64.6539C79.934 64.6539 83.0064 61.5814 83.0064 57.7913C83.0064 54.0012 79.934 50.9287 76.1438 50.9287C72.3537 50.9287 69.2812 54.0012 69.2812 57.7913C69.2812 61.5814 72.3537 64.6539 76.1438 64.6539Z" fill="#77BA85"/>
<path d="M76.1438 64.6539C79.934 64.6539 83.0064 61.5814 83.0064 57.7913C83.0064 54.0012 79.934 50.9287 76.1438 50.9287C72.3537 50.9287 69.2812 54.0012 69.2812 57.7913C69.2812 61.5814 72.3537 64.6539 76.1438 64.6539Z" stroke="#474747" stroke-width="1.2" stroke-miterlimit="10" stroke-linecap="round" stroke-linejoin="round"/>
<path d="M120.047 59.8818L73.476 98.0635L55.046 75.5842L101.617 37.4025L120.047 59.8818Z" fill="#97CD78"/>
<path d="M120.047 59.8818L73.476 98.0635L55.046 75.5842L101.617 37.4025L120.047 59.8818Z" stroke="#474747" stroke-width="1.2" stroke-miterlimit="10" stroke-linecap="round" stroke-linejoin="round"/>
<path d="M111.192 54.3486L105.3 47.1626C102.502 49.457 98.373 49.0484 96.0786 46.25L59.7344 76.048L73.9348 93.368L110.279 63.57C107.985 60.7714 108.393 56.643 111.192 54.3486Z" fill="#F6F9EA"/>
<path d="M111.192 54.3486L105.3 47.1626C102.502 49.457 98.373 49.0484 96.0786 46.25L59.7344 76.048L73.9348 93.368L110.279 63.57C107.985 60.7714 108.393 56.643 111.192 54.3486Z" stroke="#474747" stroke-width="1.2" stroke-miterlimit="10" stroke-linecap="round" stroke-linejoin="round"/>
<path d="M101.148 42.0947L115.349 59.4149L73.9368 93.3668L59.7367 76.0466L101.148 42.0947Z" stroke="#474747" stroke-width="1.2" stroke-miterlimit="10" stroke-linecap="round" stroke-linejoin="round"/>
<path d="M91.1126 71.5924C94.9027 71.5924 97.9752 68.5199 97.9752 64.7298C97.9752 60.9397 94.9027 57.8672 91.1126 57.8672C87.3225 57.8672 84.25 60.9397 84.25 64.7298C84.25 68.5199 87.3225 71.5924 91.1126 71.5924Z" fill="#97CD78"/>
<path d="M91.1126 71.5924C94.9027 71.5924 97.9752 68.5199 97.9752 64.7298C97.9752 60.9397 94.9027 57.8672 91.1126 57.8672C87.3225 57.8672 84.25 60.9397 84.25 64.7298C84.25 68.5199 87.3225 71.5924 91.1126 71.5924Z" stroke="#474747" stroke-width="1.2" stroke-miterlimit="10" stroke-linecap="round" stroke-linejoin="round"/>
<path opacity="0.32" d="M91.8839 57.5456C91.8839 53.9894 90.5489 50.7408 88.3565 48.2686L55.0391 75.5848L73.4693 98.064L91.8839 82.9662V57.5456Z" fill="#474747" stroke="#474747" stroke-width="1.2" stroke-miterlimit="10" stroke-linecap="round" stroke-linejoin="round"/>
<path opacity="0.15" d="M-0.203125 115.743H132.197" stroke="#474747" stroke-width="1.2" stroke-miterlimit="10" stroke-linecap="round" stroke-linejoin="round"/>
<path d="M77.8828 115.744H35.8828C29.2554 115.744 23.8828 110.371 23.8828 103.744V56.5439C23.8828 49.9165 29.2554 44.5439 35.8828 44.5439H77.8828C84.5102 44.5439 89.8828 49.9165 89.8828 56.5439V103.744C89.8828 110.371 84.5102 115.744 77.8828 115.744Z" fill="#F58870"/>
<path d="M77.8828 115.744H35.8828C29.2554 115.744 23.8828 110.371 23.8828 103.744V56.5439C23.8828 49.9165 29.2554 44.5439 35.8828 44.5439H77.8828C84.5102 44.5439 89.8828 49.9165 89.8828 56.5439V103.744C89.8828 110.371 84.5102 115.744 77.8828 115.744Z" fill="#3A3486"/>
<path d="M77.8828 113.32H35.8828C29.2554 113.32 23.8828 107.948 23.8828 101.32V103.744C23.8828 110.372 29.2554 115.744 35.8828 115.744H77.8828C84.5102 115.744 89.8828 110.372 89.8828 103.744V101.32C89.8828 107.948 84.5102 113.32 77.8828 113.32Z" fill="#120E44"/>
<path d="M77.8828 44.5439H35.8828C29.2554 44.5439 23.8828 49.4803 23.8828 55.5697V58.1425C23.8828 52.0531 29.2554 47.1167 35.8828 47.1167H77.8828C84.5102 47.1167 89.8828 52.0531 89.8828 58.1425V55.5697C89.8828 49.4805 84.5102 44.5439 77.8828 44.5439Z" fill="#58539D"/>
<path opacity="0.3" d="M63.8844 73.8391H53.0844C51.0962 73.8391 49.4844 72.2273 49.4844 70.2391V48.1439C49.4844 46.1557 51.0962 44.5439 53.0844 44.5439H67.4844V70.2391C67.4844 72.2273 65.8726 73.8391 63.8844 73.8391Z" fill="#474747" stroke="#474747" stroke-width="1.2" stroke-miterlimit="10" stroke-linecap="round" stroke-linejoin="round"/>
<path d="M77.8828 115.744H35.8828C29.2554 115.744 23.8828 110.371 23.8828 103.744V56.5439C23.8828 49.9165 29.2554 44.5439 35.8828 44.5439H77.8828C84.5102 44.5439 89.8828 49.9165 89.8828 56.5439V103.744C89.8828 110.371 84.5102 115.744 77.8828 115.744Z" stroke="#474747" stroke-width="1.2" stroke-miterlimit="10" stroke-linecap="round" stroke-linejoin="round"/>
<g opacity="0.46">
<path d="M28.2812 103.439V56.85C28.2812 52.6526 31.6839 49.25 35.8813 49.25H77.8813C82.0787 49.25 85.4813 52.6526 85.4813 56.85V103.439C85.4813 107.637 82.0787 111.039 77.8813 111.039H35.8813C31.6839 111.039 28.2812 107.637 28.2812 103.439Z" stroke="white" stroke-width="0.8" stroke-linecap="round" stroke-linejoin="round" stroke-dasharray="2.79 1.99"/>
</g>
<path d="M62.2828 71.6391H51.4828C49.4946 71.6391 47.8828 70.0273 47.8828 68.0391V43.6391C47.8828 41.6509 49.4946 40.0391 51.4828 40.0391H62.2828C64.271 40.0391 65.8828 41.6509 65.8828 43.6391V68.0391C65.8828 70.0273 64.271 71.6391 62.2828 71.6391Z" fill="#2A2568"/>
<path d="M62.2828 69.974H51.4828C49.4946 69.974 47.8828 68.3622 47.8828 66.374V68.0406C47.8828 70.0288 49.4946 71.6406 51.4828 71.6406H62.2828C64.271 71.6406 65.8828 70.0288 65.8828 68.0406V66.374C65.8828 68.3622 64.271 69.974 62.2828 69.974Z" fill="#120E44"/>
<path d="M62.2828 40.0391H51.4828C49.4946 40.0391 47.8828 41.6509 47.8828 43.6391V44.9993C47.8828 43.0111 49.4946 41.3993 51.4828 41.3993H62.2828C64.271 41.3993 65.8828 43.0111 65.8828 44.9993V43.6391C65.8828 41.6509 64.271 40.0391 62.2828 40.0391Z" fill="#58539D"/>
<path d="M62.2828 71.6391H51.4828C49.4946 71.6391 47.8828 70.0273 47.8828 68.0391V43.6391C47.8828 41.6509 49.4946 40.0391 51.4828 40.0391H62.2828C64.271 40.0391 65.8828 41.6509 65.8828 43.6391V68.0391C65.8828 70.0273 64.271 71.6391 62.2828 71.6391Z" stroke="#474747" stroke-width="1.2" stroke-miterlimit="10" stroke-linecap="round" stroke-linejoin="round"/>
<path opacity="0.3" d="M57.4859 66.5002C60.0541 66.5002 62.1359 64.4183 62.1359 61.8502C62.1359 59.2821 60.0541 57.2002 57.4859 57.2002C54.9178 57.2002 52.8359 59.2821 52.8359 61.8502C52.8359 64.4183 54.9178 66.5002 57.4859 66.5002Z" fill="#474747" stroke="#474747" stroke-width="1.2" stroke-miterlimit="10" stroke-linecap="round" stroke-linejoin="round"/>
<g opacity="0.46">
<path d="M51.4852 69.2394C50.8234 69.2394 50.2852 68.7013 50.2852 68.0395V43.6395C50.2852 42.9777 50.8234 42.4395 51.4852 42.4395H62.2852C62.947 42.4395 63.4852 42.9777 63.4852 43.6395V68.0395C63.4852 68.7013 62.947 69.2394 62.2852 69.2394H51.4852Z" stroke="white" stroke-width="0.8" stroke-linecap="round" stroke-linejoin="round" stroke-dasharray="1.97 2.36"/>
</g>
<path d="M56.8844 65.3C59.4525 65.3 61.5344 63.2181 61.5344 60.65C61.5344 58.0819 59.4525 56 56.8844 56C54.3163 56 52.2344 58.0819 52.2344 60.65C52.2344 63.2181 54.3163 65.3 56.8844 65.3Z" fill="#8F6D5D"/>
<path d="M56.8844 65.3C59.4525 65.3 61.5344 63.2181 61.5344 60.65C61.5344 58.0819 59.4525 56 56.8844 56C54.3163 56 52.2344 58.0819 52.2344 60.65C52.2344 63.2181 54.3163 65.3 56.8844 65.3Z" stroke="#474747" stroke-width="1.2" stroke-miterlimit="10" stroke-linecap="round" stroke-linejoin="round"/>
<g opacity="0.6">
<path d="M58.8403 58.2652C59.0095 59.0214 58.1059 59.5066 56.7745 59.7812C55.4409 60.0448 54.2429 60.0894 54.0789 59.4486C53.9097 58.8192 54.8131 57.6514 56.1447 57.2724C57.4781 56.8826 58.6761 57.5206 58.8403 58.2652Z" fill="#FFFCEE"/>
</g>
<path d="M123.662 115.744H109.657C109.271 115.744 108.901 115.591 108.629 115.319C108.356 115.046 108.203 114.676 108.203 114.291V113.32C108.203 112.934 108.356 112.564 108.629 112.292C108.901 112.019 109.271 111.866 109.657 111.866H123.662C124.047 111.866 124.417 112.019 124.689 112.292C124.962 112.564 125.115 112.934 125.115 113.32V114.291C125.115 114.482 125.077 114.671 125.004 114.847C124.931 115.023 124.824 115.184 124.689 115.319C124.554 115.454 124.394 115.561 124.218 115.634C124.041 115.707 123.852 115.744 123.662 115.744Z" fill="#FDB740"/>
<path opacity="0.88" d="M123.662 112.266H109.657C109.466 112.266 109.277 112.303 109.1 112.376C108.924 112.449 108.764 112.556 108.629 112.691C108.494 112.826 108.387 112.986 108.314 113.163C108.241 113.339 108.203 113.528 108.203 113.719V114.286C108.203 113.9 108.356 113.53 108.629 113.258C108.901 112.985 109.271 112.832 109.657 112.832H123.662C124.047 112.832 124.417 112.985 124.689 113.258C124.962 113.53 125.115 113.9 125.115 114.286V113.719C125.115 113.528 125.077 113.339 125.004 113.163C124.931 112.986 124.824 112.826 124.689 112.691C124.554 112.556 124.394 112.449 124.218 112.376C124.041 112.303 123.852 112.266 123.662 112.266Z" fill="#FFF3C0"/>
<path d="M123.662 115.308H109.657C109.271 115.308 108.901 115.155 108.629 114.882C108.356 114.61 108.203 114.24 108.203 113.855V113.288C108.203 113.674 108.356 114.043 108.629 114.316C108.901 114.588 109.271 114.741 109.657 114.741H123.662C124.047 114.741 124.417 114.588 124.689 114.316C124.962 114.043 125.115 113.674 125.115 113.288V113.855C125.115 114.046 125.077 114.235 125.004 114.411C124.931 114.587 124.824 114.747 124.689 114.882C124.554 115.017 124.394 115.124 124.218 115.197C124.041 115.271 123.852 115.308 123.662 115.308Z" fill="#F29E25"/>
<path d="M123.662 115.744H109.657C109.271 115.744 108.901 115.591 108.629 115.319C108.356 115.046 108.203 114.676 108.203 114.291V113.32C108.203 112.934 108.356 112.564 108.629 112.292C108.901 112.019 109.271 111.866 109.657 111.866H123.662C124.047 111.866 124.417 112.019 124.689 112.292C124.962 112.564 125.115 112.934 125.115 113.32V114.291C125.115 114.482 125.077 114.671 125.004 114.847C124.931 115.023 124.824 115.184 124.689 115.319C124.554 115.454 124.394 115.561 124.218 115.634C124.041 115.707 123.852 115.744 123.662 115.744Z" stroke="#474747" stroke-width="1.2" stroke-miterlimit="10" stroke-linecap="round" stroke-linejoin="round"/>
<path d="M125.99 111.866H111.985C111.599 111.866 111.23 111.713 110.957 111.441C110.684 111.168 110.531 110.798 110.531 110.413V109.442C110.531 109.251 110.569 109.062 110.642 108.885C110.715 108.709 110.822 108.549 110.957 108.414C111.092 108.279 111.252 108.172 111.428 108.099C111.605 108.026 111.794 107.988 111.985 107.988H125.99C126.181 107.988 126.37 108.026 126.546 108.099C126.722 108.172 126.882 108.279 127.017 108.414C127.152 108.549 127.259 108.709 127.332 108.885C127.405 109.062 127.443 109.251 127.443 109.442V110.413C127.443 110.798 127.29 111.168 127.017 111.441C126.745 111.713 126.375 111.866 125.99 111.866Z" fill="#FDB740"/>
<path opacity="0.88" d="M125.99 108.388H111.985C111.599 108.388 111.23 108.541 110.957 108.813C110.684 109.086 110.531 109.456 110.531 109.841V110.408C110.531 110.022 110.684 109.653 110.957 109.38C111.23 109.107 111.599 108.954 111.985 108.954H125.99C126.375 108.954 126.745 109.107 127.017 109.38C127.29 109.653 127.443 110.022 127.443 110.408V109.841C127.443 109.456 127.29 109.086 127.017 108.813C126.745 108.541 126.375 108.388 125.99 108.388Z" fill="#FFF3C0"/>
<path d="M125.99 111.429H111.985C111.794 111.429 111.605 111.392 111.428 111.319C111.252 111.246 111.092 111.138 110.957 111.003C110.822 110.869 110.715 110.708 110.642 110.532C110.569 110.356 110.531 110.167 110.531 109.976V109.409C110.531 109.795 110.684 110.164 110.957 110.437C111.23 110.709 111.599 110.863 111.985 110.863H125.99C126.375 110.863 126.745 110.709 127.017 110.437C127.29 110.164 127.443 109.795 127.443 109.409V109.976C127.443 110.167 127.405 110.356 127.332 110.532C127.259 110.708 127.152 110.869 127.017 111.003C126.882 111.138 126.722 111.246 126.546 111.319C126.37 111.392 126.181 111.429 125.99 111.429Z" fill="#F29E25"/>
<path d="M125.99 111.866H111.985C111.599 111.866 111.23 111.713 110.957 111.441C110.684 111.168 110.531 110.798 110.531 110.413V109.442C110.531 109.251 110.569 109.062 110.642 108.885C110.715 108.709 110.822 108.549 110.957 108.414C111.092 108.279 111.252 108.172 111.428 108.099C111.605 108.026 111.794 107.988 111.985 107.988H125.99C126.181 107.988 126.37 108.026 126.546 108.099C126.722 108.172 126.882 108.279 127.017 108.414C127.152 108.549 127.259 108.709 127.332 108.885C127.405 109.062 127.443 109.251 127.443 109.442V110.413C127.443 110.798 127.29 111.168 127.017 111.441C126.745 111.713 126.375 111.866 125.99 111.866Z" stroke="#474747" stroke-width="1.2" stroke-miterlimit="10" stroke-linecap="round" stroke-linejoin="round"/>
<path d="M123.662 107.988H109.657C109.466 107.988 109.277 107.951 109.1 107.878C108.924 107.805 108.764 107.698 108.629 107.563C108.494 107.428 108.387 107.267 108.314 107.091C108.241 106.915 108.203 106.726 108.203 106.535V105.564C108.203 105.178 108.356 104.809 108.629 104.536C108.901 104.263 109.271 104.11 109.657 104.11H123.662C124.047 104.11 124.417 104.263 124.689 104.536C124.962 104.809 125.115 105.178 125.115 105.564V106.535C125.115 106.726 125.077 106.915 125.004 107.091C124.931 107.268 124.824 107.428 124.689 107.563C124.554 107.698 124.394 107.805 124.218 107.878C124.041 107.951 123.852 107.988 123.662 107.988Z" fill="#FDB740"/>
<path opacity="0.88" d="M123.662 104.511H109.657C109.271 104.511 108.901 104.664 108.629 104.936C108.356 105.209 108.203 105.579 108.203 105.964V106.531C108.203 106.34 108.241 106.151 108.314 105.975C108.387 105.798 108.494 105.638 108.629 105.503C108.764 105.368 108.924 105.261 109.1 105.188C109.277 105.115 109.466 105.077 109.657 105.077H123.662C123.852 105.077 124.041 105.115 124.218 105.188C124.394 105.261 124.554 105.368 124.689 105.503C124.824 105.638 124.931 105.798 125.004 105.975C125.077 106.151 125.115 106.34 125.115 106.531V105.964C125.115 105.773 125.077 105.584 125.004 105.408C124.931 105.232 124.824 105.071 124.689 104.936C124.554 104.801 124.394 104.694 124.218 104.621C124.041 104.548 123.852 104.511 123.662 104.511Z" fill="#FFF3C0"/>
<path d="M123.662 107.551H109.657C109.271 107.551 108.901 107.398 108.629 107.126C108.356 106.853 108.203 106.483 108.203 106.098V105.531C108.203 105.722 108.241 105.911 108.314 106.087C108.387 106.264 108.494 106.424 108.629 106.559C108.764 106.694 108.924 106.801 109.1 106.874C109.277 106.947 109.466 106.985 109.657 106.985H123.662C123.852 106.985 124.041 106.947 124.218 106.874C124.394 106.801 124.554 106.694 124.689 106.559C124.824 106.424 124.931 106.264 125.004 106.087C125.077 105.911 125.115 105.722 125.115 105.531V106.098C125.115 106.289 125.077 106.478 125.004 106.654C124.931 106.83 124.824 106.991 124.689 107.126C124.554 107.261 124.394 107.368 124.218 107.441C124.041 107.514 123.852 107.551 123.662 107.551Z" fill="#F29E25"/>
<path d="M123.662 107.988H109.657C109.466 107.988 109.277 107.951 109.1 107.878C108.924 107.805 108.764 107.698 108.629 107.563C108.494 107.428 108.387 107.267 108.314 107.091C108.241 106.915 108.203 106.726 108.203 106.535V105.564C108.203 105.178 108.356 104.809 108.629 104.536C108.901 104.263 109.271 104.11 109.657 104.11H123.662C124.047 104.11 124.417 104.263 124.689 104.536C124.962 104.809 125.115 105.178 125.115 105.564V106.535C125.115 106.726 125.077 106.915 125.004 107.091C124.931 107.268 124.824 107.428 124.689 107.563C124.554 107.698 124.394 107.805 124.218 107.878C124.041 107.951 123.852 107.988 123.662 107.988Z" stroke="#474747" stroke-width="1.2" stroke-miterlimit="10" stroke-linecap="round" stroke-linejoin="round"/>
<path d="M107.815 105.055L98.2477 115.283C98.1173 115.423 97.9607 115.535 97.7869 115.614C97.6131 115.693 97.4254 115.737 97.2347 115.743C97.0439 115.749 96.8537 115.718 96.6751 115.651C96.4964 115.584 96.3327 115.482 96.1933 115.352L95.4841 114.688C95.3447 114.558 95.2323 114.401 95.1534 114.228C95.0745 114.054 95.0306 113.866 95.0242 113.675C95.0179 113.485 95.0491 113.294 95.1163 113.116C95.1834 112.937 95.2851 112.773 95.4155 112.634L104.982 102.406C105.113 102.267 105.269 102.154 105.443 102.075C105.617 101.996 105.805 101.952 105.995 101.946C106.186 101.94 106.376 101.971 106.555 102.038C106.734 102.105 106.897 102.207 107.037 102.337L107.746 103.001C108.028 103.264 108.193 103.628 108.206 104.014C108.219 104.399 108.078 104.774 107.815 105.055Z" fill="#FDB740"/>
<path opacity="0.88" d="M105.271 102.68L95.7044 112.908C95.4411 113.19 95.3004 113.564 95.3133 113.95C95.3262 114.335 95.4916 114.699 95.7731 114.963L96.1868 115.35C96.0474 115.219 95.9351 115.063 95.8562 114.889C95.7773 114.715 95.7334 114.527 95.727 114.337C95.7207 114.146 95.7519 113.956 95.8191 113.777C95.8862 113.598 95.9878 113.435 96.1182 113.295L105.685 103.067C105.949 102.786 106.313 102.62 106.698 102.608C107.083 102.595 107.458 102.735 107.74 102.999L107.326 102.612C107.044 102.348 106.67 102.208 106.284 102.221C105.899 102.233 105.535 102.399 105.271 102.68Z" fill="#FFF3C0"/>
<path d="M107.488 104.758L97.9213 114.986C97.7909 115.125 97.6344 115.238 97.4606 115.316C97.2868 115.395 97.0991 115.439 96.9083 115.446C96.7176 115.452 96.5274 115.421 96.3487 115.354C96.17 115.286 96.0063 115.185 95.8669 115.054L95.4531 114.667C95.7347 114.931 96.1093 115.071 96.4945 115.059C96.8798 115.046 97.2442 114.88 97.5075 114.599L107.075 104.371C107.338 104.089 107.479 103.715 107.466 103.329C107.453 102.944 107.287 102.58 107.006 102.316L107.42 102.703C107.701 102.967 107.867 103.331 107.879 103.716C107.892 104.102 107.752 104.476 107.488 104.758Z" fill="#F29E25"/>
<path d="M107.815 105.055L98.2477 115.283C98.1173 115.423 97.9607 115.535 97.7869 115.614C97.6131 115.693 97.4254 115.737 97.2347 115.743C97.0439 115.749 96.8537 115.718 96.6751 115.651C96.4964 115.584 96.3327 115.482 96.1933 115.352L95.4841 114.688C95.3447 114.558 95.2323 114.401 95.1534 114.228C95.0745 114.054 95.0306 113.866 95.0242 113.675C95.0179 113.485 95.0491 113.294 95.1163 113.116C95.1834 112.937 95.2851 112.773 95.4155 112.634L104.982 102.406C105.113 102.267 105.269 102.154 105.443 102.075C105.617 101.996 105.805 101.952 105.995 101.946C106.186 101.94 106.376 101.971 106.555 102.038C106.734 102.105 106.897 102.207 107.037 102.337L107.746 103.001C108.028 103.264 108.193 103.628 108.206 104.014C108.219 104.399 108.078 104.774 107.815 105.055Z" stroke="#474747" stroke-width="1.2" stroke-miterlimit="10" stroke-linecap="round" stroke-linejoin="round"/>
</g>
<defs>
<clipPath id="clip0_2338_19966">
<rect width="132" height="132" fill="white"/>
</clipPath>
</defs>
</svg>
