<svg width="30" height="30" viewBox="0 0 30 30" fill="none" xmlns="http://www.w3.org/2000/svg">
<path d="M8.125 17.5H10.0625C10.2292 17.5 10.3908 17.4633 10.5475 17.39C10.7042 17.3167 10.8342 17.2283 10.9375 17.125L17.9375 10.1875C18.0625 10.0625 18.125 9.90625 18.125 9.71875C18.125 9.53125 18.0625 9.375 17.9375 9.25L15.75 7.0625C15.625 6.9375 15.4688 6.875 15.2813 6.875C15.0938 6.875 14.9375 6.9375 14.8125 7.0625L7.875 14.0625C7.77084 14.1667 7.6825 14.2971 7.61 14.4538C7.5375 14.6104 7.50083 14.7717 7.5 14.9375V16.875C7.5 17.0417 7.5625 17.1875 7.6875 17.3125C7.8125 17.4375 7.95833 17.5 8.125 17.5ZM13.125 17.5H21.25C21.6042 17.5 21.9013 17.38 22.1413 17.14C22.3813 16.9 22.5008 16.6033 22.5 16.25C22.5 15.8958 22.38 15.5988 22.14 15.3588C21.9 15.1188 21.6033 14.9992 21.25 15H15.625L13.125 17.5ZM7.5 22.5L4.625 25.375C4.22917 25.7708 3.77584 25.8596 3.265 25.6413C2.75417 25.4229 2.49917 25.0321 2.5 24.4688V5C2.5 4.3125 2.745 3.72375 3.235 3.23375C3.725 2.74375 4.31334 2.49917 5 2.5H25C25.6875 2.5 26.2763 2.745 26.7663 3.235C27.2563 3.725 27.5008 4.31334 27.5 5V20C27.5 20.6875 27.255 21.2763 26.765 21.7663C26.275 22.2563 25.6867 22.5008 25 22.5H7.5Z" fill="#727176"/>
</svg>
