<svg width="30" height="31" viewBox="0 0 30 31" fill="none" xmlns="http://www.w3.org/2000/svg">
<mask id="mask0_966_37317" style="mask-type:luminance" maskUnits="userSpaceOnUse" x="0" y="0" width="30" height="31">
<path d="M29.8333 0H0V30.0519H29.8333V0Z" fill="white"/>
</mask>
<g mask="url(#mask0_966_37317)">
<path d="M19.9869 5.85223C19.9868 7.2063 19.58 8.51844 18.8358 9.56507C18.0917 10.6117 17.0562 11.3281 15.9058 11.5921C14.7554 11.8561 13.5613 11.6514 12.5269 11.013C11.4926 10.3745 10.682 9.34179 10.2333 8.09072C9.7846 6.83965 9.72553 5.44767 10.0662 4.15196C10.4068 2.85625 11.1261 1.73698 12.1014 0.984877C13.0767 0.232771 14.2478 -0.105638 15.415 0.027312C16.5823 0.160262 17.6735 0.756346 18.5027 1.71399C19.4532 2.81165 19.987 4.30019 19.9869 5.85223Z" fill="#727176"/>
<path d="M28.3786 8.00564C28.3786 8.73743 28.1907 9.45278 27.8385 10.0612C27.4863 10.6697 26.9858 11.1439 26.4002 11.424C25.8145 11.704 25.1701 11.7773 24.5484 11.6345C23.9267 11.4918 23.3557 11.1394 22.9075 10.6219C22.4592 10.1045 22.154 9.44519 22.0303 8.72747C21.9067 8.00974 21.9701 7.2658 22.2127 6.58972C22.4553 5.91364 22.8661 5.33578 23.3931 4.92922C23.9202 4.52266 24.5398 4.30566 25.1737 4.30566C26.0237 4.30566 26.8389 4.69548 27.4399 5.38936C28.041 6.08324 28.3786 7.02435 28.3786 8.00564Z" fill="#727176"/>
<path d="M7.86691 8.00564C7.86691 8.73743 7.67894 9.45278 7.32678 10.0612C6.97461 10.6697 6.47407 11.1439 5.88845 11.424C5.30282 11.704 4.65841 11.7773 4.03672 11.6345C3.41502 11.4918 2.84396 11.1394 2.39574 10.6219C1.94752 10.1045 1.64228 9.44519 1.51861 8.72747C1.39495 8.00974 1.45842 7.2658 1.70099 6.58972C1.94357 5.91364 2.35435 5.33578 2.8814 4.92922C3.40845 4.52266 4.02809 4.30566 4.66197 4.30566C5.51197 4.30566 6.32716 4.69548 6.9282 5.38936C7.52924 6.08324 7.86691 7.02435 7.86691 8.00564Z" fill="#727176"/>
<path d="M7.81868 15.0261C6.55727 13.8331 5.41497 13.9913 3.95647 13.9913C2.91067 13.989 1.90677 14.4656 1.16504 15.3167C0.423299 16.1679 0.00431009 17.3239 0 18.5312L0 25.8778C0.00181345 26.4011 0.183182 26.9024 0.504398 27.2717C0.825615 27.6411 1.26051 27.8484 1.71387 27.8484C5.79374 27.8484 5.30271 27.9335 5.30271 27.6456C5.30271 22.4399 4.76884 18.6223 7.81953 15.0271" fill="#727176"/>
<path d="M16.3046 14.022C13.757 13.7767 11.5426 14.022 9.63254 15.8453C6.43617 18.8013 7.05145 22.7813 7.05145 27.6496C7.05235 28.274 7.26761 28.8726 7.65006 29.3141C8.0325 29.7556 8.55095 30.0041 9.09181 30.0051C21.3914 30.0051 21.8807 30.4632 22.61 28.5984C22.849 27.9682 22.7813 28.168 22.7813 22.1363C22.7813 17.3451 19.1882 14.024 16.3029 14.024" fill="#727176"/>
<path d="M25.8778 13.9923C24.4116 13.9923 23.2753 13.836 22.0156 15.0281C25.0432 18.5975 24.5324 22.1511 24.5324 27.6466C24.5324 27.9365 24.1245 27.8494 28.0604 27.8494C28.5301 27.85 28.9807 27.6354 29.3134 27.2527C29.6462 26.8701 29.8338 26.3507 29.8352 25.8085V18.5322C29.8308 17.3249 29.4118 16.1689 28.6701 15.3177C27.9284 14.4666 26.9245 13.99 25.8787 13.9923" fill="#727176"/>
</g>
</svg>
