<svg width="30" height="30" viewBox="0 0 30 30" fill="none" xmlns="http://www.w3.org/2000/svg">
<path d="M7.5 22.5L3.5625 26.4375C3.35417 26.6458 3.125 26.6979 2.875 26.5938C2.625 26.4896 2.5 26.2917 2.5 26V5C2.5 4.3125 2.745 3.72375 3.235 3.23375C3.725 2.74375 4.31333 2.49917 5 2.5H25C25.6875 2.5 26.2763 2.745 26.7663 3.235C27.2563 3.725 27.5008 4.31334 27.5 5V20C27.5 20.6875 27.255 21.2763 26.765 21.7663C26.275 22.2563 25.6867 22.5008 25 22.5H7.5ZM15 15.5938L17.375 17.0313C17.6042 17.1771 17.8333 17.1717 18.0625 17.015C18.2917 16.8583 18.375 16.645 18.3125 16.375L17.6875 13.6563L19.8125 11.8125C20.0208 11.625 20.0833 11.4013 20 11.1413C19.9167 10.8813 19.7292 10.7404 19.4375 10.7188L16.6562 10.5L15.5625 7.9375C15.4583 7.6875 15.2708 7.5625 15 7.5625C14.7292 7.5625 14.5417 7.6875 14.4375 7.9375L13.3438 10.5L10.5625 10.7188C10.2708 10.7396 10.0833 10.8804 10 11.1413C9.91667 11.4021 9.97917 11.6258 10.1875 11.8125L12.3125 13.6563L11.6875 16.375C11.625 16.6458 11.7083 16.8596 11.9375 17.0163C12.1667 17.1729 12.3958 17.1779 12.625 17.0313L15 15.5938Z" fill="#727176"/>
</svg>
