<svg width="30" height="30" viewBox="0 0 30 30" fill="none" xmlns="http://www.w3.org/2000/svg">
<mask id="mask0_1144_326" style="mask-type:luminance" maskUnits="userSpaceOnUse" x="3" y="2" width="24" height="26">
<path d="M26.7593 2.73627H3.19141V27.2637H26.7593V2.73627Z" fill="white"/>
</mask>
<g mask="url(#mask0_1144_326)">
<path d="M21.9901 9.31244C22.0002 8.48678 21.8285 7.66751 21.485 6.90206C21.1414 6.13661 20.6329 5.44019 19.9887 4.85311C19.3446 4.26604 18.5777 3.79996 17.7324 3.48187C16.887 3.16379 15.9801 3 15.0641 3C14.1481 3 13.2411 3.16379 12.3958 3.48187C11.5505 3.79996 10.7836 4.26604 10.1394 4.85311C9.49529 5.44019 8.98673 6.13661 8.64319 6.90206C8.29966 7.66751 8.12797 8.48678 8.13807 9.31244C8.17505 10.5269 8.49373 11.721 9.0736 12.8178C9.65347 13.9145 10.4817 14.8897 11.5049 15.6805L8.67676 16.9567C7.29117 17.0104 5.98193 17.5438 5.02162 18.4457C4.0613 19.3477 3.5239 20.5488 3.52128 21.7989V26.0076C3.52027 26.0989 3.53947 26.1895 3.57778 26.2741C3.61608 26.3586 3.67271 26.4354 3.74435 26.5C3.81599 26.5646 3.9012 26.6156 3.995 26.6502C4.0888 26.6847 4.18929 26.702 4.2906 26.7011H14.2952V21.5364L15.0645 21.1897L15.8338 21.5364V26.7018H25.8384C25.9397 26.7028 26.0402 26.6854 26.134 26.6509C26.2278 26.6164 26.313 26.5653 26.3847 26.5008C26.4563 26.4362 26.5129 26.3594 26.5512 26.2748C26.5895 26.1903 26.6088 26.0997 26.6077 26.0084V21.7989C26.6051 20.5484 26.0673 19.347 25.1065 18.445C24.1456 17.5429 22.8358 17.0098 21.4497 16.9567L18.6174 15.6805C19.6406 14.8897 20.4688 13.9145 21.0487 12.8178C21.6286 11.721 21.9472 10.5269 21.9842 9.31244M12.2481 20.9112L10.0319 17.9005L11.7246 17.1357L13.9408 20.1464L12.2481 20.9112ZM22.7594 22.4924C22.9636 22.4924 23.1594 22.5655 23.3037 22.6956C23.4481 22.8257 23.5292 23.0022 23.5292 23.1863C23.5292 23.3703 23.4481 23.5468 23.3037 23.6769C23.1594 23.807 22.9636 23.8801 22.7594 23.8801H19.6821C19.478 23.8801 19.2822 23.807 19.1378 23.6769C18.9935 23.5468 18.9124 23.3703 18.9124 23.1863C18.9124 23.0022 18.9935 22.8257 19.1378 22.6956C19.2822 22.5655 19.478 22.4924 19.6821 22.4924H22.7594ZM20.0971 17.9005L17.8809 20.9112L16.1882 20.1479L18.4044 17.1357L20.0971 17.9005ZM17.4348 14.7647C17.2609 14.8418 17.1086 14.9532 16.9891 15.0907C16.8696 15.2282 16.786 15.3882 16.7446 15.5588C16.7032 15.7294 16.705 15.9062 16.7499 16.0761C16.7947 16.2461 16.8815 16.4046 17.0038 16.5401L15.0679 19.1623L13.0478 16.443C13.4434 16.0143 13.4484 15.2958 12.6084 14.7055C11.036 13.5129 10.0085 11.8382 9.72385 10.0036H13.525C14.1226 10.0046 14.7121 9.87965 15.2466 9.6387C15.781 9.39775 16.2456 9.04751 16.6032 8.61592C16.9606 9.04783 17.4252 9.3983 17.9599 9.63928C18.4945 9.88025 19.0844 10.005 19.6821 10.0036H20.4052C20.1168 11.8722 19.0558 13.5736 17.4348 14.767" fill="white"/>
</g>
</svg>
