<svg width="18" height="18" viewBox="0 0 18 18" fill="none" xmlns="http://www.w3.org/2000/svg">
<mask id="mask0_7980_1885" style="mask-type:alpha" maskUnits="userSpaceOnUse" x="0" y="0" width="18" height="18">
<rect width="18" height="18" fill="#D9D9D9"/>
</mask>
<g mask="url(#mask0_7980_1885)">
<path d="M12.9375 16.3125V14.0625H10.6875V12.9375H12.9375V10.6875H14.0625V12.9375H16.3125V14.0625H14.0625V16.3125H12.9375ZM3.98081 14.625C3.60194 14.625 3.28125 14.4938 3.01875 14.2313C2.75625 13.9688 2.625 13.6481 2.625 13.2692V4.73082C2.625 4.35195 2.75625 4.03126 3.01875 3.76876C3.28125 3.50626 3.60194 3.37501 3.98081 3.37501H5.01919V1.78857H6.17306V3.37501H10.3558V1.78857H11.4808V3.37501H12.5192C12.8981 3.37501 13.2188 3.50626 13.4813 3.76876C13.7438 4.03126 13.875 4.35195 13.875 4.73082V9.16164C13.6875 9.13851 13.5 9.12695 13.3125 9.12695C13.125 9.12695 12.9375 9.13851 12.75 9.16164V7.73082H3.75V13.2692C3.75 13.3269 3.77406 13.3798 3.82219 13.4278C3.87019 13.4759 3.92306 13.5 3.98081 13.5H9.10819C9.10819 13.6875 9.11975 13.875 9.14288 14.0625C9.16588 14.25 9.20812 14.4375 9.26962 14.625H3.98081Z" fill="#727176"/>
</g>
</svg>
