<svg width="29" height="29" viewBox="0 0 29 29" fill="none" xmlns="http://www.w3.org/2000/svg">
<g clip-path="url(#clip0_1667_68)">
<path d="M27.1875 2.71555L19.9312 2.71558V0.909424C19.9312 0.408721 19.5256 0.00317383 19.0249 0.00317383C18.5242 0.00317383 18.1187 0.408721 18.1187 0.909424V2.71513H10.8687V0.909424C10.8687 0.408721 10.4631 0.00317383 9.96241 0.00317383C9.4617 0.00317383 9.05616 0.408721 9.05616 0.909424V2.71513H1.8125C0.811547 2.71513 0 3.52667 0 4.52763V27.1839C0 28.1848 0.811547 28.9964 1.8125 28.9964H27.1875C28.1885 28.9964 29 28.1848 29 27.1839V4.52763C29 3.5271 28.1885 2.71555 27.1875 2.71555ZM27.1875 27.1839H1.8125V4.52763H9.05616V5.44067C9.05616 5.94135 9.4617 6.34692 9.96241 6.34692C10.4631 6.34692 10.8687 5.94135 10.8687 5.44067V4.52808H18.1187V5.44113C18.1187 5.94183 18.5242 6.34738 19.0249 6.34738C19.5256 6.34738 19.9312 5.94183 19.9312 5.44113V4.52808H27.1875V27.1839ZM20.8438 14.4968H22.6562C23.1565 14.4968 23.5625 14.0908 23.5625 13.5906V11.7781C23.5625 11.2778 23.1565 10.8718 22.6562 10.8718H20.8438C20.3435 10.8718 19.9375 11.2778 19.9375 11.7781V13.5906C19.9375 14.0908 20.3435 14.4968 20.8438 14.4968ZM20.8438 21.7463H22.6562C23.1565 21.7463 23.5625 21.3408 23.5625 20.8401V19.0276C23.5625 18.5273 23.1565 18.1213 22.6562 18.1213H20.8438C20.3435 18.1213 19.9375 18.5273 19.9375 19.0276V20.8401C19.9375 21.3413 20.3435 21.7463 20.8438 21.7463ZM15.4062 18.1213H13.5938C13.0935 18.1213 12.6875 18.5273 12.6875 19.0276V20.8401C12.6875 21.3408 13.0935 21.7463 13.5938 21.7463H15.4062C15.9065 21.7463 16.3125 21.3408 16.3125 20.8401V19.0276C16.3125 18.5278 15.9065 18.1213 15.4062 18.1213ZM15.4062 10.8718H13.5938C13.0935 10.8718 12.6875 11.2778 12.6875 11.7781V13.5906C12.6875 14.0908 13.0935 14.4968 13.5938 14.4968H15.4062C15.9065 14.4968 16.3125 14.0908 16.3125 13.5906V11.7781C16.3125 11.2773 15.9065 10.8718 15.4062 10.8718ZM8.15625 10.8718H6.34375C5.8435 10.8718 5.4375 11.2778 5.4375 11.7781V13.5906C5.4375 14.0908 5.8435 14.4968 6.34375 14.4968H8.15625C8.6565 14.4968 9.0625 14.0908 9.0625 13.5906V11.7781C9.0625 11.2773 8.6565 10.8718 8.15625 10.8718ZM8.15625 18.1213H6.34375C5.8435 18.1213 5.4375 18.5273 5.4375 19.0276V20.8401C5.4375 21.3408 5.8435 21.7463 6.34375 21.7463H8.15625C8.6565 21.7463 9.0625 21.3408 9.0625 20.8401V19.0276C9.0625 18.5278 8.6565 18.1213 8.15625 18.1213Z" fill="#727176"/>
</g>
<defs>
<clipPath id="clip0_1667_68">
<rect width="29" height="29" fill="#727176"/>
</clipPath>
</defs>
</svg>
