<svg width="26" height="25" viewBox="0 0 26 25" fill="none" xmlns="http://www.w3.org/2000/svg">
<path d="M5.84999 7.33089C5.43607 7.33089 5.03145 7.21761 4.68729 7.00536C4.34312 6.79312 4.07488 6.49145 3.91648 6.13849C3.75808 5.78554 3.71664 5.39717 3.79739 5.02247C3.87814 4.64778 4.07746 4.30361 4.37015 4.03347C4.66283 3.76333 5.03574 3.57937 5.44171 3.50484C5.84767 3.43031 6.26847 3.46856 6.65088 3.61475C7.0333 3.76095 7.36015 4.00853 7.59011 4.32618C7.82007 4.64382 7.94281 5.01728 7.94281 5.39931C7.94281 5.9116 7.72232 6.4029 7.32984 6.76515C6.93736 7.12739 6.40505 7.33089 5.84999 7.33089ZM5.84999 4.92619e-05C5.08085 -0.00298955 4.31866 0.134592 3.60743 0.404854C2.8962 0.675116 2.24999 1.07271 1.70612 1.57468C1.16225 2.07665 0.731468 2.67307 0.438647 3.32951C0.145826 3.98595 -0.0032391 4.68942 5.33738e-05 5.39931C5.33738e-05 9.4411 5.84999 15.4298 5.84999 15.4298C5.84999 15.4298 11.6999 9.4411 11.6999 5.39931C11.7032 4.68942 11.5542 3.98595 11.2613 3.32951C10.9685 2.67307 10.5377 2.07665 9.99387 1.57468C9.45 1.07271 8.80379 0.675116 8.09256 0.404854C7.38133 0.134592 6.61914 -0.00298955 5.84999 4.92619e-05ZM20.15 7.33089C19.7361 7.33089 19.3315 7.21761 18.9873 7.00536C18.6431 6.79312 18.3749 6.49145 18.2165 6.13849C18.0581 5.78554 18.0166 5.39717 18.0974 5.02247C18.1782 4.64778 18.3775 4.30361 18.6702 4.03347C18.9628 3.76333 19.3357 3.57937 19.7417 3.50484C20.1477 3.43031 20.5685 3.46856 20.9509 3.61475C21.3333 3.76095 21.6602 4.00853 21.8901 4.32618C22.1201 4.64382 22.2428 5.01728 22.2428 5.39931C22.2428 5.9116 22.0223 6.4029 21.6299 6.76515C21.2374 7.12739 20.7051 7.33089 20.15 7.33089ZM20.15 4.92619e-05C19.3809 -0.00298955 18.6187 0.134592 17.9074 0.404854C17.1962 0.675116 16.55 1.07271 16.0061 1.57468C15.4623 2.07665 15.0315 2.67307 14.7387 3.32951C14.4458 3.98595 14.2968 4.68942 14.3001 5.39931C14.3001 9.44237 20.15 15.4298 20.15 15.4298C20.15 15.4298 25.9999 9.4411 25.9999 5.39931C26.0032 4.68942 25.8542 3.98595 25.5614 3.32951C25.2685 2.67307 24.8378 2.07665 24.2939 1.57468C23.75 1.07271 23.1038 0.675116 22.3926 0.404854C21.6813 0.134592 20.9192 -0.00298955 20.15 4.92619e-05ZM20.15 16.7975C19.3447 16.7969 18.5591 17.0276 17.9023 17.4576C17.2454 17.8876 16.7498 18.4956 16.4841 19.1973H9.51588C9.25834 18.5253 8.79054 17.9389 8.17172 17.5125C7.5529 17.086 6.81089 16.8386 6.03964 16.8016C5.26839 16.7646 4.50258 16.9396 3.83918 17.3045C3.17578 17.6695 2.64461 18.2079 2.31294 18.8516C1.98126 19.4953 1.864 20.2154 1.97599 20.9206C2.08798 21.6259 2.42418 22.2846 2.94204 22.8134C3.4599 23.3422 4.13612 23.7173 4.88508 23.8912C5.63404 24.0651 6.42206 24.0299 7.14937 23.7902C7.69374 23.6061 8.18776 23.3141 8.59663 22.9348C9.0055 22.5554 9.31929 22.0979 9.51588 21.5945H16.4966C16.8505 22.484 17.5699 23.2089 18.499 23.6121C19.428 24.0153 20.4918 24.0644 21.4597 23.7487C22.4277 23.433 23.2219 22.7779 23.6702 21.9255C24.1185 21.0731 24.1847 20.0919 23.8546 19.1947C23.5803 18.4911 23.0771 17.883 22.414 17.4534C21.7509 17.0238 20.9602 16.7939 20.15 16.7949M20.15 22.1942C19.7642 22.1942 19.3871 22.0886 19.0664 21.8908C18.7456 21.693 18.4957 21.4118 18.348 21.0829C18.2004 20.7539 18.1618 20.392 18.237 20.0428C18.3123 19.6936 18.4981 19.3728 18.7708 19.1211C19.0436 18.8693 19.3911 18.6979 19.7695 18.6284C20.1478 18.5589 20.54 18.5946 20.8964 18.7308C21.2528 18.8671 21.5574 19.0978 21.7717 19.3939C21.9861 19.6899 22.1004 20.0379 22.1004 20.394C22.1012 20.6308 22.0513 20.8655 21.9536 21.0845C21.8559 21.3035 21.7123 21.5025 21.5311 21.6702C21.3499 21.8379 21.1347 21.971 20.8977 22.0618C20.6607 22.1525 20.4066 22.1993 20.15 22.1993V22.1942Z" fill="#727176"/>
</svg>
