<svg width="18" height="18" viewBox="0 0 18 18" fill="none" xmlns="http://www.w3.org/2000/svg">
<mask id="mask0_7760_256" style="mask-type:alpha" maskUnits="userSpaceOnUse" x="0" y="0" width="18" height="18">
<rect width="18" height="18" fill="#D9D9D9"/>
</mask>
<g mask="url(#mask0_7760_256)">
<path d="M3.98081 16.125C3.60194 16.125 3.28125 15.9938 3.01875 15.7313C2.75625 15.4688 2.625 15.1481 2.625 14.7692V4.73082C2.625 4.35195 2.75625 4.03126 3.01875 3.76876C3.28125 3.50626 3.60194 3.37501 3.98081 3.37501H5.01919V1.78857H6.17306V3.37501H11.8558V1.78857H12.9808V3.37501H14.0192C14.3981 3.37501 14.7188 3.50626 14.9813 3.76876C15.2438 4.03126 15.375 4.35195 15.375 4.73082V14.7692C15.375 15.1481 15.2438 15.4688 14.9813 15.7313C14.7188 15.9938 14.3981 16.125 14.0192 16.125H3.98081ZM3.98081 15H14.0192C14.0769 15 14.1298 14.976 14.1778 14.9278C14.2259 14.8798 14.25 14.827 14.25 14.7692V7.73082H3.75V14.7692C3.75 14.827 3.77406 14.8798 3.82219 14.9278C3.87019 14.976 3.92306 15 3.98081 15Z" fill="#727176"/>
</g>
</svg>
