<svg width="41" height="41" viewBox="0 0 41 41" fill="none" xmlns="http://www.w3.org/2000/svg">
<mask id="mask0_2130_844" style="mask-type:alpha" maskUnits="userSpaceOnUse" x="0" y="0" width="41" height="41">
<rect x="0.796875" y="0.5" width="40" height="40" fill="#D9D9D9"/>
</mask>
<g mask="url(#mask0_2130_844)">
<path d="M6.84454 37.2768C5.88531 37.2768 5.06416 36.9353 4.38107 36.2522C3.69799 35.5691 3.35645 34.748 3.35645 33.7887V9.37206C3.35645 8.41284 3.69799 7.59168 4.38107 6.9086C5.06416 6.22551 5.88531 5.88397 6.84454 5.88397H8.58859V2.39587H12.0767V5.88397H26.0291V2.39587H29.5172V5.88397H31.2612C32.2204 5.88397 33.0416 6.22551 33.7247 6.9086C34.4078 7.59168 34.7493 8.41284 34.7493 9.37206V19.2695C34.197 19.0079 33.6302 18.7899 33.0489 18.6155C32.4675 18.4411 31.8716 18.3103 31.2612 18.2231V16.3483H6.84454V33.7887H17.832C18.0355 34.4282 18.2753 35.0386 18.5515 35.62C18.8276 36.2013 19.1546 36.7536 19.5325 37.2768H6.84454ZM29.5172 39.0209C27.1046 39.0209 25.048 38.1707 23.3476 36.4702C21.6471 34.7698 20.7969 32.7132 20.7969 30.3006C20.7969 27.888 21.6471 25.8315 23.3476 24.1311C25.048 22.4306 27.1046 21.5804 29.5172 21.5804C31.9298 21.5804 33.9863 22.4306 35.6867 24.1311C37.3872 25.8315 38.2374 27.888 38.2374 30.3006C38.2374 32.7132 37.3872 34.7698 35.6867 36.4702C33.9863 38.1707 31.9298 39.0209 29.5172 39.0209ZM32.4384 34.4427L33.6593 33.2219L30.3892 29.9518V25.0685H28.6451V30.6494L32.4384 34.4427Z" fill="black"/>
</g>
</svg>
