<svg width="20" height="20" viewBox="0 0 20 20" fill="none" xmlns="http://www.w3.org/2000/svg">
<mask id="mask0_1401_36511" style="mask-type:luminance" maskUnits="userSpaceOnUse" x="2" y="2" width="16" height="16">
<path d="M17.6955 2.5H2.22266V17.6885H17.6955V2.5Z" fill="white"/>
</mask>
<g mask="url(#mask0_1401_36511)">
<path d="M12.5887 5.45826C12.5887 6.14262 12.3777 6.80579 11.9918 7.33477C11.6058 7.86374 11.0687 8.22579 10.4721 8.35923C9.87544 8.49267 9.25613 8.38924 8.71967 8.06656C8.18321 7.74388 7.76281 7.22192 7.53009 6.58962C7.29737 5.95732 7.26674 5.25379 7.44341 4.59893C7.62008 3.94407 7.99312 3.37838 8.49897 2.99826C9.00483 2.61814 9.61219 2.4471 10.2176 2.5143C10.823 2.58149 11.3889 2.88276 11.819 3.36676C12.3119 3.92153 12.5888 4.67385 12.5887 5.45826Z" fill="#727176"/>
<path d="M16.9397 6.54578C16.9397 6.91563 16.8422 7.27718 16.6595 7.5847C16.4769 7.89222 16.2173 8.1319 15.9136 8.27344C15.6098 8.41497 15.2756 8.452 14.9532 8.37985C14.6307 8.3077 14.3346 8.12959 14.1021 7.86807C13.8696 7.60655 13.7113 7.27334 13.6472 6.9106C13.583 6.54786 13.616 6.17186 13.7418 5.83016C13.8676 5.48847 14.0806 5.19641 14.354 4.99093C14.6273 4.78545 14.9487 4.67578 15.2775 4.67578C15.7183 4.67578 16.1411 4.8728 16.4528 5.22349C16.7646 5.57418 16.9397 6.04983 16.9397 6.54578Z" fill="#727176"/>
<path d="M6.30296 6.54578C6.30296 6.91563 6.20547 7.27718 6.02283 7.5847C5.84018 7.89222 5.58057 8.1319 5.27684 8.27344C4.97311 8.41497 4.63889 8.452 4.31646 8.37985C3.99402 8.3077 3.69784 8.12959 3.46537 7.86807C3.2329 7.60655 3.07459 7.27334 3.01046 6.9106C2.94632 6.54786 2.97924 6.17186 3.10505 5.83016C3.23086 5.48847 3.44391 5.19641 3.71726 4.99093C3.99061 4.78545 4.31198 4.67578 4.64074 4.67578C5.08159 4.67578 5.50438 4.8728 5.81611 5.22349C6.12783 5.57418 6.30296 6.04983 6.30296 6.54578Z" fill="#727176"/>
<path d="M6.27777 10.0949C5.62355 9.49188 5.0311 9.57188 4.27466 9.57188C3.73226 9.57068 3.21159 9.81159 2.8269 10.2418C2.4422 10.6719 2.22489 11.2562 2.22266 11.8664V15.5794C2.2236 15.8439 2.31766 16.0972 2.48426 16.2839C2.65086 16.4706 2.87641 16.5754 3.11155 16.5754C5.22755 16.5754 4.97288 16.6184 4.97288 16.4729C4.97288 13.8419 4.69599 11.9124 6.27821 10.0954" fill="#727176"/>
<path d="M10.6792 9.58811C9.3579 9.46411 8.20946 9.58811 7.21879 10.5096C5.56102 12.0036 5.88013 14.0151 5.88013 16.4756C5.8806 16.7912 5.99224 17.0937 6.19059 17.3168C6.38894 17.54 6.65783 17.6656 6.93835 17.6661C13.3175 17.6661 13.5712 17.8976 13.9495 16.9551C14.0735 16.6366 14.0384 16.7376 14.0384 13.6891C14.0384 11.2676 12.1748 9.58911 10.6783 9.58911" fill="#727176"/>
<path d="M15.6437 9.57177C14.8833 9.57177 14.294 9.49277 13.6406 10.0953C15.2108 11.8993 14.946 13.6953 14.946 16.4728C14.946 16.6193 14.7344 16.5753 16.7757 16.5753C17.0193 16.5755 17.253 16.4671 17.4256 16.2737C17.5982 16.0803 17.6955 15.8178 17.6962 15.5438V11.8663C17.6939 11.2561 17.4766 10.6718 17.0919 10.2416C16.7072 9.81148 16.1866 9.57057 15.6442 9.57177" fill="#727176"/>
</g>
</svg>
