<svg width="24" height="24" viewBox="0 0 24 24" fill="none" xmlns="http://www.w3.org/2000/svg">
<path d="M15.1048 4.60225C15.0688 4.82724 15.0508 5.05224 15.0508 5.27724C15.0508 7.30221 16.6888 8.93928 18.7048 8.93928C18.9298 8.93928 19.1458 8.91318 19.3708 8.87718V16.1392C19.3708 19.191 17.5708 21 14.5108 21H7.86083C4.79997 21 3 19.191 3 16.1392V9.48017C3 6.42022 4.79997 4.60225 7.86083 4.60225H15.1048ZM15.2857 10.0742C15.0418 10.0472 14.7997 10.1552 14.6548 10.3532L12.4778 13.1701L9.9839 11.2081C9.8309 11.0911 9.6509 11.0452 9.4709 11.0641C9.29181 11.0911 9.12981 11.1892 9.02091 11.3332L6.35785 14.7991L6.30295 14.8801C6.14995 15.1672 6.22195 15.5362 6.49195 15.7351C6.61795 15.8161 6.75294 15.8701 6.90594 15.8701C7.11384 15.8791 7.31094 15.7702 7.43693 15.6001L9.6959 12.6922L12.2609 14.6191L12.3419 14.6722C12.6299 14.8252 12.9899 14.7541 13.1968 14.4832L15.7978 11.1271L15.7618 11.1451C15.9058 10.9472 15.9328 10.6952 15.8338 10.4702C15.7357 10.2452 15.5188 10.0922 15.2857 10.0742ZM18.8309 3C20.0278 3 20.9998 3.97199 20.9998 5.16897C20.9998 6.36595 20.0278 7.33793 18.8309 7.33793C17.6339 7.33793 16.6619 6.36595 16.6619 5.16897C16.6619 3.97199 17.6339 3 18.8309 3Z" fill="#6B679F"/>
</svg>
