<svg width="24" height="24" viewBox="0 0 24 24" fill="none" xmlns="http://www.w3.org/2000/svg">
<mask id="mask0_1401_4098" style="mask-type:luminance" maskUnits="userSpaceOnUse" x="3" y="4" width="18" height="16">
<path d="M21 4H3V19.7501H21V4Z" fill="white"/>
</mask>
<g mask="url(#mask0_1401_4098)">
<path d="M10.8756 8.49972V7.37479H4.12493C3.82676 7.37537 3.54097 7.49407 3.33013 7.70491C3.11928 7.91575 3.00058 8.20155 3 8.49972V10.7496H11.1135C10.95 10.0109 10.8702 9.25623 10.8756 8.49972Z" fill="#6B679F"/>
<path d="M17.3401 16.1506C17.0847 16.2965 16.7956 16.3733 16.5014 16.3733C16.2072 16.3733 15.9181 16.2965 15.6626 16.1506C14.2222 15.4032 12.9816 14.322 12.0444 12.9973H3V18.6219C3.00029 18.9202 3.1189 19.2061 3.32981 19.417C3.54071 19.6279 3.82667 19.7466 4.12493 19.7468H19.8751C20.1734 19.7468 20.4595 19.6283 20.6705 19.4174C20.8815 19.2064 21 18.9203 21 18.6219V12.9973H20.954C20.018 14.3225 18.777 15.4033 17.3357 16.1484M8.05781 16.3677H5.81233C5.66315 16.3677 5.52009 16.3084 5.41461 16.2029C5.30912 16.0974 5.24986 15.9544 5.24986 15.8052C5.24986 15.656 5.30912 15.513 5.41461 15.4075C5.52009 15.302 5.66315 15.2427 5.81233 15.2427H8.06219C8.21137 15.2427 8.35443 15.302 8.45992 15.4075C8.5654 15.513 8.62466 15.656 8.62466 15.8052C8.62466 15.9544 8.5654 16.0974 8.45992 16.2029C8.35443 16.3084 8.21137 16.3677 8.06219 16.3677" fill="#6B679F"/>
<path d="M20.6625 5.73343L16.7219 4.04603C16.6518 4.01602 16.5762 4.00055 16.4999 4.00055C16.4236 4.00055 16.3481 4.01602 16.2779 4.04603L12.3406 5.73343C12.2396 5.77679 12.1536 5.84883 12.0932 5.94063C12.0328 6.03243 12.0006 6.13995 12.0007 6.24985V8.49532C12.0007 11.5905 13.1454 13.3996 16.2209 15.1715C16.3062 15.2201 16.4028 15.2457 16.501 15.2457C16.5992 15.2457 16.6958 15.2201 16.7811 15.1715C19.8566 13.404 21.0013 11.5949 21.0013 8.49532V6.24985C21.0015 6.13979 20.9692 6.03213 20.9085 5.94029C20.8479 5.84845 20.7616 5.7765 20.6603 5.73343M18.6286 8.2892L16.3788 11.1015C16.3258 11.1668 16.2589 11.2196 16.1831 11.256C16.1073 11.2924 16.0243 11.3115 15.9402 11.312H15.9161C15.8276 11.3081 15.7414 11.2834 15.6642 11.24C15.5871 11.1966 15.5212 11.1356 15.472 11.0621L14.3449 9.37246C14.267 9.24829 14.2406 9.0986 14.2714 8.95528C14.3022 8.81195 14.3877 8.68631 14.5098 8.60512C14.6319 8.52394 14.7808 8.49362 14.9249 8.52062C15.069 8.54762 15.1969 8.62982 15.2812 8.74969L15.9797 9.79678L17.7482 7.58529C17.844 7.47794 17.9774 7.41141 18.1208 7.39939C18.2642 7.38737 18.4068 7.43078 18.5192 7.52068C18.6315 7.61058 18.7051 7.74013 18.7249 7.88268C18.7447 8.02523 18.709 8.16993 18.6253 8.287" fill="#6B679F"/>
</g>
</svg>
