<svg width="32" height="32" viewBox="0 0 32 32" fill="none" xmlns="http://www.w3.org/2000/svg">
<mask id="mask0_3338_3153" style="mask-type:alpha" maskUnits="userSpaceOnUse" x="0" y="0" width="32" height="32">
<rect width="32" height="32" fill="#D9D9D9"/>
</mask>
<g mask="url(#mask0_3338_3153)">
<path d="M9.33334 28L7.46668 26.1334L9.56668 23.9334C7.21112 23.6667 5.25001 22.65 3.68334 20.8834C2.11668 19.1167 1.33334 17.0445 1.33334 14.6667C1.33334 12.0667 2.2389 9.86115 4.05001 8.05004C5.86112 6.23893 8.06668 5.33337 10.6667 5.33337H14.6667V8.00004H10.6667C8.82223 8.00004 7.25001 8.65004 5.95001 9.95004C4.65001 11.25 4.00001 12.8223 4.00001 14.6667C4.00001 16.2667 4.51112 17.6778 5.53334 18.9C6.55557 20.1223 7.85557 20.8889 9.43334 21.2L7.46668 19.2334L9.33334 17.3334L14.6667 22.6667L9.33334 28ZM17.3333 26.6667V17.3334H29.3333V26.6667H17.3333ZM17.3333 14.6667V5.33337H29.3333V14.6667H17.3333ZM20 12H26.6667V8.00004H20V12Z" fill="black"/>
</g>
</svg>
