<svg width="18" height="18" viewBox="0 0 18 18" fill="none" xmlns="http://www.w3.org/2000/svg">
<path d="M9.07 15.577L11.477 13.175L9.069 10.773L8.442 11.4L9.825 12.783C9.05033 12.7863 8.36233 12.6953 7.761 12.51C7.159 12.3233 6.67633 12.049 6.313 11.687C5.94167 11.315 5.662 10.893 5.474 10.421C5.286 9.949 5.192 9.47733 5.192 9.006C5.192 8.72267 5.22333 8.43933 5.286 8.156C5.34867 7.87267 5.44 7.604 5.56 7.35L4.883 6.75C4.68967 7.10267 4.54533 7.468 4.45 7.846C4.35533 8.224 4.308 8.60867 4.308 9C4.308 9.594 4.42333 10.1807 4.654 10.76C4.88467 11.3393 5.22567 11.857 5.677 12.313C6.12833 12.771 6.72133 13.111 7.456 13.333C8.19067 13.5557 8.945 13.669 9.719 13.673L8.442 14.95L9.07 15.577ZM13.137 11.25C13.3303 10.8973 13.4743 10.532 13.569 10.154C13.6643 9.776 13.712 9.39133 13.712 9C13.712 8.408 13.5973 7.81967 13.368 7.235C13.1387 6.65033 12.7953 6.13233 12.338 5.681C11.8933 5.223 11.3017 4.88367 10.563 4.663C9.82367 4.443 9.06933 4.333 8.3 4.333L9.577 3.05L8.95 2.423L6.542 4.825L8.95 7.227L9.577 6.6L8.188 5.212C8.95867 5.212 9.648 5.30567 10.256 5.493C10.8633 5.681 11.3483 5.957 11.711 6.321C12.0743 6.68433 12.351 7.10267 12.541 7.576C12.7317 8.04867 12.827 8.52133 12.827 8.994C12.827 9.27733 12.796 9.56067 12.734 9.844C12.672 10.1273 12.5807 10.396 12.46 10.65L13.137 11.25ZM9.003 18C7.759 18 6.589 17.764 5.493 17.292C4.39767 16.8193 3.44467 16.178 2.634 15.368C1.82333 14.5587 1.18167 13.6067 0.709 12.512C0.236333 11.4173 0 10.2477 0 9.003C0 7.759 0.236 6.589 0.708 5.493C1.18067 4.39767 1.822 3.44467 2.632 2.634C3.44133 1.82333 4.39333 1.18167 5.488 0.709C6.58267 0.236333 7.75233 0 8.997 0C10.241 0 11.411 0.236 12.507 0.708C13.6023 1.18067 14.5553 1.822 15.366 2.632C16.1767 3.44133 16.8183 4.39333 17.291 5.488C17.7637 6.58267 18 7.75233 18 8.997C18 10.241 17.764 11.411 17.292 12.507C16.8193 13.6023 16.178 14.5553 15.368 15.366C14.5587 16.1767 13.6067 16.8183 12.512 17.291C11.4173 17.7637 10.2477 18 9.003 18Z" fill="black"/>
</svg>
