<svg width="18" height="20" viewBox="0 0 18 20" fill="none" xmlns="http://www.w3.org/2000/svg">
<path d="M6.85742 16C6.30742 16 5.83659 15.8041 5.44492 15.4125C5.05326 15.0208 4.85742 14.55 4.85742 14V1.99995C4.85742 1.44995 5.05326 0.979117 5.44492 0.58745C5.83659 0.195784 6.30742 -4.95911e-05 6.85742 -4.95911e-05H15.8574C16.4074 -4.95911e-05 16.8783 0.195784 17.2699 0.58745C17.6616 0.979117 17.8574 1.44995 17.8574 1.99995V14C17.8574 14.55 17.6616 15.0208 17.2699 15.4125C16.8783 15.8041 16.4074 16 15.8574 16H6.85742ZM6.85742 14H15.8574V1.99995H6.85742V14ZM2.85742 20C2.30742 20 1.83659 19.8041 1.44492 19.4125C1.05326 19.0208 0.857422 18.5499 0.857422 18V4.99995C0.857422 4.71662 0.953255 4.47912 1.14492 4.28745C1.33659 4.09578 1.57409 3.99995 1.85742 3.99995C2.14076 3.99995 2.37826 4.09578 2.56992 4.28745C2.76159 4.47912 2.85742 4.71662 2.85742 4.99995V18H12.8574C13.1408 18 13.3783 18.0958 13.5699 18.2875C13.7616 18.4791 13.8574 18.7166 13.8574 19C13.8574 19.2833 13.7616 19.5208 13.5699 19.7125C13.3783 19.9041 13.1408 20 12.8574 20H2.85742Z" fill="#727176"/>
</svg>
