<svg width="17" height="18" viewBox="0 0 17 18" fill="none" xmlns="http://www.w3.org/2000/svg">
<path d="M3.85962 18C3.30962 18 2.83879 17.8042 2.44712 17.4125C2.05545 17.0208 1.85962 16.55 1.85962 16V3C1.57629 3 1.33879 2.90417 1.14712 2.7125C0.955452 2.52083 0.859619 2.28333 0.859619 2C0.859619 1.71667 0.955452 1.47917 1.14712 1.2875C1.33879 1.09583 1.57629 1 1.85962 1H5.85962C5.85962 0.716667 5.95545 0.479167 6.14712 0.2875C6.33879 0.0958333 6.57629 0 6.85962 0H10.8596C11.143 0 11.3805 0.0958333 11.5721 0.2875C11.7638 0.479167 11.8596 0.716667 11.8596 1H15.8596C16.143 1 16.3805 1.09583 16.5721 1.2875C16.7638 1.47917 16.8596 1.71667 16.8596 2C16.8596 2.28333 16.7638 2.52083 16.5721 2.7125C16.3805 2.90417 16.143 3 15.8596 3V16C15.8596 16.55 15.6638 17.0208 15.2721 17.4125C14.8805 17.8042 14.4096 18 13.8596 18H3.85962ZM13.8596 3H3.85962V16H13.8596V3ZM6.85962 14C7.14295 14 7.38045 13.9042 7.57212 13.7125C7.76379 13.5208 7.85962 13.2833 7.85962 13V6C7.85962 5.71667 7.76379 5.47917 7.57212 5.2875C7.38045 5.09583 7.14295 5 6.85962 5C6.57629 5 6.33879 5.09583 6.14712 5.2875C5.95545 5.47917 5.85962 5.71667 5.85962 6V13C5.85962 13.2833 5.95545 13.5208 6.14712 13.7125C6.33879 13.9042 6.57629 14 6.85962 14ZM10.8596 14C11.143 14 11.3805 13.9042 11.5721 13.7125C11.7638 13.5208 11.8596 13.2833 11.8596 13V6C11.8596 5.71667 11.7638 5.47917 11.5721 5.2875C11.3805 5.09583 11.143 5 10.8596 5C10.5763 5 10.3388 5.09583 10.1471 5.2875C9.95545 5.47917 9.85962 5.71667 9.85962 6V13C9.85962 13.2833 9.95545 13.5208 10.1471 13.7125C10.3388 13.9042 10.5763 14 10.8596 14Z" fill="#727176"/>
</svg>
