<svg width="17" height="10" viewBox="0 0 17 10" fill="none" xmlns="http://www.w3.org/2000/svg">
<path d="M16.7188 8C16.7188 8.55 16.5229 9.02083 16.1313 9.4125C15.7396 9.80417 15.2688 10 14.7188 10C14.1687 10 13.6979 9.80417 13.3063 9.4125C12.9146 9.02083 12.7188 8.55 12.7188 8C12.7188 7.45 12.9146 6.97917 13.3063 6.5875C13.6979 6.19583 14.1687 6 14.7188 6C15.2688 6 15.7396 6.19583 16.1313 6.5875C16.5229 6.97917 16.7188 7.45 16.7188 8ZM16.7188 2C16.7188 2.55 16.5229 3.02083 16.1313 3.4125C15.7396 3.80417 15.2688 4 14.7188 4C14.1687 4 13.6979 3.80417 13.3063 3.4125C12.9146 3.02083 12.7188 2.55 12.7188 2C12.7188 1.45 12.9146 0.979166 13.3063 0.5875C13.6979 0.195833 14.1687 0 14.7188 0C15.2688 0 15.7396 0.195833 16.1313 0.5875C16.5229 0.979166 16.7188 1.45 16.7188 2ZM10.7188 8C10.7188 8.55 10.5229 9.02083 10.1313 9.4125C9.73958 9.80417 9.26875 10 8.71875 10C8.16875 10 7.69792 9.80417 7.30625 9.4125C6.91458 9.02083 6.71875 8.55 6.71875 8C6.71875 7.45 6.91458 6.97917 7.30625 6.5875C7.69792 6.19583 8.16875 6 8.71875 6C9.26875 6 9.73958 6.19583 10.1313 6.5875C10.5229 6.97917 10.7188 7.45 10.7188 8ZM10.7188 2C10.7188 2.55 10.5229 3.02083 10.1313 3.4125C9.73958 3.80417 9.26875 4 8.71875 4C8.16875 4 7.69792 3.80417 7.30625 3.4125C6.91458 3.02083 6.71875 2.55 6.71875 2C6.71875 1.45 6.91458 0.979166 7.30625 0.5875C7.69792 0.195833 8.16875 0 8.71875 0C9.26875 0 9.73958 0.195833 10.1313 0.5875C10.5229 0.979166 10.7188 1.45 10.7188 2ZM4.71875 8C4.71875 8.55 4.52292 9.02083 4.13125 9.4125C3.73958 9.80417 3.26875 10 2.71875 10C2.16875 10 1.69792 9.80417 1.30625 9.4125C0.914583 9.02083 0.71875 8.55 0.71875 8C0.71875 7.45 0.914583 6.97917 1.30625 6.5875C1.69792 6.19583 2.16875 6 2.71875 6C3.26875 6 3.73958 6.19583 4.13125 6.5875C4.52292 6.97917 4.71875 7.45 4.71875 8ZM4.71875 2C4.71875 2.55 4.52292 3.02083 4.13125 3.4125C3.73958 3.80417 3.26875 4 2.71875 4C2.16875 4 1.69792 3.80417 1.30625 3.4125C0.914583 3.02083 0.71875 2.55 0.71875 2C0.71875 1.45 0.914583 0.979166 1.30625 0.5875C1.69792 0.195833 2.16875 0 2.71875 0C3.26875 0 3.73958 0.195833 4.13125 0.5875C4.52292 0.979166 4.71875 1.45 4.71875 2Z" fill="#727176"/>
</svg>
