<svg width="21" height="13" viewBox="0 0 21 13" fill="none" xmlns="http://www.w3.org/2000/svg">
<path d="M10.3641 10.1538C11.3803 10.1538 12.2426 9.79818 12.9509 9.08683C13.6593 8.37547 14.0134 7.51169 14.0134 6.49548C14.0134 5.47926 13.6578 4.61698 12.9464 3.90865C12.2351 3.20032 11.3713 2.84615 10.3551 2.84615C9.33886 2.84615 8.47658 3.20182 7.76825 3.91317C7.05992 4.62452 6.70575 5.48831 6.70575 6.50453C6.70575 7.52074 7.06142 8.38302 7.77277 9.09135C8.48412 9.79968 9.34791 10.1538 10.3641 10.1538ZM10.3596 9.2C9.6096 9.2 8.9721 8.9375 8.4471 8.4125C7.9221 7.8875 7.6596 7.25 7.6596 6.5C7.6596 5.75 7.9221 5.1125 8.4471 4.5875C8.9721 4.0625 9.6096 3.8 10.3596 3.8C11.1096 3.8 11.7471 4.0625 12.2721 4.5875C12.7971 5.1125 13.0596 5.75 13.0596 6.5C13.0596 7.25 12.7971 7.8875 12.2721 8.4125C11.7471 8.9375 11.1096 9.2 10.3596 9.2ZM10.3623 13C8.19641 13 6.22242 12.4106 4.44037 11.2317C2.65831 10.0529 1.32369 8.47565 0.436523 6.5C1.32369 4.52435 2.65739 2.94711 4.43762 1.76828C6.21784 0.589425 8.19092 0 10.3568 0C12.5228 0 14.4968 0.589425 16.2788 1.76828C18.0609 2.94711 19.3955 4.52435 20.2827 6.5C19.3955 8.47565 18.0618 10.0529 16.2816 11.2317C14.5014 12.4106 12.5283 13 10.3623 13Z" fill="black"/>
</svg>
