<svg width="40" height="40" viewBox="0 0 40 40" fill="none" xmlns="http://www.w3.org/2000/svg">
<path fill-rule="evenodd" clip-rule="evenodd" d="M14.8308 3.128C16.4698 2.45045 18.2265 2.10297 20 2.10548C21.7736 2.10297 23.5302 2.45045 25.1692 3.128C26.8082 3.80555 28.2975 4.79985 29.5515 6.05394C30.8056 7.30803 31.7999 8.79726 32.4775 10.4363C33.155 12.0753 33.5025 13.8319 33.5 15.6055C33.5 24.6055 20 38.1055 20 38.1055C20 38.1055 6.50001 24.6055 6.50001 15.6055C6.4975 13.8319 6.84498 12.0753 7.52253 10.4363C8.20008 8.79726 9.19439 7.30803 10.4485 6.05394C11.7026 4.79985 13.1918 3.80555 14.8308 3.128Z" fill="#118C11"/>
</svg>
