<svg width="52" height="46" viewBox="0 0 52 46" fill="none" xmlns="http://www.w3.org/2000/svg">
<path d="M25.9193 9.43652C22.7857 9.43692 19.6809 10.7837 20.0073 13.4749L20.8073 19.3245C20.9477 20.3537 21.6433 21.9997 22.6821 21.9997H22.7561L23.6069 31.8121C23.6437 32.2537 23.9637 32.6121 24.4069 32.6121H27.6069C28.0501 32.6121 28.3701 32.2537 28.4069 31.8121L29.2577 21.9997H29.3321C30.3709 21.9997 31.0661 20.3537 31.2069 19.3249L32.0069 13.4745C32.2165 10.7813 29.0533 9.43572 25.9193 9.43652Z" fill="#0C6A0C"/>
<path d="M26.0097 20.3633L25.9905 20.4137C25.9969 20.3985 26.0013 20.3829 26.0077 20.3677L26.0097 20.3633Z" fill="black"/>
<path d="M26 8.4C28.3196 8.4 30.2 6.5196 30.2 4.2C30.2 1.8804 28.3196 0 26 0C23.6805 0 21.8 1.8804 21.8 4.2C21.8 6.5196 23.6805 8.4 26 8.4Z" fill="#0C6A0C"/>
<path d="M30.3688 27.6367C30.3348 28.0255 30.2988 28.4135 30.2648 28.8023C33.8456 29.3079 36.5 30.4551 36.8 31.8743C37.2468 33.9847 30.3432 34.9343 25.896 34.8899C21.4488 34.8451 14.6724 33.9847 15.2648 31.8739C15.6536 30.4887 18.2696 29.3643 21.7568 28.8407C21.722 28.4507 21.6824 28.0607 21.6488 27.6711C17.1664 28.1655 13.432 29.3827 11.94 30.9695H6.8916L6 32.8187H11.2664C11.6756 34.9947 16.2372 36.8731 22.76 37.3475L22.5368 39.9999H28.9928L28.928 37.3479C35.484 36.8731 40.1748 34.9947 40.7336 32.8187H46L45.236 30.9695H40.1876C38.7704 29.3427 34.9684 28.1055 30.3688 27.6367Z" fill="#2CA02C"/>
<g filter="url(#filter0_f_12146_7942)">
<path d="M30.3688 27.6367C30.3348 28.0255 30.2988 28.4135 30.2648 28.8023C33.8456 29.3079 36.5 30.4551 36.8 31.8743C37.2468 33.9847 30.3432 34.9343 25.896 34.8899C21.4488 34.8451 14.6724 33.9847 15.2648 31.8739C15.6536 30.4887 18.2696 29.3643 21.7568 28.8407C21.722 28.4507 21.6824 28.0607 21.6488 27.6711C17.1664 28.1655 13.432 29.3827 11.94 30.9695H6.8916L6 32.8187H11.2664C11.6756 34.9947 16.2372 36.8731 22.76 37.3475L22.5368 39.9999H28.9928L28.928 37.3479C35.484 36.8731 40.1748 34.9947 40.7336 32.8187H46L45.236 30.9695H40.1876C38.7704 29.3427 34.9684 28.1055 30.3688 27.6367Z" fill="#2CA02C"/>
</g>
<defs>
<filter id="filter0_f_12146_7942" x="0" y="21.6367" width="52" height="24.3633" filterUnits="userSpaceOnUse" color-interpolation-filters="sRGB">
<feFlood flood-opacity="0" result="BackgroundImageFix"/>
<feBlend mode="normal" in="SourceGraphic" in2="BackgroundImageFix" result="shape"/>
<feGaussianBlur stdDeviation="3" result="effect1_foregroundBlur_12146_7942"/>
</filter>
</defs>
</svg>
