<svg width="24" height="24" viewBox="0 0 24 24" fill="none" xmlns="http://www.w3.org/2000/svg">
<path d="M21.3332 14.6667L22.2532 14.6667C22.3057 14.6684 22.3581 14.6599 22.4073 14.6414C22.4565 14.6229 22.5016 14.5949 22.54 14.559C22.5784 14.5231 22.6093 14.48 22.631 14.4321C22.6527 14.3842 22.6648 14.3325 22.6665 14.28L22.6665 9.72C22.6648 9.66746 22.6527 9.61578 22.631 9.5679C22.6093 9.52003 22.5784 9.47691 22.54 9.441C22.5016 9.40508 22.4565 9.37709 22.4073 9.35862C22.3581 9.34015 22.3057 9.33155 22.2532 9.33333L21.3332 9.33333L21.3332 6.66667C21.3183 6.4868 21.237 6.31891 21.1051 6.19568C20.9733 6.07245 20.8003 6.0027 20.6198 6L1.95317 6C1.78457 6.01183 1.62676 6.08726 1.51165 6.21102C1.39655 6.33479 1.33276 6.49765 1.33317 6.66667L1.33317 17.3333C1.33286 17.5034 1.39758 17.6672 1.51408 17.7911C1.63058 17.9151 1.79005 17.9898 1.95983 18L20.6265 18C20.8058 17.9957 20.9772 17.9252 21.1076 17.8021C21.2381 17.679 21.3184 17.5121 21.3332 17.3333L21.3332 14.6667ZM7.03984 13.5067C6.84976 13.6013 6.6299 13.6165 6.42861 13.549C6.22732 13.4814 6.0611 13.3367 5.9665 13.1467C5.87191 12.9566 5.85669 12.7367 5.92421 12.5354C5.99172 12.3342 6.13643 12.1679 6.3265 12.0733L13.6265 8.43333L12.9598 12.4333L15.6265 10.9067C15.7176 10.8541 15.8181 10.8201 15.9223 10.8064C16.0265 10.7927 16.1324 10.7997 16.2339 10.8269C16.3354 10.8541 16.4306 10.9011 16.514 10.9651C16.5974 11.0291 16.6673 11.1089 16.7198 11.2C16.7724 11.291 16.8064 11.3916 16.8201 11.4958C16.8338 11.6 16.8268 11.7059 16.7996 11.8074C16.7724 11.9089 16.7254 12.0041 16.6614 12.0875C16.5974 12.1709 16.5176 12.2408 16.4265 12.2933L10.8465 15.5133L11.5332 11.2667L7.03984 13.5067Z" fill="#E10000"/>
</svg>
