<svg width="24" height="24" viewBox="0 0 24 24" fill="none" xmlns="http://www.w3.org/2000/svg">
<mask id="mask0_10725_7938" style="mask-type:alpha" maskUnits="userSpaceOnUse" x="0" y="0" width="24" height="24">
<rect width="24" height="24" fill="#D9D9D9"/>
</mask>
<g mask="url(#mask0_10725_7938)">
<path d="M20.475 23.3L15.675 18.5C15.1417 19.0667 14.575 19.6417 13.975 20.225C13.375 20.8083 12.7167 21.4 12 22C9.31672 19.7167 7.31255 17.5958 5.98755 15.6375C4.66255 13.6792 4.00005 11.8667 4.00005 10.2C4.00005 9.66667 4.04172 9.15833 4.12505 8.675C4.20838 8.19167 4.32505 7.73333 4.47505 7.3L0.675049 3.5L2.10005 2.075L21.9 21.875L20.475 23.3ZM18.2 15.325L13.775 10.9C13.8584 10.7667 13.9167 10.625 13.95 10.475C13.9834 10.325 14 10.1667 14 10C14 9.45 13.8042 8.97917 13.4125 8.5875C13.0209 8.19583 12.55 8 12 8C11.8334 8 11.675 8.01667 11.525 8.05C11.375 8.08333 11.2334 8.14167 11.1 8.225L6.77505 3.9C7.49172 3.28333 8.30005 2.8125 9.20005 2.4875C10.1 2.1625 11.0334 2 12 2C14.1167 2 15.9792 2.74167 17.5875 4.225C19.1959 5.70833 20 7.7 20 10.2C20 11 19.85 11.8208 19.55 12.6625C19.25 13.5042 18.8 14.3917 18.2 15.325Z" fill="#817EB1"/>
</g>
</svg>
