<svg width="24" height="24" viewBox="0 0 24 24" fill="none" xmlns="http://www.w3.org/2000/svg">
<path fill-rule="evenodd" clip-rule="evenodd" d="M11 2C10.2044 2 9.44129 2.31607 8.87868 2.87868C8.31607 3.44129 8 4.20435 8 5V19C8 19.7956 8.31607 20.5587 8.87868 21.1213C9.44129 21.6839 10.2044 22 11 22H17C17.7956 22 18.5587 21.6839 19.1213 21.1213C19.6839 20.5587 20 19.7956 20 19V5C20 4.20435 19.6839 3.44129 19.1213 2.87868C18.5587 2.31607 17.7956 2 17 2H11ZM12.293 8.293C12.4805 8.10553 12.7348 8.00021 13 8.00021C13.2652 8.00021 13.5195 8.10553 13.707 8.293L16.707 11.293C16.8945 11.4805 16.9998 11.7348 16.9998 12C16.9998 12.2652 16.8945 12.5195 16.707 12.707L13.707 15.707C13.5184 15.8892 13.2658 15.99 13.0036 15.9877C12.7414 15.9854 12.4906 15.8802 12.3052 15.6948C12.1198 15.5094 12.0146 15.2586 12.0123 14.9964C12.01 14.7342 12.1108 14.4816 12.293 14.293L13.586 13H5C4.73478 13 4.48043 12.8946 4.29289 12.7071C4.10536 12.5196 4 12.2652 4 12C4 11.7348 4.10536 11.4804 4.29289 11.2929C4.48043 11.1054 4.73478 11 5 11H13.586L12.293 9.707C12.1055 9.51947 12.0002 9.26516 12.0002 9C12.0002 8.73484 12.1055 8.48053 12.293 8.293Z" fill="#2DAD33"/>
</svg>
