<svg width="50" height="45" viewBox="0 0 50 45" fill="none" xmlns="http://www.w3.org/2000/svg">
<mask id="mask0_4_259" style="mask-type:luminance" maskUnits="userSpaceOnUse" x="5" y="5" width="40" height="35">
<path d="M44.2378 5.55554H5.55554V39.3078H44.2378V5.55554Z" fill="white"/>
</mask>
<g mask="url(#mask0_4_259)">
<path d="M31.4689 12.1288C31.4687 13.6496 30.9413 15.1234 29.9764 16.2989C29.0115 17.4744 27.6688 18.2789 26.1772 18.5754C24.6856 18.872 23.1373 18.6421 21.7962 17.9251C20.455 17.208 19.404 16.0481 18.8222 14.643C18.2404 13.2379 18.1639 11.6745 18.6055 10.2192C19.0472 8.76397 19.9798 7.50689 21.2444 6.66217C22.5091 5.81746 24.0275 5.43738 25.5409 5.5867C27.0544 5.73602 28.4693 6.4055 29.5444 7.48107C30.7768 8.71388 31.469 10.3857 31.4689 12.1288Z" fill="url(#paint0_linear_4_259)"/>
<path d="M42.35 14.5466C42.35 15.3685 42.1063 16.1719 41.6497 16.8553C41.193 17.5387 40.544 18.0713 39.7847 18.3858C39.0254 18.7004 38.1898 18.7827 37.3837 18.6223C36.5776 18.462 35.8372 18.0662 35.256 17.485C34.6749 16.9039 34.2791 16.1634 34.1187 15.3573C33.9584 14.5512 34.0407 13.7157 34.3552 12.9563C34.6697 12.197 35.2024 11.548 35.8857 11.0914C36.5691 10.6348 37.3725 10.3911 38.1944 10.3911C39.2965 10.3911 40.3535 10.8289 41.1329 11.6082C41.9122 12.3875 42.35 13.4445 42.35 14.5466Z" fill="url(#paint1_linear_4_259)"/>
<path d="M15.7556 14.5466C15.7556 15.3685 15.5119 16.1719 15.0552 16.8553C14.5986 17.5387 13.9496 18.0713 13.1903 18.3858C12.4309 18.7004 11.5954 18.7827 10.7893 18.6223C9.98321 18.462 9.24276 18.0662 8.66159 17.485C8.08043 16.9039 7.68465 16.1634 7.52431 15.3573C7.36396 14.5512 7.44626 13.7157 7.76078 12.9563C8.07531 12.197 8.60793 11.548 9.29131 11.0914C9.97469 10.6348 10.7781 10.3911 11.6 10.3911C12.7021 10.3911 13.7591 10.8289 14.5384 11.6082C15.3178 12.3875 15.7556 13.4445 15.7556 14.5466Z" fill="url(#paint2_linear_4_259)"/>
<path d="M15.6933 22.4322C14.0578 21.0922 12.5767 21.27 10.6855 21.27C9.32955 21.2673 8.02788 21.8027 7.06614 22.7586C6.1044 23.7145 5.56113 25.0129 5.55554 26.3689V34.62C5.55789 35.2078 5.79306 35.7708 6.20955 36.1856C6.62604 36.6004 7.18993 36.8333 7.77776 36.8333C13.0678 36.8333 12.4311 36.9289 12.4311 36.6055C12.4311 30.7589 11.7389 26.4711 15.6944 22.4333" fill="url(#paint3_linear_4_259)"/>
<path d="M26.6966 21.3055C23.3933 21.03 20.5222 21.3055 18.0455 23.3533C13.9011 26.6733 14.6988 31.1433 14.6988 36.6111C14.7 37.3124 14.9791 37.9846 15.475 38.4805C15.9709 38.9764 16.6431 39.2555 17.3444 39.2567C33.2922 39.2567 33.9266 39.7711 34.8722 37.6766C35.1822 36.9689 35.0944 37.1933 35.0944 30.4189C35.0944 25.0377 30.4355 21.3078 26.6944 21.3078" fill="url(#paint4_linear_4_259)"/>
<path d="M39.1077 21.2711C37.2066 21.2711 35.7333 21.0955 34.1 22.4344C38.0255 26.4433 37.3633 30.4344 37.3633 36.6066C37.3633 36.9322 36.8344 36.8344 41.9377 36.8344C42.5467 36.835 43.131 36.594 43.5624 36.1642C43.9938 35.7345 44.2371 35.1511 44.2389 34.5422V26.3699C44.2333 25.014 43.69 23.7156 42.7282 22.7597C41.7665 21.8038 40.4648 21.2684 39.1089 21.2711" fill="url(#paint5_linear_4_259)"/>
</g>
<defs>
<linearGradient id="paint0_linear_4_259" x1="19.3395" y1="7.69127" x2="30.7631" y2="8.16054" gradientUnits="userSpaceOnUse">
<stop stop-color="#322E80"/>
<stop offset="1" stop-color="#322E80" stop-opacity="0.7"/>
</linearGradient>
<linearGradient id="paint1_linear_4_259" x1="34.682" y1="11.7416" x2="41.9038" y2="12.0383" gradientUnits="userSpaceOnUse">
<stop stop-color="#322E80"/>
<stop offset="1" stop-color="#322E80" stop-opacity="0.7"/>
</linearGradient>
<linearGradient id="paint2_linear_4_259" x1="8.08758" y1="11.7416" x2="15.3094" y2="12.0383" gradientUnits="userSpaceOnUse">
<stop stop-color="#322E80"/>
<stop offset="1" stop-color="#322E80" stop-opacity="0.7"/>
</linearGradient>
<linearGradient id="paint3_linear_4_259" x1="6.3401" y1="23.7946" x2="15.1587" y2="24.0303" gradientUnits="userSpaceOnUse">
<stop stop-color="#322E80"/>
<stop offset="1" stop-color="#322E80" stop-opacity="0.7"/>
</linearGradient>
<linearGradient id="paint4_linear_4_259" x1="16.2211" y1="24.1567" x2="33.9986" y2="24.9828" gradientUnits="userSpaceOnUse">
<stop stop-color="#322E80"/>
<stop offset="1" stop-color="#322E80" stop-opacity="0.7"/>
</linearGradient>
<linearGradient id="paint5_linear_4_259" x1="34.8845" y1="23.796" x2="43.7031" y2="24.0317" gradientUnits="userSpaceOnUse">
<stop stop-color="#322E80"/>
<stop offset="1" stop-color="#322E80" stop-opacity="0.7"/>
</linearGradient>
</defs>
</svg>
