<svg width="50" height="50" viewBox="0 0 50 50" fill="none" xmlns="http://www.w3.org/2000/svg">
<g id="mdi:leads">
<path id="Vector" d="M19.1667 5C23.75 5 27.5 8.75 27.5 13.3333C27.5 17.9167 23.75 21.6667 19.1667 21.6667C14.5833 21.6667 10.8333 17.9167 10.8333 13.3333C10.8333 8.75 14.5833 5 19.1667 5ZM33.75 40.4167L37.5 44.1042C38.5417 45.1458 40 44.3125 40 43.0833V34.1667L45.8333 27.0833C46.0655 26.7738 46.2068 26.4058 46.2416 26.0204C46.2763 25.6351 46.2031 25.2477 46.0301 24.9016C45.857 24.5556 45.5911 24.2645 45.2619 24.0611C44.9328 23.8577 44.5536 23.75 44.1667 23.75H29.5833C27.9167 23.75 26.875 25.8333 27.9167 27.0833L33.75 34.1667V40.4167ZM29.5833 35.625L24.7917 29.7917C23.9583 28.75 23.5417 27.5 23.5417 26.25C22.0833 25.8333 20.625 25.8333 19.1667 25.8333C10 25.8333 2.5 29.5833 2.5 34.1667V38.3333H29.5833V35.625Z" fill="url(#paint0_linear_4_300)"/>
</g>
<defs>
<linearGradient id="paint0_linear_4_300" x1="5.88542" y1="11.4312" x2="43.887" y2="13.1569" gradientUnits="userSpaceOnUse">
<stop stop-color="#322E80"/>
<stop offset="1" stop-color="#322E80" stop-opacity="0.7"/>
</linearGradient>
</defs>
</svg>
