<svg width="45" height="50" viewBox="0 0 45 50" fill="none" xmlns="http://www.w3.org/2000/svg">
<mask id="mask0_4_277" style="mask-type:luminance" maskUnits="userSpaceOnUse" x="6" y="6" width="34" height="39">
<path d="M39.345 6.25H6.25V44.2525H39.345V6.25Z" fill="white"/>
</mask>
<g mask="url(#mask0_4_277)">
<path d="M13.7 6.25C13.3248 6.25074 12.9563 6.34995 12.6315 6.53772C12.3066 6.72549 12.0367 6.99523 11.8488 7.32L7.04753 15.65H21.7213V6.25H13.7ZM6.24878 17.875V41.6338C6.24878 42.3299 6.52534 42.9976 7.01762 43.4899C7.50991 43.9822 8.17759 44.2588 8.87378 44.2588H36.725C37.4212 44.2588 38.0889 43.9822 38.5812 43.4899C39.0735 42.9976 39.35 42.3299 39.35 41.6338V17.875H6.24878ZM27.8525 27.865L22.0925 33.625C21.9892 33.7286 21.8664 33.8107 21.7313 33.8668C21.5962 33.9228 21.4513 33.9517 21.305 33.9517C21.1587 33.9517 21.0139 33.9228 20.8787 33.8668C20.7436 33.8107 20.6209 33.7286 20.5175 33.625L17.8175 30.925C17.7124 30.822 17.6287 30.6991 17.5714 30.5635C17.514 30.428 17.4841 30.2824 17.4833 30.1352C17.4826 29.988 17.511 29.8421 17.567 29.7059C17.623 29.5698 17.7054 29.4461 17.8095 29.342C17.9136 29.2379 18.0373 29.1555 18.1735 29.0995C18.3096 29.0435 18.4555 29.0151 18.6027 29.0158C18.7499 29.0166 18.8955 29.0465 19.0311 29.1038C19.1666 29.1612 19.2895 29.2449 19.3925 29.35L21.305 31.2625L26.2788 26.2887C26.3818 26.1836 26.5047 26.0999 26.6402 26.0426C26.7758 25.9852 26.9214 25.9553 27.0686 25.9546C27.2158 25.9538 27.3617 25.9823 27.4978 26.0382C27.634 26.0942 27.7577 26.1767 27.8618 26.2808C27.9659 26.3848 28.0483 26.5085 28.1043 26.6447C28.1603 26.7808 28.1887 26.9267 28.188 27.0739C28.1872 27.2211 28.1573 27.3667 28.0999 27.5023C28.0426 27.6379 27.9589 27.7607 27.8538 27.8638M33.7488 7.3175C33.5603 6.99283 33.2899 6.72335 32.9646 6.53601C32.6392 6.34867 32.2704 6.25005 31.895 6.25H23.9488V15.65H38.565L33.7488 7.3175Z" fill="url(#paint0_linear_4_277)"/>
</g>
<defs>
<linearGradient id="paint0_linear_4_277" x1="8.81019" y1="12.4264" x2="37.5847" y2="13.4558" gradientUnits="userSpaceOnUse">
<stop stop-color="#322E80"/>
<stop offset="1" stop-color="#322E80" stop-opacity="0.7"/>
</linearGradient>
</defs>
</svg>
