<svg width="50" height="36" viewBox="0 0 50 36" fill="none" xmlns="http://www.w3.org/2000/svg">
<g id="Frame">
<g id="Icon ionic-ios-card">
<path id="Path 2633" d="M45 6.79974C44.9979 6.05784 44.6962 5.34693 44.1608 4.82233C43.6255 4.29773 42.9 4.00209 42.1429 4H7.85714C7.10004 4.00209 6.37455 4.29773 5.83919 4.82233C5.30383 5.34693 5.00213 6.05784 5 6.79974V11H45V6.79974Z" fill="url(#paint0_linear_4_311)"/>
<path id="Path 2634" d="M5 29.1667C5.00213 29.9175 5.30383 30.6369 5.83919 31.1678C6.37455 31.6987 7.10004 31.9979 7.85714 32H42.1429C42.9 31.9979 43.6255 31.6987 44.1608 31.1678C44.6962 30.6369 44.9979 29.9175 45 29.1667V15H5V29.1667ZM17.679 24.9173H32.321C32.6524 24.918 32.9701 25.0489 33.2044 25.2813C33.4388 25.5137 33.5707 25.8287 33.5714 26.1573C33.5707 26.486 33.4388 26.801 33.2044 27.0334C32.9701 27.2658 32.6524 27.3966 32.321 27.3973H17.679C17.3476 27.3966 17.0299 27.2658 16.7956 27.0334C16.5612 26.801 16.4293 26.486 16.4286 26.1573C16.4293 25.8287 16.5612 25.5137 16.7956 25.2813C17.0299 25.0489 17.3476 24.918 17.679 24.9173ZM11.2508 24.9173H12.3264C12.6578 24.918 12.9754 25.0489 13.2098 25.2813C13.4441 25.5137 13.5761 25.8287 13.5768 26.1573C13.5761 26.486 13.4441 26.801 13.2098 27.0334C12.9754 27.2658 12.6578 27.3966 12.3264 27.3973H11.2521C10.9207 27.3966 10.6031 27.2658 10.3687 27.0334C10.1344 26.801 10.0024 26.486 10.0017 26.1573C10.0024 25.8287 10.1344 25.5137 10.3687 25.2813C10.6031 25.0489 10.9193 24.918 11.2508 24.9173Z" fill="url(#paint1_linear_4_311)"/>
</g>
</g>
<defs>
<linearGradient id="paint0_linear_4_311" x1="8.09524" y1="5.1375" x2="41.0929" y2="12.8834" gradientUnits="userSpaceOnUse">
<stop stop-color="#322E80"/>
<stop offset="1" stop-color="#322E80" stop-opacity="0.7"/>
</linearGradient>
<linearGradient id="paint1_linear_4_311" x1="8.09524" y1="17.7625" x2="42.5889" y2="21.0966" gradientUnits="userSpaceOnUse">
<stop stop-color="#322E80"/>
<stop offset="1" stop-color="#322E80" stop-opacity="0.7"/>
</linearGradient>
</defs>
</svg>
