<svg width="50" height="50" viewBox="0 0 50 50" fill="none" xmlns="http://www.w3.org/2000/svg">
<path fill-rule="evenodd" clip-rule="evenodd" d="M17.3342 9.24419L7.01423 14.4042L25.0149 24.1546L35.3349 18.9946L17.3342 9.24419ZM5.56296 15.324C5.52213 15.4172 5.5 15.5193 5.5 15.6248V34.3748C5.5 34.6589 5.6605 34.9186 5.91459 35.0456L24.2498 44.2133V25.446L5.56296 15.324ZM25.7498 44.2134L44.0854 35.0456C44.3395 34.9186 44.5 34.6589 44.5 34.3748V16.0891L37.2081 19.735V26.0417C37.2081 26.4559 36.8723 26.7917 36.4581 26.7917C36.0439 26.7917 35.7081 26.4559 35.7081 26.0417V20.485L25.7498 25.4642V44.2134ZM43.7507 14.7867L25.3354 5.579C25.1243 5.47342 24.8757 5.47342 24.6646 5.579L18.9719 8.42535L36.8153 18.0905C36.865 18.1175 36.9109 18.1495 36.9523 18.1859L43.7507 14.7867Z" fill="url(#paint0_linear_4_252)"/>
<defs>
<linearGradient id="paint0_linear_4_252" x1="8.51786" y1="11.7908" x2="42.4054" y2="13.1932" gradientUnits="userSpaceOnUse">
<stop stop-color="#322E80"/>
<stop offset="1" stop-color="#322E80" stop-opacity="0.7"/>
</linearGradient>
</defs>
</svg>
