<svg width="47" height="50" viewBox="0 0 47 50" fill="none" xmlns="http://www.w3.org/2000/svg">
<g id="Frame">
<g id="Group 1979">
<mask id="mask0_4_286" style="mask-type:luminance" maskUnits="userSpaceOnUse" x="5" y="4" width="37" height="42">
<g id="clip-path">
<path id="Rectangle 1536" d="M41.9231 4.56042H5V45.4395H41.9231V4.56042Z" fill="white"/>
</g>
</mask>
<g mask="url(#mask0_4_286)">
<g id="Group 1978">
<path id="Path 2569" d="M34.4514 15.5207C34.4672 14.1446 34.1982 12.7792 33.66 11.5034C33.1218 10.2277 32.3251 9.06699 31.3159 8.08852C30.3068 7.11006 29.1053 6.33327 27.7809 5.80312C26.4566 5.27298 25.0357 5 23.6006 5C22.1655 5 20.7447 5.27298 19.4204 5.80312C18.096 6.33327 16.8945 7.11006 15.8853 8.08852C14.8762 9.06699 14.0794 10.2277 13.5412 11.5034C13.003 12.7792 12.7341 14.1446 12.7499 15.5207C12.8078 17.5449 13.3071 19.535 14.2155 21.3629C15.124 23.1909 16.4215 24.8161 18.0246 26.1341L13.5938 28.2611C11.4231 28.3507 9.37193 29.2396 7.86744 30.7429C6.36294 32.2461 5.52101 34.2479 5.51691 36.3315V43.346C5.51532 43.4982 5.54541 43.6492 5.60542 43.7901C5.66543 43.931 5.75415 44.059 5.86639 44.1667C5.97862 44.2743 6.11212 44.3594 6.25907 44.4169C6.40602 44.4745 6.56346 44.5033 6.72218 44.5018H22.396V35.894L23.6013 35.3161L24.8066 35.894V44.5031H40.4804C40.6391 44.5046 40.7966 44.4757 40.9435 44.4182C41.0905 44.3606 41.224 44.2756 41.3362 44.1679C41.4485 44.0603 41.5372 43.9323 41.5972 43.7914C41.6572 43.6505 41.6873 43.4995 41.6857 43.3473V36.3315C41.6815 34.2473 40.8391 32.245 39.3337 30.7416C37.8284 29.2382 35.7763 28.3497 33.6048 28.2611L29.1675 26.1341C30.7705 24.8161 32.068 23.1909 32.9765 21.3629C33.885 19.535 34.3842 17.5449 34.4422 15.5207M19.189 34.852L15.7169 29.8342L18.3688 28.5596L21.8409 33.5773L19.189 34.852ZM35.6567 37.4873C35.9765 37.4873 36.2833 37.6092 36.5094 37.826C36.7356 38.0429 36.8626 38.3371 36.8626 38.6438C36.8626 38.9505 36.7356 39.2446 36.5094 39.4615C36.2833 39.6784 35.9765 39.8002 35.6567 39.8002H30.8356C30.5158 39.8002 30.209 39.6784 29.9829 39.4615C29.7567 39.2446 29.6297 38.9505 29.6297 38.6438C29.6297 38.3371 29.7567 38.0429 29.9829 37.826C30.209 37.6092 30.5158 37.4873 30.8356 37.4873H35.6567ZM31.4857 29.8342L28.0136 34.852L25.3617 33.5798L28.8338 28.5596L31.4857 29.8342ZM27.3147 24.6078C27.0423 24.7363 26.8036 24.922 26.6164 25.1511C26.4292 25.3803 26.2983 25.647 26.2334 25.9313C26.1685 26.2157 26.1714 26.5104 26.2417 26.7936C26.312 27.0768 26.448 27.3411 26.6395 27.5669L23.6066 31.9372L20.4417 27.405C21.0615 26.6906 21.0694 25.493 19.7534 24.5092C17.2899 22.5215 15.6803 19.7303 15.2343 16.6727H21.1894C22.1256 16.6744 23.0492 16.4661 23.8865 16.0645C24.7239 15.6629 25.4517 15.0792 26.0118 14.3599C26.5718 15.0797 27.2998 15.6638 28.1374 16.0655C28.975 16.4671 29.8991 16.6751 30.8356 16.6727H31.9683C31.5165 19.7871 29.8543 22.6227 27.3147 24.6116" fill="url(#paint0_linear_4_286)"/>
</g>
</g>
</g>
</g>
<defs>
<linearGradient id="paint0_linear_4_286" x1="8.31563" y1="11.4193" x2="39.7526" y2="12.6017" gradientUnits="userSpaceOnUse">
<stop stop-color="#322E80"/>
<stop offset="1" stop-color="#322E80" stop-opacity="0.7"/>
</linearGradient>
</defs>
</svg>