<svg width="24" height="25" viewBox="0 0 24 25" fill="none" xmlns="http://www.w3.org/2000/svg">
<path d="M6.97183 9.21893L10.6635 3.19829C10.7626 3.03311 10.8865 2.91336 11.0351 2.83903C11.1838 2.7647 11.3407 2.72754 11.5059 2.72754C11.6711 2.72754 11.828 2.7647 11.9767 2.83903C12.1253 2.91336 12.2492 3.03311 12.3483 3.19829L16.04 9.21893C16.1391 9.38411 16.1886 9.55754 16.1886 9.73924C16.1886 9.92093 16.1473 10.0861 16.0647 10.2348C15.9822 10.3834 15.8665 10.5032 15.7179 10.594C15.5692 10.6849 15.3958 10.7303 15.1976 10.7303H7.81423C7.61602 10.7303 7.44258 10.6849 7.29393 10.594C7.14527 10.5032 7.02964 10.3834 6.94706 10.2348C6.86447 10.0861 6.82318 9.92093 6.82318 9.73924C6.82318 9.55754 6.87273 9.38411 6.97183 9.21893ZM16.9567 21.6319C15.7179 21.6319 14.6649 21.1983 13.7977 20.3311C12.9305 19.4639 12.497 18.4109 12.497 17.1721C12.497 15.9333 12.9305 14.8803 13.7977 14.0132C14.6649 13.146 15.7179 12.7124 16.9567 12.7124C18.1955 12.7124 19.2485 13.146 20.1157 14.0132C20.9828 14.8803 21.4164 15.9333 21.4164 17.1721C21.4164 18.4109 20.9828 19.4639 20.1157 20.3311C19.2485 21.1983 18.1955 21.6319 16.9567 21.6319ZM2.58643 20.1453V14.199C2.58643 13.9182 2.6814 13.6828 2.87135 13.4928C3.06131 13.3029 3.29668 13.2079 3.57748 13.2079H9.52379C9.80459 13.2079 10.04 13.3029 10.2299 13.4928C10.4199 13.6828 10.5148 13.9182 10.5148 14.199V20.1453C10.5148 20.4261 10.4199 20.6615 10.2299 20.8514C10.04 21.0414 9.80459 21.1363 9.52379 21.1363H3.57748C3.29668 21.1363 3.06131 21.0414 2.87135 20.8514C2.6814 20.6615 2.58643 20.4261 2.58643 20.1453Z" fill="#817EB1"/>
</svg>
