<svg width="24" height="24" viewBox="0 0 24 24" fill="none" xmlns="http://www.w3.org/2000/svg">
<path fill-rule="evenodd" clip-rule="evenodd" d="M21.9377 5.125C21.9377 6.49467 21.0828 7.65854 19.8929 8.08062V17.3471C19.8929 19.4336 18.2015 21.125 16.115 21.125C14.0813 21.125 12.4126 19.5151 12.3395 17.4828L11.947 6.55919C11.9007 5.27066 10.8427 4.25 9.55331 4.25C8.23048 4.25 7.15811 5.32237 7.15811 6.64521V15.9726C8.27513 16.4333 9.06417 17.5592 9.06417 18.875C9.06417 20.6009 7.70666 22 6.03209 22C4.35751 22 3 20.6009 3 18.875C3 17.4623 3.90959 16.2685 5.15811 15.8818V6.64521C5.15811 4.2178 7.12591 2.25 9.55331 2.25C11.9193 2.25 13.8607 4.12291 13.9457 6.48736L14.3382 17.411C14.3726 18.3674 15.1579 19.125 16.115 19.125C17.0969 19.125 17.8929 18.329 17.8929 17.3471V8.07142C16.7163 7.64181 15.8736 6.48484 15.8736 5.125C15.8736 3.39911 17.2311 2 18.9057 2C20.5802 2 21.9377 3.39911 21.9377 5.125Z" fill="#817EB1"/>
</svg>
