<svg width="24" height="24" viewBox="0 0 24 24" fill="none" xmlns="http://www.w3.org/2000/svg">
<rect width="24" height="23.9472" rx="4" fill="#817EB1"/>
<path d="M10.0338 4.17419C11.7641 4.17419 13.1798 5.65223 13.1798 7.45872C13.1798 9.26522 11.7641 10.7433 10.0338 10.7433C8.30351 10.7433 6.88782 9.26522 6.88782 7.45872C6.88782 5.65223 8.30351 4.17419 10.0338 4.17419ZM15.5393 18.1334L16.955 19.5869C17.3482 19.9974 17.8988 19.669 17.8988 19.1845V15.67L20.101 12.8782C20.1886 12.7562 20.242 12.6111 20.2551 12.4593C20.2682 12.3074 20.2406 12.1547 20.1753 12.0183C20.1099 11.8819 20.0095 11.7672 19.8853 11.687C19.761 11.6069 19.6179 11.5644 19.4718 11.5644H13.9663C13.3371 11.5644 12.9439 12.3855 13.3371 12.8782L15.5393 15.67V18.1334ZM13.9663 16.2448L12.1574 13.9457C11.8428 13.5351 11.6855 13.0424 11.6855 12.5497C11.1349 12.3855 10.5844 12.3855 10.0338 12.3855C6.57322 12.3855 3.74182 13.8636 3.74182 15.67V17.3123H13.9663V16.2448Z" fill="white"/>
</svg>
