<svg width="16" height="18" viewBox="0 0 16 18" fill="none" xmlns="http://www.w3.org/2000/svg">
<path d="M5.44301 1.15949C5.44841 1.07749 5.46993 0.997372 5.50633 0.923704C5.54273 0.850036 5.59329 0.784268 5.65514 0.730165C5.71698 0.676061 5.78889 0.634683 5.86674 0.608399C5.94459 0.582115 6.02686 0.571441 6.10885 0.576987C11.1022 0.90532 15.0938 4.89782 15.4213 9.89282C15.4267 9.97473 15.4159 10.0569 15.3895 10.1346C15.3631 10.2124 15.3217 10.2841 15.2675 10.3458C15.2134 10.4075 15.1476 10.458 15.074 10.4943C15.0004 10.5306 14.9203 10.552 14.8384 10.5574C14.7565 10.5628 14.6744 10.5519 14.5966 10.5255C14.5189 10.4992 14.4471 10.4577 14.3854 10.4036C14.2608 10.2943 14.1847 10.1399 14.1738 9.97449C13.888 5.60615 10.3947 2.11199 6.02635 1.82449C5.94436 1.81919 5.86422 1.79778 5.79051 1.76148C5.7168 1.72518 5.65098 1.6747 5.5968 1.61294C5.54262 1.55117 5.50115 1.47933 5.47476 1.40152C5.44837 1.32371 5.43758 1.24147 5.44301 1.15949ZM4.26718 16.7103L4.59051 17.032C4.7076 17.1483 4.86592 17.2135 5.03093 17.2135C5.19594 17.2135 5.35426 17.1483 5.47135 17.032L6.59301 15.9178C7.19968 15.3153 7.89968 14.6187 8.26968 14.2487C8.91015 13.6081 9.34629 12.792 9.52297 11.9036C9.69964 11.0152 9.60891 10.0943 9.26224 9.25748C8.91558 8.42063 8.32855 7.70537 7.57538 7.20214C6.82222 6.6989 5.93674 6.43031 5.03093 6.43031C4.12512 6.43031 3.23964 6.6989 2.48648 7.20214C1.73331 7.70537 1.14628 8.42063 0.799616 9.25748C0.45295 10.0943 0.362217 11.0152 0.538892 11.9036C0.715566 12.792 1.15171 13.6081 1.79218 14.2487C2.6157 15.0707 3.4407 15.8913 4.26718 16.7103ZM5.02635 12.0137C4.75008 12.0137 4.48513 11.9039 4.28978 11.7086C4.09443 11.5132 3.98468 11.2483 3.98468 10.972C3.98468 10.6957 4.09443 10.4308 4.28978 10.2354C4.48513 10.0401 4.75008 9.93032 5.02635 9.93032C5.30261 9.93032 5.56757 10.0401 5.76292 10.2354C5.95827 10.4308 6.06801 10.6957 6.06801 10.972C6.06801 11.2483 5.95827 11.5132 5.76292 11.7086C5.56757 11.9039 5.30261 12.0137 5.02635 12.0137ZM6.12468 3.47449C6.04285 3.46699 5.96034 3.47571 5.88188 3.50014C5.80342 3.52456 5.73055 3.56422 5.66743 3.61685C5.60431 3.66947 5.5522 3.73403 5.51406 3.80682C5.47592 3.87961 5.45251 3.9592 5.44517 4.04105C5.43783 4.1229 5.4467 4.20539 5.47128 4.2838C5.49585 4.36221 5.53565 4.43501 5.5884 4.49803C5.64114 4.56104 5.70579 4.61304 5.77865 4.65104C5.85151 4.68904 5.93115 4.7123 6.01301 4.71949C7.36738 4.84379 8.6355 5.43828 9.59736 6.39984C10.5592 7.36139 11.1541 8.62933 11.2788 9.98365C11.2863 10.0654 11.3098 10.1449 11.3479 10.2176C11.3861 10.2902 11.4382 10.3547 11.5012 10.4072C11.5643 10.4598 11.6371 10.4994 11.7155 10.5238C11.7939 10.5482 11.8763 10.5569 11.958 10.5495C12.0398 10.542 12.1192 10.5186 12.1919 10.4804C12.2646 10.4423 12.329 10.3902 12.3816 10.3271C12.4341 10.264 12.4737 10.1912 12.4981 10.1129C12.5226 10.0345 12.5313 9.95207 12.5238 9.87032C12.3726 8.22452 11.6497 6.68368 10.4807 5.51532C9.31178 4.34697 7.77055 3.6249 6.12468 3.47449Z" fill="#817EB1"/>
</svg>
