<svg width="14" height="18" viewBox="0 0 14 18" fill="none" xmlns="http://www.w3.org/2000/svg">
<g clip-path="url(#clip0_2738_1141)">
<path d="M6.93677 0.394538C6.09926 0.393353 5.26975 0.557438 4.49577 0.877392C3.72178 1.19735 3.01854 1.66688 2.42633 2.25909C1.83412 2.8513 1.36458 3.55454 1.04463 4.32853C0.724675 5.10252 0.560589 5.93203 0.561774 6.76954C0.561774 11.0195 6.93677 17.3945 6.93677 17.3945C6.93677 17.3945 13.3118 11.0195 13.3118 6.76954C13.313 5.93203 13.1489 5.10252 12.8289 4.32853C12.509 3.55454 12.0394 2.8513 11.4472 2.25909C10.855 1.66688 10.1518 1.19735 9.37778 0.877392C8.6038 0.557438 7.77428 0.393353 6.93677 0.394538ZM6.93677 2.51954C7.77734 2.51954 8.59904 2.7688 9.29795 3.23579C9.99686 3.70279 10.5416 4.36655 10.8633 5.14313C11.1849 5.91972 11.2691 6.77425 11.1051 7.59867C10.9411 8.42309 10.5364 9.18037 9.94198 9.77474C9.34761 10.3691 8.59033 10.7739 7.76591 10.9379C6.94149 11.1019 6.08696 11.0177 5.31037 10.696C4.53378 10.3744 3.87002 9.82962 3.40303 9.13071C2.93603 8.4318 2.68677 7.61011 2.68677 6.76954C2.68664 6.21138 2.79648 5.65867 3.01002 5.14298C3.22355 4.62728 3.5366 4.15872 3.93128 3.76404C4.32595 3.36937 4.79452 3.05632 5.31021 2.84278C5.82591 2.62925 6.37862 2.51941 6.93677 2.51954Z" fill="#817EB1"/>
<path d="M7.06177 9.39453C8.44248 9.39453 9.56177 8.27524 9.56177 6.89453C9.56177 5.51382 8.44248 4.39453 7.06177 4.39453C5.68106 4.39453 4.56177 5.51382 4.56177 6.89453C4.56177 8.27524 5.68106 9.39453 7.06177 9.39453Z" fill="#817EB1"/>
</g>
<defs>
<clipPath id="clip0_2738_1141">
<rect width="12.75" height="17" fill="white" transform="translate(0.561768 0.394531)"/>
</clipPath>
</defs>
</svg>
