<svg width="368" height="368" viewBox="0 0 368 368" fill="none" xmlns="http://www.w3.org/2000/svg">
<g opacity="0.3">
<g opacity="0.55">
<path d="M274.785 153.059V164.41M274.785 164.41H252.081M274.785 164.41H297.488M263.433 164.41H286.136M263.433 164.41V175.762M263.433 164.41H244.342M286.136 164.41V175.762M286.136 164.41H294.006M286.136 175.762H263.433M286.136 175.762H302.52M263.433 175.762H252.081H274.785M281.236 187.114H274.785M274.785 187.114V175.762M274.785 187.114H256.375M274.785 175.762H297.488" stroke="#474747" stroke-width="1.56" stroke-miterlimit="10" stroke-linecap="round" stroke-linejoin="round"/>
</g>
<g opacity="0.55">
<path d="M244.914 123.98L225.26 104.326C222.388 101.454 222.388 96.7988 225.26 93.9274L244.914 74.2727C247.786 71.4013 252.441 71.4013 255.313 74.2727L274.967 93.9274C277.839 96.7988 277.839 101.454 274.967 104.326L255.313 123.98C252.441 126.852 247.786 126.852 244.914 123.98Z" stroke="#333333" stroke-width="2.6" stroke-miterlimit="10" stroke-linecap="round" stroke-linejoin="round"/>
<path d="M250.114 79.3841V75.8125M250.114 122.439V118.867M269.855 99.1258H273.427M226.8 99.1258H230.372" stroke="#333333" stroke-width="1.56" stroke-miterlimit="10" stroke-linecap="round" stroke-linejoin="round"/>
<path d="M250.114 99.1273L244.385 93.7988" stroke="#333333" stroke-width="2.08" stroke-miterlimit="10" stroke-linecap="round" stroke-linejoin="round"/>
<path d="M258.674 87.8125L250.115 99.7829" stroke="#333333" stroke-width="1.3" stroke-miterlimit="10" stroke-linecap="round" stroke-linejoin="round"/>
<path d="M250.559 101.931C252.107 101.931 253.363 100.675 253.363 99.1265C253.363 97.5778 252.107 96.3223 250.559 96.3223C249.01 96.3223 247.754 97.5778 247.754 99.1265C247.754 100.675 249.01 101.931 250.559 101.931Z" fill="#333333"/>
</g>
<g opacity="0.55">
<path d="M88.5703 97.41H126.038V134.697H88.5703V97.41ZM132.97 70.3496H161.248V107.637H132.97V70.3496Z" stroke="#333333" stroke-width="2.6" stroke-miterlimit="10" stroke-linecap="round" stroke-linejoin="round"/>
<path d="M95.908 117.033L105.945 106.995M104.935 116.054L113.994 106.995M97.8975 123.092L101.59 119.399M141.355 87.7219L148.205 80.8711M151.607 86.0579L154.249 83.4155M140.254 97.4107L148.671 88.9939" stroke="#333333" stroke-width="1.04" stroke-miterlimit="10" stroke-linecap="round" stroke-linejoin="round"/>
</g>
<path d="M278.81 276.066H285.906M292.145 276.066H293.919M88.9491 276.066H272.082M72.2466 276.066H80.8751" stroke="#43293A" stroke-width="2.6" stroke-miterlimit="10" stroke-linecap="round" stroke-linejoin="round"/>
<path d="M139.656 141.864C139.656 138.974 141.999 136.631 144.89 136.631C147.78 136.631 150.123 138.974 150.123 141.864H139.656Z" fill="#FFE5CC"/>
<path d="M139.656 141.864C139.656 138.974 141.999 136.631 144.89 136.631C147.78 136.631 150.123 138.974 150.123 141.864H139.656Z" stroke="#43293A" stroke-width="2.08" stroke-miterlimit="10" stroke-linecap="round" stroke-linejoin="round"/>
<path d="M217.876 141.864C217.876 138.974 220.219 136.631 223.109 136.631C225.999 136.631 228.343 138.974 228.343 141.864H217.876Z" fill="#FFE5CC"/>
<path d="M217.876 141.864C217.876 138.974 220.219 136.631 223.109 136.631C225.999 136.631 228.343 138.974 228.343 141.864H217.876Z" stroke="#43293A" stroke-width="2.08" stroke-miterlimit="10" stroke-linecap="round" stroke-linejoin="round"/>
<path d="M225.238 146.364C217.562 146.364 211.358 143.437 207.742 137.959L205.386 134.815C200.529 128.335 192.7 124.466 184.443 124.466H183.555C175.298 124.466 167.469 128.335 162.612 134.814L160.256 137.958C155.743 144.795 147.196 147.66 136.792 145.817L137.56 141.481C142.623 142.377 151.831 142.791 156.611 135.486L156.691 135.372L159.088 132.173C164.772 124.59 173.918 120.062 183.555 120.062H184.443C194.08 120.062 203.226 124.59 208.909 132.174L211.387 135.487C216.166 142.791 225.374 142.377 230.438 141.481L231.206 145.817C229.138 146.183 227.142 146.364 225.238 146.364Z" fill="#AD5349"/>
<path d="M225.238 146.364C217.562 146.364 211.358 143.437 207.742 137.959L205.386 134.815C200.529 128.335 192.7 124.466 184.443 124.466H183.555C175.298 124.466 167.469 128.335 162.612 134.814L160.256 137.958C155.743 144.795 147.196 147.66 136.792 145.817L137.56 141.481C142.623 142.377 151.831 142.791 156.611 135.486L156.691 135.372L159.088 132.173C164.772 124.59 173.918 120.062 183.555 120.062H184.443C194.08 120.062 203.226 124.59 208.909 132.174L211.387 135.487C216.166 142.791 225.374 142.377 230.438 141.481L231.206 145.817C229.138 146.183 227.142 146.364 225.238 146.364Z" stroke="#43293A" stroke-width="2.6" stroke-miterlimit="10" stroke-linecap="round" stroke-linejoin="round"/>
<path d="M111.334 204.805H104.398L96.5316 256.549C96.5316 256.549 102.082 253.95 103.933 253.95C109.866 253.95 111.334 256.549 111.334 256.549V204.805Z" fill="#FF8345"/>
<path d="M111.334 204.805H104.398L96.5316 256.549C96.5316 256.549 102.082 253.95 103.933 253.95C109.866 253.95 111.334 256.549 111.334 256.549V204.805Z" stroke="#43293A" stroke-width="2.6" stroke-miterlimit="10" stroke-linecap="round" stroke-linejoin="round"/>
<path d="M111.334 204.805H104.398L96.5316 256.549C96.5316 256.549 102.082 253.95 103.933 253.95C109.866 253.95 111.334 256.549 111.334 256.549V204.805Z" stroke="#43293A" stroke-width="2.6" stroke-miterlimit="10" stroke-linecap="round" stroke-linejoin="round"/>
<path d="M110.325 204.805H104.398L96.5316 256.549C96.5316 256.549 100.481 254.7 102.828 254.121L110.325 204.805Z" fill="#AD5349"/>
<path d="M110.325 204.805H104.398L96.5316 256.549C96.5316 256.549 100.481 254.7 102.828 254.121L110.325 204.805Z" stroke="#43293A" stroke-width="2.6" stroke-miterlimit="10" stroke-linecap="round" stroke-linejoin="round"/>
<path d="M256.667 204.805H263.602L271.469 256.549C271.469 256.549 265.918 253.95 264.067 253.95C258.135 253.95 256.667 256.549 256.667 256.549V204.805Z" fill="#FF8345"/>
<path d="M256.667 204.805H263.602L271.469 256.549C271.469 256.549 265.918 253.95 264.067 253.95C258.135 253.95 256.667 256.549 256.667 256.549V204.805Z" stroke="#43293A" stroke-width="2.6" stroke-miterlimit="10" stroke-linecap="round" stroke-linejoin="round"/>
<path d="M256.667 204.805H263.602L271.469 256.549C271.469 256.549 265.918 253.95 264.067 253.95C258.135 253.95 256.667 256.549 256.667 256.549V204.805Z" stroke="#43293A" stroke-width="2.6" stroke-miterlimit="10" stroke-linecap="round" stroke-linejoin="round"/>
<path d="M257.675 204.805H263.602L271.468 256.549C271.468 256.549 267.519 254.7 265.172 254.121L257.675 204.805Z" fill="#AD5349"/>
<path d="M257.675 204.805H263.602L271.468 256.549C271.468 256.549 267.519 254.7 265.172 254.121L257.675 204.805Z" stroke="#43293A" stroke-width="2.6" stroke-miterlimit="10" stroke-linecap="round" stroke-linejoin="round"/>
<path d="M248.532 275.865H119.348C114.484 275.865 110.54 271.921 110.54 267.057V175.307H257.34V267.057C257.34 271.921 253.397 275.865 248.532 275.865Z" fill="#AD5349"/>
<path opacity="0.48" d="M204.552 251.9H163.448C160.205 251.9 157.576 249.271 157.576 246.028V231.098H210.424V246.028C210.424 249.271 207.796 251.9 204.552 251.9Z" fill="#AD5349" stroke="#AD5349" stroke-width="2.6" stroke-miterlimit="10"/>
<path d="M188.379 249.576C188.379 251.994 186.419 253.954 184.001 253.954C181.583 253.954 179.623 251.994 179.623 249.576H176.33C176.33 253.812 179.765 257.247 184.001 257.247C188.237 257.247 191.672 253.812 191.672 249.576H188.379Z" fill="white"/>
<path d="M188.379 249.576C188.379 251.994 186.419 253.954 184.001 253.954C181.583 253.954 179.623 251.994 179.623 249.576H176.33C176.33 253.812 179.765 257.247 184.001 257.247C188.237 257.247 191.672 253.812 191.672 249.576H188.379Z" stroke="#43293A" stroke-width="1.04" stroke-miterlimit="10" stroke-linecap="round" stroke-linejoin="round"/>
<path opacity="0.48" d="M248.592 271.704H119.408C114.543 271.704 110.6 267.761 110.6 262.896V267.24C110.6 272.105 114.543 276.048 119.408 276.048H248.592C253.457 276.048 257.4 272.105 257.4 267.24V262.896C257.4 267.761 253.457 271.704 248.592 271.704Z" fill="#AD5349"/>
<path d="M257.4 216.992V176.957H110.6V216.992C112.63 217.954 114.77 218.663 116.973 219.105C136.103 222.951 157.026 224.743 182.818 224.743H185.182C210.973 224.743 231.895 222.951 251.027 219.105C253.229 218.663 255.37 217.954 257.4 216.992Z" fill="#933B34"/>
<path d="M204.552 249.332H163.448C160.205 249.332 157.576 246.703 157.576 243.46V228.529H210.424V243.46C210.424 246.703 207.796 249.332 204.552 249.332Z" fill="#FF8345"/>
<path opacity="0.45" d="M157.576 236.67C159.585 238.581 162.299 239.757 165.283 239.757H202.717C205.702 239.757 208.415 238.581 210.424 236.67V229.996H157.576V236.67Z" fill="#FF8345"/>
<path d="M166.262 245.294H163.448C162.234 245.294 161.246 244.307 161.246 243.092V231.832M206.754 239.392V243.093C206.754 244.307 205.767 245.295 204.552 245.295H170.054" stroke="#43293A" stroke-width="0.78" stroke-miterlimit="10" stroke-linecap="round" stroke-linejoin="round" stroke-dasharray="1.3 1.82"/>
<path d="M204.552 249.332H163.448C160.205 249.332 157.576 246.703 157.576 243.46V228.529H210.424V243.46C210.424 246.703 207.796 249.332 204.552 249.332Z" stroke="#43293A" stroke-width="2.6" stroke-miterlimit="10" stroke-linecap="round" stroke-linejoin="round"/>
<path d="M202.717 236.087H165.283C160.317 236.087 156.291 232.061 156.291 227.095V218.105H211.708V227.095C211.708 232.061 207.682 236.087 202.717 236.087Z" fill="#EDAB7A"/>
<path opacity="0.84" d="M156.291 224.01C164.582 224.503 173.372 224.745 182.818 224.745H185.182C194.627 224.745 203.417 224.503 211.708 224.01V218.107H156.291V224.01H156.291Z" fill="#EDAB7A"/>
<path d="M202.717 236.087H165.283C160.317 236.087 156.291 232.061 156.291 227.095V218.105H211.708V227.095C211.708 232.061 207.682 236.087 202.717 236.087Z" stroke="#43293A" stroke-width="2.6" stroke-miterlimit="10" stroke-linecap="round" stroke-linejoin="round"/>
<path d="M159.961 226.68V219.775H208.038V226.68C208.038 229.619 205.655 232.002 202.717 232.002H165.283C162.344 232.002 159.961 229.619 159.961 226.68Z" stroke="#43293A" stroke-width="0.78" stroke-miterlimit="10" stroke-linecap="round" stroke-linejoin="round" stroke-dasharray="1.3 1.82"/>
<path d="M248.592 276.048H119.408C114.543 276.048 110.6 272.105 110.6 267.24V175.49H257.4V267.24C257.4 272.105 253.457 276.048 248.592 276.048Z" stroke="#43293A" stroke-width="2.6" stroke-miterlimit="10" stroke-linecap="round" stroke-linejoin="round"/>
<path d="M119.409 270.175C117.79 270.175 116.473 268.858 116.473 267.239V181.361H251.529V267.239C251.529 268.858 250.212 270.175 248.593 270.175H119.409Z" stroke="#43293A" stroke-width="1.04" stroke-miterlimit="10" stroke-linecap="round" stroke-linejoin="round" stroke-dasharray="1.82 2.34"/>
<path d="M105.296 154.327L100.338 190.482C98.802 201.681 106 211.688 117.697 214.04C139.278 218.379 161.595 219.652 184.001 219.604C206.406 219.651 228.723 218.379 250.304 214.039C262.001 211.688 269.199 201.681 267.663 190.481L262.705 154.327C262.081 149.778 257.556 146.07 252.39 145.823C206.823 143.645 161.178 143.645 115.611 145.823C110.445 146.07 105.92 149.779 105.296 154.327Z" fill="#FF8345"/>
<path opacity="0.55" d="M267.663 190.481L262.705 154.327C262.081 149.778 257.556 146.07 252.39 145.823C206.823 143.645 161.178 143.645 115.611 145.823C110.445 146.07 105.92 149.779 105.296 154.327L100.338 190.481C98.802 201.681 106 211.688 117.697 214.039C139.278 218.379 161.595 219.651 184 219.604C206.406 219.651 228.723 218.378 250.304 214.039C262.001 211.688 269.199 201.681 267.663 190.481ZM250.289 214.145C231.441 218.096 210.756 219.936 185.194 219.936H182.807C157.243 219.936 136.559 218.096 117.712 214.145C107.769 212.061 101.511 203.262 102.832 193.224L107.838 155.16C108.246 152.058 111.507 149.388 115.108 149.209C137.991 148.07 161.17 147.492 184.001 147.492C206.831 147.492 230.01 148.07 252.894 149.209C256.494 149.388 259.755 152.058 260.163 155.16L265.169 193.224C266.489 203.263 260.231 212.061 250.289 214.145Z" fill="#FF8345"/>
<path opacity="0.45" d="M250.303 210.531C228.722 214.87 206.405 216.143 183.999 216.096C161.594 216.143 139.277 214.87 117.696 210.531C107.674 208.516 100.96 200.88 100.208 191.69C99.3307 202.393 106.422 211.772 117.696 214.039C139.277 218.378 161.594 219.651 183.999 219.603C206.405 219.65 228.722 218.378 250.303 214.039C261.577 211.772 268.668 202.393 267.791 191.689C267.039 200.879 260.325 208.516 250.303 210.531Z" fill="#FF8345"/>
<path d="M105.296 154.327L100.338 190.482C98.802 201.681 106 211.688 117.697 214.04C139.278 218.379 161.595 219.652 184.001 219.604C206.406 219.651 228.723 218.378 250.304 214.039C262.001 211.688 269.199 201.681 267.663 190.481L262.705 154.327C262.081 149.778 257.556 146.07 252.39 145.823C206.823 143.645 161.178 143.645 115.611 145.823C110.445 146.07 105.92 149.779 105.296 154.327Z" stroke="#43293A" stroke-width="2.6" stroke-miterlimit="10" stroke-linecap="round" stroke-linejoin="round"/>
<path d="M182.818 213.733C157.674 213.733 137.349 212.001 118.853 208.282C110.241 206.551 105.019 199.559 106.155 191.279L111.113 155.124C111.323 153.597 113.336 151.81 115.89 151.688C138.577 150.607 161.287 150.064 184 150.061C206.571 150.061 229.486 150.608 252.11 151.688C254.664 151.81 256.677 153.597 256.887 155.124L261.845 191.279C262.981 199.559 257.759 206.551 249.147 208.282C230.65 212.001 210.325 213.733 185.182 213.733H182.818Z" stroke="#43293A" stroke-width="1.04" stroke-linecap="round" stroke-linejoin="round" stroke-dasharray="1.82 2.34"/>
<path d="M141.995 281.322C138.347 281.322 135.389 278.365 135.389 274.716V181.898H148.601V274.716C148.601 278.365 145.644 281.322 141.995 281.322Z" fill="#EDAB7A"/>
<path d="M135.389 181.898H148.601V186.658H135.389V181.898Z" fill="#43293A"/>
<path opacity="0.78" d="M135.389 207.555H148.601V214.161H135.389V207.555Z" fill="#EDAB7A"/>
<path d="M141.995 281.322C138.347 281.322 135.389 278.365 135.389 274.716V181.898H148.601V274.716C148.601 278.365 145.644 281.322 141.995 281.322Z" stroke="#43293A" stroke-width="2.6" stroke-miterlimit="10" stroke-linecap="round" stroke-linejoin="round"/>
<path d="M130.986 203.15V223.335H135.389V207.554H148.601V223.335H153.006V203.15H130.986Z" fill="white"/>
<path d="M149.415 203.15H134.577C132.594 203.15 130.986 204.758 130.986 206.742V219.744C130.986 220.697 131.364 221.61 132.038 222.284C132.711 222.957 133.625 223.336 134.577 223.336H135.39V207.555H148.602V223.336H149.414C151.398 223.336 153.006 221.728 153.006 219.744V206.742C153.006 204.759 151.398 203.15 149.415 203.15Z" stroke="#43293A" stroke-width="2.08" stroke-miterlimit="10" stroke-linecap="round" stroke-linejoin="round"/>
<path d="M141.995 198.014C143.11 198.014 144.014 197.11 144.014 195.995C144.014 194.88 143.11 193.977 141.995 193.977C140.88 193.977 139.977 194.88 139.977 195.995C139.977 197.11 140.88 198.014 141.995 198.014Z" fill="white"/>
<path d="M141.995 198.014C143.11 198.014 144.014 197.11 144.014 195.995C144.014 194.88 143.11 193.977 141.995 193.977C140.88 193.977 139.977 194.88 139.977 195.995C139.977 197.11 140.88 198.014 141.995 198.014Z" stroke="#43293A" stroke-width="1.04" stroke-miterlimit="10" stroke-linecap="round" stroke-linejoin="round"/>
<path d="M141.995 217.773C143.11 217.773 144.014 216.87 144.014 215.755C144.014 214.64 143.11 213.736 141.995 213.736C140.88 213.736 139.977 214.64 139.977 215.755C139.977 216.87 140.88 217.773 141.995 217.773Z" fill="white"/>
<path d="M141.995 218.31C143.11 218.31 144.014 217.407 144.014 216.292C144.014 215.177 143.11 214.273 141.995 214.273C140.88 214.273 139.977 215.177 139.977 216.292C139.977 217.407 140.88 218.31 141.995 218.31Z" stroke="#43293A" stroke-width="1.04" stroke-miterlimit="10" stroke-linecap="round" stroke-linejoin="round"/>
<path d="M141.995 244.437C143.11 244.437 144.014 243.534 144.014 242.419C144.014 241.304 143.11 240.4 141.995 240.4C140.88 240.4 139.977 241.304 139.977 242.419C139.977 243.534 140.88 244.437 141.995 244.437Z" fill="#AD5349"/>
<path d="M141.995 244.437C143.11 244.437 144.014 243.534 144.014 242.419C144.014 241.304 143.11 240.4 141.995 240.4C140.88 240.4 139.977 241.304 139.977 242.419C139.977 243.534 140.88 244.437 141.995 244.437Z" stroke="#43293A" stroke-width="1.04" stroke-miterlimit="10" stroke-linecap="round" stroke-linejoin="round"/>
<path d="M141.995 257.496C143.11 257.496 144.014 256.592 144.014 255.477C144.014 254.363 143.11 253.459 141.995 253.459C140.88 253.459 139.977 254.363 139.977 255.477C139.977 256.592 140.88 257.496 141.995 257.496Z" fill="#AD5349"/>
<path d="M141.995 257.496C143.11 257.496 144.014 256.592 144.014 255.477C144.014 254.363 143.11 253.459 141.995 253.459C140.88 253.459 139.977 254.363 139.977 255.477C139.977 256.592 140.88 257.496 141.995 257.496Z" stroke="#43293A" stroke-width="1.04" stroke-miterlimit="10" stroke-linecap="round" stroke-linejoin="round"/>
<path d="M141.997 217.774C141.805 217.774 141.615 217.736 141.437 217.662C141.259 217.589 141.098 217.481 140.962 217.345C140.826 217.209 140.718 217.048 140.645 216.87C140.571 216.692 140.533 216.502 140.533 216.31V204.614C140.533 204.226 140.688 203.854 140.962 203.579C141.237 203.305 141.609 203.15 141.997 203.15C142.385 203.15 142.757 203.305 143.032 203.579C143.306 203.854 143.461 204.226 143.461 204.614V216.31C143.461 216.698 143.306 217.07 143.032 217.345C142.757 217.619 142.385 217.773 141.997 217.774Z" fill="white"/>
<path d="M141.997 217.774C141.805 217.774 141.615 217.736 141.437 217.662C141.259 217.589 141.098 217.481 140.962 217.345C140.826 217.209 140.718 217.048 140.645 216.87C140.571 216.692 140.533 216.502 140.533 216.31V204.614C140.533 204.226 140.688 203.854 140.962 203.579C141.237 203.305 141.609 203.15 141.997 203.15C142.385 203.15 142.757 203.305 143.032 203.579C143.306 203.854 143.461 204.226 143.461 204.614V216.31C143.461 216.698 143.306 217.07 143.032 217.345C142.757 217.619 142.385 217.773 141.997 217.774Z" stroke="#43293A" stroke-width="1.04" stroke-miterlimit="10" stroke-linecap="round" stroke-linejoin="round"/>
<path d="M226.004 281.322C222.355 281.322 219.398 278.365 219.398 274.716V181.898H232.61V274.716C232.61 278.365 229.652 281.322 226.004 281.322Z" fill="#EDAB7A"/>
<path opacity="0.78" d="M218.975 207.668H232.187V214.274H218.975V207.668Z" fill="#EDAB7A"/>
<path d="M226.004 281.322C222.355 281.322 219.398 278.365 219.398 274.716V181.898H232.61V274.716C232.61 278.365 229.652 281.322 226.004 281.322Z" stroke="#43293A" stroke-width="2.6" stroke-miterlimit="10" stroke-linecap="round" stroke-linejoin="round"/>
<path d="M214.994 203.15V223.335H219.398V207.554H232.61V223.335H237.014V203.15H214.994Z" fill="white"/>
<path d="M233.423 203.15H218.586C216.602 203.15 214.994 204.758 214.994 206.742V219.744C214.994 220.697 215.373 221.61 216.046 222.284C216.72 222.957 217.633 223.336 218.586 223.336H219.398V207.555H232.61V223.336H233.423C235.406 223.336 237.014 221.728 237.014 219.744V206.742C237.014 204.759 235.406 203.15 233.423 203.15Z" stroke="#43293A" stroke-width="2.08" stroke-miterlimit="10" stroke-linecap="round" stroke-linejoin="round"/>
<path d="M226.004 198.014C227.119 198.014 228.022 197.11 228.022 195.995C228.022 194.88 227.119 193.977 226.004 193.977C224.889 193.977 223.985 194.88 223.985 195.995C223.985 197.11 224.889 198.014 226.004 198.014Z" fill="white"/>
<path d="M226.004 198.014C227.119 198.014 228.022 197.11 228.022 195.995C228.022 194.88 227.119 193.977 226.004 193.977C224.889 193.977 223.985 194.88 223.985 195.995C223.985 197.11 224.889 198.014 226.004 198.014Z" stroke="#43293A" stroke-width="1.04" stroke-miterlimit="10" stroke-linecap="round" stroke-linejoin="round"/>
<path d="M226.004 217.773C227.119 217.773 228.022 216.87 228.022 215.755C228.022 214.64 227.119 213.736 226.004 213.736C224.889 213.736 223.985 214.64 223.985 215.755C223.985 216.87 224.889 217.773 226.004 217.773Z" fill="white"/>
<path d="M226.004 218.31C227.119 218.31 228.022 217.407 228.022 216.292C228.022 215.177 227.119 214.273 226.004 214.273C224.889 214.273 223.985 215.177 223.985 216.292C223.985 217.407 224.889 218.31 226.004 218.31Z" stroke="#43293A" stroke-width="1.04" stroke-miterlimit="10" stroke-linecap="round" stroke-linejoin="round"/>
<path d="M226.004 244.437C227.119 244.437 228.022 243.534 228.022 242.419C228.022 241.304 227.119 240.4 226.004 240.4C224.889 240.4 223.985 241.304 223.985 242.419C223.985 243.534 224.889 244.437 226.004 244.437Z" fill="#AD5349"/>
<path d="M226.004 244.437C227.119 244.437 228.022 243.534 228.022 242.419C228.022 241.304 227.119 240.4 226.004 240.4C224.889 240.4 223.985 241.304 223.985 242.419C223.985 243.534 224.889 244.437 226.004 244.437Z" stroke="#43293A" stroke-width="1.04" stroke-miterlimit="10" stroke-linecap="round" stroke-linejoin="round"/>
<path d="M226.004 257.496C227.119 257.496 228.022 256.592 228.022 255.477C228.022 254.363 227.119 253.459 226.004 253.459C224.889 253.459 223.985 254.363 223.985 255.477C223.985 256.592 224.889 257.496 226.004 257.496Z" fill="#AD5349"/>
<path d="M226.004 257.496C227.119 257.496 228.022 256.592 228.022 255.477C228.022 254.363 227.119 253.459 226.004 253.459C224.889 253.459 223.985 254.363 223.985 255.477C223.985 256.592 224.889 257.496 226.004 257.496Z" stroke="#43293A" stroke-width="1.04" stroke-miterlimit="10" stroke-linecap="round" stroke-linejoin="round"/>
<path d="M226.003 217.774C225.811 217.774 225.621 217.736 225.443 217.662C225.266 217.589 225.104 217.481 224.968 217.345C224.832 217.209 224.725 217.048 224.651 216.87C224.578 216.692 224.54 216.502 224.54 216.31V204.614C224.54 204.226 224.694 203.854 224.968 203.579C225.243 203.305 225.615 203.15 226.003 203.15C226.391 203.15 226.764 203.305 227.038 203.579C227.313 203.854 227.467 204.226 227.467 204.614V216.31C227.467 216.502 227.429 216.692 227.356 216.87C227.282 217.048 227.174 217.209 227.038 217.345C226.902 217.481 226.741 217.589 226.563 217.662C226.386 217.736 226.195 217.774 226.003 217.774Z" fill="white"/>
<path d="M226.003 217.774C225.811 217.774 225.621 217.736 225.443 217.662C225.266 217.589 225.104 217.481 224.968 217.345C224.832 217.209 224.725 217.048 224.651 216.87C224.578 216.692 224.54 216.502 224.54 216.31V204.614C224.54 204.226 224.694 203.854 224.968 203.579C225.243 203.305 225.615 203.15 226.003 203.15C226.391 203.15 226.764 203.305 227.038 203.579C227.313 203.854 227.467 204.226 227.467 204.614V216.31C227.467 216.502 227.429 216.692 227.356 216.87C227.282 217.048 227.174 217.209 227.038 217.345C226.902 217.481 226.741 217.589 226.563 217.662C226.386 217.736 226.195 217.774 226.003 217.774Z" stroke="#43293A" stroke-width="1.04" stroke-miterlimit="10" stroke-linecap="round" stroke-linejoin="round"/>
<path d="M219.398 181.898H232.61V186.658H219.398V181.898Z" fill="#43293A"/>
<path opacity="0.84" d="M184.917 228.945C186.078 228.945 187.019 228.003 187.019 226.842C187.019 225.681 186.078 224.74 184.917 224.74C183.756 224.74 182.815 225.681 182.815 226.842C182.815 228.003 183.756 228.945 184.917 228.945Z" fill="#EDAB7A"/>
<path d="M184.917 228.945C186.078 228.945 187.019 228.003 187.019 226.842C187.019 225.681 186.078 224.74 184.917 224.74C183.756 224.74 182.815 225.681 182.815 226.842C182.815 228.003 183.756 228.945 184.917 228.945Z" stroke="#43293A" stroke-width="1.04" stroke-miterlimit="10" stroke-linecap="round" stroke-linejoin="round"/>
<path d="M193.903 188.108C193.976 187.147 193.435 186.245 192.559 185.842C190.163 184.742 187.557 184.174 184.921 184.178C182.282 184.174 179.674 184.743 177.277 185.845C176.401 186.247 175.86 187.15 175.933 188.111C176.357 193.684 179.275 198.559 183.573 201.625C183.965 201.905 184.435 202.056 184.918 202.056C185.4 202.056 185.87 201.905 186.263 201.625C190.562 198.559 193.48 193.682 193.903 188.108Z" fill="#F7CFB5"/>
<path opacity="0.75" d="M186.262 197.582C185.87 197.863 185.4 198.013 184.917 198.013C184.435 198.013 183.965 197.863 183.572 197.582C179.956 195.003 177.323 191.139 176.324 186.66C176.033 187.086 175.895 187.597 175.932 188.111C176.356 193.684 179.274 198.56 183.572 201.626C183.965 201.906 184.435 202.056 184.917 202.056C185.4 202.056 185.87 201.906 186.262 201.626C190.561 198.559 193.479 193.683 193.902 188.109C193.939 187.595 193.801 187.083 193.51 186.658C192.512 191.138 189.879 195.002 186.262 197.582Z" fill="#F7CFB5"/>
<path d="M193.903 188.108C193.976 187.147 193.435 186.245 192.559 185.842C190.163 184.742 187.557 184.174 184.921 184.178C182.282 184.174 179.674 184.743 177.277 185.845C176.401 186.247 175.86 187.15 175.933 188.111C176.357 193.684 179.275 198.559 183.573 201.625C183.965 201.905 184.435 202.056 184.918 202.056C185.4 202.056 185.87 201.905 186.263 201.625C190.562 198.559 193.48 193.682 193.903 188.108Z" stroke="#43293A" stroke-width="1.3" stroke-miterlimit="10" stroke-linecap="round" stroke-linejoin="round"/>
<path d="M180.906 187.641C182.215 187.289 183.565 187.111 184.92 187.113C186.291 187.113 187.632 187.289 188.928 187.639C190.144 187.967 190.869 189.209 190.565 190.431C190.21 191.86 189.65 193.231 188.903 194.5" stroke="#43293A" stroke-width="0.78" stroke-miterlimit="10" stroke-linecap="round" stroke-linejoin="round"/>
</g>
</svg>
