<svg width="30" height="30" viewBox="0 0 30 30" fill="none" xmlns="http://www.w3.org/2000/svg">
<g clip-path="url(#clip0_2744_2836)">
<path d="M24.6345 4.95236H21.0585V5.94313H22.8C22.8745 5.94447 22.948 5.96041 23.0163 5.99004C23.0845 6.01966 23.1461 6.06238 23.1974 6.11571C23.2488 6.16903 23.2889 6.2319 23.3154 6.30067C23.342 6.36943 23.3544 6.44272 23.352 6.51627V27.3254C23.354 27.3978 23.3412 27.4699 23.3143 27.5374C23.2873 27.6048 23.2469 27.6662 23.1953 27.7178C23.1438 27.7694 23.0822 27.8102 23.0142 27.8377C22.9463 27.8652 22.8734 27.8788 22.8 27.8778H5.7C5.62659 27.8788 5.55372 27.8652 5.48578 27.8377C5.41785 27.8102 5.35624 27.7694 5.30468 27.7178C5.25311 27.6662 5.21266 27.6048 5.18573 27.5374C5.1588 27.4699 5.14597 27.3978 5.148 27.3254V6.51627C5.1456 6.44272 5.15804 6.36943 5.18457 6.30067C5.21111 6.2319 5.25123 6.16903 5.30259 6.11571C5.35395 6.06238 5.41552 6.01966 5.48375 5.99004C5.55197 5.96041 5.62548 5.94447 5.7 5.94313H7.5135V4.95236H3.867C3.63614 4.96071 3.41735 5.05639 3.25596 5.21959C3.09457 5.38279 3.00293 5.60102 3 5.8291V29.144C3.00196 29.3704 3.09394 29.587 3.25611 29.7471C3.41828 29.9073 3.63767 29.9981 3.867 30H24.6345C24.8638 29.9981 25.0832 29.9073 25.2454 29.7471C25.4076 29.587 25.4995 29.3704 25.5015 29.144V5.83058C25.499 5.60225 25.4075 5.38365 25.246 5.22013C25.0846 5.05661 24.8656 4.96072 24.6345 4.95236ZM14.61 0H13.9215C13.4956 0.0058259 13.0873 0.168791 12.777 0.456837C12.4666 0.744883 12.2767 1.13716 12.2445 1.5565H16.287C16.2558 1.13679 16.0662 0.743932 15.7556 0.455685C15.4451 0.167438 15.0362 0.004811 14.61 0Z" fill="#817EB1"/>
<path d="M19.9129 4.61763C19.9093 4.17729 19.7296 3.75618 19.413 3.44605C19.0963 3.13592 18.6684 2.9619 18.2224 2.96191H10.3174C10.0984 2.96189 9.88161 3.00489 9.67964 3.08842C9.47767 3.17195 9.29457 3.29434 9.14099 3.44844C8.98742 3.60255 8.86644 3.7853 8.78513 3.98604C8.70381 4.18677 8.66378 4.40147 8.66737 4.61763V7.06569H19.9174L19.9129 4.61763ZM7.51536 7.34854H6.29736V27.0188H22.2064V7.34854H21.0604V7.65954C21.0586 7.73267 21.0422 7.80473 21.0119 7.87151C20.9817 7.93829 20.9383 7.99846 20.8843 8.0485C20.8302 8.09854 20.7666 8.13746 20.6972 8.16298C20.6278 8.1885 20.5539 8.20012 20.4799 8.19715H8.06136C7.98917 8.19963 7.91725 8.18741 7.85005 8.16127C7.78285 8.13513 7.72182 8.09562 7.67075 8.0452C7.61967 7.99478 7.57967 7.93453 7.55319 7.86818C7.52672 7.80183 7.51436 7.73081 7.51687 7.65954L7.51536 7.34854ZM12.7324 11.8773H10.7044C10.5524 11.8773 10.4067 11.8177 10.2992 11.7116C10.1917 11.6056 10.1314 11.4617 10.1314 11.3116C10.1314 11.1616 10.1917 11.0177 10.2992 10.9116C10.4067 10.8055 10.5524 10.7459 10.7044 10.7459H17.7919C17.9438 10.7459 18.0896 10.8055 18.197 10.9116C18.3045 11.0177 18.3649 11.1616 18.3649 11.3116C18.3649 11.4617 18.3045 11.6056 18.197 11.7116C18.0896 11.8177 17.9438 11.8773 17.7919 11.8773H15.3694C15.8767 12.4009 16.2028 13.0697 16.3009 13.7878H17.7919C17.9438 13.7878 18.0896 13.8474 18.197 13.9535C18.3045 14.0596 18.3649 14.2035 18.3649 14.3535C18.3649 14.5036 18.3045 14.6475 18.197 14.7536C18.0896 14.8597 17.9438 14.9193 17.7919 14.9193H16.3009C16.1625 15.7533 15.7269 16.5111 15.0726 17.0561C14.4183 17.6011 13.5884 17.8974 12.7324 17.8916H12.1474L16.1674 21.6414C16.2752 21.7452 16.3373 21.8868 16.3402 22.0355C16.3431 22.1842 16.2866 22.3281 16.1829 22.4359C16.0791 22.5438 15.9365 22.607 15.786 22.6118C15.6354 22.6167 15.489 22.5628 15.3784 22.4618L10.3114 17.7361C10.2286 17.6574 10.1715 17.5563 10.1472 17.4455C10.1228 17.3347 10.1324 17.2192 10.1747 17.1138C10.217 17.0084 10.2901 16.9178 10.3846 16.8535C10.4792 16.7892 10.591 16.7541 10.7059 16.7527H12.7339C13.2849 16.7562 13.8211 16.5768 14.2563 16.2432C14.6916 15.9096 15.0007 15.4412 15.1339 14.9133H10.7044C10.5524 14.9133 10.4067 14.8537 10.2992 14.7476C10.1917 14.6415 10.1314 14.4977 10.1314 14.3476C10.1314 14.1976 10.1917 14.0537 10.2992 13.9476C10.4067 13.8415 10.5524 13.7819 10.7044 13.7819H15.1339C15.0163 13.2403 14.7133 12.7552 14.2759 12.4083C13.8385 12.0614 13.2934 11.8739 12.7324 11.8773ZM9.28237 24.1887H19.2079C19.3598 24.1887 19.5056 24.2483 19.613 24.3543C19.7205 24.4604 19.7809 24.6043 19.7809 24.7544C19.7809 24.9044 19.7205 25.0483 19.613 25.1544C19.5056 25.2605 19.3598 25.3201 19.2079 25.3201H9.28237C9.1304 25.3201 8.98464 25.2605 8.87718 25.1544C8.76972 25.0483 8.70937 24.9044 8.70937 24.7544C8.70937 24.6043 8.76972 24.4604 8.87718 24.3543C8.98464 24.2483 9.1304 24.1887 9.28237 24.1887Z" fill="#817EB1"/>
</g>
<defs>
<clipPath id="clip0_2744_2836">
<rect width="30" height="30" fill="white"/>
</clipPath>
</defs>
</svg>
