<svg width="24" height="24" viewBox="0 0 24 24" fill="none" xmlns="http://www.w3.org/2000/svg">
<g clip-path="url(#clip0_2744_2833)">
<path d="M20.9231 24H3.07692C2.26099 23.9987 1.47886 23.6739 0.902051 23.0968C0.325246 22.5197 0.000849825 21.7374 0 20.9215L0 4.45712H3.36453C3.7651 4.45712 4.14926 4.298 4.4325 4.01475C4.71575 3.73151 4.87487 3.34735 4.87487 2.94678V0.00964355H20.9215C21.7371 0.0109184 22.519 0.335503 23.0958 0.912262C23.6725 1.48902 23.9971 2.27091 23.9984 3.08657V20.9215C23.9975 21.7371 23.6734 22.5192 23.0969 23.0963C22.5205 23.6733 21.7387 23.9983 20.9231 24ZM11.9976 9.6903H3.97831C3.87914 9.6903 3.78094 9.70984 3.68932 9.74779C3.5977 9.78574 3.51445 9.84136 3.44432 9.91149C3.3742 9.98161 3.31857 10.0649 3.28062 10.1565C3.24267 10.2481 3.22314 10.3463 3.22314 10.4455C3.22314 10.5446 3.24267 10.6428 3.28062 10.7345C3.31857 10.8261 3.3742 10.9093 3.44432 10.9795C3.51445 11.0496 3.5977 11.1052 3.68932 11.1432C3.78094 11.1811 3.87914 11.2006 3.97831 11.2006H11.996C12.1963 11.2006 12.3883 11.1211 12.53 10.9795C12.6716 10.8378 12.7512 10.6458 12.7512 10.4455C12.7512 10.2452 12.6716 10.0531 12.53 9.91149C12.3883 9.76987 12.1979 9.6903 11.9976 9.6903ZM11.9976 13.6686H3.97831C3.87914 13.6686 3.78094 13.6881 3.68932 13.7261C3.5977 13.764 3.51445 13.8197 3.44432 13.8898C3.3742 13.9599 3.31857 14.0432 3.28062 14.1348C3.24267 14.2264 3.22314 14.3246 3.22314 14.4238C3.22314 14.523 3.24267 14.6212 3.28062 14.7128C3.31857 14.8044 3.3742 14.8876 3.44432 14.9578C3.51445 15.0279 3.5977 15.0835 3.68932 15.1215C3.78094 15.1594 3.87914 15.179 3.97831 15.179H11.996C12.1963 15.179 12.3883 15.0994 12.53 14.9578C12.6716 14.8161 12.7512 14.6241 12.7512 14.4238C12.7512 14.2235 12.6716 14.0314 12.53 13.8898C12.3883 13.7482 12.1979 13.6686 11.9976 13.6686ZM11.9976 17.6421H3.97831C3.87914 17.6421 3.78094 17.6616 3.68932 17.6996C3.5977 17.7375 3.51445 17.7932 3.44432 17.8633C3.3742 17.9334 3.31857 18.0167 3.28062 18.1083C3.24267 18.1999 3.22314 18.2981 3.22314 18.3973C3.22314 18.4964 3.24267 18.5946 3.28062 18.6863C3.31857 18.7779 3.3742 18.8611 3.44432 18.9313C3.51445 19.0014 3.5977 19.057 3.68932 19.095C3.78094 19.1329 3.87914 19.1524 3.97831 19.1524H11.996C12.0952 19.1524 12.1934 19.1329 12.285 19.095C12.3766 19.057 12.4598 19.0014 12.53 18.9313C12.6001 18.8611 12.6557 18.7779 12.6937 18.6863C12.7316 18.5946 12.7512 18.4964 12.7512 18.3973C12.7512 18.2981 12.7316 18.1999 12.6937 18.1083C12.6557 18.0167 12.6001 17.9334 12.53 17.8633C12.4598 17.7932 12.3766 17.7375 12.285 17.6996C12.1934 17.6616 12.0968 17.6421 11.9976 17.6421ZM17.6485 6.75799C17.6226 6.72722 17.5902 6.70249 17.5537 6.68552C17.5172 6.66855 17.4775 6.65976 17.4372 6.65976C17.397 6.65976 17.3572 6.66855 17.3207 6.68552C17.2842 6.70249 17.2519 6.72722 17.2259 6.75799L15.0295 9.3079H15.8715C15.9448 9.3079 16.015 9.33701 16.0669 9.38884C16.1187 9.44067 16.1478 9.51096 16.1478 9.58426V18.1209C16.1478 18.1942 16.1769 18.2645 16.2288 18.3163C16.2806 18.3682 16.3509 18.3973 16.4242 18.3973H18.439C18.5129 18.3973 18.5839 18.3684 18.6368 18.3167C18.6896 18.2651 18.7202 18.1948 18.7218 18.1209V9.58426C18.7212 9.54779 18.7279 9.51156 18.7415 9.47773C18.7552 9.44391 18.7755 9.41318 18.8013 9.38739C18.8271 9.36159 18.8578 9.34126 18.8917 9.3276C18.9255 9.31395 18.9617 9.30724 18.9982 9.3079H19.8289L17.6485 6.75799Z" fill="#817EB1"/>
<path d="M0 3.63607L3.98956 0V2.60936C3.98956 2.87655 3.88342 3.13279 3.69449 3.32172C3.50556 3.51065 3.24931 3.61679 2.98212 3.61679L0 3.63607Z" fill="#817EB1"/>
</g>
<defs>
<clipPath id="clip0_2744_2833">
<rect width="24" height="24" fill="white"/>
</clipPath>
</defs>
</svg>
