<svg width="24" height="25" viewBox="0 0 24 25" fill="none" xmlns="http://www.w3.org/2000/svg">
<mask id="mask0_2464_7887" style="mask-type:alpha" maskUnits="userSpaceOnUse" x="0" y="0" width="25" height="25">
<rect x="0.00146484" y="0.429688" width="24" height="24" fill="#D9D9D9"/>
</mask>
<g mask="url(#mask0_2464_7887)">
<path d="M19.9515 21.4297C17.8681 21.4297 15.8098 20.9755 13.7765 20.0672C11.7431 19.1589 9.89313 17.8714 8.22646 16.2047C6.5598 14.538 5.2723 12.688 4.36396 10.6547C3.45563 8.62135 3.00146 6.56302 3.00146 4.47969C3.00146 4.17969 3.10146 3.92969 3.30146 3.72969C3.50146 3.52969 3.75146 3.42969 4.05146 3.42969H8.10146C8.3348 3.42969 8.54313 3.50885 8.72646 3.66719C8.9098 3.82552 9.01813 4.01302 9.05147 4.22969L9.70147 7.72969C9.7348 7.99635 9.72647 8.22135 9.67647 8.40469C9.62646 8.58802 9.5348 8.74635 9.40146 8.87969L6.97646 11.3297C7.3098 11.9464 7.70563 12.5422 8.16396 13.1172C8.6223 13.6922 9.12646 14.2464 9.67647 14.7797C10.1931 15.2964 10.7348 15.7755 11.3015 16.2172C11.8681 16.6589 12.4681 17.063 13.1015 17.4297L15.4515 15.0797C15.6015 14.9297 15.7973 14.8172 16.039 14.7422C16.2806 14.6672 16.5181 14.6464 16.7515 14.6797L20.2015 15.3797C20.4348 15.4464 20.6265 15.5672 20.7765 15.7422C20.9265 15.9172 21.0015 16.113 21.0015 16.3297V20.3797C21.0015 20.6797 20.9015 20.9297 20.7015 21.1297C20.5015 21.3297 20.2515 21.4297 19.9515 21.4297ZM16.4015 9.42969H18.0015C18.2848 9.42969 18.5223 9.52552 18.714 9.71719C18.9056 9.90885 19.0015 10.1464 19.0015 10.4297C19.0015 10.713 18.9056 10.9505 18.714 11.1422C18.5223 11.3339 18.2848 11.4297 18.0015 11.4297H14.0015C13.7181 11.4297 13.4806 11.3339 13.289 11.1422C13.0973 10.9505 13.0015 10.713 13.0015 10.4297V6.42969C13.0015 6.14635 13.0973 5.90885 13.289 5.71719C13.4806 5.52552 13.7181 5.42969 14.0015 5.42969C14.2848 5.42969 14.5223 5.52552 14.714 5.71719C14.9056 5.90885 15.0015 6.14635 15.0015 6.42969V8.02969L19.3015 3.72969C19.4848 3.54635 19.7181 3.45469 20.0015 3.45469C20.2848 3.45469 20.5181 3.54635 20.7015 3.72969C20.8848 3.91302 20.9765 4.14635 20.9765 4.42969C20.9765 4.71302 20.8848 4.94635 20.7015 5.12969L16.4015 9.42969Z" fill="#817EB1"/>
</g>
</svg>
