<svg width="24" height="25" viewBox="0 0 24 25" fill="none" xmlns="http://www.w3.org/2000/svg">
<mask id="mask0_2867_2536" style="mask-type:alpha" maskUnits="userSpaceOnUse" x="0" y="0" width="25" height="25">
<rect x="0.00146484" y="0.179688" width="24" height="24" fill="#D9D9D9"/>
</mask>
<g mask="url(#mask0_2867_2536)">
<path d="M3.74414 4.69015C3.69434 4.69061 3.64496 4.68105 3.59892 4.66205C3.55289 4.64304 3.51113 4.61497 3.47614 4.57951L2.85172 3.94582L2.6936 4.10408C2.65507 4.14283 2.60643 4.16997 2.55324 4.18239C2.50004 4.19481 2.44442 4.19202 2.39274 4.17433C2.34105 4.15665 2.29537 4.12478 2.2609 4.08236C2.22644 4.03994 2.20458 3.98868 2.19782 3.93442L2.02898 2.59866C2.02243 2.54615 2.02711 2.49285 2.04269 2.44228C2.05828 2.39172 2.08442 2.34505 2.11938 2.30536C2.15435 2.26567 2.19735 2.23387 2.24552 2.21206C2.29369 2.19026 2.34594 2.17895 2.39881 2.17888C2.41584 2.1788 2.43286 2.17992 2.44973 2.18224L3.78299 2.35658C3.83703 2.36367 3.88801 2.38578 3.93012 2.4204C3.97224 2.45502 4.00381 2.50077 4.02125 2.55245C4.0387 2.60413 4.04131 2.65967 4.02881 2.71276C4.0163 2.76585 3.98916 2.81437 3.95049 2.8528L3.78969 3.01106L4.41613 3.6501C4.48528 3.72097 4.52371 3.81628 4.52308 3.91533C4.52246 4.01439 4.48282 4.1092 4.41278 4.17918L4.01079 4.58152C3.97608 4.61634 3.93482 4.64392 3.8894 4.66268C3.84397 4.68145 3.79528 4.69101 3.74615 4.69082" fill="#817EB1"/>
<path d="M20.2621 4.69017C20.213 4.69035 20.1643 4.68079 20.1189 4.66203C20.0735 4.64327 20.0322 4.61568 19.9975 4.58086L19.5955 4.17852C19.5255 4.10854 19.4858 4.01373 19.4852 3.91467C19.4846 3.81562 19.523 3.72031 19.5921 3.64945L20.2193 3.0104L20.0605 2.85281C20.0216 2.81441 19.9943 2.76584 19.9817 2.71265C19.969 2.65945 19.9716 2.60378 19.9891 2.55198C20.0065 2.50018 20.0382 2.45433 20.0804 2.41966C20.1227 2.385 20.1738 2.36291 20.228 2.35593L21.5606 2.18158C21.5763 2.17964 21.5922 2.17874 21.6081 2.1789C21.661 2.17896 21.7133 2.19027 21.7614 2.21208C21.8096 2.23388 21.8526 2.26568 21.8876 2.30537C21.9225 2.34506 21.9487 2.39173 21.9643 2.4423C21.9798 2.49286 21.9845 2.54616 21.978 2.59867L21.8111 3.9331C21.8022 4.00374 21.7677 4.06867 21.7143 4.11571C21.6609 4.16275 21.5922 4.18866 21.521 4.18858C21.4828 4.18859 21.4449 4.18101 21.4096 4.16627C21.3743 4.15154 21.3423 4.12995 21.3154 4.10275L21.1566 3.9445L20.5281 4.57818C20.4931 4.61368 20.4514 4.64176 20.4054 4.66077C20.3593 4.67978 20.3099 4.68932 20.2601 4.68882L20.2621 4.69017Z" fill="#817EB1"/>
<path d="M21.6279 22.1725C21.6123 22.1734 21.5966 22.1734 21.581 22.1725L20.2477 22.0055C20.1936 21.9987 20.1425 21.9769 20.1001 21.9425C20.0578 21.9081 20.0259 21.8625 20.0082 21.8108C19.9905 21.7592 19.9876 21.7036 19.9998 21.6504C20.0121 21.5972 20.039 21.5486 20.0776 21.5099L20.2357 21.3517L19.6025 20.7227C19.5677 20.6878 19.5401 20.6464 19.5212 20.6009C19.5023 20.5553 19.4926 20.5065 19.4926 20.4571C19.4926 20.4078 19.5023 20.359 19.5212 20.3134C19.5401 20.2679 19.5677 20.2265 19.6025 20.1916L20.0045 19.7893C20.0748 19.7194 20.1698 19.6803 20.2688 19.6803C20.3679 19.6803 20.4629 19.7194 20.5331 19.7893L21.1716 20.4169L21.3291 20.258C21.3559 20.2307 21.388 20.2091 21.4233 20.1944C21.4586 20.1796 21.4965 20.1721 21.5348 20.1722C21.6056 20.1722 21.674 20.198 21.7272 20.2447C21.7805 20.2915 21.8149 20.356 21.8242 20.4263L21.9984 21.76C22.0052 21.8127 22.0008 21.8661 21.9854 21.9169C21.97 21.9676 21.944 22.0145 21.909 22.0544C21.8741 22.0944 21.8311 22.1263 21.7829 22.1483C21.7346 22.1703 21.6822 22.1817 21.6292 22.1818L21.6279 22.1725Z" fill="#817EB1"/>
<path d="M2.37719 22.1726C2.32384 22.1729 2.27103 22.1619 2.22233 22.1401C2.17362 22.1183 2.13015 22.0863 2.09485 22.0462C2.05954 22.0062 2.03323 21.959 2.01767 21.908C2.00212 21.8569 1.99769 21.8031 2.00468 21.7501L2.17955 20.4163C2.18672 20.3624 2.20883 20.3115 2.24338 20.2695C2.27793 20.2275 2.32354 20.196 2.37505 20.1785C2.42656 20.1611 2.48192 20.1584 2.53487 20.1708C2.58782 20.1832 2.63624 20.2102 2.67467 20.2487L2.83278 20.4083L3.47127 19.7807C3.54155 19.7108 3.63656 19.6717 3.73558 19.6717C3.8346 19.6717 3.92961 19.7108 3.99989 19.7807L4.40188 20.183C4.43672 20.2179 4.46436 20.2593 4.48322 20.3048C4.50208 20.3504 4.51178 20.3992 4.51178 20.4485C4.51178 20.4979 4.50208 20.5467 4.48322 20.5923C4.46436 20.6378 4.43672 20.6792 4.40188 20.7141L3.76875 21.3431L3.92686 21.502C3.9654 21.5406 3.99233 21.5893 4.0046 21.6425C4.01686 21.6957 4.01396 21.7513 3.99623 21.8029C3.9785 21.8545 3.94665 21.9001 3.90431 21.9346C3.86196 21.969 3.81081 21.9908 3.75669 21.9975L2.42342 22.1652C2.40781 22.1662 2.39214 22.1662 2.37652 22.1652" fill="#817EB1"/>
<path d="M8.84531 9.48376L11.8066 10.9845C11.8757 11.0193 11.952 11.0374 12.0294 11.0374C12.1068 11.0374 12.183 11.0193 12.2522 10.9845L20.7381 6.68549C20.7044 6.66013 20.6685 6.63769 20.6309 6.61843L17.616 5.02718L8.96657 9.40999C8.92445 9.43182 8.88452 9.45764 8.84732 9.48711" fill="#817EB1"/>
<path d="M6.16922 8.12829C6.20661 8.09877 6.24678 8.07295 6.28915 8.05118L14.9929 3.64154L12.3806 2.26487C12.2729 2.20734 12.1527 2.17725 12.0306 2.17725C11.9085 2.17725 11.7882 2.20734 11.6805 2.26487L3.43168 6.61617C3.39406 6.63535 3.35819 6.65779 3.32448 6.68322L6.16922 8.12829Z" fill="#817EB1"/>
<path d="M12.4852 11.4436C12.4211 11.4755 12.3537 11.5005 12.2842 11.518V22.0157C12.3159 22.0042 12.3468 21.9906 12.3767 21.9748L20.6282 17.6235C20.7492 17.5603 20.8506 17.4651 20.9214 17.3484C20.9923 17.2316 21.0299 17.0976 21.0302 16.961V7.2787C21.0296 7.22683 21.0238 7.17515 21.0127 7.12447L12.4852 11.4436Z" fill="#817EB1"/>
<path d="M11.7738 11.5194C11.7058 11.5017 11.6398 11.477 11.5769 11.4456L8.57334 9.92274C8.56209 9.97339 8.55625 10.0251 8.55592 10.077V13.9602C8.55595 14.0352 8.53353 14.1085 8.49155 14.1707C8.44957 14.2328 8.38995 14.281 8.32038 14.3089C8.25081 14.3368 8.17448 14.3433 8.10122 14.3274C8.02797 14.3115 7.96115 14.274 7.90939 14.2197L7.16638 13.4432C7.12236 13.397 7.06718 13.3629 7.00615 13.3442C6.94512 13.3255 6.88032 13.3229 6.81799 13.3366L6.33225 13.4412C6.27759 13.4528 6.22103 13.452 6.16671 13.4389C6.11238 13.4258 6.06167 13.4008 6.01826 13.3655C5.97486 13.3303 5.93986 13.2858 5.91583 13.2354C5.89179 13.1849 5.87933 13.1297 5.87934 13.0737V8.72108C5.87989 8.66899 5.88573 8.61709 5.89676 8.56618L3.048 7.12447C3.037 7.17515 3.03116 7.22683 3.03058 7.2787V16.961C3.03084 17.0976 3.06844 17.2316 3.13929 17.3483C3.21015 17.4651 3.31156 17.5603 3.43257 17.6235L11.6841 21.9755C11.714 21.9911 11.7448 22.0048 11.7765 22.0164L11.7738 11.5194Z" fill="#817EB1"/>
</g>
</svg>
