<svg width="24" height="25" viewBox="0 0 24 25" fill="none" xmlns="http://www.w3.org/2000/svg">
<mask id="mask0_2464_7833" style="mask-type:alpha" maskUnits="userSpaceOnUse" x="0" y="0" width="25" height="25">
<rect width="24" height="24" transform="matrix(-1 0 0 1 24.0015 0.429688)" fill="#D9D9D9"/>
</mask>
<g mask="url(#mask0_2464_7833)">
<path d="M19.9515 21.4297C20.2515 21.4297 20.5015 21.3297 20.7015 21.1297C20.9015 20.9297 21.0015 20.6797 21.0015 20.3797V16.3297C21.0015 16.113 20.9265 15.9172 20.7765 15.7422C20.6265 15.5672 20.4348 15.4464 20.2015 15.3797L16.7515 14.6797C16.5181 14.6464 16.2806 14.6672 16.039 14.7422C15.7973 14.8172 15.6015 14.9297 15.4515 15.0797L13.1015 17.4297C12.4681 17.063 11.8681 16.6589 11.3015 16.2172C10.7348 15.7755 10.1931 15.2964 9.67647 14.7797C9.12646 14.2464 8.6223 13.6922 8.16396 13.1172C7.70563 12.5422 7.3098 11.9464 6.97646 11.3297L9.40146 8.87969C9.5348 8.74635 9.62646 8.58802 9.67647 8.40469C9.72647 8.22135 9.7348 7.99635 9.70146 7.72969L9.05147 4.22969C9.01813 4.01302 8.9098 3.82552 8.72646 3.66719C8.54313 3.50885 8.3348 3.42969 8.10146 3.42969H4.05146C3.75146 3.42969 3.50146 3.52969 3.30146 3.72969C3.10146 3.92969 3.00146 4.17969 3.00146 4.47969C3.00146 6.56302 3.45563 8.62135 4.36396 10.6547C5.2723 12.688 6.5598 14.538 8.22646 16.2047C9.89313 17.8714 11.7431 19.1589 13.7765 20.0672C15.8098 20.9755 17.8681 21.4297 19.9515 21.4297Z" fill="#817EB1"/>
</g>
</svg>
