<svg width="24" height="24" viewBox="0 0 24 24" fill="none" xmlns="http://www.w3.org/2000/svg">
<mask id="mask0_10725_8045" style="mask-type:alpha" maskUnits="userSpaceOnUse" x="0" y="0" width="24" height="24">
<rect width="24" height="24" fill="#D9D9D9"/>
</mask>
<g mask="url(#mask0_10725_8045)">
<path d="M2 7V4C2 3.45 2.19583 2.97917 2.5875 2.5875C2.97917 2.19583 3.45 2 4 2H7V4H4V7H2ZM7 22H4C3.45 22 2.97917 21.8042 2.5875 21.4125C2.19583 21.0208 2 20.55 2 20V17H4V20H7V22ZM17 22V20H20V17H22V20C22 20.55 21.8042 21.0208 21.4125 21.4125C21.0208 21.8042 20.55 22 20 22H17ZM20 7V4H17V2H20C20.55 2 21.0208 2.19583 21.4125 2.5875C21.8042 2.97917 22 3.45 22 4V7H20ZM13.5 9.5C12.95 9.5 12.4792 9.30417 12.0875 8.9125C11.6958 8.52083 11.5 8.05 11.5 7.5C11.5 6.95 11.6958 6.47917 12.0875 6.0875C12.4792 5.69583 12.95 5.5 13.5 5.5C14.05 5.5 14.5208 5.69583 14.9125 6.0875C15.3042 6.47917 15.5 6.95 15.5 7.5C15.5 8.05 15.3042 8.52083 14.9125 8.9125C14.5208 9.30417 14.05 9.5 13.5 9.5ZM12.8 18H8.8L9.8 12.9L8 13.6V17H6V12.3L9.95 10.6C10.5333 10.35 10.9625 10.1875 11.2375 10.1125C11.5125 10.0375 11.7667 10 12 10C12.35 10 12.675 10.0917 12.975 10.275C13.275 10.4583 13.5167 10.7 13.7 11L14.7 12.6C15.1333 13.3 15.7208 13.875 16.4625 14.325C17.2042 14.775 18.05 15 19 15V17C17.9 17 16.8708 16.7708 15.9125 16.3125C14.9542 15.8542 14.15 15.25 13.5 14.5L12.8 18Z" fill="#727176"/>
</g>
</svg>
