<svg width="40" height="40" viewBox="0 0 40 40" fill="none" xmlns="http://www.w3.org/2000/svg">
<circle cx="20" cy="20" r="20" fill="#CEDEF0"/>
<mask id="mask0_7688_4562" style="mask-type:luminance" maskUnits="userSpaceOnUse" x="13" y="13" width="14" height="14">
<path d="M26.9256 13.25H13V26.9197H26.9256V13.25Z" fill="white"/>
</mask>
<g mask="url(#mask0_7688_4562)">
<path d="M22.3287 15.9124C22.3287 16.5284 22.1388 17.1252 21.7915 17.6013C21.4441 18.0774 20.9607 18.4032 20.4238 18.5233C19.8868 18.6434 19.3294 18.5503 18.8466 18.2599C18.3638 17.9695 17.9854 17.4997 17.776 16.9307C17.5665 16.3616 17.5389 15.7284 17.6979 15.139C17.8569 14.5497 18.1927 14.0405 18.648 13.6984C19.1032 13.3563 19.6499 13.2024 20.1947 13.2629C20.7395 13.3233 21.2489 13.5945 21.6359 14.0301C22.0796 14.5294 22.3288 15.2065 22.3287 15.9124Z" fill="#216BC2"/>
<path d="M26.246 16.8915C26.246 17.2244 26.1583 17.5498 25.9939 17.8265C25.8295 18.1033 25.5959 18.319 25.3225 18.4464C25.0492 18.5738 24.7484 18.6071 24.4582 18.5422C24.168 18.4772 23.9014 18.3169 23.6922 18.0816C23.483 17.8462 23.3405 17.5463 23.2828 17.2198C23.2251 16.8934 23.2547 16.555 23.3679 16.2474C23.4811 15.9399 23.6729 15.6771 23.9189 15.4921C24.1649 15.3072 24.4541 15.2085 24.75 15.2085C25.1468 15.2085 25.5273 15.3858 25.8079 15.7014C26.0884 16.0171 26.246 16.4451 26.246 16.8915Z" fill="#216BC2"/>
<path d="M16.6721 16.8915C16.6721 17.2244 16.5843 17.5498 16.4199 17.8265C16.2556 18.1033 16.0219 18.319 15.7485 18.4464C15.4752 18.5738 15.1744 18.6071 14.8842 18.5422C14.594 18.4772 14.3274 18.3169 14.1182 18.0816C13.909 17.8462 13.7665 17.5463 13.7088 17.2198C13.6511 16.8934 13.6807 16.555 13.7939 16.2474C13.9072 15.9399 14.0989 15.6771 14.3449 15.4921C14.5909 15.3072 14.8802 15.2085 15.1761 15.2085C15.5728 15.2085 15.9533 15.3858 16.2339 15.7014C16.5144 16.0171 16.6721 16.4451 16.6721 16.8915Z" fill="#216BC2"/>
<path d="M16.6496 20.0852C16.0608 19.5425 15.5276 19.6145 14.8468 19.6145C14.3586 19.6134 13.89 19.8302 13.5438 20.2174C13.1976 20.6045 13.002 21.1304 13 21.6795V25.0213C13.0008 25.2593 13.0855 25.4873 13.2354 25.6553C13.3854 25.8233 13.5884 25.9176 13.8 25.9176C15.7044 25.9176 15.4752 25.9563 15.4752 25.8254C15.4752 23.4575 15.226 21.7209 16.65 20.0856" fill="#216BC2"/>
<path d="M20.6108 19.629C19.4216 19.5174 18.388 19.629 17.4964 20.4584C16.0044 21.803 16.2916 23.6133 16.2916 25.8278C16.292 26.1118 16.3925 26.384 16.571 26.5849C16.7495 26.7857 16.9915 26.8987 17.244 26.8992C22.9852 26.8992 23.2136 27.1076 23.554 26.2593C23.6656 25.9727 23.634 26.0636 23.634 23.3199C23.634 21.1406 21.9568 19.6299 20.61 19.6299" fill="#216BC2"/>
<path d="M25.0788 19.6149C24.3944 19.6149 23.864 19.5438 23.276 20.086C24.6892 21.7096 24.4508 23.326 24.4508 25.8258C24.4508 25.9576 24.2604 25.918 26.0976 25.918C26.3168 25.9183 26.5272 25.8207 26.6825 25.6466C26.8378 25.4726 26.9254 25.2363 26.926 24.9897V21.6799C26.924 21.1308 26.7284 20.6049 26.3822 20.2178C26.036 19.8306 25.5674 19.6138 25.0792 19.6149" fill="#216BC2"/>
</g>
</svg>
