<svg width="248" height="156" viewBox="0 0 248 156" fill="none" xmlns="http://www.w3.org/2000/svg">
<g opacity="0.5">
<g opacity="0.5">
<path d="M76.2725 154.55L61.2392 154.636C61.2392 154.636 38.0306 132.661 40.1349 81.078C42.2393 29.4948 78.184 1.88743 103.657 0.18265C134.732 -1.89703 140.393 14.3741 164.333 18.9657C185.298 22.9868 198.726 31.5352 208.183 52.4879C217.224 72.5203 220.656 115.934 200.784 154.55H76.2725Z" fill="#E7E6FE"/>
<path d="M101.59 154.698C102.197 154.314 112.151 139.071 118.706 146.278C118.706 146.278 128.539 119.853 142.014 121.102C155.488 122.351 144.077 141.954 144.077 141.954C144.077 141.954 155.61 138.207 152.939 148.104C152.939 148.104 167.567 146.375 166.474 154.735L101.59 154.698Z" fill="#258D8C"/>
<path d="M160.378 132.756C162.35 131.199 163.277 129.086 162.448 128.035C161.62 126.985 159.349 127.395 157.376 128.951C155.403 130.507 154.476 132.62 155.305 133.671C156.134 134.722 158.405 134.312 160.378 132.756Z" fill="#258D8C"/>
<path d="M159.512 136.226C158.448 137.242 158.143 138.431 158.831 138.882C159.518 139.333 160.938 138.876 162.002 137.86C163.065 136.844 163.37 135.655 162.683 135.203C161.995 134.752 160.576 135.21 159.512 136.226Z" fill="#258D8C"/>
<path d="M136.927 125.067C136.892 125.067 136.857 125.057 136.829 125.036C136.773 124.993 136.772 124.922 136.826 124.878C136.924 124.797 139.265 122.902 141.775 122.902C141.776 122.902 141.776 122.902 141.776 122.902C141.854 122.902 141.917 122.952 141.917 123.014C141.917 123.076 141.854 123.126 141.776 123.126C141.776 123.126 141.776 123.126 141.775 123.126C139.385 123.126 137.052 125.014 137.028 125.033C137.001 125.056 136.964 125.067 136.927 125.067Z" fill="black"/>
<path d="M138.808 124.915C138.772 124.915 138.737 124.904 138.709 124.883C138.653 124.84 138.652 124.769 138.707 124.725C138.752 124.689 139.836 123.825 142.106 123.551C142.184 123.542 142.255 123.584 142.267 123.645C142.279 123.705 142.226 123.762 142.149 123.772C139.971 124.035 138.919 124.873 138.909 124.881C138.881 124.904 138.844 124.915 138.808 124.915Z" fill="black"/>
<path d="M90.6666 154.715C90.3326 154.503 84.8548 146.116 81.2475 150.082C81.2475 150.082 75.8365 135.54 68.4215 136.227C61.0064 136.915 63.9929 147.244 63.9929 147.244C63.0864 146.67 60.61 146.692 61.5608 149.603C58.0821 147.952 55.6058 152.197 59.0844 154.735L90.6666 154.715Z" fill="#258D8C"/>
<path d="M208.183 154.444H47.0644V155.026H208.183V154.444Z" fill="#4C222E"/>
<path d="M131.171 31.1454C131.17 31.1074 131.168 31.0696 131.165 31.032C131.091 29.7573 130.094 28.7394 128.846 28.6639C128.809 28.6611 128.772 28.6593 128.735 28.6581C128.722 28.6579 128.71 28.6562 128.698 28.6562H73.5718C73.5594 28.6562 73.5475 28.6579 73.5351 28.6581C73.4978 28.6593 73.4607 28.6611 73.4238 28.6639C72.1759 28.7394 71.1782 29.7574 71.1041 31.032C71.1015 31.0696 71.0996 31.1075 71.0985 31.1454C71.0983 31.1581 71.0966 31.1703 71.0966 31.183V148.253C71.0966 149.471 72.0633 150.457 73.2544 150.457H129.015C130.206 150.457 131.173 149.471 131.173 148.253V31.183C131.173 31.1704 131.171 31.1581 131.171 31.1454ZM71.1357 37.3678V33.8315H74.7378C74.8421 33.8795 74.9566 33.9064 75.0768 33.9064C75.1982 33.9064 75.3139 33.8795 75.4169 33.8315H77.3021C77.4053 33.8795 77.5209 33.9064 77.6423 33.9064C77.7637 33.9064 77.8794 33.8795 77.9824 33.8315H79.8676C79.9708 33.8795 80.0864 33.9064 80.2078 33.9064C80.3291 33.9064 80.4449 33.8795 80.5479 33.8315H120.297V33.9064H126.815V33.8315H131.151V37.3678H71.1357Z" fill="#D0F6FC"/>
<path d="M127.551 26.1152H74.7182C71.3189 26.1152 68.562 28.9298 68.562 32.403V148.156C68.562 151.629 71.3188 154.444 74.7182 154.444H127.551C130.952 154.444 133.708 151.629 133.708 148.156V32.403C133.708 28.9299 130.952 26.1152 127.551 26.1152ZM131.173 147.041C131.173 148.928 129.675 150.457 127.829 150.457H74.4422C72.5947 150.457 71.0966 148.928 71.0966 147.041V32.4673C71.0966 30.3616 72.7677 28.656 74.8281 28.656H127.441C129.502 28.656 131.173 30.3616 131.173 32.4673L131.173 147.041Z" fill="#20111D"/>
<path d="M131.174 37.3564V148.253C131.174 149.471 130.206 150.457 129.015 150.457H73.2549C72.0632 150.457 71.0972 149.471 71.0972 148.253V37.3564H71.1358V37.3677H131.152V37.3564H131.174Z" fill="#D0F6FC"/>
<path d="M86.6342 37.3677H84.5415L84.5503 56.7625H71.0972V58.8999H84.5515L84.5581 73.2435H71.0972V75.381H84.5591L84.569 97.4117H71.0972V99.5491H84.5701L84.58 120.268H71.0972V122.405H84.5812L84.5943 150.457H86.6871L86.6772 129.249H114.114V138.043H102.769V150.457H104.862V140.18H131.174V138.043H116.207V129.249H131.132V127.111H102.218L102.209 117.25H124.688L124.697 88.7492H131.174V86.6117H124.697L124.702 75.381H131.174V73.2436H124.702L124.706 58.9H131.174V56.7625H124.707V48.2498H131.174V46.1123H86.6387L86.6342 37.3677ZM86.6441 58.8999H109.268V66.6814C105.944 67.155 103.307 69.8483 102.843 73.2435H86.6508L86.6441 58.8999ZM110.314 68.7436C113.32 68.7436 115.767 71.2422 115.767 74.3123C115.767 77.3824 113.32 79.881 110.314 79.881C107.308 79.881 104.862 77.3823 104.862 74.3123C104.862 71.2421 107.308 68.7436 110.314 68.7436ZM86.6519 75.381H102.843C103.307 78.7762 105.944 81.4694 109.268 81.943V86.6117H86.6574L86.6519 75.381ZM86.6762 127.111L86.6586 88.7493H100.09L100.125 127.111H86.6762ZM122.595 115.112H102.207L102.182 88.7492H122.604L122.595 115.112ZM122.604 86.6118H111.361V81.9431C114.685 81.4695 117.322 78.7763 117.785 75.3811H122.609L122.604 86.6118ZM122.609 73.2436H117.785C117.322 69.8483 114.685 67.1551 111.361 66.6815V58.9H122.613L122.609 73.2436ZM107.817 48.2497H122.614V56.7625H107.817V48.2497ZM105.725 56.7625H86.6431L86.6387 48.2497H105.725V56.7625Z" fill="white"/>
<path d="M115.436 139.618H105.523V138.718H114.555V128.818H100.677V115.768H123.146V88.3183H109.819V81.5548C107.556 81.4142 105.713 80.1812 104.466 77.9677C103.749 76.6944 103.417 75.4327 103.287 74.8185H85.1462V59.7437H86.0273V73.9185H104.03L104.086 74.3017C104.089 74.3175 104.339 75.9461 105.243 77.5414C106.419 79.6163 108.107 80.6684 110.259 80.6684H110.7V87.4184H124.027V116.668H101.558V127.918H115.436V139.618H115.436Z" fill="#80C4A4"/>
<path d="M107.395 60.5312H88.5606V64.2437H107.395V60.5312Z" fill="#D0F6FC"/>
<path d="M112.903 93.1558H108.827V96.8682H112.903V93.1558Z" fill="#D0F6FC"/>
<path d="M129.645 91.2437H125.569V94.9561H129.645V91.2437Z" fill="#D0F6FC"/>
<path d="M115.877 103.506H111.801V107.218H115.877V103.506Z" fill="#D0F6FC"/>
<path d="M121.824 131.968H117.749V135.681H121.824V131.968Z" fill="#D0F6FC"/>
<path d="M130.085 131.968H126.01V135.681H130.085V131.968Z" fill="#D0F6FC"/>
<path d="M129.865 142.206H107.065V145.918H129.865V142.206Z" fill="#D0F6FC"/>
<path d="M76.0042 83.3687H71.9288V87.0811H76.0042V83.3687Z" fill="#D0F6FC"/>
<path d="M93.407 79.0938H89.3316V82.8062H93.407V79.0938Z" fill="#D0F6FC"/>
<path d="M76.0042 89.4434H71.9288V93.1558H76.0042V89.4434Z" fill="#D0F6FC"/>
<path d="M102.108 79.0938H98.0331V82.8062H102.108V79.0938Z" fill="#D0F6FC"/>
<path d="M121.053 81.5688H116.978V85.2813H121.053V81.5688Z" fill="#D0F6FC"/>
<path d="M93.407 66.9438H89.3316V70.6563H93.407V66.9438Z" fill="#D0F6FC"/>
<path d="M101.117 66.9438H97.0418V70.6563H101.117V66.9438Z" fill="#D0F6FC"/>
<path d="M121.053 60.9814H116.978V64.6939H121.053V60.9814Z" fill="#D0F6FC"/>
<path d="M104.201 50.6313H100.126V54.3438H104.201V50.6313Z" fill="#D0F6FC"/>
<path d="M83.2737 60.5312H72.8099V64.2437H83.2737V60.5312Z" fill="#D0F6FC"/>
<path d="M83.2737 68.1812H72.8099V71.8936H83.2737V68.1812Z" fill="#D0F6FC"/>
<path d="M82.3926 77.2939H71.9288V81.0064H82.3926V77.2939Z" fill="#D0F6FC"/>
<path d="M82.6128 38.5942H78.5375V54.3441H82.6128V38.5942Z" fill="#D0F6FC"/>
<path d="M76.0042 38.5942H71.9288V54.3441H76.0042V38.5942Z" fill="#D0F6FC"/>
<path d="M117.859 50.6313H113.784V54.3438H117.859V50.6313Z" fill="#D0F6FC"/>
<path d="M131.187 40.394H88.6708V44.1065H131.187V40.394Z" fill="#D0F6FC"/>
<path d="M98.2534 50.6313H94.178V54.3438H98.2534V50.6313Z" fill="#D0F6FC"/>
<path d="M92.3055 50.6313H88.2302V54.3438H92.3055V50.6313Z" fill="#D0F6FC"/>
<path d="M112.352 118.468H103.54V122.181H112.352V118.468Z" fill="#D0F6FC"/>
<path d="M98.2534 91.2437H94.178V104.181H98.2534V91.2437Z" fill="#D0F6FC"/>
<path d="M83.1635 125.105H79.0882V138.043H83.1635V125.105Z" fill="#D0F6FC"/>
<path d="M92.3055 130.73H88.2302V143.668H92.3055V130.73Z" fill="#D0F6FC"/>
<path d="M101.117 136.693H97.0418V149.631H101.117V136.693Z" fill="#D0F6FC"/>
<path d="M112.572 136.693V132.531H97.0419V136.693H112.572Z" fill="#D0F6FC"/>
<path d="M83.6042 140.293H79.5288V145.918H83.6042V140.293Z" fill="#D0F6FC"/>
<path d="M98.2534 108.793H94.178V112.506H98.2534V108.793Z" fill="#D0F6FC"/>
<path d="M117.639 110.144H105.964V113.856H117.639V110.144Z" fill="#D0F6FC"/>
<path d="M121.714 90.7935H117.639V113.856H121.714V90.7935Z" fill="#D0F6FC"/>
<path d="M125.569 118.468H113.894V122.181H125.569V118.468Z" fill="#D0F6FC"/>
<path d="M129.645 99.1187H125.569V122.181H129.645V99.1187Z" fill="#D0F6FC"/>
<path d="M82.2824 101.593H78.2071V105.306H82.2824V101.593Z" fill="#D0F6FC"/>
<path d="M76.0042 101.593H71.9288V105.306H76.0042V101.593Z" fill="#D0F6FC"/>
<path d="M76.0042 114.756H71.9288V118.468H76.0042V114.756Z" fill="#D0F6FC"/>
<path d="M98.2534 115.881H94.178V119.593H98.2534V115.881Z" fill="#D0F6FC"/>
<path d="M82.8729 53.117L85.5155 58.4743L88.2893 53.1867C89.1105 51.2472 87.7923 49.0344 85.7251 48.9467C85.6945 48.9454 85.6639 48.9446 85.6331 48.9441C85.6023 48.9437 85.5715 48.9438 85.5409 48.9443C83.4723 48.9789 82.0999 51.157 82.8729 53.117ZM85.6123 50.6234C86.369 50.6332 86.9747 51.2676 86.9652 52.0405C86.9556 52.8134 86.3345 53.4321 85.5777 53.4223C84.821 53.4126 84.2153 52.7781 84.2248 52.0052C84.2344 51.2324 84.8556 50.6137 85.6123 50.6234Z" fill="#ED2B47"/>
<path d="M101.377 134.904L104.02 140.261L106.794 134.973C107.615 133.034 106.297 130.821 104.23 130.733C104.199 130.732 104.168 130.731 104.137 130.731C104.107 130.73 104.076 130.73 104.045 130.731C101.977 130.765 100.604 132.944 101.377 134.904ZM104.117 132.41C104.873 132.42 105.479 133.054 105.47 133.827C105.46 134.6 104.839 135.219 104.082 135.209C103.325 135.199 102.72 134.565 102.729 133.792C102.739 133.019 103.36 132.4 104.117 132.41Z" fill="#ED2B47"/>
<path d="M128.64 28.6562H73.6075C72.221 28.6562 71.0967 29.8039 71.0967 31.2205V37.3678H71.1356H131.129H131.151V31.2205C131.151 29.8038 130.027 28.6562 128.64 28.6562Z" fill="#4CB7D8"/>
<g opacity="0.7">
<path d="M76.0088 33.0594C76.0088 33.4033 75.804 33.6994 75.5093 33.8315C75.404 33.8794 75.2859 33.9064 75.1618 33.9064C75.0389 33.9064 74.922 33.8794 74.8155 33.8315C74.5208 33.7004 74.3149 33.4033 74.3149 33.0594C74.3149 32.5915 74.6951 32.2124 75.1618 32.2124C75.6297 32.2125 76.0088 32.5915 76.0088 33.0594Z" fill="white"/>
<path d="M78.6291 33.0594C78.6291 33.4033 78.4244 33.6994 78.1296 33.8315C78.0244 33.8794 77.9062 33.9064 77.7822 33.9064C77.6582 33.9064 77.5401 33.8794 77.4348 33.8315C77.14 33.6994 76.9352 33.4033 76.9352 33.0594C76.9352 32.5915 77.3143 32.2124 77.7822 32.2124C78.2502 32.2124 78.6291 32.5915 78.6291 33.0594Z" fill="white"/>
<path d="M81.2495 33.0594C81.2495 33.4033 81.0447 33.6994 80.75 33.8315C80.6447 33.8794 80.5266 33.9064 80.4026 33.9064C80.2786 33.9064 80.1604 33.8794 80.0552 33.8315C79.7604 33.6994 79.5557 33.4033 79.5557 33.0594C79.5557 32.5915 79.9347 32.2124 80.4026 32.2124C80.8705 32.2125 81.2495 32.5915 81.2495 33.0594Z" fill="white"/>
<path d="M121.348 31.5352V32.1399H121.006V33.1775H121.348V33.9063H128.006V31.5352H121.348ZM121.577 31.7293H127.778V33.7133H121.577V31.7293Z" fill="white"/>
<path d="M127.401 32.0381H126.743V33.3938H127.401V32.0381Z" fill="white"/>
<path d="M126.297 32.0381H125.64V33.3938H126.297V32.0381Z" fill="white"/>
<path d="M125.164 32.0381H124.506V33.3938H125.164V32.0381Z" fill="white"/>
</g>
<path d="M227.712 48.5088C184.441 63.2253 179.869 64.3725 176.465 64.0166L170.137 62.4566L169.334 63.0233L169.297 62.9385C169.297 62.9385 169.14 63.1613 168.863 63.5513L166.437 66.2712L166.668 66.6459C164.035 70.3546 148.756 70.5633 147.723 71.9605C146.099 74.1575 127.441 78.6894 127.731 81.4283C128.022 84.1674 152.447 104.781 152.447 104.781C152.447 104.781 164.202 103.739 166.578 102.149C167.912 101.257 185.874 94.3065 185.874 94.3065C187.116 93.7181 187.461 93.4113 190.536 91.462C191.619 90.7758 196.782 88.9197 198.018 88.5811C206.47 86.2659 217.279 83.9179 227.712 81.7071L227.712 48.5088Z" fill="#FE9F73"/>
<path d="M170.726 83.8252C170.746 83.7942 170.758 83.7572 170.759 83.7175C170.76 83.6057 170.67 83.5141 170.559 83.5127C170.536 83.5124 168.218 83.4701 164.626 82.1972C161.311 81.0221 156.201 78.5278 150.686 73.3185C150.604 73.2417 150.476 73.2453 150.4 73.3266C150.323 73.4079 150.326 73.536 150.408 73.6128C155.983 78.879 161.155 81.3995 164.513 82.5865C168.162 83.8768 170.458 83.9165 170.554 83.9176C170.626 83.9183 170.69 83.8815 170.726 83.8252Z" fill="black"/>
<path d="M186.009 94.4278C186.023 94.3901 186.024 94.3472 186.008 94.3069C185.973 94.2203 185.875 94.1782 185.789 94.2127L167.016 101.709C166.929 101.744 166.887 101.842 166.922 101.928C166.956 102.015 167.054 102.057 167.141 102.022L185.914 94.5262C185.96 94.5077 185.993 94.4711 186.009 94.4278Z" fill="black"/>
<path d="M125.181 70.0698L122.941 73.5892L122.794 73.8204L120.554 77.3398L158.773 105.573C159.848 106.367 161.37 106.084 162.088 104.957L167.788 95.9998C168.505 94.8723 168.117 93.373 166.942 92.7356L125.181 70.0698Z" fill="#EF3A4C"/>
<path d="M126.444 69.9508L121.42 77.8455C121.107 78.3374 119.748 78.9197 119.256 78.6067L115.287 76.2531L121.925 65.8232L126.121 68.4935C126.612 68.8064 126.757 69.4589 126.444 69.9508Z" fill="#3F9896"/>
<path d="M125.206 72.2793L121.593 77.9567C120.956 78.9588 119.621 79.2553 118.619 78.6175L115.177 76.4269L115.398 76.0801L118.84 78.2708C119.651 78.7868 120.731 78.547 121.247 77.736L124.86 72.0586L125.206 72.2793Z" fill="#21111D"/>
<path opacity="0.5" d="M104.142 80.8812C116.317 78.1733 123.989 66.1003 121.279 53.9153C118.569 41.7304 106.502 34.0478 94.3276 36.7556C82.1528 39.4635 74.4801 51.5365 77.1902 63.7215C79.9003 75.9064 91.967 83.589 104.142 80.8812Z" fill="#88DFED"/>
<path opacity="0.57" d="M94.7099 47.5039C99.0463 45.7247 101.873 42.6035 101.023 40.5325C100.173 38.4614 95.9692 38.2249 91.6328 40.0041C87.2964 41.7833 84.4698 44.9045 85.3195 46.9755C86.1693 49.0465 90.3735 49.2831 94.7099 47.5039Z" fill="#F3FFFE"/>
<path d="M121.536 77.688L121.291 78.0181L159.167 106.109L159.412 105.779L121.536 77.688Z" fill="#21111D"/>
<path d="M87.108 77.8826C76.5807 71.1831 73.4777 57.218 80.1772 46.6906C86.8768 36.1633 100.842 33.0602 111.369 39.7599C121.897 46.4594 125 60.4245 118.3 70.9519C111.601 81.4792 97.6354 84.5823 87.108 77.8826ZM121.331 72.881C129.096 60.6795 125.5 44.4935 113.298 36.7286C101.097 28.9636 84.911 32.56 77.146 44.7616C69.381 56.9631 72.9775 73.1491 85.179 80.914C97.3804 88.679 113.566 85.0825 121.331 72.881Z" fill="#3F9896"/>
<path d="M121.505 72.9913C113.691 85.2688 97.3462 88.9007 85.0687 81.0873C72.791 73.2739 69.1592 56.9286 76.9726 44.6511C80.6355 38.8953 86.2995 34.8272 92.9214 33.1958L93.0197 33.5948C86.5012 35.2008 80.9252 39.2057 77.3194 44.8718C69.6277 56.9581 73.2031 73.0488 85.2894 80.7406C97.3758 88.4323 113.466 84.857 121.158 72.7706C124.728 67.1607 126.007 60.4757 124.759 53.9474L125.163 53.8702C126.431 60.5018 125.131 67.2925 121.505 72.9913Z" fill="#21111D"/>
<path d="M144.282 71.1882L155.884 74.5718L174.046 63.3906C174.046 63.3906 158.358 58.0041 155.326 58.562C152.294 59.1198 146.376 60.6922 143.206 60.7088C140.037 60.7254 137.187 63.6276 133.897 65.577C130.608 67.5263 126.625 65.4632 126.532 68.3943C126.438 71.3254 131.3 75.2941 135.982 73.8585C140.663 72.4228 144.282 71.1882 144.282 71.1882Z" fill="#FE9F73"/>
<path d="M174.922 63.714C174.923 63.7124 174.923 63.7108 174.923 63.7108C174.954 63.6208 174.906 63.5252 174.818 63.4955C174.751 63.4731 168.066 61.2309 161.966 59.5061C156.59 57.9858 155.153 58.3317 152.774 58.9049C152.407 58.9933 152.027 59.0846 151.605 59.1759C149.992 59.524 148.149 59.7632 146.367 59.9944C144.71 60.2094 143.145 60.4125 141.986 60.6802C139.602 61.2304 134.699 64.9609 134.491 65.1194C134.417 65.176 134.403 65.2819 134.46 65.3559C134.516 65.4299 134.622 65.4441 134.696 65.3875C134.746 65.3492 139.749 61.5428 142.061 61.0089C143.205 60.7449 144.762 60.5428 146.411 60.329C148.2 60.0968 150.049 59.8568 151.676 59.5056C152.102 59.4136 152.484 59.3217 152.852 59.233C155.179 58.6726 156.583 58.3344 161.874 59.8307C167.966 61.5534 174.644 63.793 174.71 63.8153C174.797 63.8445 174.891 63.7992 174.922 63.714Z" fill="black"/>
<path d="M144.424 71.2406C144.437 71.2058 144.439 71.1666 144.426 71.1288C144.396 71.0404 144.301 70.9927 144.212 71.0222L140.797 72.1634C134.397 74.8682 131.378 73.5378 131.348 73.524C128.818 72.4196 127.673 71.0159 127.157 70.0326C126.6 68.9711 126.637 68.1572 126.637 68.1491C126.642 68.0563 126.571 67.9767 126.478 67.9715C126.385 67.9662 126.306 68.037 126.3 68.1299C126.298 68.166 126.255 69.0276 126.847 70.167C127.385 71.2051 128.58 72.6836 131.21 73.8315C131.331 73.8888 134.368 75.2454 140.922 72.4766L144.319 71.3422C144.37 71.3254 144.407 71.2869 144.424 71.2406Z" fill="black"/>
<path d="M127.542 69.0544C127.373 68.3259 127.286 67.6318 127.251 66.9967C128.416 66.3253 130.807 66.8817 133.059 65.9863L133.059 65.9874C133.059 65.9874 133.225 67.1804 132.851 68.1935C132.478 69.2065 131.968 69.4076 131.968 69.4076L128.849 69.8592C128.244 69.9469 127.668 69.5949 127.542 69.0544Z" fill="#F07162"/>
<path d="M173.89 68.9685C173.908 68.9189 173.9 68.8612 173.865 68.8172C172.662 67.3374 169.76 66.4411 169.637 66.4037C169.555 66.3788 169.469 66.4251 169.444 66.5066C169.419 66.5884 169.465 66.6748 169.547 66.6997C169.576 66.7086 172.482 67.6061 173.624 69.0123C173.678 69.0787 173.776 69.0888 173.842 69.0348C173.864 69.0167 173.88 68.9936 173.89 68.9685Z" fill="black"/>
<path d="M174.137 71.0914C174.152 71.0526 174.15 71.0083 174.13 70.9684C173.276 69.264 170.635 67.7627 170.523 67.6996C170.449 67.6577 170.354 67.6841 170.312 67.7585C170.27 67.8331 170.297 67.9274 170.371 67.9693C170.398 67.9842 173.041 69.4875 173.854 71.1072C173.892 71.1836 173.985 71.2144 174.061 71.176C174.098 71.1578 174.124 71.127 174.137 71.0914Z" fill="black"/>
<path d="M141.754 65.9026C141.765 65.8724 141.768 65.8387 141.76 65.8051C141.375 64.1961 141.599 62.2271 141.602 62.2074C141.613 62.1148 141.546 62.031 141.454 62.0202C141.361 62.0094 141.277 62.0759 141.267 62.1681C141.257 62.251 141.033 64.2168 141.431 65.8835C141.453 65.9742 141.544 66.0301 141.635 66.0084C141.692 65.9948 141.735 65.9537 141.754 65.9026Z" fill="black"/>
<path d="M143.181 65.3503C143.192 65.3202 143.195 65.2865 143.187 65.2528C142.802 63.6438 143.026 61.6749 143.029 61.6552C143.039 61.5626 142.973 61.4787 142.881 61.4679C142.788 61.4572 142.705 61.5237 142.693 61.6159C142.684 61.6988 142.46 63.6645 142.858 65.3313C142.88 65.422 142.971 65.4778 143.062 65.4562C143.119 65.4426 143.162 65.4015 143.181 65.3503Z" fill="black"/>
<path d="M130.303 98.0238C132.195 100.101 134.916 100.594 136.232 99.3856L149.896 87.1347C151.528 85.6718 151.737 83.0531 150.235 81.1852C148.589 79.138 145.712 78.7897 143.953 80.3671L130.591 92.3473C128.979 93.7926 128.787 96.2754 130.204 97.9124C130.236 97.9495 130.269 97.9867 130.303 98.0238Z" fill="#FE9F73"/>
<path d="M137.783 102.839C139.638 104.948 142.38 105.443 142.822 105.063L157.616 92.3492C159.279 90.9207 159.538 88.3111 158.07 86.4175C156.46 84.3426 153.586 83.9391 151.793 85.4798L137.638 98.0808C137.288 98.3943 136.892 99.0204 136.799 99.4809C136.638 100.278 136.651 101.552 137.783 102.839Z" fill="#FE9F73"/>
<path d="M146.529 105.799C147.982 107.488 149.939 108.012 151.557 106.731L162.372 97.6744C163.706 96.5582 163.936 94.4932 162.788 92.9794C161.53 91.3203 159.251 90.9737 157.813 92.1775L146.089 102.256C145.887 102.429 145.747 102.664 145.694 102.925C145.572 103.523 145.537 104.647 146.529 105.799Z" fill="#FE9F73"/>
<path d="M125.891 91.0968C127.453 92.8118 129.147 93.4354 130.079 92.8558L142.069 82.1062C143.416 80.8984 143.589 78.7363 142.349 77.194C140.99 75.5038 138.614 75.2161 137.161 76.5187L126.067 86.4656C124.817 87.586 124.623 89.4893 125.653 90.8141C125.726 90.9085 125.806 91.0028 125.891 91.0968Z" fill="#FE9F73"/>
<path d="M158.239 86.5279C158.285 86.4577 158.284 86.3635 158.23 86.2935C157.383 85.2023 156.142 84.5001 154.823 84.367C153.642 84.2479 152.519 84.5886 151.661 85.3264L140.464 95.3515C140.381 95.426 140.373 95.554 140.448 95.6374C140.523 95.7207 140.651 95.7278 140.734 95.6531L151.928 85.6308C152.698 84.9687 153.713 84.6621 154.782 84.77C155.991 84.8919 157.131 85.5377 157.91 86.5417C157.978 86.6301 158.105 86.6462 158.194 86.5776C158.212 86.5634 158.227 86.5465 158.239 86.5279Z" fill="black"/>
<path d="M145.112 103.351C145.16 103.278 145.156 103.179 145.096 103.109C145.023 103.024 144.895 103.015 144.81 103.087L143.097 104.56C142.136 105.36 139.723 104.738 137.935 102.705C137.861 102.621 137.733 102.613 137.649 102.687C137.565 102.761 137.557 102.888 137.631 102.972C139.625 105.241 142.25 105.792 143.359 104.869L145.074 103.395C145.089 103.382 145.102 103.367 145.112 103.351Z" fill="black"/>
<path d="M162.958 93.0897C163.003 93.0202 163.002 92.927 162.949 92.8571C162.281 91.9757 161.291 91.4019 160.235 91.2826C159.287 91.1757 158.381 91.4384 157.684 92.0223L145.957 102.102C145.872 102.175 145.863 102.303 145.935 102.388C146.008 102.472 146.136 102.482 146.221 102.409L157.945 92.3311C158.555 91.8207 159.353 91.5906 160.189 91.685C161.136 91.7919 162.025 92.3083 162.627 93.1018C162.694 93.1909 162.821 93.2084 162.91 93.1408C162.929 93.1263 162.945 93.1089 162.958 93.0897Z" fill="black"/>
<path d="M142.809 81.55C143.668 80.2268 143.586 78.4098 142.506 77.0673C142.436 76.9802 142.309 76.9663 142.222 77.0364C142.134 77.1066 142.121 77.2339 142.191 77.321C143.345 78.7561 143.232 80.7918 141.933 81.9556L134.792 88.3583C134.709 88.4329 134.702 88.561 134.777 88.6442C134.851 88.7274 134.979 88.7344 135.063 88.6598L142.204 82.2571C142.441 82.0448 142.643 81.8066 142.809 81.55Z" fill="black"/>
<path d="M130.249 92.9664C130.29 92.9026 130.294 92.818 130.251 92.7491C130.192 92.6541 130.067 92.625 129.972 92.6841C129.084 93.2361 127.468 92.5275 126.041 90.9607C125.966 90.878 125.838 90.872 125.755 90.9473C125.672 91.0226 125.666 91.1506 125.741 91.2333C127.327 92.9739 129.113 93.6952 130.186 93.028C130.212 93.0118 130.233 92.9906 130.249 92.9664Z" fill="black"/>
<path d="M151.365 83.4455C151.389 83.4079 151.401 83.3619 151.396 83.3139C151.187 81.3555 149.284 79.7071 147.642 79.3029C146.197 78.9474 144.624 79.4933 143.818 80.2163C143.128 80.8343 140.314 83.4069 140.286 83.4327C140.204 83.5081 140.198 83.6362 140.273 83.7188C140.349 83.8013 140.477 83.807 140.559 83.7316C140.587 83.7057 143.4 81.1343 144.088 80.5178C144.797 79.8817 146.25 79.3776 147.545 79.6961C148.811 80.0077 150.783 81.3867 150.993 83.357C151.005 83.4681 151.105 83.5487 151.216 83.5367C151.279 83.5299 151.333 83.4948 151.365 83.4455Z" fill="black"/>
<path d="M136.402 99.4958C136.45 99.4226 136.446 99.3242 136.387 99.2544C136.314 99.1692 136.186 99.1589 136.101 99.2313C134.686 100.435 132.37 99.5166 131.159 98.6056C131.07 98.5384 130.943 98.5563 130.876 98.6458C130.808 98.7352 130.826 98.8621 130.916 98.9292C132.231 99.9184 134.767 100.897 136.364 99.5398C136.379 99.5267 136.392 99.5119 136.402 99.4958Z" fill="black"/>
<path d="M139.563 82.8201L142.034 80.4662C142.529 80.0015 142.394 78.3794 141.522 77.4497C140.649 76.5199 139.039 76.2824 138.544 76.7472L136.072 79.1011C135.71 79.4412 136.078 80.6281 136.918 81.5421C137.803 82.5043 139.181 83.1781 139.563 82.8201Z" fill="#F07162"/>
<path d="M147.672 86.7283L150.008 84.8037C150.503 84.3391 150.239 82.5795 149.238 81.5124C148.236 80.4452 146.497 80.0703 146.002 80.535L143.834 82.6045C143.245 83.0542 143.652 84.5391 144.617 85.587C145.634 86.69 146.964 87.1394 147.672 86.7283Z" fill="#F07162"/>
<path d="M155.568 92.3709L158.037 90.0142C158.532 89.5496 158.268 87.79 157.267 86.7228C156.265 85.6556 154.526 85.2808 154.031 85.7455L151.562 88.1021C151.2 88.4423 151.681 89.7495 152.647 90.7974C153.663 91.9004 155.187 92.7289 155.568 92.3709Z" fill="#F07162"/>
<path d="M160.624 98.098L162.781 96.1226C163.214 95.7332 163.019 94.2212 162.18 93.2892C161.34 92.3572 159.857 92.0054 159.425 92.3947L157.268 94.3701C156.951 94.6551 157.34 95.7836 158.149 96.6983C159.001 97.6614 160.291 98.398 160.624 98.098Z" fill="#F07162"/>
</g>
<g filter="url(#filter0_f_11345_8404)">
<rect x="215.661" y="43.9155" width="24.3386" height="42.8571" fill="#F4F2F9"/>
</g>
</g>
<defs>
<filter id="filter0_f_11345_8404" x="207.661" y="35.9155" width="40.3386" height="58.8569" filterUnits="userSpaceOnUse" color-interpolation-filters="sRGB">
<feFlood flood-opacity="0" result="BackgroundImageFix"/>
<feBlend mode="normal" in="SourceGraphic" in2="BackgroundImageFix" result="shape"/>
<feGaussianBlur stdDeviation="4" result="effect1_foregroundBlur_11345_8404"/>
</filter>
</defs>
</svg>
