<svg width="18" height="21" viewBox="0 0 18 21" fill="none" xmlns="http://www.w3.org/2000/svg">
<path d="M7.95 16.5622L4.4 13.1014L5.85 11.6879L7.95 13.7351L12.15 9.64064L13.6 11.0542L7.95 16.5622ZM2 20.1205C1.45 20.1205 0.979167 19.9296 0.5875 19.5478C0.195833 19.166 0 18.707 0 18.1708V4.52254C0 3.98636 0.195833 3.52736 0.5875 3.14553C0.979167 2.76371 1.45 2.5728 2 2.5728H3V0.623047H5V2.5728H13V0.623047H15V2.5728H16C16.55 2.5728 17.0208 2.76371 17.4125 3.14553C17.8042 3.52736 18 3.98636 18 4.52254V18.1708C18 18.707 17.8042 19.166 17.4125 19.5478C17.0208 19.9296 16.55 20.1205 16 20.1205H2ZM2 18.1708H16V8.42204H2V18.1708Z" fill="#817EB1"/>
</svg>
