<svg width="24" height="24" viewBox="0 0 24 24" fill="none" xmlns="http://www.w3.org/2000/svg">
<g id="material-symbols-light:other-admission-rounded">
<path id="Vector" d="M15.827 18.789C16.0137 18.789 16.1727 18.7233 16.304 18.592C16.4347 18.4613 16.5 18.3027 16.5 18.116C16.5 17.9287 16.4347 17.7697 16.304 17.639C16.1733 17.5077 16.0143 17.442 15.827 17.442C15.6397 17.442 15.4807 17.5077 15.35 17.639C15.2193 17.7703 15.154 17.9293 15.154 18.116C15.154 18.3027 15.2193 18.4613 15.35 18.592C15.4807 18.7233 15.6397 18.789 15.827 18.789ZM18 18.789C18.1867 18.789 18.3457 18.7233 18.477 18.592C18.6077 18.4613 18.673 18.3027 18.673 18.116C18.673 17.9287 18.6077 17.7697 18.477 17.639C18.3463 17.5077 18.1873 17.442 18 17.442C17.8127 17.442 17.6537 17.5077 17.523 17.639C17.3923 17.7703 17.327 17.9293 17.327 18.116C17.327 18.3027 17.3923 18.4613 17.523 18.592C17.6537 18.7233 17.8127 18.789 18 18.789ZM20.173 18.789C20.3597 18.789 20.5187 18.7233 20.65 18.592C20.7807 18.4613 20.846 18.3027 20.846 18.116C20.846 17.9287 20.7807 17.7697 20.65 17.639C20.5193 17.5077 20.3603 17.442 20.173 17.442C19.9857 17.442 19.8267 17.5077 19.696 17.639C19.5653 17.7703 19.5 17.9293 19.5 18.116C19.5 18.3027 19.5653 18.4613 19.696 18.592C19.8267 18.7233 19.9857 18.789 20.173 18.789ZM18 22.115C16.886 22.115 15.941 21.727 15.165 20.951C14.3883 20.175 14 19.23 14 18.116C14 17.002 14.3883 16.0567 15.165 15.28C15.9417 14.5033 16.8867 14.1153 18 14.116C19.1133 14.1167 20.0587 14.5047 20.836 15.28C21.6133 16.0553 22.0013 17.0007 22 18.116C22 19.2293 21.612 20.1743 20.836 20.951C20.0587 21.7277 19.1133 22.115 18 22.115ZM8 8.73H16C16.142 8.73 16.2607 8.682 16.356 8.586C16.452 8.49 16.5 8.371 16.5 8.229C16.5 8.087 16.452 7.96833 16.356 7.873C16.26 7.77767 16.1413 7.73033 16 7.731H8C7.858 7.731 7.73933 7.779 7.644 7.875C7.54867 7.971 7.50067 8.09 7.5 8.232C7.49933 8.374 7.54733 8.49267 7.644 8.588C7.74067 8.68333 7.85933 8.73067 8 8.73ZM5.616 20C5.17133 20 4.791 19.8417 4.475 19.525C4.159 19.2083 4.00067 18.8287 4 18.386V5.615C4 5.171 4.15833 4.791 4.475 4.475C4.79167 4.159 5.17167 4.00067 5.615 4H18.385C18.829 4 19.209 4.15833 19.525 4.475C19.841 4.79167 19.9993 5.17167 20 5.615V10.623C20 10.8743 19.907 11.07 19.721 11.21C19.535 11.35 19.3197 11.3953 19.075 11.346C18.907 11.3013 18.7323 11.271 18.551 11.255C18.3697 11.239 18.186 11.2307 18 11.23C17.6627 11.23 17.3347 11.2567 17.016 11.31C16.698 11.3633 16.385 11.4387 16.077 11.536C16.0023 11.5193 15.919 11.509 15.827 11.505C15.7357 11.501 15.6523 11.499 15.577 11.499H8C7.858 11.499 7.73933 11.547 7.644 11.643C7.54867 11.739 7.50067 11.858 7.5 12C7.49933 12.142 7.54733 12.2607 7.644 12.356C7.74067 12.4513 7.85933 12.4993 8 12.5H14.087C13.5817 12.8473 13.1377 13.255 12.755 13.723C12.3723 14.191 12.0573 14.7063 11.81 15.269H8C7.858 15.269 7.73933 15.317 7.644 15.413C7.548 15.509 7.5 15.628 7.5 15.77C7.5 15.912 7.548 16.0307 7.644 16.126C7.74 16.2213 7.85867 16.269 8 16.269H11.46C11.388 16.551 11.3317 16.8353 11.291 17.122C11.251 17.4087 11.231 17.7013 11.231 18C11.231 18.1667 11.2347 18.3423 11.242 18.527C11.25 18.7117 11.27 18.9007 11.302 19.094C11.334 19.326 11.2823 19.535 11.147 19.721C11.0117 19.907 10.8287 20 10.598 20H5.616Z" fill="#727176"/>
</g>
</svg>
