<svg width="24" height="24" viewBox="0 0 24 24" fill="none" xmlns="http://www.w3.org/2000/svg">
<g id="solar:logout-2-bold">
<path id="Vector" fill-rule="evenodd" clip-rule="evenodd" d="M16.125 11.9999C16.125 11.801 16.046 11.6102 15.9053 11.4695C15.7647 11.3289 15.5739 11.2499 15.375 11.2499H4.40199L6.36299 9.56987C6.43785 9.50579 6.49934 9.42759 6.54398 9.33974C6.58861 9.25188 6.6155 9.1561 6.62311 9.05786C6.63073 8.95961 6.61892 8.86083 6.58835 8.76715C6.55779 8.67347 6.50908 8.58673 6.44499 8.51187C6.38091 8.43702 6.30271 8.37552 6.21486 8.33089C6.127 8.28626 6.03122 8.25937 5.93298 8.25176C5.83473 8.24414 5.73595 8.25595 5.64227 8.28651C5.54859 8.31708 5.46185 8.36579 5.38699 8.42987L1.88699 11.4299C1.80466 11.5003 1.73855 11.5877 1.69323 11.6861C1.64791 11.7845 1.62444 11.8915 1.62444 11.9999C1.62444 12.1082 1.64791 12.2153 1.69323 12.3137C1.73855 12.4121 1.80466 12.4995 1.88699 12.5699L5.38699 15.5699C5.53817 15.6993 5.73456 15.7634 5.93298 15.748C6.13139 15.7326 6.31557 15.639 6.44499 15.4879C6.57442 15.3367 6.63849 15.1403 6.62311 14.9419C6.60773 14.7435 6.51417 14.5593 6.36299 14.4299L4.40299 12.7499H15.375C15.5739 12.7499 15.7647 12.6709 15.9053 12.5302C16.046 12.3896 16.125 12.1988 16.125 11.9999Z" fill="#E10000"/>
<path id="Vector_2" d="M9.375 8C9.375 8.702 9.375 9.053 9.544 9.306C9.61679 9.41478 9.71022 9.50821 9.819 9.581C10.072 9.75 10.423 9.75 11.125 9.75H15.375C15.9717 9.75 16.544 9.98705 16.966 10.409C17.3879 10.831 17.625 11.4033 17.625 12C17.625 12.5967 17.3879 13.169 16.966 13.591C16.544 14.0129 15.9717 14.25 15.375 14.25H11.125C10.423 14.25 10.072 14.25 9.819 14.418C9.71012 14.4911 9.61668 14.5849 9.544 14.694C9.375 14.947 9.375 15.298 9.375 16C9.375 18.828 9.375 20.243 10.254 21.121C11.132 22 12.546 22 15.374 22H16.374C19.204 22 20.617 22 21.496 21.121C22.375 20.243 22.375 18.828 22.375 16V8C22.375 5.172 22.375 3.757 21.496 2.879C20.617 2 19.203 2 16.375 2H15.375C12.546 2 11.132 2 10.254 2.879C9.375 3.757 9.375 5.172 9.375 8Z" fill="#E10000"/>
</g>
</svg>
