<svg width="24" height="24" viewBox="0 0 24 24" fill="none" xmlns="http://www.w3.org/2000/svg">
<g id="Component 15">
<mask id="mask0_10039_17252" style="mask-type:alpha" maskUnits="userSpaceOnUse" x="0" y="0" width="24" height="24">
<rect id="Bounding box" width="24" height="24" fill="#D9D9D9"/>
</mask>
<g mask="url(#mask0_10039_17252)">
<path id="orders" d="M4.50002 17.6922V7.59997L2.95002 4.22115C2.86542 4.03525 2.86029 3.84358 2.93464 3.64615C3.00901 3.44872 3.13914 3.30769 3.32502 3.22307C3.51092 3.13847 3.70259 3.13078 3.90002 3.2C4.09744 3.26923 4.23845 3.3968 4.32307 3.5827L6.14229 7.54997H17.8577L19.6769 3.5827C19.7615 3.3968 19.9026 3.26667 20.1 3.19232C20.2974 3.11796 20.4891 3.12864 20.675 3.22437C20.8609 3.30812 20.991 3.44872 21.0653 3.64615C21.1397 3.84358 21.1346 4.03525 21.05 4.22115L19.5 7.59997V17.6922C19.5 18.1893 19.323 18.6149 18.9689 18.9689C18.6149 19.3229 18.1894 19.4999 17.6923 19.4999H6.30772C5.8106 19.4999 5.38504 19.3229 5.03104 18.9689C4.67703 18.6149 4.50002 18.1893 4.50002 17.6922ZM9.99999 12.7499H14C14.2125 12.7499 14.3906 12.678 14.5344 12.5342C14.6781 12.3904 14.75 12.2122 14.75 11.9996C14.75 11.787 14.6781 11.6089 14.5344 11.4653C14.3906 11.3218 14.2125 11.25 14 11.25H9.99999C9.78749 11.25 9.60938 11.3219 9.46564 11.4657C9.32189 11.6095 9.25002 11.7877 9.25002 12.0003C9.25002 12.2129 9.32189 12.391 9.46564 12.5345C9.60938 12.6781 9.78749 12.7499 9.99999 12.7499Z" fill="#727176"/>
</g>
</g>
</svg>
