<svg width="24" height="24" viewBox="0 0 24 24" fill="none" xmlns="http://www.w3.org/2000/svg">
<g id="Component 15">
<mask id="mask0_10039_17217" style="mask-type:alpha" maskUnits="userSpaceOnUse" x="0" y="0" width="24" height="24">
<rect id="Bounding box" width="24" height="24" fill="#D9D9D9"/>
</mask>
<g mask="url(#mask0_10039_17217)">
<path id="credit_card" d="M4.30773 19.5C3.8026 19.5 3.37503 19.325 3.02503 18.975C2.67503 18.625 2.50003 18.1974 2.50003 17.6923V6.3077C2.50003 5.80257 2.67503 5.375 3.02503 5.025C3.37503 4.675 3.8026 4.5 4.30773 4.5H19.6923C20.1974 4.5 20.625 4.675 20.975 5.025C21.325 5.375 21.5 5.80257 21.5 6.3077V17.6923C21.5 18.1974 21.325 18.625 20.975 18.975C20.625 19.325 20.1974 19.5 19.6923 19.5H4.30773ZM4.00001 11.5961H20V8.40385H4.00001V11.5961Z" fill="#727176"/>
</g>
</g>
</svg>
