<svg width="24" height="24" viewBox="0 0 24 24" fill="none" xmlns="http://www.w3.org/2000/svg">
<g id="icon-park-solid:update-rotation">
<g id="Mask group">
<mask id="mask0_10039_17208" style="mask-type:luminance" maskUnits="userSpaceOnUse" x="1" y="1" width="22" height="22">
<g id="Group">
<g id="Group_2">
<path id="Vector" d="M12 22C17.523 22 22 17.523 22 12C22 6.477 17.523 2 12 2C6.477 2 2 6.477 2 12C2 17.523 6.477 22 12 22Z" fill="white" stroke="white" stroke-width="2" stroke-linecap="round" stroke-linejoin="round"/>
<path id="Vector_2" d="M16.771 13.5C16.134 15.5285 14.239 17 12 17C9.7615 17 7.866 15.5285 7.229 13.5V16.5M16.771 7.5V10.5C16.134 8.4715 14.239 7 12 7C9.7615 7 7.866 8.4715 7.229 10.5" stroke="black" stroke-width="2" stroke-linecap="round" stroke-linejoin="round"/>
</g>
</g>
</mask>
<g mask="url(#mask0_10039_17208)">
<path id="Vector_3" d="M0 0H24V24H0V0Z" fill="#727176"/>
</g>
</g>
</g>
</svg>
