<svg width="25" height="24" viewBox="0 0 25 24" fill="none" xmlns="http://www.w3.org/2000/svg">
<g id="Component 30">
<path id="Vector" d="M15.6048 4.60225C15.5688 4.82724 15.5508 5.05224 15.5508 5.27724C15.5508 7.30221 17.1888 8.93928 19.2048 8.93928C19.4298 8.93928 19.6458 8.91318 19.8708 8.87718V16.1392C19.8708 19.191 18.0708 21 15.0108 21H8.36083C5.29997 21 3.5 19.191 3.5 16.1392V9.48017C3.5 6.42022 5.29997 4.60225 8.36083 4.60225H15.6048ZM15.7857 10.0742C15.5418 10.0472 15.2997 10.1552 15.1548 10.3532L12.9778 13.1701L10.4839 11.2081C10.3309 11.0911 10.1509 11.0452 9.9709 11.0641C9.79181 11.0911 9.62981 11.1892 9.52091 11.3332L6.85785 14.7991L6.80295 14.8801C6.64995 15.1672 6.72195 15.5362 6.99195 15.7351C7.11795 15.8161 7.25294 15.8701 7.40594 15.8701C7.61384 15.8791 7.81094 15.7702 7.93693 15.6001L10.1959 12.6922L12.7609 14.6191L12.8419 14.6722C13.1299 14.8252 13.4899 14.7541 13.6968 14.4832L16.2978 11.1271L16.2618 11.1451C16.4058 10.9472 16.4328 10.6952 16.3338 10.4702C16.2357 10.2452 16.0188 10.0922 15.7857 10.0742ZM19.3309 3C20.5278 3 21.4998 3.97199 21.4998 5.16897C21.4998 6.36595 20.5278 7.33793 19.3309 7.33793C18.1339 7.33793 17.1619 6.36595 17.1619 5.16897C17.1619 3.97199 18.1339 3 19.3309 3Z" fill="#6B679F"/>
</g>
</svg>
