<svg width="25" height="24" viewBox="0 0 25 24" fill="none" xmlns="http://www.w3.org/2000/svg">
<g id="Component 30">
<path id="Path / map-marker-distance" d="M7.73204 8.74559C7.4326 8.74559 7.13988 8.6568 6.89091 8.49045C6.64193 8.32411 6.44788 8.08767 6.33328 7.81104C6.21869 7.53442 6.18871 7.23003 6.24713 6.93636C6.30555 6.6427 6.44974 6.37295 6.66148 6.16123C6.87322 5.94951 7.14298 5.80533 7.43667 5.74691C7.73036 5.6885 8.03477 5.71848 8.31142 5.83306C8.58807 5.94765 8.82452 6.14168 8.99088 6.39064C9.15724 6.6396 9.24604 6.93229 9.24604 7.23171C9.24604 7.63321 9.08653 8.01828 8.8026 8.30218C8.51867 8.58609 8.13358 8.74559 7.73204 8.74559ZM7.73204 3.00004C7.17562 2.99766 6.62423 3.10549 6.10971 3.3173C5.59518 3.52912 5.1277 3.84073 4.73425 4.23416C4.3408 4.62758 4.02916 5.09502 3.81733 5.6095C3.60549 6.12399 3.49766 6.67533 3.50004 7.23171C3.50004 10.3995 7.73204 15.0931 7.73204 15.0931C7.73204 15.0931 11.964 10.3995 11.964 7.23171C11.9664 6.67533 11.8586 6.12399 11.6467 5.6095C11.4349 5.09502 11.1233 4.62758 10.7298 4.23416C10.3364 3.84073 9.86889 3.52912 9.35437 3.3173C8.83984 3.10549 8.28846 2.99766 7.73204 3.00004ZM18.077 8.74559C17.7776 8.74559 17.4849 8.6568 17.2359 8.49045C16.9869 8.32411 16.7929 8.08767 16.6783 7.81104C16.5637 7.53442 16.5337 7.23003 16.5921 6.93636C16.6505 6.6427 16.7947 6.37295 17.0065 6.16123C17.2182 5.94951 17.488 5.80533 17.7817 5.74691C18.0754 5.6885 18.3798 5.71848 18.6564 5.83306C18.9331 5.94765 19.1695 6.14168 19.3359 6.39064C19.5022 6.6396 19.591 6.93229 19.591 7.23171C19.591 7.63321 19.4315 8.01828 19.1476 8.30218C18.8637 8.58609 18.4786 8.74559 18.077 8.74559ZM18.077 3.00004C17.5206 2.99766 16.9692 3.10549 16.4547 3.3173C15.9402 3.52912 15.4727 3.84073 15.0793 4.23416C14.6858 4.62758 14.3742 5.09502 14.1623 5.6095C13.9505 6.12399 13.8427 6.67533 13.845 7.23171C13.845 10.4005 18.077 15.0931 18.077 15.0931C18.077 15.0931 22.309 10.3995 22.309 7.23171C22.3114 6.67533 22.2036 6.12399 21.9917 5.6095C21.7799 5.09502 21.4683 4.62758 21.0748 4.23416C20.6814 3.84073 20.2139 3.52912 19.6994 3.3173C19.1848 3.10549 18.6335 2.99766 18.077 3.00004ZM18.077 16.165C17.4945 16.1646 16.9262 16.3454 16.451 16.6824C15.9758 17.0194 15.6172 17.4959 15.425 18.0459H10.384C10.1977 17.5192 9.8593 17.0596 9.41163 16.7254C8.96396 16.3912 8.42718 16.1973 7.86923 16.1682C7.31129 16.1392 6.75729 16.2764 6.27736 16.5624C5.79744 16.8484 5.41318 17.2704 5.17324 17.7749C4.9333 18.2794 4.84846 18.8438 4.92948 19.3965C5.0105 19.9493 5.25372 20.4656 5.62835 20.88C6.00298 21.2945 6.49217 21.5884 7.03399 21.7247C7.57581 21.861 8.14588 21.8335 8.67204 21.6456C9.06585 21.5013 9.42324 21.2724 9.71903 20.9751C10.0148 20.6778 10.2418 20.3192 10.384 19.9247H15.434C15.6901 20.6218 16.2106 21.1899 16.8826 21.506C17.5547 21.822 18.3243 21.8605 19.0245 21.613C19.7248 21.3656 20.2993 20.8522 20.6236 20.1841C20.9479 19.516 20.9959 18.7471 20.757 18.0439C20.5586 17.4924 20.1946 17.0158 19.7149 16.6791C19.2352 16.3424 18.6631 16.1622 18.077 16.163M18.077 20.3947C17.798 20.3947 17.5252 20.3119 17.2931 20.1569C17.0611 20.0019 16.8802 19.7815 16.7734 19.5237C16.6666 19.2659 16.6387 18.9822 16.6932 18.7085C16.7476 18.4349 16.882 18.1835 17.0793 17.9861C17.2766 17.7888 17.5281 17.6544 17.8018 17.6C18.0755 17.5456 18.3592 17.5735 18.617 17.6803C18.8748 17.7871 19.0952 17.9679 19.2502 18.1999C19.4053 18.432 19.488 18.7047 19.488 18.9838C19.4886 19.1694 19.4525 19.3533 19.3818 19.5249C19.3111 19.6966 19.2073 19.8526 19.0762 19.984C18.9451 20.1155 18.7894 20.2197 18.6179 20.2909C18.4465 20.3621 18.2627 20.3987 18.077 20.3987V20.3947Z" fill="#6B679F"/>
</g>
</svg>
