<svg width="25" height="24" viewBox="0 0 25 24" fill="none" xmlns="http://www.w3.org/2000/svg">
<mask id="mask0_796_1161" style="mask-type:luminance" maskUnits="userSpaceOnUse" x="3" y="3" width="19" height="18">
<path d="M21.5 3H3.5V21H21.5V3Z" fill="white"/>
</mask>
<g mask="url(#mask0_796_1161)">
<path d="M15.5582 6.50555C15.5581 7.31659 15.3127 8.10252 14.8637 8.72941C14.4147 9.3563 13.7899 9.78537 13.0958 9.94351C12.4018 10.1016 11.6813 9.97907 11.0572 9.59666C10.4331 9.21425 9.94408 8.59567 9.67335 7.84633C9.40263 7.09698 9.36699 6.26324 9.57251 5.48715C9.77804 4.71107 10.212 4.04067 10.8005 3.59019C11.389 3.1397 12.0955 2.93701 12.7998 3.01664C13.504 3.09627 14.1624 3.4533 14.6627 4.0269C15.2362 4.68435 15.5583 5.57594 15.5582 6.50555Z" fill="#6B679F"/>
<path d="M20.6213 7.79489C20.6213 8.2332 20.5079 8.66167 20.2954 9.02611C20.0829 9.39056 19.7809 9.67461 19.4276 9.84234C19.0743 10.0101 18.6855 10.054 18.3104 9.96845C17.9353 9.88294 17.5907 9.67187 17.3203 9.36194C17.0498 9.05201 16.8657 8.65713 16.7911 8.22724C16.7165 7.79734 16.7547 7.35175 16.9011 6.9468C17.0475 6.54185 17.2953 6.19574 17.6133 5.95222C17.9313 5.70871 18.3052 5.57874 18.6876 5.57874C19.2005 5.57874 19.6923 5.81222 20.0549 6.22783C20.4176 6.64344 20.6213 7.20713 20.6213 7.79489Z" fill="#6B679F"/>
<path d="M8.24632 7.79501C8.24632 8.23332 8.13291 8.66179 7.92043 9.02624C7.70795 9.39068 7.40595 9.67473 7.05261 9.84246C6.69927 10.0102 6.31047 10.0541 5.93536 9.96858C5.56026 9.88307 5.21571 9.672 4.94528 9.36206C4.67484 9.05213 4.49068 8.65725 4.41606 8.22736C4.34145 7.79747 4.37974 7.35187 4.5261 6.94692C4.67246 6.54198 4.92031 6.19586 5.2383 5.95235C5.5563 5.70883 5.93016 5.57886 6.31261 5.57886C6.82546 5.57886 7.31731 5.81234 7.67995 6.22795C8.04259 6.64356 8.24632 7.20725 8.24632 7.79501Z" fill="#6B679F"/>
<path d="M8.21741 12.0003C7.45634 11.2857 6.76713 11.3805 5.88714 11.3805C5.25616 11.3791 4.65045 11.6646 4.20293 12.1744C3.7554 12.6842 3.5026 13.3766 3.5 14.0997V18.5001C3.50109 18.8135 3.61052 19.1138 3.80433 19.335C3.99814 19.5562 4.26053 19.6804 4.53407 19.6804C6.99566 19.6804 6.6994 19.7314 6.6994 19.5589C6.6994 16.4409 6.37729 14.1543 8.21793 12.0009" fill="#6B679F"/>
<path d="M13.3374 11.3994C11.8003 11.2524 10.4643 11.3994 9.31182 12.4915C7.38328 14.262 7.75451 16.6459 7.75451 19.5618C7.75506 19.9358 7.88494 20.2943 8.11569 20.5588C8.34644 20.8232 8.65924 20.9721 8.98557 20.9727C16.4065 20.9727 16.7018 21.247 17.1418 20.1301C17.286 19.7526 17.2452 19.8723 17.2452 16.2595C17.2452 13.3898 15.0773 11.4006 13.3364 11.4006" fill="#6B679F"/>
<path d="M19.113 11.3811C18.2283 11.3811 17.5428 11.2875 16.7827 12.0015C18.6094 14.1395 18.3012 16.2679 18.3012 19.5595C18.3012 19.7332 18.0551 19.681 20.4299 19.681C20.7132 19.6813 20.9851 19.5528 21.1859 19.3236C21.3866 19.0944 21.4998 18.7833 21.5006 18.4586V14.1003C21.498 13.3772 21.2452 12.6848 20.7977 12.175C20.3502 11.6652 19.7445 11.3797 19.1135 11.3811" fill="#6B679F"/>
</g>
</svg>
