<svg width="25" height="24" viewBox="0 0 25 24" fill="none" xmlns="http://www.w3.org/2000/svg">
<g id="Component 30">
<mask id="mask0_824_923" style="mask-type:alpha" maskUnits="userSpaceOnUse" x="0" y="0" width="25" height="24">
<rect id="Bounding box" x="0.5" width="24" height="24" fill="#D9D9D9"/>
</mask>
<g mask="url(#mask0_824_923)">
<path id="sunny" d="M12.5 5C12.2167 5 11.9792 4.90417 11.7875 4.7125C11.5958 4.52083 11.5 4.28333 11.5 4V2C11.5 1.71667 11.5958 1.47917 11.7875 1.2875C11.9792 1.09583 12.2167 1 12.5 1C12.7833 1 13.0208 1.09583 13.2125 1.2875C13.4042 1.47917 13.5 1.71667 13.5 2V4C13.5 4.28333 13.4042 4.52083 13.2125 4.7125C13.0208 4.90417 12.7833 5 12.5 5ZM17.45 7.05C17.2667 6.86667 17.175 6.6375 17.175 6.3625C17.175 6.0875 17.2667 5.85 17.45 5.65L18.85 4.225C19.05 4.025 19.2875 3.925 19.5625 3.925C19.8375 3.925 20.075 4.025 20.275 4.225C20.4583 4.40833 20.55 4.64167 20.55 4.925C20.55 5.20833 20.4583 5.44167 20.275 5.625L18.85 7.05C18.6667 7.23333 18.4333 7.325 18.15 7.325C17.8667 7.325 17.6333 7.23333 17.45 7.05ZM20.5 13C20.2167 13 19.9792 12.9042 19.7875 12.7125C19.5958 12.5208 19.5 12.2833 19.5 12C19.5 11.7167 19.5958 11.4792 19.7875 11.2875C19.9792 11.0958 20.2167 11 20.5 11H22.5C22.7833 11 23.0208 11.0958 23.2125 11.2875C23.4042 11.4792 23.5 11.7167 23.5 12C23.5 12.2833 23.4042 12.5208 23.2125 12.7125C23.0208 12.9042 22.7833 13 22.5 13H20.5ZM12.5 23C12.2167 23 11.9792 22.9042 11.7875 22.7125C11.5958 22.5208 11.5 22.2833 11.5 22V20C11.5 19.7167 11.5958 19.4792 11.7875 19.2875C11.9792 19.0958 12.2167 19 12.5 19C12.7833 19 13.0208 19.0958 13.2125 19.2875C13.4042 19.4792 13.5 19.7167 13.5 20V22C13.5 22.2833 13.4042 22.5208 13.2125 22.7125C13.0208 22.9042 12.7833 23 12.5 23ZM6.15 7.05L4.725 5.65C4.525 5.45 4.425 5.20833 4.425 4.925C4.425 4.64167 4.525 4.40833 4.725 4.225C4.90833 4.04167 5.14167 3.95 5.425 3.95C5.70833 3.95 5.94167 4.04167 6.125 4.225L7.55 5.65C7.73333 5.83333 7.825 6.06667 7.825 6.35C7.825 6.63333 7.73333 6.86667 7.55 7.05C7.35 7.23333 7.11667 7.325 6.85 7.325C6.58333 7.325 6.35 7.23333 6.15 7.05ZM18.85 19.775L17.45 18.35C17.2667 18.15 17.175 17.9125 17.175 17.6375C17.175 17.3625 17.2667 17.1333 17.45 16.95C17.6333 16.7667 17.8625 16.675 18.1375 16.675C18.4125 16.675 18.65 16.7667 18.85 16.95L20.275 18.35C20.475 18.5333 20.5708 18.7667 20.5625 19.05C20.5542 19.3333 20.4583 19.575 20.275 19.775C20.075 19.975 19.8333 20.075 19.55 20.075C19.2667 20.075 19.0333 19.975 18.85 19.775ZM2.5 13C2.21667 13 1.97917 12.9042 1.7875 12.7125C1.59583 12.5208 1.5 12.2833 1.5 12C1.5 11.7167 1.59583 11.4792 1.7875 11.2875C1.97917 11.0958 2.21667 11 2.5 11H4.5C4.78333 11 5.02083 11.0958 5.2125 11.2875C5.40417 11.4792 5.5 11.7167 5.5 12C5.5 12.2833 5.40417 12.5208 5.2125 12.7125C5.02083 12.9042 4.78333 13 4.5 13H2.5ZM4.725 19.775C4.54167 19.5917 4.45 19.3583 4.45 19.075C4.45 18.7917 4.54167 18.5583 4.725 18.375L6.15 16.95C6.33333 16.7667 6.5625 16.675 6.8375 16.675C7.1125 16.675 7.35 16.7667 7.55 16.95C7.75 17.15 7.85 17.3875 7.85 17.6625C7.85 17.9375 7.75 18.175 7.55 18.375L6.15 19.775C5.95 19.975 5.70833 20.075 5.425 20.075C5.14167 20.075 4.90833 19.975 4.725 19.775ZM12.5 18C10.8333 18 9.41667 17.4167 8.25 16.25C7.08333 15.0833 6.5 13.6667 6.5 12C6.5 10.3333 7.08333 8.91667 8.25 7.75C9.41667 6.58333 10.8333 6 12.5 6C14.1667 6 15.5833 6.58333 16.75 7.75C17.9167 8.91667 18.5 10.3333 18.5 12C18.5 13.6667 17.9167 15.0833 16.75 16.25C15.5833 17.4167 14.1667 18 12.5 18Z" fill="#6B679F"/>
</g>
</g>
</svg>
