<svg width="25" height="24" viewBox="0 0 25 24" fill="none" xmlns="http://www.w3.org/2000/svg">
<g id="Component 31">
<mask id="mask0_824_897" style="mask-type:alpha" maskUnits="userSpaceOnUse" x="0" y="0" width="25" height="24">
<rect id="Bounding box" x="0.5" width="24" height="24" fill="#D9D9D9"/>
</mask>
<g mask="url(#mask0_824_897)">
<path id="sunny_snowing" d="M4.5 13.75H2.5C2.21667 13.75 1.97917 13.6542 1.7875 13.4625C1.59583 13.2708 1.5 13.0333 1.5 12.75C1.5 12.4667 1.59583 12.2292 1.7875 12.0375C1.97917 11.8458 2.21667 11.75 2.5 11.75H4.5C4.78333 11.75 5.02083 11.8458 5.2125 12.0375C5.40417 12.2292 5.5 12.4667 5.5 12.75C5.5 13.0333 5.40417 13.2708 5.2125 13.4625C5.02083 13.6542 4.78333 13.75 4.5 13.75ZM7.55 7.8C7.36667 7.98333 7.13333 8.075 6.85 8.075C6.56667 8.075 6.33333 7.98333 6.15 7.8L4.725 6.375C4.525 6.175 4.425 5.94167 4.425 5.675C4.425 5.40833 4.525 5.175 4.725 4.975C4.925 4.79167 5.15833 4.69583 5.425 4.6875C5.69167 4.67917 5.925 4.775 6.125 4.975L7.55 6.4C7.73333 6.58333 7.82917 6.8125 7.8375 7.0875C7.84583 7.3625 7.75 7.6 7.55 7.8ZM6.5 19C6.15 19 5.85417 18.8792 5.6125 18.6375C5.37083 18.3958 5.25 18.1 5.25 17.75C5.25 17.4 5.37083 17.1042 5.6125 16.8625C5.85417 16.6208 6.15 16.5 6.5 16.5C6.85 16.5 7.14583 16.6208 7.3875 16.8625C7.62917 17.1042 7.75 17.4 7.75 17.75C7.75 18.1 7.62917 18.3958 7.3875 18.6375C7.14583 18.8792 6.85 19 6.5 19ZM8.5 13.75C8.21667 13.75 7.97917 13.6542 7.7875 13.4625C7.59583 13.2708 7.5 13.0333 7.5 12.75C7.5 11.3667 7.9875 10.1875 8.9625 9.2125C9.9375 8.2375 11.1167 7.75 12.5 7.75C13.8833 7.75 15.0625 8.2375 16.0375 9.2125C17.0125 10.1875 17.5 11.3667 17.5 12.75C17.5 13.0333 17.4042 13.2708 17.2125 13.4625C17.0208 13.6542 16.7833 13.75 16.5 13.75H8.5ZM9.5 23C9.15 23 8.85417 22.8792 8.6125 22.6375C8.37083 22.3958 8.25 22.1 8.25 21.75C8.25 21.4 8.37083 21.1042 8.6125 20.8625C8.85417 20.6208 9.15 20.5 9.5 20.5C9.85 20.5 10.1458 20.6208 10.3875 20.8625C10.6292 21.1042 10.75 21.4 10.75 21.75C10.75 22.1 10.6292 22.3958 10.3875 22.6375C10.1458 22.8792 9.85 23 9.5 23ZM12.5 19C12.15 19 11.8542 18.8792 11.6125 18.6375C11.3708 18.3958 11.25 18.1 11.25 17.75C11.25 17.4 11.3708 17.1042 11.6125 16.8625C11.8542 16.6208 12.15 16.5 12.5 16.5C12.85 16.5 13.1458 16.6208 13.3875 16.8625C13.6292 17.1042 13.75 17.4 13.75 17.75C13.75 18.1 13.6292 18.3958 13.3875 18.6375C13.1458 18.8792 12.85 19 12.5 19ZM12.5 5.75C12.2167 5.75 11.9792 5.65417 11.7875 5.4625C11.5958 5.27083 11.5 5.03333 11.5 4.75V2.75C11.5 2.46667 11.5958 2.22917 11.7875 2.0375C11.9792 1.84583 12.2167 1.75 12.5 1.75C12.7833 1.75 13.0208 1.84583 13.2125 2.0375C13.4042 2.22917 13.5 2.46667 13.5 2.75V4.75C13.5 5.03333 13.4042 5.27083 13.2125 5.4625C13.0208 5.65417 12.7833 5.75 12.5 5.75ZM15.5 23C15.15 23 14.8542 22.8792 14.6125 22.6375C14.3708 22.3958 14.25 22.1 14.25 21.75C14.25 21.4 14.3708 21.1042 14.6125 20.8625C14.8542 20.6208 15.15 20.5 15.5 20.5C15.85 20.5 16.1458 20.6208 16.3875 20.8625C16.6292 21.1042 16.75 21.4 16.75 21.75C16.75 22.1 16.6292 22.3958 16.3875 22.6375C16.1458 22.8792 15.85 23 15.5 23ZM17.45 7.8C17.25 7.6 17.15 7.36667 17.15 7.1C17.15 6.83333 17.25 6.6 17.45 6.4L18.875 4.975C19.0583 4.79167 19.2875 4.69583 19.5625 4.6875C19.8375 4.67917 20.075 4.775 20.275 4.975C20.4583 5.15833 20.55 5.39167 20.55 5.675C20.55 5.95833 20.4583 6.19167 20.275 6.375L18.85 7.8C18.6667 7.98333 18.4375 8.075 18.1625 8.075C17.8875 8.075 17.65 7.98333 17.45 7.8ZM18.5 19C18.15 19 17.8542 18.8792 17.6125 18.6375C17.3708 18.3958 17.25 18.1 17.25 17.75C17.25 17.4 17.3708 17.1042 17.6125 16.8625C17.8542 16.6208 18.15 16.5 18.5 16.5C18.85 16.5 19.1458 16.6208 19.3875 16.8625C19.6292 17.1042 19.75 17.4 19.75 17.75C19.75 18.1 19.6292 18.3958 19.3875 18.6375C19.1458 18.8792 18.85 19 18.5 19ZM20.5 13.75C20.2167 13.75 19.9792 13.6542 19.7875 13.4625C19.5958 13.2708 19.5 13.0333 19.5 12.75C19.5 12.4667 19.5958 12.2292 19.7875 12.0375C19.9792 11.8458 20.2167 11.75 20.5 11.75H22.5C22.7833 11.75 23.0208 11.8458 23.2125 12.0375C23.4042 12.2292 23.5 12.4667 23.5 12.75C23.5 13.0333 23.4042 13.2708 23.2125 13.4625C23.0208 13.6542 22.7833 13.75 22.5 13.75H20.5Z" fill="#6B679F"/>
</g>
</g>
</svg>
