<svg width="25" height="24" viewBox="0 0 25 24" fill="none" xmlns="http://www.w3.org/2000/svg">
<mask id="mask0_796_1142" style="mask-type:luminance" maskUnits="userSpaceOnUse" x="3" y="3" width="19" height="18">
<path d="M3.5 3H21.5V21H3.5V3Z" fill="white"/>
<path fill-rule="evenodd" clip-rule="evenodd" d="M15.9802 10.0837C16.1213 9.96622 16.3032 9.90957 16.486 9.92618C16.6688 9.9428 16.8375 10.0313 16.955 10.1723L18.3971 11.9031C18.5094 12.0446 18.5619 12.2245 18.5434 12.4043C18.5249 12.5841 18.4368 12.7495 18.298 12.8652C18.1591 12.9809 17.9805 13.0377 17.8004 13.0235C17.6202 13.0093 17.4527 12.9252 17.3337 12.7892L15.8909 11.0584C15.7735 10.9174 15.7168 10.7355 15.7334 10.5527C15.7501 10.3699 15.8386 10.2012 15.9795 10.0837" fill="black"/>
<path fill-rule="evenodd" clip-rule="evenodd" d="M15.9803 14.6086C15.8392 14.4912 15.7506 14.3225 15.7338 14.1397C15.7171 13.9569 15.7736 13.775 15.891 13.6338L17.3338 11.9031C17.3912 11.8308 17.4624 11.7707 17.5434 11.7263C17.6243 11.6819 17.7133 11.6542 17.8052 11.6447C17.897 11.6353 17.9898 11.6443 18.0781 11.6712C18.1664 11.6981 18.2484 11.7424 18.3193 11.8015C18.3902 11.8606 18.4486 11.9333 18.491 12.0153C18.5334 12.0973 18.559 12.187 18.5663 12.279C18.5735 12.371 18.5623 12.4636 18.5333 12.5512C18.5042 12.6388 18.4579 12.7198 18.3972 12.7892L16.9551 14.52C16.8375 14.661 16.6688 14.7495 16.486 14.7661C16.3033 14.7827 16.1214 14.7261 15.9803 14.6086Z" fill="black"/>
<path fill-rule="evenodd" clip-rule="evenodd" d="M17.6923 12.3462C17.6923 12.5298 17.6193 12.7059 17.4895 12.8357C17.3597 12.9655 17.1836 13.0385 17 13.0385H12.5C12.3164 13.0385 12.1403 12.9655 12.0104 12.8357C11.8806 12.7059 11.8077 12.5298 11.8077 12.3462C11.8077 12.1626 11.8806 11.9865 12.0104 11.8566C12.1403 11.7268 12.3164 11.6539 12.5 11.6539H17C17.1836 11.6539 17.3597 11.7268 17.4895 11.8566C17.6193 11.9865 17.6923 12.1626 17.6923 12.3462ZM7.65381 7.50002C7.65381 7.3164 7.72675 7.14031 7.85658 7.01048C7.98641 6.88065 8.1625 6.80771 8.34612 6.80771H14.5769C14.7605 6.80771 14.9366 6.88065 15.0664 7.01048C15.1963 7.14031 15.2692 7.3164 15.2692 7.50002C15.2692 7.68363 15.1963 7.85972 15.0664 7.98955C14.9366 8.11938 14.7605 8.19232 14.5769 8.19232H8.34612C8.1625 8.19232 7.98641 8.11938 7.85658 7.98955C7.72675 7.85972 7.65381 7.68363 7.65381 7.50002ZM7.65381 17.1923C7.65381 17.0087 7.72675 16.8326 7.85658 16.7028C7.98641 16.573 8.1625 16.5 8.34612 16.5H14.5769C14.7605 16.5 14.9366 16.573 15.0664 16.7028C15.1963 16.8326 15.2692 17.0087 15.2692 17.1923C15.2692 17.3759 15.1963 17.552 15.0664 17.6819C14.9366 17.8117 14.7605 17.8846 14.5769 17.8846H8.34612C8.1625 17.8846 7.98641 17.8117 7.85658 17.6819C7.72675 17.552 7.65381 17.3759 7.65381 17.1923Z" fill="black"/>
<path fill-rule="evenodd" clip-rule="evenodd" d="M14.5769 6.80771C14.7605 6.80771 14.9366 6.88065 15.0664 7.01048C15.1963 7.14031 15.2692 7.3164 15.2692 7.50002V10.2692C15.2692 10.4529 15.1963 10.6289 15.0664 10.7588C14.9366 10.8886 14.7605 10.9616 14.5769 10.9616C14.3933 10.9616 14.2172 10.8886 14.0874 10.7588C13.9575 10.6289 13.8846 10.4529 13.8846 10.2692V7.50002C13.8846 7.3164 13.9575 7.14031 14.0874 7.01048C14.2172 6.88065 14.3933 6.80771 14.5769 6.80771ZM14.5769 13.7308C14.7605 13.7308 14.9366 13.8037 15.0664 13.9336C15.1963 14.0634 15.2692 14.2395 15.2692 14.4231V17.1923C15.2692 17.3759 15.1963 17.552 15.0664 17.6819C14.9366 17.8117 14.7605 17.8846 14.5769 17.8846C14.3933 17.8846 14.2172 17.8117 14.0874 17.6819C13.9575 17.552 13.8846 17.3759 13.8846 17.1923V14.4231C13.8846 14.2395 13.9575 14.0634 14.0874 13.9336C14.2172 13.8037 14.3933 13.7308 14.5769 13.7308ZM8.34612 6.80771C8.52973 6.80771 8.70582 6.88065 8.83565 7.01048C8.96548 7.14031 9.03842 7.3164 9.03842 7.50002V17.1923C9.03842 17.3759 8.96548 17.552 8.83565 17.6819C8.70582 17.8117 8.52973 17.8846 8.34612 17.8846C8.1625 17.8846 7.98641 17.8117 7.85658 17.6819C7.72675 17.552 7.65381 17.3759 7.65381 17.1923V7.50002C7.65381 7.3164 7.72675 7.14031 7.85658 7.01048C7.98641 6.88065 8.1625 6.80771 8.34612 6.80771Z" fill="black"/>
</mask>
<g mask="url(#mask0_796_1142)">
<path d="M12.5 21C17.4706 21 21.5 16.9706 21.5 12C21.5 7.02944 17.4706 3 12.5 3C7.52944 3 3.5 7.02944 3.5 12C3.5 16.9706 7.52944 21 12.5 21Z" fill="#6B679F"/>
</g>
</svg>
