<svg width="25" height="24" viewBox="0 0 25 24" fill="none" xmlns="http://www.w3.org/2000/svg">
<mask id="mask0_796_1155" style="mask-type:alpha" maskUnits="userSpaceOnUse" x="0" y="0" width="25" height="24">
<rect x="0.5" width="24" height="24" fill="#D9D9D9"/>
</mask>
<g mask="url(#mask0_796_1155)">
<path d="M2.5 21C2.21667 21 1.97917 20.9042 1.7875 20.7125C1.59583 20.5208 1.5 20.2833 1.5 20V4C1.5 3.71667 1.59583 3.47917 1.7875 3.2875C1.97917 3.09583 2.21667 3 2.5 3H14.5C14.7833 3 15.0208 3.09583 15.2125 3.2875C15.4042 3.47917 15.5 3.71667 15.5 4V20C15.5 20.2833 15.4042 20.5208 15.2125 20.7125C15.0208 20.9042 14.7833 21 14.5 21H10.5V16H6.5V21H2.5ZM5.5 13H7.5V11H5.5V13ZM5.5 9H7.5V7H5.5V9ZM9.5 13H11.5V11H9.5V13ZM9.5 9H11.5V7H9.5V9ZM16.5 12C16.5 11.7167 16.5958 11.4792 16.7875 11.2875C16.9792 11.0958 17.2167 11 17.5 11H19.675L19.275 10.6C19.0917 10.4167 19 10.1875 19 9.9125C19 9.6375 19.1 9.4 19.3 9.2C19.4833 9.01667 19.7167 8.925 20 8.925C20.2833 8.925 20.5167 9.01667 20.7 9.2L22.8 11.3C23 11.5 23.1 11.7333 23.1 12C23.1 12.2667 23 12.5 22.8 12.7L20.7 14.8C20.5167 14.9833 20.2875 15.0792 20.0125 15.0875C19.7375 15.0958 19.5 15 19.3 14.8C19.1167 14.6167 19.0208 14.3875 19.0125 14.1125C19.0042 13.8375 19.0917 13.6 19.275 13.4L19.675 13H17.5C17.2167 13 16.9792 12.9042 16.7875 12.7125C16.5958 12.5208 16.5 12.2833 16.5 12Z" fill="#6B679F"/>
</g>
</svg>
