<svg width="25" height="24" viewBox="0 0 25 24" fill="none" xmlns="http://www.w3.org/2000/svg">
<mask id="mask0_796_1174" style="mask-type:alpha" maskUnits="userSpaceOnUse" x="0" y="0" width="25" height="24">
<rect x="0.5" width="24" height="24" fill="#D9D9D9"/>
</mask>
<g mask="url(#mask0_796_1174)">
<path d="M14.525 17.2944C14.705 17.2944 14.8625 17.2269 14.9975 17.0919C15.1325 16.9569 15.2 16.7994 15.2 16.6194C15.2 16.4394 15.1325 16.2819 14.9975 16.1469C14.8625 16.0119 14.705 15.9444 14.525 15.9444C14.345 15.9444 14.1875 16.0119 14.0525 16.1469C13.9175 16.2819 13.85 16.4394 13.85 16.6194C13.85 16.7994 13.9175 16.9569 14.0525 17.0919C14.1875 17.2269 14.345 17.2944 14.525 17.2944ZM17 17.2944C17.18 17.2944 17.3375 17.2269 17.4725 17.0919C17.6075 16.9569 17.675 16.7994 17.675 16.6194C17.675 16.4394 17.6075 16.2819 17.4725 16.1469C17.3375 16.0119 17.18 15.9444 17 15.9444C16.82 15.9444 16.6625 16.0119 16.5275 16.1469C16.3925 16.2819 16.325 16.4394 16.325 16.6194C16.325 16.7994 16.3925 16.9569 16.5275 17.0919C16.6625 17.2269 16.82 17.2944 17 17.2944ZM19.475 17.2944C19.655 17.2944 19.8125 17.2269 19.9475 17.0919C20.0825 16.9569 20.15 16.7994 20.15 16.6194C20.15 16.4394 20.0825 16.2819 19.9475 16.1469C19.8125 16.0119 19.655 15.9444 19.475 15.9444C19.295 15.9444 19.1375 16.0119 19.0025 16.1469C18.8675 16.2819 18.8 16.4394 18.8 16.6194C18.8 16.7994 18.8675 16.9569 19.0025 17.0919C19.1375 17.2269 19.295 17.2944 19.475 17.2944ZM17 21.1194C15.755 21.1194 14.6938 20.6806 13.8163 19.8031C12.9388 18.9256 12.5 17.8644 12.5 16.6194C12.5 15.3744 12.9388 14.3131 13.8163 13.4356C14.6938 12.5581 15.755 12.1194 17 12.1194C18.245 12.1194 19.3062 12.5581 20.1837 13.4356C21.0612 14.3131 21.5 15.3744 21.5 16.6194C21.5 17.8644 21.0612 18.9256 20.1837 19.8031C19.3062 20.6806 18.245 21.1194 17 21.1194ZM7.1 8.51938H16.1V6.71938H7.1V8.51938ZM11.3075 19.3194H5.3C4.805 19.3194 4.38125 19.1431 4.02875 18.7906C3.67625 18.4381 3.5 18.0144 3.5 17.5194V4.91938C3.5 4.42438 3.67625 4.00063 4.02875 3.64813C4.38125 3.29563 4.805 3.11938 5.3 3.11938H17.9C18.395 3.11938 18.8187 3.29563 19.1712 3.64813C19.5237 4.00063 19.7 4.42438 19.7 4.91938V10.9494C19.265 10.7394 18.8262 10.5819 18.3837 10.4769C17.9412 10.3719 17.48 10.3194 17 10.3194C16.835 10.3194 16.6812 10.3231 16.5387 10.3306C16.3962 10.3381 16.25 10.3569 16.1 10.3869V10.3194H7.1V12.1194H12.6125C12.3425 12.3744 12.0987 12.6519 11.8812 12.9519C11.6637 13.2519 11.4725 13.5744 11.3075 13.9194H7.1V15.7194H10.7675C10.7375 15.8694 10.7187 16.0156 10.7112 16.1581C10.7037 16.3006 10.7 16.4544 10.7 16.6194C10.7 17.1144 10.745 17.5756 10.835 18.0031C10.925 18.4306 11.0825 18.8694 11.3075 19.3194Z" fill="#6B679F"/>
</g>
</svg>
