<svg width="18" height="6" viewBox="0 0 18 6" fill="none" xmlns="http://www.w3.org/2000/svg">
<path d="M14 6C13.7167 6 13.4792 5.90417 13.2875 5.7125C13.0958 5.52083 13 5.28333 13 5V1C13 0.716667 13.0958 0.479167 13.2875 0.2875C13.4792 0.0958333 13.7167 0 14 0H17C17.2833 0 17.5208 0.0958333 17.7125 0.2875C17.9042 0.479167 18 0.716667 18 1V2H16.5V1.5H14.5V4.5H16.5V4H18V5C18 5.28333 17.9042 5.52083 17.7125 5.7125C17.5208 5.90417 17.2833 6 17 6H14ZM6.5 6V0H10.5C10.7833 0 11.0208 0.0958333 11.2125 0.2875C11.4042 0.479167 11.5 0.716667 11.5 1V2C11.5 2.28333 11.4042 2.52083 11.2125 2.7125C11.0208 2.90417 10.7833 3 10.5 3C10.7833 3 11.0208 3.09583 11.2125 3.2875C11.4042 3.47917 11.5 3.71667 11.5 4V5C11.5 5.28333 11.4042 5.52083 11.2125 5.7125C11.0208 5.90417 10.7833 6 10.5 6H6.5ZM8 2.25H10V1.5H8V2.25ZM8 4.5H10V3.75H8V4.5ZM0 6V1C0 0.716667 0.0958333 0.479167 0.2875 0.2875C0.479167 0.0958333 0.716667 0 1 0H4C4.28333 0 4.52083 0.0958333 4.7125 0.2875C4.90417 0.479167 5 0.716667 5 1V6H3.5V4.5H1.5V6H0ZM1.5 3H3.5V1.5H1.5V3Z" fill="#727176"/>
</svg>
