<svg width="19" height="18" viewBox="0 0 19 18" fill="none" xmlns="http://www.w3.org/2000/svg">
<path d="M8.45937 13.2L15.5094 6.15L14.1094 4.75L8.45937 10.4L5.60938 7.55L4.20938 8.95L8.45937 13.2ZM2.85938 18C2.30938 18 1.83854 17.8042 1.44688 17.4125C1.05521 17.0208 0.859375 16.55 0.859375 16V2C0.859375 1.45 1.05521 0.979167 1.44688 0.5875C1.83854 0.195833 2.30938 0 2.85938 0H16.8594C17.4094 0 17.8802 0.195833 18.2719 0.5875C18.6635 0.979167 18.8594 1.45 18.8594 2V16C18.8594 16.55 18.6635 17.0208 18.2719 17.4125C17.8802 17.8042 17.4094 18 16.8594 18H2.85938ZM2.85938 16H16.8594V2H2.85938V16Z" fill="#727176"/>
</svg>
