<svg width="21" height="20" viewBox="0 0 21 20" fill="none" xmlns="http://www.w3.org/2000/svg">
<path d="M10.8613 13L14.8613 9H6.86133L10.8613 13ZM10.8613 20C9.47799 20 8.17799 19.7375 6.96133 19.2125C5.74466 18.6875 4.68633 17.975 3.78633 17.075C2.88633 16.175 2.17383 15.1167 1.64883 13.9C1.12383 12.6833 0.861328 11.3833 0.861328 10C0.861328 8.61667 1.12383 7.31667 1.64883 6.1C2.17383 4.88333 2.88633 3.825 3.78633 2.925C4.68633 2.025 5.74466 1.3125 6.96133 0.7875C8.17799 0.2625 9.47799 0 10.8613 0C12.2447 0 13.5447 0.2625 14.7613 0.7875C15.978 1.3125 17.0363 2.025 17.9363 2.925C18.8363 3.825 19.5488 4.88333 20.0738 6.1C20.5988 7.31667 20.8613 8.61667 20.8613 10C20.8613 11.3833 20.5988 12.6833 20.0738 13.9C19.5488 15.1167 18.8363 16.175 17.9363 17.075C17.0363 17.975 15.978 18.6875 14.7613 19.2125C13.5447 19.7375 12.2447 20 10.8613 20ZM10.8613 18C13.0947 18 14.9863 17.225 16.5363 15.675C18.0863 14.125 18.8613 12.2333 18.8613 10C18.8613 7.76667 18.0863 5.875 16.5363 4.325C14.9863 2.775 13.0947 2 10.8613 2C8.62799 2 6.73633 2.775 5.18633 4.325C3.63633 5.875 2.86133 7.76667 2.86133 10C2.86133 12.2333 3.63633 14.125 5.18633 15.675C6.73633 17.225 8.62799 18 10.8613 18Z" fill="#727176"/>
</svg>
