<svg width="23" height="16" viewBox="0 0 23 16" fill="none" xmlns="http://www.w3.org/2000/svg">
<path d="M6.35938 16C4.84271 16 3.54688 15.475 2.47188 14.425C1.39688 13.375 0.859375 12.0917 0.859375 10.575C0.859375 9.275 1.25104 8.11667 2.03438 7.1C2.81771 6.08333 3.84271 5.43333 5.10938 5.15C5.52604 3.61667 6.35938 2.375 7.60938 1.425C8.85938 0.475 10.276 0 11.8594 0C13.8094 0 15.4635 0.679167 16.8219 2.0375C18.1802 3.39583 18.8594 5.05 18.8594 7C20.0094 7.13333 20.9635 7.62917 21.7219 8.4875C22.4802 9.34583 22.8594 10.35 22.8594 11.5C22.8594 12.75 22.4219 13.8125 21.5469 14.6875C20.6719 15.5625 19.6094 16 18.3594 16H12.8594C12.3094 16 11.8385 15.8042 11.4469 15.4125C11.0552 15.0208 10.8594 14.55 10.8594 14V8.85L9.25938 10.4L7.85938 9L11.8594 5L15.8594 9L14.4594 10.4L12.8594 8.85V14H18.3594C19.0594 14 19.651 13.7583 20.1344 13.275C20.6177 12.7917 20.8594 12.2 20.8594 11.5C20.8594 10.8 20.6177 10.2083 20.1344 9.725C19.651 9.24167 19.0594 9 18.3594 9H16.8594V7C16.8594 5.61667 16.3719 4.4375 15.3969 3.4625C14.4219 2.4875 13.2427 2 11.8594 2C10.476 2 9.29688 2.4875 8.32188 3.4625C7.34688 4.4375 6.85938 5.61667 6.85938 7H6.35938C5.39271 7 4.56771 7.34167 3.88438 8.025C3.20104 8.70833 2.85938 9.53333 2.85938 10.5C2.85938 11.4667 3.20104 12.2917 3.88438 12.975C4.56771 13.6583 5.39271 14 6.35938 14H8.85938V16H6.35938Z" fill="#727176"/>
</svg>
