<svg width="16" height="6" viewBox="0 0 16 6" fill="none" xmlns="http://www.w3.org/2000/svg">
<path d="M1.5 6V1.5H0V0H3V6H1.5ZM5 6V3.5C5 3.21667 5.09583 2.97917 5.2875 2.7875C5.47917 2.59583 5.71667 2.5 6 2.5H8V1.5H5V0H8.5C8.78333 0 9.02083 0.0958333 9.2125 0.2875C9.40417 0.479167 9.5 0.716667 9.5 1V2.5C9.5 2.78333 9.40417 3.02083 9.2125 3.2125C9.02083 3.40417 8.78333 3.5 8.5 3.5H6.5V4.5H9.5V6H5ZM11 6V4.5H14V3.5H12V2.5H14V1.5H11V0H14.5C14.7833 0 15.0208 0.0958333 15.2125 0.2875C15.4042 0.479167 15.5 0.716667 15.5 1V5C15.5 5.28333 15.4042 5.52083 15.2125 5.7125C15.0208 5.90417 14.7833 6 14.5 6H11Z" fill="#727176"/>
</svg>
