<svg width="21" height="20" viewBox="0 0 21 20" fill="none" xmlns="http://www.w3.org/2000/svg">
<path d="M10.0679 15C11.4578 15 12.6425 14.5125 13.6222 13.5375C14.6018 12.5625 15.0916 11.3833 15.0916 10C15.0916 8.61667 14.6018 7.4375 13.6222 6.4625C12.6425 5.4875 11.4578 5 10.0679 5C8.67801 5 7.49326 5.4875 6.51364 6.4625C5.53401 7.4375 5.0442 8.61667 5.0442 10C5.0442 11.3833 5.53401 12.5625 6.51364 13.5375C7.49326 14.5125 8.67801 15 10.0679 15ZM10.0679 20C8.67801 20 7.37185 19.7375 6.14942 19.2125C4.92698 18.6875 3.86364 17.975 2.95937 17.075C2.0551 16.175 1.33923 15.1167 0.81174 13.9C0.284252 12.6833 0.0205078 11.3833 0.0205078 10C0.0205078 8.61667 0.284252 7.31667 0.81174 6.1C1.33923 4.88333 2.0551 3.825 2.95937 2.925C3.86364 2.025 4.92698 1.3125 6.14942 0.7875C7.37185 0.2625 8.67801 0 10.0679 0C11.4578 0 12.764 0.2625 13.9864 0.7875C15.2088 1.3125 16.2722 2.025 17.1764 2.925C18.0807 3.825 18.7966 4.88333 19.3241 6.1C19.8515 7.31667 20.1153 8.61667 20.1153 10C20.1153 11.3833 19.8515 12.6833 19.3241 13.9C18.7966 15.1167 18.0807 16.175 17.1764 17.075C16.2722 17.975 15.2088 18.6875 13.9864 19.2125C12.764 19.7375 11.4578 20 10.0679 20ZM10.0679 18C12.3118 18 14.2125 17.225 15.7698 15.675C17.3271 14.125 18.1058 12.2333 18.1058 10C18.1058 7.76667 17.3271 5.875 15.7698 4.325C14.2125 2.775 12.3118 2 10.0679 2C7.82398 2 5.92335 2.775 4.36601 4.325C2.80866 5.875 2.02999 7.76667 2.02999 10C2.02999 12.2333 2.80866 14.125 4.36601 15.675C5.92335 17.225 7.82398 18 10.0679 18Z" fill="#727176"/>
</svg>
