<svg width="242" height="184" viewBox="0 0 242 184" fill="none" xmlns="http://www.w3.org/2000/svg">
<g id="Group 1000001427">
<g id="Layer_2">
<path id="Vector" opacity="0.18" d="M117.132 0.0261483C142.348 -0.592052 165.37 9.79116 178.443 26.9499C204.727 61.4491 209.597 95.9209 191.961 114.04C188.284 117.818 177.78 126.893 162.239 130.142C137.174 135.382 126.273 119.764 105.553 123.785C78.1328 129.106 75.217 160.726 56.7893 161.674C39.2039 162.578 19.9514 134.907 17.1102 108.786C12.1915 63.5667 54.617 6.09916 110.328 0.453284C112.633 0.219859 114.903 0.0808641 117.132 0.0261483Z" fill="#94C8E3"/>
<g id="Group">
<g id="Group_2">
<path id="Vector_2" d="M65.7792 39.4724L65.9901 40.7811L65.9579 40.7847L65.7792 39.4724Z" fill="#ABBAC2"/>
<path id="Vector_3" d="M66.1432 43.4887C66.1309 44.3946 66.0545 45.301 65.9138 46.1976L65.7518 46.1702C65.9129 45.2851 66.0108 44.3871 66.0453 43.4865L66.1432 43.4887Z" fill="#ABBAC2"/>
<path id="Vector_4" d="M65.2968 48.849C65.0233 49.7157 64.6866 50.5633 64.2886 51.3814L64.0525 51.2645C64.4558 50.4636 64.7995 49.6318 65.0815 48.7793L65.2968 48.849Z" fill="#ABBAC2"/>
<path id="Vector_5" d="M62.9136 53.7387C62.396 54.4884 61.8197 55.1983 61.1892 55.8576L60.9469 55.6224C61.5735 54.9848 62.1489 54.2955 62.6678 53.5657L62.9136 53.7387Z" fill="#ABBAC2"/>
<path id="Vector_6" d="M59.1409 57.6715C58.4062 58.2147 57.6238 58.6948 56.804 59.1007L56.6336 58.7552C57.4345 58.363 58.1997 57.8983 58.9198 57.371L59.1409 57.6715Z" fill="#ABBAC2"/>
<path id="Vector_7" d="M54.2464 60.0882C53.3643 60.3361 52.4615 60.5012 51.5529 60.5974L51.5106 60.1897C52.3988 60.0996 53.2805 59.9426 54.1391 59.7052L54.2464 60.0882Z" fill="#ABBAC2"/>
<path id="Vector_8" d="M48.8186 60.6884C47.9065 60.6562 46.9975 60.5644 46.0969 60.4162L46.1684 59.9877C47.0496 60.1368 47.9409 60.2308 48.834 60.2666L48.8186 60.6884Z" fill="#ABBAC2"/>
<path id="Vector_9" d="M43.4323 59.7903C42.56 59.5185 41.7044 59.1867 40.8858 58.7697L41.0774 58.3924C41.8712 58.7922 42.7069 59.1125 43.5603 59.3738L43.4323 59.7903Z" fill="#ABBAC2"/>
<path id="Vector_10" d="M38.6193 57.1819C38.2937 56.8452 37.9985 56.4618 37.8105 56.0099C37.6137 55.5576 37.5868 55.0387 37.6587 54.5741L38.0532 54.6305C37.9918 55.0563 38.0174 55.4733 38.1838 55.8546C38.3453 56.2389 38.6105 56.5853 38.9127 56.8946L38.6193 57.1819Z" fill="#ABBAC2"/>
<path id="Vector_11" d="M38.9915 52.1067C39.1971 51.9646 39.4733 51.8556 39.7535 51.8878C40.0284 51.913 40.2658 52.0317 40.4679 52.1755C40.8717 52.4694 41.1624 52.8767 41.3337 53.3387L40.9815 53.4636C40.839 53.0801 40.5782 52.7205 40.2473 52.4853C40.0831 52.3684 39.8987 52.2836 39.7204 52.2695C39.5457 52.2492 39.3727 52.3145 39.209 52.4257L38.9915 52.1067Z" fill="#ABBAC2"/>
<path id="Vector_12" d="M40.7361 56.0491C40.2146 56.8196 39.5425 57.4691 38.788 57.9973L38.6141 57.7506C39.3316 57.2339 39.971 56.5963 40.4529 55.8625L40.7361 56.0491Z" fill="#ABBAC2"/>
<path id="Vector_13" d="M36.2351 59.019C35.312 59.1241 34.3818 58.9824 33.5121 58.7031L33.5801 58.4864C34.4299 58.7468 35.3283 58.8686 36.2034 58.7565L36.2351 59.019Z" fill="#ABBAC2"/>
<path id="Vector_14" d="M31.0628 57.4996C30.3025 57.001 29.597 56.4247 28.9421 55.7994L29.0096 55.7271C29.6759 56.3325 30.3895 56.8863 31.1515 57.3602L31.0628 57.4996Z" fill="#ABBAC2"/>
<path id="Vector_15" d="M27.1276 53.7881L26.3435 52.7203L27.1528 53.7678L27.1276 53.7881Z" fill="#ABBAC2"/>
</g>
</g>
<g id="Group_3">
<g id="Group_4">
<path id="Vector_16" d="M173.471 12.7523L174.704 13.2382L174.691 13.2677L173.471 12.7523Z" fill="#ABBAC2"/>
<path id="Vector_17" d="M177.111 14.488C177.884 14.9611 178.624 15.4888 179.323 16.0677L179.217 16.1931C178.538 15.6027 177.815 15.0603 177.058 14.5714L177.111 14.488Z" fill="#ABBAC2"/>
<path id="Vector_18" d="M181.289 17.9514C181.895 18.6287 182.452 19.3506 182.953 20.1105L182.732 20.2539C182.248 19.4984 181.709 18.7783 181.119 18.101L181.289 17.9514Z" fill="#ABBAC2"/>
<path id="Vector_19" d="M184.278 22.4953C184.659 23.3231 184.975 24.1809 185.221 25.0599L184.895 25.1486C184.667 24.2842 184.367 23.4378 184.005 22.6193L184.278 22.4953Z" fill="#ABBAC2"/>
<path id="Vector_20" d="M185.736 27.7472C185.828 28.6562 185.842 29.574 185.773 30.4866L185.389 30.4566C185.46 29.5679 185.45 28.6721 185.365 27.7839L185.736 27.7472Z" fill="#ABBAC2"/>
<path id="Vector_21" d="M185.317 33.1894C185.08 34.0741 184.761 34.935 184.381 35.7654L184.008 35.5938C184.384 34.7841 184.699 33.9457 184.933 33.0857L185.317 33.1894Z" fill="#ABBAC2"/>
<path id="Vector_22" d="M183.064 38.164C182.571 38.9318 182.028 39.6669 181.441 40.3654L181.108 40.0852C181.686 39.4035 182.222 38.6847 182.708 37.935L183.064 38.164Z" fill="#ABBAC2"/>
<path id="Vector_23" d="M179.543 42.3381C178.864 42.9497 178.142 43.5163 177.366 44.0074L177.139 43.65C177.888 43.1712 178.59 42.6161 179.25 42.0156L179.543 42.3381Z" fill="#ABBAC2"/>
<path id="Vector_24" d="M174.844 45.1464C174.388 45.2545 173.908 45.3128 173.423 45.2444C172.934 45.183 172.474 44.9412 172.111 44.642L172.361 44.3314C172.696 44.6015 173.067 44.7925 173.48 44.8437C173.893 44.9011 174.326 44.8499 174.747 44.7475L174.844 45.1464Z" fill="#ABBAC2"/>
<path id="Vector_25" d="M170.669 42.2367C170.652 41.987 170.699 41.694 170.869 41.4698C171.031 41.2461 171.254 41.1027 171.481 41.0021C171.94 40.8048 172.438 40.7625 172.923 40.8507L172.851 41.2174C172.448 41.1441 172.006 41.1852 171.635 41.3493C171.45 41.431 171.283 41.5461 171.18 41.6926C171.073 41.8325 171.041 42.0147 171.054 42.2124L170.669 42.2367Z" fill="#ABBAC2"/>
<path id="Vector_26" d="M174.949 42.7482C175.346 43.5901 175.561 44.4995 175.631 45.4173L175.33 45.4407C175.252 44.5599 175.029 43.6845 174.644 42.896L174.949 42.7482Z" fill="#ABBAC2"/>
<path id="Vector_27" d="M175.207 48.1345C174.827 48.9822 174.23 49.7098 173.546 50.3152L173.395 50.1462C174.052 49.5479 174.616 48.8374 174.966 48.0282L175.207 48.1345Z" fill="#ABBAC2"/>
<path id="Vector_28" d="M171.261 51.8076C170.444 52.207 169.589 52.5194 168.717 52.7638L168.689 52.669C169.55 52.4051 170.39 52.0742 171.187 51.6603L171.261 51.8076Z" fill="#ABBAC2"/>
<path id="Vector_29" d="M166.061 53.2978L164.743 53.4276L166.057 53.2661L166.061 53.2978Z" fill="#ABBAC2"/>
</g>
</g>
</g>
<g id="Layer_1">
<g id="Group_5">
<path id="Vector_30" d="M60.9673 23.7045C60.9673 23.7045 52.5243 55.0809 53.398 56.5486C54.2722 58.0162 74.9494 65.4717 81.6579 60.1214C81.6579 60.1214 81.1517 55.2186 81.8383 51.2826C82.5249 47.3466 87.0341 28.3099 87.0341 28.3099L60.9673 23.7045Z" fill="white"/>
<g id="Group_6">
<path id="Vector_31" d="M77.1304 60.7872C77.8095 60.2175 78.4357 59.6434 78.993 59.0001C79.2767 58.6846 79.5397 58.3501 79.7872 58.002C80.0441 57.6578 80.2603 57.2876 80.5113 56.916C80.4324 57.3529 80.2938 57.7858 80.0816 58.1807C79.8825 58.584 79.6182 58.9524 79.3239 59.2913C79.0252 59.6271 78.6929 59.9329 78.3236 60.1871C77.9578 60.4434 77.5607 60.6619 77.1304 60.7872Z" fill="#ABBAC2"/>
</g>
<g id="Group_7">
<g id="Group_8">
<path id="Vector_32" d="M63.267 29.0447L65.5982 29.516L67.9227 30.0058L72.5709 30.9739C74.1188 31.3013 75.672 31.5974 77.2257 31.8895C78.7811 32.1728 80.3397 32.4384 81.9198 32.5752C81.524 32.577 81.126 32.5809 80.7288 32.5681L79.5388 32.4997C78.7489 32.4194 77.9586 32.3347 77.1723 32.2244C75.5984 32.0099 74.0363 31.724 72.4822 31.4054C70.9299 31.0789 69.3815 30.7338 67.8464 30.3345C66.3099 29.9405 64.7787 29.5266 63.267 29.0447Z" fill="#ABBAC2"/>
</g>
<g id="Group_9">
<path id="Vector_33" d="M62.7169 32.7046L65.0481 33.1759L67.3726 33.6657L72.0208 34.6338C73.5688 34.9612 75.122 35.2573 76.6756 35.5494C78.2311 35.8327 79.7896 36.0983 81.3697 36.2351C80.9739 36.2369 80.5759 36.2408 80.1788 36.228L78.9887 36.1596C78.1989 36.0793 77.4086 35.9946 76.6223 35.8843C75.0483 35.6699 73.4862 35.3839 71.9321 35.0653C70.3798 34.7388 68.8314 34.3937 67.2963 33.9944C65.7603 33.6004 64.2291 33.1865 62.7169 32.7046Z" fill="#ABBAC2"/>
</g>
<g id="Group_10">
<path id="Vector_34" d="M62.1679 36.3643L64.499 36.8355L66.8236 37.3253L71.4718 38.2934C73.0197 38.6209 74.5729 38.9169 76.1266 39.209C77.682 39.4923 79.2405 39.758 80.8207 39.8948C80.4249 39.8965 80.0268 39.9005 79.6297 39.8877L78.4396 39.8193C77.6498 39.739 76.8595 39.6543 76.0732 39.544C74.4992 39.3295 72.9372 39.0436 71.3831 38.725C69.8307 38.3985 68.2824 38.0534 66.7472 37.6541C65.2112 37.26 63.6801 36.8461 62.1679 36.3643Z" fill="#ABBAC2"/>
</g>
<g id="Group_11">
<path id="Vector_35" d="M61.6183 40.0242L63.9495 40.4954L66.274 40.9852L70.9222 41.9534C72.4701 42.2808 74.0234 42.5768 75.577 42.869C77.1325 43.1522 78.691 43.4179 80.2711 43.5547C79.8753 43.5564 79.4773 43.5604 79.0802 43.5476L77.8901 43.4792C77.1002 43.3989 76.31 43.3142 75.5236 43.2039C73.9497 42.9894 72.3876 42.7035 70.8335 42.3849C69.2812 42.0584 67.7328 41.7133 66.1977 41.314C64.6612 40.9199 63.1301 40.506 61.6183 40.0242Z" fill="#ABBAC2"/>
</g>
<g id="Group_12">
<path id="Vector_36" d="M61.0685 43.6838L63.3997 44.1551L65.7242 44.6449L70.3724 45.613C71.9203 45.9404 73.4735 46.2365 75.0272 46.5286C76.5826 46.8119 78.1411 47.0775 79.7213 47.2143C79.3255 47.2161 78.9275 47.2201 78.5303 47.2073L77.3403 47.1389C76.5504 47.0586 75.7601 46.9738 74.9738 46.8635C73.3999 46.6491 71.8378 46.3632 70.2837 46.0446C68.7314 45.718 67.183 45.373 65.6479 44.9736C64.1118 44.5796 62.5807 44.1657 61.0685 43.6838Z" fill="#ABBAC2"/>
</g>
<g id="Group_13">
<path id="Vector_37" d="M60.5192 47.3435L62.8503 47.8147L65.1749 48.3045L69.8231 49.2727C71.371 49.6001 72.9242 49.8962 74.4779 50.1883C76.0333 50.4716 77.5918 50.7372 79.172 50.874C78.7762 50.8757 78.3782 50.8797 77.981 50.8669L76.791 50.7985C76.0011 50.7182 75.2108 50.6335 74.4245 50.5232C72.8505 50.3087 71.2885 50.0228 69.7344 49.7042C68.182 49.3777 66.6337 49.0326 65.0985 48.6333C63.5621 48.2392 62.0314 47.8253 60.5192 47.3435Z" fill="#ABBAC2"/>
</g>
<g id="Group_14">
<path id="Vector_38" d="M59.9694 51.0034L62.3005 51.4742L64.6251 51.964L69.2733 52.9321C70.8212 53.2595 72.3744 53.5556 73.9281 53.8477C75.4835 54.131 77.042 54.3967 78.6222 54.5335C78.2264 54.5352 77.8284 54.5392 77.4312 54.5264L76.2412 54.458C75.4513 54.3777 74.661 54.293 73.8747 54.1827C72.3007 53.9682 70.7387 53.6823 69.1846 53.3637C67.6322 53.0372 66.0839 52.6921 64.5487 52.2928C63.0127 51.8992 61.4816 51.4853 59.9694 51.0034Z" fill="#ABBAC2"/>
</g>
</g>
</g>
<g id="Group_15">
<path id="Vector_39" d="M176.765 100.07C176.765 100.07 185.048 92.5267 183.934 88.7619C182.82 84.9975 184.726 80.8281 182.156 76.2871C179.585 71.7461 178.416 72.5161 172.374 71.4227C166.332 70.3297 165.401 67.0384 160.047 71.1553C154.798 75.1919 155.934 77.7132 162.566 78.3059C166.536 78.6606 171.423 77.5147 171.879 84.7297C172.438 93.5663 176.765 100.07 176.765 100.07Z" fill="#7FC991"/>
<path id="Vector_40" d="M180.215 116.373C178.21 114.903 180.734 109.152 184.593 106.395C187.259 104.491 189.508 106.627 193.344 104.196C196.054 102.479 196.131 100.653 198.14 100.456C200.513 100.223 201.129 102.701 204.725 103.875C208.186 105.006 209.279 103.254 211.366 104.413C215.195 106.538 217.034 115.492 214.264 117.839C212.569 119.274 209.447 113.976 205.247 115.169C203.154 115.763 203.03 117.27 200.977 117.541C198.101 117.92 196.987 115.144 194.112 114.304C188.554 112.681 182.456 118.017 180.215 116.373Z" fill="#7FC991"/>
<g id="Group_16">
<path id="Vector_41" d="M161.076 154.82C162.65 149.485 164.451 144.213 166.492 139.033C167.494 136.436 168.599 133.879 169.752 131.344C170.901 128.807 172.15 126.312 173.519 123.882C174.909 121.469 176.411 119.089 178.293 117.008L179.721 115.473C180.21 114.975 180.74 114.517 181.247 114.037C181.508 113.804 181.751 113.551 182.026 113.335L182.847 112.682C183.395 112.249 183.936 111.806 184.528 111.431C186.818 109.832 189.324 108.533 191.969 107.638C194.613 106.766 197.395 106.207 200.181 106.333C197.395 106.279 194.641 106.909 192.04 107.841C189.43 108.772 186.966 110.092 184.723 111.709C184.143 112.087 183.614 112.535 183.078 112.971L182.27 113.622C181.999 113.836 181.76 114.088 181.504 114.319C181.004 114.797 180.482 115.253 180 115.748L178.593 117.275C176.749 119.332 175.274 121.695 173.902 124.1C172.53 126.509 171.274 128.988 170.116 131.511C168.948 134.031 167.855 136.586 166.806 139.159C165.756 141.732 164.755 144.325 163.81 146.939C162.849 149.548 161.93 152.173 161.076 154.82Z" fill="#40635B"/>
</g>
<g id="Group_17">
<path id="Vector_42" d="M166.497 134.322C167.775 129.722 169.108 125.137 170.453 120.556L174.536 106.829C175.915 102.26 177.285 97.6873 178.54 93.0859C179.159 90.7847 179.757 88.4721 180.134 86.1228C180.32 84.9504 180.451 83.7608 180.362 82.5773C180.303 81.9887 180.183 81.4031 179.952 80.8573C179.725 80.3097 179.378 79.8137 178.962 79.3862C179.394 79.7978 179.762 80.2832 180.013 80.8304C180.264 81.3771 180.403 81.9693 180.479 82.5654C180.602 83.7634 180.503 84.9681 180.348 86.1542C180.012 88.5272 179.449 90.8549 178.869 93.1719C177.679 97.8011 176.305 102.375 174.958 106.955L170.777 120.654C169.365 125.214 167.95 129.774 166.497 134.322Z" fill="#40635B"/>
</g>
<path id="Vector_43" d="M168.293 138.159C168.293 138.159 168.666 128.809 171.712 127.6C174.757 126.39 176.511 122.988 180.817 122.333C185.123 121.678 185.22 122.842 189.054 126.244C192.888 129.647 195.528 128.56 195.587 134.197C195.644 139.724 193.403 140.279 189.594 136.232C187.314 133.809 185.546 130.011 180.575 133.432C174.488 137.623 168.293 138.159 168.293 138.159Z" fill="#7FC991"/>
<g id="Group_18">
<path id="Vector_44" d="M162.275 155.111C162.869 152.475 163.592 149.867 164.443 147.3C165.294 144.732 166.297 142.212 167.45 139.759C168.636 137.325 169.974 134.949 171.619 132.787C172.011 132.233 172.469 131.729 172.911 131.215C173.336 130.686 173.845 130.231 174.321 129.749C174.443 129.631 174.562 129.511 174.688 129.397L175.083 129.076L175.873 128.436C176.407 128.02 177 127.684 177.561 127.312L176.746 127.914C176.48 128.121 176.186 128.289 175.945 128.527L175.194 129.201L174.819 129.537C174.7 129.655 174.588 129.781 174.473 129.903C174.017 130.397 173.527 130.858 173.122 131.396C172.7 131.919 172.263 132.429 171.891 132.989C170.321 135.168 168.994 137.518 167.847 139.949C166.67 142.369 165.679 144.876 164.763 147.41L164.095 149.319L163.467 151.242L162.858 153.172L162.275 155.111Z" fill="#40635B"/>
</g>
</g>
<g id="Group_19">
<g id="Group_20">
<path id="Vector_45" d="M118.914 25.3135H104.824V37.5941H118.914V25.3135Z" fill="#94C8E3"/>
<path id="Vector_46" d="M121.263 32.2944H102.476V19.633C108.474 17.9006 115.264 17.9006 121.263 19.633V32.2944Z" fill="#4C649E"/>
</g>
<g id="Group_21">
<path id="Vector_47" d="M103.661 20.4015C104.325 20.5811 104.996 20.7223 105.672 20.8291C106.346 20.946 107.023 21.0405 107.704 21.0996C109.064 21.2267 110.428 21.2845 111.793 21.2695C112.474 21.243 113.158 21.2443 113.838 21.1817L114.86 21.1111C115.199 21.0713 115.539 21.0374 115.88 21.0056C117.241 20.867 118.59 20.627 119.949 20.402C119.29 20.5966 118.626 20.7832 117.957 20.95C117.281 21.0802 116.609 21.2505 115.925 21.3423C114.564 21.5823 113.18 21.6666 111.798 21.7107C110.416 21.7151 109.03 21.6445 107.662 21.4354C106.297 21.2253 104.936 20.9306 103.661 20.4015Z" fill="#94C8E3"/>
</g>
<g id="Group_22">
<g id="Group_23">
<path id="Vector_48" d="M103.666 22.673C103.772 24.0881 103.791 25.4913 103.841 26.8923C103.857 27.593 103.888 28.2924 103.926 28.9905C103.973 29.6876 104.006 30.387 104.129 31.0855C103.84 30.4338 103.688 29.7273 103.583 29.0262C103.474 28.3228 103.424 27.6142 103.4 26.9064C103.364 25.4904 103.425 24.0731 103.666 22.673Z" fill="#94C8E3"/>
</g>
<g id="Group_24">
<path id="Vector_49" d="M106.198 23.15C106.359 24.4795 106.4 25.8046 106.439 27.1283L106.47 29.1127L106.489 30.1033C106.504 30.4316 106.497 30.7661 106.592 31.0851C106.276 30.4823 106.212 29.7904 106.126 29.1343C106.05 28.4698 106.017 27.8039 105.998 27.1385C105.973 25.8077 106.011 24.4764 106.198 23.15Z" fill="#94C8E3"/>
</g>
<g id="Group_25">
<path id="Vector_50" d="M109.055 23.6053C109.17 24.7927 109.195 25.9673 109.247 27.1402C109.264 27.7266 109.293 28.3113 109.328 28.8955C109.371 29.4788 109.399 30.0635 109.504 30.6504C109.235 30.1142 109.087 29.523 108.986 28.9357C108.88 28.3466 108.832 27.7509 108.807 27.1569C108.768 25.9682 108.824 24.7777 109.055 23.6053Z" fill="#94C8E3"/>
</g>
<g id="Group_26">
<path id="Vector_51" d="M119.726 22.6729C119.967 24.073 120.028 25.4903 119.992 26.9063C119.968 27.6141 119.918 28.3232 119.809 29.0261C119.704 29.7272 119.552 30.4337 119.263 31.0854C119.387 30.3869 119.419 29.688 119.466 28.9903C119.504 28.2923 119.535 27.5929 119.551 26.8922C119.601 25.4907 119.62 24.088 119.726 22.6729Z" fill="#94C8E3"/>
</g>
<g id="Group_27">
<path id="Vector_52" d="M117.194 23.15C117.382 24.4764 117.419 25.8077 117.395 27.1389C117.376 27.8044 117.343 28.4706 117.266 29.1347C117.18 29.7904 117.117 30.4828 116.8 31.0855C116.895 30.7665 116.889 30.432 116.903 30.1037L116.922 29.1131L116.954 27.1288C116.992 25.8041 117.034 24.479 117.194 23.15Z" fill="#94C8E3"/>
</g>
<g id="Group_28">
<path id="Vector_53" d="M114.338 23.6053C114.569 24.7777 114.624 25.9682 114.586 27.1569C114.561 27.7509 114.512 28.3461 114.407 28.9357C114.306 29.523 114.158 30.1138 113.889 30.6504C113.994 30.0635 114.022 29.4788 114.065 28.8955C114.099 28.3117 114.128 27.7266 114.146 27.1402C114.197 25.9678 114.222 24.7931 114.338 23.6053Z" fill="#94C8E3"/>
</g>
<g id="Group_29">
<path id="Vector_54" d="M111.737 23.6053C111.921 24.779 111.965 25.9554 111.964 27.1318C111.956 27.72 111.94 28.3086 111.889 28.8968C111.84 29.4828 111.779 30.0781 111.606 30.6499C111.609 30.0591 111.553 29.4749 111.545 28.888C111.525 28.3016 111.523 27.7151 111.523 27.1287C111.538 25.9554 111.575 24.7817 111.737 23.6053Z" fill="#94C8E3"/>
</g>
</g>
</g>
<path id="Vector_55" opacity="0.11" d="M121 166.751C187.46 166.751 241.336 165.66 241.336 164.315C241.336 162.97 187.46 161.879 121 161.879C54.5403 161.879 0.664062 162.97 0.664062 164.315C0.664062 165.66 54.5403 166.751 121 166.751Z" fill="#344C82"/>
<g id="Group_30">
<path id="Vector_56" d="M112.958 155.751C144.204 155.751 169.535 130.421 169.535 99.174C169.535 67.9274 144.204 42.597 112.958 42.597C81.7111 42.597 56.3807 67.9274 56.3807 99.174C56.3807 130.421 81.7111 155.751 112.958 155.751Z" fill="#F3F8FA"/>
<path id="Vector_57" d="M125.448 96.5083C137.24 96.5083 146.799 86.9491 146.799 75.1572C146.799 63.3653 137.24 53.8061 125.448 53.8061C113.656 53.8061 104.097 63.3653 104.097 75.1572C104.097 86.9491 113.656 96.5083 125.448 96.5083Z" fill="white"/>
<path id="Vector_58" d="M62.8241 133.444C62.8241 133.444 52.8195 162.271 55.8585 163.096C58.8974 163.922 80.6055 145.67 80.6055 145.67L62.8241 133.444Z" fill="#4C649E"/>
<path id="Vector_59" d="M162.728 133.444C162.728 133.444 172.733 162.271 169.694 163.096C166.655 163.922 144.947 145.67 144.947 145.67L162.728 133.444Z" fill="#4C649E"/>
<path id="Vector_60" d="M112.958 35.7997C77.9571 35.7997 49.5835 64.1733 49.5835 99.1743C49.5835 134.175 77.9571 162.549 112.958 162.549C147.959 162.549 176.333 134.175 176.333 99.1743C176.333 64.1733 147.959 35.7997 112.958 35.7997ZM112.958 155.751C81.7113 155.751 56.381 130.421 56.381 99.1743C56.381 67.9276 81.7113 42.5972 112.958 42.5972C144.205 42.5972 169.535 67.9276 169.535 99.1743C169.535 130.421 144.205 155.751 112.958 155.751Z" fill="#4C649E"/>
<path id="Vector_61" opacity="0.23" d="M110.754 101.84H114.509L112.631 68.5097L110.754 101.84Z" fill="#94C8E3"/>
<path id="Vector_62" d="M110.198 101.076H113.953L112.075 67.7453L110.198 101.076Z" fill="#94C8E3"/>
<path id="Vector_63" opacity="0.23" d="M110.868 100.876L113.709 103.331L141.14 68.7153L110.868 100.876Z" fill="#94C8E3"/>
<path id="Vector_64" d="M110.312 100.111L113.153 102.567L140.585 67.9509L110.312 100.111Z" fill="#94C8E3"/>
<path id="Vector_65" opacity="0.23" d="M112.075 104.764C114.668 104.764 116.77 102.662 116.77 100.07C116.77 97.4769 114.668 95.3751 112.075 95.3751C109.483 95.3751 107.381 97.4769 107.381 100.07C107.381 102.662 109.483 104.764 112.075 104.764Z" fill="#94C8E3"/>
<path id="Vector_66" opacity="0.23" d="M112.075 106.547C114.668 106.547 116.77 104.445 116.77 101.852C116.77 99.2595 114.668 97.1577 112.075 97.1577C109.483 97.1577 107.381 99.2595 107.381 101.852C107.381 104.445 109.483 106.547 112.075 106.547Z" fill="#94C8E3"/>
<path id="Vector_67" d="M112.075 105.77C114.668 105.77 116.77 103.668 116.77 101.076C116.77 98.483 114.668 96.3812 112.075 96.3812C109.483 96.3812 107.381 98.483 107.381 101.076C107.381 103.668 109.483 105.77 112.075 105.77Z" fill="#94C8E3"/>
<path id="Vector_68" opacity="0.23" d="M109.982 102.503C110.347 103.708 111.665 104.301 112.683 104.012C114.085 103.613 114.736 101.586 113.874 100.438C113.321 99.7006 112.197 99.3948 111.253 99.8021C110.24 100.239 109.649 101.406 109.982 102.503Z" fill="#94C8E3"/>
<g id="Group_31">
<g id="Group_32">
<path id="Vector_69" d="M112.957 45.5404C113.231 45.9909 113.373 46.4418 113.476 46.8924C113.573 47.3429 113.618 47.7939 113.619 48.2444C113.62 48.6949 113.575 49.1459 113.478 49.5964C113.375 50.0469 113.233 50.4979 112.957 50.9484C112.681 50.4979 112.539 50.0469 112.437 49.5964C112.34 49.1459 112.295 48.6949 112.295 48.2444C112.296 47.7939 112.341 47.3429 112.438 46.8924C112.541 46.4418 112.684 45.9913 112.957 45.5404Z" fill="#94C8E3"/>
</g>
<g id="Group_33">
<path id="Vector_70" d="M86.1407 52.7263C86.6031 52.9796 86.9517 53.2991 87.2659 53.6379C87.5752 53.9795 87.84 54.3475 88.0659 54.7371C88.2923 55.1267 88.4785 55.5397 88.6197 55.9788C88.7565 56.4201 88.8584 56.8816 88.8447 57.4098C88.3805 57.1574 88.0319 56.8384 87.7182 56.499C87.4089 56.1571 87.1441 55.7895 86.9199 55.399C86.6953 55.0085 86.5091 54.5955 86.3679 54.1564C86.2311 53.7147 86.1292 53.2532 86.1407 52.7263Z" fill="#94C8E3"/>
</g>
<g id="Group_34">
<path id="Vector_71" d="M66.5095 72.3573C67.0368 72.3454 67.4979 72.4478 67.9396 72.5841C68.3782 72.7253 68.7912 72.9115 69.1817 73.1361C69.5727 73.3607 69.9402 73.6251 70.2818 73.9344C70.6211 74.2481 70.9401 74.5971 71.1925 75.0609C70.6643 75.0741 70.2028 74.9727 69.7615 74.8354C69.3229 74.6942 68.9099 74.508 68.5203 74.2816C68.1302 74.0557 67.7626 73.7914 67.4211 73.4816C67.0818 73.1684 66.7628 72.8198 66.5095 72.3573Z" fill="#94C8E3"/>
</g>
<g id="Group_35">
<path id="Vector_72" d="M59.324 99.1742C59.7746 98.9002 60.2255 98.7581 60.6761 98.6558C61.1266 98.5587 61.5775 98.5137 62.0281 98.5128C62.4786 98.5119 62.9295 98.5569 63.3801 98.654C63.8306 98.7564 64.2816 98.8989 64.7321 99.1747C64.2816 99.4505 63.8306 99.593 63.3801 99.6949C62.9295 99.792 62.4786 99.8374 62.0281 99.8361C61.5775 99.8352 61.1266 99.7902 60.6761 99.6932C60.2251 99.5903 59.7746 99.4483 59.324 99.1742Z" fill="#94C8E3"/>
</g>
<g id="Group_36">
<path id="Vector_73" d="M66.5095 125.991C66.7628 125.529 67.0818 125.18 67.4211 124.866C67.7626 124.557 68.1306 124.292 68.5203 124.066C68.9099 123.84 69.3229 123.653 69.7615 123.512C70.2028 123.375 70.6643 123.273 71.1925 123.287C70.9401 123.751 70.6211 124.099 70.2818 124.413C69.9398 124.722 69.5722 124.987 69.1817 125.211C68.7912 125.436 68.3782 125.622 67.9396 125.763C67.4983 125.901 67.0368 126.003 66.5095 125.991Z" fill="#94C8E3"/>
</g>
<g id="Group_37">
<path id="Vector_74" d="M86.1405 145.622C86.1286 145.095 86.231 144.634 86.3673 144.192C86.5085 143.753 86.6947 143.34 86.9193 142.949C87.1439 142.559 87.4082 142.191 87.7175 141.849C88.0313 141.51 88.3803 141.191 88.8441 140.939C88.8573 141.467 88.7558 141.928 88.619 142.37C88.4778 142.808 88.2916 143.221 88.0653 143.611C87.8393 144.001 87.575 144.369 87.2653 144.711C86.9515 145.05 86.6034 145.369 86.1405 145.622Z" fill="#94C8E3"/>
</g>
<g id="Group_38">
<path id="Vector_75" d="M112.957 152.808C112.683 152.357 112.541 151.906 112.439 151.456C112.342 151.005 112.297 150.554 112.296 150.104C112.295 149.653 112.34 149.202 112.437 148.752C112.539 148.301 112.682 147.85 112.957 147.4C113.233 147.85 113.376 148.301 113.478 148.752C113.575 149.202 113.621 149.653 113.619 150.104C113.618 150.554 113.573 151.005 113.476 151.456C113.374 151.907 113.231 152.357 112.957 152.808Z" fill="#94C8E3"/>
</g>
<g id="Group_39">
<path id="Vector_76" d="M139.775 145.622C139.312 145.369 138.964 145.049 138.649 144.711C138.34 144.369 138.075 144.001 137.849 143.611C137.623 143.222 137.437 142.809 137.296 142.37C137.159 141.928 137.057 141.467 137.071 140.939C137.535 141.191 137.883 141.51 138.197 141.849C138.506 142.191 138.771 142.559 138.995 142.949C139.22 143.34 139.406 143.753 139.547 144.192C139.684 144.634 139.787 145.095 139.775 145.622Z" fill="#94C8E3"/>
</g>
<g id="Group_40">
<path id="Vector_77" d="M159.406 125.991C158.879 126.003 158.417 125.901 157.976 125.764C157.537 125.623 157.124 125.437 156.734 125.212C156.343 124.988 155.975 124.723 155.634 124.414C155.295 124.1 154.976 123.751 154.723 123.288C155.251 123.274 155.713 123.376 156.154 123.513C156.593 123.654 157.006 123.841 157.395 124.067C157.785 124.293 158.153 124.557 158.495 124.867C158.833 125.18 159.152 125.528 159.406 125.991Z" fill="#94C8E3"/>
</g>
<g id="Group_41">
<path id="Vector_78" d="M166.591 99.1742C166.141 99.4482 165.69 99.5903 165.239 99.6926C164.789 99.7897 164.338 99.8347 163.887 99.8356C163.437 99.8365 162.986 99.7915 162.535 99.6944C162.085 99.5925 161.634 99.4495 161.183 99.1742C161.634 98.8984 162.085 98.7558 162.535 98.6535C162.986 98.5564 163.437 98.5114 163.887 98.5123C164.338 98.5132 164.789 98.5582 165.239 98.6552C165.69 98.758 166.141 98.9001 166.591 99.1742Z" fill="#94C8E3"/>
</g>
<g id="Group_42">
<path id="Vector_79" d="M159.406 72.3573C159.153 72.8198 158.834 73.1684 158.495 73.4825C158.153 73.7918 157.785 74.0566 157.395 74.2825C157.006 74.5089 156.593 74.6947 156.154 74.8363C155.713 74.9731 155.251 75.075 154.723 75.0618C154.976 74.5976 155.295 74.249 155.634 73.9353C155.976 73.6259 156.343 73.3612 156.734 73.137C157.124 72.9124 157.537 72.7262 157.976 72.585C158.417 72.4478 158.879 72.3454 159.406 72.3573Z" fill="#94C8E3"/>
</g>
<g id="Group_43">
<path id="Vector_80" d="M139.775 52.7263C139.787 53.2536 139.684 53.7147 139.548 54.1564C139.407 54.595 139.22 55.008 138.996 55.399C138.771 55.7899 138.507 56.1575 138.198 56.499C137.884 56.8384 137.535 57.1574 137.071 57.4098C137.058 56.8816 137.159 56.4201 137.296 55.9788C137.437 55.5402 137.624 55.1272 137.85 54.7371C138.076 54.347 138.34 53.9795 138.65 53.6379C138.964 53.2986 139.312 52.9796 139.775 52.7263Z" fill="#94C8E3"/>
</g>
</g>
<path id="Vector_81" opacity="0.23" d="M112.958 45.5336C143.694 45.5336 168.705 70.0436 169.514 100.585C169.526 100.116 169.535 99.6457 169.535 99.174C169.535 67.9273 144.204 42.597 112.958 42.597C81.7111 42.597 56.3807 67.9273 56.3807 99.174C56.3807 99.6457 56.3891 100.116 56.4019 100.585C57.2107 70.0436 82.2216 45.5336 112.958 45.5336Z" fill="#94C8E3"/>
<path id="Vector_82" d="M109.982 101.748C110.347 102.953 111.665 103.546 112.683 103.257C114.085 102.858 114.736 100.831 113.874 99.6826C113.321 98.9457 112.197 98.6399 111.253 99.0472C110.24 99.4845 109.649 100.651 109.982 101.748Z" fill="#4C649E"/>
<g id="Group_44">
<path id="Vector_83" d="M125.448 38.7287C129.643 39.4299 133.718 40.7735 137.629 42.4499C141.546 44.131 145.26 46.2694 148.74 48.7316C150.466 49.9848 152.115 51.3407 153.7 52.7651C155.266 54.2124 156.77 55.7268 158.156 57.3467C160.931 60.5815 163.303 64.1548 165.212 67.9514C164.151 66.1109 163.079 64.2766 161.832 62.5601C160.636 60.8088 159.292 59.1651 157.9 57.5704C156.483 55.9969 154.999 54.4856 153.43 53.0634C151.847 51.6589 150.202 50.3245 148.482 49.0899C145.048 46.6158 141.357 44.4973 137.492 42.7596C135.563 41.8837 133.589 41.1036 131.579 40.4302C129.573 39.7441 127.53 39.1541 125.448 38.7287Z" fill="#94C8E3"/>
</g>
<g id="Group_45">
<path id="Vector_84" d="M111.994 158.37C107.741 158.44 103.491 157.858 99.3403 156.918C95.1846 155.975 91.144 154.544 87.2751 152.754C85.3507 151.834 83.4838 150.8 81.6662 149.686C79.865 148.546 78.1106 147.329 76.4537 145.988C73.1385 143.309 70.1583 140.225 67.5924 136.837C68.9695 138.455 70.356 140.065 71.8942 141.527C73.387 143.033 75.0068 144.406 76.6642 145.722C78.3431 147.012 80.0768 148.23 81.8767 149.344C83.6885 150.438 85.5484 151.452 87.463 152.355C91.2892 154.166 95.3024 155.58 99.418 156.589C101.474 157.1 103.557 157.51 105.656 157.808C107.754 158.119 109.87 158.329 111.994 158.37Z" fill="#94C8E3"/>
</g>
</g>
<g id="Group_46">
<path id="Vector_85" opacity="0.23" d="M57.2552 72.583C56.5629 72.6263 55.9421 72.651 55.3803 72.6691C51.9593 80.0879 49.9313 88.2803 49.6281 96.9121C50.046 97.4328 50.3174 97.7461 50.3174 97.7461C50.3174 97.7461 54.8716 92.3831 56.2999 84.538C57.4662 78.1323 61.7164 79.6709 65.3046 79.7706C71.2991 79.9374 72.5796 77.8009 68.3092 73.6394C63.9531 69.3936 62.7745 72.2397 57.2552 72.583Z" fill="#4C649E"/>
<path id="Vector_86" d="M50.3172 95.24C50.3172 95.24 43.701 87.6222 45.0932 84.3719C46.4853 81.1216 45.218 77.1922 47.9944 73.4005C50.7704 69.6088 51.7358 70.4203 57.2551 70.0774C62.7743 69.7345 63.9529 66.8884 68.309 71.1333C72.5795 75.2953 71.2989 77.4314 65.3045 77.2646C61.7162 77.1649 57.4656 75.6262 56.2998 82.0319C54.8714 89.8766 50.3172 95.24 50.3172 95.24Z" fill="#7FC991"/>
<path id="Vector_87" d="M41.7631 90.6968C43.7104 89.5923 42.0579 84.183 38.8954 81.3122C36.7108 79.3292 34.474 81.0028 31.2987 78.4255C29.0558 76.6048 29.1785 74.9638 27.4025 74.5764C25.3043 74.1188 24.4928 76.2699 21.1529 76.9433C17.9384 77.591 17.1446 75.909 15.1558 76.7262C11.5084 78.2247 8.92218 86.0407 11.1532 88.4305C12.5184 89.8928 15.868 85.4816 19.4991 86.9894C21.3087 87.7408 21.2619 89.1017 23.0693 89.5597C25.6012 90.2013 26.8893 87.8348 29.5496 87.3861C34.692 86.5185 39.586 91.9319 41.7631 90.6968Z" fill="#7FC991"/>
<g id="Group_47">
<path id="Vector_88" d="M54.8424 127.097C54.3398 124.643 53.8046 122.197 53.2151 119.763C52.6428 117.326 52.0179 114.901 51.3464 112.491C49.9983 107.675 48.5307 102.877 46.5777 98.2798C45.6047 95.9848 44.5347 93.7176 43.1028 91.6843L42.0063 90.1717C41.6277 89.6779 41.2089 89.216 40.8122 88.7363C40.6071 88.5024 40.42 88.2518 40.1998 88.0316L39.5463 87.3649C39.113 86.9179 38.6876 86.4621 38.2093 86.0627C36.375 84.3802 34.3121 82.9391 32.0776 81.8315C29.851 80.7209 27.4541 79.879 24.9592 79.6169C27.4669 79.7792 29.8969 80.5832 32.172 81.6369C34.4453 82.7145 36.5523 84.1389 38.4356 85.8095C38.9263 86.2066 39.364 86.6593 39.8097 87.105L40.476 87.7753C40.6997 87.9972 40.8903 88.2492 41.0995 88.4848C41.5032 88.9675 41.9295 89.4335 42.3152 89.9308L43.432 91.4544C44.8987 93.5147 45.9935 95.8022 46.9832 98.1073C47.9522 100.426 48.8069 102.789 49.5681 105.179C50.3319 107.569 51.052 109.972 51.6724 112.402C52.9464 117.253 54.0133 122.156 54.8424 127.097Z" fill="#40635B"/>
</g>
<g id="Group_48">
<path id="Vector_89" d="M55.9032 126.955C55.0727 122.736 54.2824 118.51 53.4948 114.283L51.1888 101.592C50.4673 97.3529 49.7181 93.1173 49.144 88.8508C48.8704 86.7169 48.6132 84.575 48.5637 82.4159C48.5518 81.3384 48.5911 80.2498 48.8294 79.1908C48.9604 78.6653 49.148 78.1499 49.4308 77.687C49.7141 77.2241 50.0958 76.8296 50.5251 76.5075C50.109 76.8473 49.7472 77.255 49.4882 77.7214C49.2247 78.1856 49.0562 78.6962 48.9437 79.2164C48.7416 80.2653 48.7354 81.3424 48.7799 82.4102C48.8726 84.5499 49.166 86.6807 49.4798 88.8036C50.1223 93.0502 50.8671 97.2841 51.6225 101.516L53.827 114.224C54.5459 118.464 55.2523 122.705 55.9032 126.955Z" fill="#40635B"/>
</g>
<path id="Vector_90" d="M50.1379 111.436C50.1379 111.436 50.7866 103.034 48.1894 101.632C45.5921 100.23 44.3813 97.0029 40.5984 95.9647C36.8155 94.9264 36.6055 95.9581 32.8191 98.5981C29.0326 101.239 26.7849 99.9894 26.1402 105.025C25.5083 109.963 27.4543 110.695 31.2866 107.475C33.5807 105.547 35.561 102.336 39.648 105.918C44.6536 110.306 50.1379 111.436 50.1379 111.436Z" fill="#7FC991"/>
<g id="Group_49">
<path id="Vector_91" d="M53.7393 127.232L53.4163 125.436L53.07 123.646L52.7072 121.862L52.307 120.086C51.7506 117.724 51.128 115.377 50.3275 113.092C49.5589 110.796 48.6194 108.557 47.4479 106.443C47.1748 105.902 46.839 105.4 46.5173 104.888C46.2119 104.364 45.8232 103.9 45.4689 103.41L45.1993 103.045L44.9001 102.704L44.3004 102.021C44.1111 101.782 43.8662 101.6 43.6509 101.386L42.9872 100.76C43.4514 101.15 43.9479 101.512 44.3834 101.938L45.0245 102.592L45.3458 102.92L45.6379 103.273C46.0143 103.754 46.4229 104.214 46.749 104.732C47.0914 105.238 47.4488 105.736 47.7427 106.273C48.9905 108.379 49.9379 110.647 50.745 112.949C51.5167 115.265 52.1495 117.625 52.6375 120.013C53.1256 122.401 53.4944 124.811 53.7393 127.232Z" fill="#40635B"/>
</g>
</g>
<g id="Group_50">
<path id="Vector_92" opacity="0.11" d="M58.132 183.078C83.4804 183.078 104.029 179.945 104.029 176.081C104.029 172.216 83.4804 169.084 58.132 169.084C32.7837 169.084 12.2348 172.216 12.2348 176.081C12.2348 179.945 32.7837 183.078 58.132 183.078Z" fill="#344C82"/>
<g id="Group_51">
<path id="Vector_93" d="M23.1666 115.053L17.9792 173.928H30.5475L23.1666 115.053Z" fill="#ABBAC2"/>
<path id="Vector_94" d="M23.9499 126.233C23.9499 126.233 25.8081 176.186 28.8986 177.973C31.9892 179.758 86.1287 181.785 98.2849 170.981C98.2849 170.981 93.6733 163.968 92.5583 157.863C91.4432 151.758 88.8636 121.716 88.8636 121.716L23.9499 126.233Z" fill="white"/>
<g id="Group_52">
<g id="Group_53">
<g id="Group_54">
<path id="Vector_95" d="M45.916 141.219L35.9697 142.568L35.231 132.034L45.5767 131.309L45.916 141.219Z" stroke="#CCCCCC" stroke-width="0.5" stroke-miterlimit="10"/>
<path id="Vector_96" d="M59.22 140.938L48.8743 141.663L48.0853 130.409L58.4813 130.404L59.22 140.938Z" stroke="#CCCCCC" stroke-width="0.5" stroke-miterlimit="10"/>
<path id="Vector_97" d="M71.7199 139.333L61.7788 140.759L61.0402 130.225L71.3859 129.5L71.7199 139.333Z" stroke="#CCCCCC" stroke-width="0.5" stroke-miterlimit="10"/>
<path id="Vector_98" d="M47.3369 156.411L36.9537 156.602L36.215 146.069L46.5607 145.343L47.3369 156.411Z" stroke="#CCCCCC" stroke-width="0.5" stroke-miterlimit="10"/>
<path id="Vector_99" d="M60.2039 154.973L49.9116 156.463L49.1195 145.164L59.4277 143.902L60.2039 154.973Z" stroke="#CCCCCC" stroke-width="0.5" stroke-miterlimit="10"/>
<path id="Vector_100" d="M73.1617 154.833L62.7626 154.793L62.0239 144.259L72.3696 143.534L73.1617 154.833Z" stroke="#CCCCCC" stroke-width="0.5" stroke-miterlimit="10"/>
<path id="Vector_101" d="M48.2833 169.912L37.9376 170.637L37.1743 159.75L47.5447 159.378L48.2833 169.912Z" stroke="#CCCCCC" stroke-width="0.5" stroke-miterlimit="10"/>
<path id="Vector_102" d="M83.9897 128.626L73.6437 129.351L74.3819 139.886L84.7278 139.161L83.9897 128.626Z" stroke="#CCCCCC" stroke-width="0.5" stroke-miterlimit="10"/>
<path id="Vector_103" d="M84.9738 142.661L74.6278 143.386L75.3659 153.92L85.7119 153.196L84.9738 142.661Z" stroke="#CCCCCC" stroke-width="0.5" stroke-miterlimit="10"/>
<path id="Vector_104" d="M86.6986 167.218L76.3529 167.944L75.9924 156.72L85.96 156.685L86.6986 167.218Z" stroke="#CCCCCC" stroke-width="0.5" stroke-miterlimit="10"/>
<path id="Vector_105" d="M61.1879 169.007L50.2664 168.717L50.1035 159.198L60.4492 158.473L61.1879 169.007Z" stroke="#CCCCCC" stroke-width="0.5" stroke-miterlimit="10"/>
</g>
<path id="Vector_106" d="M74.0926 168.102L63.7469 168.827L63.0082 158.294L73.3292 157.215L74.0926 168.102Z" stroke="#CCCCCC" stroke-width="0.5" stroke-miterlimit="10"/>
</g>
<g id="Group_55">
<path id="Vector_107" d="M88.0804 110.536L23.1667 115.053L23.9504 126.232L88.8645 121.716L88.0804 110.536ZM35.2986 121.68C34.2762 121.751 33.3893 120.981 33.3178 119.958C33.2463 118.936 34.0168 118.049 35.0392 117.977C36.0616 117.905 36.9485 118.676 37.02 119.699C37.0914 120.721 36.321 121.608 35.2986 121.68ZM46.3521 120.905C45.3297 120.976 44.4428 120.206 44.3713 119.183C44.2998 118.161 45.0702 117.274 46.0926 117.203C47.115 117.131 48.002 117.902 48.0734 118.924C48.1449 119.946 47.3745 120.833 46.3521 120.905ZM57.4056 120.129C56.3832 120.201 55.4963 119.43 55.4248 118.408C55.3533 117.386 56.1237 116.499 57.1461 116.427C58.1685 116.355 59.0554 117.126 59.1269 118.149C59.1984 119.171 58.428 120.058 57.4056 120.129ZM68.459 119.355C67.4367 119.426 66.5497 118.656 66.4782 117.633C66.4068 116.611 67.1772 115.724 68.1996 115.652C69.222 115.581 70.1089 116.351 70.1804 117.374C70.2519 118.396 69.4814 119.283 68.459 119.355ZM79.5125 118.58C78.4901 118.651 77.6032 117.881 77.5317 116.858C77.4598 115.836 78.2307 114.949 79.2531 114.878C80.2755 114.806 81.1624 115.577 81.2339 116.599C81.3053 117.621 80.5349 118.508 79.5125 118.58Z" fill="#FCC858"/>
</g>
</g>
<g id="Group_56">
<g id="Group_57">
<path id="Vector_108" d="M55.7482 133.651C55.5417 134.169 55.2659 134.626 54.9738 135.069C54.6777 135.509 54.3551 135.926 54.0105 136.323C53.6659 136.721 53.2979 137.098 52.9043 137.453C52.5063 137.804 52.0919 138.141 51.607 138.417C51.8126 137.898 52.088 137.441 52.3805 136.998C52.677 136.558 52.9991 136.141 53.3446 135.744C53.6902 135.348 54.0582 134.97 54.4518 134.616C54.8498 134.265 55.2641 133.928 55.7482 133.651Z" fill="#4D4D4D"/>
</g>
<g id="Group_58">
<path id="Vector_109" d="M56.0602 138.105C55.5426 137.898 55.0854 137.622 54.642 137.33C54.2025 137.034 53.7855 136.712 53.3879 136.367C52.9903 136.022 52.6131 135.654 52.2583 135.261C51.9071 134.863 51.5704 134.448 51.2946 133.963C51.8131 134.169 52.2707 134.444 52.7137 134.737C53.1532 135.033 53.5702 135.356 53.9668 135.701C54.3635 136.047 54.7413 136.415 55.0956 136.808C55.4464 137.207 55.7835 137.621 56.0602 138.105Z" fill="#4D4D4D"/>
</g>
</g>
<g id="Group_59">
<g id="Group_60">
<path id="Vector_110" d="M70.6462 160.638C70.4397 161.156 70.1639 161.613 69.8718 162.056C69.5757 162.496 69.2532 162.913 68.9085 163.31C68.5639 163.708 68.1959 164.085 67.8023 164.44C67.4043 164.791 66.99 165.128 66.505 165.404C66.7106 164.885 66.986 164.428 67.2785 163.985C67.5751 163.545 67.8972 163.128 68.2427 162.732C68.5882 162.335 68.9562 161.958 69.3498 161.603C69.7483 161.252 70.1621 160.915 70.6462 160.638Z" fill="#4D4D4D"/>
</g>
<g id="Group_61">
<path id="Vector_111" d="M70.9582 165.092C70.4406 164.885 69.9835 164.61 69.54 164.317C69.1005 164.021 68.6835 163.699 68.2859 163.354C67.8884 163.01 67.5111 162.642 67.1563 162.248C66.8051 161.85 66.4684 161.436 66.1926 160.951C66.7111 161.156 67.1687 161.432 67.6117 161.724C68.0512 162.021 68.4682 162.343 68.8649 162.688C69.2616 163.034 69.6393 163.401 69.9936 163.795C70.3449 164.194 70.6815 164.608 70.9582 165.092Z" fill="#4D4D4D"/>
</g>
</g>
<g id="Group_62">
<g id="Group_63">
<path id="Vector_112" d="M43.8273 148.59C43.6208 149.108 43.345 149.565 43.0529 150.009C42.7568 150.448 42.4342 150.865 42.0896 151.263C41.745 151.66 41.377 152.037 40.9834 152.392C40.5854 152.743 40.171 153.08 39.6861 153.356C39.8917 152.837 40.167 152.38 40.4596 151.937C40.7557 151.497 41.0782 151.08 41.4237 150.684C41.7692 150.287 42.1373 149.909 42.5309 149.555C42.9293 149.204 43.3436 148.867 43.8273 148.59Z" fill="#94C8E3"/>
</g>
<g id="Group_64">
<path id="Vector_113" d="M44.1398 153.044C43.6222 152.837 43.165 152.562 42.7216 152.269C42.2821 151.973 41.8651 151.651 41.4675 151.306C41.0699 150.962 40.6927 150.594 40.3379 150.2C39.9867 149.802 39.65 149.388 39.3742 148.903C39.8927 149.108 40.3503 149.384 40.7933 149.676C41.2328 149.973 41.6498 150.295 42.0464 150.64C42.4431 150.986 42.8208 151.354 43.1752 151.747C43.526 152.145 43.8631 152.56 44.1398 153.044Z" fill="#94C8E3"/>
</g>
</g>
<g id="Group_65">
<path id="Vector_114" d="M88.0319 173.928C88.6444 173.458 89.2163 172.95 89.7701 172.431C90.3181 171.905 90.8379 171.355 91.3087 170.766C91.7853 170.182 92.1873 169.545 92.5442 168.883C92.8924 168.213 93.1399 167.5 93.3403 166.75C93.3107 167.52 93.1668 168.304 92.8566 169.027C92.5495 169.749 92.1418 170.429 91.6529 171.041C90.6623 172.251 89.4329 173.267 88.0319 173.928Z" fill="#CCCCCC"/>
</g>
<g id="Group_66">
<path id="Vector_115" d="M25.7917 127.816L26.1531 133.781L26.5414 139.743C26.8194 143.716 27.1049 147.688 27.4812 151.651C27.8263 155.617 28.2565 159.576 28.8134 163.515C29.0971 165.484 29.4223 167.447 29.8534 169.387C29.9514 169.875 30.0714 170.357 30.1967 170.837C30.3093 171.322 30.4637 171.794 30.6075 172.269C30.6733 172.509 30.7682 172.739 30.8551 172.971C30.9491 173.2 31.017 173.442 31.1326 173.662L31.4574 174.333L31.8753 174.95C31.2094 174.194 30.8564 173.233 30.4968 172.308C30.3366 171.835 30.165 171.365 30.0361 170.883C29.894 170.404 29.7572 169.924 29.6425 169.438C29.1668 167.498 28.8028 165.535 28.4776 163.567C27.8493 159.626 27.4217 155.66 27.0418 151.692C26.7015 147.719 26.4094 143.744 26.2038 139.764C26.0004 135.784 25.842 131.801 25.7917 127.816Z" fill="#CCCCCC"/>
</g>
<g id="Group_67">
<path id="Vector_116" d="M23.9504 126.233L26.4678 126.056L25.7917 115.863L23.1667 115.053L23.9504 126.233Z" fill="#B58C40"/>
</g>
<g id="Group_68">
<path id="Vector_117" d="M28.8336 114.655C29.1813 113.903 29.6455 113.201 30.1993 112.565C30.7583 111.939 31.4233 111.36 32.2529 111.021C32.665 110.852 33.116 110.746 33.5775 110.737C34.0391 110.732 34.5006 110.826 34.9282 110.989C35.7829 111.336 36.4704 111.913 37.0392 112.591C37.6185 113.266 38.0104 114.149 38.0783 115.065C38.1498 115.984 37.8904 116.887 37.4663 117.649C37.0379 118.416 36.4475 119.064 35.7719 119.582C35.0941 120.092 34.3237 120.498 33.5016 120.643C34.2553 120.298 34.9097 119.807 35.471 119.239C36.0318 118.672 36.5053 118.024 36.8247 117.322C37.1491 116.623 37.3079 115.867 37.2302 115.14C37.1658 114.409 36.8336 113.729 36.3645 113.14C35.8897 112.549 35.2803 112.039 34.6207 111.728C33.9513 111.433 33.1985 111.393 32.4775 111.63C31.7578 111.867 31.0822 112.312 30.4812 112.846C29.878 113.382 29.3287 113.994 28.8336 114.655Z" fill="#4D4D4D"/>
</g>
<g id="Group_69">
<path id="Vector_118" d="M39.9464 113.655C40.2941 112.903 40.7583 112.201 41.3121 111.565C41.8712 110.939 42.5362 110.359 43.3657 110.02C43.7779 109.851 44.2288 109.746 44.6904 109.737C45.1519 109.732 45.6135 109.825 46.0411 109.989C46.8958 110.336 47.5833 110.913 48.152 111.591C48.7314 112.266 49.1232 113.148 49.1912 114.065C49.2627 114.984 49.0032 115.886 48.5792 116.649C48.1507 117.416 47.5603 118.064 46.8847 118.582C46.207 119.091 45.4365 119.498 44.6145 119.642C45.3686 119.297 46.0225 118.807 46.5838 118.238C47.1446 117.672 47.6181 117.023 47.9376 116.321C48.2619 115.623 48.4208 114.867 48.3431 114.139C48.2787 113.408 47.9464 112.729 47.4773 112.14C47.0026 111.549 46.3932 111.039 45.7335 110.728C45.0641 110.433 44.3113 110.394 43.5903 110.63C42.8706 110.867 42.1951 111.313 41.5941 111.847C40.9913 112.381 40.442 112.993 39.9464 113.655Z" fill="#4D4D4D"/>
</g>
<g id="Group_70">
<path id="Vector_119" d="M51.1403 113.146C51.4536 112.451 51.8763 111.804 52.3824 111.215C52.8938 110.636 53.5041 110.099 54.2701 109.784C54.6505 109.627 55.0679 109.528 55.4959 109.519C55.9235 109.513 56.352 109.599 56.7482 109.75C57.5407 110.07 58.1748 110.603 58.7012 111.229C59.2373 111.852 59.5996 112.67 59.6623 113.519C59.7276 114.37 59.4853 115.205 59.0922 115.908C58.6941 116.615 58.1479 117.209 57.5226 117.683C56.8956 118.148 56.1838 118.518 55.4262 118.642C56.1154 118.317 56.7111 117.863 57.2217 117.339C57.7318 116.817 58.1615 116.222 58.4506 115.58C58.7444 114.942 58.8856 114.253 58.8142 113.594C58.7555 112.93 58.4523 112.315 58.0265 111.777C57.5945 111.238 57.0385 110.773 56.4406 110.489C55.8335 110.221 55.1531 110.181 54.4951 110.394C53.839 110.607 53.2181 111.011 52.6648 111.497C52.1088 111.984 51.6009 112.542 51.1403 113.146Z" fill="#4D4D4D"/>
</g>
<g id="Group_71">
<path id="Vector_120" d="M62.1102 112.172C62.4217 111.481 62.8423 110.836 63.3453 110.25C63.8541 109.674 64.4612 109.139 65.2237 108.825C65.6023 108.669 66.018 108.57 66.4438 108.561C66.8696 108.555 67.2959 108.641 67.6903 108.791C68.4793 109.109 69.1107 109.64 69.6345 110.263C70.1684 110.883 70.5289 111.698 70.5912 112.543C70.6565 113.39 70.4147 114.221 70.0233 114.921C69.627 115.624 69.083 116.217 68.4608 116.687C67.8364 117.15 67.1277 117.517 66.3736 117.641C67.0593 117.317 67.6515 116.865 68.1598 116.344C68.6668 115.824 69.0944 115.232 69.3821 114.594C69.6742 113.958 69.8146 113.274 69.7435 112.618C69.6848 111.957 69.3839 111.346 68.9603 110.811C68.5305 110.275 67.9776 109.813 67.3832 109.53C66.7796 109.263 66.1027 109.224 65.4483 109.435C64.7957 109.647 64.1779 110.048 63.6273 110.532C63.0748 111.016 62.5691 111.572 62.1102 112.172Z" fill="#4D4D4D"/>
</g>
<g id="Group_72">
<path id="Vector_121" d="M73.7273 111.281C74.0308 110.603 74.4421 109.971 74.935 109.396C75.4332 108.83 76.028 108.305 76.7763 107.996C77.1479 107.842 77.556 107.745 77.9744 107.735C78.3927 107.729 78.8114 107.813 79.1988 107.961C79.9741 108.273 80.5936 108.794 81.1077 109.405C81.6319 110.013 81.9863 110.814 82.0472 111.644C82.1107 112.476 81.8733 113.292 81.4885 113.978C81.0993 114.669 80.565 115.248 79.9538 115.709C79.3409 116.162 78.6455 116.521 77.906 116.641C78.5771 116.321 79.1565 115.878 79.6529 115.366C80.1489 114.856 80.5667 114.276 80.8469 113.651C81.132 113.029 81.2688 112.36 81.1991 111.719C81.1417 111.074 80.8469 110.477 80.433 109.953C80.013 109.429 79.472 108.976 78.8913 108.7C78.3018 108.439 77.6412 108.4 77.0009 108.605C76.3624 108.812 75.757 109.204 75.2169 109.677C74.6746 110.151 74.1782 110.694 73.7273 111.281Z" fill="#4D4D4D"/>
</g>
<g id="Group_73">
<path id="Vector_122" d="M51.9151 149.598C51.8807 150.715 52.1794 151.838 52.8206 152.729C53.4418 153.618 54.4263 154.29 55.4941 154.327C56.5554 154.357 57.5989 153.865 58.3548 153.107C59.1045 152.352 59.649 151.335 59.6539 150.279C59.6936 149.23 59.1438 148.207 58.3619 147.487C57.5848 146.764 56.4962 146.315 55.4562 146.523C54.4153 146.725 53.561 147.582 53.1691 148.591C52.7447 149.601 52.7605 150.778 53.1524 151.826C52.667 150.815 52.5907 149.6 52.9671 148.514C53.3381 147.44 54.211 146.47 55.3843 146.191C55.9623 146.051 56.5801 146.099 57.1343 146.295C57.6916 146.487 58.1973 146.801 58.6315 147.19C59.4888 147.961 60.1229 149.079 60.0942 150.289C60.0691 151.491 59.4553 152.585 58.6346 153.394C57.8085 154.197 56.6621 154.753 55.4729 154.665C54.2785 154.575 53.2539 153.803 52.6418 152.85C52.0338 151.879 51.7818 150.71 51.9151 149.598Z" fill="#FCC858"/>
</g>
<g id="Group_74">
<path id="Vector_123" d="M81.3362 130.291C80.2273 130.153 79.0809 130.347 78.1344 130.903C77.1923 131.439 76.4325 132.358 76.2961 133.417C76.1686 134.471 76.5609 135.556 77.2462 136.379C77.9283 137.195 78.8907 137.831 79.9418 137.934C80.9827 138.071 82.0523 137.618 82.8413 136.906C83.6334 136.199 84.1809 135.156 84.0706 134.101C83.9647 133.046 83.1912 132.116 82.2226 131.633C81.2563 131.117 80.083 131.024 79.0037 131.317C80.0548 130.927 81.2717 130.964 82.318 131.439C83.3532 131.908 84.2392 132.867 84.4078 134.061C84.4938 134.649 84.3892 135.26 84.143 135.794C83.8999 136.331 83.5407 136.806 83.1131 137.202C82.2655 137.984 81.0944 138.512 79.8924 138.372C78.6979 138.236 77.6645 137.523 76.9355 136.631C76.2127 135.734 75.7649 134.541 75.963 133.365C76.1624 132.184 77.0255 131.235 78.032 130.714C79.0544 130.198 80.241 130.056 81.3362 130.291Z" fill="#FCC858"/>
</g>
<g id="Group_75">
<path id="Vector_124" d="M54.298 150.397C54.8266 150.737 55.308 151.127 55.7793 151.528L55.4863 151.558C55.6624 151.277 55.8521 151.008 56.0436 150.738C56.2417 150.474 56.4363 150.207 56.6512 149.956C56.8621 149.701 57.0819 149.452 57.3188 149.217C57.5549 148.985 57.8033 148.749 58.1021 148.591C57.885 148.843 57.7155 149.122 57.5262 149.389L56.9698 150.199C56.5943 150.735 56.2091 151.266 55.8053 151.782L55.6606 151.966L55.5123 151.811C55.0848 151.363 54.6678 150.905 54.298 150.397Z" fill="#FCC858"/>
</g>
</g>
</g>
<path id="Vector_125" opacity="0.23" d="M139.646 49.2784C140.803 49.8979 141.934 50.5571 143.04 51.253C144.632 50.6648 147.251 49.3984 149.97 47.7296C144.865 44.0499 139.191 41.1107 133.104 39.0712C135.468 42.911 137.96 46.8625 139.646 49.2784Z" fill="#4C649E"/>
<g id="Group_76">
<path id="Vector_126" d="M130.774 29.112C130.774 29.112 144.493 52.2784 145.869 52.6098C147.245 52.9408 163.634 44.9942 164.344 37.9195C164.344 37.9195 161.144 35.3818 159.207 32.6968C157.27 30.0118 148.591 16.32 148.591 16.32L130.774 29.112Z" fill="white"/>
<g id="Group_77">
<path id="Vector_127" d="M162.119 40.9895C162.145 40.25 162.16 39.5528 162.1 38.8534C162.078 38.5044 162.034 38.1575 161.977 37.8094C161.927 37.4581 161.841 37.1148 161.78 36.7442C162.008 37.0372 162.193 37.369 162.31 37.7238C162.441 38.0755 162.508 38.4474 162.54 38.8203C162.565 39.194 162.553 39.5704 162.484 39.9376C162.418 40.3034 162.309 40.6661 162.119 40.9895Z" fill="#ABBAC2"/>
</g>
<g id="Group_78">
<g id="Group_79">
<path id="Vector_128" d="M135.271 30.8392L136.89 29.714L138.52 28.61L141.779 26.4072C142.869 25.6796 143.943 24.9312 145.02 24.1846C146.091 23.4314 147.154 22.6676 148.16 21.8212C147.935 22.06 147.709 22.3009 147.474 22.5312L146.749 23.2041C146.247 23.6291 145.741 24.0518 145.222 24.4573C144.188 25.2723 143.114 26.0344 142.026 26.7726C140.933 27.5037 139.832 28.2217 138.703 28.895C137.576 29.5724 136.441 30.2347 135.271 30.8392Z" fill="#ABBAC2"/>
</g>
<g id="Group_80">
<path id="Vector_129" d="M137.123 33.2835L138.742 32.1583L140.372 31.0547L143.63 28.8519C144.721 28.1243 145.795 27.3759 146.871 26.6293C147.943 25.8761 149.006 25.1123 150.012 24.266C149.787 24.5047 149.561 24.7456 149.326 24.9759L148.601 25.6489C148.098 26.0738 147.592 26.4965 147.074 26.902C146.039 27.717 144.965 28.4791 143.878 29.2173C142.785 29.9485 141.683 30.6664 140.554 31.3397C139.428 32.0166 138.292 32.679 137.123 33.2835Z" fill="#ABBAC2"/>
</g>
<g id="Group_81">
<path id="Vector_130" d="M138.976 35.7274L140.594 34.6022L142.224 33.4986L145.483 31.2954C146.573 30.5678 147.648 29.8194 148.724 29.0728C149.795 28.3196 150.858 27.5557 151.865 26.7094C151.64 26.9481 151.414 27.1891 151.178 27.4194L150.453 28.0923C149.95 28.5172 149.444 28.94 148.926 29.3455C147.892 30.1605 146.818 30.9225 145.73 31.6608C144.637 32.3919 143.535 33.1098 142.406 33.7832C141.28 34.4605 140.145 35.1229 138.976 35.7274Z" fill="#ABBAC2"/>
</g>
<g id="Group_82">
<path id="Vector_131" d="M140.828 38.1711L142.447 37.0459L144.077 35.9423L147.335 33.7396C148.426 33.012 149.5 32.2636 150.576 31.517C151.648 30.7638 152.711 29.9999 153.717 29.1536C153.492 29.3923 153.266 29.6333 153.03 29.8636L152.306 30.5365C151.803 30.9614 151.297 31.3842 150.778 31.7897C149.744 32.6047 148.67 33.3667 147.582 34.105C146.489 34.8361 145.388 35.554 144.259 36.2274C143.133 36.9047 141.997 37.5671 140.828 38.1711Z" fill="#ABBAC2"/>
</g>
<g id="Group_83">
<path id="Vector_132" d="M142.68 40.6153L144.299 39.4901L145.929 38.386L149.187 36.1833C150.278 35.4557 151.352 34.7073 152.428 33.9607C153.5 33.2075 154.563 32.4436 155.569 31.5973C155.344 31.836 155.118 32.077 154.883 32.3073L154.158 32.9802C153.655 33.4051 153.149 33.8279 152.631 34.2334C151.596 35.0484 150.523 35.8104 149.435 36.5487C148.342 37.2798 147.24 37.9977 146.111 38.6711C144.985 39.3489 143.849 40.0112 142.68 40.6153Z" fill="#ABBAC2"/>
</g>
<g id="Group_84">
<path id="Vector_133" d="M144.532 43.0593L146.151 41.9341L147.781 40.8305L151.04 38.6277C152.13 37.9001 153.204 37.1517 154.281 36.4051C155.352 35.6519 156.415 34.8881 157.421 34.0418C157.196 34.2805 156.97 34.5214 156.735 34.7517L156.01 35.4247C155.508 35.8496 155.002 36.2723 154.483 36.6778C153.449 37.4928 152.375 38.2549 151.287 38.9931C150.194 39.7243 149.093 40.4422 147.964 41.1155C146.837 41.7924 145.702 42.4548 144.532 43.0593Z" fill="#ABBAC2"/>
</g>
<g id="Group_85">
<path id="Vector_134" d="M146.385 45.5034L148.003 44.3782L149.633 43.2742L152.892 41.0714C153.982 40.3438 155.057 39.5954 156.133 38.8488C157.204 38.0956 158.267 37.3318 159.274 36.4855C159.049 36.7242 158.823 36.9651 158.587 37.1954L157.862 37.8684C157.36 38.2933 156.853 38.716 156.335 39.1215C155.301 39.9365 154.227 40.6986 153.139 41.4368C152.046 42.168 150.945 42.8859 149.815 43.5588C148.689 44.2366 147.553 44.8989 146.385 45.5034Z" fill="#ABBAC2"/>
</g>
</g>
</g>
</g>
</g>
</svg>
