<svg width="30" height="30" viewBox="0 0 30 30" fill="none" xmlns="http://www.w3.org/2000/svg">
<g id="Event" clip-path="url(#clip0_966_38892)">
<path id="Vector" d="M16.684 15L21.3976 10.2864C21.6213 10.0631 21.7472 9.76002 21.7475 9.44393C21.7477 9.12784 21.6224 8.82458 21.3991 8.60087C21.1758 8.37717 20.8728 8.25133 20.5567 8.25105C20.2406 8.25077 19.9373 8.37607 19.7136 8.59939L15 13.313L10.2864 8.59939C10.0627 8.37568 9.75925 8.25 9.44288 8.25C9.12651 8.25 8.82309 8.37568 8.59939 8.59939C8.37568 8.82309 8.25 9.12651 8.25 9.44288C8.25 9.75925 8.37568 10.0627 8.59939 10.2864L13.313 15L8.59939 19.7136C8.37568 19.9373 8.25 20.2408 8.25 20.5571C8.25 20.8735 8.37568 21.1769 8.59939 21.4006C8.82309 21.6243 9.12651 21.75 9.44288 21.75C9.75925 21.75 10.0627 21.6243 10.2864 21.4006L15 16.687L19.7136 21.4006C19.9373 21.6243 20.2408 21.75 20.5571 21.75C20.8735 21.75 21.1769 21.6243 21.4006 21.4006C21.6243 21.1769 21.75 20.8735 21.75 20.5571C21.75 20.2408 21.6243 19.9373 21.4006 19.7136L16.684 15Z" fill="#727176"/>
</g>
<defs>
<clipPath id="clip0_966_38892">
<rect width="30" height="30" fill="white"/>
</clipPath>
</defs>
</svg>
