<svg width="40" height="40" viewBox="0 0 40 40" fill="none" xmlns="http://www.w3.org/2000/svg">
<g clip-path="url(#clip0_2039_19464)">
<path opacity="0.3" d="M13 16H27V14H13V16Z" fill="#727176"/>
<path d="M27 12H26V10H24V12H16V10H14V12H13C11.89 12 11.01 12.9 11.01 14L11 28C11 28.5305 11.2107 29.0392 11.5858 29.4142C11.9609 29.7893 12.4696 30 13 30H27C28.1 30 29 29.1 29 28V14C29 12.9 28.1 12 27 12ZM27 28H13V18H27V28ZM27 16H13V14H27V16ZM20 21H25V26H20V21Z" fill="#727176"/>
</g>
<defs>
<clipPath id="clip0_2039_19464">
<rect width="40" height="40" fill="white"/>
</clipPath>
</defs>
</svg>
