<svg width="30" height="30" viewBox="0 0 30 30" fill="none" xmlns="http://www.w3.org/2000/svg">
<path fill-rule="evenodd" clip-rule="evenodd" d="M10.8146 5.81456C9.93549 6.69364 8.7432 7.1875 7.5 7.1875V7.8125C8.7432 7.8125 9.93549 8.30636 10.8146 9.18544C11.6936 10.0645 12.1875 11.2568 12.1875 12.5H17.8125C17.8125 11.2568 18.3064 10.0645 19.1854 9.18544C20.0645 8.30636 21.2568 7.8125 22.5 7.8125V7.1875C21.2568 7.1875 20.0645 6.69364 19.1854 5.81456C18.3064 4.93549 17.8125 3.7432 17.8125 2.5H12.1875C12.1875 3.7432 11.6936 4.93549 10.8146 5.81456ZM15.8839 8.38388C15.6495 8.6183 15.3315 8.75 15 8.75C14.6685 8.75 14.3505 8.6183 14.1161 8.38388C13.8817 8.14946 13.75 7.83152 13.75 7.5C13.75 7.16848 13.8817 6.85054 14.1161 6.61612C14.3505 6.3817 14.6685 6.25 15 6.25C15.3315 6.25 15.6495 6.3817 15.8839 6.61612C16.1183 6.85054 16.25 7.16848 16.25 7.5C16.25 7.83152 16.1183 8.14946 15.8839 8.38388ZM7.5 26.7351H7.825C9.09185 26.736 10.3554 26.8662 11.5963 27.1213C13.7713 27.5688 16.0613 27.6238 18.2588 27.2688C19.3425 27.0926 20.4075 26.8251 21.3725 26.3588C22.2425 25.9388 23.3087 25.3463 24.025 24.6838C24.74 24.0213 25.485 22.9376 26.0138 22.0901C26.4675 21.3626 26.2475 20.4713 25.5312 19.9301C25.1281 19.6368 24.6423 19.4788 24.1438 19.4788C23.6452 19.4788 23.1594 19.6368 22.7563 19.9301L20.4962 21.6363C19.6212 22.2976 18.665 22.9076 17.5262 23.0888C17.3888 23.1101 17.245 23.1301 17.095 23.1476C17.2951 23.0935 17.4785 22.9904 17.6287 22.8476C17.8171 22.6846 17.9709 22.4856 18.0811 22.2622C18.1913 22.0389 18.2556 21.7957 18.2703 21.5471C18.285 21.2984 18.2497 21.0494 18.1666 20.8146C18.0834 20.5798 17.9541 20.3641 17.7863 20.1801C17.6237 19.9988 17.4338 19.8463 17.2238 19.7201C14.0888 17.8513 9.39375 18.9338 6.08625 20.8576C5.58375 21.1501 5.3325 21.2963 5.16625 21.5851C5 21.8751 5 22.1988 5 22.8463V24.2363C5 25.4151 5 26.0038 5.36625 26.3688C5.7325 26.7351 6.32125 26.7351 7.5 26.7351ZM7.53875 5.3126C7.6025 4.32385 7.77375 3.69135 8.2325 3.2326C8.69125 2.77385 9.325 2.6026 10.3125 2.5376C10.3028 3.27034 10.0075 3.97036 9.48943 4.48865C8.97138 5.00694 8.27149 5.30257 7.53875 5.3126ZM19.6875 2.53885C20.6763 2.6026 21.3088 2.77385 21.7675 3.2326C22.2262 3.69135 22.3975 4.3251 22.4625 5.3126C21.7298 5.3029 21.0297 5.00759 20.5114 4.48953C19.9932 3.97147 19.6975 3.27159 19.6875 2.53885ZM19.6875 12.4613C20.6763 12.3976 21.3088 12.2263 21.7675 11.7676C22.2262 11.3088 22.3975 10.6751 22.4625 9.6876C21.7298 9.6973 21.0297 9.99261 20.5114 10.5107C19.9932 11.0287 19.6975 11.7286 19.6875 12.4613ZM10.3125 12.4613C9.32375 12.3976 8.69125 12.2263 8.2325 11.7676C7.77375 11.3088 7.6025 10.6751 7.5375 9.6876C8.27024 9.6973 8.97026 9.99261 9.48855 10.5107C10.0068 11.0287 10.3025 11.7286 10.3125 12.4613Z" fill="url(#paint0_linear_1516_17554)"/>
<defs>
<linearGradient id="paint0_linear_1516_17554" x1="8.66071" y1="4.125" x2="21.6673" y2="4.92646" gradientUnits="userSpaceOnUse">
<stop stop-color="#322E80"/>
<stop offset="1" stop-color="#322E80" stop-opacity="0.7"/>
</linearGradient>
</defs>
</svg>
