<svg width="284" height="186" viewBox="0 0 284 186" fill="none" xmlns="http://www.w3.org/2000/svg">
<g opacity="0.3">
<path d="M119.724 166.194C159.847 166.194 192.372 133.668 192.372 93.546C192.372 53.4236 159.847 20.8979 119.724 20.8979C79.6018 20.8979 47.0762 53.4236 47.0762 93.546C47.0762 133.668 79.6018 166.194 119.724 166.194Z" fill="#DBE8EC"/>
<path d="M214.64 79.3892V72.0843C214.64 70.6913 214.087 69.3554 213.102 68.3704C212.117 67.3854 210.781 66.8321 209.388 66.8321H190.85C189.457 66.8321 188.121 66.2787 187.136 65.2937C186.151 64.3087 185.597 62.9728 185.597 61.5799V54.275C185.597 52.882 186.151 51.5461 187.136 50.5611C188.121 49.5761 189.457 49.0228 190.85 49.0228H191.435C192.125 49.0228 192.808 48.8869 193.445 48.623C194.082 48.359 194.661 47.9721 195.149 47.4844C195.636 46.9967 196.023 46.4177 196.287 45.7805C196.551 45.1433 196.687 44.4603 196.687 43.7706V36.4657C196.687 35.7759 196.551 35.093 196.287 34.4557C196.023 33.8185 195.636 33.2395 195.149 32.7518C194.661 32.2641 194.082 31.8772 193.445 31.6133C192.808 31.3493 192.125 31.2135 191.435 31.2135H56.7423C55.3494 31.2135 54.0134 31.7668 53.0285 32.7518C52.0435 33.7368 51.4901 35.0727 51.4901 36.4657V43.7706C51.4901 44.4603 51.626 45.1433 51.8899 45.7805C52.1539 46.4177 52.5407 46.9967 53.0285 47.4844C53.5162 47.9721 54.0952 48.359 54.7324 48.623C55.3696 48.8869 56.0526 49.0228 56.7423 49.0228C57.4321 49.0228 58.115 49.1586 58.7523 49.4226C59.3895 49.6865 59.9685 50.0734 60.4562 50.5611C60.9439 51.0488 61.3308 51.6278 61.5947 52.265C61.8587 52.9023 61.9945 53.5853 61.9945 54.275V61.5799C61.9945 62.2696 61.8587 62.9526 61.5947 63.5898C61.3308 64.227 60.9439 64.806 60.4562 65.2937C59.9685 65.7814 59.3895 66.1683 58.7523 66.4323C58.115 66.6962 57.4321 66.8321 56.7423 66.8321H36.4316C35.0386 66.8321 33.7027 67.3854 32.7177 68.3704C31.7327 69.3554 31.1794 70.6913 31.1794 72.0843V79.3892C31.1794 80.7821 31.7327 82.118 32.7177 83.103C33.7027 84.088 35.0386 84.6414 36.4316 84.6414H44.4012C45.0909 84.6414 45.7739 84.7772 46.4111 85.0412C47.0484 85.3051 47.6274 85.692 48.1151 86.1797C48.6028 86.6674 48.9897 87.2464 49.2536 87.8836C49.5176 88.5209 49.6534 89.2038 49.6534 89.8936V97.1985C49.6534 97.8882 49.5176 98.5712 49.2536 99.2084C48.9897 99.8456 48.6028 100.425 48.1151 100.912C47.6274 101.4 47.0484 101.787 46.4111 102.051C45.7739 102.315 45.0909 102.451 44.4012 102.451H44.3819C43.6922 102.451 43.0092 102.587 42.372 102.851C41.7348 103.114 41.1558 103.501 40.6681 103.989C40.1804 104.477 39.7935 105.056 39.5295 105.693C39.2656 106.33 39.1297 107.013 39.1297 107.703V115.008C39.1297 116.401 39.6831 117.737 40.6681 118.722C41.6531 119.707 42.989 120.26 44.382 120.26H45.535C46.928 120.26 48.2639 120.813 49.2489 121.798C50.2338 122.783 50.7872 124.119 50.7872 125.512V132.817C50.7872 133.507 50.6514 134.19 50.3874 134.827C50.1235 135.464 49.7366 136.043 49.2489 136.531C48.7612 137.019 48.1821 137.406 47.5449 137.669C46.9077 137.933 46.2247 138.069 45.535 138.069H26.6116C25.2186 138.069 23.8827 138.623 22.8977 139.608C21.9127 140.593 21.3594 141.929 21.3594 143.322V150.626C21.3594 151.316 21.4952 151.999 21.7592 152.636C22.0231 153.274 22.41 153.853 22.8977 154.34C23.3854 154.828 23.9644 155.215 24.6017 155.479C25.2389 155.743 25.9219 155.879 26.6116 155.879H194.255C194.944 155.879 195.627 155.743 196.265 155.479C196.902 155.215 197.481 154.828 197.969 154.34C198.456 153.853 198.843 153.274 199.107 152.636C199.371 151.999 199.507 151.316 199.507 150.626V143.322C199.507 141.929 198.953 140.593 197.969 139.608C196.984 138.623 195.648 138.069 194.255 138.069H189.701C189.011 138.069 188.328 137.933 187.691 137.67C187.054 137.406 186.475 137.019 185.987 136.531C185.499 136.043 185.112 135.464 184.848 134.827C184.584 134.19 184.449 133.507 184.449 132.817V125.512C184.449 124.822 184.584 124.139 184.848 123.502C185.112 122.865 185.499 122.286 185.987 121.798C186.475 121.311 187.054 120.924 187.691 120.66C188.328 120.396 189.011 120.26 189.701 120.26H200.438C201.128 120.26 201.811 120.124 202.448 119.86C203.086 119.596 203.665 119.209 204.152 118.722C204.64 118.234 205.027 117.655 205.291 117.018C205.555 116.38 205.691 115.697 205.691 115.008V107.703C205.691 107.013 205.555 106.33 205.291 105.693C205.027 105.056 204.64 104.477 204.152 103.989C203.665 103.501 203.086 103.114 202.448 102.851C201.811 102.587 201.128 102.451 200.438 102.451H197.181C195.788 102.451 194.452 101.897 193.467 100.912C192.482 99.9274 191.929 98.5915 191.929 97.1985V89.8936C191.929 88.5006 192.482 87.1647 193.467 86.1797C194.452 85.1947 195.788 84.6414 197.181 84.6414H209.388C210.781 84.6414 212.117 84.088 213.102 83.103C214.087 82.118 214.64 80.7821 214.64 79.3892Z" fill="#DBE8EC"/>
<path d="M149.455 29.2357H163.449" stroke="#B9D4DB" stroke-width="3" stroke-miterlimit="10" stroke-linecap="round"/>
<path d="M149.455 33.2692H163.449" stroke="#B9D4DB" stroke-width="3" stroke-miterlimit="10" stroke-linecap="round"/>
<path d="M149.455 37.3026H163.449" stroke="#B9D4DB" stroke-width="3" stroke-miterlimit="10" stroke-linecap="round"/>
<path d="M159.149 141.497H173.144" stroke="#B9D4DB" stroke-width="3" stroke-miterlimit="10" stroke-linecap="round"/>
<path d="M159.149 145.531H173.144" stroke="#B9D4DB" stroke-width="3" stroke-miterlimit="10" stroke-linecap="round"/>
<path d="M159.149 149.564H173.144" stroke="#B9D4DB" stroke-width="3" stroke-miterlimit="10" stroke-linecap="round"/>
<path d="M43.0127 74.7841H57.0068" stroke="#B9D4DB" stroke-width="3" stroke-miterlimit="10" stroke-linecap="round"/>
<path d="M43.0127 78.8175H57.0068" stroke="#B9D4DB" stroke-width="3" stroke-miterlimit="10" stroke-linecap="round"/>
<path d="M43.0127 82.851H57.0068" stroke="#B9D4DB" stroke-width="3" stroke-miterlimit="10" stroke-linecap="round"/>
<path d="M196.598 128.166L142.376 133.621L88.1548 128.166C87.9271 128.143 87.7161 128.036 87.5626 127.867C87.4091 127.697 87.3241 127.476 87.3241 127.248L86.0464 123.511L87.3241 62.2855L142.376 67.824L197.429 62.2855L198.643 124.009L197.429 127.248C197.429 127.476 197.344 127.697 197.19 127.867C197.037 128.036 196.826 128.143 196.598 128.166Z" fill="#E06714"/>
<path d="M198.643 124.009L142.376 129.439L86.0464 123.511L87.3241 59.1243C87.3241 58.9953 87.3512 58.8677 87.4035 58.7498C87.4559 58.6319 87.5323 58.5262 87.628 58.4397C87.7237 58.3531 87.8365 58.2876 87.959 58.2473C88.0816 58.2071 88.2112 58.1929 88.3396 58.2058L142.376 63.6422L196.413 58.2059C196.542 58.1929 196.671 58.2071 196.794 58.2474C196.916 58.2876 197.029 58.3532 197.125 58.4397C197.221 58.5262 197.297 58.6319 197.349 58.7498C197.402 58.8677 197.429 58.9953 197.429 59.1243L198.643 124.009Z" fill="#EE781D"/>
<path d="M141.933 125.119L196.04 119.855L193.784 58.4702L145.972 63.2803L141.933 125.119Z" fill="#E06714"/>
<path d="M141.933 56.4422L189.232 51.1252L191.422 120.304L141.933 125.119V56.4422Z" fill="#E06714"/>
<path d="M144.592 55.9991L94.8564 55.1129L97.5149 122.461L141.933 125.119L144.592 55.9991Z" fill="#E06714"/>
<path d="M142.376 52.7868L189.674 47.4698L192.998 116.811L142.376 121.464V52.7868Z" fill="#F9AE2B"/>
<path d="M142.376 119.168V121.464L192.998 116.811L192.888 114.526L142.376 119.168Z" fill="#E59413"/>
<path d="M142.376 52.7868L92.6406 51.9006L95.2991 119.248L142.376 121.464V52.7868Z" fill="#F9AE2B"/>
<path d="M95.2993 119.248L142.376 121.464V119.099L95.2993 116.883V119.248Z" fill="#E59413"/>
<path d="M98.4309 96.7784C98.5731 102.192 100.473 107.412 103.844 111.651C107.214 115.89 111.872 118.917 117.115 120.275L137.835 121.25V55.6668C137.835 55.6668 122.179 56.7784 105.946 52.1376L97.2598 51.9829L98.4309 96.7784Z" fill="#E59413"/>
<path d="M168.796 119.036C173.91 115.387 178.025 110.511 180.763 104.856C183.5 99.2007 184.772 92.9484 184.462 86.6733L182.564 48.2691L171.093 49.5586C160.607 54.8676 147.785 58.195 147.785 58.195V120.967L168.796 119.036Z" fill="#E59413"/>
<path d="M142.376 52.7868C142.376 52.7868 168.85 45.9191 176.826 36.1714L179.054 81.2652C179.486 90.0066 176.846 98.6236 171.591 105.622C166.336 112.621 158.798 117.561 150.283 119.585L142.376 121.464V52.7868Z" fill="#F9AE2B"/>
<path d="M149.414 52.7868L142.376 121.464C142.376 121.464 151.338 120.787 152.041 120.575C159.91 113.357 164.391 101.228 163.323 90.4531L159.033 47.1703C156.186 48.339 153.394 49.3505 150.933 50.1806C150.031 51.7498 149.414 52.7868 149.414 52.7868Z" fill="#E59413"/>
<path d="M142.376 52.7868C142.376 52.7868 150.02 39.9375 150.906 36.1714L156.285 90.4531C156.873 96.3861 155.899 102.37 153.459 107.81C151.019 113.25 147.198 117.957 142.377 121.464L142.376 52.7868Z" fill="#F9AE2B"/>
<path d="M142.376 52.7868C142.376 52.7868 120.555 54.3375 101.724 46.1406L102.973 93.8985C103.121 99.5788 105.204 105.038 108.877 109.374C112.549 113.71 117.592 116.662 123.17 117.743L142.376 121.464V52.7868Z" fill="#F9AE2B"/>
<path d="M142.376 52.7868C142.758 58.5099 142.958 64.2329 143.094 69.956C143.179 72.8175 143.198 75.6791 143.248 78.5406L143.299 87.1252L143.25 95.7099C143.199 98.5714 143.182 101.433 143.096 104.294C142.961 110.018 142.76 115.741 142.376 121.464C141.992 115.741 141.791 110.018 141.656 104.294C141.57 101.433 141.554 98.5714 141.502 95.7099L141.454 87.1252L141.505 78.5406C141.555 75.6791 141.574 72.8175 141.659 69.956C141.794 64.2329 141.994 58.5099 142.376 52.7868Z" fill="#E59413"/>
<path d="M110.139 62.4583C112.466 62.6552 114.749 62.9354 117.031 63.2035L123.849 64.02C126.119 64.2872 128.387 64.5102 130.664 64.7329C132.943 64.9499 135.221 65.0841 137.554 65.2829C135.281 65.8321 132.956 66.1341 130.618 66.1838C128.287 66.2347 125.954 66.1243 123.638 65.8534C121.327 65.5823 119.034 65.1727 116.772 64.6268C114.503 64.094 112.284 63.3686 110.139 62.4583Z" fill="#E59413"/>
<path d="M110.139 72.3147C112.466 72.5115 114.749 72.7917 117.031 73.0598L123.849 73.8764C126.119 74.1435 128.387 74.3666 130.664 74.5893C132.943 74.8062 135.221 74.9405 137.554 75.1393C135.281 75.6884 132.956 75.9905 130.618 76.0402C128.287 76.091 125.954 75.9806 123.638 75.7098C121.327 75.4386 119.034 75.029 116.772 74.4831C114.503 73.9504 112.284 73.225 110.139 72.3147Z" fill="#E59413"/>
<path d="M110.139 82.1711C112.466 82.3679 114.749 82.6481 117.031 82.9162L123.849 83.7327C126.119 83.9999 128.387 84.2229 130.664 84.4456C132.943 84.6626 135.221 84.7969 137.554 84.9957C135.281 85.5448 132.956 85.8469 130.618 85.8966C128.287 85.9474 125.954 85.837 123.638 85.5662C121.327 85.295 119.034 84.8854 116.772 84.3395C114.503 83.8068 112.284 83.0813 110.139 82.1711Z" fill="#E59413"/>
<path d="M110.139 92.0274C112.466 92.2243 114.749 92.5045 117.031 92.7726L123.849 93.5891C126.119 93.8563 128.387 94.0793 130.664 94.302C132.943 94.5189 135.221 94.6532 137.554 94.852C135.281 95.4012 132.956 95.7032 130.618 95.7529C128.287 95.8038 125.954 95.6934 123.638 95.4225C121.327 95.1514 119.034 94.7417 116.772 94.1958C114.503 93.6631 112.284 92.9377 110.139 92.0274Z" fill="#E59413"/>
<path d="M110.139 101.884C112.466 102.081 114.749 102.361 117.031 102.629L123.849 103.445C126.119 103.713 128.387 103.936 130.664 104.158C132.943 104.375 135.221 104.51 137.554 104.708C135.281 105.258 132.956 105.56 130.618 105.609C128.287 105.66 125.954 105.55 123.638 105.279C121.327 105.008 119.034 104.598 116.772 104.052C114.503 103.52 112.284 102.794 110.139 101.884Z" fill="#E59413"/>
<path d="M175.313 63.7772L164.561 65.5905C164.442 65.6136 164.319 65.6131 164.2 65.5889C164.082 65.5647 163.969 65.5173 163.868 65.4495C163.768 65.3817 163.682 65.2947 163.615 65.1936C163.548 65.0925 163.502 64.9793 163.478 64.8603L163.122 57.0934C163.099 56.9744 163.099 56.852 163.124 56.7332C163.148 56.6144 163.195 56.5016 163.263 56.4011C163.331 56.3006 163.418 56.2145 163.519 56.1476C163.62 56.0807 163.733 56.0344 163.852 56.0113L174.742 53.7731C174.861 53.75 174.984 53.7506 175.103 53.7748C175.221 53.799 175.334 53.8464 175.435 53.9142C175.535 53.982 175.621 54.0689 175.688 54.17C175.755 54.2711 175.801 54.3844 175.825 54.5034L176.043 62.6952C176.09 62.9355 176.039 63.1845 175.902 63.3874C175.765 63.5904 175.553 63.7306 175.313 63.7772Z" fill="#EE781D"/>
<path d="M169.209 82.9129L158.457 84.7262C158.338 84.7493 158.215 84.7488 158.096 84.7246C157.978 84.7004 157.865 84.653 157.764 84.5852C157.664 84.5174 157.578 84.4304 157.511 84.3293C157.444 84.2282 157.398 84.1149 157.374 83.9959L157.018 76.229C156.971 75.9887 157.022 75.7397 157.159 75.5368C157.296 75.3338 157.508 75.1936 157.748 75.147L168.638 72.9088C168.757 72.8857 168.88 72.8863 168.999 72.9105C169.117 72.9347 169.23 72.982 169.331 73.0499C169.431 73.1177 169.517 73.2046 169.584 73.3057C169.651 73.4068 169.697 73.5201 169.721 73.6391L169.939 81.8308C169.962 81.9498 169.962 82.0722 169.937 82.191C169.913 82.3098 169.866 82.4226 169.798 82.5231C169.73 82.6236 169.643 82.7097 169.542 82.7766C169.441 82.8435 169.328 82.8898 169.209 82.9129Z" fill="#EE781D"/>
<path d="M157.748 75.147C157.508 75.1936 157.296 75.3338 157.159 75.5368C157.022 75.7397 156.971 75.9887 157.018 76.229L157.374 83.9959C157.421 84.2363 157.561 84.4482 157.764 84.5852C157.967 84.7221 158.216 84.7729 158.457 84.7262L162.684 84.0132L161.725 74.3298L157.748 75.147Z" fill="#CE800D"/>
<path d="M173.417 102.049L162.665 103.862C162.425 103.909 162.176 103.858 161.973 103.721C161.77 103.584 161.63 103.372 161.583 103.132L161.226 95.3647C161.203 95.2457 161.204 95.1233 161.228 95.0046C161.252 94.8858 161.3 94.7729 161.367 94.6724C161.435 94.572 161.522 94.4858 161.623 94.419C161.724 94.3521 161.838 94.3058 161.957 94.2827L172.847 92.0445C172.966 92.0214 173.088 92.022 173.207 92.0462C173.326 92.0704 173.439 92.1177 173.539 92.1855C173.64 92.2534 173.726 92.3403 173.793 92.4414C173.86 92.5425 173.906 92.6558 173.929 92.7748L174.148 100.967C174.171 101.086 174.17 101.208 174.146 101.327C174.122 101.445 174.074 101.558 174.007 101.659C173.939 101.759 173.852 101.845 173.751 101.912C173.65 101.979 173.536 102.025 173.417 102.049Z" fill="#EE781D"/>
<path d="M161.957 94.2826C161.716 94.3293 161.504 94.4695 161.367 94.6724C161.23 94.8754 161.18 95.1244 161.226 95.3647L161.583 103.132C161.609 103.263 161.664 103.388 161.743 103.496C161.822 103.605 161.925 103.694 162.042 103.759C162.95 100.574 163.431 97.2824 163.473 93.971L161.957 94.2826Z" fill="#CE800D"/>
<path d="M112.019 158.897C115.322 158.897 118 156.219 118 152.915C118 149.612 115.322 146.934 112.019 146.934C108.715 146.934 106.037 149.612 106.037 152.915C106.037 156.219 108.715 158.897 112.019 158.897Z" fill="#B9D4DB"/>
<path d="M104.043 141.727C105.756 141.727 107.144 140.339 107.144 138.626C107.144 136.913 105.756 135.524 104.043 135.524C102.33 135.524 100.941 136.913 100.941 138.626C100.941 140.339 102.33 141.727 104.043 141.727Z" fill="#B9D4DB"/>
<path d="M124.332 146.158C126.779 146.158 128.762 144.174 128.762 141.727C128.762 139.28 126.779 137.297 124.332 137.297C121.885 137.297 119.901 139.28 119.901 141.727C119.901 144.174 121.885 146.158 124.332 146.158Z" fill="#B9D4DB"/>
<path d="M48.3669 125.598C52.2974 125.598 55.4837 122.412 55.4837 118.481C55.4837 114.551 52.2974 111.364 48.3669 111.364C44.4363 111.364 41.25 114.551 41.25 118.481C41.25 122.412 44.4363 125.598 48.3669 125.598Z" fill="#B9D4DB"/>
<path d="M34.7676 117.119C36.815 117.119 38.4747 115.459 38.4747 113.412C38.4747 111.365 36.815 109.705 34.7676 109.705C32.7203 109.705 31.0605 111.365 31.0605 113.412C31.0605 115.459 32.7203 117.119 34.7676 117.119Z" fill="#B9D4DB"/>
<path d="M38.1725 102.949C39.3535 102.949 40.3108 101.992 40.3108 100.811C40.3108 99.6297 39.3535 98.6724 38.1725 98.6724C36.9915 98.6724 36.0342 99.6297 36.0342 100.811C36.0342 101.992 36.9915 102.949 38.1725 102.949Z" fill="#B9D4DB"/>
<path d="M50.0099 107.45C52.8409 107.45 55.1359 105.155 55.1359 102.324C55.1359 99.4926 52.8409 97.1976 50.0099 97.1976C47.1788 97.1976 44.8838 99.4926 44.8838 102.324C44.8838 105.155 47.1788 107.45 50.0099 107.45Z" fill="#B9D4DB"/>
<path d="M93.1628 45.4489C97.0933 45.4489 100.28 42.2625 100.28 38.332C100.28 34.4015 97.0933 31.2151 93.1628 31.2151C89.2322 31.2151 86.0459 34.4015 86.0459 38.332C86.0459 42.2625 89.2322 45.4489 93.1628 45.4489Z" fill="#B9D4DB"/>
<path d="M93.4512 27.5285C95.4985 27.5285 97.1583 25.8688 97.1583 23.8215C97.1583 21.7741 95.4985 20.1144 93.4512 20.1144C91.4038 20.1144 89.7441 21.7741 89.7441 23.8215C89.7441 25.8688 91.4038 27.5285 93.4512 27.5285Z" fill="#B9D4DB"/>
<path d="M118.143 29.1959C119.915 29.1959 121.351 27.7594 121.351 25.9875C121.351 24.2155 119.915 22.779 118.143 22.779C116.371 22.779 114.934 24.2155 114.934 25.9875C114.934 27.7594 116.371 29.1959 118.143 29.1959Z" fill="#B9D4DB"/>
<path d="M106.47 25.008C107.651 25.008 108.608 24.0506 108.608 22.8696C108.608 21.6887 107.651 20.7313 106.47 20.7313C105.289 20.7313 104.332 21.6887 104.332 22.8696C104.332 24.0506 105.289 25.008 106.47 25.008Z" fill="#B9D4DB"/>
<path d="M108.955 39.6677C111.786 39.6677 114.081 37.3727 114.081 34.5416C114.081 31.7105 111.786 29.4155 108.955 29.4155C106.124 29.4155 103.829 31.7105 103.829 34.5416C103.829 37.3727 106.124 39.6677 108.955 39.6677Z" fill="#B9D4DB"/>
<path d="M85.1055 115.844L77.8169 111.687L73.6598 118.975L80.9483 123.132L85.1055 115.844Z" fill="#DBE8EC"/>
<path d="M112.928 113.966C117.506 110.514 120.958 105.781 122.846 100.367C124.735 94.9532 124.976 89.1006 123.539 83.5496C122.101 77.9986 119.05 72.9985 114.771 69.1814C110.492 65.3644 105.178 62.9019 99.4991 62.1054C93.8206 61.3088 88.0335 62.2139 82.8694 64.7063C77.7053 67.1986 73.3963 71.1663 70.4871 76.1076C67.5779 81.0489 66.1993 86.7418 66.5255 92.4666C66.8517 98.1914 68.8681 103.691 72.3198 108.27C74.6118 111.31 77.4804 113.87 80.7617 115.802C84.043 117.734 87.6728 119.001 91.4437 119.53C95.2146 120.059 99.0528 119.84 102.739 118.885C106.425 117.93 109.887 116.259 112.928 113.966ZM76.8332 104.871C74.0528 101.185 72.4281 96.7565 72.1645 92.1467C71.9009 87.5368 73.0103 82.9523 75.3523 78.973C77.6943 74.9937 81.1637 71.7982 85.3219 69.7908C89.4801 67.7833 94.1401 67.054 98.7128 67.6952C103.285 68.3363 107.565 70.319 111.011 73.3926C114.457 76.4662 116.914 80.4926 118.071 84.9626C119.228 89.4326 119.034 94.1454 117.513 98.505C115.992 102.865 113.212 106.675 109.525 109.455C104.581 113.181 98.3605 114.791 92.23 113.932C86.0995 113.072 80.5614 109.813 76.8332 104.871Z" fill="#3086A3"/>
<path opacity="0.76" d="M95.4721 114.161C108.365 114.161 118.817 103.709 118.817 90.8163C118.817 77.9234 108.365 67.4717 95.4721 67.4717C82.5792 67.4717 72.1274 77.9234 72.1274 90.8163C72.1274 103.709 82.5792 114.161 95.4721 114.161Z" fill="white"/>
<path d="M112.139 91.8409C111.917 95.4572 110.524 98.9031 108.172 101.659C105.819 104.414 102.634 106.33 99.0974 107.116C95.5607 107.903 91.864 107.518 88.5653 106.02C85.2666 104.521 82.5448 101.99 80.8105 98.809" stroke="#DBE8EC" stroke-width="10" stroke-miterlimit="10"/>
<path d="M83.1512 124.365L71.4766 117.707C71.0338 117.454 70.4701 117.608 70.2175 118.051L53.1418 147.989C52.8892 148.432 53.0435 148.996 53.4863 149.248L65.1608 155.907C65.6037 156.16 66.1674 156.005 66.42 155.563L83.4957 125.624C83.7482 125.182 83.594 124.618 83.1512 124.365Z" fill="#3086A3"/>
<path d="M66.4201 155.563L83.4958 125.624C83.5559 125.519 83.5946 125.403 83.6098 125.283C83.625 125.163 83.6163 125.04 83.5843 124.924C83.5524 124.807 83.4976 124.697 83.4233 124.601C83.349 124.506 83.2566 124.425 83.1513 124.365L80.2478 122.709C80.4604 122.831 80.6161 123.031 80.6807 123.268C80.7452 123.504 80.7134 123.756 80.5921 123.968L63.5164 153.906C63.4564 154.012 63.3762 154.104 63.2804 154.178C63.1846 154.253 63.0752 154.307 62.9582 154.339C62.8413 154.371 62.7192 154.38 62.599 154.365C62.4787 154.35 62.3626 154.311 62.2573 154.251L65.161 155.907C65.2663 155.967 65.3824 156.006 65.5026 156.021C65.6229 156.036 65.745 156.028 65.8619 155.996C65.9788 155.964 66.0883 155.909 66.1841 155.835C66.2798 155.76 66.3601 155.668 66.4201 155.563Z" fill="#25788E"/>
<path d="M55.9495 149.591L73.0252 119.653C73.0852 119.547 73.1654 119.455 73.2612 119.38C73.357 119.306 73.4665 119.251 73.5834 119.219C73.7003 119.187 73.8224 119.179 73.9426 119.194C74.0629 119.209 74.179 119.248 74.2843 119.308L77.5094 121.147L71.4766 117.707C71.2639 117.585 71.0118 117.553 70.7756 117.618C70.5395 117.683 70.3387 117.838 70.2174 118.051L53.1417 147.989C53.0205 148.202 52.9886 148.454 53.0532 148.69C53.1178 148.926 53.2736 149.127 53.4862 149.248L56.294 150.85C56.1887 150.79 56.0962 150.71 56.0219 150.614C55.9476 150.518 55.8929 150.408 55.8609 150.292C55.829 150.175 55.8203 150.053 55.8355 149.932C55.8507 149.812 55.8895 149.696 55.9495 149.591Z" fill="#409CB5"/>
<path d="M59.5195 152.689L65.1609 155.907H65.1614L59.5195 152.689Z" fill="#409CB5"/>
<path d="M53.4278 146.378L67.6616 154.497C67.8743 154.618 68.0301 154.819 68.0947 155.055C68.1593 155.291 68.1274 155.543 68.0061 155.756L66.6474 158.138C65.8484 159.539 64.5257 160.565 62.9701 160.99C61.4146 161.416 59.7537 161.206 58.3529 160.407L53.0793 157.399C52.3856 157.004 51.7767 156.475 51.2873 155.844C50.7978 155.213 50.4375 154.492 50.2267 153.722C50.016 152.952 49.9591 152.148 50.0591 151.355C50.1592 150.563 50.4143 149.798 50.8099 149.105L52.1686 146.723C52.2899 146.51 52.4907 146.354 52.7269 146.29C52.963 146.225 53.2151 146.257 53.4278 146.378Z" fill="#DBE8EC"/>
<path d="M53.5698 150.7L54.9285 148.318C55.0498 148.105 55.2506 147.949 55.4867 147.885C55.7228 147.82 55.975 147.852 56.1876 147.973L67.8074 154.601C67.7621 154.561 67.7132 154.526 67.6612 154.497L53.4274 146.378C53.2147 146.257 52.9626 146.225 52.7264 146.29C52.4903 146.354 52.2895 146.51 52.1682 146.723L50.8095 149.105C50.0105 150.506 49.8007 152.166 50.2263 153.722C50.6519 155.277 51.678 156.6 53.0788 157.399L55.5384 158.802C54.2386 157.957 53.3108 156.648 52.9449 155.142C52.5789 153.636 52.8025 152.047 53.5698 150.7Z" fill="#E8EEEF"/>
<path d="M66.6473 158.138L68.006 155.756C68.1273 155.543 68.1591 155.291 68.0945 155.055C68.0299 154.819 67.8742 154.618 67.6615 154.497L64.7454 152.833C64.9573 152.955 65.1122 153.156 65.1764 153.391C65.2405 153.627 65.2086 153.879 65.0876 154.091L63.7289 156.473C62.9299 157.874 61.6071 158.9 60.0516 159.325C58.496 159.751 56.8351 159.541 55.4343 158.742L53.0742 157.396L53.0791 157.399L58.3527 160.407C59.0464 160.803 59.8111 161.058 60.6034 161.158C61.3956 161.258 62.1998 161.201 62.97 160.99C63.7402 160.78 64.4614 160.419 65.0923 159.93C65.7233 159.44 66.2517 158.831 66.6473 158.138Z" fill="#BAD5DB"/>
</g>
</svg>
