<svg width="50" height="50" viewBox="0 0 50 50" fill="none" xmlns="http://www.w3.org/2000/svg">
<circle cx="25" cy="25" r="25" fill="#E8EDFF"/>
<g clip-path="url(#clip0_966_42850)">
<path d="M21.9996 28H27.9996V19H32.4996L24.9996 11.5L17.4996 19H21.9996V28ZM39.0066 30.298C38.6916 29.962 36.5901 27.7135 35.9901 27.127C35.5697 26.724 35.0095 26.4993 34.4271 26.5H31.7916L36.3876 30.991H31.0716C30.9994 30.9897 30.928 31.0074 30.8648 31.0424C30.8016 31.0775 30.7488 31.1285 30.7116 31.1905L29.4876 34H20.5116L19.2876 31.1905C19.2502 31.1287 19.1973 31.0778 19.1342 31.0428C19.071 31.0078 18.9998 30.99 18.9276 30.991H13.6116L18.2061 26.5H15.5721C14.9766 26.5 14.4081 26.7385 14.0091 27.127C13.4091 27.715 11.3076 29.9635 10.9926 30.298C10.2591 31.0795 9.85561 31.702 10.0476 32.4715L10.8891 37.0825C11.0811 37.8535 11.9256 38.4865 12.7671 38.4865H37.2351C38.0766 38.4865 38.9211 37.8535 39.1131 37.0825L39.9546 32.4715C40.1436 31.702 39.7416 31.0795 39.0066 30.298Z" fill="url(#paint0_linear_966_42850)"/>
</g>
<defs>
<linearGradient id="paint0_linear_966_42850" x1="12.3215" y1="15.8853" x2="38.3801" y2="17.0754" gradientUnits="userSpaceOnUse">
<stop stop-color="#322E80"/>
<stop offset="1" stop-color="#322E80" stop-opacity="0.7"/>
</linearGradient>
<clipPath id="clip0_966_42850">
<rect width="30" height="30" fill="white" transform="translate(10 10)"/>
</clipPath>
</defs>
</svg>
