<svg width="20" height="20" viewBox="0 0 20 20" fill="none" xmlns="http://www.w3.org/2000/svg">
<path d="M10.5089 12.5C11.8406 12.5 12.9201 11.3807 12.9201 10C12.9201 8.61929 11.8406 7.5 10.5089 7.5C9.17721 7.5 8.09766 8.61929 8.09766 10C8.09766 11.3807 9.17721 12.5 10.5089 12.5Z" fill="#727176"/>
<path d="M19.5147 9.7875C18.8057 7.88603 17.5748 6.24164 15.9743 5.05755C14.3737 3.87347 12.4736 3.20161 10.5087 3.125C8.54385 3.20161 6.64371 3.87347 5.04314 5.05755C3.44256 6.24164 2.21171 7.88603 1.50271 9.7875C1.45483 9.92482 1.45483 10.0752 1.50271 10.2125C2.21171 12.114 3.44256 13.7584 5.04314 14.9424C6.64371 16.1265 8.54385 16.7984 10.5087 16.875C12.4736 16.7984 14.3737 16.1265 15.9743 14.9424C17.5748 13.7584 18.8057 12.114 19.5147 10.2125C19.5626 10.0752 19.5626 9.92482 19.5147 9.7875ZM10.5087 14.0625C9.73374 14.0625 8.97618 13.8242 8.33183 13.3778C7.68747 12.9315 7.18526 12.297 6.88869 11.5547C6.59213 10.8123 6.51453 9.99549 6.66572 9.20745C6.81691 8.4194 7.19009 7.69553 7.73807 7.12738C8.28605 6.55923 8.98421 6.17231 9.74428 6.01556C10.5044 5.85881 11.2922 5.93926 12.0082 6.24674C12.7241 6.55422 13.3361 7.07492 13.7666 7.743C14.1972 8.41107 14.427 9.19651 14.427 10C14.4254 11.0769 14.012 12.1093 13.2776 12.8708C12.5431 13.6323 11.5474 14.0608 10.5087 14.0625Z" fill="#727176"/>
</svg>
