<svg width="25" height="24" viewBox="0 0 25 24" fill="none" xmlns="http://www.w3.org/2000/svg">
<g id="visibility_off">
<mask id="mask0_6098_3582" style="mask-type:alpha" maskUnits="userSpaceOnUse" x="0" y="0" width="25" height="24">
<rect id="Bounding box" x="0.5" width="24" height="24" fill="#D9D9D9"/>
</mask>
<g mask="url(#mask0_6098_3582)">
<path id="visibility_off_2" d="M15.3771 8.62301C15.7834 9.02951 16.0975 9.52343 16.3193 10.1048C16.5412 10.6863 16.6251 11.2699 16.5711 11.8558C16.5711 12.0481 16.5019 12.2109 16.3636 12.3443C16.2251 12.4776 16.0597 12.5443 15.8673 12.5443C15.675 12.5443 15.5122 12.4776 15.3788 12.3443C15.2455 12.2109 15.1788 12.0481 15.1788 11.8558C15.243 11.4161 15.2068 10.9994 15.0703 10.6058C14.9338 10.2123 14.7239 9.87385 14.4406 9.59051C14.1572 9.30718 13.8156 9.0921 13.4156 8.94526C13.0156 8.79843 12.5937 8.76026 12.1501 8.83076C11.9577 8.83726 11.7917 8.77285 11.6521 8.63751C11.5122 8.50235 11.4392 8.33859 11.4328 8.14626C11.4263 7.95393 11.4882 7.78785 11.6183 7.64801C11.7485 7.50835 11.9097 7.43534 12.1021 7.42901C12.6841 7.36234 13.269 7.43826 13.8568 7.65676C14.4447 7.87543 14.9514 8.19751 15.3771 8.62301ZM12.5001 6.00001C12.1449 6.00001 11.7965 6.01735 11.4548 6.05201C11.1132 6.08651 10.7731 6.14351 10.4346 6.22301C10.2217 6.26668 10.0301 6.23626 9.85957 6.13176C9.68907 6.02726 9.57182 5.87693 9.50782 5.68076C9.44366 5.47826 9.46482 5.28568 9.57132 5.10301C9.67766 4.92035 9.83207 4.80718 10.0346 4.76351C10.4372 4.66735 10.844 4.59943 11.2548 4.55976C11.6658 4.51993 12.0809 4.50001 12.5001 4.50001C14.6487 4.50001 16.6225 5.05835 18.4213 6.17501C20.22 7.29168 21.6032 8.8026 22.5711 10.7078C22.6377 10.8346 22.6862 10.9624 22.7163 11.0913C22.7465 11.2201 22.7616 11.3563 22.7616 11.5C22.7616 11.6437 22.7491 11.7799 22.7241 11.9088C22.6991 12.0376 22.6532 12.1654 22.5866 12.2923C22.2802 12.9333 21.9078 13.531 21.4693 14.0855C21.0308 14.64 20.5481 15.1493 20.0211 15.6135C19.8661 15.752 19.6889 15.8093 19.4896 15.7855C19.2901 15.7618 19.1262 15.6622 18.9981 15.4865C18.8699 15.3108 18.8167 15.1224 18.8386 14.9213C18.8604 14.7199 18.9488 14.55 19.1038 14.4115C19.5552 14.0025 19.9667 13.5554 20.3386 13.0703C20.7104 12.5849 21.0309 12.0615 21.3001 11.5C20.4667 9.81668 19.2626 8.47918 17.6876 7.48751C16.1126 6.49585 14.3834 6.00001 12.5001 6.00001ZM12.5001 18.5C10.3949 18.5 8.46541 17.9375 6.71157 16.8125C4.95774 15.6875 3.56357 14.2058 2.52907 12.3673C2.44574 12.2404 2.38482 12.1026 2.34632 11.9538C2.30782 11.8051 2.28857 11.6538 2.28857 11.5C2.28857 11.3462 2.30524 11.1974 2.33857 11.0538C2.37191 10.9103 2.43024 10.7699 2.51357 10.6328C2.88541 9.95326 3.30657 9.3061 3.77707 8.69126C4.24757 8.0766 4.78857 7.52568 5.40007 7.03851L3.14232 4.76526C3.00399 4.6166 2.93574 4.44001 2.93757 4.23551C2.93957 4.03101 3.01299 3.85635 3.15782 3.71151C3.30266 3.56668 3.47832 3.49426 3.68482 3.49426C3.89116 3.49426 4.06674 3.56668 4.21157 3.71151L20.7886 20.2885C20.9271 20.427 21.0005 20.5984 21.0088 20.8028C21.0172 21.0073 20.9437 21.1871 20.7886 21.3423C20.6437 21.4871 20.4681 21.5595 20.2616 21.5595C20.0552 21.5595 19.8797 21.4871 19.7348 21.3423L16.2156 17.8538C15.6257 18.0819 15.0196 18.2467 14.3971 18.348C13.7747 18.4493 13.1424 18.5 12.5001 18.5ZM6.45407 8.09226C5.86807 8.54493 5.34141 9.05676 4.87407 9.62776C4.40674 10.1989 4.01541 10.823 3.70007 11.5C4.53341 13.1833 5.73757 14.5208 7.31257 15.5125C8.88757 16.5042 10.6167 17 12.5001 17C12.9296 17 13.3523 16.9712 13.7683 16.9135C14.1843 16.8558 14.5975 16.7668 15.0078 16.6463L13.7423 15.35C13.5398 15.4385 13.3376 15.4984 13.1356 15.5298C12.9337 15.5613 12.7219 15.577 12.5001 15.577C11.3654 15.577 10.4022 15.1812 9.61057 14.3895C8.81891 13.5978 8.42307 12.6347 8.42307 11.5C8.42307 11.2782 8.44041 11.0663 8.47507 10.8645C8.50974 10.6625 8.56807 10.4603 8.65007 10.2578L6.45407 8.09226Z" fill="#727176"/>
</g>
</g>
</svg>
