<svg width="24" height="24" viewBox="0 0 24 24" fill="none" xmlns="http://www.w3.org/2000/svg">
<g id="Clip path group">
<mask id="mask0_87_2375" style="mask-type:luminance" maskUnits="userSpaceOnUse" x="0" y="0" width="24" height="24">
<g id="clip-path">
<path id="Rectangle 1507" d="M24 0H0V24H24V0Z" fill="white"/>
</g>
</mask>
<g mask="url(#mask0_87_2375)">
<g id="Group 1953">
<path id="Path 2535" d="M0.000564375 24.3752L1.63096 18.2816C0.564862 16.3968 0.00328349 14.2687 0.000564375 12.1032C-0.0301086 8.94007 1.19058 5.89301 3.39665 3.62595C5.60273 1.35889 8.61538 0.0555769 11.7782 0C14.9494 0.0521654 17.9723 1.35179 20.192 3.61726C22.4116 5.88274 23.6492 8.93159 23.6366 12.1032C23.6366 18.7432 18.2574 24.3744 11.7774 24.3744C9.74789 24.3269 7.76643 23.7476 6.03096 22.6944L0.000564375 24.3752Z" fill="#EDEDED"/>
<path id="Path 2536" d="M6.35405 20.5085L6.72365 20.7189C8.23789 21.7143 10.0061 22.254 11.818 22.2741C14.4577 22.2051 16.9638 21.099 18.7938 19.1954C20.6237 17.2918 21.63 14.744 21.5948 12.1037C21.626 10.7996 21.3962 9.50246 20.9187 8.28854C20.4412 7.07463 19.7258 5.96846 18.8145 5.03511C17.9032 4.10176 16.8145 3.36007 15.6123 2.85368C14.4102 2.34729 13.1189 2.08643 11.8144 2.08643C10.51 2.08643 9.21873 2.34729 8.01658 2.85368C6.81444 3.36007 5.72571 4.10176 4.81442 5.03511C3.90314 5.96846 3.18771 7.07463 2.71023 8.28854C2.23274 9.50246 2.00284 10.7996 2.03405 12.1037C2.02976 14.015 2.55147 15.8907 3.54205 17.5253L3.78685 17.9037L2.84925 21.4309L6.35405 20.5085Z" fill="#55CD6C"/>
<path id="Path 2537" d="M8.64197 6.47288L7.86757 6.43047C7.74764 6.42741 7.6283 6.4481 7.5164 6.49135C7.4045 6.5346 7.30227 6.59955 7.21558 6.68247C6.65571 7.15078 6.25672 7.78281 6.07477 8.48968C5.78917 9.75048 6.23477 11.2633 7.29717 12.7761C8.88006 15.1653 11.2417 16.9324 13.9804 17.7769C14.438 17.932 14.9246 17.9824 15.4042 17.9243C15.8839 17.8661 16.3443 17.7009 16.7516 17.4409C17.0256 17.2579 17.2603 17.0222 17.4422 16.7475C17.6241 16.4728 17.7493 16.1646 17.8108 15.8409L17.9332 15.2529C17.9528 15.1641 17.9436 15.0714 17.9069 14.9883C17.8702 14.9051 17.8079 14.8358 17.7292 14.7905L15.162 13.5721C15.0791 13.53 14.9837 13.5196 14.8937 13.5429C14.8037 13.5662 14.7253 13.6215 14.6732 13.6985L13.654 15.0433C13.6134 15.0872 13.5611 15.1185 13.5032 15.1334C13.4453 15.1483 13.3843 15.1462 13.3276 15.1273C11.483 14.4382 9.95877 13.0908 9.04838 11.3449C9.02364 11.2905 9.01435 11.2304 9.02155 11.1711C9.02875 11.1119 9.05215 11.0557 9.08917 11.0089L10.0676 9.87448C10.1093 9.81386 10.138 9.7452 10.1518 9.67289C10.1655 9.60058 10.1641 9.5262 10.1476 9.45447L8.96597 6.72248C8.94434 6.65186 8.90132 6.58968 8.84286 6.54455C8.7844 6.49941 8.71337 6.47353 8.63958 6.47048" fill="#FEFEFE"/>
</g>
</g>
</g>
</svg>
