<svg width="24" height="24" viewBox="0 0 24 24" fill="none" xmlns="http://www.w3.org/2000/svg">
<g clip-path="url(#clip0_1403_38883)">
<rect width="24" height="24" fill="#817EB1"/>
<g clip-path="url(#clip1_1403_38883)">
<path d="M11.7795 4.7998C11.4215 4.7998 11.0781 4.94204 10.8249 5.19521C10.5718 5.44838 10.4295 5.79176 10.4295 6.1498C10.4295 6.50785 10.5718 6.85122 10.8249 7.1044C11.0781 7.35757 11.4215 7.4998 11.7795 7.4998C12.1376 7.4998 12.4809 7.35757 12.7341 7.1044C12.9873 6.85122 13.1295 6.50785 13.1295 6.1498C13.1295 5.79176 12.9873 5.44838 12.7341 5.19521C12.4809 4.94204 12.1376 4.7998 11.7795 4.7998ZM11.7768 7.9318C11.7579 7.93225 11.7386 7.93405 11.7197 7.93585C11.6931 7.93805 11.6666 7.9418 11.6405 7.9471C11.6328 7.9489 11.6256 7.9489 11.618 7.9507L8.73887 8.6635C8.64201 8.68743 8.55166 8.73252 8.47431 8.79555C8.39697 8.85858 8.33456 8.93797 8.29157 9.028L7.33712 11.035C7.2881 11.1379 7.26592 11.2514 7.27267 11.3652C7.27941 11.4789 7.31486 11.5891 7.3757 11.6854C7.43654 11.7818 7.52079 11.8611 7.62059 11.9161C7.72039 11.9711 7.83249 11.9999 7.94642 11.9998C8.07411 12 8.19922 11.9639 8.30723 11.8958C8.41524 11.8277 8.50172 11.7303 8.55662 11.6151L9.37382 9.8965L10.8795 9.5239V13.0024L9.60692 16.3977L8.31497 18.1198C8.20756 18.263 8.16144 18.443 8.18676 18.6203C8.21208 18.7975 8.30676 18.9574 8.44997 19.0648C8.59319 19.1722 8.77321 19.2183 8.95043 19.193C9.12766 19.1677 9.28756 19.073 9.39497 18.9298L10.745 17.1298C10.7832 17.0785 10.8147 17.0218 10.8372 16.9611L11.6877 14.6904L11.6958 14.6908L13.175 16.3392L13.5908 18.6445C13.6228 18.8205 13.7232 18.9767 13.8702 19.0788C14.0171 19.1808 14.1985 19.2205 14.3747 19.189C14.5509 19.1571 14.7073 19.0565 14.8095 18.9094C14.9116 18.7622 14.951 18.5805 14.9192 18.4042L14.4692 15.9112C14.4469 15.7878 14.3908 15.673 14.3072 15.5796L12.6795 13.7661V10.0941L13.8819 10.968C13.9822 11.0412 14.1008 11.0852 14.2245 11.0952C14.3483 11.1051 14.4724 11.0805 14.583 11.0242L16.3596 10.1269C16.4387 10.087 16.5092 10.0319 16.567 9.96474C16.6248 9.89758 16.6688 9.81969 16.6965 9.73551C16.7241 9.65134 16.7349 9.56254 16.7283 9.47418C16.7216 9.38583 16.6975 9.29966 16.6575 9.2206C16.5767 9.06078 16.4358 8.93954 16.2657 8.88352C16.0956 8.8275 15.9103 8.84127 15.7503 8.9218L14.3423 9.6337L12.1769 8.0605C12.1697 8.05555 12.1625 8.05195 12.1557 8.047C12.1341 8.033 12.1117 8.02023 12.0887 8.00875C12.0707 7.99975 12.0536 7.98985 12.0351 7.9822C12.0144 7.97365 11.9933 7.9678 11.9721 7.96105C11.951 7.95445 11.9295 7.94889 11.9078 7.9444C11.8875 7.94035 11.8673 7.93855 11.8461 7.93675C11.8227 7.9345 11.8002 7.9318 11.7768 7.9318Z" fill="white"/>
</g>
</g>
<defs>
<clipPath id="clip0_1403_38883">
<rect width="24" height="24" rx="4" fill="white"/>
</clipPath>
<clipPath id="clip1_1403_38883">
<rect width="14.4" height="14.4" fill="white" transform="translate(4.80078 4.7998)"/>
</clipPath>
</defs>
</svg>
