<svg width="190" height="155" viewBox="0 0 190 155" fill="none" xmlns="http://www.w3.org/2000/svg">
<path d="M166 76C166 117.974 131.974 152 90 152C48.0264 152 14 117.974 14 76C14 34.0264 48.0264 0 90 0C131.974 0 166 34.0264 166 76ZM29.2 76C29.2 109.579 56.4211 136.8 90 136.8C123.579 136.8 150.8 109.579 150.8 76C150.8 42.4211 123.579 15.2 90 15.2C56.4211 15.2 29.2 42.4211 29.2 76Z" fill="#E10000" fill-opacity="0.1"/>
<path d="M137 76C137 101.957 115.957 123 90 123C64.0426 123 43 101.957 43 76C43 50.0426 64.0426 29 90 29C115.957 29 137 50.0426 137 76ZM57.1 76C57.1 94.1702 71.8298 108.9 90 108.9C108.17 108.9 122.9 94.1702 122.9 76C122.9 57.8298 108.17 43.1 90 43.1C71.8298 43.1 57.1 57.8298 57.1 76Z" fill="#E10000" fill-opacity="0.1"/>
<path d="M110 76C110 87.0457 101.046 96 90 96C78.9543 96 70 87.0457 70 76C70 64.9543 78.9543 56 90 56C101.046 56 110 64.9543 110 76ZM78 76C78 82.6274 83.3726 88 90 88C96.6274 88 102 82.6274 102 76C102 69.3726 96.6274 64 90 64C83.3726 64 78 69.3726 78 76Z" fill="#E10000" fill-opacity="0.1"/>
<circle cx="178" cy="21" r="12" fill="url(#paint0_linear_1403_36664)"/>
<circle cx="149.5" cy="144.5" r="7.5" fill="url(#paint1_linear_1403_36664)"/>
<circle cx="5" cy="43" r="5" fill="url(#paint2_linear_1403_36664)"/>
<circle cx="17" cy="152" r="3" fill="url(#paint3_linear_1403_36664)"/>
<path d="M36.8281 23.1719L143.828 130.172" stroke="url(#paint4_linear_1403_36664)" stroke-width="8" stroke-linecap="round"/>
<path d="M143.828 23.1719L36.8281 130.172" stroke="url(#paint5_linear_1403_36664)" stroke-width="8" stroke-linecap="round"/>
<defs>
<linearGradient id="paint0_linear_1403_36664" x1="178" y1="9" x2="178" y2="33" gradientUnits="userSpaceOnUse">
<stop stop-color="white"/>
<stop offset="1" stop-color="#F4F0FB"/>
</linearGradient>
<linearGradient id="paint1_linear_1403_36664" x1="149.5" y1="137" x2="149.5" y2="152" gradientUnits="userSpaceOnUse">
<stop stop-color="white"/>
<stop offset="1" stop-color="#F4F0FB"/>
</linearGradient>
<linearGradient id="paint2_linear_1403_36664" x1="5" y1="38" x2="5" y2="48" gradientUnits="userSpaceOnUse">
<stop stop-color="white"/>
<stop offset="1" stop-color="#F4F0FB"/>
</linearGradient>
<linearGradient id="paint3_linear_1403_36664" x1="17" y1="149" x2="17" y2="155" gradientUnits="userSpaceOnUse">
<stop stop-color="white"/>
<stop offset="1" stop-color="#F4F0FB"/>
</linearGradient>
<linearGradient id="paint4_linear_1403_36664" x1="34.5001" y1="20.4999" x2="146" y2="132" gradientUnits="userSpaceOnUse">
<stop stop-color="white"/>
<stop offset="1" stop-color="#F4F0FB"/>
</linearGradient>
<linearGradient id="paint5_linear_1403_36664" x1="144.5" y1="21.9998" x2="31.4997" y2="135.5" gradientUnits="userSpaceOnUse">
<stop stop-color="white"/>
<stop offset="1" stop-color="#F4F0FB"/>
</linearGradient>
</defs>
</svg>
