<svg width="151" height="150" viewBox="0 0 151 150" fill="none" xmlns="http://www.w3.org/2000/svg">
<g opacity="0.3" clip-path="url(#clip0_1403_38483)">
<mask id="mask0_1403_38483" style="mask-type:luminance" maskUnits="userSpaceOnUse" x="0" y="0" width="151" height="150">
<path d="M150.021 0H0.0214844V150H150.021V0Z" fill="white"/>
</mask>
<g mask="url(#mask0_1403_38483)">
<path d="M89.6992 18.3057H95.3367V22.064H89.6992V18.3057Z" fill="#F1F1F1"/>
<path d="M64.5195 -3.11719H97.217V20.1847H64.5195V-3.11719Z" fill="#312B81"/>
<path d="M13.7812 56.6412C13.7812 55.6032 14.6226 54.7617 15.6605 54.7617H58.8814C59.9193 54.7617 60.7608 55.6032 60.7608 56.6412V132.184C60.7608 133.222 59.9193 134.063 58.8814 134.063H15.6605C14.6226 134.063 13.7812 133.222 13.7812 132.184V56.6412Z" fill="#F1F1F1"/>
<path fill-rule="evenodd" clip-rule="evenodd" d="M-0.125 147.029C-0.125 146.822 0.0432673 146.653 0.250836 146.653H149.646C149.853 146.653 150.022 146.822 150.022 147.029C150.022 147.237 149.853 147.405 149.646 147.405H0.250836C0.0432673 147.405 -0.125 147.237 -0.125 147.029Z" fill="#3E3D3D"/>
<path d="M42.3438 40.1037C42.3438 35.9523 45.7091 32.5869 49.8605 32.5869H92.7058C96.8573 32.5869 100.222 35.9523 100.222 40.1037V115.271C100.222 119.422 96.8573 122.788 92.7058 122.788H49.8605C45.7091 122.788 42.3438 119.422 42.3438 115.271V40.1037Z" fill="#F1F1F1"/>
<path fill-rule="evenodd" clip-rule="evenodd" d="M41.9688 40.1035C41.9688 35.7445 45.5024 32.2109 49.8613 32.2109H92.7066C97.0657 32.2109 100.599 35.7445 100.599 40.1035V115.27C100.599 119.629 97.0657 123.163 92.7066 123.163H49.8613C45.5024 123.163 41.9688 119.629 41.9688 115.27V40.1035ZM49.8613 32.9626C45.9175 32.9626 42.7204 36.1597 42.7204 40.1035V115.27C42.7204 119.214 45.9175 122.411 49.8613 122.411H92.7066C96.6507 122.411 99.8476 119.214 99.8476 115.27V40.1035C99.8476 36.1597 96.6507 32.9626 92.7066 32.9626H49.8613Z" fill="#3E3D3D"/>
<path fill-rule="evenodd" clip-rule="evenodd" d="M45.3516 34.0897C46.6079 33.1461 48.1694 32.5869 49.8616 32.5869H92.7069C94.3989 32.5869 95.9604 33.1461 97.2169 34.0897V121.285C95.9604 122.229 94.3989 122.788 92.7069 122.788H49.8616C48.1694 122.788 46.6079 122.229 45.3516 121.285V34.0897Z" fill="white"/>
<path d="M127.283 82.7611C127.283 87.0161 123.833 90.4656 119.578 90.4656C115.323 90.4656 111.873 87.0161 111.873 82.7611C111.873 78.5061 115.323 75.0566 119.578 75.0566C123.833 75.0566 127.283 78.5061 127.283 82.7611Z" fill="#F1F1F1"/>
<path opacity="0.5" d="M49.8613 50.6273C49.8613 49.5894 50.7027 48.748 51.7407 48.748H90.8277C91.8652 48.748 92.7067 49.5894 92.7067 50.6273V75.8083C92.7067 76.8463 91.8652 77.6873 90.8277 77.6873H51.7407C50.7027 77.6873 49.8613 76.8463 49.8613 75.8083V50.6273Z" fill="#F1F1F1"/>
<path d="M49.8613 85.2041H60.7605V91.9691H49.8613V85.2041Z" fill="#312B81"/>
<path d="M65.2715 85.2041H76.1705V91.9691H65.2715V85.2041Z" fill="#312B81"/>
<path d="M80.6797 85.2041H92.7067V91.9691H80.6797V85.2041Z" fill="#312B81"/>
<path d="M49.8613 96.1035H60.7607V102.869H49.8613V96.1035Z" fill="#312B81"/>
<path d="M65.2715 96.1035H76.1705V102.869H65.2715V96.1035Z" fill="#312B81"/>
<path d="M80.6797 96.1035H92.7067V102.869H80.6797V96.1035Z" fill="#312B81"/>
<path d="M49.8613 107.379H60.7607V114.144H49.8613V107.379Z" fill="#F1F1F1"/>
<path d="M65.2715 107.379H76.1705V114.144H65.2715V107.379Z" fill="#312B81"/>
<path d="M80.6797 107.379H92.7067V114.144H80.6797V107.379Z" fill="#F1F1F1"/>
<path fill-rule="evenodd" clip-rule="evenodd" d="M41.9688 40.1035C41.9688 35.7445 45.5024 32.2109 49.8613 32.2109H92.7066C97.0657 32.2109 100.599 35.7445 100.599 40.1035V115.27C100.599 119.629 97.0657 123.163 92.7066 123.163H49.8613C45.5024 123.163 41.9688 119.629 41.9688 115.27V40.1035ZM49.8613 32.9626C45.9175 32.9626 42.7204 36.1597 42.7204 40.1035V115.27C42.7204 119.214 45.9175 122.411 49.8613 122.411H92.7066C96.6507 122.411 99.8476 119.214 99.8476 115.27V40.1035C99.8476 36.1597 96.6507 32.9626 92.7066 32.9626H49.8613Z" fill="#3E3D3D"/>
<path d="M52.8672 16.0508H89.6992V41.9835H52.8672V16.0508Z" fill="#F1F1F1"/>
<path fill-rule="evenodd" clip-rule="evenodd" d="M89.6992 16.0502H52.8672V13.9831L52.8752 13.9739C52.8697 13.9151 52.8672 13.8555 52.8672 13.7952C52.8672 12.7574 53.7082 11.916 54.7462 11.916H91.5782L89.6992 13.9831V16.0502Z" fill="#F1F1F1"/>
<path d="M97.2175 20.1849C97.2175 21.2227 96.376 22.064 95.3385 22.064C94.3005 22.064 93.459 21.2227 93.459 20.1849C93.459 19.147 94.3005 18.3057 95.3385 18.3057C96.376 18.3057 97.2175 19.147 97.2175 20.1849Z" fill="#312B81"/>
<path d="M93.4572 13.7952C93.4572 14.833 92.6162 15.6744 91.5782 15.6744C90.5402 15.6744 89.6992 14.833 89.6992 13.7952C89.6992 12.7574 90.5402 11.916 91.5782 11.916C92.6162 11.916 93.4572 12.7574 93.4572 13.7952Z" fill="#F1F1F1"/>
<path d="M89.6992 13.7959H93.4572V22.0643H89.6992V13.7959Z" fill="#F1F1F1"/>
<path d="M23.5527 54.7617H34.0761V134.063H23.5527V54.7617Z" fill="#F1F1F1"/>
<path fill-rule="evenodd" clip-rule="evenodd" d="M71.4713 54.1979C66.4898 54.1979 62.4513 58.2364 62.4513 63.2179C62.4513 68.1994 66.4898 72.2379 71.4713 72.2379C76.4533 72.2379 80.4918 68.1994 80.4918 63.2179C80.4918 58.2364 76.4533 54.1979 71.4713 54.1979ZM60.5723 63.2179C60.5723 57.1984 65.4523 52.3184 71.4713 52.3184C77.4908 52.3184 82.3708 57.1984 82.3708 63.2179C82.3708 69.2374 77.4908 74.1169 71.4713 74.1169C65.4523 74.1169 60.5723 69.2374 60.5723 63.2179Z" fill="#F1F1F1"/>
<path fill-rule="evenodd" clip-rule="evenodd" d="M84.5066 57.7144L69.9631 69.7284L63.7246 60.7174L66.8146 58.5784L70.7241 64.2249L82.1131 54.8164L84.5066 57.7144Z" fill="#312B81"/>
<path d="M35.7676 38.7886C35.7676 43.0438 32.2339 46.4933 27.875 46.4933C23.5161 46.4933 19.9824 43.0438 19.9824 38.7886C19.9824 34.5335 23.5161 31.084 27.875 31.084C32.2339 31.084 35.7676 34.5335 35.7676 38.7886Z" fill="#F1F1F1"/>
<path fill-rule="evenodd" clip-rule="evenodd" d="M33.4569 37.1364L24.7604 42.727L21.8145 37.9681L23.4123 36.979L25.3521 40.1127L32.4408 35.5557L33.4569 37.1364Z" fill="#F1F1F1"/>
<path d="M121.646 60.5867C121.646 67.3327 116.177 72.8017 109.431 72.8017C102.685 72.8017 97.2168 67.3327 97.2168 60.5867C97.2168 53.8407 102.685 48.3721 109.431 48.3721C116.177 48.3721 121.646 53.8407 121.646 60.5867Z" fill="#312B81"/>
<path fill-rule="evenodd" clip-rule="evenodd" d="M100.222 100.426L87.6319 90.2782C87.0639 89.8412 86.3894 89.0272 85.7614 87.9412C83.8774 84.6837 82.4084 78.9752 85.4589 73.6287C85.6919 73.2202 86.0639 72.9647 86.4779 72.8652C86.7529 72.7997 87.0459 72.8027 87.3289 72.8757C87.5659 72.9367 87.7954 73.0467 88.0019 73.2062C95.7389 79.1867 108.867 89.4337 109.43 90.2782C109.567 90.4832 109.788 90.7077 110.064 90.9887H110.065C111.311 92.2547 113.684 94.6657 114.504 101.553C114.635 102.655 114.792 103.79 114.952 104.947C115.938 112.081 117.043 120.079 113.001 126.547C112.876 128.238 114.504 134.665 122.021 146.842H72.7864C72.4109 145.965 71.3584 144.061 70.1559 143.459C69.9574 143.36 69.6549 143.232 69.2719 143.069C66.7489 141.998 60.7394 139.447 58.1289 134.063H58.8804C59.9184 134.063 60.7599 133.222 60.7599 132.184V131.057V122.788H93.0819C97.0254 122.788 100.222 119.591 100.222 115.647V100.426Z" fill="#EFCB96"/>
<path d="M52.8672 39.3525H89.6992V41.9834H52.8672V39.3525Z" fill="#F1F1F1"/>
<path fill-rule="evenodd" clip-rule="evenodd" d="M83.8754 20.5602H58.3184V19.8086H83.8754V20.5602ZM83.8754 27.1374H58.3184V26.3857H83.8754V27.1374ZM83.8754 33.1508H58.3184V32.3991H83.8754V33.1508Z" fill="#3E3D3D"/>
<path fill-rule="evenodd" clip-rule="evenodd" d="M109.618 52.1309C110.241 52.1309 110.746 52.6354 110.746 53.2584V53.7814C112.832 53.8434 114.504 55.5544 114.504 57.6554H112.249C112.249 56.7604 111.524 56.0349 110.628 56.0349H108.792C107.795 56.0349 106.988 56.8424 106.988 57.8389C106.988 58.8349 107.795 59.6429 108.792 59.6429H110.628C112.769 59.6429 114.504 61.3779 114.504 63.5184C114.504 65.6199 112.832 67.3304 110.746 67.3924V67.9159C110.746 68.5384 110.241 69.0434 109.618 69.0434C108.996 69.0434 108.491 68.5384 108.491 67.9159V67.3944H108.242C106.304 67.3944 104.732 65.8229 104.732 63.8849H106.988C106.988 64.5779 107.549 65.1394 108.242 65.1394H110.628C111.524 65.1394 112.249 64.4139 112.249 63.5184C112.249 62.6234 111.524 61.8979 110.628 61.8979H108.792C106.55 61.8979 104.732 60.0804 104.732 57.8389C104.732 55.6979 106.39 53.9444 108.491 53.7904V53.2584C108.491 52.6354 108.996 52.1309 109.618 52.1309Z" fill="white"/>
<path fill-rule="evenodd" clip-rule="evenodd" d="M119.766 77.6875C120.182 77.6875 120.518 78.024 120.518 78.4395V78.663C121.774 78.724 122.773 79.7615 122.773 81.0325H121.27C121.27 80.5525 120.881 80.1635 120.401 80.1635H119.24C118.701 80.1635 118.263 80.601 118.263 81.1405C118.263 81.6805 118.701 82.118 119.24 82.118H120.401C121.711 82.118 122.773 83.18 122.773 84.4905C122.773 85.761 121.774 86.7985 120.518 86.86V87.0835C120.518 87.4985 120.182 87.835 119.766 87.835C119.351 87.835 119.015 87.4985 119.015 87.0835V86.8625H118.916C117.725 86.8625 116.76 85.8975 116.76 84.7065H118.263C118.263 85.067 118.555 85.3595 118.916 85.3595H120.401C120.881 85.3595 121.27 84.9705 121.27 84.4905C121.27 84.0105 120.881 83.621 120.401 83.621H119.24C117.87 83.621 116.76 82.5105 116.76 81.1405C116.76 79.8465 117.75 78.784 119.015 78.67V78.4395C119.015 78.024 119.351 77.6875 119.766 77.6875Z" fill="white"/>
</g>
</g>
<defs>
<clipPath id="clip0_1403_38483">
<rect width="150.05" height="150" fill="white"/>
</clipPath>
</defs>
</svg>
