<svg width="253" height="198" viewBox="0 0 253 198" fill="none" xmlns="http://www.w3.org/2000/svg">
<g opacity="0.3">
<path d="M127.699 160.199C161.468 160.199 188.843 132.946 188.843 99.3282C188.843 65.71 161.468 38.457 127.699 38.457C93.93 38.457 66.5547 65.71 66.5547 99.3282C66.5547 132.946 93.93 160.199 127.699 160.199Z" fill="#DBE8EC"/>
<path d="M207.585 87.4665V81.3459C207.585 80.1787 207.12 79.0593 206.291 78.234C205.462 77.4087 204.337 76.9451 203.165 76.9451H187.562C186.389 76.9451 185.265 76.4814 184.436 75.6561C183.607 74.8308 183.141 73.7115 183.141 72.5443V66.4236C183.141 65.2565 183.607 64.1371 184.436 63.3118C185.265 62.4865 186.389 62.0228 187.562 62.0228H188.054C188.635 62.0228 189.21 61.909 189.746 61.6878C190.282 61.4667 190.77 61.1425 191.18 60.7339C191.591 60.3252 191.916 59.8401 192.138 59.3062C192.361 58.7722 192.475 58.2 192.475 57.6221V51.5014C192.475 50.9234 192.361 50.3512 192.138 49.8173C191.916 49.2833 191.591 48.7982 191.18 48.3895C190.77 47.9809 190.282 47.6567 189.746 47.4356C189.21 47.2144 188.635 47.1006 188.054 47.1006H74.6903C73.5179 47.1006 72.3935 47.5642 71.5645 48.3895C70.7355 49.2148 70.2697 50.3342 70.2697 51.5014V57.6221C70.2697 58.2 70.3841 58.7722 70.6062 59.3062C70.8284 59.8401 71.154 60.3252 71.5645 60.7339C71.975 61.1425 72.4623 61.4667 72.9986 61.6878C73.5349 61.909 74.1098 62.0228 74.6903 62.0228C75.2708 62.0228 75.8456 62.1367 76.3819 62.3578C76.9183 62.579 77.4056 62.9031 77.8161 63.3118C78.2265 63.7204 78.5522 64.2056 78.7743 64.7395C78.9965 65.2734 79.1108 65.8457 79.1108 66.4236V72.5443C79.1108 73.1222 78.9965 73.6945 78.7743 74.2284C78.5522 74.7623 78.2265 75.2475 77.8161 75.6561C77.4056 76.0648 76.9183 76.3889 76.3819 76.6101C75.8456 76.8312 75.2708 76.9451 74.6903 76.9451H57.5957C56.4233 76.9451 55.2989 77.4087 54.4699 78.234C53.6409 79.0593 53.1752 80.1787 53.1752 81.3459V87.4665C53.1752 88.6337 53.6409 89.7531 54.4699 90.5784C55.2989 91.4037 56.4233 91.8673 57.5957 91.8673H64.3033C64.8839 91.8673 65.4587 91.9811 65.995 92.2023C66.5313 92.4235 67.0187 92.7476 67.4291 93.1563C67.8396 93.5649 68.1652 94.0501 68.3874 94.584C68.6095 95.1179 68.7239 95.6902 68.7239 96.2681V102.389C68.7239 102.967 68.6095 103.539 68.3874 104.073C68.1652 104.607 67.8396 105.092 67.4291 105.501C67.0187 105.909 66.5313 106.233 65.995 106.455C65.4587 106.676 64.8839 106.79 64.3033 106.79H64.2871C63.7066 106.79 63.1318 106.903 62.5955 107.125C62.0591 107.346 61.5718 107.67 61.1613 108.079C60.7509 108.487 60.4253 108.972 60.2031 109.506C59.9809 110.04 59.8666 110.612 59.8666 111.19V117.311C59.8666 118.478 60.3323 119.598 61.1614 120.423C61.9904 121.248 63.1147 121.712 64.2871 121.712H65.2576C66.43 121.712 67.5544 122.175 68.3834 123.001C69.2124 123.826 69.6781 124.945 69.6781 126.113V132.233C69.6781 132.811 69.5638 133.383 69.3416 133.917C69.1195 134.451 68.7939 134.936 68.3834 135.345C67.9729 135.754 67.4856 136.078 66.9493 136.299C66.4129 136.52 65.8381 136.634 65.2576 136.634H49.3307C48.1583 136.634 47.0339 137.098 46.2049 137.923C45.3759 138.748 44.9102 139.868 44.9102 141.035V147.156C44.9102 147.733 45.0245 148.306 45.2466 148.84C45.4688 149.374 45.7944 149.859 46.2049 150.267C46.6154 150.676 47.1027 151 47.639 151.221C48.1753 151.442 48.7502 151.556 49.3307 151.556H190.428C191.008 151.556 191.583 151.442 192.119 151.221C192.656 151 193.143 150.676 193.553 150.267C193.964 149.859 194.29 149.374 194.512 148.84C194.734 148.306 194.848 147.733 194.848 147.156V141.035C194.848 139.868 194.382 138.748 193.553 137.923C192.724 137.098 191.6 136.634 190.428 136.634H186.595C186.014 136.634 185.44 136.52 184.903 136.299C184.367 136.078 183.88 135.754 183.469 135.345C183.059 134.936 182.733 134.451 182.511 133.917C182.289 133.383 182.174 132.811 182.174 132.233V126.113C182.174 125.535 182.289 124.962 182.511 124.428C182.733 123.895 183.059 123.409 183.469 123.001C183.88 122.592 184.367 122.268 184.903 122.047C185.44 121.826 186.014 121.712 186.595 121.712H195.632C196.213 121.712 196.788 121.598 197.324 121.377C197.86 121.156 198.348 120.831 198.758 120.423C199.169 120.014 199.494 119.529 199.716 118.995C199.938 118.461 200.053 117.889 200.053 117.311V111.19C200.053 110.612 199.938 110.04 199.716 109.506C199.494 108.972 199.169 108.487 198.758 108.079C198.348 107.67 197.86 107.346 197.324 107.125C196.788 106.903 196.213 106.79 195.632 106.79H192.891C191.718 106.79 190.594 106.326 189.765 105.501C188.936 104.675 188.47 103.556 188.47 102.389V96.2681C188.47 95.1009 188.936 93.9816 189.765 93.1563C190.594 92.331 191.718 91.8673 192.891 91.8673H203.165C204.337 91.8673 205.462 91.4037 206.291 90.5784C207.12 89.7531 207.585 88.6337 207.585 87.4665Z" fill="#DBE8EC"/>
<path d="M152.721 45.4434H164.499" stroke="#B9D4DB" stroke-width="3" stroke-miterlimit="10" stroke-linecap="round"/>
<path d="M152.721 48.8232H164.499" stroke="#B9D4DB" stroke-width="3" stroke-miterlimit="10" stroke-linecap="round"/>
<path d="M152.721 52.2031H164.499" stroke="#B9D4DB" stroke-width="3" stroke-miterlimit="10" stroke-linecap="round"/>
<path d="M160.881 139.507H172.659" stroke="#B9D4DB" stroke-width="3" stroke-miterlimit="10" stroke-linecap="round"/>
<path d="M160.881 142.887H172.659" stroke="#B9D4DB" stroke-width="3" stroke-miterlimit="10" stroke-linecap="round"/>
<path d="M160.881 146.266H172.659" stroke="#B9D4DB" stroke-width="3" stroke-miterlimit="10" stroke-linecap="round"/>
<path d="M63.1348 83.6084H74.9129" stroke="#B9D4DB" stroke-width="3" stroke-miterlimit="10" stroke-linecap="round"/>
<path d="M63.1348 86.9873H74.9129" stroke="#B9D4DB" stroke-width="3" stroke-miterlimit="10" stroke-linecap="round"/>
<path d="M63.1348 90.3672H74.9129" stroke="#B9D4DB" stroke-width="3" stroke-miterlimit="10" stroke-linecap="round"/>
<path d="M192.399 128.336L146.764 132.907L101.128 128.336C100.936 128.317 100.759 128.228 100.63 128.086C100.5 127.943 100.429 127.759 100.429 127.567L99.3535 124.436L100.429 73.1357L146.764 77.7764L193.099 73.1357L194.121 124.853L193.099 127.567C193.099 127.759 193.027 127.943 192.898 128.086C192.769 128.228 192.591 128.317 192.399 128.336Z" fill="#E06714"/>
<path d="M194.121 124.854L146.764 129.403L99.3535 124.436L100.429 70.4873C100.429 70.3792 100.452 70.2723 100.496 70.1735C100.54 70.0747 100.604 69.9862 100.685 69.9137C100.765 69.8412 100.86 69.7863 100.963 69.7525C101.066 69.7188 101.176 69.7069 101.284 69.7178L146.764 74.2728L192.244 69.7178C192.352 69.7069 192.461 69.7188 192.564 69.7525C192.667 69.7863 192.762 69.8412 192.843 69.9137C192.923 69.9862 192.988 70.0747 193.032 70.1735C193.076 70.2723 193.099 70.3792 193.099 70.4873L194.121 124.854Z" fill="#EE781D"/>
<path d="M146.391 125.783L191.93 121.372L190.031 69.9385L149.79 73.9689L146.391 125.783Z" fill="#E06714"/>
<path d="M146.391 68.2392L186.199 63.7842L188.043 121.749L146.391 125.783V68.2392Z" fill="#E06714"/>
<path d="M148.629 67.8685L106.77 67.126L109.007 123.556L146.392 125.783L148.629 67.8685Z" fill="#E06714"/>
<path d="M146.764 65.1767L186.572 60.7217L189.369 118.822L146.764 122.72V65.1767Z" fill="#F9AE2B"/>
<path d="M146.764 120.797V122.72L189.369 118.822L189.277 116.907L146.764 120.797Z" fill="#E59413"/>
<path d="M146.764 65.1771L104.904 64.4346L107.142 120.865L146.764 122.721V65.1771Z" fill="#F9AE2B"/>
<path d="M107.141 120.865L146.763 122.721V120.739L107.141 118.883V120.865Z" fill="#E59413"/>
<path d="M109.777 102.037C109.896 106.573 111.495 110.947 114.332 114.498C117.169 118.05 121.09 120.586 125.502 121.724L142.941 122.541V67.5896C142.941 67.5896 129.764 68.521 116.102 64.6326L108.791 64.5029L109.777 102.037Z" fill="#E59413"/>
<path d="M169 120.686C173.305 117.629 176.768 113.543 179.072 108.805C181.376 104.067 182.447 98.8279 182.186 93.5701L180.589 61.3916L170.934 62.472C162.109 66.9204 151.316 69.7084 151.316 69.7084V122.304L169 120.686Z" fill="#E59413"/>
<path d="M146.764 65.1768C146.764 65.1768 169.045 59.4224 175.758 51.2549L177.634 89.0386C177.997 96.3629 175.775 103.583 171.352 109.447C166.929 115.312 160.585 119.45 153.418 121.146L146.764 122.721V65.1768Z" fill="#F9AE2B"/>
<path d="M152.687 65.1767L146.764 122.72C146.764 122.72 154.306 122.153 154.898 121.976C161.521 115.928 165.292 105.765 164.393 96.737L160.783 60.4707C158.386 61.4499 156.037 62.2975 153.966 62.993C153.206 64.3078 152.687 65.1767 152.687 65.1767Z" fill="#E59413"/>
<path d="M146.764 65.1768C146.764 65.1768 153.196 54.4105 153.942 51.2549L158.47 96.737C158.965 101.708 158.145 106.722 156.091 111.28C154.038 115.838 150.822 119.782 146.764 122.721L146.764 65.1768Z" fill="#F9AE2B"/>
<path d="M146.764 65.1771C146.764 65.1771 128.398 66.4765 112.549 59.6084L113.6 99.6243C113.725 104.384 115.478 108.958 118.569 112.591C121.66 116.224 125.904 118.698 130.599 119.603L146.764 122.721V65.1771Z" fill="#F9AE2B"/>
<path d="M146.765 65.1768C147.086 69.9721 147.254 74.7674 147.369 79.5627C147.44 81.9604 147.456 84.358 147.498 86.7557L147.541 93.9486L147.5 101.142C147.457 103.539 147.443 105.937 147.371 108.335C147.257 113.13 147.088 117.925 146.765 122.721C146.441 117.925 146.272 113.13 146.158 108.335C146.086 105.937 146.072 103.539 146.029 101.142L145.988 93.9486L146.031 86.7557C146.073 84.358 146.089 81.9604 146.161 79.5627C146.275 74.7674 146.443 69.9721 146.765 65.1768Z" fill="#E59413"/>
<path d="M119.631 73.2803C121.59 73.4452 123.511 73.68 125.432 73.9046L131.17 74.5888C133.081 74.8127 134.99 74.9995 136.906 75.1861C138.824 75.3679 140.742 75.4804 142.705 75.647C140.792 76.1071 138.835 76.3602 136.868 76.4019C134.905 76.4445 132.942 76.352 130.992 76.125C129.047 75.8978 127.118 75.5546 125.214 75.0972C123.304 74.6508 121.436 74.043 119.631 73.2803Z" fill="#E59413"/>
<path d="M119.631 81.5391C121.59 81.704 123.511 81.9388 125.432 82.1634L131.17 82.8476C133.081 83.0714 134.99 83.2583 136.906 83.4449C138.824 83.6267 140.742 83.7392 142.705 83.9058C140.792 84.3659 138.835 84.619 136.868 84.6606C134.905 84.7033 132.942 84.6108 130.992 84.3838C129.047 84.1566 127.118 83.8134 125.214 83.356C123.304 82.9096 121.436 82.3018 119.631 81.5391Z" fill="#E59413"/>
<path d="M119.631 89.7979C121.59 89.9628 123.511 90.1976 125.432 90.4222L131.17 91.1064C133.081 91.3302 134.99 91.5171 136.906 91.7037C138.824 91.8855 140.742 91.998 142.705 92.1646C140.792 92.6247 138.835 92.8778 136.868 92.9194C134.905 92.962 132.942 92.8695 130.992 92.6426C129.047 92.4154 127.118 92.0722 125.214 91.6148C123.304 91.1684 121.436 90.5606 119.631 89.7979Z" fill="#E59413"/>
<path d="M119.631 98.0566C121.59 98.2216 123.511 98.4564 125.432 98.681L131.17 99.3652C133.081 99.589 134.99 99.7759 136.906 99.9625C138.824 100.144 140.742 100.257 142.705 100.423C140.792 100.883 138.835 101.137 136.868 101.178C134.905 101.221 132.942 101.128 130.992 100.901C129.047 100.674 127.118 100.331 125.214 99.8736C123.304 99.4272 121.436 98.8194 119.631 98.0566Z" fill="#E59413"/>
<path d="M119.631 106.314C121.59 106.479 123.511 106.714 125.432 106.939L131.17 107.623C133.081 107.847 134.99 108.034 136.906 108.22C138.824 108.402 140.742 108.515 142.705 108.681C140.792 109.141 138.835 109.394 136.868 109.436C134.905 109.479 132.942 109.386 130.992 109.159C129.047 108.932 127.118 108.589 125.214 108.131C123.304 107.685 121.436 107.077 119.631 106.314Z" fill="#E59413"/>
<path d="M174.486 74.3857L165.436 75.9051C165.336 75.9245 165.233 75.924 165.133 75.9037C165.033 75.8834 164.938 75.8438 164.853 75.7869C164.769 75.7301 164.696 75.6573 164.64 75.5726C164.584 75.4878 164.545 75.3929 164.525 75.2932L164.225 68.7854C164.206 68.6857 164.206 68.5832 164.227 68.4836C164.247 68.3841 164.287 68.2895 164.344 68.2054C164.401 68.1212 164.474 68.049 164.559 67.993C164.644 67.9369 164.74 67.8981 164.84 67.8788L174.006 66.0034C174.106 65.9841 174.209 65.9845 174.309 66.0048C174.409 66.0251 174.504 66.0648 174.588 66.1216C174.673 66.1784 174.745 66.2513 174.802 66.336C174.858 66.4207 174.897 66.5156 174.916 66.6153L175.1 73.4791C175.14 73.6805 175.097 73.8891 174.982 74.0592C174.866 74.2292 174.688 74.3467 174.486 74.3857Z" fill="#EE781D"/>
<path d="M169.347 90.419L160.297 91.9383C160.197 91.9577 160.094 91.9572 159.994 91.9369C159.894 91.9166 159.799 91.877 159.715 91.8201C159.63 91.7633 159.558 91.6905 159.501 91.6058C159.445 91.521 159.406 91.4261 159.387 91.3264L159.087 84.8186C159.047 84.6172 159.09 84.4086 159.205 84.2386C159.32 84.0685 159.499 83.9511 159.701 83.912L168.867 82.0366C168.967 82.0173 169.07 82.0178 169.17 82.038C169.27 82.0583 169.365 82.098 169.45 82.1548C169.534 82.2116 169.607 82.2845 169.663 82.3692C169.719 82.4539 169.758 82.5488 169.778 82.6485L169.962 89.5123C169.981 89.612 169.981 89.7146 169.96 89.8141C169.94 89.9136 169.9 90.0082 169.843 90.0924C169.786 90.1765 169.713 90.2487 169.628 90.3048C169.543 90.3608 169.447 90.3996 169.347 90.419Z" fill="#EE781D"/>
<path d="M159.701 83.9123C159.499 83.9514 159.32 84.0688 159.205 84.2389C159.09 84.4089 159.047 84.6175 159.086 84.8189L159.387 91.3267C159.426 91.5281 159.544 91.7057 159.715 91.8204C159.885 91.9352 160.095 91.9777 160.297 91.9386L163.856 91.3412L163.048 83.2275L159.701 83.9123Z" fill="#CE800D"/>
<path d="M172.89 106.453L163.84 107.972C163.638 108.012 163.428 107.969 163.258 107.854C163.087 107.74 162.969 107.562 162.93 107.361L162.629 100.853C162.61 100.753 162.611 100.651 162.631 100.551C162.651 100.451 162.691 100.357 162.748 100.273C162.805 100.189 162.878 100.116 162.964 100.06C163.049 100.004 163.144 99.9655 163.244 99.9461L172.41 98.0708C172.51 98.0515 172.613 98.0519 172.713 98.0722C172.813 98.0925 172.908 98.1322 172.993 98.189C173.077 98.2458 173.15 98.3187 173.206 98.4034C173.262 98.4881 173.301 98.583 173.321 98.6827L173.505 105.546C173.524 105.646 173.524 105.749 173.503 105.848C173.483 105.948 173.443 106.042 173.386 106.127C173.329 106.211 173.256 106.283 173.171 106.339C173.086 106.395 172.99 106.434 172.89 106.453Z" fill="#EE781D"/>
<path d="M163.244 99.9457C163.042 99.9848 162.863 100.102 162.748 100.272C162.633 100.442 162.59 100.651 162.629 100.852L162.93 107.36C162.951 107.471 162.997 107.575 163.064 107.666C163.131 107.757 163.217 107.832 163.316 107.886C164.08 105.217 164.485 102.459 164.521 99.6846L163.244 99.9457Z" fill="#CE800D"/>
<path d="M121.214 154.085C123.994 154.085 126.248 151.841 126.248 149.073C126.248 146.305 123.994 144.062 121.214 144.062C118.434 144.062 116.18 146.305 116.18 149.073C116.18 151.841 118.434 154.085 121.214 154.085Z" fill="#B9D4DB"/>
<path d="M114.501 139.699C115.943 139.699 117.111 138.536 117.111 137.101C117.111 135.665 115.943 134.502 114.501 134.502C113.059 134.502 111.891 135.665 111.891 137.101C111.891 138.536 113.059 139.699 114.501 139.699Z" fill="#B9D4DB"/>
<path d="M131.577 143.412C133.636 143.412 135.306 141.75 135.306 139.7C135.306 137.649 133.636 135.987 131.577 135.987C129.517 135.987 127.848 137.649 127.848 139.7C127.848 141.75 129.517 143.412 131.577 143.412Z" fill="#B9D4DB"/>
<path d="M67.6403 126.185C70.9485 126.185 73.6302 123.515 73.6302 120.222C73.6302 116.929 70.9485 114.259 67.6403 114.259C64.3322 114.259 61.6504 116.929 61.6504 120.222C61.6504 123.515 64.3322 126.185 67.6403 126.185Z" fill="#B9D4DB"/>
<path d="M56.1943 119.08C57.9174 119.08 59.3143 117.69 59.3143 115.974C59.3143 114.259 57.9174 112.868 56.1943 112.868C54.4711 112.868 53.0742 114.259 53.0742 115.974C53.0742 117.69 54.4711 119.08 56.1943 119.08Z" fill="#B9D4DB"/>
<path d="M59.0614 107.207C60.0554 107.207 60.8612 106.405 60.8612 105.416C60.8612 104.426 60.0554 103.624 59.0614 103.624C58.0675 103.624 57.2617 104.426 57.2617 105.416C57.2617 106.405 58.0675 107.207 59.0614 107.207Z" fill="#B9D4DB"/>
<path d="M69.0234 110.979C71.4061 110.979 73.3377 109.056 73.3377 106.684C73.3377 104.312 71.4061 102.389 69.0234 102.389C66.6406 102.389 64.709 104.312 64.709 106.684C64.709 109.056 66.6406 110.979 69.0234 110.979Z" fill="#B9D4DB"/>
<path d="M105.343 59.0288C108.652 59.0288 111.333 56.3591 111.333 53.0657C111.333 49.7723 108.652 47.1025 105.343 47.1025C102.035 47.1025 99.3535 49.7723 99.3535 53.0657C99.3535 56.3591 102.035 59.0288 105.343 59.0288Z" fill="#B9D4DB"/>
<path d="M105.587 44.013C107.31 44.013 108.707 42.6223 108.707 40.9069C108.707 39.1914 107.31 37.8008 105.587 37.8008C103.864 37.8008 102.467 39.1914 102.467 40.9069C102.467 42.6223 103.864 44.013 105.587 44.013Z" fill="#B9D4DB"/>
<path d="M126.368 45.4099C127.86 45.4099 129.069 44.2063 129.069 42.7215C129.069 41.2368 127.86 40.0332 126.368 40.0332C124.877 40.0332 123.668 41.2368 123.668 42.7215C123.668 44.2063 124.877 45.4099 126.368 45.4099Z" fill="#B9D4DB"/>
<path d="M116.544 41.9008C117.538 41.9008 118.344 41.0986 118.344 40.1091C118.344 39.1195 117.538 38.3174 116.544 38.3174C115.55 38.3174 114.744 39.1195 114.744 40.1091C114.744 41.0986 115.55 41.9008 116.544 41.9008Z" fill="#B9D4DB"/>
<path d="M118.635 54.1849C121.017 54.1849 122.949 52.2619 122.949 49.8898C122.949 47.5177 121.017 45.5947 118.635 45.5947C116.252 45.5947 114.32 47.5177 114.32 49.8898C114.32 52.2619 116.252 54.1849 118.635 54.1849Z" fill="#B9D4DB"/>
<path d="M98.5622 118.012L92.4277 114.528L88.9289 120.635L95.0633 124.119L98.5622 118.012Z" fill="#DBE8EC"/>
<path d="M121.979 116.438C125.832 113.546 128.737 109.58 130.327 105.044C131.917 100.507 132.119 95.6037 130.91 90.9525C129.7 86.3014 127.132 82.1118 123.53 78.9136C119.929 75.7153 115.456 73.652 110.677 72.9846C105.897 72.3172 101.027 73.0755 96.6802 75.1639C92.3338 77.2522 88.7071 80.5767 86.2586 84.7169C83.8101 88.8572 82.6497 93.6273 82.9243 98.424C83.1989 103.221 84.896 107.829 87.8011 111.665C89.7301 114.213 92.1445 116.358 94.9062 117.977C97.6679 119.595 100.723 120.657 103.897 121.1C107.071 121.543 110.301 121.36 113.404 120.56C116.506 119.76 119.42 118.359 121.979 116.438ZM91.5998 108.818C89.2597 105.729 87.8923 102.018 87.6704 98.1559C87.4485 94.2934 88.3822 90.4521 90.3534 87.1178C92.3245 83.7836 95.2446 81.1061 98.7443 79.4241C102.244 77.7421 106.166 77.131 110.015 77.6682C113.863 78.2054 117.465 79.8667 120.366 82.4421C123.266 85.0174 125.334 88.3911 126.308 92.1364C127.282 95.8818 127.118 99.8306 125.838 103.483C124.558 107.136 122.218 110.329 119.115 112.658C114.954 115.78 109.718 117.129 104.559 116.409C99.3988 115.689 94.7376 112.958 91.5998 108.818Z" fill="#3086A3"/>
<path opacity="0.76" d="M107.287 116.602C118.138 116.602 126.935 107.845 126.935 97.0417C126.935 86.2389 118.138 77.4814 107.287 77.4814C96.4354 77.4814 87.6387 86.2389 87.6387 97.0417C87.6387 107.845 96.4354 116.602 107.287 116.602Z" fill="white"/>
<path d="M121.315 97.8994C121.128 100.929 119.956 103.817 117.976 106.126C115.996 108.434 113.315 110.04 110.338 110.699C107.362 111.358 104.25 111.035 101.474 109.78C98.6977 108.524 96.4069 106.403 94.9473 103.738" stroke="#DBE8EC" stroke-width="10" stroke-miterlimit="10"/>
<path d="M96.9168 125.152L87.0909 119.573C86.7182 119.361 86.2437 119.49 86.0311 119.861L71.6594 144.946C71.4468 145.317 71.5766 145.79 71.9493 146.001L81.7752 151.58C82.1479 151.792 82.6224 151.663 82.835 151.292L97.2067 126.207C97.4193 125.836 97.2895 125.364 96.9168 125.152Z" fill="#3086A3"/>
<path d="M82.8356 151.292L97.2074 126.207C97.258 126.119 97.2906 126.022 97.3034 125.921C97.3162 125.82 97.3089 125.718 97.2819 125.62C97.255 125.522 97.209 125.43 97.1464 125.35C97.0839 125.27 97.0061 125.203 96.9175 125.152L94.4737 123.765C94.6527 123.866 94.7837 124.035 94.8381 124.232C94.8924 124.43 94.8656 124.641 94.7635 124.82L80.3918 149.904C80.3412 149.993 80.2737 150.07 80.1931 150.132C80.1125 150.195 80.0204 150.24 79.922 150.267C79.8235 150.294 79.7208 150.301 79.6196 150.289C79.5184 150.276 79.4207 150.243 79.332 150.193L81.7759 151.581C81.8645 151.631 81.9622 151.664 82.0635 151.676C82.1647 151.689 82.2674 151.682 82.3658 151.655C82.4642 151.628 82.5564 151.582 82.637 151.52C82.7176 151.458 82.7851 151.38 82.8356 151.292Z" fill="#25788E"/>
<path d="M74.0238 146.288L88.3955 121.203C88.4461 121.115 88.5136 121.037 88.5942 120.975C88.6748 120.913 88.767 120.867 88.8654 120.84C88.9638 120.813 89.0665 120.806 89.1677 120.819C89.269 120.831 89.3667 120.864 89.4553 120.914L92.1697 122.455L87.0922 119.572C86.9132 119.471 86.701 119.444 86.5022 119.498C86.3035 119.552 86.1345 119.683 86.0324 119.861L71.6606 144.946C71.5586 145.124 71.5318 145.335 71.5861 145.533C71.6405 145.731 71.7716 145.899 71.9506 146.001L74.3137 147.343C74.2251 147.292 74.1473 147.225 74.0848 147.145C74.0222 147.065 73.9762 146.973 73.9493 146.875C73.9223 146.777 73.9151 146.675 73.9279 146.574C73.9406 146.473 73.9732 146.376 74.0238 146.288Z" fill="#409CB5"/>
<path d="M77.0273 148.884L81.7754 151.58H81.7758L77.0273 148.884Z" fill="#409CB5"/>
<path d="M71.8995 143.596L83.8794 150.398C84.0584 150.5 84.1895 150.668 84.2439 150.866C84.2982 151.064 84.2714 151.275 84.1693 151.454L83.0258 153.45C82.3533 154.623 81.24 155.483 79.9308 155.84C78.6216 156.196 77.2237 156.02 76.0446 155.351L71.6061 152.831C71.0223 152.499 70.5098 152.056 70.0979 151.528C69.6859 150.999 69.3826 150.395 69.2053 149.75C69.0279 149.104 68.98 148.43 69.0642 147.767C69.1484 147.103 69.3632 146.462 69.6961 145.881L70.8397 143.885C70.9418 143.707 71.1108 143.576 71.3095 143.522C71.5083 143.468 71.7205 143.494 71.8995 143.596Z" fill="#DBE8EC"/>
<path d="M72.0209 147.217L73.1644 145.221C73.2665 145.043 73.4355 144.912 73.6342 144.858C73.833 144.804 74.0452 144.831 74.2242 144.932L84.004 150.485C83.9659 150.452 83.9247 150.423 83.8809 150.398L71.901 143.596C71.722 143.494 71.5098 143.467 71.3111 143.522C71.1123 143.576 70.9433 143.706 70.8412 143.884L69.6976 145.88C69.0252 147.054 68.8486 148.446 69.2068 149.749C69.565 151.053 70.4286 152.161 71.6076 152.83L73.6777 154.006C72.5838 153.298 71.8029 152.201 71.4949 150.939C71.1869 149.677 71.3751 148.345 72.0209 147.217Z" fill="#E8EEEF"/>
<path d="M83.0273 153.45L84.1709 151.454C84.2729 151.275 84.2997 151.064 84.2454 150.866C84.191 150.668 84.0599 150.5 83.8809 150.398L81.4266 149.005C81.6049 149.107 81.7353 149.275 81.7893 149.472C81.8433 149.67 81.8164 149.881 81.7146 150.059L80.571 152.054C79.8985 153.228 78.7852 154.088 77.476 154.445C76.1668 154.801 74.7689 154.625 73.5898 153.956L71.6035 152.828L71.6076 152.831L76.0462 155.351C76.63 155.682 77.2736 155.896 77.9404 155.98C78.6072 156.064 79.2841 156.016 79.9323 155.84C80.5806 155.663 81.1875 155.361 81.7186 154.951C82.2496 154.541 82.6943 154.031 83.0273 153.45Z" fill="#BAD5DB"/>
</g>
</svg>
