<svg width="132" height="132" viewBox="0 0 132 132" fill="none" xmlns="http://www.w3.org/2000/svg">
<g opacity="0.3" clip-path="url(#clip0_1403_38527)">
<g opacity="0.15">
<path d="M-2.48828 43.584H13.3817M13.3817 43.584V51.32M13.3817 43.584H19.4583M13.3817 51.32H-2.48828M13.3817 51.32H29.2515M-0.0200836 59.0934H13.3817V66.8296H8.24672M5.44672 51.32H21.3165V59.0562H5.44672V51.32Z" stroke="#474747" stroke-width="1.2" stroke-miterlimit="10" stroke-linecap="round" stroke-linejoin="round"/>
<path d="M82.1085 71.5916H97.9783M97.9783 71.5916V79.3278M97.9783 71.5916H104.055M97.9783 79.3278H82.1085M97.9783 79.3278H113.848M13.3809 59.0928H29.2507V66.829H13.3809V59.0928Z" stroke="#474747" stroke-width="1.2" stroke-miterlimit="10" stroke-linecap="round" stroke-linejoin="round"/>
<path d="M84.5765 87.1016H97.9781M97.9781 87.1016V94.8378M97.9781 87.1016H111.192M97.9781 94.8378H92.8433M97.9781 94.8378H108.205M90.0433 79.3284H105.913V87.0646H90.0433V79.3284ZM30.3613 14.5918H54.9897V34.5562H30.3613V14.5918Z" stroke="#474747" stroke-width="1.2" stroke-miterlimit="10" stroke-linecap="round" stroke-linejoin="round"/>
<path d="M33.7598 29.9328L38.2722 23.3994L42.939 29.1826" stroke="#474747" stroke-width="1.2" stroke-miterlimit="10" stroke-linecap="round" stroke-linejoin="round"/>
<path d="M41.2285 27.0614L47.5245 20.9502L51.9925 29.9338" stroke="#474747" stroke-width="1.2" stroke-miterlimit="10" stroke-linecap="round" stroke-linejoin="round"/>
<path d="M39.5801 25.0236C39.8915 24.0802 40.7803 23.3994 41.8279 23.3994C42.6911 23.3994 43.4463 23.8616 43.8597 24.5518M119.006 48.038H83.9777C82.6845 48.038 81.6361 46.9896 81.6361 45.6964C81.6361 44.4032 82.6845 43.3548 83.9777 43.3548H119.006C120.299 43.3548 121.347 44.4032 121.347 45.6964C121.347 46.9898 120.299 48.038 119.006 48.038Z" stroke="#474747" stroke-width="1.2" stroke-miterlimit="10" stroke-linecap="round" stroke-linejoin="round"/>
<path d="M106.14 14.8805L108.764 10.5401C109.269 9.70494 110.405 9.52574 111.142 10.1651C111.879 10.8045 111.863 11.9541 111.108 12.5721L106.193 16.5943M106.967 43.3559H96.7101L94.5767 30.2681H109.1L106.967 43.3559ZM92.6387 26.4677H111.1V30.2681H92.6387V26.4677ZM104.214 26.4677H100.426C99.3959 22.8401 98.4903 19.0391 98.6015 15.3321C98.7341 13.5555 100.653 12.0505 102.32 12.0511C103.987 12.0505 105.906 13.5555 106.039 15.3321C106.15 19.0393 105.244 22.8401 104.214 26.4677Z" stroke="#474747" stroke-width="1.2" stroke-miterlimit="10" stroke-linecap="round" stroke-linejoin="round"/>
<path d="M108.803 10.4933L107.553 6.61453C107.361 6.01833 107.752 5.39293 108.372 5.30493C108.518 5.28427 108.666 5.29568 108.807 5.33838C108.948 5.38107 109.078 5.45401 109.187 5.5521C109.297 5.65019 109.384 5.77105 109.442 5.90623C109.5 6.04142 109.528 6.18766 109.524 6.33473L109.431 9.46953" stroke="#474747" stroke-width="1.2" stroke-miterlimit="10" stroke-linecap="round" stroke-linejoin="round"/>
</g>
<path d="M100.404 41.3232L74.0151 95.4555L47.886 82.7177L74.2752 28.5854L100.404 41.3232Z" fill="#77BA85"/>
<path d="M100.404 41.3232L74.0151 95.4555L47.886 82.7177L74.2752 28.5854L100.404 41.3232Z" stroke="#474747" stroke-width="1.2" stroke-miterlimit="10" stroke-linecap="round" stroke-linejoin="round"/>
<path d="M90.0539 39.9816L81.7013 35.9092C80.1153 39.162 76.193 40.5132 72.9402 38.9272L52.3438 81.172L72.4756 90.9874L93.0721 48.7428C89.8193 47.1568 88.4681 43.2344 90.0539 39.9816Z" fill="#F6F9EA"/>
<path d="M90.0539 39.9816L81.7013 35.9092C80.1153 39.162 76.193 40.5132 72.9402 38.9272L52.3438 81.172L72.4756 90.9874L93.0721 48.7428C89.8193 47.1568 88.4681 43.2344 90.0539 39.9816Z" stroke="#474747" stroke-width="1.2" stroke-miterlimit="10" stroke-linecap="round" stroke-linejoin="round"/>
<path d="M75.8184 33.0352L95.9512 42.8485L72.488 90.9852L52.3551 81.1718L75.8184 33.0352Z" stroke="#474747" stroke-width="1.2" stroke-miterlimit="10" stroke-linecap="round" stroke-linejoin="round"/>
<path d="M76.1419 64.6539C79.932 64.6539 83.0045 61.5814 83.0045 57.7913C83.0045 54.0012 79.932 50.9287 76.1419 50.9287C72.3518 50.9287 69.2793 54.0012 69.2793 57.7913C69.2793 61.5814 72.3518 64.6539 76.1419 64.6539Z" fill="#77BA85"/>
<path d="M76.1419 64.6539C79.932 64.6539 83.0045 61.5814 83.0045 57.7913C83.0045 54.0012 79.932 50.9287 76.1419 50.9287C72.3518 50.9287 69.2793 54.0012 69.2793 57.7913C69.2793 61.5814 72.3518 64.6539 76.1419 64.6539Z" stroke="#474747" stroke-width="1.2" stroke-miterlimit="10" stroke-linecap="round" stroke-linejoin="round"/>
<path d="M120.047 59.8818L73.476 98.0635L55.046 75.5842L101.617 37.4025L120.047 59.8818Z" fill="#97CD78"/>
<path d="M120.047 59.8818L73.476 98.0635L55.046 75.5842L101.617 37.4025L120.047 59.8818Z" stroke="#474747" stroke-width="1.2" stroke-miterlimit="10" stroke-linecap="round" stroke-linejoin="round"/>
<path d="M111.192 54.3486L105.3 47.1626C102.502 49.457 98.373 49.0484 96.0786 46.25L59.7344 76.048L73.9348 93.368L110.279 63.57C107.985 60.7714 108.393 56.643 111.192 54.3486Z" fill="#F6F9EA"/>
<path d="M111.192 54.3486L105.3 47.1626C102.502 49.457 98.373 49.0484 96.0786 46.25L59.7344 76.048L73.9348 93.368L110.279 63.57C107.985 60.7714 108.393 56.643 111.192 54.3486Z" stroke="#474747" stroke-width="1.2" stroke-miterlimit="10" stroke-linecap="round" stroke-linejoin="round"/>
<path d="M101.146 42.0947L115.347 59.4149L73.9349 93.3668L59.7347 76.0466L101.146 42.0947Z" stroke="#474747" stroke-width="1.2" stroke-miterlimit="10" stroke-linecap="round" stroke-linejoin="round"/>
<path d="M91.1146 71.5924C94.9047 71.5924 97.9771 68.5199 97.9771 64.7298C97.9771 60.9397 94.9047 57.8672 91.1146 57.8672C87.3244 57.8672 84.252 60.9397 84.252 64.7298C84.252 68.5199 87.3244 71.5924 91.1146 71.5924Z" fill="#97CD78"/>
<path d="M91.1146 71.5924C94.9047 71.5924 97.9771 68.5199 97.9771 64.7298C97.9771 60.9397 94.9047 57.8672 91.1146 57.8672C87.3244 57.8672 84.252 60.9397 84.252 64.7298C84.252 68.5199 87.3244 71.5924 91.1146 71.5924Z" stroke="#474747" stroke-width="1.2" stroke-miterlimit="10" stroke-linecap="round" stroke-linejoin="round"/>
<path opacity="0.32" d="M91.8839 57.5456C91.8839 53.9894 90.5489 50.7408 88.3565 48.2686L55.0391 75.5848L73.4693 98.064L91.8839 82.9662V57.5456Z" fill="#474747" stroke="#474747" stroke-width="1.2" stroke-miterlimit="10" stroke-linecap="round" stroke-linejoin="round"/>
<path opacity="0.15" d="M-0.201172 115.743H132.199" stroke="#474747" stroke-width="1.2" stroke-miterlimit="10" stroke-linecap="round" stroke-linejoin="round"/>
<path d="M77.8828 115.744H35.8828C29.2554 115.744 23.8828 110.371 23.8828 103.744V56.5439C23.8828 49.9165 29.2554 44.5439 35.8828 44.5439H77.8828C84.5102 44.5439 89.8828 49.9165 89.8828 56.5439V103.744C89.8828 110.371 84.5102 115.744 77.8828 115.744Z" fill="#F58870"/>
<path d="M77.8828 115.744H35.8828C29.2554 115.744 23.8828 110.371 23.8828 103.744V56.5439C23.8828 49.9165 29.2554 44.5439 35.8828 44.5439H77.8828C84.5102 44.5439 89.8828 49.9165 89.8828 56.5439V103.744C89.8828 110.371 84.5102 115.744 77.8828 115.744Z" fill="#3A3486"/>
<path d="M77.8828 113.32H35.8828C29.2554 113.32 23.8828 107.948 23.8828 101.32V103.744C23.8828 110.372 29.2554 115.744 35.8828 115.744H77.8828C84.5102 115.744 89.8828 110.372 89.8828 103.744V101.32C89.8828 107.948 84.5102 113.32 77.8828 113.32Z" fill="#120E44"/>
<path d="M77.8828 44.5439H35.8828C29.2554 44.5439 23.8828 49.4803 23.8828 55.5697V58.1425C23.8828 52.0531 29.2554 47.1167 35.8828 47.1167H77.8828C84.5102 47.1167 89.8828 52.0531 89.8828 58.1425V55.5697C89.8828 49.4805 84.5102 44.5439 77.8828 44.5439Z" fill="#58539D"/>
<path opacity="0.3" d="M63.8844 73.8391H53.0844C51.0962 73.8391 49.4844 72.2273 49.4844 70.2391V48.1439C49.4844 46.1557 51.0962 44.5439 53.0844 44.5439H67.4844V70.2391C67.4844 72.2273 65.8726 73.8391 63.8844 73.8391Z" fill="#474747" stroke="#474747" stroke-width="1.2" stroke-miterlimit="10" stroke-linecap="round" stroke-linejoin="round"/>
<path d="M77.8828 115.744H35.8828C29.2554 115.744 23.8828 110.371 23.8828 103.744V56.5439C23.8828 49.9165 29.2554 44.5439 35.8828 44.5439H77.8828C84.5102 44.5439 89.8828 49.9165 89.8828 56.5439V103.744C89.8828 110.371 84.5102 115.744 77.8828 115.744Z" stroke="#474747" stroke-width="1.2" stroke-miterlimit="10" stroke-linecap="round" stroke-linejoin="round"/>
<g opacity="0.46">
<path d="M28.2812 103.439V56.85C28.2812 52.6526 31.6839 49.25 35.8813 49.25H77.8813C82.0787 49.25 85.4813 52.6526 85.4813 56.85V103.439C85.4813 107.637 82.0787 111.039 77.8813 111.039H35.8813C31.6839 111.039 28.2812 107.637 28.2812 103.439Z" stroke="white" stroke-width="0.8" stroke-linecap="round" stroke-linejoin="round" stroke-dasharray="2.79 1.99"/>
</g>
<path d="M62.2828 71.6391H51.4828C49.4946 71.6391 47.8828 70.0273 47.8828 68.0391V43.6391C47.8828 41.6509 49.4946 40.0391 51.4828 40.0391H62.2828C64.271 40.0391 65.8828 41.6509 65.8828 43.6391V68.0391C65.8828 70.0273 64.271 71.6391 62.2828 71.6391Z" fill="#2A2568"/>
<path d="M62.2828 69.974H51.4828C49.4946 69.974 47.8828 68.3622 47.8828 66.374V68.0406C47.8828 70.0288 49.4946 71.6406 51.4828 71.6406H62.2828C64.271 71.6406 65.8828 70.0288 65.8828 68.0406V66.374C65.8828 68.3622 64.271 69.974 62.2828 69.974Z" fill="#120E44"/>
<path d="M62.2828 40.0391H51.4828C49.4946 40.0391 47.8828 41.6509 47.8828 43.6391V44.9993C47.8828 43.0111 49.4946 41.3993 51.4828 41.3993H62.2828C64.271 41.3993 65.8828 43.0111 65.8828 44.9993V43.6391C65.8828 41.6509 64.271 40.0391 62.2828 40.0391Z" fill="#58539D"/>
<path d="M62.2828 71.6391H51.4828C49.4946 71.6391 47.8828 70.0273 47.8828 68.0391V43.6391C47.8828 41.6509 49.4946 40.0391 51.4828 40.0391H62.2828C64.271 40.0391 65.8828 41.6509 65.8828 43.6391V68.0391C65.8828 70.0273 64.271 71.6391 62.2828 71.6391Z" stroke="#474747" stroke-width="1.2" stroke-miterlimit="10" stroke-linecap="round" stroke-linejoin="round"/>
<path opacity="0.3" d="M57.484 66.5002C60.0521 66.5002 62.134 64.4183 62.134 61.8502C62.134 59.2821 60.0521 57.2002 57.484 57.2002C54.9159 57.2002 52.834 59.2821 52.834 61.8502C52.834 64.4183 54.9159 66.5002 57.484 66.5002Z" fill="#474747" stroke="#474747" stroke-width="1.2" stroke-miterlimit="10" stroke-linecap="round" stroke-linejoin="round"/>
<g opacity="0.46">
<path d="M51.4852 69.2394C50.8234 69.2394 50.2852 68.7013 50.2852 68.0395V43.6395C50.2852 42.9777 50.8234 42.4395 51.4852 42.4395H62.2852C62.947 42.4395 63.4852 42.9777 63.4852 43.6395V68.0395C63.4852 68.7013 62.947 69.2394 62.2852 69.2394H51.4852Z" stroke="white" stroke-width="0.8" stroke-linecap="round" stroke-linejoin="round" stroke-dasharray="1.97 2.36"/>
</g>
<path d="M56.8844 65.3C59.4525 65.3 61.5344 63.2181 61.5344 60.65C61.5344 58.0819 59.4525 56 56.8844 56C54.3163 56 52.2344 58.0819 52.2344 60.65C52.2344 63.2181 54.3163 65.3 56.8844 65.3Z" fill="#8F6D5D"/>
<path d="M56.8844 65.3C59.4525 65.3 61.5344 63.2181 61.5344 60.65C61.5344 58.0819 59.4525 56 56.8844 56C54.3163 56 52.2344 58.0819 52.2344 60.65C52.2344 63.2181 54.3163 65.3 56.8844 65.3Z" stroke="#474747" stroke-width="1.2" stroke-miterlimit="10" stroke-linecap="round" stroke-linejoin="round"/>
<g opacity="0.6">
<path d="M58.8403 58.2652C59.0095 59.0214 58.1059 59.5066 56.7745 59.7812C55.4409 60.0448 54.2429 60.0894 54.0789 59.4486C53.9097 58.8192 54.8131 57.6514 56.1447 57.2724C57.4781 56.8826 58.6761 57.5206 58.8403 58.2652Z" fill="#FFFCEE"/>
</g>
<path d="M123.662 115.744H109.657C109.271 115.744 108.901 115.591 108.629 115.319C108.356 115.046 108.203 114.676 108.203 114.291V113.32C108.203 112.934 108.356 112.564 108.629 112.292C108.901 112.019 109.271 111.866 109.657 111.866H123.662C124.047 111.866 124.417 112.019 124.689 112.292C124.962 112.564 125.115 112.934 125.115 113.32V114.291C125.115 114.482 125.077 114.671 125.004 114.847C124.931 115.023 124.824 115.184 124.689 115.319C124.554 115.454 124.394 115.561 124.218 115.634C124.041 115.707 123.852 115.744 123.662 115.744Z" fill="#FDB740"/>
<path opacity="0.88" d="M123.662 112.266H109.657C109.466 112.266 109.277 112.303 109.1 112.376C108.924 112.449 108.764 112.556 108.629 112.691C108.494 112.826 108.387 112.986 108.314 113.163C108.241 113.339 108.203 113.528 108.203 113.719V114.286C108.203 113.9 108.356 113.53 108.629 113.258C108.901 112.985 109.271 112.832 109.657 112.832H123.662C124.047 112.832 124.417 112.985 124.689 113.258C124.962 113.53 125.115 113.9 125.115 114.286V113.719C125.115 113.528 125.077 113.339 125.004 113.163C124.931 112.986 124.824 112.826 124.689 112.691C124.554 112.556 124.394 112.449 124.218 112.376C124.041 112.303 123.852 112.266 123.662 112.266Z" fill="#FFF3C0"/>
<path d="M123.662 115.308H109.657C109.271 115.308 108.901 115.155 108.629 114.882C108.356 114.61 108.203 114.24 108.203 113.855V113.288C108.203 113.674 108.356 114.043 108.629 114.316C108.901 114.588 109.271 114.741 109.657 114.741H123.662C124.047 114.741 124.417 114.588 124.689 114.316C124.962 114.043 125.115 113.674 125.115 113.288V113.855C125.115 114.046 125.077 114.235 125.004 114.411C124.931 114.587 124.824 114.747 124.689 114.882C124.554 115.017 124.394 115.124 124.218 115.197C124.041 115.271 123.852 115.308 123.662 115.308Z" fill="#F29E25"/>
<path d="M123.662 115.744H109.657C109.271 115.744 108.901 115.591 108.629 115.319C108.356 115.046 108.203 114.676 108.203 114.291V113.32C108.203 112.934 108.356 112.564 108.629 112.292C108.901 112.019 109.271 111.866 109.657 111.866H123.662C124.047 111.866 124.417 112.019 124.689 112.292C124.962 112.564 125.115 112.934 125.115 113.32V114.291C125.115 114.482 125.077 114.671 125.004 114.847C124.931 115.023 124.824 115.184 124.689 115.319C124.554 115.454 124.394 115.561 124.218 115.634C124.041 115.707 123.852 115.744 123.662 115.744Z" stroke="#474747" stroke-width="1.2" stroke-miterlimit="10" stroke-linecap="round" stroke-linejoin="round"/>
<path d="M125.992 111.866H111.987C111.601 111.866 111.231 111.713 110.959 111.441C110.686 111.168 110.533 110.798 110.533 110.413V109.442C110.533 109.251 110.571 109.062 110.644 108.885C110.717 108.709 110.824 108.549 110.959 108.414C111.094 108.279 111.254 108.172 111.43 108.099C111.607 108.026 111.796 107.988 111.987 107.988H125.992C126.182 107.988 126.371 108.026 126.548 108.099C126.724 108.172 126.884 108.279 127.019 108.414C127.154 108.549 127.261 108.709 127.334 108.885C127.407 109.062 127.445 109.251 127.445 109.442V110.413C127.445 110.798 127.292 111.168 127.019 111.441C126.747 111.713 126.377 111.866 125.992 111.866Z" fill="#FDB740"/>
<path opacity="0.88" d="M125.992 108.388H111.987C111.601 108.388 111.231 108.541 110.959 108.813C110.686 109.086 110.533 109.456 110.533 109.841V110.408C110.533 110.022 110.686 109.653 110.959 109.38C111.231 109.107 111.601 108.954 111.987 108.954H125.992C126.377 108.954 126.747 109.107 127.019 109.38C127.292 109.653 127.445 110.022 127.445 110.408V109.841C127.445 109.456 127.292 109.086 127.019 108.813C126.747 108.541 126.377 108.388 125.992 108.388Z" fill="#FFF3C0"/>
<path d="M125.992 111.429H111.987C111.796 111.429 111.607 111.392 111.43 111.319C111.254 111.246 111.094 111.138 110.959 111.003C110.824 110.869 110.717 110.708 110.644 110.532C110.571 110.356 110.533 110.167 110.533 109.976V109.409C110.533 109.795 110.686 110.164 110.959 110.437C111.231 110.709 111.601 110.863 111.987 110.863H125.992C126.377 110.863 126.747 110.709 127.019 110.437C127.292 110.164 127.445 109.795 127.445 109.409V109.976C127.445 110.167 127.407 110.356 127.334 110.532C127.261 110.708 127.154 110.869 127.019 111.003C126.884 111.138 126.724 111.246 126.548 111.319C126.371 111.392 126.182 111.429 125.992 111.429Z" fill="#F29E25"/>
<path d="M125.992 111.866H111.987C111.601 111.866 111.231 111.713 110.959 111.441C110.686 111.168 110.533 110.798 110.533 110.413V109.442C110.533 109.251 110.571 109.062 110.644 108.885C110.717 108.709 110.824 108.549 110.959 108.414C111.094 108.279 111.254 108.172 111.43 108.099C111.607 108.026 111.796 107.988 111.987 107.988H125.992C126.182 107.988 126.371 108.026 126.548 108.099C126.724 108.172 126.884 108.279 127.019 108.414C127.154 108.549 127.261 108.709 127.334 108.885C127.407 109.062 127.445 109.251 127.445 109.442V110.413C127.445 110.798 127.292 111.168 127.019 111.441C126.747 111.713 126.377 111.866 125.992 111.866Z" stroke="#474747" stroke-width="1.2" stroke-miterlimit="10" stroke-linecap="round" stroke-linejoin="round"/>
<path d="M123.662 107.988H109.657C109.466 107.988 109.277 107.951 109.1 107.878C108.924 107.805 108.764 107.698 108.629 107.563C108.494 107.428 108.387 107.267 108.314 107.091C108.241 106.915 108.203 106.726 108.203 106.535V105.564C108.203 105.178 108.356 104.809 108.629 104.536C108.901 104.263 109.271 104.11 109.657 104.11H123.662C124.047 104.11 124.417 104.263 124.689 104.536C124.962 104.809 125.115 105.178 125.115 105.564V106.535C125.115 106.726 125.077 106.915 125.004 107.091C124.931 107.268 124.824 107.428 124.689 107.563C124.554 107.698 124.394 107.805 124.218 107.878C124.041 107.951 123.852 107.988 123.662 107.988Z" fill="#FDB740"/>
<path opacity="0.88" d="M123.662 104.511H109.657C109.271 104.511 108.901 104.664 108.629 104.936C108.356 105.209 108.203 105.579 108.203 105.964V106.531C108.203 106.34 108.241 106.151 108.314 105.975C108.387 105.798 108.494 105.638 108.629 105.503C108.764 105.368 108.924 105.261 109.1 105.188C109.277 105.115 109.466 105.077 109.657 105.077H123.662C123.852 105.077 124.041 105.115 124.218 105.188C124.394 105.261 124.554 105.368 124.689 105.503C124.824 105.638 124.931 105.798 125.004 105.975C125.077 106.151 125.115 106.34 125.115 106.531V105.964C125.115 105.773 125.077 105.584 125.004 105.408C124.931 105.232 124.824 105.071 124.689 104.936C124.554 104.801 124.394 104.694 124.218 104.621C124.041 104.548 123.852 104.511 123.662 104.511Z" fill="#FFF3C0"/>
<path d="M123.662 107.551H109.657C109.271 107.551 108.901 107.398 108.629 107.126C108.356 106.853 108.203 106.483 108.203 106.098V105.531C108.203 105.722 108.241 105.911 108.314 106.087C108.387 106.264 108.494 106.424 108.629 106.559C108.764 106.694 108.924 106.801 109.1 106.874C109.277 106.947 109.466 106.985 109.657 106.985H123.662C123.852 106.985 124.041 106.947 124.218 106.874C124.394 106.801 124.554 106.694 124.689 106.559C124.824 106.424 124.931 106.264 125.004 106.087C125.077 105.911 125.115 105.722 125.115 105.531V106.098C125.115 106.289 125.077 106.478 125.004 106.654C124.931 106.83 124.824 106.991 124.689 107.126C124.554 107.261 124.394 107.368 124.218 107.441C124.041 107.514 123.852 107.551 123.662 107.551Z" fill="#F29E25"/>
<path d="M123.662 107.988H109.657C109.466 107.988 109.277 107.951 109.1 107.878C108.924 107.805 108.764 107.698 108.629 107.563C108.494 107.428 108.387 107.267 108.314 107.091C108.241 106.915 108.203 106.726 108.203 106.535V105.564C108.203 105.178 108.356 104.809 108.629 104.536C108.901 104.263 109.271 104.11 109.657 104.11H123.662C124.047 104.11 124.417 104.263 124.689 104.536C124.962 104.809 125.115 105.178 125.115 105.564V106.535C125.115 106.726 125.077 106.915 125.004 107.091C124.931 107.268 124.824 107.428 124.689 107.563C124.554 107.698 124.394 107.805 124.218 107.878C124.041 107.951 123.852 107.988 123.662 107.988Z" stroke="#474747" stroke-width="1.2" stroke-miterlimit="10" stroke-linecap="round" stroke-linejoin="round"/>
<path d="M107.813 105.055L98.2457 115.283C98.1153 115.423 97.9588 115.535 97.785 115.614C97.6111 115.693 97.4235 115.737 97.2327 115.743C97.0419 115.749 96.8518 115.718 96.6731 115.651C96.4944 115.584 96.3307 115.482 96.1913 115.352L95.4821 114.688C95.3427 114.558 95.2303 114.401 95.1514 114.228C95.0725 114.054 95.0287 113.866 95.0223 113.675C95.0159 113.485 95.0472 113.294 95.1143 113.116C95.1814 112.937 95.2831 112.773 95.4135 112.634L104.981 102.406C105.111 102.267 105.267 102.154 105.441 102.075C105.615 101.996 105.803 101.952 105.993 101.946C106.184 101.94 106.374 101.971 106.553 102.038C106.732 102.105 106.896 102.207 107.035 102.337L107.744 103.001C108.026 103.264 108.191 103.628 108.204 104.014C108.217 104.399 108.076 104.774 107.813 105.055Z" fill="#FDB740"/>
<path opacity="0.88" d="M105.271 102.68L95.7044 112.908C95.4411 113.19 95.3004 113.564 95.3133 113.95C95.3262 114.335 95.4916 114.699 95.7731 114.963L96.1868 115.35C96.0474 115.219 95.9351 115.063 95.8562 114.889C95.7773 114.715 95.7334 114.527 95.727 114.337C95.7207 114.146 95.7519 113.956 95.8191 113.777C95.8862 113.598 95.9878 113.435 96.1182 113.295L105.685 103.067C105.949 102.786 106.313 102.62 106.698 102.608C107.083 102.595 107.458 102.735 107.74 102.999L107.326 102.612C107.044 102.348 106.67 102.208 106.284 102.221C105.899 102.233 105.535 102.399 105.271 102.68Z" fill="#FFF3C0"/>
<path d="M107.49 104.758L97.9233 114.986C97.7929 115.125 97.6363 115.238 97.4625 115.316C97.2887 115.395 97.1011 115.439 96.9103 115.446C96.7195 115.452 96.5294 115.421 96.3507 115.354C96.172 115.286 96.0083 115.185 95.8689 115.054L95.4551 114.667C95.7366 114.931 96.1112 115.071 96.4965 115.059C96.8818 115.046 97.2461 114.88 97.5095 114.599L107.076 104.371C107.34 104.089 107.48 103.715 107.468 103.329C107.455 102.944 107.289 102.58 107.008 102.316L107.422 102.703C107.703 102.967 107.869 103.331 107.881 103.716C107.894 104.102 107.754 104.476 107.49 104.758Z" fill="#F29E25"/>
<path d="M107.813 105.055L98.2457 115.283C98.1153 115.423 97.9588 115.535 97.785 115.614C97.6111 115.693 97.4235 115.737 97.2327 115.743C97.0419 115.749 96.8518 115.718 96.6731 115.651C96.4944 115.584 96.3307 115.482 96.1913 115.352L95.4821 114.688C95.3427 114.558 95.2303 114.401 95.1514 114.228C95.0725 114.054 95.0287 113.866 95.0223 113.675C95.0159 113.485 95.0472 113.294 95.1143 113.116C95.1814 112.937 95.2831 112.773 95.4135 112.634L104.981 102.406C105.111 102.267 105.267 102.154 105.441 102.075C105.615 101.996 105.803 101.952 105.993 101.946C106.184 101.94 106.374 101.971 106.553 102.038C106.732 102.105 106.896 102.207 107.035 102.337L107.744 103.001C108.026 103.264 108.191 103.628 108.204 104.014C108.217 104.399 108.076 104.774 107.813 105.055Z" stroke="#474747" stroke-width="1.2" stroke-miterlimit="10" stroke-linecap="round" stroke-linejoin="round"/>
</g>
<defs>
<clipPath id="clip0_1403_38527">
<rect width="132" height="132" fill="white"/>
</clipPath>
</defs>
</svg>
