<svg width="24" height="24" viewBox="0 0 24 24" fill="none" xmlns="http://www.w3.org/2000/svg">
<path d="M13.7148 7.28578V13.2858C13.7148 13.4108 13.6747 13.5135 13.5943 13.5938C13.514 13.6742 13.4113 13.7144 13.2863 13.7144H9.00056C8.87556 13.7144 8.77288 13.6742 8.69252 13.5938C8.61217 13.5135 8.57199 13.4108 8.57199 13.2858V12.4286C8.57199 12.3036 8.61217 12.201 8.69252 12.1206C8.77288 12.0402 8.87556 12.0001 9.00056 12.0001H12.0006V7.28578C12.0006 7.16078 12.0407 7.05811 12.1211 6.97775C12.2015 6.89739 12.3041 6.85721 12.4291 6.85721H13.2863C13.4113 6.85721 13.514 6.89739 13.5943 6.97775C13.6747 7.05811 13.7148 7.16078 13.7148 7.28578ZM19.2863 12.0001C19.2863 10.6786 18.9604 9.45989 18.3086 8.34382C17.6568 7.22775 16.7729 6.34382 15.6568 5.69203C14.5407 5.04025 13.322 4.71436 12.0006 4.71436C10.6791 4.71436 9.46038 5.04025 8.34431 5.69203C7.22824 6.34382 6.34431 7.22775 5.69252 8.34382C5.04074 9.45989 4.71484 10.6786 4.71484 12.0001C4.71484 13.3215 5.04074 14.5402 5.69252 15.6563C6.34431 16.7724 7.22824 17.6563 8.34431 18.3081C9.46038 18.9599 10.6791 19.2858 12.0006 19.2858C13.322 19.2858 14.5407 18.9599 15.6568 18.3081C16.7729 17.6563 17.6568 16.7724 18.3086 15.6563C18.9604 14.5402 19.2863 13.3215 19.2863 12.0001ZM22.2863 12.0001C22.2863 13.8661 21.8265 15.5871 20.9068 17.163C19.9872 18.7389 18.7394 19.9867 17.1635 20.9063C15.5876 21.826 13.8666 22.2858 12.0006 22.2858C10.1345 22.2858 8.4135 21.826 6.83761 20.9063C5.26172 19.9867 4.01395 18.7389 3.09431 17.163C2.17467 15.5871 1.71484 13.8661 1.71484 12.0001C1.71484 10.134 2.17467 8.41302 3.09431 6.83712C4.01395 5.26123 5.26172 4.01346 6.83761 3.09382C8.4135 2.17418 10.1345 1.71436 12.0006 1.71436C13.8666 1.71436 15.5876 2.17418 17.1635 3.09382C18.7394 4.01346 19.9872 5.26123 20.9068 6.83712C21.8265 8.41302 22.2863 10.134 22.2863 12.0001Z" fill="url(#paint0_linear_966_44024)"/>
<defs>
<linearGradient id="paint0_linear_966_44024" x1="3.30668" y1="5.05721" x2="21.1819" y2="5.79152" gradientUnits="userSpaceOnUse">
<stop stop-color="#322E80"/>
<stop offset="1" stop-color="#322E80" stop-opacity="0.7"/>
</linearGradient>
</defs>
</svg>
