<svg width="68" height="68" viewBox="0 0 68 68" fill="none" xmlns="http://www.w3.org/2000/svg">
<g filter="url(#filter0_d_966_43826)">
<circle cx="34" cy="30" r="22" fill="url(#paint0_linear_966_43826)" shape-rendering="crispEdges"/>
<circle cx="34" cy="30" r="21" stroke="white" stroke-width="2" shape-rendering="crispEdges"/>
</g>
<g clip-path="url(#clip0_966_43826)">
<path fill-rule="evenodd" clip-rule="evenodd" d="M38.4016 22.119C39.0848 22.1396 39.7346 22.4192 40.2195 22.901C40.7043 23.3829 40.9878 24.031 41.0126 24.714C41.0316 26.774 41.0186 28.834 41.0126 30.894C40.9906 31.5768 40.7106 32.2258 40.229 32.7103C39.7475 33.1948 39.1002 33.4788 38.4176 33.505C33.7306 33.549 29.0426 33.519 24.3546 33.505C23.6707 33.4841 23.0204 33.2038 22.5357 32.7209C22.051 32.238 21.7682 31.5888 21.7446 30.905C21.7256 28.846 21.7376 26.785 21.7446 24.726C21.7676 24.0441 22.0479 23.3962 22.5291 22.9126C23.0103 22.429 23.6568 22.1454 24.3386 22.119C29.0266 22.075 33.7136 22.104 38.4016 22.119ZM23.4946 30.16C23.4946 30.398 23.4946 30.6367 23.4946 30.876C23.5002 31.1038 23.5919 31.321 23.7514 31.4837C23.9108 31.6465 24.126 31.7427 24.3536 31.753L25.0996 31.764L25.0816 31.711C24.9429 31.3543 24.7296 31.0314 24.4559 30.7638C24.1822 30.4963 23.8544 30.2905 23.4946 30.16ZM39.2696 30.16C38.9056 30.2976 38.5748 30.5107 38.2991 30.7852C38.0233 31.0598 37.8088 31.3896 37.6696 31.753H38.3826C38.6104 31.7474 38.8275 31.6557 38.9903 31.4963C39.153 31.3368 39.2493 31.1216 39.2596 30.894C39.2643 30.6494 39.2676 30.4047 39.2696 30.16ZM31.3976 24.745C31.8233 24.7475 32.2437 24.8386 32.6323 25.0126C33.0208 25.1865 33.3688 25.4394 33.6542 25.7552C33.9397 26.071 34.1562 26.4427 34.29 26.8468C34.4239 27.2509 34.4722 27.6784 34.4317 28.1021C34.3913 28.5259 34.2631 28.9366 34.0553 29.308C33.8474 29.6795 33.5645 30.0036 33.2245 30.2598C32.8845 30.5159 32.495 30.6985 32.0806 30.7958C31.6662 30.8931 31.2361 30.9031 30.8176 30.825C30.0719 30.6855 29.4045 30.2744 28.9443 29.6714C28.4841 29.0683 28.2638 28.3161 28.326 27.56C28.3882 26.804 28.7284 26.0978 29.281 25.5781C29.8335 25.0583 30.5592 24.7619 31.3176 24.746L31.3976 24.745ZM25.0876 23.869H24.3726C24.1449 23.8756 23.928 23.9677 23.7652 24.1271C23.6025 24.2866 23.5058 24.5015 23.4946 24.729C23.4946 24.977 23.4886 25.229 23.4856 25.474L23.5366 25.456C23.8933 25.3176 24.2162 25.1044 24.4837 24.8308C24.7512 24.5573 24.9571 24.2287 25.0876 23.869ZM37.6676 23.859C37.8054 24.2231 38.0187 24.5538 38.2934 24.8295C38.5682 25.1053 38.8981 25.3198 39.2616 25.459C39.2616 25.2217 39.2616 24.9844 39.2616 24.747C39.256 24.5191 39.1641 24.3018 39.0045 24.139C38.8448 23.9762 38.6294 23.8801 38.4016 23.87L37.6676 23.859Z" fill="white"/>
<path d="M42.8787 25.4421C43.0842 25.4805 43.2708 25.587 43.4083 25.7445C43.5458 25.902 43.6263 26.1012 43.6367 26.3101C43.6367 28.3231 43.6437 30.3361 43.6367 32.3481C43.6087 33.3468 43.1979 34.2965 42.4893 35.0008C41.7807 35.7051 40.8285 36.1101 39.8297 36.1321H24.8687C24.6853 36.1169 24.511 36.0459 24.3692 35.9286C24.2275 35.8113 24.1251 35.6533 24.0758 35.4761C24.0266 35.2988 24.0328 35.1107 24.0938 34.937C24.1547 34.7634 24.2674 34.6127 24.4167 34.5051C24.5494 34.4172 24.7066 34.3738 24.8657 34.3811C29.8657 34.3811 34.8567 34.4281 39.8527 34.3811C40.3889 34.3592 40.8967 34.1345 41.2736 33.7525C41.6505 33.3704 41.8682 32.8595 41.8827 32.3231V26.3101C41.8886 26.1868 41.9195 26.0661 41.9733 25.955C42.0271 25.844 42.1028 25.745 42.1958 25.6639C42.2888 25.5829 42.3972 25.5214 42.5146 25.4833C42.6319 25.4452 42.7558 25.4312 42.8787 25.4421Z" fill="white"/>
<path d="M45.5066 28.0697C45.7122 28.1082 45.8988 28.2147 46.0363 28.3722C46.1738 28.5297 46.2543 28.7289 46.2646 28.9377C46.2646 30.6087 46.2646 32.2797 46.2646 33.9497C46.229 35.219 45.7071 36.426 44.8066 37.3213C43.9061 38.2165 42.6961 38.7315 41.4267 38.7597H27.4966C27.3548 38.7519 27.2167 38.711 27.0935 38.6402C26.9703 38.5695 26.8654 38.4709 26.7872 38.3523C26.7089 38.2337 26.6595 38.0985 26.6429 37.9574C26.6264 37.8163 26.643 37.6732 26.6916 37.5397C26.7496 37.4072 26.839 37.2908 26.9521 37.2005C27.0652 37.1103 27.1985 37.0489 27.3406 37.0217C27.3921 37.0126 27.4443 37.0079 27.4966 37.0077C32.1466 37.0077 36.7966 37.0227 41.4446 37.0077C42.2544 36.9836 43.0241 36.6498 43.595 36.0752C44.166 35.5005 44.4948 34.7286 44.5136 33.9187V28.9377C44.5197 28.8148 44.5504 28.6943 44.604 28.5835C44.6576 28.4726 44.733 28.3738 44.8257 28.2927C44.9184 28.2117 45.0265 28.1502 45.1435 28.1119C45.2605 28.0736 45.384 28.0592 45.5066 28.0697Z" fill="white"/>
<path fill-rule="evenodd" clip-rule="evenodd" d="M31.3677 26.498C31.1538 26.4989 30.9433 26.5519 30.7546 26.6524C30.5658 26.753 30.4045 26.8982 30.2846 27.0753C30.1647 27.2524 30.0898 27.4561 30.0664 27.6687C30.0431 27.8813 30.072 28.0963 30.1507 28.2952C30.2293 28.4941 30.3553 28.6708 30.5177 28.8099C30.6802 28.9491 30.8741 29.0465 31.0827 29.0937C31.2913 29.1408 31.5083 29.1364 31.7148 29.0807C31.9213 29.025 32.1111 28.9197 32.2677 28.774C32.4453 28.5911 32.5672 28.3614 32.6192 28.1117C32.6712 27.8621 32.6511 27.6028 32.5612 27.3642C32.4714 27.1255 32.3155 26.9174 32.1117 26.764C31.908 26.6106 31.6648 26.5184 31.4107 26.498H31.3677Z" fill="white"/>
</g>
<defs>
<filter id="filter0_d_966_43826" x="0" y="0" width="68" height="68" filterUnits="userSpaceOnUse" color-interpolation-filters="sRGB">
<feFlood flood-opacity="0" result="BackgroundImageFix"/>
<feColorMatrix in="SourceAlpha" type="matrix" values="0 0 0 0 0 0 0 0 0 0 0 0 0 0 0 0 0 0 127 0" result="hardAlpha"/>
<feOffset dy="4"/>
<feGaussianBlur stdDeviation="6"/>
<feComposite in2="hardAlpha" operator="out"/>
<feColorMatrix type="matrix" values="0 0 0 0 0.505882 0 0 0 0 0.494118 0 0 0 0 0.694118 0 0 0 0.5 0"/>
<feBlend mode="normal" in2="BackgroundImageFix" result="effect1_dropShadow_966_43826"/>
<feBlend mode="normal" in="SourceGraphic" in2="effect1_dropShadow_966_43826" result="shape"/>
</filter>
<linearGradient id="paint0_linear_966_43826" x1="15.4048" y1="15.15" x2="53.6378" y2="16.7206" gradientUnits="userSpaceOnUse">
<stop stop-color="#322E80"/>
<stop offset="1" stop-color="#322E80" stop-opacity="0.7"/>
</linearGradient>
<clipPath id="clip0_966_43826">
<rect width="28" height="28" fill="white" transform="translate(20 16)"/>
</clipPath>
</defs>
</svg>
