<svg width="68" height="68" viewBox="0 0 68 68" fill="none" xmlns="http://www.w3.org/2000/svg">
<g id="Group 111">
<g id="Group 1000001322">
<g id="Ellipse 9" filter="url(#filter0_d_966_36736)">
<circle cx="34" cy="30" r="22" fill="white"/>
<circle cx="34" cy="30" r="22" fill="url(#paint0_linear_966_36736)"/>
<circle cx="34" cy="30" r="21" stroke="white" stroke-width="2"/>
</g>
<path id="Path 2912" d="M41.9 22.1601C41.9 24.5251 40.1 27.3801 37.855 27.3801C35.61 27.3801 33.81 24.5251 33.81 22.1601C33.7953 21.6196 33.8891 21.0816 34.0857 20.5779C34.2824 20.0742 34.5781 19.615 34.9552 19.2275C35.3323 18.84 35.7832 18.5319 36.2814 18.3216C36.7795 18.1113 37.3148 18.0029 37.8555 18.0029C38.3963 18.0029 38.9315 18.1113 39.4297 18.3216C39.9278 18.5319 40.3788 18.84 40.7559 19.2275C41.133 19.615 41.4286 20.0742 41.6253 20.5779C41.822 21.0816 41.9147 21.6196 41.9 22.1601ZM44.5 33.3801C44.3577 33.3558 44.2134 33.3441 44.069 33.3451C43.6299 33.345 43.1964 33.4441 42.801 33.6351L41.229 34.2151C40.436 34.5151 39.691 34.7901 39.27 34.9401L39.07 34.9251C39.0556 34.8434 39.0342 34.7631 39.006 34.6851C38.7716 34.0254 38.34 33.4538 37.7697 33.0478C37.1994 32.6417 36.5181 32.4208 35.818 32.4151H33.982L33.022 32.4251C32.4204 32.4832 31.8146 32.3706 31.274 32.1001C31.5522 31.2474 32.021 30.4694 32.645 29.8251C33.1696 29.2788 33.7992 28.8444 34.4961 28.5479C35.193 28.2515 35.9427 28.0992 36.7 28.1001H38.816C40.2482 28.123 41.6213 28.675 42.6707 29.6499C43.7202 30.6248 44.3718 31.9535 44.5 33.3801ZM27.488 30.9801V41.0001C27.4899 41.2623 27.388 41.5145 27.2046 41.7019C27.0212 41.8892 26.7712 41.9964 26.509 42.0001H22.978C22.7161 41.9962 22.4663 41.8888 22.2831 41.7015C22.0999 41.5142 21.9981 41.2621 22 41.0001V30.9801C21.9982 30.7179 22.1 30.4657 22.2834 30.2783C22.4668 30.091 22.7169 29.9838 22.979 29.9801H26.509C26.7712 29.9838 27.0212 30.091 27.2046 30.2783C27.388 30.4657 27.4899 30.7179 27.488 30.9801Z" fill="white"/>
<path id="Path 2913" d="M44.9827 37.8999L40.5168 40.2499C39.5442 40.7618 38.4618 41.0295 37.3627 41.0299H29.7957C29.3477 41.0296 28.9016 40.9707 28.4688 40.8549V31.8999C29.2386 32.0698 29.9664 32.3929 30.6087 32.8499C30.6477 32.8799 30.6777 32.8999 30.6967 32.9149C31.4036 33.3137 32.2139 33.4913 33.0227 33.4249C33.3087 33.4249 31.9868 33.4249 35.8228 33.4149C36.3208 33.4183 36.8057 33.5752 37.2114 33.8642C37.6171 34.1532 37.9238 34.5603 38.0898 35.0299C38.1484 35.1853 38.1485 35.3568 38.09 35.5123C38.0315 35.6678 37.9183 35.7967 37.7717 35.8749C36.0277 36.7949 34.7077 35.7899 34.6227 36.7299C34.6087 36.8612 34.6472 36.9928 34.7298 37.0958C34.8125 37.1989 34.9325 37.2651 35.0637 37.2799C35.7608 37.3877 36.4726 37.3491 37.1539 37.1666C37.8352 36.9841 38.471 36.6617 39.0208 36.2199C39.183 36.0765 39.3705 35.9646 39.5737 35.8899C40.2737 35.6349 41.9488 35.0099 43.1838 34.5549C43.629 34.3291 44.1438 34.282 44.6227 34.4233C45.1016 34.5645 45.5084 34.8835 45.7598 35.3149C45.8836 35.5345 45.9619 35.7768 45.9898 36.0274C46.0177 36.2779 45.9947 36.5315 45.9221 36.773C45.8495 37.0144 45.7289 37.2387 45.5675 37.4323C45.4061 37.626 45.2072 37.785 44.9827 37.8999Z" fill="white"/>
</g>
</g>
<defs>
<filter id="filter0_d_966_36736" x="0" y="0" width="68" height="68" filterUnits="userSpaceOnUse" color-interpolation-filters="sRGB">
<feFlood flood-opacity="0" result="BackgroundImageFix"/>
<feColorMatrix in="SourceAlpha" type="matrix" values="0 0 0 0 0 0 0 0 0 0 0 0 0 0 0 0 0 0 127 0" result="hardAlpha"/>
<feOffset dy="4"/>
<feGaussianBlur stdDeviation="6"/>
<feComposite in2="hardAlpha" operator="out"/>
<feColorMatrix type="matrix" values="0 0 0 0 0.505882 0 0 0 0 0.494118 0 0 0 0 0.694118 0 0 0 0.5 0"/>
<feBlend mode="normal" in2="BackgroundImageFix" result="effect1_dropShadow_966_36736"/>
<feBlend mode="normal" in="SourceGraphic" in2="effect1_dropShadow_966_36736" result="shape"/>
</filter>
<linearGradient id="paint0_linear_966_36736" x1="15.4048" y1="15.15" x2="53.6378" y2="16.7206" gradientUnits="userSpaceOnUse">
<stop stop-color="#322E80"/>
<stop offset="1" stop-color="#322E80" stop-opacity="0.7"/>
</linearGradient>
</defs>
</svg>
