<svg width="24" height="24" viewBox="0 0 24 24" fill="none" xmlns="http://www.w3.org/2000/svg">
<g clip-path="url(#clip0_966_44065)">
<path d="M12 19C13.3807 19 14.5 17.8807 14.5 16.5C14.5 15.1193 13.3807 14 12 14C10.6193 14 9.5 15.1193 9.5 16.5C9.5 17.8807 10.6193 19 12 19Z" fill="url(#paint0_linear_966_44065)"/>
<path d="M14.2997 19.135C13.7937 19.5807 13.1677 19.8676 12.4997 19.96V20.5C12.4997 20.6326 12.447 20.7598 12.3533 20.8536C12.2595 20.9473 12.1323 21 11.9997 21C11.8671 21 11.7399 20.9473 11.6462 20.8536C11.5524 20.7598 11.4997 20.6326 11.4997 20.5V19.96C10.8318 19.8674 10.2059 19.5805 9.69971 19.135C9.10282 19.4903 8.5963 19.9791 8.21983 20.5629C7.84336 21.1466 7.60715 21.8097 7.52971 22.5C7.49663 22.8322 7.48661 23.1664 7.49971 23.5H16.4997C16.4997 21.76 16.0597 20.18 14.2997 19.135ZM17.7597 17.67C18.0922 17.8602 18.4641 17.9715 18.8464 17.9952C19.2288 18.0189 19.6115 17.9544 19.965 17.8067C20.3185 17.659 20.6333 17.432 20.8851 17.1433C21.137 16.8546 21.3191 16.5119 21.4174 16.1416C21.5157 15.7713 21.5276 15.3834 21.4522 15.0078C21.3767 14.6322 21.216 14.2789 20.9823 13.9753C20.7487 13.6717 20.4484 13.4258 20.1046 13.2567C19.7609 13.0876 19.3828 12.9998 18.9997 13C18.4491 13.0014 17.9143 13.1846 17.4784 13.521C17.0426 13.8575 16.73 14.3285 16.5892 14.8608C16.4484 15.3932 16.4873 15.9571 16.6999 16.465C16.9124 16.973 17.2868 17.3966 17.7647 17.67H17.7597Z" fill="url(#paint1_linear_966_44065)"/>
<path d="M22.1804 18.82C21.9181 18.5544 21.6223 18.3241 21.3004 18.135C21.1281 18.2911 20.9386 18.4269 20.7354 18.54C19.3304 19.335 19.5004 18.5 19.5004 19.5C19.5004 19.6326 19.4477 19.7598 19.354 19.8536C19.2602 19.9473 19.133 20 19.0004 20C18.8678 20 18.7406 19.9473 18.6469 19.8536C18.5531 19.7598 18.5004 19.6326 18.5004 19.5C18.5004 18.5 18.6904 19.33 17.2654 18.54C17.0636 18.4225 16.8728 18.2869 16.6954 18.135C16.3245 18.355 15.9876 18.6279 15.6954 18.945C16.6877 19.8369 17.3162 21.0636 17.4604 22.39C17.5004 22.55 16.7904 22.5 23.5004 22.5C23.5004 21.095 23.3054 19.935 22.1804 18.82ZM3.76542 17.675C4.09822 17.8636 4.46985 17.9733 4.85172 17.9957C5.23359 18.0181 5.6155 17.9526 5.96806 17.8041C6.32062 17.6557 6.63441 17.4284 6.88529 17.1396C7.13616 16.8508 7.31743 16.5084 7.41513 16.1385C7.51283 15.7687 7.52436 15.3814 7.44883 15.0064C7.3733 14.6314 7.21272 14.2787 6.97947 13.9755C6.74621 13.6724 6.44649 13.4268 6.10339 13.2576C5.76028 13.0885 5.38294 13.0004 5.00042 13C4.44817 12.9995 3.91128 13.1818 3.47359 13.5186C3.03589 13.8553 2.72202 14.3275 2.58097 14.8615C2.43991 15.3954 2.47963 15.961 2.6939 16.47C2.90818 16.979 3.28496 17.4027 3.76542 17.675Z" fill="url(#paint2_linear_966_44065)"/>
<path d="M8.295 18.945C8.0065 18.6239 7.66899 18.3505 7.295 18.135C6.79068 18.5803 6.16638 18.8673 5.5 18.96V19.5C5.5 19.6326 5.44732 19.7598 5.35355 19.8536C5.25979 19.9473 5.13261 20 5 20C4.86739 20 4.74021 19.9473 4.64645 19.8536C4.55268 19.7598 4.5 19.6326 4.5 19.5V18.96C3.83211 18.8674 3.20618 18.5805 2.7 18.135C2.02991 18.5335 1.47484 19.0992 1.08917 19.7767C0.703511 20.4543 0.500488 21.2204 0.5 22V22.5C7.2 22.5 6.5 22.55 6.535 22.38C6.6803 21.0578 7.30671 19.8352 8.295 18.945ZM7 9.5V11.5L10 9.5H12C12.2652 9.5 12.5196 9.39464 12.7071 9.20711C12.8946 9.01957 13 8.76522 13 8.5H11.5C10.9696 8.5 10.4609 8.28929 10.0858 7.91421C9.71071 7.53914 9.5 7.03043 9.5 6.5V2.5H5C4.73478 2.5 4.48043 2.60536 4.29289 2.79289C4.10536 2.98043 4 3.23478 4 3.5C4 8.78 3.89 8.81 4.295 9.205C4.7 9.6 5.145 9.5 7 9.5Z" fill="url(#paint3_linear_966_44065)"/>
<path d="M11.5 7.5H13.5L16.5 9.5V7.5H18.5C18.7652 7.5 19.0196 7.39464 19.2071 7.20711C19.3946 7.01957 19.5 6.76522 19.5 6.5V1.5C19.5 1.23478 19.3946 0.98043 19.2071 0.792893C19.0196 0.605357 18.7652 0.5 18.5 0.5H11.5C11.2348 0.5 10.9804 0.605357 10.7929 0.792893C10.6054 0.98043 10.5 1.23478 10.5 1.5V6.5C10.5 6.76522 10.6054 7.01957 10.7929 7.20711C10.9804 7.39464 11.2348 7.5 11.5 7.5ZM17.5 5.5H15C14.8674 5.5 14.7402 5.44732 14.6464 5.35355C14.5527 5.25979 14.5 5.13261 14.5 5C14.5 4.86739 14.5527 4.74021 14.6464 4.64645C14.7402 4.55268 14.8674 4.5 15 4.5H17.5C17.6326 4.5 17.7598 4.55268 17.8536 4.64645C17.9473 4.74021 18 4.86739 18 5C18 5.13261 17.9473 5.25979 17.8536 5.35355C17.7598 5.44732 17.6326 5.5 17.5 5.5ZM16.5 2.5H17.5C17.6326 2.5 17.7598 2.55268 17.8536 2.64645C17.9473 2.74021 18 2.86739 18 3C18 3.13261 17.9473 3.25979 17.8536 3.35355C17.7598 3.44732 17.6326 3.5 17.5 3.5H16.5C16.3674 3.5 16.2402 3.44732 16.1464 3.35355C16.0527 3.25979 16 3.13261 16 3C16 2.86739 16.0527 2.74021 16.1464 2.64645C16.2402 2.55268 16.3674 2.5 16.5 2.5ZM12.5 2.5H15C15.1326 2.5 15.2598 2.55268 15.3536 2.64645C15.4473 2.74021 15.5 2.86739 15.5 3C15.5 3.13261 15.4473 3.25979 15.3536 3.35355C15.2598 3.44732 15.1326 3.5 15 3.5H12.5C12.3674 3.5 12.2402 3.44732 12.1464 3.35355C12.0527 3.25979 12 3.13261 12 3C12 2.86739 12.0527 2.74021 12.1464 2.64645C12.2402 2.55268 12.3674 2.5 12.5 2.5ZM12.5 4.5H13.5C13.6326 4.5 13.7598 4.55268 13.8536 4.64645C13.9473 4.74021 14 4.86739 14 5C14 5.13261 13.9473 5.25979 13.8536 5.35355C13.7598 5.44732 13.6326 5.5 13.5 5.5H12.5C12.3674 5.5 12.2402 5.44732 12.1464 5.35355C12.0527 5.25979 12 5.13261 12 5C12 4.86739 12.0527 4.74021 12.1464 4.64645C12.2402 4.55268 12.3674 4.5 12.5 4.5Z" fill="url(#paint4_linear_966_44065)"/>
</g>
<defs>
<linearGradient id="paint0_linear_966_44065" x1="9.8869" y1="14.8125" x2="14.2316" y2="14.991" gradientUnits="userSpaceOnUse">
<stop stop-color="#322E80"/>
<stop offset="1" stop-color="#322E80" stop-opacity="0.7"/>
</linearGradient>
<linearGradient id="paint1_linear_966_44065" x1="8.57801" y1="14.7062" x2="20.7332" y2="15.3724" gradientUnits="userSpaceOnUse">
<stop stop-color="#322E80"/>
<stop offset="1" stop-color="#322E80" stop-opacity="0.7"/>
</linearGradient>
<linearGradient id="paint2_linear_966_44065" x1="4.12323" y1="14.545" x2="22.2544" y2="16.1903" gradientUnits="userSpaceOnUse">
<stop stop-color="#322E80"/>
<stop offset="1" stop-color="#322E80" stop-opacity="0.7"/>
</linearGradient>
<linearGradient id="paint3_linear_966_44065" x1="1.46726" y1="5.75111" x2="12.3401" y2="6.03017" gradientUnits="userSpaceOnUse">
<stop stop-color="#322E80"/>
<stop offset="1" stop-color="#322E80" stop-opacity="0.7"/>
</linearGradient>
<linearGradient id="paint4_linear_966_44065" x1="11.1964" y1="1.9625" x2="19.0168" y2="2.28376" gradientUnits="userSpaceOnUse">
<stop stop-color="#322E80"/>
<stop offset="1" stop-color="#322E80" stop-opacity="0.7"/>
</linearGradient>
<clipPath id="clip0_966_44065">
<rect width="24" height="24" fill="white"/>
</clipPath>
</defs>
</svg>
