<svg width="24" height="24" viewBox="0 0 24 24" fill="none" xmlns="http://www.w3.org/2000/svg">
<g clip-path="url(#clip0_1403_38903)">
<rect width="30" height="30" fill="#817EB1"/>
<path d="M16.8317 13.926C17.5509 13.926 18.134 13.3429 18.134 12.6237C18.134 11.9044 17.5509 11.3213 16.8317 11.3213C16.1124 11.3213 15.5293 11.9044 15.5293 12.6237C15.5293 13.3429 16.1124 13.926 16.8317 13.926Z" fill="white"/>
<path d="M7.2612 10.1944C7.9787 10.1434 8.51901 9.52044 8.468 8.80293C8.417 8.08543 7.794 7.54512 7.0765 7.59613C6.359 7.64713 5.81869 8.27013 5.86969 8.98763C5.9207 9.70514 6.54369 10.2454 7.2612 10.1944Z" fill="white"/>
<path d="M19.4635 10.1059C19.1186 9.7589 18.7086 9.48354 18.2569 9.29564C17.8052 9.10773 17.3208 9.011 16.8316 9.011C16.3424 9.011 15.858 9.10773 15.4064 9.29564C14.9547 9.48354 14.5446 9.7589 14.1997 10.1059C13.5298 10.7791 13.1248 11.6712 13.0589 12.6186C12.9955 13.5069 13.2769 14.4261 13.8528 15.2095L15.0079 16.7525C14.4162 16.571 14.0411 16.6934 13.7396 16.7917C13.4691 16.8802 13.2736 16.9439 12.8929 16.8264C12.5062 16.7071 12.3581 16.5278 12.1706 16.3008C11.9615 16.0477 11.7011 15.7323 11.1134 15.551C10.5195 15.3678 10.1434 15.4906 9.84134 15.5892C9.57064 15.6775 9.37538 15.7413 8.99475 15.6239C8.60803 15.5046 8.45991 15.3253 8.27243 15.0983C8.14938 14.9491 8.0077 14.7786 7.79258 14.6264L10.1486 11.4791C10.7229 10.6982 11.0042 9.77892 10.9407 8.89129C10.8749 7.94366 10.47 7.05145 9.8 6.37804C9.45513 6.03108 9.04506 5.75572 8.59338 5.56783C8.1417 5.37993 7.65732 5.2832 7.16811 5.2832C6.67891 5.2832 6.19453 5.37993 5.74285 5.56783C5.29117 5.75572 4.8811 6.03108 4.53623 6.37804C3.86639 7.05128 3.46144 7.94325 3.39552 8.89066C3.33206 9.77888 3.61348 10.6981 4.18938 11.4817L6.59691 14.6977C6.66026 14.7826 6.74175 14.8524 6.83545 14.9019C6.87949 14.9581 6.93968 14.9994 7.00793 15.0204C7.39464 15.1398 7.54276 15.3191 7.73025 15.5461C7.93939 15.7992 8.19972 16.1146 8.78746 16.2959C9.38139 16.4792 9.75743 16.3564 10.0596 16.2577C10.33 16.1693 10.5255 16.1055 10.9061 16.223C11.2928 16.3423 11.441 16.5216 11.6284 16.7486C11.8376 17.0017 12.0979 17.3171 12.6857 17.4984C13.2798 17.6817 13.6557 17.5589 13.9579 17.4602C14.2284 17.3719 14.4239 17.3082 14.8045 17.4255C15.1912 17.5449 15.3395 17.7244 15.527 17.9512C15.7362 18.2044 15.9965 18.5198 16.5843 18.7011C16.6427 18.7193 16.7049 18.7217 16.7645 18.7081C16.7866 18.7102 16.8089 18.7116 16.8313 18.7116C16.9423 18.7121 17.0518 18.6865 17.151 18.6368C17.2502 18.5871 17.3364 18.5148 17.4025 18.4257L19.8119 15.2072C20.3861 14.4263 20.6674 13.507 20.604 12.6194C20.5383 11.6717 20.1335 10.7794 19.4635 10.1059ZM7.1681 10.9011C6.70601 10.8995 6.25876 10.7378 5.90247 10.4435C5.54619 10.1493 5.30287 9.74066 5.21392 9.28721C5.12498 8.83376 5.19591 8.3635 5.41465 7.95646C5.63338 7.54941 5.9864 7.23074 6.41363 7.05467C6.84086 6.87859 7.3159 6.856 7.75792 6.99073C8.19993 7.12546 8.5816 7.40919 8.83798 7.79363C9.09436 8.17808 9.20961 8.63948 9.1641 9.09933C9.1186 9.55918 8.91516 9.98905 8.58841 10.3158C8.40214 10.5024 8.18069 10.6503 7.93689 10.7507C7.69309 10.8512 7.43179 10.9023 7.1681 10.9011ZM18.2517 14.0436C17.9229 14.3747 17.4894 14.5814 17.0253 14.6285C16.5611 14.6757 16.0949 14.5603 15.7063 14.3021C15.3177 14.0439 15.0307 13.6589 14.8943 13.2127C14.7579 12.7665 14.7805 12.2868 14.9583 11.8555C15.1361 11.4241 15.458 11.0678 15.8692 10.8473C16.2804 10.6268 16.7553 10.5558 17.213 10.6464C17.6707 10.737 18.0828 10.9836 18.379 11.3441C18.6751 11.7046 18.837 12.1567 18.8371 12.6233C18.8382 12.887 18.7871 13.1483 18.6866 13.3921C18.5862 13.6359 18.4383 13.8573 18.2517 14.0436Z" fill="white"/>
</g>
<defs>
<clipPath id="clip0_1403_38903">
<rect width="24" height="24" rx="4" fill="white"/>
</clipPath>
</defs>
</svg>
