<svg width="30" height="30" viewBox="0 0 30 30" fill="none" xmlns="http://www.w3.org/2000/svg">
<path d="M7.825 26.7351H7.5C6.32125 26.7351 5.7325 26.7351 5.36625 26.3688C5 26.0038 5 25.4151 5 24.2363V22.8463C5 22.1988 5 21.8751 5.16625 21.5851C5.3325 21.2963 5.58375 21.1501 6.08625 20.8576C9.39375 18.9338 14.0888 17.8513 17.2238 19.7201C17.4338 19.8463 17.6237 19.9988 17.7863 20.1801C17.9541 20.3641 18.0834 20.5798 18.1666 20.8146C18.2497 21.0494 18.285 21.2984 18.2703 21.5471C18.2556 21.7957 18.1913 22.0389 18.0811 22.2622C17.9709 22.4856 17.8171 22.6846 17.6287 22.8476C17.4785 22.9904 17.2951 23.0935 17.095 23.1476C17.245 23.1301 17.3888 23.1101 17.5262 23.0888C18.665 22.9076 19.6212 22.2976 20.4962 21.6363L22.7563 19.9301C23.1594 19.6368 23.6452 19.4788 24.1438 19.4788C24.6423 19.4788 25.1281 19.6368 25.5312 19.9301C26.2475 20.4713 26.4675 21.3626 26.0138 22.0901C25.485 22.9376 24.74 24.0213 24.025 24.6838C23.3087 25.3463 22.2425 25.9388 21.3725 26.3588C20.4075 26.8251 19.3425 27.0926 18.2588 27.2688C16.0613 27.6238 13.7713 27.5688 11.5963 27.1213C10.3554 26.8662 9.09185 26.736 7.825 26.7351ZM8.2325 3.2326C7.77375 3.69135 7.6025 4.32385 7.53875 5.3126C8.27149 5.30257 8.97138 5.00694 9.48943 4.48865C10.0075 3.97036 10.3028 3.27034 10.3125 2.5376C9.325 2.6026 8.69125 2.77385 8.2325 3.2326ZM21.7675 3.2326C21.3088 2.77385 20.6763 2.6026 19.6875 2.53885C19.6975 3.27159 19.9932 3.97147 20.5114 4.48953C21.0297 5.00759 21.7298 5.3029 22.4625 5.3126C22.3975 4.3251 22.2262 3.69135 21.7675 3.2326ZM21.7675 11.7676C21.3088 12.2263 20.6763 12.3976 19.6875 12.4613C19.6975 11.7286 19.9932 11.0287 20.5114 10.5107C21.0297 9.99261 21.7298 9.6973 22.4625 9.6876C22.3975 10.6751 22.2262 11.3088 21.7675 11.7676ZM8.2325 11.7676C8.69125 12.2263 9.32375 12.3976 10.3125 12.4613C10.3025 11.7286 10.0068 11.0287 9.48855 10.5107C8.97026 9.99261 8.27024 9.6973 7.5375 9.6876C7.6025 10.6751 7.77375 11.3088 8.2325 11.7676Z" fill="#727176"/>
<path fill-rule="evenodd" clip-rule="evenodd" d="M7.5 7.1875C8.7432 7.1875 9.93549 6.69364 10.8146 5.81456C11.6936 4.93549 12.1875 3.7432 12.1875 2.5H17.8125C17.8125 3.7432 18.3064 4.93549 19.1854 5.81456C20.0645 6.69364 21.2568 7.1875 22.5 7.1875V7.8125C21.2568 7.8125 20.0645 8.30636 19.1854 9.18544C18.3064 10.0645 17.8125 11.2568 17.8125 12.5H12.1875C12.1875 11.2568 11.6936 10.0645 10.8146 9.18544C9.93549 8.30636 8.7432 7.8125 7.5 7.8125V7.1875ZM15 8.75C15.3315 8.75 15.6495 8.6183 15.8839 8.38388C16.1183 8.14946 16.25 7.83152 16.25 7.5C16.25 7.16848 16.1183 6.85054 15.8839 6.61612C15.6495 6.3817 15.3315 6.25 15 6.25C14.6685 6.25 14.3505 6.3817 14.1161 6.61612C13.8817 6.85054 13.75 7.16848 13.75 7.5C13.75 7.83152 13.8817 8.14946 14.1161 8.38388C14.3505 8.6183 14.6685 8.75 15 8.75Z" fill="#727176"/>
</svg>
