<svg width="24" height="24" viewBox="0 0 24 24" fill="none" xmlns="http://www.w3.org/2000/svg">
<path d="M9.19922 2.3999C11.3992 2.3999 13.1992 4.1999 13.1992 6.3999C13.1992 8.5999 11.3992 10.3999 9.19922 10.3999C6.99922 10.3999 5.19922 8.5999 5.19922 6.3999C5.19922 4.1999 6.99922 2.3999 9.19922 2.3999ZM16.1992 19.3999L17.9992 21.1699C18.4992 21.6699 19.1992 21.2699 19.1992 20.6799V16.3999L21.9992 12.9999C22.1106 12.8513 22.1785 12.6747 22.1952 12.4897C22.2119 12.3047 22.1767 12.1188 22.0936 11.9527C22.0106 11.7866 21.8829 11.6469 21.725 11.5493C21.567 11.4516 21.3849 11.3999 21.1992 11.3999H14.1992C13.3992 11.3999 12.8992 12.3999 13.3992 12.9999L16.1992 16.3999V19.3999ZM14.1992 17.0999L11.8992 14.2999C11.4992 13.7999 11.2992 13.1999 11.2992 12.5999C10.5992 12.3999 9.89922 12.3999 9.19922 12.3999C4.79922 12.3999 1.19922 14.1999 1.19922 16.3999V18.3999H14.1992V17.0999Z" fill="url(#paint0_linear_966_44054)"/>
<defs>
<linearGradient id="paint0_linear_966_44054" x1="2.82422" y1="5.48688" x2="21.065" y2="6.31522" gradientUnits="userSpaceOnUse">
<stop stop-color="#322E80"/>
<stop offset="1" stop-color="#322E80" stop-opacity="0.7"/>
</linearGradient>
</defs>
</svg>
