<svg width="13" height="20" viewBox="0 0 13 20" fill="none" xmlns="http://www.w3.org/2000/svg">
<g clip-path="url(#clip0_1403_38931)">
<path d="M6.25 0C2.79312 0 0 2.79312 0 6.25C0 9.70687 3.125 14.375 6.25 20C9.375 14.375 12.5 9.70687 12.5 6.25C12.5 2.79312 9.70687 0 6.25 0ZM6.25 8.75C4.86312 8.75 3.75 7.63688 3.75 6.25C3.75 4.86312 4.86312 3.75 6.25 3.75C7.63688 3.75 8.75 4.86312 8.75 6.25C8.75 7.63688 7.63688 8.75 6.25 8.75Z" fill="black"/>
<path d="M6.25 0C2.79312 0 0 2.79312 0 6.25C0 9.70687 3.125 14.375 6.25 20C9.375 14.375 12.5 9.70687 12.5 6.25C12.5 2.79312 9.70687 0 6.25 0ZM6.25 8.75C4.86312 8.75 3.75 7.63688 3.75 6.25C3.75 4.86312 4.86312 3.75 6.25 3.75C7.63688 3.75 8.75 4.86312 8.75 6.25C8.75 7.63688 7.63688 8.75 6.25 8.75Z" fill="url(#paint0_linear_1403_38931)"/>
</g>
<defs>
<linearGradient id="paint0_linear_1403_38931" x1="0.967262" y1="3.25" x2="11.8401" y2="3.52916" gradientUnits="userSpaceOnUse">
<stop stop-color="#322E80"/>
<stop offset="1" stop-color="#322E80" stop-opacity="0.7"/>
</linearGradient>
<clipPath id="clip0_1403_38931">
<rect width="12.5" height="20" fill="white"/>
</clipPath>
</defs>
</svg>
