<svg width="24" height="24" viewBox="0 0 24 24" fill="none" xmlns="http://www.w3.org/2000/svg">
<g clip-path="url(#clip0_1403_38915)">
<rect width="30" height="30" fill="#817EB1"/>
<path d="M11.7791 7.26594C11.7791 6.96839 11.7205 6.67377 11.6067 6.39887C11.4928 6.12398 11.3259 5.8742 11.1155 5.66381C10.9051 5.45342 10.6554 5.28652 10.3805 5.17266C10.1056 5.05879 9.81094 5.00019 9.5134 5.00019H7.2949C6.99493 4.99633 6.69718 5.05208 6.41892 5.1642C6.14067 5.27633 5.88745 5.44259 5.67396 5.65335C5.46047 5.86411 5.29096 6.11517 5.17527 6.39196C5.05958 6.66875 5 6.96575 5 7.26575C5 7.56575 5.05958 7.86275 5.17527 8.13954C5.29096 8.41633 5.46047 8.66739 5.67396 8.87815C5.88745 9.08891 6.14067 9.25518 6.41892 9.3673C6.69718 9.47942 6.99493 9.53517 7.2949 9.53131H7.72915V10.6252C7.72915 10.6252 11.7791 10.0784 11.7791 7.26594ZM9.71665 13.2502C9.71665 14.0789 9.0454 14.7502 8.21665 14.7502C7.3879 14.7502 6.71665 14.0789 6.71665 13.2502C6.71665 12.4214 7.3879 11.7502 8.21665 11.7502C9.0454 11.7502 9.71665 12.4214 9.71665 13.2502ZM8.21665 15.5002C7.15277 15.5002 5.02915 16.0364 5.02915 17.1003V18.5002H11.4041V17.1003C11.4041 16.0361 9.28052 15.5002 8.21665 15.5002ZM15.3416 14.7502C16.1704 14.7502 16.8416 14.0789 16.8416 13.2502C16.8416 12.4214 16.1704 11.7502 15.3416 11.7502C14.5129 11.7502 13.8416 12.4214 13.8416 13.2502C13.8416 14.0789 14.5129 14.7502 15.3416 14.7502ZM15.3416 15.5002C14.2778 15.5002 12.1541 16.0364 12.1541 17.1003V18.5002H18.5291V17.1003C18.5291 16.0361 16.4055 15.5002 15.3416 15.5002ZM14.7949 5.37519C14.194 5.37519 13.6177 5.6139 13.1928 6.03881C12.7679 6.46372 12.5291 7.04002 12.5291 7.64094C12.5291 10.4534 16.1291 11.0002 16.1291 11.0002V9.90631H16.2634C16.5634 9.91017 16.8611 9.85442 17.1394 9.7423C17.4176 9.63018 17.6708 9.46391 17.8843 9.25315C18.0978 9.04239 18.2673 8.79133 18.383 8.51454C18.4987 8.23775 18.5583 7.94075 18.5583 7.64075C18.5583 7.34075 18.4987 7.04375 18.383 6.76696C18.2673 6.49017 18.0978 6.23911 17.8843 6.02835C17.6708 5.81759 17.4176 5.65133 17.1394 5.5392C16.8611 5.42708 16.5634 5.37133 16.2634 5.37519H14.7949Z" fill="white"/>
</g>
<defs>
<clipPath id="clip0_1403_38915">
<rect width="24" height="24" rx="4" fill="white"/>
</clipPath>
</defs>
</svg>
