<svg width="24" height="24" viewBox="0 0 24 24" fill="none" xmlns="http://www.w3.org/2000/svg">
<g clip-path="url(#clip0_1403_38897)">
<path fill-rule="evenodd" clip-rule="evenodd" d="M24 0H0V24H24V0ZM9 5C8.73478 5 8.48043 5.10536 8.29289 5.29289C8.10536 5.48043 8 5.73478 8 6C8 6.26522 8.10536 6.51957 8.29289 6.70711C8.48043 6.89464 8.73478 7 9 7H10C10.74 7 11.3865 7.402 11.7325 8H9C8.73478 8 8.48043 8.10536 8.29289 8.29289C8.10536 8.48043 8 8.73478 8 9C8 9.26522 8.10536 9.51957 8.29289 9.70711C8.48043 9.89464 8.73478 10 9 10H11.7325C11.557 10.3042 11.3045 10.5567 11.0003 10.7323C10.6962 10.9078 10.3512 11.0002 10 11H9C8.81896 11 8.6413 11.0491 8.48599 11.1421C8.33068 11.2352 8.20354 11.3686 8.11813 11.5282C8.03272 11.6879 7.99225 11.8677 8.00103 12.0485C8.00981 12.2293 8.06752 12.4044 8.168 12.555L12.168 18.555C12.3152 18.7757 12.544 18.9288 12.8041 18.9808C13.0642 19.0327 13.3343 18.9792 13.555 18.832C13.7757 18.6848 13.9288 18.456 13.9808 18.1959C14.0327 17.9358 13.9792 17.6657 13.832 17.445L10.8135 12.917C11.5449 12.7645 12.2191 12.4106 12.7599 11.8951C13.3007 11.3797 13.6866 10.7232 13.874 10H15C15.2652 10 15.5196 9.89464 15.7071 9.70711C15.8946 9.51957 16 9.26522 16 9C16 8.73478 15.8946 8.48043 15.7071 8.29289C15.5196 8.10536 15.2652 8 15 8H13.874C13.7838 7.64961 13.6462 7.31318 13.465 7H15C15.2652 7 15.5196 6.89464 15.7071 6.70711C15.8946 6.51957 16 6.26522 16 6C16 5.73478 15.8946 5.48043 15.7071 5.29289C15.5196 5.10536 15.2652 5 15 5H9Z" fill="#817EB1"/>
</g>
<defs>
<clipPath id="clip0_1403_38897">
<rect width="24" height="24" rx="4" fill="white"/>
</clipPath>
</defs>
</svg>
