<svg width="24" height="24" viewBox="0 0 24 24" fill="none" xmlns="http://www.w3.org/2000/svg">
<mask id="mask0_1363_3822" style="mask-type:luminance" maskUnits="userSpaceOnUse" x="3" y="3" width="18" height="19">
<path d="M20.9847 3H3.33398V21.2412H20.9847V3Z" fill="white"/>
</mask>
<g mask="url(#mask0_1363_3822)">
<path d="M7.30798 3C7.10786 3.00035 6.91135 3.04798 6.73809 3.1381C6.56483 3.22823 6.42089 3.35771 6.32065 3.5136L3.75998 7.512H11.586V3H7.30798ZM3.33398 8.58V19.9842C3.33398 20.3184 3.48148 20.6389 3.74403 20.8752C4.00659 21.1115 4.36268 21.2442 4.73398 21.2442H19.588C19.9593 21.2442 20.3154 21.1115 20.5779 20.8752C20.8405 20.6389 20.988 20.3184 20.988 19.9842V8.58H3.33398ZM14.856 13.3752L11.784 16.14C11.7289 16.1897 11.6634 16.2291 11.5913 16.2561C11.5193 16.283 11.442 16.2968 11.364 16.2968C11.286 16.2968 11.2087 16.283 11.1366 16.2561C11.0646 16.2291 10.9991 16.1897 10.944 16.14L9.50398 14.844C9.44791 14.7945 9.40329 14.7356 9.37269 14.6705C9.3421 14.6054 9.32615 14.5355 9.32575 14.4649C9.32535 14.3942 9.34052 14.3242 9.37038 14.2588C9.40025 14.1935 9.4442 14.1341 9.49972 14.0842C9.55523 14.0342 9.6212 13.9946 9.69381 13.9678C9.76642 13.9409 9.84423 13.9272 9.92274 13.9276C10.0013 13.9279 10.0789 13.9423 10.1512 13.9698C10.2235 13.9974 10.289 14.0375 10.344 14.088L11.364 15.006L14.0167 12.6186C14.0716 12.5681 14.1371 12.528 14.2094 12.5004C14.2817 12.4729 14.3594 12.4585 14.4379 12.4582C14.5164 12.4578 14.5942 12.4715 14.6668 12.4984C14.7394 12.5252 14.8054 12.5648 14.8609 12.6148C14.9164 12.6647 14.9604 12.7241 14.9903 12.7894C15.0201 12.8548 15.0353 12.9248 15.0349 12.9955C15.0345 13.0661 15.0185 13.136 14.9879 13.2011C14.9573 13.2662 14.9127 13.3251 14.8567 13.3746M18.0007 3.5124C17.9001 3.35656 17.7559 3.22721 17.5824 3.13728C17.4089 3.04736 17.2122 3.00002 17.012 3H12.774V7.512H20.5693L18.0007 3.5124Z" fill="#312B81"/>
</g>
</svg>
