<svg width="24" height="24" viewBox="0 0 24 24" fill="none" xmlns="http://www.w3.org/2000/svg">
<path d="M21.6004 4.56892C21.5994 4.07037 21.4546 3.59264 21.1976 3.2401C20.9406 2.88757 20.5924 2.6889 20.229 2.6875H3.77182C3.40841 2.6889 3.06017 2.88757 2.8032 3.2401C2.54623 3.59264 2.40141 4.07037 2.40039 4.56892V7.3915H21.6004V4.56892Z" fill="#312B81"/>
<path d="M2.40039 19.6001C2.40141 20.1046 2.54623 20.5881 2.8032 20.9448C3.06017 21.3016 3.40841 21.5027 3.77182 21.5041H20.229C20.5924 21.5027 20.9406 21.3016 21.1976 20.9448C21.4546 20.5881 21.5994 20.1046 21.6004 19.6001V10.0801H2.40039V19.6001ZM8.48631 16.7445H15.5145C15.6736 16.745 15.826 16.8329 15.9385 16.9891C16.051 17.1453 16.1143 17.357 16.1147 17.5778C16.1143 17.7987 16.051 18.0103 15.9385 18.1665C15.826 18.3227 15.6736 18.4106 15.5145 18.4111H8.48631C8.32723 18.4106 8.17476 18.3227 8.06228 18.1665C7.94979 18.0103 7.88645 17.7987 7.88611 17.5778C7.88645 17.357 7.94979 17.1453 8.06228 16.9891C8.17476 16.8329 8.32723 16.745 8.48631 16.7445ZM5.40075 16.7445H5.91706C6.07613 16.745 6.2286 16.8329 6.34109 16.9891C6.45357 17.1453 6.51692 17.357 6.51726 17.5778C6.51692 17.7987 6.45357 18.0103 6.34109 18.1665C6.2286 18.3227 6.07613 18.4106 5.91706 18.4111H5.4014C5.24232 18.4106 5.08985 18.3227 4.97737 18.1665C4.86488 18.0103 4.80154 17.7987 4.8012 17.5778C4.80154 17.357 4.86488 17.1453 4.97737 16.9891C5.08985 16.8329 5.24168 16.745 5.40075 16.7445Z" fill="#312B81"/>
</svg>
