<svg width="68" height="68" viewBox="0 0 68 68" fill="none" xmlns="http://www.w3.org/2000/svg">
<g filter="url(#filter0_d_966_43849)">
<circle cx="34" cy="30" r="22" fill="url(#paint0_linear_966_43849)" shape-rendering="crispEdges"/>
<circle cx="34" cy="30" r="21" stroke="white" stroke-width="2" shape-rendering="crispEdges"/>
</g>
<mask id="mask0_966_43849" style="mask-type:luminance" maskUnits="userSpaceOnUse" x="23" y="18" width="22" height="24">
<path d="M45 18H23V41.769H45V18Z" fill="white"/>
</mask>
<g mask="url(#mask0_966_43849)">
<path d="M30.391 18.0061C30.524 18.0077 30.6536 18.048 30.764 18.1221C30.8902 18.2117 30.9927 18.3308 31.0624 18.469C31.1321 18.6072 31.167 18.7603 31.164 18.915V18.9241C31.163 19.0002 31.1825 19.0752 31.2206 19.1412C31.2586 19.2072 31.3136 19.2617 31.38 19.2991C31.404 19.3132 31.4295 19.3246 31.456 19.3331C31.482 19.3421 31.5088 19.3484 31.536 19.3521H31.623C31.6376 19.3531 31.6521 19.3501 31.665 19.3431C31.6792 19.3407 31.6932 19.3374 31.707 19.3331L31.72 19.3251C31.728 19.3251 31.737 19.316 31.745 19.316C31.7573 19.3097 31.77 19.304 31.783 19.2991C31.8082 19.2855 31.832 19.2694 31.854 19.2511L31.882 19.2251C31.9218 19.185 31.9532 19.1373 31.9745 19.085C31.9958 19.0326 32.0065 18.9766 32.006 18.92V18.9111C32.0061 18.8296 32.0159 18.7483 32.035 18.6691C32.0857 18.444 32.2202 18.2467 32.411 18.1171C32.5209 18.0421 32.6509 18.002 32.784 18.002C32.9171 18.002 33.0471 18.0421 33.157 18.1171C33.2844 18.2062 33.3879 18.3252 33.4587 18.4636C33.5295 18.602 33.5653 18.7557 33.563 18.9111V18.92C33.5622 18.996 33.5818 19.0708 33.6198 19.1366C33.6578 19.2024 33.7128 19.2568 33.779 19.2941C33.8032 19.3081 33.8286 19.3199 33.855 19.3291C33.8811 19.3377 33.9079 19.344 33.935 19.3481H33.978C34.007 19.3495 34.0359 19.3464 34.064 19.3391C34.0782 19.3367 34.0922 19.3334 34.106 19.3291L34.12 19.321C34.128 19.321 34.137 19.3121 34.145 19.3121C34.184 19.2968 34.2205 19.2756 34.253 19.2491L34.281 19.2231C34.3211 19.1832 34.3529 19.1356 34.3744 19.0833C34.3958 19.0309 34.4066 18.9747 34.406 18.9181V18.91C34.4031 18.7551 34.438 18.602 34.5077 18.4636C34.5774 18.3253 34.6798 18.206 34.806 18.1161C34.9159 18.0411 35.0459 18.001 35.179 18.001C35.3121 18.001 35.4421 18.0411 35.552 18.1161C35.6781 18.2048 35.7809 18.3227 35.8516 18.4597C35.9223 18.5968 35.9588 18.7489 35.958 18.9031C35.958 18.9111 35.958 18.9111 35.958 18.9171C35.9566 19.0222 35.9943 19.1241 36.0637 19.203C36.1332 19.2819 36.2295 19.3322 36.334 19.3441H36.399C36.4516 19.3444 36.5038 19.3348 36.553 19.316H36.573C36.5827 19.3101 36.5931 19.3055 36.604 19.3021C36.617 19.2931 36.629 19.2881 36.64 19.2811C36.6994 19.2419 36.7481 19.1884 36.7815 19.1255C36.8148 19.0626 36.8319 18.9923 36.831 18.9211V18.9071C36.8298 18.753 36.8661 18.6008 36.9368 18.4639C37.0075 18.3269 37.1106 18.2093 37.237 18.1211C37.347 18.0459 37.4772 18.0056 37.6105 18.0056C37.7438 18.0056 37.874 18.0459 37.984 18.1211C38.1084 18.2092 38.2097 18.3261 38.2793 18.4617C38.349 18.5973 38.3849 18.7477 38.384 18.9001C38.3716 19.9533 37.9545 20.9612 37.219 21.7151H30.779C30.0435 20.9612 29.6264 19.9533 29.614 18.9001C29.613 18.7477 29.6489 18.5972 29.7185 18.4615C29.7882 18.3259 29.8895 18.2092 30.014 18.1211C30.1246 18.0474 30.2541 18.0071 30.387 18.0051L30.391 18.0061ZM31.262 22.5651H36.782V23.3201H31.262V22.5651ZM31.062 24.165H36.925C42.546 28.865 43.994 33.1191 43.994 36.2881V36.655C43.994 37.99 43.05 39.2551 41.386 40.2051C39.3469 41.2779 37.0686 41.815 34.765 41.7661H33.227C30.9234 41.8147 28.6452 41.2776 26.606 40.2051C24.943 39.2511 24 37.991 24 36.655V36.2881C24 33.1191 25.447 28.8641 31.068 24.1661L31.062 24.165ZM34.223 28.1931C33.133 28.1961 32.0684 28.522 31.1636 29.1298C30.2588 29.7375 29.5544 30.5997 29.1393 31.6075C28.7243 32.6154 28.6173 33.7237 28.8319 34.7924C29.0464 35.861 29.5728 36.8421 30.3447 37.6117C31.1165 38.3813 32.0991 38.9049 33.1684 39.1163C34.2377 39.3278 35.3456 39.2176 36.3523 38.7997C37.3589 38.3818 38.2191 37.6748 38.8242 36.7682C39.4293 35.8616 39.7522 34.796 39.752 33.7061C39.7523 33.6491 39.741 33.5926 39.719 33.54C39.6757 32.1102 39.0782 30.7534 38.0528 29.756C37.0274 28.7586 35.6545 28.1988 34.224 28.1951L34.223 28.1931ZM34.223 29.0411C35.2966 29.0438 36.3362 29.4182 37.1648 30.101C37.9934 30.7837 38.5598 31.7325 38.7677 32.7858C38.9756 33.8391 38.8121 34.9319 38.3051 35.8783C37.7981 36.8247 36.9788 37.5661 35.9867 37.9764C34.9946 38.3868 33.8909 38.4408 32.8635 38.1292C31.8361 37.8175 30.9484 37.1594 30.3515 36.267C29.7546 35.3746 29.4853 34.3029 29.5895 33.2344C29.6937 32.1658 30.1649 31.1664 30.923 30.4061C31.8005 29.5319 32.9893 29.0419 34.228 29.0441L34.223 29.0411ZM32.151 30.7611V30.7701H32.133V31.618H33.004C33.2894 31.5818 33.5785 31.6458 33.822 31.799C34.0654 31.9521 34.2482 32.1852 34.339 32.4581H32.156V33.3071H34.345C34.2539 33.5799 34.071 33.8126 33.8276 33.9657C33.5843 34.1188 33.2953 34.183 33.01 34.1471H32.139V34.7261L32.114 34.7521L32.139 34.7761V34.9971H32.364L34.979 37.5531L35.573 36.946L33.524 34.946C33.9361 34.8701 34.3165 34.6742 34.6175 34.3828C34.9185 34.0914 35.1268 33.7175 35.216 33.3081H36.375V32.4601H35.215C35.1454 32.1501 35.0066 31.8598 34.809 31.6111H36.374V30.7621L32.151 30.7611Z" fill="white"/>
</g>
<defs>
<filter id="filter0_d_966_43849" x="0" y="0" width="68" height="68" filterUnits="userSpaceOnUse" color-interpolation-filters="sRGB">
<feFlood flood-opacity="0" result="BackgroundImageFix"/>
<feColorMatrix in="SourceAlpha" type="matrix" values="0 0 0 0 0 0 0 0 0 0 0 0 0 0 0 0 0 0 127 0" result="hardAlpha"/>
<feOffset dy="4"/>
<feGaussianBlur stdDeviation="6"/>
<feComposite in2="hardAlpha" operator="out"/>
<feColorMatrix type="matrix" values="0 0 0 0 0.505882 0 0 0 0 0.494118 0 0 0 0 0.694118 0 0 0 0.5 0"/>
<feBlend mode="normal" in2="BackgroundImageFix" result="effect1_dropShadow_966_43849"/>
<feBlend mode="normal" in="SourceGraphic" in2="effect1_dropShadow_966_43849" result="shape"/>
</filter>
<linearGradient id="paint0_linear_966_43849" x1="15.4048" y1="15.15" x2="53.6378" y2="16.7206" gradientUnits="userSpaceOnUse">
<stop stop-color="#322E80"/>
<stop offset="1" stop-color="#322E80" stop-opacity="0.7"/>
</linearGradient>
</defs>
</svg>
