<svg width="66" height="54" viewBox="0 0 66 54" fill="none" xmlns="http://www.w3.org/2000/svg">
<g filter="url(#filter0_d_966_44061)">
<rect x="16" y="10" width="34" height="34" rx="4" fill="url(#paint0_linear_966_44061)" shape-rendering="crispEdges"/>
<rect x="16" y="10" width="34" height="34" rx="4" fill="url(#paint1_linear_966_44061)" shape-rendering="crispEdges"/>
<rect x="17" y="11" width="32" height="32" rx="3" stroke="white" stroke-width="2" shape-rendering="crispEdges"/>
</g>
<g clip-path="url(#clip0_966_44061)">
<path d="M37.6281 20.875C36.3907 19.6677 34.7289 18.9944 33.0001 19C31.1901 19 29.5541 19.718 28.3721 20.875C27.766 21.4626 27.2841 22.1659 26.9548 22.9432C26.6255 23.7204 26.4556 24.5559 26.4551 25.4C26.4551 27.27 28.2721 29.774 29.4551 31L33.0001 35L36.4551 31C37.6381 29.773 39.5461 27.27 39.5461 25.4C39.5452 24.5559 39.3749 23.7205 39.0455 22.9432C38.7161 22.166 38.2341 21.4627 37.6281 20.875ZM33.0001 27.727C32.7133 27.7276 32.4292 27.6715 32.1642 27.5619C31.8992 27.4524 31.6584 27.2916 31.4556 27.0888C31.2529 26.8859 31.0922 26.6451 30.9828 26.38C30.8734 26.1149 30.8174 25.8308 30.8181 25.544C30.8181 24.337 31.7921 23.363 33.0001 23.363C34.2081 23.363 35.1821 24.337 35.1821 25.544C35.1827 25.8308 35.1268 26.1149 35.0173 26.38C34.9079 26.6451 34.7473 26.8859 34.5445 27.0888C34.3418 27.2916 34.101 27.4524 33.8359 27.5619C33.5709 27.6715 33.2869 27.7276 33.0001 27.727Z" fill="#827FB2"/>
</g>
<defs>
<filter id="filter0_d_966_44061" x="0" y="0" width="66" height="66" filterUnits="userSpaceOnUse" color-interpolation-filters="sRGB">
<feFlood flood-opacity="0" result="BackgroundImageFix"/>
<feColorMatrix in="SourceAlpha" type="matrix" values="0 0 0 0 0 0 0 0 0 0 0 0 0 0 0 0 0 0 127 0" result="hardAlpha"/>
<feMorphology radius="4" operator="dilate" in="SourceAlpha" result="effect1_dropShadow_966_44061"/>
<feOffset dy="6"/>
<feGaussianBlur stdDeviation="6"/>
<feComposite in2="hardAlpha" operator="out"/>
<feColorMatrix type="matrix" values="0 0 0 0 0 0 0 0 0 0 0 0 0 0 0 0 0 0 0.1 0"/>
<feBlend mode="normal" in2="BackgroundImageFix" result="effect1_dropShadow_966_44061"/>
<feBlend mode="normal" in="SourceGraphic" in2="effect1_dropShadow_966_44061" result="shape"/>
</filter>
<linearGradient id="paint0_linear_966_44061" x1="18.176" y1="14.794" x2="65.946" y2="79.564" gradientUnits="userSpaceOnUse">
<stop stop-color="#E5E3FF" stop-opacity="0.122"/>
<stop offset="1" stop-color="#6053FF" stop-opacity="0.133"/>
</linearGradient>
<linearGradient id="paint1_linear_966_44061" x1="18.176" y1="14.794" x2="65.946" y2="79.564" gradientUnits="userSpaceOnUse">
<stop stop-color="#E5E3FF" stop-opacity="0.122"/>
<stop offset="1" stop-color="#6053FF" stop-opacity="0.133"/>
</linearGradient>
<clipPath id="clip0_966_44061">
<rect width="16" height="16" fill="white" transform="translate(25 19)"/>
</clipPath>
</defs>
</svg>
