<svg width="143" height="150" viewBox="0 0 143 150" fill="none" xmlns="http://www.w3.org/2000/svg">
<g opacity="0.3" clip-path="url(#clip0_1403_38934)">
<path opacity="0.11" d="M46.4065 142.829C31.1218 135.082 3.4433 133.547 5.9526 84.609C8.46191 35.6707 75.3298 34.045 83.0854 9.8543C90.8409 -14.3363 172.457 6.58874 124.162 66.2662C115.61 76.8335 135.685 88.5657 132.172 107.793C128.659 127.02 61.6913 150.575 46.4065 142.829Z" fill="#2A94F4"/>
<path opacity="0.11" d="M76.2131 150C106.425 150 130.916 146.236 130.916 141.594C130.916 136.951 106.425 133.188 76.2131 133.188C46.0013 133.188 21.5098 136.951 21.5098 141.594C21.5098 146.236 46.0013 150 76.2131 150Z" fill="#2A94F4"/>
<path d="M117.566 140.497H31.1927C29.3517 140.497 27.8594 139.005 27.8594 137.164V18.0804C27.8594 16.2394 29.3517 14.7471 31.1927 14.7471H117.566C119.407 14.7471 120.9 16.2394 120.9 18.0804V137.164C120.9 139.005 119.407 140.497 117.566 140.497Z" fill="#E10000" fill-opacity="0.33"/>
<path d="M113.428 135.97H35.3333C33.4924 135.97 32 134.477 32 132.636V22.6087C32 20.7678 33.4924 19.2754 35.3333 19.2754H113.428C115.269 19.2754 116.761 20.7678 116.761 22.6087V132.636C116.761 134.477 115.269 135.97 113.428 135.97Z" fill="#F7F7F7"/>
<path opacity="0.11" d="M43.1445 34.998H55.0234V46.8769H43.1445V34.998Z" fill="#2A94F4"/>
<path d="M42.543 38.3826C43.1459 38.69 43.7037 39.0397 44.2476 39.4026C44.7881 39.7685 45.316 40.1464 45.8244 40.5425C46.8467 41.3294 47.811 42.171 48.7351 43.0501L46.6848 43.2018C46.9758 42.7383 47.2845 42.2862 47.6102 41.8464C47.9284 41.4094 48.2642 40.9873 48.6105 40.573C49.307 39.748 50.052 38.9612 50.8621 38.2354C51.6766 37.5137 52.5438 36.8422 53.4877 36.2732C54.4376 35.7158 55.4495 35.2292 56.5417 34.998C55.8421 35.8683 55.1878 36.6712 54.5463 37.4855L52.6531 39.9164C52.0258 40.7231 51.3949 41.5271 50.7605 42.3283L48.8577 44.7072L47.7937 46.0374L46.8073 44.859C45.9887 43.881 45.2102 42.8651 44.4898 41.7949C44.1267 41.2624 43.7832 40.7115 43.4526 40.1487C43.1249 39.5829 42.8113 39.0039 42.543 38.3826Z" fill="#3A3486"/>
<path opacity="0.11" d="M43.1445 69.8164H55.0234V81.6953H43.1445V69.8164ZM43.1445 105.523H55.0234V117.401H43.1445V105.523Z" fill="#2A94F4"/>
<g opacity="0.52">
<path d="M60.3691 34.998H106.959V36.9107H60.3691V34.998ZM60.3691 39.9812H106.959V41.8939H60.3691V39.9812ZM80.7304 44.9643H106.959V46.8769H60.3691V44.9643H80.7304Z" fill="#2A94F4"/>
</g>
<g opacity="0.52">
<path d="M60.3691 69.8164H106.959V71.729H60.3691V69.8164ZM60.3691 74.7995H106.959V76.7121H60.3691V74.7995ZM60.3691 79.7825H82.5705V81.6952H60.3691V79.7825Z" fill="#2A94F4"/>
</g>
<g opacity="0.52">
<path d="M60.3691 105.522H106.959V107.435H60.3691V105.522ZM60.3691 110.506H105.071V112.418H60.3691V110.506ZM60.3691 115.489H106.959V117.401H60.3691V115.489Z" fill="#2A94F4"/>
</g>
<path d="M94.9096 20.8784H53.8496V11.9495C53.8496 10.1086 55.342 8.61621 57.1829 8.61621H91.5763C93.4172 8.61621 94.9096 10.1086 94.9096 11.9495V20.8784Z" fill="#3A3486"/>
<path d="M59.3184 122.247H99.3003V146.571H59.3184V122.247ZM99.3003 122.247H59.3184L62.5945 114.908H96.0243L99.3003 122.247Z" fill="#3A3486"/>
<path opacity="0.11" d="M59.3184 122.247H99.3003V146.571H59.3184V122.247Z" fill="#3A3486"/>
<path d="M73.1054 81.2064C73.1054 81.2064 63.7693 91.7566 63.1013 95.2872C62.4334 98.8179 71.5625 114.423 71.5625 114.423L67.3206 117.38L75.7855 116.57C75.7855 116.57 72.2231 103.615 70.1983 99.2036C72.9216 97.3571 79.4813 90.1293 79.4813 90.1293L85.5659 104.306L88.1888 120.506L95.2208 122.575L91.1157 118.121C91.8432 106.215 91.8297 106.212 92.362 102.573C92.8711 99.0934 89.8526 86.4738 88.9616 82.4521C88.0708 78.4306 75.7383 79.5511 73.1054 81.2064Z" fill="#E10000" fill-opacity="0.33"/>
<path d="M70.988 49.6077C71.1134 50.0831 74.0748 62.5753 74.0748 62.5753C74.0748 62.5753 71.3832 63.893 70.2661 62.3846C69.149 60.8763 68.7754 49.4502 68.7754 49.4502L70.988 49.6077Z" fill="#FCD2B1"/>
<path d="M70.5064 47.1329C70.5064 47.1329 68.8779 45.7272 68.3735 46.7821C67.8691 47.8371 68.7578 48.9593 68.7759 49.4496C68.7939 49.9399 70.9885 49.6071 70.9885 49.6071C70.9885 49.6071 71.552 48.0113 70.5064 47.1329Z" fill="#FCD2B1"/>
<path d="M71.5271 49.2071L54.2884 42.7559C54.2884 42.7559 52.7375 44.4863 53.285 46.5545L70.7706 50.5385C70.7706 50.5385 71.6911 50.7652 71.5271 49.2071Z" fill="#3A3486"/>
<path d="M81.3289 57.7268L79.8242 61.7411C79.8242 61.7411 80.0081 63.644 82.0902 63.6832C84.1723 63.7223 84.5189 62.5186 84.5189 62.5186L84.1755 57.7562C84.1756 57.7564 82.2185 57.214 81.3289 57.7268ZM68.1812 60.8418L66.1135 60.4301L64.5273 51.7155L66.4978 49.5723L65.0796 49.164C65.0796 49.164 65.361 47.4091 65.1516 46.5044C64.942 45.5998 64.3471 45.3716 62.8666 45.9544C62.086 46.4073 61.4692 49.2266 62.2106 50.8251C62.952 52.4237 62.8782 62.4832 62.7244 64.1C62.5705 65.7168 67.0723 66.7637 67.0723 66.7637C67.0723 66.7637 69.2259 67.0603 69.9305 64.806C70.6351 62.5516 68.1812 60.8418 68.1812 60.8418Z" fill="#FCD2B1"/>
<path d="M81.6061 61.0471C79.9544 60.7197 77.9931 60.5779 75.7747 60.8526C71.8087 61.0096 68.1811 60.8419 68.1811 60.8419C68.1811 60.8419 66.5873 63.6215 67.0723 66.7637C67.0723 66.7637 71.0248 69.1811 74.8315 69.3333C75.2662 71.1182 74.5865 79.1926 73.107 81.2068C74.2206 82.9353 83.5772 84.9766 88.9633 82.4526C89.8786 80.6739 88.9508 73.0934 88.1988 68.0598C87.6784 64.5754 85.0622 61.7323 81.6061 61.0471Z" fill="#3A3486"/>
<path d="M80.6622 51.1414C80.6622 51.1414 77.6761 54.7923 78.0267 56.1946C78.3775 57.597 80.0586 58.9019 84.0435 59.3441C85.4113 59.1391 86.9249 55.0544 86.8903 54.1996C86.664 48.6055 82.1314 50.1978 80.6622 51.1414Z" fill="#FFE3CA"/>
<path d="M84.3827 53.1642C84.3827 53.1642 79.1677 52.3219 78.6599 49.6876C78.1523 47.0533 82.4089 45.6997 84.2962 46.5233C85.1 46.8742 85.5062 47.4896 85.9789 48.1815C86.5107 48.9599 87.1696 49.2228 88.0184 49.6728C88.2916 49.8176 88.5663 49.9636 88.8099 50.1542C90.1252 51.1836 89.6584 52.4061 89.4363 53.784C89.223 55.1079 89.0171 56.4701 88.1485 57.5478C86.6378 59.4215 84.1059 59.1307 84.1757 57.7555C84.2453 56.3808 85.7877 53.4899 84.3827 53.1642ZM71.5639 114.423C71.5639 114.423 74.1114 114.374 75.0812 114.096C75.5155 115.596 75.7871 116.57 75.7871 116.57L67.3223 117.379L71.5639 114.423ZM87.7366 117.538C88.956 118.244 91.1174 118.121 91.1174 118.121L95.2225 122.575L88.1905 120.342L87.7366 117.538Z" fill="#0B4870"/>
<path d="M54.2895 42.7559L49.543 43.0606L53.2862 46.5545L54.2895 46.7831L53.2652 45.5281L54.8545 45.6117L53.6834 44.357L55.4817 44.3988L54.0598 43.437L55.6414 43.2618L54.2895 42.7559Z" fill="#FFE3CA"/>
<path d="M51.8808 42.9102C51.8808 42.9102 51.9535 44.2661 51.2082 44.6146L49.543 43.0602L51.8808 42.9102Z" fill="#3A3486"/>
<path d="M70.8311 48.9454C70.8311 48.9454 69.2104 49.3913 67.4539 48.764C65.6973 48.1366 67.5476 46.1445 68.7764 46.2833C70.0051 46.4219 71.6376 47.5234 70.8311 48.9454Z" fill="#FAB9AF"/>
</g>
<defs>
<clipPath id="clip0_1403_38934">
<rect width="143" height="150" fill="white"/>
</clipPath>
</defs>
</svg>
