<svg width="68" height="68" viewBox="0 0 68 68" fill="none" xmlns="http://www.w3.org/2000/svg">
<g filter="url(#filter0_d_966_36742)">
<circle cx="34" cy="30" r="22" fill="url(#paint0_linear_966_36742)" shape-rendering="crispEdges"/>
<circle cx="34" cy="30" r="21" stroke="white" stroke-width="2" shape-rendering="crispEdges"/>
</g>
<g clip-path="url(#clip0_966_36742)">
<path d="M41.3381 24.901C41.2783 23.0134 40.472 21.2267 39.0963 19.9329C37.7206 18.6391 35.8878 17.9439 34.0001 18C32.1126 17.9439 30.2799 18.6389 28.9042 19.9325C27.5285 21.2261 26.7222 23.0126 26.6621 24.9C26.6621 28.711 34.0001 38.346 34.0001 38.346C34.0001 38.346 41.3381 28.712 41.3381 24.901ZM29.2141 24.901C29.2533 23.67 29.7792 22.5049 30.6765 21.6612C31.5738 20.8176 32.7691 20.3643 34.0001 20.401C35.2312 20.3643 36.4265 20.8176 37.3237 21.6612C38.221 22.5049 38.7469 23.67 38.7861 24.901C38.7469 26.1319 38.221 27.2971 37.3237 28.1407C36.4265 28.9844 35.2312 29.4376 34.0001 29.401C32.7691 29.4376 31.5738 28.9844 30.6765 28.1407C29.7792 27.2971 29.2533 26.1319 29.2141 24.901Z" fill="white"/>
<path d="M37.69 34.124C37.14 34.968 36.605 35.748 36.135 36.416C38.129 36.671 39.525 37.271 39.525 37.976C39.525 38.906 37.052 39.664 33.998 39.664C30.944 39.664 28.471 38.914 28.471 37.976C28.471 37.267 29.871 36.667 31.865 36.416C31.394 35.748 30.865 34.965 30.31 34.116C25.49 34.63 22 36.157 22 37.961C22 40.193 27.372 42 34 42C40.628 42 46 40.192 46 37.961C46 36.157 42.514 34.63 37.69 34.124Z" fill="white"/>
</g>
<defs>
<filter id="filter0_d_966_36742" x="0" y="0" width="68" height="68" filterUnits="userSpaceOnUse" color-interpolation-filters="sRGB">
<feFlood flood-opacity="0" result="BackgroundImageFix"/>
<feColorMatrix in="SourceAlpha" type="matrix" values="0 0 0 0 0 0 0 0 0 0 0 0 0 0 0 0 0 0 127 0" result="hardAlpha"/>
<feOffset dy="4"/>
<feGaussianBlur stdDeviation="6"/>
<feComposite in2="hardAlpha" operator="out"/>
<feColorMatrix type="matrix" values="0 0 0 0 0.505882 0 0 0 0 0.494118 0 0 0 0 0.694118 0 0 0 0.5 0"/>
<feBlend mode="normal" in2="BackgroundImageFix" result="effect1_dropShadow_966_36742"/>
<feBlend mode="normal" in="SourceGraphic" in2="effect1_dropShadow_966_36742" result="shape"/>
</filter>
<linearGradient id="paint0_linear_966_36742" x1="15.4048" y1="15.15" x2="53.6378" y2="16.7206" gradientUnits="userSpaceOnUse">
<stop stop-color="#322E80"/>
<stop offset="1" stop-color="#322E80" stop-opacity="0.7"/>
</linearGradient>
<clipPath id="clip0_966_36742">
<rect width="24" height="24" fill="white" transform="translate(22 18)"/>
</clipPath>
</defs>
</svg>
