<svg width="22" height="22" viewBox="0 0 22 22" fill="none" xmlns="http://www.w3.org/2000/svg">
<circle cx="11" cy="11" r="11" fill="#1677FF"/>
<path d="M16.4999 11.9148H11.9166V16.4982C11.9166 16.7413 11.82 16.9745 11.6481 17.1464C11.4762 17.3183 11.243 17.4148 10.9999 17.4148C10.7568 17.4148 10.5236 17.3183 10.3517 17.1464C10.1798 16.9745 10.0833 16.7413 10.0833 16.4982V11.9148H5.49992C5.2568 11.9148 5.02365 11.8183 4.85174 11.6464C4.67983 11.4745 4.58325 11.2413 4.58325 10.9982C4.58325 10.7551 4.67983 10.5219 4.85174 10.35C5.02365 10.1781 5.2568 10.0815 5.49992 10.0815H10.0833V5.49818C10.0833 5.25506 10.1798 5.02191 10.3517 4.85C10.5236 4.67809 10.7568 4.58151 10.9999 4.58151C11.243 4.58151 11.4762 4.67809 11.6481 4.85C11.82 5.02191 11.9166 5.25506 11.9166 5.49818V10.0815H16.4999C16.743 10.0815 16.9762 10.1781 17.1481 10.35C17.32 10.5219 17.4166 10.7551 17.4166 10.9982C17.4166 11.2413 17.32 11.4745 17.1481 11.6464C16.9762 11.8183 16.743 11.9148 16.4999 11.9148Z" fill="white"/>
</svg>
