<svg width="15" height="20" viewBox="0 0 15 20" fill="none" xmlns="http://www.w3.org/2000/svg">
<g clip-path="url(#clip0_11778_3536)">
<path d="M14.423 3.30158H12.039V3.96209H13.2C13.2497 3.96298 13.2987 3.97361 13.3442 3.99336C13.3897 4.01311 13.4307 4.04159 13.4649 4.07714C13.4992 4.11269 13.5259 4.1546 13.5436 4.20045C13.5613 4.24629 13.5696 4.29515 13.568 4.34418V18.2169C13.5694 18.2652 13.5608 18.3133 13.5428 18.3583C13.5249 18.4032 13.4979 18.4441 13.4635 18.4785C13.4292 18.5129 13.3881 18.5401 13.3428 18.5584C13.2975 18.5768 13.2489 18.5859 13.2 18.5852H1.8C1.75106 18.5859 1.70248 18.5768 1.65719 18.5584C1.6119 18.5401 1.57083 18.5129 1.53645 18.4785C1.50208 18.4441 1.4751 18.4032 1.45715 18.3583C1.4392 18.3133 1.43065 18.2652 1.432 18.2169V4.34418C1.4304 4.29515 1.43869 4.24629 1.45638 4.20045C1.47407 4.1546 1.50082 4.11269 1.53506 4.07714C1.5693 4.04159 1.61035 4.01311 1.65583 3.99336C1.70131 3.97361 1.75032 3.96298 1.8 3.96209H3.009V3.30158H0.578003C0.424091 3.30714 0.278233 3.37092 0.170639 3.47973C0.0630446 3.58853 0.00195042 3.73402 0 3.88607V19.4293C0.00130572 19.5803 0.0626239 19.7247 0.170738 19.8314C0.278852 19.9382 0.425112 19.9987 0.578003 20H14.423C14.5759 19.9987 14.7221 19.9382 14.8303 19.8314C14.9384 19.7247 14.9997 19.5803 15.001 19.4293V3.88705C14.9993 3.73483 14.9383 3.5891 14.8307 3.48008C14.7231 3.37107 14.5771 3.30715 14.423 3.30158ZM7.74 0H7.281C6.99706 0.00388394 6.72487 0.112528 6.51797 0.304558C6.31108 0.496589 6.18445 0.758104 6.163 1.03766H8.858C8.83722 0.757858 8.7108 0.495954 8.50375 0.30379C8.29671 0.111625 8.02414 0.00320733 7.74 0Z" fill="#817EB1"/>
<path d="M11.2762 3.08037C11.2738 2.78681 11.1541 2.50607 10.943 2.29932C10.7319 2.09257 10.4466 1.97655 10.1492 1.97656H4.87921C4.73323 1.97654 4.58872 2.00521 4.45407 2.0609C4.31943 2.11658 4.19735 2.19818 4.09497 2.30092C3.99259 2.40365 3.91194 2.52549 3.85773 2.65931C3.80352 2.79313 3.77683 2.93626 3.77922 3.08037V4.71241H11.2792L11.2762 3.08037ZM3.01122 4.90098H2.19922V18.0145H12.8052V4.90098H12.0412V5.10832C12.0401 5.15707 12.0291 5.20511 12.0089 5.24963C11.9888 5.29415 11.9598 5.33426 11.9238 5.36762C11.8878 5.40098 11.8454 5.42692 11.7991 5.44394C11.7528 5.46095 11.7036 5.4687 11.6542 5.46672H3.37521C3.32709 5.46837 3.27914 5.46023 3.23434 5.4428C3.18955 5.42538 3.14885 5.39903 3.11481 5.36542C3.08076 5.3318 3.05409 5.29164 3.03644 5.24741C3.01879 5.20318 3.01055 5.15583 3.01222 5.10832L3.01122 4.90098ZM6.48921 7.92018H5.13722C5.03591 7.92018 4.93875 7.88045 4.86711 7.80972C4.79547 7.73899 4.75522 7.64306 4.75522 7.54303C4.75522 7.44301 4.79547 7.34707 4.86711 7.27634C4.93875 7.20561 5.03591 7.16588 5.13722 7.16588H9.86221C9.96353 7.16588 10.0607 7.20561 10.1323 7.27634C10.204 7.34707 10.2442 7.44301 10.2442 7.54303C10.2442 7.64306 10.204 7.73899 10.1323 7.80972C10.0607 7.88045 9.96353 7.92018 9.86221 7.92018H8.24722C8.58544 8.2692 8.80286 8.71512 8.86823 9.19382H9.86221C9.96353 9.19382 10.0607 9.23355 10.1323 9.30428C10.204 9.37501 10.2442 9.47095 10.2442 9.57098C10.2442 9.671 10.204 9.76693 10.1323 9.83766C10.0607 9.90839 9.96353 9.94813 9.86221 9.94813H8.86823C8.77598 10.5042 8.48559 11.0094 8.04939 11.3727C7.6132 11.736 7.05988 11.9335 6.48921 11.9297H6.09921L8.77922 14.4295C8.85112 14.4988 8.89252 14.5932 8.89445 14.6923C8.89639 14.7914 8.8587 14.8873 8.78955 14.9592C8.7204 15.0312 8.62534 15.0733 8.52496 15.0765C8.42459 15.0797 8.32697 15.0438 8.25322 14.9765L4.87521 11.826C4.82007 11.7736 4.78197 11.7061 4.76575 11.6323C4.74952 11.5584 4.75591 11.4814 4.7841 11.4112C4.8123 11.3409 4.86102 11.2805 4.92407 11.2376C4.98713 11.1947 5.06166 11.1714 5.13821 11.1704H6.49022C6.85755 11.1728 7.21503 11.0531 7.5052 10.8307C7.79538 10.6083 8.00142 10.2961 8.09023 9.94418H5.13722C5.03591 9.94418 4.93875 9.90444 4.86711 9.83371C4.79547 9.76298 4.75522 9.66706 4.75522 9.56703C4.75522 9.467 4.79547 9.37107 4.86711 9.30034C4.93875 9.22961 5.03591 9.18987 5.13722 9.18987H8.09023C8.01184 8.82879 7.80984 8.5054 7.51823 8.27415C7.22663 8.04289 6.86323 7.91788 6.48921 7.92018ZM4.18922 16.1277H10.8062C10.9075 16.1277 11.0047 16.1675 11.0763 16.2382C11.148 16.3089 11.1882 16.4048 11.1882 16.5049C11.1882 16.6049 11.148 16.7008 11.0763 16.7716C11.0047 16.8423 10.9075 16.882 10.8062 16.882H4.18922C4.08791 16.882 3.99074 16.8423 3.9191 16.7716C3.84746 16.7008 3.80722 16.6049 3.80722 16.5049C3.80722 16.4048 3.84746 16.3089 3.9191 16.2382C3.99074 16.1675 4.08791 16.1277 4.18922 16.1277Z" fill="#817EB1"/>
</g>
<defs>
<clipPath id="clip0_11778_3536">
<rect width="15.002" height="20" fill="white"/>
</clipPath>
</defs>
</svg>
