<svg width="29" height="29" viewBox="0 0 29 29" fill="none" xmlns="http://www.w3.org/2000/svg">
<g clip-path="url(#clip0_128_297)">
<path d="M27.1875 2.71558L19.9312 2.71561V0.909454C19.9312 0.408751 19.5256 0.00320435 19.0249 0.00320435C18.5242 0.00320435 18.1187 0.408751 18.1187 0.909454V2.71516H10.8687V0.909454C10.8687 0.408751 10.4631 0.00320435 9.96241 0.00320435C9.4617 0.00320435 9.05616 0.408751 9.05616 0.909454V2.71516H1.8125C0.811547 2.71516 0 3.5267 0 4.52766V27.1839C0 28.1848 0.811547 28.9964 1.8125 28.9964H27.1875C28.1885 28.9964 29 28.1848 29 27.1839V4.52766C29 3.52713 28.1885 2.71558 27.1875 2.71558ZM27.1875 27.1839H1.8125V4.52766H9.05616V5.4407C9.05616 5.94138 9.4617 6.34695 9.96241 6.34695C10.4631 6.34695 10.8687 5.94138 10.8687 5.4407V4.52811H18.1187V5.44116C18.1187 5.94186 18.5242 6.34741 19.0249 6.34741C19.5256 6.34741 19.9312 5.94186 19.9312 5.44116V4.52811H27.1875V27.1839ZM20.8438 14.4968H22.6562C23.1565 14.4968 23.5625 14.0908 23.5625 13.5906V11.7781C23.5625 11.2778 23.1565 10.8718 22.6562 10.8718H20.8438C20.3435 10.8718 19.9375 11.2778 19.9375 11.7781V13.5906C19.9375 14.0908 20.3435 14.4968 20.8438 14.4968ZM20.8438 21.7464H22.6562C23.1565 21.7464 23.5625 21.3408 23.5625 20.8401V19.0276C23.5625 18.5274 23.1565 18.1214 22.6562 18.1214H20.8438C20.3435 18.1214 19.9375 18.5274 19.9375 19.0276V20.8401C19.9375 21.3413 20.3435 21.7464 20.8438 21.7464ZM15.4062 18.1214H13.5938C13.0935 18.1214 12.6875 18.5274 12.6875 19.0276V20.8401C12.6875 21.3408 13.0935 21.7464 13.5938 21.7464H15.4062C15.9065 21.7464 16.3125 21.3408 16.3125 20.8401V19.0276C16.3125 18.5278 15.9065 18.1214 15.4062 18.1214ZM15.4062 10.8718H13.5938C13.0935 10.8718 12.6875 11.2778 12.6875 11.7781V13.5906C12.6875 14.0908 13.0935 14.4968 13.5938 14.4968H15.4062C15.9065 14.4968 16.3125 14.0908 16.3125 13.5906V11.7781C16.3125 11.2774 15.9065 10.8718 15.4062 10.8718ZM8.15625 10.8718H6.34375C5.8435 10.8718 5.4375 11.2778 5.4375 11.7781V13.5906C5.4375 14.0908 5.8435 14.4968 6.34375 14.4968H8.15625C8.6565 14.4968 9.0625 14.0908 9.0625 13.5906V11.7781C9.0625 11.2774 8.6565 10.8718 8.15625 10.8718ZM8.15625 18.1214H6.34375C5.8435 18.1214 5.4375 18.5274 5.4375 19.0276V20.8401C5.4375 21.3408 5.8435 21.7464 6.34375 21.7464H8.15625C8.6565 21.7464 9.0625 21.3408 9.0625 20.8401V19.0276C9.0625 18.5278 8.6565 18.1214 8.15625 18.1214Z" fill="white"/>
</g>
<defs>
<clipPath id="clip0_128_297">
<rect width="29" height="29" fill="white"/>
</clipPath>
</defs>
</svg>
