<svg width="32" height="31" viewBox="0 0 32 31" fill="none" xmlns="http://www.w3.org/2000/svg">
<path id="Vector" d="M9.25 30.8333C8.40208 30.8333 7.67596 30.5312 7.07162 29.9268C6.46729 29.3225 6.16564 28.5969 6.16667 27.75C6.16667 26.9021 6.46883 26.176 7.07317 25.5716C7.6775 24.9673 8.40311 24.6656 9.25 24.6667C10.0979 24.6667 10.824 24.9688 11.4284 25.5732C12.0327 26.1775 12.3344 26.9031 12.3333 27.75C12.3333 28.5979 12.0312 29.324 11.4268 29.9284C10.8225 30.5327 10.0969 30.8344 9.25 30.8333ZM24.6667 30.8333C23.8187 30.8333 23.0926 30.5312 22.4883 29.9268C21.884 29.3225 21.5823 28.5969 21.5833 27.75C21.5833 26.9021 21.8855 26.176 22.4898 25.5716C23.0942 24.9673 23.8198 24.6656 24.6667 24.6667C25.5146 24.6667 26.2407 24.9688 26.845 25.5732C27.4494 26.1775 27.751 26.9031 27.75 27.75C27.75 28.5979 27.4478 29.324 26.8435 29.9284C26.2392 30.5327 25.5136 30.8344 24.6667 30.8333ZM7.93958 6.16667L11.6396 13.875H22.4312L26.6708 6.16667H7.93958ZM4.04687 23.125L8.63333 14.8L3.08333 3.08333H0V0H5.01042L6.475 3.08333H31.9125L24.2427 16.9583H10.9458L9.25 20.0417H27.75V23.125H4.04687Z" fill="black"/>
</svg>
