<svg width="50" height="50" viewBox="0 0 50 50" fill="none" xmlns="http://www.w3.org/2000/svg">
<g id="solar:bag-bold-duotone" opacity="0.8">
<g id="Group">
<path id="Vector" d="M8.50764 22.6958C9.42222 17.8208 9.87847 15.3812 11.6139 13.9396C13.3514 12.5 15.8306 12.5 20.7931 12.5H29.2097C34.1743 12.5 36.6535 12.5 38.391 13.9396C40.1264 15.3812 40.5826 17.8187 41.4972 22.6958L43.0597 31.0292C44.3451 37.8875 44.9889 41.3167 43.1139 43.575C41.2389 45.8333 37.7514 45.8333 30.7743 45.8333H19.2306C12.2535 45.8333 8.76389 45.8333 6.89097 43.575C5.01597 41.3167 5.65972 37.8875 6.94514 31.0292L8.50764 22.6958Z" fill="url(#paint0_linear_966_42731)"/>
<path id="Vector_2" d="M20.3125 10.417C20.3125 9.17379 20.8064 7.98151 21.6854 7.10243C22.5645 6.22335 23.7568 5.72949 25 5.72949C26.2432 5.72949 27.4355 6.22335 28.3146 7.10243C29.1936 7.98151 29.6875 9.17379 29.6875 10.417V12.5003C30.8667 12.5003 31.9 12.5045 32.8125 12.5316V10.417C32.8125 8.34499 31.9894 6.35785 30.5243 4.89272C29.0591 3.42759 27.072 2.60449 25 2.60449C22.928 2.60449 20.9409 3.42759 19.4757 4.89272C18.0106 6.35785 17.1875 8.34499 17.1875 10.417V12.5316C18.1 12.5045 19.1333 12.5003 20.3125 12.5003V10.417Z" fill="#322E80"/>
</g>
</g>
<defs>
<linearGradient id="paint0_linear_966_42731" x1="8.70313" y1="17.9167" x2="42.1965" y2="19.5086" gradientUnits="userSpaceOnUse">
<stop stop-color="#322E80"/>
<stop offset="1" stop-color="#322E80" stop-opacity="0.7"/>
</linearGradient>
</defs>
</svg>
