<svg width="68" height="68" viewBox="0 0 68 68" fill="none" xmlns="http://www.w3.org/2000/svg">
<g filter="url(#filter0_d_928_3999)">
<circle cx="34" cy="30" r="22" fill="#1677ff"/>
<circle cx="34" cy="30" r="21" stroke="white" stroke-width="2"/>
</g>
<g clip-path="url(#clip0_928_3999)">
<mask id="mask0_928_3999" style="mask-type:luminance" maskUnits="userSpaceOnUse" x="25" y="18" width="18" height="24">
<path d="M43 18H25V41.769H43V18Z" fill="white"/>
</mask>
<g mask="url(#mask0_928_3999)">
<path d="M30.391 18.006C30.524 18.0077 30.6536 18.0479 30.764 18.122C30.8902 18.2116 30.9927 18.3307 31.0624 18.4689C31.1321 18.6071 31.167 18.7602 31.164 18.9149V18.924C31.163 19.0001 31.1825 19.0752 31.2206 19.1411C31.2586 19.2071 31.3136 19.2616 31.38 19.299C31.404 19.3131 31.4295 19.3245 31.456 19.333C31.482 19.342 31.5088 19.3483 31.536 19.352H31.623C31.6376 19.353 31.6521 19.35 31.665 19.343C31.6792 19.3406 31.6932 19.3373 31.707 19.333L31.72 19.325C31.728 19.325 31.737 19.3159 31.745 19.3159C31.7573 19.3096 31.77 19.3039 31.783 19.299C31.8082 19.2854 31.832 19.2694 31.854 19.251L31.882 19.225C31.9218 19.1849 31.9532 19.1372 31.9745 19.0849C31.9958 19.0325 32.0065 18.9765 32.006 18.92V18.911C32.0061 18.8295 32.0159 18.7482 32.035 18.669C32.0857 18.4439 32.2202 18.2466 32.411 18.117C32.5209 18.042 32.6509 18.0019 32.784 18.0019C32.9171 18.0019 33.0471 18.042 33.157 18.117C33.2844 18.2061 33.3879 18.3251 33.4587 18.4635C33.5295 18.6019 33.5653 18.7556 33.563 18.911V18.92C33.5622 18.9959 33.5818 19.0707 33.6198 19.1365C33.6578 19.2023 33.7128 19.2567 33.779 19.294C33.8032 19.308 33.8286 19.3198 33.855 19.329C33.8811 19.3376 33.9079 19.344 33.935 19.3481H33.978C34.007 19.3494 34.0359 19.3463 34.064 19.339C34.0782 19.3366 34.0922 19.3333 34.106 19.329L34.12 19.321C34.128 19.321 34.137 19.312 34.145 19.312C34.184 19.2967 34.2205 19.2755 34.253 19.2491L34.281 19.2231C34.3211 19.1831 34.3529 19.1355 34.3744 19.0832C34.3958 19.0308 34.4066 18.9746 34.406 18.918V18.9099C34.4031 18.7551 34.438 18.6019 34.5077 18.4635C34.5774 18.3252 34.6798 18.2059 34.806 18.116C34.9159 18.041 35.0459 18.0009 35.179 18.0009C35.3121 18.0009 35.4421 18.041 35.552 18.116C35.6781 18.2047 35.7809 18.3226 35.8516 18.4596C35.9223 18.5967 35.9588 18.7488 35.958 18.903C35.958 18.911 35.958 18.911 35.958 18.917C35.9566 19.0221 35.9943 19.124 36.0637 19.2029C36.1332 19.2818 36.2295 19.3321 36.334 19.344H36.399C36.4516 19.3443 36.5038 19.3347 36.553 19.3159H36.573C36.5827 19.31 36.5931 19.3054 36.604 19.302C36.617 19.293 36.629 19.288 36.64 19.281C36.6994 19.2418 36.7481 19.1883 36.7815 19.1254C36.8148 19.0625 36.8319 18.9923 36.831 18.9211V18.907C36.8298 18.7529 36.8661 18.6007 36.9368 18.4638C37.0075 18.3268 37.1106 18.2092 37.237 18.121C37.347 18.0458 37.4772 18.0055 37.6105 18.0055C37.7438 18.0055 37.874 18.0458 37.984 18.121C38.1084 18.2091 38.2097 18.326 38.2793 18.4616C38.349 18.5972 38.3849 18.7476 38.384 18.9001C38.3716 19.9532 37.9545 20.9611 37.219 21.715H30.779C30.0435 20.9611 29.6264 19.9532 29.614 18.9001C29.613 18.7476 29.6489 18.5971 29.7185 18.4615C29.7882 18.3258 29.8895 18.2091 30.014 18.121C30.1246 18.0473 30.2541 18.007 30.387 18.005L30.391 18.006ZM31.262 22.565H36.782V23.32H31.262V22.565ZM31.062 24.1649H36.925C42.546 28.8649 43.994 33.119 43.994 36.288V36.6549C43.994 37.9899 43.05 39.255 41.386 40.205C39.3469 41.2778 37.0686 41.815 34.765 41.766H33.227C30.9234 41.8146 28.6452 41.2775 26.606 40.205C24.943 39.251 24 37.9909 24 36.6549V36.288C24 33.119 25.447 28.864 31.068 24.166L31.062 24.1649ZM34.223 28.193C33.133 28.196 32.0684 28.5219 31.1636 29.1297C30.2588 29.7374 29.5544 30.5996 29.1393 31.6075C28.7243 32.6153 28.6173 33.7236 28.8319 34.7923C29.0464 35.8609 29.5728 36.842 30.3447 37.6116C31.1165 38.3812 32.0991 38.9048 33.1684 39.1162C34.2377 39.3277 35.3456 39.2175 36.3523 38.7996C37.3589 38.3817 38.2191 37.6747 38.8242 36.7681C39.4293 35.8615 39.7522 34.7959 39.752 33.706C39.7523 33.649 39.741 33.5925 39.719 33.5399C39.6757 32.1101 39.0782 30.7533 38.0528 29.7559C37.0274 28.7585 35.6545 28.1987 34.224 28.195L34.223 28.193ZM34.223 29.041C35.2966 29.0437 36.3362 29.4181 37.1648 30.1009C37.9934 30.7836 38.5598 31.7324 38.7677 32.7857C38.9756 33.839 38.8121 34.9318 38.3051 35.8782C37.7981 36.8246 36.9788 37.566 35.9867 37.9763C34.9946 38.3867 33.8909 38.4407 32.8635 38.1291C31.8361 37.8174 30.9484 37.1593 30.3515 36.2669C29.7546 35.3745 29.4853 34.3028 29.5895 33.2343C29.6937 32.1657 30.1649 31.1663 30.923 30.406C31.8005 29.5318 32.9893 29.0418 34.228 29.044L34.223 29.041ZM32.151 30.761V30.7701H32.133V31.618H33.004C33.2894 31.5817 33.5785 31.6457 33.822 31.7989C34.0654 31.9521 34.2482 32.1851 34.339 32.458H32.156V33.307H34.345C34.2539 33.5798 34.071 33.8125 33.8276 33.9656C33.5843 34.1188 33.2953 34.1829 33.01 34.147H32.139V34.726L32.114 34.752L32.139 34.776V34.997H32.364L34.979 37.553L35.573 36.946L33.524 34.946C33.9361 34.87 34.3165 34.6741 34.6175 34.3827C34.9185 34.0913 35.1268 33.7174 35.216 33.308H36.375V32.46H35.215C35.1454 32.15 35.0066 31.8597 34.809 31.611H36.374V30.762L32.151 30.761Z" fill="white"/>
</g>
</g>
<defs>
<filter id="filter0_d_928_3999" x="0" y="0" width="68" height="68" filterUnits="userSpaceOnUse" color-interpolation-filters="sRGB">
<feFlood flood-opacity="0" result="BackgroundImageFix"/>
<feColorMatrix in="SourceAlpha" type="matrix" values="0 0 0 0 0 0 0 0 0 0 0 0 0 0 0 0 0 0 127 0" result="hardAlpha"/>
<feOffset dy="4"/>
<feGaussianBlur stdDeviation="6"/>
<feComposite in2="hardAlpha" operator="out"/>
<feColorMatrix type="matrix" values="0 0 0 0 0.505882 0 0 0 0 0.494118 0 0 0 0 0.694118 0 0 0 0.5 0"/>
<feBlend mode="normal" in2="BackgroundImageFix" result="effect1_dropShadow_928_3999"/>
<feBlend mode="normal" in="SourceGraphic" in2="effect1_dropShadow_928_3999" result="shape"/>
</filter>
<clipPath id="clip0_928_3999">
<rect width="18" height="23.77" fill="white" transform="translate(25 18)"/>
</clipPath>
</defs>
</svg>
