<svg width="68" height="68" viewBox="0 0 68 68" fill="none" xmlns="http://www.w3.org/2000/svg">
<g filter="url(#filter0_d_928_4011)">
<circle cx="34" cy="30" r="22" fill="#1677ff"/>
<circle cx="34" cy="30" r="21" stroke="white" stroke-width="2"/>
</g>
<path d="M41.902 22.16C41.902 24.525 40.102 27.38 37.857 27.38C35.612 27.38 33.812 24.525 33.812 22.16C33.7973 21.6195 33.891 21.0814 34.0877 20.5778C34.2844 20.0741 34.58 19.6149 34.9571 19.2274C35.3342 18.8398 35.7852 18.5318 36.2833 18.3215C36.7815 18.1112 37.3167 18.0028 37.8575 18.0028C38.3982 18.0028 38.9335 18.1112 39.4316 18.3215C39.9298 18.5318 40.3807 18.8398 40.7578 19.2274C41.1349 19.6149 41.4306 20.0741 41.6273 20.5778C41.8239 21.0814 41.9167 21.6195 41.902 22.16ZM44.502 33.38C44.3596 33.3557 44.2154 33.344 44.071 33.345C43.6319 33.3448 43.1984 33.444 42.803 33.635L41.231 34.215C40.438 34.515 39.693 34.79 39.272 34.94L39.072 34.925C39.0576 34.8433 39.0361 34.763 39.008 34.685C38.7736 34.0253 38.3419 33.4537 37.7717 33.0477C37.2014 32.6416 36.52 32.4207 35.82 32.415H33.984L33.024 32.425C32.4223 32.4831 31.8165 32.3704 31.276 32.1C31.5541 31.2473 32.023 30.4693 32.647 29.825C33.1715 29.2787 33.8012 28.8443 34.4981 28.5478C35.195 28.2514 35.9447 28.099 36.702 28.1H38.818C40.2502 28.1229 41.6232 28.6749 42.6727 29.6498C43.7221 30.6246 44.3737 31.9534 44.502 33.38ZM27.49 30.98V41C27.4919 41.2621 27.39 41.5144 27.2066 41.7017C27.0232 41.8891 26.7731 41.9963 26.511 42H22.98C22.718 41.996 22.4682 41.8887 22.285 41.7014C22.1018 41.5141 22.0001 41.262 22.002 41V30.98C22.0001 30.7178 22.102 30.4656 22.2854 30.2782C22.4688 30.0909 22.7188 29.9837 22.981 29.98H26.511C26.7731 29.9837 27.0232 30.0909 27.2066 30.2782C27.39 30.4656 27.4919 30.7178 27.49 30.98Z" fill="white"/>
<path d="M44.9837 37.9L40.5177 40.25C39.5452 40.7618 38.4627 41.0295 37.3637 41.03H29.7967C29.3487 41.0296 28.9026 40.9708 28.4697 40.855V31.9C29.2396 32.0699 29.9673 32.3929 30.6097 32.85C30.6487 32.88 30.6787 32.9 30.6977 32.915C31.4046 33.3137 32.2148 33.4914 33.0237 33.425C33.3097 33.425 31.9877 33.425 35.8237 33.415C36.3218 33.4184 36.8067 33.5753 37.2124 33.8643C37.6181 34.1533 37.9248 34.5603 38.0907 35.03C38.1494 35.1854 38.1495 35.3569 38.0909 35.5124C38.0324 35.6679 37.9193 35.7968 37.7727 35.875C36.0287 36.795 34.7087 35.79 34.6237 36.73C34.6097 36.8613 34.6482 36.9929 34.7308 37.0959C34.8134 37.199 34.9335 37.2651 35.0647 37.28C35.7617 37.3878 36.4736 37.3492 37.1549 37.1667C37.8361 36.9842 38.4719 36.6618 39.0217 36.22C39.1839 36.0765 39.3715 35.9646 39.5747 35.89C40.2747 35.635 41.9497 35.01 43.1847 34.555C43.63 34.3291 44.1448 34.282 44.6237 34.4233C45.1026 34.5646 45.5093 34.8836 45.7607 35.315C45.8846 35.5345 45.9629 35.7769 45.9908 36.0274C46.0187 36.278 45.9956 36.5316 45.9231 36.773C45.8505 37.0145 45.7299 37.2388 45.5685 37.4324C45.407 37.6261 45.2081 37.7851 44.9837 37.9Z" fill="white"/>
<defs>
<filter id="filter0_d_928_4011" x="0" y="0" width="68" height="68" filterUnits="userSpaceOnUse" color-interpolation-filters="sRGB">
<feFlood flood-opacity="0" result="BackgroundImageFix"/>
<feColorMatrix in="SourceAlpha" type="matrix" values="0 0 0 0 0 0 0 0 0 0 0 0 0 0 0 0 0 0 127 0" result="hardAlpha"/>
<feOffset dy="4"/>
<feGaussianBlur stdDeviation="6"/>
<feComposite in2="hardAlpha" operator="out"/>
<feColorMatrix type="matrix" values="0 0 0 0 0.505882 0 0 0 0 0.494118 0 0 0 0 0.694118 0 0 0 0.5 0"/>
<feBlend mode="normal" in2="BackgroundImageFix" result="effect1_dropShadow_928_4011"/>
<feBlend mode="normal" in="SourceGraphic" in2="effect1_dropShadow_928_4011" result="shape"/>
</filter>
</defs>
</svg>
