<svg width="25" height="25" viewBox="0 0 25 25" fill="none" xmlns="http://www.w3.org/2000/svg">
<path d="M23.4375 2.3388L17.182 2.33883V0.781433C17.182 0.349691 16.8324 0 16.4008 0C15.9691 0 15.6195 0.349691 15.6195 0.781433V2.33844H9.36953V0.781433C9.36953 0.349691 9.01992 0 8.58828 0C8.15664 0 7.80703 0.349691 7.80703 0.781433V2.33844H1.5625C0.699609 2.33844 0 3.03821 0 3.9013V23.4371C0 24.3002 0.699609 25 1.5625 25H23.4375C24.3004 25 25 24.3002 25 23.4371V3.9013C25 3.03858 24.3004 2.3388 23.4375 2.3388ZM23.4375 23.4371H1.5625V3.9013H7.80703V4.6886C7.80703 5.12032 8.15664 5.47003 8.58828 5.47003C9.01992 5.47003 9.36953 5.12032 9.36953 4.6886V3.9017H15.6195V4.68899C15.6195 5.12073 15.9691 5.47042 16.4008 5.47042C16.8324 5.47042 17.182 5.12073 17.182 4.68899V3.9017H23.4375V23.4371ZM17.9688 12.4974H19.5312C19.9625 12.4974 20.3125 12.1474 20.3125 11.716V10.1531C20.3125 9.72178 19.9625 9.3717 19.5312 9.3717H17.9688C17.5375 9.3717 17.1875 9.72178 17.1875 10.1531V11.716C17.1875 12.1474 17.5375 12.4974 17.9688 12.4974ZM17.9688 18.7485H19.5312C19.9625 18.7485 20.3125 18.3988 20.3125 17.9671V16.4042C20.3125 15.9729 19.9625 15.6228 19.5312 15.6228H17.9688C17.5375 15.6228 17.1875 15.9729 17.1875 16.4042V17.9671C17.1875 18.3992 17.5375 18.7485 17.9688 18.7485ZM13.2812 15.6228H11.7188C11.2875 15.6228 10.9375 15.9729 10.9375 16.4042V17.9671C10.9375 18.3988 11.2875 18.7485 11.7188 18.7485H13.2812C13.7125 18.7485 14.0625 18.3988 14.0625 17.9671V16.4042C14.0625 15.9733 13.7125 15.6228 13.2812 15.6228ZM13.2812 9.3717H11.7188C11.2875 9.3717 10.9375 9.72178 10.9375 10.1531V11.716C10.9375 12.1474 11.2875 12.4974 11.7188 12.4974H13.2812C13.7125 12.4974 14.0625 12.1474 14.0625 11.716V10.1531C14.0625 9.72139 13.7125 9.3717 13.2812 9.3717ZM7.03125 9.3717H5.46875C5.0375 9.3717 4.6875 9.72178 4.6875 10.1531V11.716C4.6875 12.1474 5.0375 12.4974 5.46875 12.4974H7.03125C7.4625 12.4974 7.8125 12.1474 7.8125 11.716V10.1531C7.8125 9.72139 7.4625 9.3717 7.03125 9.3717ZM7.03125 15.6228H5.46875C5.0375 15.6228 4.6875 15.9729 4.6875 16.4042V17.9671C4.6875 18.3988 5.0375 18.7485 5.46875 18.7485H7.03125C7.4625 18.7485 7.8125 18.3988 7.8125 17.9671V16.4042C7.8125 15.9733 7.4625 15.6228 7.03125 15.6228Z" fill="#BFBFBF"/>
</svg>
