<svg width="40" height="40" viewBox="0 0 40 40" fill="none" xmlns="http://www.w3.org/2000/svg">
<circle cx="20" cy="20" r="20" fill="#E1EDFF"/>
<g clip-path="url(#clip0_1194_5319)">
<path d="M12.6514 25.1245C13.5464 25.1245 14.272 24.3989 14.272 23.5039C14.272 22.6089 13.5464 21.8833 12.6514 21.8833C11.7563 21.8833 11.0308 22.6089 11.0308 23.5039C11.0308 24.3989 11.7563 25.1245 12.6514 25.1245Z" fill="#1677FF"/>
<path d="M15.4375 26.5758L15.4372 26.5762L12.7419 29.3912L12.9224 29.5641L12.7419 29.3912C12.7302 29.4034 12.7162 29.4131 12.7007 29.4197C12.6851 29.4263 12.6684 29.4298 12.6516 29.4298C12.6347 29.4298 12.618 29.4263 12.6025 29.4197C12.587 29.4131 12.573 29.4034 12.5613 29.3912L9.86609 26.5762C9.86602 26.5761 9.86596 26.576 9.86589 26.576C8.33942 24.9723 8.34113 22.3729 9.86591 20.7866L9.86789 20.7845C10.2252 20.4042 10.6566 20.1011 11.1355 19.8939C11.6144 19.6868 12.1308 19.58 12.6526 19.5801C13.1744 19.5802 13.6906 19.6872 14.1695 19.8946C14.6483 20.102 15.0796 20.4052 15.4367 20.7857L15.4367 20.7857L15.4379 20.787C16.9638 22.3899 16.9622 24.9895 15.4375 26.5758ZM12.6515 20.8834L12.6513 20.8834C11.9566 20.8841 11.2905 21.1605 10.7993 21.6517C10.3081 22.1429 10.0318 22.809 10.031 23.5037V23.504C10.031 24.0223 10.1847 24.5289 10.4726 24.9599C10.7606 25.3909 11.1699 25.7267 11.6487 25.9251C12.1276 26.1234 12.6545 26.1753 13.1629 26.0742C13.6712 25.9731 14.1382 25.7235 14.5047 25.357C14.8712 24.9905 15.1207 24.5235 15.2219 24.0152C15.323 23.5068 15.2711 22.9799 15.0727 22.5011C14.8744 22.0222 14.5385 21.6129 14.1075 21.325C13.6765 21.037 13.1699 20.8833 12.6515 20.8834Z" fill="#1677FF" stroke="#E1EDFF" stroke-width="0.5"/>
<path d="M27.3486 14.2866C28.2437 14.2866 28.9692 13.5611 28.9692 12.666C28.9692 11.771 28.2437 11.0454 27.3486 11.0454C26.4536 11.0454 25.728 11.771 25.728 12.666C25.728 13.5611 26.4536 14.2866 27.3486 14.2866Z" fill="#1677FF"/>
<path d="M24.5631 9.94868L24.5651 9.94652C24.9221 9.56613 25.3533 9.263 25.8321 9.05586C26.3109 8.84871 26.8271 8.74196 27.3488 8.74219L27.349 8.74219C27.871 8.74199 28.3874 8.84889 28.8665 9.05626C29.3455 9.26363 29.7769 9.56707 30.1339 9.94782L30.1339 9.94782L30.1352 9.94917C31.6611 11.5521 31.6595 14.1517 30.1348 15.738L30.1345 15.7383L27.4391 18.5533L27.6197 18.7262L27.4391 18.5533C27.4275 18.5655 27.4135 18.5752 27.3979 18.5818C27.3824 18.5885 27.3657 18.5919 27.3489 18.5919C27.332 18.5919 27.3153 18.5885 27.2998 18.5818C27.2842 18.5752 27.2702 18.5655 27.2586 18.5533L24.5634 15.7383C24.5633 15.7383 24.5632 15.7382 24.5631 15.7381C23.0367 14.1343 23.0384 11.5349 24.5631 9.94868ZM27.3489 15.2867H27.3492C28.0439 15.2859 28.7099 15.0096 29.2011 14.5183C29.6923 14.0271 29.9687 13.3611 29.9694 12.6664V12.6661C29.9694 12.1478 29.8157 11.6411 29.5278 11.2101C29.2398 10.7792 28.8305 10.4433 28.3517 10.2449C27.8728 10.0466 27.3459 9.99471 26.8376 10.0958C26.3292 10.1969 25.8623 10.4465 25.4958 10.813C25.1293 11.1796 24.8797 11.6465 24.7786 12.1549C24.6775 12.6632 24.7294 13.1901 24.9277 13.669C25.1261 14.1478 25.462 14.5571 25.8929 14.8451C26.3239 15.133 26.8306 15.2867 27.3489 15.2867Z" fill="#1677FF" stroke="#E1EDFF" stroke-width="0.5"/>
<path d="M13.0179 31.1071C12.9066 30.9958 12.844 30.8449 12.8438 30.6875C12.844 30.5301 12.9066 30.3792 13.0179 30.2679C13.1293 30.1566 13.2803 30.0939 13.4378 30.0938H17C18.7432 30.0938 20.1562 28.652 20.1562 26.9141V23.4922C20.1562 21.0989 22.1034 19.1719 24.5 19.1719H26.4219C26.5793 19.1719 26.7304 19.2344 26.8417 19.3458C26.9531 19.4571 27.0156 19.6082 27.0156 19.7656C27.0156 19.9231 26.9531 20.0741 26.8417 20.1855C26.7304 20.2968 26.5793 20.3594 26.4219 20.3594H24.5C22.7621 20.3594 21.3438 21.749 21.3438 23.4922V26.9141C21.3438 29.3107 19.3933 31.2812 17 31.2812H13.4378C13.2803 31.2811 13.1293 31.2184 13.0179 31.1071Z" fill="#1677FF" stroke="#E1EDFF" stroke-width="0.5"/>
</g>
<defs>
<clipPath id="clip0_1194_5319">
<rect width="24" height="24" fill="white" transform="translate(8 8)"/>
</clipPath>
</defs>
</svg>
