<svg width="301" height="258" viewBox="0 0 301 258" fill="none" xmlns="http://www.w3.org/2000/svg">
<g opacity="0.3">
<path d="M157.703 219.873C209.14 219.873 250.838 175.881 250.838 121.614C250.838 67.3476 209.14 23.3557 157.703 23.3557C106.265 23.3557 64.5675 67.3476 64.5675 121.614C64.5675 175.881 106.265 219.873 157.703 219.873Z" fill="#DBE8EC"/>
<path d="M289.115 110.108V99.4966C289.115 97.4731 288.353 95.5325 286.997 94.1017C285.641 92.6709 283.801 91.8671 281.883 91.8671H250.804C249.855 91.8671 248.914 91.6698 248.037 91.2864C247.16 90.903 246.362 90.341 245.691 89.6325C245.019 88.9241 244.487 88.083 244.123 87.1574C243.76 86.2317 243.573 85.2396 243.573 84.2377V73.6266C243.573 71.6031 244.335 69.6626 245.691 68.2318C247.047 66.801 248.886 65.9972 250.804 65.9972H262.718C264.636 65.9972 266.475 65.1934 267.831 63.7626C269.188 62.3318 269.949 60.3912 269.949 58.3678V47.7566C269.949 45.7332 269.188 43.7926 267.831 42.3618C266.475 40.931 264.636 40.1272 262.718 40.1272H49.4951C47.5772 40.1272 45.7378 40.931 44.3816 42.3618C43.0254 43.7926 42.2635 45.7332 42.2635 47.7566V58.3678C42.2635 60.3912 43.0254 62.3318 44.3816 63.7626C45.7378 65.1934 47.5772 65.9972 49.4951 65.9972C51.413 65.9972 53.2524 66.801 54.6086 68.2318C55.9648 69.6626 56.7267 71.6031 56.7267 73.6266V84.2377C56.7267 86.2612 55.9648 88.2017 54.6086 89.6325C53.2524 91.0633 51.413 91.8671 49.4951 91.8671H15.9761C14.0581 91.8671 12.2187 92.6709 10.8626 94.1017C9.50638 95.5325 8.74448 97.4731 8.74448 99.4966V110.108C8.74448 112.131 9.50638 114.072 10.8626 115.502C12.2188 116.933 14.0581 117.737 15.9761 117.737H49.1646C50.1142 117.737 51.0546 117.934 51.932 118.318C52.8094 118.701 53.6066 119.263 54.2781 119.972C54.9496 120.68 55.4823 121.521 55.8457 122.447C56.2091 123.373 56.3962 124.365 56.3962 125.367V135.978C56.5734 145.688 36.497 143.607 32.5031 143.607H32.4765C30.5586 143.607 28.7192 144.411 27.363 145.842C26.0068 147.273 25.2449 149.213 25.2449 151.237V161.848C25.2449 163.871 26.0068 165.812 27.363 167.242C28.7192 168.673 30.5586 169.477 32.4765 169.477H50.7257C52.6436 169.477 54.483 170.281 55.8392 171.712C57.1953 173.142 57.9572 175.083 57.9572 177.106V187.718C57.9572 189.741 57.1953 191.682 55.8392 193.112C54.483 194.543 52.6436 195.347 50.7257 195.347H30.2245C28.3065 195.347 26.4672 196.151 25.111 197.582C23.7548 199.012 22.9929 200.953 22.9929 202.977V213.588C22.9929 215.611 23.7548 217.552 25.111 218.982C26.4672 220.413 28.3065 221.217 30.2245 221.217H261.046C262.964 221.217 264.804 220.413 266.16 218.982C267.516 217.552 268.278 215.611 268.278 213.588V202.977C268.278 200.953 267.516 199.012 266.16 197.582C264.804 196.151 262.964 195.347 261.046 195.347H249.223C247.305 195.347 245.465 194.543 244.109 193.112C242.753 191.682 241.991 189.741 241.991 187.718V177.106C241.991 175.083 242.753 173.142 244.109 171.712C245.465 170.281 247.305 169.477 249.223 169.477H269.561C271.479 169.477 273.318 168.673 274.674 167.242C276.03 165.812 276.792 163.871 276.792 161.848V151.237C276.792 149.213 276.03 147.273 274.674 145.842C273.318 144.411 271.479 143.607 269.561 143.607H259.522C257.604 143.607 255.765 142.803 254.408 141.373C253.052 139.942 252.29 138.001 252.29 135.978V125.367C252.29 124.365 252.477 123.373 252.841 122.447C253.204 121.521 253.737 120.68 254.408 119.972C255.08 119.263 255.877 118.701 256.755 118.318C257.632 117.934 258.572 117.737 259.522 117.737H281.883C283.801 117.737 285.641 116.933 286.997 115.502C288.353 114.072 289.115 112.131 289.115 110.108Z" fill="#DBE8EC"/>
<path d="M159.207 93.5557C173.611 93.5557 185.287 81.237 185.287 66.041C185.287 50.845 173.611 38.5262 159.207 38.5262C144.803 38.5262 133.127 50.845 133.127 66.041C133.127 81.237 144.803 93.5557 159.207 93.5557Z" fill="#3086A3"/>
<path d="M149.974 60.3116C149.973 60.2775 149.973 60.2435 149.973 60.2094C149.973 58.2887 150.511 56.4109 151.52 54.812C152.529 53.2131 153.963 51.9644 155.642 51.223C157.322 50.4815 159.172 50.2804 160.959 50.6448C162.746 51.0093 164.392 51.9231 165.689 53.2713C166.985 54.6196 167.875 56.3421 168.246 58.2224C168.618 60.1027 168.454 62.0569 167.776 63.8393C167.097 65.6216 165.935 67.1527 164.434 68.2399C162.933 69.3272 161.161 69.9221 159.341 69.95V78.7958" stroke="#F9AE2B" stroke-width="4" stroke-linecap="round" stroke-linejoin="round"/>
<path d="M203.077 47.5191H221.017" stroke="#3086A3" stroke-width="3" stroke-miterlimit="10" stroke-linecap="round"/>
<path d="M203.077 52.9745H221.017" stroke="#3086A3" stroke-width="3" stroke-miterlimit="10" stroke-linecap="round"/>
<path d="M203.077 58.4299H221.017" stroke="#3086A3" stroke-width="3" stroke-miterlimit="10" stroke-linecap="round"/>
<path d="M36.176 151.126H54.1165" stroke="#3086A3" stroke-width="3" stroke-miterlimit="10" stroke-linecap="round"/>
<path d="M36.176 156.581H54.1165" stroke="#3086A3" stroke-width="3" stroke-miterlimit="10" stroke-linecap="round"/>
<path d="M36.176 162.037H54.1165" stroke="#3086A3" stroke-width="3" stroke-miterlimit="10" stroke-linecap="round"/>
<path d="M237.496 190.029H255.436" stroke="#3086A3" stroke-width="3" stroke-miterlimit="10" stroke-linecap="round"/>
<path d="M237.496 195.484H255.436" stroke="#3086A3" stroke-width="3" stroke-miterlimit="10" stroke-linecap="round"/>
<path d="M237.496 200.94H255.436" stroke="#3086A3" stroke-width="3" stroke-miterlimit="10" stroke-linecap="round"/>
<path d="M259.121 163.162C263.356 163.162 266.789 159.54 266.789 155.072C266.789 150.604 263.356 146.982 259.121 146.982C254.885 146.982 251.452 150.604 251.452 155.072C251.452 159.54 254.885 163.162 259.121 163.162Z" fill="#B9D4DB"/>
<path d="M238.885 165.105C241.081 165.105 242.861 163.227 242.861 160.91C242.861 158.594 241.081 156.716 238.885 156.716C236.689 156.716 234.908 158.594 234.908 160.91C234.908 163.227 236.689 165.105 238.885 165.105Z" fill="#B9D4DB"/>
<path d="M248.981 141.269C252.118 141.269 254.661 138.586 254.661 135.276C254.661 131.966 252.118 129.283 248.981 129.283C245.844 129.283 243.301 131.966 243.301 135.276C243.301 138.586 245.844 141.269 248.981 141.269Z" fill="#B9D4DB"/>
<path d="M84.6273 216.951C89.6663 216.951 93.7511 212.641 93.7511 207.325C93.7511 202.009 89.6663 197.699 84.6273 197.699C79.5883 197.699 75.5034 202.009 75.5034 207.325C75.5034 212.641 79.5883 216.951 84.6273 216.951Z" fill="#B9D4DB"/>
<path d="M67.1928 205.483C69.8175 205.483 71.9453 203.238 71.9453 200.469C71.9453 197.7 69.8175 195.455 67.1928 195.455C64.5681 195.455 62.4404 197.7 62.4404 200.469C62.4404 203.238 64.5681 205.483 67.1928 205.483Z" fill="#B9D4DB"/>
<path d="M71.558 186.317C73.072 186.317 74.2994 185.022 74.2994 183.425C74.2994 181.828 73.072 180.533 71.558 180.533C70.044 180.533 68.8167 181.828 68.8167 183.425C68.8167 185.022 70.044 186.317 71.558 186.317Z" fill="#B9D4DB"/>
<path d="M86.7334 192.405C90.3629 192.405 93.3051 189.3 93.3051 185.471C93.3051 181.642 90.3629 178.538 86.7334 178.538C83.104 178.538 80.1618 181.642 80.1618 185.471C80.1618 189.3 83.104 192.405 86.7334 192.405Z" fill="#B9D4DB"/>
<path d="M91.3089 72.4495C96.3479 72.4495 100.433 68.1399 100.433 62.8237C100.433 57.5075 96.3479 53.1979 91.3089 53.1979C86.2699 53.1979 82.1851 57.5075 82.1851 62.8237C82.1851 68.1399 86.2699 72.4495 91.3089 72.4495Z" fill="#B9D4DB"/>
<path d="M91.6792 48.2117C94.3039 48.2117 96.4316 45.9669 96.4316 43.1978C96.4316 40.4287 94.3039 38.1839 91.6792 38.1839C89.0544 38.1839 86.9267 40.4287 86.9267 43.1978C86.9267 45.9669 89.0544 48.2117 91.6792 48.2117Z" fill="#B9D4DB"/>
<path d="M123.333 50.4668C125.605 50.4668 127.446 48.524 127.446 46.1273C127.446 43.7307 125.605 41.7878 123.333 41.7878C121.062 41.7878 119.22 43.7307 119.22 46.1273C119.22 48.524 121.062 50.4668 123.333 50.4668Z" fill="#B9D4DB"/>
<path d="M108.369 44.8025C109.883 44.8025 111.11 43.5077 111.11 41.9104C111.11 40.3131 109.883 39.0182 108.369 39.0182C106.855 39.0182 105.628 40.3131 105.628 41.9104C105.628 43.5077 106.855 44.8025 108.369 44.8025Z" fill="#B9D4DB"/>
<path d="M111.555 64.6302C115.184 64.6302 118.126 61.5262 118.126 57.6971C118.126 53.868 115.184 50.7639 111.555 50.7639C107.925 50.7639 104.983 53.868 104.983 57.6971C104.983 61.5262 107.925 64.6302 111.555 64.6302Z" fill="#B9D4DB"/>
<path d="M237.061 115.666H82.5329L77.4941 102.189H237.061C237.26 102.189 237.456 102.23 237.64 102.311C237.823 102.391 237.99 102.508 238.13 102.656C238.27 102.804 238.382 102.98 238.458 103.174C238.534 103.367 238.573 103.575 238.573 103.784V114.071C238.573 114.281 238.534 114.488 238.458 114.681C238.382 114.875 238.27 115.051 238.13 115.199C237.99 115.347 237.823 115.464 237.64 115.544C237.456 115.625 237.26 115.666 237.061 115.666Z" fill="#409CB5"/>
<path d="M214.548 186.474H109.472C108.959 186.474 108.459 186.309 108.037 186.001C107.616 185.693 107.293 185.257 107.113 184.75L82.5329 115.666H231.68L217.006 184.4C216.881 184.989 216.569 185.515 216.122 185.892C215.675 186.269 215.12 186.474 214.548 186.474Z" fill="#F9AE2B"/>
<path d="M224.123 151.072C213.374 151.799 202.624 152.18 191.875 152.438C186.5 152.6 181.125 152.636 175.75 152.731L159.626 152.828C148.877 152.839 138.127 152.71 127.378 152.443C116.628 152.186 105.879 151.803 95.1294 151.072C105.879 150.34 116.628 149.957 127.378 149.7C138.127 149.445 148.877 149.317 159.626 149.315L175.75 149.412C181.125 149.507 186.5 149.543 191.875 149.705C202.624 149.964 213.374 150.344 224.123 151.072Z" fill="#3086A3"/>
<path d="M203.097 115.666C202.485 121.845 201.549 127.947 200.516 134.027C199.469 140.103 198.301 146.15 197.012 152.168C195.729 158.188 194.329 164.18 192.81 170.144C192.043 173.124 191.25 176.098 190.402 179.059C189.964 180.536 189.547 182.018 189.091 183.491L188.74 184.61C188.602 185.02 188.378 185.393 188.084 185.699C187.808 185.987 187.475 186.206 187.108 186.34C186.742 186.474 186.351 186.52 185.966 186.474C186.314 186.431 186.649 186.308 186.948 186.115C187.247 185.922 187.503 185.663 187.698 185.356C187.881 185.073 188.001 184.751 188.05 184.412L188.19 183.276C188.377 181.74 188.602 180.212 188.806 178.679C189.244 175.621 189.735 172.575 190.254 169.536C191.301 163.46 192.47 157.414 193.762 151.396C195.049 145.377 196.451 139.385 197.968 133.421C199.505 127.462 201.139 121.525 203.097 115.666Z" fill="#3086A3"/>
<path d="M143.05 186.474C142.649 186.52 142.243 186.467 141.865 186.318C141.487 186.17 141.146 185.931 140.871 185.62C140.6 185.292 140.383 184.92 140.229 184.517L139.731 183.429C139.067 181.978 138.442 180.512 137.796 179.054C136.531 176.128 135.317 173.181 134.128 170.224C131.762 164.307 129.512 158.343 127.378 152.333C125.238 146.326 123.211 140.273 121.298 134.176C119.401 128.073 117.599 121.931 116.111 115.666C118.898 121.417 121.372 127.292 123.751 133.205C126.117 139.123 128.366 145.087 130.497 151.098C132.633 157.107 134.658 163.16 136.573 169.256C137.522 172.308 138.447 175.369 139.319 178.451C139.742 179.997 140.185 181.535 140.591 183.088L140.894 184.253C140.964 184.619 141.089 184.97 141.265 185.294C141.459 185.619 141.721 185.895 142.03 186.099C142.339 186.303 142.688 186.432 143.05 186.474Z" fill="#3086A3"/>
<path d="M135.563 240.798C141.312 240.798 145.973 235.881 145.973 229.815C145.973 223.75 141.312 218.833 135.563 218.833C129.814 218.833 125.153 223.75 125.153 229.815C125.153 235.881 129.814 240.798 135.563 240.798Z" fill="#409CB5"/>
<path d="M135.563 234.884C138.216 234.884 140.368 232.615 140.368 229.815C140.368 227.016 138.216 224.746 135.563 224.746C132.91 224.746 130.759 227.016 130.759 229.815C130.759 232.615 132.91 234.884 135.563 234.884Z" fill="#DBE8EC"/>
<path d="M195.61 240.798C201.36 240.798 206.02 235.881 206.02 229.815C206.02 223.75 201.36 218.833 195.61 218.833C189.861 218.833 185.201 223.75 185.201 229.815C185.201 235.881 189.861 240.798 195.61 240.798Z" fill="#409CB5"/>
<path d="M195.61 234.884C198.264 234.884 200.415 232.615 200.415 229.815C200.415 227.016 198.264 224.746 195.61 224.746C192.957 224.746 190.806 227.016 190.806 229.815C190.806 232.615 192.957 234.884 195.61 234.884Z" fill="#DBE8EC"/>
<path d="M160.548 115.666C161.57 121.523 162.26 127.402 162.851 133.286C163.428 139.171 163.881 145.065 164.21 150.966C164.546 156.866 164.761 162.774 164.855 168.69C164.932 174.607 164.906 180.53 164.547 186.474C163.521 180.617 162.829 174.739 162.24 168.854C161.663 162.969 161.211 157.076 160.885 151.175C160.554 145.274 160.34 139.366 160.245 133.45C160.169 127.533 160.193 121.61 160.548 115.666Z" fill="#3086A3"/>
<path d="M213.224 213.259H119.056C118.719 213.259 118.39 213.151 118.112 212.949C117.835 212.748 117.621 212.462 117.501 212.13L62.9629 62.1434H34.0753C33.6335 62.1434 33.2097 61.9582 32.8972 61.6285C32.5847 61.2989 32.4092 60.8518 32.4092 60.3856C32.4092 59.9194 32.5847 59.4723 32.8972 59.1426C33.2097 58.8129 33.6335 58.6277 34.0753 58.6277H64.1083C64.4453 58.6278 64.7745 58.7356 65.0522 58.9371C65.3299 59.1385 65.5432 59.4241 65.6639 59.7561L120.202 209.743H213.224C213.666 209.743 214.09 209.928 214.402 210.258C214.714 210.587 214.89 211.035 214.89 211.501C214.89 211.967 214.714 212.414 214.402 212.744C214.09 213.073 213.666 213.259 213.224 213.259Z" fill="#409CB5"/>
<path d="M48.5634 55.3172H28.7918C28.1783 55.3172 27.681 55.8419 27.681 56.4891V64.9031C27.681 65.5503 28.1783 66.075 28.7918 66.075H48.5634C49.1769 66.075 49.6742 65.5503 49.6742 64.9031V56.4891C49.6742 55.8419 49.1769 55.3172 48.5634 55.3172Z" fill="#409CB5"/>
<path d="M159.207 85.8164C160.035 85.8164 160.706 85.1081 160.706 84.2344C160.706 83.3607 160.035 82.6523 159.207 82.6523C158.379 82.6523 157.707 83.3607 157.707 84.2344C157.707 85.1081 158.379 85.8164 159.207 85.8164Z" fill="#F9AE2B"/>
</g>
</svg>
