<svg width="18" height="18" viewBox="0 0 18 18" fill="none" xmlns="http://www.w3.org/2000/svg">
<path d="M6.375 2.77947C6.14294 2.77947 5.92038 2.8731 5.75628 3.03975C5.59219 3.2064 5.5 3.43243 5.5 3.66812C5.5 3.9038 5.59219 4.12983 5.75628 4.29649C5.92038 4.46314 6.14294 4.55677 6.375 4.55677C6.60706 4.55677 6.82962 4.46314 6.99372 4.29649C7.15781 4.12983 7.25 3.9038 7.25 3.66812C7.25 3.43243 7.15781 3.2064 6.99372 3.03975C6.82962 2.8731 6.60706 2.77947 6.375 2.77947ZM3.89875 2.77947C4.07953 2.25914 4.41477 1.80857 4.85827 1.48986C5.30178 1.17115 5.8317 1 6.375 1C6.9183 1 7.44822 1.17115 7.89173 1.48986C8.33523 1.80857 8.67047 2.25914 8.85125 2.77947H15.125C15.3571 2.77947 15.5796 2.8731 15.7437 3.03975C15.9078 3.2064 16 3.43243 16 3.66812C16 3.9038 15.9078 4.12983 15.7437 4.29649C15.5796 4.46314 15.3571 4.55677 15.125 4.55677H8.85125C8.67047 5.0771 8.33523 5.52767 7.89173 5.84638C7.44822 6.16509 6.9183 6.33624 6.375 6.33624C5.8317 6.33624 5.30178 6.16509 4.85827 5.84638C4.41477 5.52767 4.07953 5.0771 3.89875 4.55677H2.875C2.64294 4.55677 2.42038 4.46314 2.25628 4.29649C2.09219 4.12983 2 3.9038 2 3.66812C2 3.43243 2.09219 3.2064 2.25628 3.03975C2.42038 2.8731 2.64294 2.77947 2.875 2.77947H3.89875ZM11.625 8.11135C11.3929 8.11135 11.1704 8.20498 11.0063 8.37163C10.8422 8.53828 10.75 8.76432 10.75 9C10.75 9.23568 10.8422 9.46171 11.0063 9.62837C11.1704 9.79502 11.3929 9.88865 11.625 9.88865C11.8571 9.88865 12.0796 9.79502 12.2437 9.62837C12.4078 9.46171 12.5 9.23568 12.5 9C12.5 8.76432 12.4078 8.53828 12.2437 8.37163C12.0796 8.20498 11.8571 8.11135 11.625 8.11135ZM9.14875 8.11135C9.32953 7.59102 9.66477 7.14045 10.1083 6.82174C10.5518 6.50303 11.0817 6.33188 11.625 6.33188C12.1683 6.33188 12.6982 6.50303 13.1417 6.82174C13.5852 7.14045 13.9205 7.59102 14.1012 8.11135H15.125C15.3571 8.11135 15.5796 8.20498 15.7437 8.37163C15.9078 8.53828 16 8.76432 16 9C16 9.23568 15.9078 9.46171 15.7437 9.62837C15.5796 9.79502 15.3571 9.88865 15.125 9.88865H14.1012C13.9205 10.409 13.5852 10.8596 13.1417 11.1783C12.6982 11.497 12.1683 11.6681 11.625 11.6681C11.0817 11.6681 10.5518 11.497 10.1083 11.1783C9.66477 10.8596 9.32953 10.409 9.14875 9.88865H2.875C2.64294 9.88865 2.42038 9.79502 2.25628 9.62837C2.09219 9.46171 2 9.23568 2 9C2 8.76432 2.09219 8.53828 2.25628 8.37163C2.42038 8.20498 2.64294 8.11135 2.875 8.11135H9.14875ZM6.375 13.4432C6.14294 13.4432 5.92038 13.5369 5.75628 13.7035C5.59219 13.8702 5.5 14.0962 5.5 14.3319C5.5 14.5676 5.59219 14.7936 5.75628 14.9603C5.92038 15.1269 6.14294 15.2205 6.375 15.2205C6.60706 15.2205 6.82962 15.1269 6.99372 14.9603C7.15781 14.7936 7.25 14.5676 7.25 14.3319C7.25 14.0962 7.15781 13.8702 6.99372 13.7035C6.82962 13.5369 6.60706 13.4432 6.375 13.4432ZM3.89875 13.4432C4.07953 12.9229 4.41477 12.4723 4.85827 12.1536C5.30178 11.8349 5.8317 11.6638 6.375 11.6638C6.9183 11.6638 7.44822 11.8349 7.89173 12.1536C8.33523 12.4723 8.67047 12.9229 8.85125 13.4432H15.125C15.3571 13.4432 15.5796 13.5369 15.7437 13.7035C15.9078 13.8702 16 14.0962 16 14.3319C16 14.5676 15.9078 14.7936 15.7437 14.9603C15.5796 15.1269 15.3571 15.2205 15.125 15.2205H8.85125C8.67047 15.7409 8.33523 16.1914 7.89173 16.5101C7.44822 16.8288 6.9183 17 6.375 17C5.8317 17 5.30178 16.8288 4.85827 16.5101C4.41477 16.1914 4.07953 15.7409 3.89875 15.2205H2.875C2.64294 15.2205 2.42038 15.1269 2.25628 14.9603C2.09219 14.7936 2 14.5676 2 14.3319C2 14.0962 2.09219 13.8702 2.25628 13.7035C2.42038 13.5369 2.64294 13.4432 2.875 13.4432H3.89875Z" fill="#312B81"/>
</svg>
