<svg width="16" height="16" viewBox="0 0 16 16" fill="none" xmlns="http://www.w3.org/2000/svg">
<g id="material-symbols:filter-alt">
<path id="Vector" d="M7.33676 13.3346C7.14787 13.3346 6.98942 13.2706 6.86142 13.1426C6.73342 13.0146 6.66965 12.8564 6.67009 12.668V8.66797L2.80342 3.73464C2.63676 3.51241 2.61165 3.27908 2.72809 3.03464C2.84454 2.79019 3.04742 2.66797 3.33676 2.66797H12.6701C12.959 2.66797 13.1619 2.79019 13.2788 3.03464C13.3956 3.27908 13.3705 3.51241 13.2034 3.73464L9.33676 8.66797V12.668C9.33676 12.8569 9.27276 13.0153 9.14476 13.1433C9.01676 13.2713 8.85854 13.3351 8.67009 13.3346H7.33676Z" fill="#727176"/>
</g>
</svg>
