<svg width="24" height="18" viewBox="0 0 24 18" fill="none" xmlns="http://www.w3.org/2000/svg">
<path fill-rule="evenodd" clip-rule="evenodd" d="M0 2.59995C0 1.96343 0.252856 1.35298 0.702944 0.902895C1.15303 0.452808 1.76348 0.199951 2.4 0.199951H21.6C22.2365 0.199951 22.847 0.452808 23.2971 0.902895C23.7471 1.35298 24 1.96343 24 2.59995V15.4C24 16.0365 23.7471 16.6469 23.2971 17.097C22.847 17.5471 22.2365 17.8 21.6 17.8H2.4C1.76348 17.8 1.15303 17.5471 0.702944 17.097C0.252856 16.6469 0 16.0365 0 15.4L0 2.59995ZM4.8 6.59995C4.8 5.75126 5.13714 4.93733 5.73726 4.33721C6.33737 3.73709 7.15131 3.39995 8 3.39995C8.84869 3.39995 9.66263 3.73709 10.2627 4.33721C10.8629 4.93733 11.2 5.75126 11.2 6.59995C11.2 7.44864 10.8629 8.26258 10.2627 8.86269C9.66263 9.46281 8.84869 9.79995 8 9.79995C7.15131 9.79995 6.33737 9.46281 5.73726 8.86269C5.13714 8.26258 4.8 7.44864 4.8 6.59995ZM19.2 6.59995H14.4V4.99995H19.2V6.59995ZM19.2 11.4H14.4V9.79995H19.2V11.4ZM8 11.4C7.13027 11.3999 6.27772 11.6421 5.53789 12.0994C4.79805 12.5566 4.20016 13.2108 3.8112 13.9888L3.2832 15.0416C3.22202 15.1636 3.19311 15.2994 3.19923 15.4358C3.20534 15.5722 3.24628 15.7048 3.31813 15.8209C3.38999 15.937 3.49038 16.0328 3.60973 16.0992C3.72909 16.1655 3.86344 16.2002 4 16.2H12C12.1364 16.1999 12.2706 16.1651 12.3897 16.0986C12.5089 16.0321 12.609 15.9363 12.6807 15.8202C12.7524 15.7041 12.7931 15.5717 12.7992 15.4354C12.8052 15.2991 12.7763 15.1635 12.7152 15.0416L12.1888 13.9888C11.7998 13.2108 11.202 12.5566 10.4621 12.0994C9.72228 11.6421 8.86973 11.3999 8 11.4Z" fill="#888888"/>
</svg>
