<svg width="68" height="68" viewBox="0 0 68 68" fill="none" xmlns="http://www.w3.org/2000/svg">
<g filter="url(#filter0_d_928_4007)">
<circle cx="34" cy="30" r="22" fill="#1677ff"/>
<circle cx="34" cy="30" r="21" stroke="white" stroke-width="2"/>
</g>
<g clip-path="url(#clip0_928_4007)">
<path d="M43.6 31.2H35.2V30H38.8V27.6C38.7972 26.8528 38.62 26.1165 38.2825 25.4499C37.945 24.7832 37.4566 24.2046 36.856 23.76C37.2651 23.2269 37.5168 22.59 37.5827 21.9213C37.6485 21.2526 37.5259 20.5788 37.2288 19.9762C36.9316 19.3735 36.4717 18.8661 35.9011 18.5112C35.3305 18.1564 34.6719 17.9684 34 17.9684C33.3281 17.9684 32.6695 18.1564 32.0989 18.5112C31.5283 18.8661 31.0684 19.3735 30.7712 19.9762C30.4741 20.5788 30.3515 21.2526 30.4173 21.9213C30.4832 22.59 30.7349 23.2269 31.144 23.76C30.5434 24.2046 30.055 24.7832 29.7175 25.4499C29.38 26.1165 29.2028 26.8528 29.2 27.6V30H32.8V31.2H24.4V34.8H22V42H29.2V34.8H26.8V33.6H32.8V34.8H30.4V42H37.6V34.8H35.2V33.6H41.2V34.8H38.8V42H46V34.8H43.6V31.2Z" fill="white"/>
</g>
<defs>
<filter id="filter0_d_928_4007" x="0" y="0" width="68" height="68" filterUnits="userSpaceOnUse" color-interpolation-filters="sRGB">
<feFlood flood-opacity="0" result="BackgroundImageFix"/>
<feColorMatrix in="SourceAlpha" type="matrix" values="0 0 0 0 0 0 0 0 0 0 0 0 0 0 0 0 0 0 127 0" result="hardAlpha"/>
<feOffset dy="4"/>
<feGaussianBlur stdDeviation="6"/>
<feComposite in2="hardAlpha" operator="out"/>
<feColorMatrix type="matrix" values="0 0 0 0 0.505882 0 0 0 0 0.494118 0 0 0 0 0.694118 0 0 0 0.5 0"/>
<feBlend mode="normal" in2="BackgroundImageFix" result="effect1_dropShadow_928_4007"/>
<feBlend mode="normal" in="SourceGraphic" in2="effect1_dropShadow_928_4007" result="shape"/>
</filter>
<clipPath id="clip0_928_4007">
<rect width="24" height="24" fill="white" transform="translate(22 18)"/>
</clipPath>
</defs>
</svg>
