<svg width="400" height="400" viewBox="0 0 400 400" fill="none" xmlns="http://www.w3.org/2000/svg">
<path d="M369.717 354.558H27.7888C25.4024 354.558 23.468 352.623 23.468 350.237C23.468 347.85 25.4024 345.916 27.7888 345.916H369.717C372.103 345.916 374.038 347.85 374.038 350.237C374.038 352.623 372.103 354.558 369.717 354.558Z" fill="#B6B9D1"/>
<path d="M276.628 235.7H63.9497V244.122H276.628V235.7Z" fill="#C46C3B"/>
<path d="M91.0896 243.398H81.6648V350.237H91.0896V243.398Z" fill="#C46C3B"/>
<path d="M259.746 243.398H250.321V350.237H259.746V243.398Z" fill="#C46C3B"/>
<path d="M91.0896 243.398H81.6648V254.08H91.0896V243.398Z" fill="#AA5327"/>
<path d="M259.746 243.398H250.321V254.08H259.746V243.398Z" fill="#AA5327"/>
<path d="M215.025 231.655H191.882L193.43 216.471H213.477L215.025 231.655Z" fill="#171923"/>
<path d="M221.414 235.374H185.606C185.606 232.974 187.552 231.027 189.953 231.027H217.068C219.468 231.028 221.414 232.974 221.414 235.374Z" fill="#2A2B3D"/>
<path d="M242.206 217.778H164.814C160.61 217.778 157.202 214.37 157.202 210.167V163.469C157.202 159.265 160.61 155.858 164.814 155.858H242.206C246.41 155.858 249.818 159.266 249.818 163.469V210.167C249.818 214.37 246.41 217.778 242.206 217.778Z" fill="#2A2B3D"/>
<path d="M245.878 159.398H161.142V209.732H245.878V159.398Z" fill="#D0E6EF"/>
<path d="M205.906 214.075C205.906 215.398 204.834 216.471 203.51 216.471C202.187 216.471 201.115 215.398 201.115 214.075C201.115 212.752 202.187 211.679 203.51 211.679C204.834 211.679 205.906 212.752 205.906 214.075Z" fill="#171923"/>
<path d="M241.909 162.534H165.113V166.48H241.909V162.534Z" fill="white"/>
<path d="M168.283 164.598C168.283 165.062 167.907 165.438 167.443 165.438C166.979 165.438 166.603 165.062 166.603 164.598C166.603 164.134 166.979 163.758 167.443 163.758C167.907 163.758 168.283 164.134 168.283 164.598Z" fill="#46B549"/>
<path d="M171.418 164.598C171.418 165.062 171.042 165.438 170.578 165.438C170.114 165.438 169.738 165.062 169.738 164.598C169.738 164.134 170.114 163.758 170.578 163.758C171.042 163.758 171.418 164.134 171.418 164.598Z" fill="#FFC55A"/>
<path d="M174.552 164.598C174.552 165.062 174.176 165.438 173.712 165.438C173.248 165.438 172.872 165.062 172.872 164.598C172.872 164.134 173.248 163.758 173.712 163.758C174.176 163.758 174.552 164.134 174.552 164.598Z" fill="#54D15F"/>
<path d="M238.247 163.638H240.804" stroke="#61648A" stroke-width="0.5" stroke-miterlimit="10" stroke-linecap="round"/>
<path d="M238.247 164.506H240.804" stroke="#61648A" stroke-width="0.5" stroke-miterlimit="10" stroke-linecap="round"/>
<path d="M238.247 165.375H240.804" stroke="#61648A" stroke-width="0.5" stroke-miterlimit="10" stroke-linecap="round"/>
<path d="M217.411 170.927H223.363" stroke="#54D15F" stroke-miterlimit="10" stroke-linecap="round"/>
<path d="M224.551 170.927H227.341" stroke="#2D292A" stroke-miterlimit="10" stroke-linecap="round"/>
<path d="M228.371 170.927H237.177" stroke="#54D15F" stroke-miterlimit="10" stroke-linecap="round"/>
<path d="M214.434 174.682H223.172" stroke="#FFC55A" stroke-miterlimit="10" stroke-linecap="round"/>
<path d="M224.36 174.682H229.964" stroke="#46B549" stroke-miterlimit="10" stroke-linecap="round"/>
<path d="M230.994 174.682H234.736" stroke="#54D15F" stroke-miterlimit="10" stroke-linecap="round"/>
<path d="M235.906 174.682H239.649" stroke="#46B549" stroke-miterlimit="10" stroke-linecap="round"/>
<path d="M215.218 178.438H220.273" stroke="#2D292A" stroke-miterlimit="10" stroke-linecap="round"/>
<path d="M221.461 178.438H225.431" stroke="#46B549" stroke-miterlimit="10" stroke-linecap="round"/>
<path d="M226.461 178.438H233.647" stroke="#FFC55A" stroke-miterlimit="10" stroke-linecap="round"/>
<path d="M234.613 178.438H236.844" stroke="#2D292A" stroke-miterlimit="10" stroke-linecap="round"/>
<path d="M212.83 185.949H214.125" stroke="#FFC55A" stroke-miterlimit="10" stroke-linecap="round"/>
<path d="M215.313 185.949H222.658" stroke="#54D15F" stroke-miterlimit="10" stroke-linecap="round"/>
<path d="M223.687 185.949H228.969" stroke="#46B549" stroke-miterlimit="10" stroke-linecap="round"/>
<path d="M229.762 185.949H236.522" stroke="#54D15F" stroke-miterlimit="10" stroke-linecap="round"/>
<path d="M227.771 193.46H237.575" stroke="#FFC55A" stroke-miterlimit="10" stroke-linecap="round"/>
<path d="M215.218 189.705H220.273" stroke="#54D15F" stroke-miterlimit="10" stroke-linecap="round"/>
<path d="M221.461 189.705H224.161" stroke="#46B549" stroke-miterlimit="10" stroke-linecap="round"/>
<path d="M225.191 189.705H230.685" stroke="#2D292A" stroke-miterlimit="10" stroke-linecap="round"/>
<path d="M231.966 189.705H237.458" stroke="#46B549" stroke-miterlimit="10" stroke-linecap="round"/>
<path d="M215.458 193.46H219.313" stroke="#FFC55A" stroke-miterlimit="10" stroke-linecap="round"/>
<path d="M220.501 193.46H222.142" stroke="#2D292A" stroke-miterlimit="10" stroke-linecap="round"/>
<path d="M223.172 193.46H226.553" stroke="#54D15F" stroke-miterlimit="10" stroke-linecap="round"/>
<path d="M221.461 200.515H225.191" stroke="#46B549" stroke-miterlimit="10" stroke-linecap="round"/>
<path d="M226.379 200.515H230.685" stroke="#2D292A" stroke-miterlimit="10" stroke-linecap="round"/>
<path d="M231.714 200.515H238.6" stroke="#FFC55A" stroke-miterlimit="10" stroke-linecap="round"/>
<path d="M218.043 204.27H220.868" stroke="#46B549" stroke-miterlimit="10" stroke-linecap="round"/>
<path d="M222.056 204.27H226.553" stroke="#2D292A" stroke-miterlimit="10" stroke-linecap="round"/>
<path d="M227.582 204.27H231.665" stroke="#FFC55A" stroke-miterlimit="10" stroke-linecap="round"/>
<path d="M232.832 204.27H239.159" stroke="#54D15F" stroke-miterlimit="10" stroke-linecap="round"/>
<path opacity="0.21" d="M213.798 170.927H215.068" stroke="#383952" stroke-miterlimit="10" stroke-linecap="round"/>
<path opacity="0.21" d="M210.467 174.682H211.737" stroke="#383952" stroke-miterlimit="10" stroke-linecap="round"/>
<path opacity="0.21" d="M212.006 178.438H213.276" stroke="#383952" stroke-miterlimit="10" stroke-linecap="round"/>
<path opacity="0.21" d="M208.98 182.194H210.25" stroke="#383952" stroke-miterlimit="10" stroke-linecap="round"/>
<path opacity="0.21" d="M208.98 185.949H210.25" stroke="#383952" stroke-miterlimit="10" stroke-linecap="round"/>
<path opacity="0.21" d="M211.85 189.705H213.119" stroke="#383952" stroke-miterlimit="10" stroke-linecap="round"/>
<path opacity="0.21" d="M212.195 193.46H213.465" stroke="#383952" stroke-miterlimit="10" stroke-linecap="round"/>
<path opacity="0.21" d="M208.98 197.216H210.25" stroke="#383952" stroke-miterlimit="10" stroke-linecap="round"/>
<path opacity="0.21" d="M217.111 200.515H218.381" stroke="#383952" stroke-miterlimit="10" stroke-linecap="round"/>
<path opacity="0.21" d="M214.125 204.27H215.394" stroke="#383952" stroke-miterlimit="10" stroke-linecap="round"/>
<path opacity="0.33" d="M184.34 169.996H165.113V188.167H184.34V169.996Z" fill="#61648A"/>
<path d="M203.567 169.996H186.743V171.643H203.567V169.996Z" fill="#61648A"/>
<path d="M203.567 174.127H186.743V175.774H203.567V174.127Z" fill="#61648A"/>
<path opacity="0.33" d="M203.567 178.258H186.743V179.905H203.567V178.258Z" fill="#61648A"/>
<path opacity="0.33" d="M203.567 182.389H186.743V184.036H203.567V182.389Z" fill="#61648A"/>
<path opacity="0.33" d="M203.567 186.52H186.743V188.167H203.567V186.52Z" fill="#61648A"/>
<path d="M184.34 190.937H165.17V204.271H184.34V190.937Z" fill="#61648A"/>
<path d="M203.567 190.937H186.743V197.216H203.567V190.937Z" fill="#46B549"/>
<path d="M203.567 200.382H186.743V204.27H203.567V200.382Z" fill="#61648A"/>
<path d="M199.562 335.65C198.602 344.486 197.342 348.414 199.562 349.676C201.783 350.938 214.355 349.676 217.082 349.676C219.808 349.676 219.808 343.932 215.264 341.535C210.72 339.138 209.811 330.569 209.811 330.569L199.562 335.65Z" fill="#2A2B3D"/>
<path d="M142.492 335.65C141.531 344.486 140.271 348.414 142.492 349.676C144.713 350.938 157.285 349.676 160.011 349.676C162.738 349.676 162.738 343.932 158.194 341.535C153.65 339.138 152.741 330.569 152.741 330.569L142.492 335.65Z" fill="#2A2B3D"/>
<path d="M157.432 301.576C157.184 311.056 156.496 319.96 155.304 325.488H137.768L131.24 287.232L130.568 283.304C126.848 283.304 123.816 280.296 123.816 276.584V276.464C123.936 268.888 125.248 257.128 131.768 252.608C139.032 247.576 153.6 258.176 154.896 260.792C156.16 263.336 157.032 272.072 157.376 282.56C157.576 288.6 157.6 295.216 157.432 301.576Z" fill="#55597C"/>
<path opacity="0.36" d="M157.432 301.576C151.24 304.248 146.184 320.752 144.848 325.488H137.768L131.24 287.232C132.032 285.928 132.912 284.864 133.848 284.28C137.032 282.288 155.416 282.528 157.376 282.56C157.576 288.6 157.6 295.216 157.432 301.576Z" fill="#383952"/>
<path d="M215.053 228.898C220.642 226.79 224.534 229.241 225.543 230.97C226.552 232.7 227.129 234.286 226.696 235.15C226.264 236.015 224.822 235.15 224.822 235.15C224.822 235.15 219.922 236.063 216.174 235.535C212.426 235.006 215.053 228.898 215.053 228.898Z" fill="#F4B8AB"/>
<path opacity="0.53" d="M215.998 230.522C219.031 232.154 224.33 234.458 224.305 234.85C224.279 235.242 219.554 236.318 216.544 235.48C213.534 234.642 215.998 230.522 215.998 230.522Z" fill="#8BE38E"/>
<path d="M161.954 162.307C164.071 170.977 162.53 181.199 155.098 182.017L155.129 185.067C155.151 187.327 153.338 189.177 151.078 189.199C148.818 189.222 146.968 187.408 146.945 185.148L146.915 182.098C146.915 182.098 140.938 179.627 139.71 175.919C138.483 172.211 139.705 175.324 139.705 175.324L139.025 160.153L162.124 159.923L161.954 162.307Z" fill="#F4B8AB"/>
<path opacity="0.53" d="M155.099 182.018C151.806 182.346 147.983 182.264 147.983 182.264L155.129 185.068L155.099 182.018Z" fill="#8BE38E"/>
<path d="M162.314 163.985C168.874 159.844 167.633 151.3 162.984 154.33C162.984 154.33 155.654 146.791 144.294 150.904C132.935 155.018 131.509 164.53 133.907 170.453C136.306 176.375 151.022 179.456 151.022 179.456L157.825 172.243L162.314 163.985Z" fill="#6D3744"/>
<path d="M162.985 154.33C164.12 151.028 161.269 146.83 158.615 146.83C155.961 146.83 156.108 151.388 156.108 151.388L160.64 157.386L162.985 154.33Z" fill="#6D3744"/>
<path d="M158.086 169.642C158.01 170.671 157.225 179.981 155.098 182.015L145.942 182.14C145.942 182.14 135.836 180.082 134.146 171.684C133.95 170.7 133.814 169.79 133.736 168.946C136.719 175.014 149.322 176.035 156.122 168.376C156.122 168.376 156.982 168.911 158.086 169.642Z" fill="#542633"/>
<path d="M160.651 167.825C158.746 164.431 156.559 165.884 156.138 167.87C155.718 169.855 159.728 174.638 160.702 172.933C161.676 171.227 160.651 167.825 160.651 167.825Z" fill="#F4B8AB"/>
<path opacity="0.53" d="M160.462 168.742C158.776 167.008 157.964 167.735 158.094 169.554C158.223 171.372 160.43 172.654 161.135 172.126C161.839 171.598 160.462 168.742 160.462 168.742Z" fill="#8BE38E"/>
<path d="M216.544 235.48C215.656 237.248 192.616 240.792 186.712 239.616C180.8 238.432 176.08 229.864 176.08 229.864V252.608H131.768C131.768 252.608 127.464 231.704 125.064 217.728C124.08 211.976 123.408 207.4 123.496 205.936C123.672 202.984 124.256 201.36 124.712 200.52V200.512C125.024 199.936 125.272 199.736 125.272 199.736C125.272 199.736 130.584 189.992 143.288 188.512L143.584 184.672C153.92 182.608 161.304 184.672 161.6 186.448C161.896 188.216 161.6 189.96 161.6 189.96C161.6 189.96 174.008 186.736 182.872 199.44C191.728 212.144 195.28 222.176 195.28 222.176C195.28 222.176 212.112 225.728 214.184 227.8C215.032 228.648 215.736 229.8 216.2 230.976C216.872 232.672 217.064 234.432 216.544 235.48Z" fill="#46B549"/>
<path opacity="0.38" d="M216.544 235.48C215.656 237.248 192.616 240.792 186.712 239.616C180.8 238.432 176.08 229.864 176.08 229.864V252.608H131.768C131.768 252.608 127.464 231.704 125.064 217.728L124.712 200.52V200.512C124.712 200.512 135.528 200.872 152.096 200.984C168.664 201.096 169.568 211.352 174.072 217.552C178.584 223.752 181.512 234.232 189.52 234.344C197.52 234.456 214.312 235.808 216 231.024L216.2 230.976C216.872 232.672 217.064 234.432 216.544 235.48Z" fill="#1F8322"/>
<path d="M212.64 324.144C212.552 324.608 212.464 325.056 212.368 325.488H194.84L187.64 283.304H156.112L147.16 272.016L131.768 252.608H176.08C176.752 252.608 177.448 252.616 178.168 252.632C190.248 252.848 209.064 254.952 211.968 260.792C213.008 262.896 213.784 269.248 214.208 277.32C215.016 292.328 214.64 313.304 212.64 324.144Z" fill="#61648A"/>
<path opacity="0.36" d="M212.64 324.144L211.104 325.488H194.84L187.64 283.304H156.112L147.16 272.016L147.984 259.08L153.992 252.608H176.08C176.752 252.608 177.448 252.616 178.168 252.632C175.672 273.968 191.184 279.536 201.112 278.992C206.384 278.704 210.992 277.968 214.208 277.32C215.016 292.328 214.64 313.304 212.64 324.144Z" fill="#383952"/>
<path d="M212.24 335.65H194.781L193.181 325.488H213.84L212.24 335.65Z" fill="#7D819E"/>
<path d="M155.171 335.65H137.711L136.111 325.488H156.771L155.171 335.65Z" fill="#7D819E"/>
<path d="M125.613 341.962H124.024V347.933H125.613V341.962Z" fill="#55597C"/>
<path d="M136.906 341.962H135.317V347.933H136.906V341.962Z" fill="#55597C"/>
<path d="M148.198 341.962H146.609V347.933H148.198V341.962Z" fill="#55597C"/>
<path d="M164.529 283.305H118.6C115.487 283.305 112.963 280.781 112.963 277.667V224.387C112.963 213.646 121.671 204.938 132.412 204.938H150.717C161.459 204.938 170.166 213.646 170.166 224.387V277.667C170.166 280.781 167.643 283.305 164.529 283.305Z" fill="#FFC55A"/>
<path d="M164.529 283.305H118.6C115.487 283.305 112.963 280.781 112.963 277.667V224.387C112.963 213.646 121.671 204.938 132.412 204.938H150.717C161.459 204.938 170.166 213.646 170.166 224.387V277.667C170.166 280.781 167.643 283.305 164.529 283.305Z" fill="#332F81"/>
<path d="M154.741 283.305H108.812C105.698 283.305 103.175 280.781 103.175 277.667V224.387C103.175 213.646 111.882 204.938 122.624 204.938H140.929C151.67 204.938 160.378 213.646 160.378 224.387V277.667C160.378 280.781 157.854 283.305 154.741 283.305Z" fill="url(#paint0_linear_6828_6540)"/>
<path d="M173.706 294.758H124.013C120.85 294.758 118.286 292.194 118.286 289.031C118.286 285.868 120.85 283.304 124.013 283.304H173.706C176.869 283.304 179.433 285.868 179.433 289.031C179.433 292.194 176.869 294.758 173.706 294.758Z" fill="#F49947"/>
<path d="M159.13 294.758H109.438C106.274 294.758 103.71 292.194 103.71 289.031C103.71 285.868 106.274 283.304 109.438 283.304H159.13C162.294 283.304 164.858 285.868 164.858 289.031C164.857 292.194 162.293 294.758 159.13 294.758Z" fill="url(#paint1_linear_6828_6540)"/>
<path d="M138.541 299.395H133.921V340.146H138.541V299.395Z" fill="#14161E"/>
<path d="M142.767 299.395H129.149C128.192 299.395 127.417 298.619 127.417 297.663V294.759H144.5V297.663C144.5 298.62 143.724 299.395 142.767 299.395Z" fill="#1F202D"/>
<path d="M149.578 339.121H122.338V343.174H149.578V339.121Z" fill="#1F202D"/>
<path d="M133.85 250.084H127.801V294.758H133.85V250.084Z" fill="#2A2B3D"/>
<path d="M134.622 241.707H127.03C125.254 241.707 123.814 243.146 123.814 244.922V254.078C123.814 255.854 125.254 257.293 127.03 257.293H134.622C136.397 257.293 137.837 255.854 137.837 254.078V244.922C137.837 243.147 136.397 241.707 134.622 241.707Z" fill="#1F202D"/>
<path d="M131.121 245.598H130.53C128.755 245.598 127.315 247.038 127.315 248.814V250.187C127.315 251.963 128.754 253.402 130.53 253.402H131.121C132.896 253.402 134.336 251.963 134.336 250.187V248.814C134.336 247.038 132.896 245.598 131.121 245.598Z" fill="#2A2B3D"/>
<path d="M127.299 348.337C127.299 349.706 126.189 350.817 124.819 350.817C123.45 350.817 122.339 349.706 122.339 348.337C122.339 346.967 123.45 345.857 124.819 345.857C126.189 345.857 127.299 346.966 127.299 348.337Z" fill="#14161E"/>
<path d="M138.591 348.337C138.591 349.706 137.481 350.817 136.111 350.817C134.742 350.817 133.631 349.706 133.631 348.337C133.631 346.967 134.742 345.857 136.111 345.857C137.481 345.857 138.591 346.966 138.591 348.337Z" fill="#14161E"/>
<path d="M149.884 348.337C149.884 349.706 148.774 350.817 147.404 350.817C146.034 350.817 144.924 349.706 144.924 348.337C144.924 346.967 146.034 345.857 147.404 345.857C148.774 345.857 149.884 346.966 149.884 348.337Z" fill="#14161E"/>
<path d="M88.1465 233.345L63.9497 183.538L90.4113 158.396" stroke="#61648A" stroke-width="4" stroke-miterlimit="10"/>
<path d="M68.5784 183.538C68.5784 186.094 66.5064 188.167 63.9496 188.167C61.3928 188.167 59.3208 186.095 59.3208 183.538C59.3208 180.982 61.3928 178.91 63.9496 178.91C66.5064 178.91 68.5784 180.982 68.5784 183.538Z" fill="#61648A" stroke="#2A2B3D" stroke-width="4" stroke-miterlimit="10"/>
<path d="M89.1985 149.567C91.2889 148.122 94.1625 148.718 95.5065 150.874L96.4561 152.398L89.2545 157.161L88.3745 156.151C86.6305 154.15 87.0153 151.077 89.1985 149.567Z" fill="#61648A"/>
<path d="M109.848 172.786C109.848 174.944 108.099 176.692 105.942 176.692C103.786 176.692 102.037 174.943 102.037 172.786C102.037 170.63 103.786 168.881 105.942 168.881C108.099 168.881 109.848 170.63 109.848 172.786Z" fill="#FFC55A"/>
<path d="M89.2537 157.161L96.5441 175.765C97.0409 177.033 98.4849 177.642 99.7345 177.1C102.866 175.742 108.409 172.997 111.308 169.508C112.121 168.53 112.029 167.087 111.104 166.215L96.4553 152.398L89.2537 157.161Z" fill="#2A2B3D"/>
<path d="M99.9496 231.441H76.344V235.249H99.9496V231.441Z" fill="#2A2B3D"/>
<path d="M240.805 57.2888H166.604V131.49H240.805V57.2888Z" fill="#D0E6EF"/>
<path d="M219.096 60.3875C220.803 53.1023 216.28 45.8127 208.995 44.1059C201.71 42.3991 194.42 46.9213 192.714 54.2065C191.007 61.4918 195.529 68.7813 202.814 70.4881C210.099 72.195 217.389 67.6728 219.096 60.3875Z" fill="#61648A"/>
<path d="M230.054 84.132H187.195V91.6256H230.054V84.132Z" fill="#61648A"/>
<path d="M187.195 84.132H179.702V91.6256H187.195V84.132Z" fill="#8183A3"/>
<path d="M230.054 95.704H187.195V103.198H230.054V95.704Z" fill="#61648A"/>
<path opacity="0.33" d="M230.054 107.276H208.226V111.022H230.054V107.276Z" fill="#61648A"/>
<path d="M187.195 95.704H179.702V103.198H187.195V95.704Z" fill="#8183A3"/>
<path d="M270.979 63.488H234.3V82.1464H270.979V63.488Z" fill="#46B549"/>
<path d="M244.747 79.6064L238.521 90.7496L254.908 80.5896L244.747 79.6064Z" fill="#46B549"/>
<path d="M246.085 72.8176C246.085 73.768 245.315 74.5384 244.364 74.5384C243.414 74.5384 242.643 73.768 242.643 72.8176C242.643 71.8672 243.414 71.0968 244.364 71.0968C245.315 71.0968 246.085 71.8672 246.085 72.8176Z" fill="white"/>
<path d="M254.361 72.8176C254.361 73.768 253.591 74.5384 252.64 74.5384C251.69 74.5384 250.919 73.768 250.919 72.8176C250.919 71.8672 251.69 71.0968 252.64 71.0968C253.591 71.0968 254.361 71.8672 254.361 72.8176Z" fill="white"/>
<path d="M260.915 74.5384C261.866 74.5384 262.636 73.768 262.636 72.8176C262.636 71.8672 261.866 71.0968 260.915 71.0968C259.965 71.0968 259.195 71.8672 259.195 72.8176C259.195 73.768 259.965 74.5384 260.915 74.5384Z" fill="white"/>
<path d="M172.872 105.468H140.815V127.676H172.872V105.468Z" fill="url(#paint2_linear_6828_6540)"/>
<path d="M259.393 330.569C260.353 339.405 261.315 348.414 259.094 349.676C256.873 350.938 244.301 349.676 241.575 349.676C238.849 349.676 238.849 343.932 243.393 341.535C247.937 339.138 248.845 330.569 248.845 330.569H259.393Z" fill="#46B549"/>
<path d="M314.176 335.65C315.137 344.486 316.397 348.414 314.176 349.676C311.955 350.938 299.383 349.676 296.657 349.676C293.93 349.676 293.93 343.932 298.474 341.535C303.018 339.138 303.041 334.706 303.041 334.706L314.176 335.65Z" fill="#46B549"/>
<path d="M241.124 117.675C237.41 125.121 237.863 132.713 245.285 133.026C252.707 133.338 241.124 117.675 241.124 117.675Z" fill="#542633"/>
<path d="M242.294 125.461C244.626 134.606 251.142 143.383 258.487 140.454L259.974 143.317C261.076 145.438 263.689 146.264 265.809 145.162C267.93 144.06 268.757 141.447 267.654 139.326L266.167 136.464C266.167 136.464 270.519 131.189 269.823 127.118C269.126 123.046 269.533 126.559 269.533 126.559L262.63 112.058L240.952 123.321L242.294 125.461Z" fill="#F4B8AB"/>
<path opacity="0.53" d="M258.487 140.454C261.724 139.126 265.252 137.15 265.252 137.15L259.974 143.318L258.487 140.454Z" fill="#8BE38E"/>
<path d="M270.04 124.64C269.8 129.256 268.616 133.256 267.728 134.224C265.808 136.296 259.24 138.592 259.24 138.592C256.248 138.192 251.224 136.016 247.152 132.608C242.832 129 239.584 124.016 240.952 118.296C243.28 108.576 257.592 103.952 265.256 109.976C269.352 113.2 270.32 119.328 270.04 124.64Z" fill="#6D3744"/>
<path d="M270.04 124.64C269.8 129.256 268.616 133.256 267.728 134.224C265.808 136.296 259.24 138.592 259.24 138.592C256.248 138.192 251.224 136.016 247.152 132.608C247.272 131.128 247.68 129.72 248.648 128.856C251.488 126.304 259.808 132.288 261.688 122.656L263.44 122.056C263.44 122.056 267.264 123.544 270.04 124.64Z" fill="#542633"/>
<path d="M246.252 129.964C246.345 125.85 249.108 126.119 250.487 127.764C251.866 129.408 250.499 135.866 248.742 134.758C246.986 133.649 246.252 129.964 246.252 129.964Z" fill="#F4B8AB"/>
<path opacity="0.53" d="M246.885 130.726C247.597 128.27 248.716 128.546 249.498 130.307C250.281 132.07 248.858 134.362 247.938 134.219C247.017 134.076 246.885 130.726 246.885 130.726Z" fill="#8BE38E"/>
<path d="M264.109 112.747C260.558 114.292 258.98 119.208 261.69 122.658C263.578 125.062 266.934 123.961 266.934 123.961L264.109 112.747Z" fill="#FFC55A"/>
<path d="M262.326 118.371C261.217 112.926 266.853 108.304 271.783 110.869C273.054 111.53 274.085 112.573 274.624 113.921C276.473 118.542 276.357 124.538 282.017 125.352C282.017 125.352 275.201 132.636 268.385 128.246C264.567 125.787 262.982 121.589 262.326 118.371Z" fill="#6D3744"/>
<path d="M282.677 139.487C293.69 139.68 305.574 153.787 308.927 163.038C312.279 172.287 303.442 183.538 303.442 183.538L282.677 139.487Z" fill="#424866"/>
<path d="M215.998 191.127C211.254 185.053 209.08 184.718 207.573 185.89C206.067 187.061 200.379 190.342 199.375 191.127C198.371 191.913 199.542 193.084 201.383 192.75C203.224 192.415 203.224 192.415 203.224 192.415C203.224 192.415 202.387 196.766 204.562 198.773C206.737 200.781 213.597 197.936 213.597 197.936L215.998 191.127Z" fill="#F4B8AB"/>
<path d="M303.136 231.44C302.072 236.16 299.12 244.736 295.256 255.04C283.152 287.296 262.088 336.416 262.088 336.416L244.176 334.704L270.896 201.936L271.464 199.104C271.464 199.104 283.336 181.576 292.584 185.536C294.432 186.328 296.144 187.856 297.648 189.96C299.672 192.76 301.344 196.568 302.544 200.976C304.952 209.8 305.48 221.04 303.136 231.44Z" fill="url(#paint3_linear_6828_6540)"/>
<path d="M316.552 335.864L301.152 336.416L295.256 255.04L292.584 218.208V189.96H310.144C312.976 193.616 315.424 198.672 317.44 204.936C317.448 204.936 317.448 204.936 317.448 204.936C326.112 231.8 326.896 280.768 316.552 335.864Z" fill="url(#paint4_linear_6828_6540)"/>
<path d="M294.796 256.265L309.685 229.04L296.358 270.276L294.796 256.265Z" fill="#332F81"/>
<path d="M317.44 204.936C317.2 204.816 311.952 202.336 302.544 200.976C299.624 200.552 296.288 200.24 292.584 200.144C286.376 199.968 279.104 200.408 270.896 201.936L271.464 199.104C271.464 199.104 283.336 181.576 292.584 185.536C294.432 186.328 296.144 187.856 297.648 189.96H310.144C312.976 193.616 315.424 198.672 317.44 204.936Z" fill="#332F81"/>
<path d="M310.144 189.96L271.464 199.104L258.592 182.016C258.592 182.016 251.64 198.496 247.024 200.936C242.408 203.368 213.24 199.408 213.24 199.408C212.48 198.544 212.408 196.872 212.64 195.072H212.648C213.048 191.824 214.432 188.168 214.432 188.168L237.312 186C237.312 186 244.24 167.344 247.024 158.392C249.808 149.448 255.696 148.144 255.696 148.144C255.696 148.144 255.808 145.936 255.64 145.304C255.464 144.664 264.992 137.608 271.464 137.608L272.968 138.976C272.968 138.976 279.064 136.328 286.984 141.816C291.152 144.696 297.336 157.84 302.264 169.672V169.68C306.712 180.36 310.144 189.96 310.144 189.96Z" fill="#61648A"/>
<path opacity="0.36" d="M310.144 189.96L271.464 199.104L258.592 182.016C258.592 182.016 251.64 198.496 247.024 200.936C242.408 203.368 213.24 199.408 213.24 199.408C212.48 198.544 212.408 196.872 212.64 195.072H212.648C220.736 191.384 240.872 200.528 245.88 194.08C250.888 187.624 256.176 169.44 258.6 174.552C261.016 179.656 265.976 187.376 272.104 188.696C278.224 190.016 303.432 183.536 302.264 169.68C306.712 180.36 310.144 189.96 310.144 189.96Z" fill="#383952"/>
<defs>
<linearGradient id="paint0_linear_6828_6540" x1="107.602" y1="217.673" x2="157.346" y2="219.165" gradientUnits="userSpaceOnUse">
<stop stop-color="#322E80"/>
<stop offset="1" stop-color="#322E80" stop-opacity="0.7"/>
</linearGradient>
<linearGradient id="paint1_linear_6828_6540" x1="108.442" y1="285.165" x2="159.222" y2="296.301" gradientUnits="userSpaceOnUse">
<stop stop-color="#322E80"/>
<stop offset="1" stop-color="#322E80" stop-opacity="0.7"/>
</linearGradient>
<linearGradient id="paint2_linear_6828_6540" x1="143.296" y1="109.077" x2="171.1" y2="110.726" gradientUnits="userSpaceOnUse">
<stop stop-color="#322E80"/>
<stop offset="1" stop-color="#322E80" stop-opacity="0.7"/>
</linearGradient>
<linearGradient id="paint3_linear_6828_6540" x1="248.855" y1="209.566" x2="301.474" y2="210.429" gradientUnits="userSpaceOnUse">
<stop stop-color="#322E80"/>
<stop offset="1" stop-color="#322E80" stop-opacity="0.7"/>
</linearGradient>
<linearGradient id="paint4_linear_6828_6540" x1="295.025" y1="213.759" x2="322.479" y2="214.002" gradientUnits="userSpaceOnUse">
<stop stop-color="#322E80"/>
<stop offset="1" stop-color="#322E80" stop-opacity="0.7"/>
</linearGradient>
</defs>
</svg>
