<svg width="12" height="16" viewBox="0 0 12 16" fill="none" xmlns="http://www.w3.org/2000/svg">
<path d="M6 0.907715C5.28266 0.911477 4.57319 1.04293 3.91215 1.29455C3.25111 1.54617 2.65149 1.91303 2.14757 2.37413C1.64365 2.83524 1.24532 3.38154 0.975377 3.98181C0.705431 4.58207 0.569162 5.2245 0.574362 5.87237C0.574362 9.59615 6 15.0921 6 15.0921C6 15.0921 11.4256 9.59615 11.4256 5.87237C11.4308 5.2245 11.2946 4.58207 11.0246 3.98181C10.7547 3.38154 10.3564 2.83524 9.85244 2.37413C9.34852 1.91303 8.74889 1.54617 8.08785 1.29455C7.42681 1.04293 6.71734 0.911477 6 0.907715ZM6 7.64456C5.61062 7.64912 5.22853 7.54901 4.90231 7.35694C4.57608 7.16488 4.32046 6.88955 4.16794 6.56594C4.01541 6.24233 3.97288 5.88507 4.04574 5.53958C4.1186 5.19408 4.30357 4.87596 4.57712 4.62564C4.85067 4.37533 5.20046 4.20414 5.58202 4.13383C5.96357 4.06352 6.35966 4.09727 6.71992 4.23079C7.08018 4.3643 7.38835 4.59156 7.60525 4.88366C7.82214 5.17576 7.93797 5.51952 7.938 5.87122C7.93968 6.10259 7.89088 6.33199 7.7944 6.54633C7.69791 6.76067 7.55562 6.95574 7.37566 7.12041C7.1957 7.28508 6.98159 7.41612 6.74555 7.50606C6.50951 7.59599 6.25618 7.64306 6 7.64456Z" fill="#312B81"/>
</svg>
