<svg width="10" height="14" viewBox="0 0 10 14" fill="none" xmlns="http://www.w3.org/2000/svg">
<path d="M5 0C4.33896 0.00346683 3.68515 0.124603 3.07599 0.356479C2.46683 0.588355 1.91426 0.926421 1.44988 1.35134C0.985505 1.77626 0.618439 2.2797 0.369677 2.83285C0.120916 3.38601 -0.00466028 3.97804 0.000132176 4.57506C0.000132176 8.00662 5 13.0713 5 13.0713C5 13.0713 9.99987 8.00662 9.99987 4.57506C10.0047 3.97804 9.87909 3.38601 9.63032 2.83285C9.38156 2.2797 9.0145 1.77626 8.55012 1.35134C8.08575 0.926421 7.53317 0.588355 6.92401 0.356479C6.31485 0.124603 5.66104 0.00346683 5 0ZM5 6.20818C4.64117 6.21238 4.28907 6.12013 3.98845 5.94313C3.68782 5.76614 3.45226 5.51241 3.31171 5.2142C3.17115 4.91599 3.13196 4.58676 3.1991 4.26838C3.26624 3.95 3.43669 3.65684 3.68878 3.42617C3.94087 3.1955 4.26321 3.03774 4.61482 2.97295C4.96643 2.90816 5.33143 2.93926 5.66342 3.0623C5.99542 3.18534 6.2794 3.39476 6.47928 3.66394C6.67915 3.93312 6.78589 4.2499 6.78592 4.574C6.78747 4.78722 6.7425 4.99862 6.65358 5.19613C6.56467 5.39365 6.43355 5.57341 6.26771 5.72516C6.10187 5.87691 5.90456 5.99767 5.68704 6.08055C5.46953 6.16342 5.23607 6.20679 5 6.20818Z" fill="#0886D2"/>
</svg>
