<svg xmlns="http://www.w3.org/2000/svg" xmlns:xlink="http://www.w3.org/1999/xlink" width="30" height="31" viewBox="0 0 30 31">
  <defs>
    <linearGradient id="linear-gradient" x1="0.064" y1="0.141" x2="1.469" y2="2.046" gradientUnits="objectBoundingBox">
      <stop offset="0" stop-color="#e5e3ff" stop-opacity="0.122"/>
      <stop offset="1" stop-color="#6053ff" stop-opacity="0.133"/>
    </linearGradient>
    <filter id="Rectangle_1970" x="0" y="0" width="30" height="31" filterUnits="userSpaceOnUse">
      <feOffset dy="1" input="SourceAlpha"/>
      <feGaussianBlur stdDeviation="1" result="blur"/>
      <feFlood flood-opacity="0.059"/>
      <feComposite operator="in" in2="blur"/>
      <feComposite in="SourceGraphic"/>
    </filter>
    <filter id="Rectangle_1976" x="0" y="0" width="30" height="31" filterUnits="userSpaceOnUse">
      <feOffset dy="1" input="SourceAlpha"/>
      <feGaussianBlur stdDeviation="1" result="blur-2"/>
      <feFlood flood-opacity="0.059"/>
      <feComposite operator="in" in2="blur-2"/>
      <feComposite in="SourceGraphic"/>
    </filter>
  </defs>
  <g id="Group_2107" data-name="Group 2107" transform="translate(-367 -221)">
    <g transform="matrix(1, 0, 0, 1, 367, 221)" filter="url(#Rectangle_1970)">
      <g id="Rectangle_1970-2" data-name="Rectangle 1970" transform="translate(3 2)" stroke="#fff" stroke-width="0.5" fill="url(#linear-gradient)">
        <rect width="24" height="25" rx="5" stroke="none"/>
        <rect x="0.25" y="0.25" width="23.5" height="24.5" rx="4.75" fill="none"/>
      </g>
    </g>
    <g id="Group_2096" data-name="Group 2096" transform="translate(375.815 227.498)">
      <path id="Icon_open-map-marker" data-name="Icon open-map-marker" d="M6.359,0A6.351,6.351,0,0,0,0,6.359c0,4.24,6.359,10.6,6.359,10.6s6.359-6.359,6.359-10.6A6.351,6.351,0,0,0,6.359,0Zm0,2.12a4.24,4.24,0,1,1-4.24,4.24A4.238,4.238,0,0,1,6.359,2.12Z" transform="translate(0 0)" fill="#817eb1"/>
      <circle id="Ellipse_307" data-name="Ellipse 307" cx="2.494" cy="2.494" r="2.494" transform="translate(3.99 3.99)" fill="#817eb1"/>
    </g>
    <g transform="matrix(1, 0, 0, 1, 367, 221)" filter="url(#Rectangle_1976)">
      <g id="Rectangle_1976-2" data-name="Rectangle 1976" transform="translate(3 2)" stroke="#fff" stroke-width="0.5" fill="url(#linear-gradient)">
        <rect width="24" height="25" rx="5" stroke="none"/>
        <rect x="0.25" y="0.25" width="23.5" height="24.5" rx="4.75" fill="none"/>
      </g>
    </g>
  </g>
</svg>
