<svg width="20" height="20" viewBox="0 0 20 20" fill="none" xmlns="http://www.w3.org/2000/svg">
<path d="M10 0.833313C8.54131 0.833313 7.14236 1.41278 6.11091 2.44423C5.07946 3.47568 4.5 4.87462 4.5 6.33331C4.5 7.63406 4.77683 8.48565 5.53125 9.42706L10 14.5833L14.4688 9.42706C15.2232 8.48565 15.5 7.63406 15.5 6.33331C15.5 4.87462 14.9205 3.47568 13.8891 2.44423C12.8576 1.41278 11.4587 0.833313 10 0.833313Z" stroke="#1677FF" stroke-linecap="round" stroke-linejoin="round"/>
<path d="M3.5835 12.881C1.88675 13.5475 0.833496 14.4742 0.833496 15.5C0.833496 17.5258 4.93741 19.1666 10.0002 19.1666C15.0629 19.1666 19.1668 17.5258 19.1668 15.5C19.1668 14.4742 18.1136 13.5475 16.4168 12.881" stroke="#1677FF" stroke-linecap="round" stroke-linejoin="round"/>
<path d="M10.0002 7.24996C10.5064 7.24996 10.9168 6.83955 10.9168 6.33329C10.9168 5.82703 10.5064 5.41663 10.0002 5.41663C9.4939 5.41663 9.0835 5.82703 9.0835 6.33329C9.0835 6.83955 9.4939 7.24996 10.0002 7.24996Z" stroke="#1677FF" stroke-width="2" stroke-linecap="round" stroke-linejoin="round"/>
</svg>
