<svg width="40" height="40" viewBox="0 0 40 40" fill="none" xmlns="http://www.w3.org/2000/svg">
<circle cx="20" cy="20" r="20" fill="#E1EDFF"/>
<g clip-path="url(#clip0_1194_5354)">
<path d="M17.7246 29.185H9.96617C9.69461 29.185 9.47461 28.965 9.47461 28.6935V11.1519C9.47461 10.8803 9.69461 10.6603 9.96617 10.6603H29.0271C29.2987 10.6603 29.5187 10.8803 29.5187 11.1519V18.4222C29.5187 18.6938 29.2987 18.9138 29.0271 18.9138C28.7555 18.9138 28.5355 18.6938 28.5355 18.4222V11.6469H10.4577V28.2019H17.7246C17.9962 28.2019 18.2162 28.4219 18.2162 28.6935C18.2162 28.965 17.9962 29.185 17.7246 29.185Z" fill="#1677FF"/>
<path d="M29.0237 15.1497H9.96617C9.69461 15.1497 9.47461 14.9297 9.47461 14.6581C9.47461 14.3866 9.69461 14.1666 9.96617 14.1666H29.0271C29.2987 14.1666 29.5187 14.3866 29.5187 14.6581C29.5187 14.9297 29.2952 15.1497 29.0237 15.1497ZM13.5618 13.2522C13.2902 13.2522 13.0702 13.0322 13.0702 12.7606V9.495C13.0702 9.22344 13.2902 9.00344 13.5618 9.00344C13.8334 9.00344 14.0534 9.22344 14.0534 9.495V12.7606C14.0534 13.0322 13.8334 13.2522 13.5618 13.2522ZM25.428 13.2522C25.1565 13.2522 24.9365 13.0322 24.9365 12.7606V9.495C24.933 9.22 25.1565 9 25.428 9C25.6996 9 25.9196 9.22 25.9196 9.49156V12.7572C25.9196 13.0322 25.6996 13.2522 25.428 13.2522Z" fill="#1677FF"/>
<path d="M22.0384 28.0369C20.6806 28.0369 19.5737 26.93 19.5737 25.5722C19.5737 24.2144 20.6806 23.1075 22.0384 23.1075C23.3962 23.1075 24.5031 24.2144 24.5031 25.5722C24.5031 26.93 23.3962 28.0369 22.0384 28.0369ZM22.0384 24.094C21.2237 24.094 20.5603 24.7575 20.5603 25.5722C20.5603 26.3869 21.2237 27.0503 22.0384 27.0503C22.8531 27.0503 23.5165 26.3869 23.5165 25.5722C23.5165 24.7575 22.8531 24.094 22.0384 24.094Z" fill="#1677FF"/>
<path d="M24.9776 31C24.706 31 24.486 30.78 24.486 30.5084C24.486 29.1472 23.3757 28.0369 22.0144 28.0369C20.6807 28.0369 19.5979 29.1197 19.5979 30.4534V30.5084C19.5979 30.78 19.3779 31 19.1063 31C18.8347 31 18.6147 30.78 18.6147 30.5084V30.4534C18.6147 28.5765 20.141 27.0503 22.0179 27.0503C23.9222 27.0503 25.476 28.6006 25.476 30.5084C25.4691 30.78 25.2491 31 24.9776 31ZM27.0985 23.8465C25.7407 23.8465 24.6338 22.7397 24.6338 21.3819C24.6338 20.0241 25.7407 18.9172 27.0985 18.9172C28.4563 18.9172 29.5632 20.0241 29.5632 21.3819C29.5632 22.7397 28.4563 23.8465 27.0985 23.8465ZM27.0985 19.9037C26.2838 19.9037 25.6204 20.5672 25.6204 21.3819C25.6204 22.1965 26.2838 22.86 27.0985 22.86C27.9132 22.86 28.5766 22.1965 28.5766 21.3819C28.5766 20.5672 27.9132 19.9037 27.0985 19.9037Z" fill="#1677FF"/>
<path d="M30.0339 26.8097C29.7623 26.8097 29.5423 26.5897 29.5423 26.3182C29.5423 24.9569 28.432 23.8466 27.0707 23.8466C26.4073 23.8466 26.0257 24.0391 25.4792 24.4447C25.2592 24.6063 24.9532 24.5582 24.7917 24.3416C24.6301 24.1216 24.6782 23.8157 24.8948 23.6541C25.572 23.1522 26.146 22.8635 27.0742 22.8635C28.9785 22.8635 30.5323 24.4138 30.5323 26.3216C30.5289 26.5897 30.3089 26.8097 30.0339 26.8097Z" fill="#1677FF"/>
</g>
<defs>
<clipPath id="clip0_1194_5354">
<rect width="22" height="22" fill="white" transform="translate(9 9)"/>
</clipPath>
</defs>
</svg>
