<svg width="16" height="16" viewBox="0 0 16 16" fill="none" xmlns="http://www.w3.org/2000/svg">
<path id="Vector" d="M8.00307 5.82159C7.43856 5.82159 6.90992 6.02903 6.50966 6.40813C6.11129 6.78724 5.8904 7.28794 5.8904 7.82263C5.8904 8.35731 6.11129 8.85801 6.50966 9.23712C6.90992 9.61444 7.43856 9.82366 8.00307 9.82366C8.56758 9.82366 9.09622 9.61444 9.49648 9.23712C9.89485 8.85801 10.1157 8.35731 10.1157 7.82263C10.1157 7.28794 9.89485 6.78724 9.49648 6.40813C9.30098 6.22154 9.06829 6.07361 8.81192 5.97292C8.55555 5.87223 8.28061 5.82079 8.00307 5.82159ZM15.7873 10.0329L14.5525 9.03326C14.6111 8.6935 14.6413 8.34658 14.6413 8.00145C14.6413 7.65632 14.6111 7.30761 14.5525 6.96964L15.7873 5.97002C15.8806 5.89439 15.9473 5.79365 15.9787 5.68121C16.0101 5.56877 16.0045 5.44996 15.9629 5.34056L15.9459 5.29406C15.6061 4.39403 15.0969 3.55976 14.443 2.83167L14.4091 2.79411C14.3297 2.70569 14.2238 2.64213 14.1055 2.6118C13.9872 2.58147 13.862 2.58581 13.7464 2.62423L12.2133 3.14103C11.6469 2.70113 11.0163 2.35421 10.3329 2.1128L10.0364 0.594588C10.0141 0.480216 9.95551 0.374997 9.8685 0.292909C9.7815 0.21082 9.67018 0.155749 9.54935 0.135012L9.49837 0.12607C8.51661 -0.0420235 7.48198 -0.0420235 6.50022 0.12607L6.44925 0.135012C6.32841 0.155749 6.21709 0.21082 6.13009 0.292909C6.04308 0.374997 5.9845 0.480216 5.96214 0.594588L5.66384 2.11995C4.98685 2.36329 4.3562 2.70936 3.7966 3.14461L2.25222 2.62423C2.13661 2.5855 2.01129 2.58101 1.89292 2.61136C1.77455 2.6417 1.66873 2.70544 1.58953 2.79411L1.55555 2.83167C0.902849 3.56053 0.393804 4.3946 0.0526962 5.29406L0.0357042 5.34056C-0.0492559 5.56409 0.0206002 5.81444 0.211288 5.97002L1.46115 6.98037C1.40262 7.31656 1.3743 7.6599 1.3743 7.99966C1.3743 8.343 1.40262 8.68634 1.46115 9.01895L0.215064 10.0293C0.121789 10.1049 0.0550306 10.2057 0.0236662 10.3181C-0.00769818 10.4305 -0.00218246 10.5494 0.0394801 10.6588L0.0564721 10.7053C0.3982 11.6047 0.902297 12.4363 1.55932 13.1677L1.59331 13.2052C1.6727 13.2936 1.77853 13.3572 1.89682 13.3875C2.01512 13.4178 2.14035 13.4135 2.25599 13.3751L3.80038 12.8547C4.363 13.2928 4.98982 13.6397 5.66761 13.8794L5.96592 15.4047C5.98828 15.5191 6.04686 15.6243 6.13386 15.7064C6.22087 15.7885 6.33218 15.8436 6.45302 15.8643L6.504 15.8733C7.49542 16.0422 8.51073 16.0422 9.50214 15.8733L9.55312 15.8643C9.67396 15.8436 9.78527 15.7885 9.87228 15.7064C9.95929 15.6243 10.0179 15.5191 10.0402 15.4047L10.3366 13.8865C11.0201 13.6433 11.6507 13.2982 12.2171 12.8583L13.7501 13.3751C13.8658 13.4138 13.9911 13.4183 14.1094 13.388C14.2278 13.3576 14.3336 13.2939 14.4128 13.2052L14.4468 13.1677C15.1038 12.4327 15.6079 11.6047 15.9497 10.7053L15.9667 10.6588C16.0478 10.437 15.978 10.1885 15.7873 10.0329ZM8.00307 10.9663C6.16982 10.9663 4.68396 9.559 4.68396 7.82263C4.68396 6.08625 6.16982 4.67891 8.00307 4.67891C9.83632 4.67891 11.3222 6.08625 11.3222 7.82263C11.3222 9.559 9.83632 10.9663 8.00307 10.9663Z" fill="#322E80"/>
</svg>
