<svg width="19" height="19" viewBox="0 0 19 19" fill="none" xmlns="http://www.w3.org/2000/svg">
<g id="solar:logout-2-bold">
<g id="Group">
<path id="Vector" fill-rule="evenodd" clip-rule="evenodd" d="M12.7648 9.50029C12.7648 9.34282 12.7022 9.19179 12.5909 9.08044C12.4795 8.96909 12.3285 8.90654 12.171 8.90654H3.48406L5.03651 7.57654C5.09577 7.5258 5.14446 7.46389 5.17979 7.39434C5.21513 7.3248 5.23641 7.24897 5.24244 7.17119C5.24847 7.09341 5.23912 7.01521 5.21493 6.94105C5.19073 6.86688 5.15217 6.79821 5.10143 6.73895C5.0507 6.6797 4.98879 6.63101 4.91924 6.59568C4.84969 6.56034 4.77386 6.53905 4.69608 6.53303C4.61831 6.527 4.5401 6.53635 4.46594 6.56054C4.39178 6.58474 4.32311 6.6233 4.26385 6.67404L1.49301 9.04904C1.42783 9.10478 1.3755 9.17398 1.33962 9.25188C1.30374 9.32978 1.28516 9.41452 1.28516 9.50029C1.28516 9.58605 1.30374 9.6708 1.33962 9.7487C1.3755 9.8266 1.42783 9.8958 1.49301 9.95154L4.26385 12.3265C4.38353 12.429 4.53901 12.4797 4.69608 12.4675C4.85316 12.4554 4.99897 12.3813 5.10143 12.2616C5.20389 12.1419 5.25462 11.9865 5.24244 11.8294C5.23027 11.6723 5.15619 11.5265 5.03651 11.424L3.48485 10.094H12.171C12.3285 10.094 12.4795 10.0315 12.5909 9.92013C12.7022 9.80878 12.7648 9.65776 12.7648 9.50029Z" fill="#322E80"/>
<path id="Vector_2" d="M7.42188 6.3335C7.42188 6.88925 7.42187 7.16712 7.55567 7.36741C7.61329 7.45353 7.68726 7.5275 7.77338 7.58512C7.97367 7.71891 8.25154 7.71891 8.80729 7.71891H12.1719C12.6443 7.71891 13.0974 7.90658 13.4314 8.24063C13.7655 8.57468 13.9531 9.02775 13.9531 9.50016C13.9531 9.97258 13.7655 10.4256 13.4314 10.7597C13.0974 11.0937 12.6443 11.2814 12.1719 11.2814H8.80729C8.25154 11.2814 7.97367 11.2814 7.77338 11.4144C7.68718 11.4723 7.61321 11.5465 7.55567 11.6329C7.42187 11.8332 7.42188 12.1111 7.42188 12.6668C7.42188 14.9057 7.42187 16.0259 8.11775 16.721C8.81283 17.4168 9.93225 17.4168 12.1711 17.4168H12.9628C15.2032 17.4168 16.3218 17.4168 17.0177 16.721C17.7135 16.0259 17.7135 14.9057 17.7135 12.6668V6.3335C17.7135 4.09466 17.7135 2.97445 17.0177 2.27937C16.3218 1.5835 15.2024 1.5835 12.9635 1.5835H12.1719C9.93225 1.5835 8.81283 1.5835 8.11775 2.27937C7.42187 2.97445 7.42188 4.09466 7.42188 6.3335Z" fill="#322E80"/>
</g>
</g>
</svg>
