<svg width="21" height="21" viewBox="0 0 21 21" fill="none" xmlns="http://www.w3.org/2000/svg">
<g id="Company">
<path id="Vector" d="M18.0595 17.64H16.7995V6.30002C16.8058 6.20816 16.781 6.11685 16.7292 6.04071C16.6775 5.96458 16.6017 5.90799 16.5139 5.88002L13.4395 4.59482V17.64H12.5995V2.94002C12.5995 2.82863 12.5553 2.7218 12.4765 2.64303C12.3978 2.56427 12.2909 2.52002 12.1795 2.52002H4.61953C4.50814 2.52002 4.40131 2.56427 4.32255 2.64303C4.24378 2.7218 4.19953 2.82863 4.19953 2.94002V17.64H2.93953C2.82814 17.64 2.72131 17.6843 2.64255 17.763C2.56378 17.8418 2.51953 17.9486 2.51953 18.06C2.51953 18.1714 2.56378 18.2782 2.64255 18.357C2.72131 18.4358 2.82814 18.48 2.93953 18.48H18.0595C18.1709 18.48 18.2778 18.4358 18.3565 18.357C18.4353 18.2782 18.4795 18.1714 18.4795 18.06C18.4795 17.9486 18.4353 17.8418 18.3565 17.763C18.2778 17.6843 18.1709 17.64 18.0595 17.64ZM14.6995 7.56002H15.5395C15.6509 7.56002 15.7578 7.60427 15.8365 7.68303C15.9153 7.7618 15.9595 7.86863 15.9595 7.98002C15.9574 8.09074 15.9124 8.19632 15.8341 8.27462C15.7558 8.35293 15.6502 8.39787 15.5395 8.40002H14.6995C14.5888 8.39787 14.4832 8.35293 14.4049 8.27462C14.3266 8.19632 14.2817 8.09074 14.2795 7.98002C14.2795 7.86863 14.3238 7.7618 14.4025 7.68303C14.4813 7.60427 14.5881 7.56002 14.6995 7.56002ZM14.6995 10.08H15.5395C15.6509 10.08 15.7578 10.1243 15.8365 10.203C15.9153 10.2818 15.9595 10.3886 15.9595 10.5C15.9595 10.6114 15.9153 10.7182 15.8365 10.797C15.7578 10.8758 15.6509 10.92 15.5395 10.92H14.6995C14.5881 10.92 14.4813 10.8758 14.4025 10.797C14.3238 10.7182 14.2795 10.6114 14.2795 10.5C14.2795 10.3886 14.3238 10.2818 14.4025 10.203C14.4813 10.1243 14.5881 10.08 14.6995 10.08ZM14.6995 12.6H15.5395C15.6502 12.6022 15.7558 12.6471 15.8341 12.7254C15.9124 12.8037 15.9574 12.9093 15.9595 13.02C15.9595 13.1314 15.9153 13.2382 15.8365 13.317C15.7578 13.3958 15.6509 13.44 15.5395 13.44H14.6995C14.5881 13.44 14.4813 13.3958 14.4025 13.317C14.3238 13.2382 14.2795 13.1314 14.2795 13.02C14.2817 12.9093 14.3266 12.8037 14.4049 12.7254C14.4832 12.6471 14.5888 12.6022 14.6995 12.6ZM14.6995 15.12H15.5395C15.6509 15.12 15.7578 15.1643 15.8365 15.243C15.9153 15.3218 15.9595 15.4286 15.9595 15.54C15.9595 15.6514 15.9153 15.7582 15.8365 15.837C15.7578 15.9158 15.6509 15.96 15.5395 15.96H14.6995C14.5881 15.96 14.4813 15.9158 14.4025 15.837C14.3238 15.7582 14.2795 15.6514 14.2795 15.54C14.2795 15.4286 14.3238 15.3218 14.4025 15.243C14.4813 15.1643 14.5881 15.12 14.6995 15.12ZM9.23953 5.04002H10.0795C10.1909 5.04002 10.2978 5.08427 10.3765 5.16303C10.4553 5.2418 10.4995 5.34863 10.4995 5.46002C10.4995 5.57141 10.4553 5.67824 10.3765 5.757C10.2978 5.83577 10.1909 5.88002 10.0795 5.88002H9.23953C9.12814 5.88002 9.02131 5.83577 8.94255 5.757C8.86378 5.67824 8.81953 5.57141 8.81953 5.46002C8.81953 5.34863 8.86378 5.2418 8.94255 5.16303C9.02131 5.08427 9.12814 5.04002 9.23953 5.04002ZM9.23953 7.56002H10.0795C10.1909 7.56002 10.2978 7.60427 10.3765 7.68303C10.4553 7.7618 10.4995 7.86863 10.4995 7.98002C10.4995 8.09141 10.4553 8.19824 10.3765 8.277C10.2978 8.35577 10.1909 8.40002 10.0795 8.40002H9.23953C9.12814 8.40002 9.02131 8.35577 8.94255 8.277C8.86378 8.19824 8.81953 8.09141 8.81953 7.98002C8.81953 7.86863 8.86378 7.7618 8.94255 7.68303C9.02131 7.60427 9.12814 7.56002 9.23953 7.56002ZM9.23953 10.08H10.0795C10.1909 10.08 10.2978 10.1243 10.3765 10.203C10.4553 10.2818 10.4995 10.3886 10.4995 10.5C10.4995 10.6114 10.4553 10.7182 10.3765 10.797C10.2978 10.8758 10.1909 10.92 10.0795 10.92H9.23953C9.12814 10.92 9.02131 10.8758 8.94255 10.797C8.86378 10.7182 8.81953 10.6114 8.81953 10.5C8.81953 10.3886 8.86378 10.2818 8.94255 10.203C9.02131 10.1243 9.12814 10.08 9.23953 10.08ZM9.23953 12.6H10.0795C10.1909 12.6 10.2978 12.6443 10.3765 12.723C10.4553 12.8018 10.4995 12.9086 10.4995 13.02C10.4995 13.1314 10.4553 13.2382 10.3765 13.317C10.2978 13.3958 10.1909 13.44 10.0795 13.44H9.23953C9.12814 13.44 9.02131 13.3958 8.94255 13.317C8.86378 13.2382 8.81953 13.1314 8.81953 13.02C8.81953 12.9086 8.86378 12.8018 8.94255 12.723C9.02131 12.6443 9.12814 12.6 9.23953 12.6ZM6.66913 5.04002H7.55953C7.67092 5.04002 7.77775 5.08427 7.85652 5.16303C7.93528 5.2418 7.97953 5.34863 7.97953 5.46002C7.97953 5.57141 7.93528 5.67824 7.85652 5.757C7.77775 5.83577 7.67092 5.88002 7.55953 5.88002H6.71953C6.60814 5.88002 6.50131 5.83577 6.42255 5.757C6.34378 5.67824 6.29953 5.57141 6.29953 5.46002C6.29953 5.34863 6.34378 5.2418 6.42255 5.16303C6.50131 5.08427 6.60814 5.04002 6.71953 5.04002H6.66913ZM6.66913 7.56002H7.55953C7.67092 7.56002 7.77775 7.60427 7.85652 7.68303C7.93528 7.7618 7.97953 7.86863 7.97953 7.98002C7.97953 8.09141 7.93528 8.19824 7.85652 8.277C7.77775 8.35577 7.67092 8.40002 7.55953 8.40002H6.71953C6.60814 8.40002 6.50131 8.35577 6.42255 8.277C6.34378 8.19824 6.29953 8.09141 6.29953 7.98002C6.29953 7.86863 6.34378 7.7618 6.42255 7.68303C6.50131 7.60427 6.60814 7.56002 6.71953 7.56002H6.66913ZM6.66913 10.08H7.55953C7.67092 10.08 7.77775 10.1243 7.85652 10.203C7.93528 10.2818 7.97953 10.3886 7.97953 10.5C7.97953 10.6114 7.93528 10.7182 7.85652 10.797C7.77775 10.8758 7.67092 10.92 7.55953 10.92H6.71953C6.60814 10.92 6.50131 10.8758 6.42255 10.797C6.34378 10.7182 6.29953 10.6114 6.29953 10.5C6.29953 10.3886 6.34378 10.2818 6.42255 10.203C6.50131 10.1243 6.60814 10.08 6.71953 10.08H6.66913ZM6.66913 12.6H7.55953C7.67092 12.6 7.77775 12.6443 7.85652 12.723C7.93528 12.8018 7.97953 12.9086 7.97953 13.02C7.97953 13.1314 7.93528 13.2382 7.85652 13.317C7.77775 13.3958 7.67092 13.44 7.55953 13.44H6.71953C6.60814 13.44 6.50131 13.3958 6.42255 13.317C6.34378 13.2382 6.29953 13.1314 6.29953 13.02C6.29953 12.9086 6.34378 12.8018 6.42255 12.723C6.50131 12.6443 6.60814 12.6 6.71953 12.6H6.66913ZM8.81953 17.64V15.96H7.97953V17.64H7.13953V15.5148C7.14596 15.4079 7.19303 15.3074 7.27111 15.234C7.34919 15.1606 7.45237 15.1198 7.55953 15.12H9.23953C9.35092 15.12 9.45775 15.1643 9.53652 15.243C9.61528 15.3218 9.65953 15.4286 9.65953 15.54V17.64H8.81953Z" fill="#322E80"/>
</g>
</svg>
