<svg width="38" height="37" viewBox="0 0 38 37" fill="none" xmlns="http://www.w3.org/2000/svg">
<g id="ri:notification-3-line">
<path id="Vector" d="M31.7459 26.2083H34.8292V29.2917H3.99585V26.2083H7.07918V15.4167C7.07918 12.1457 8.37858 9.00864 10.6915 6.69569C13.0045 4.38274 16.1415 3.08334 19.4125 3.08334C22.6835 3.08334 25.8206 4.38274 28.1335 6.69569C30.4465 9.00864 31.7459 12.1457 31.7459 15.4167V26.2083ZM28.6625 26.2083V15.4167C28.6625 12.9634 27.688 10.6107 25.9533 8.87594C24.2185 7.14123 21.8658 6.16668 19.4125 6.16668C16.9593 6.16668 14.6065 7.14123 12.8718 8.87594C11.1371 10.6107 10.1625 12.9634 10.1625 15.4167V26.2083H28.6625ZM14.7875 32.375H24.0375V35.4583H14.7875V32.375Z" fill="black"/>
</g>
</svg>
