<svg width="40" height="40" viewBox="0 0 40 40" fill="none" xmlns="http://www.w3.org/2000/svg">
<circle cx="20" cy="20" r="20" fill="#E1EDFF"/>
<g clip-path="url(#clip0_1181_4197)">
<mask id="path-2-inside-1_1181_4197" fill="white">
<path fill-rule="evenodd" clip-rule="evenodd" d="M25.4532 32H10.5039C9.93644 32.0163 9.38562 31.8071 8.97203 31.4182C8.55845 31.0293 8.31577 30.4924 8.29712 29.9249V10.0748C8.31585 9.50749 8.55856 8.97065 8.97214 8.58181C9.38572 8.19297 9.93649 7.98379 10.5039 8.00004H25.4532C26.0208 7.98363 26.5717 8.19273 26.9854 8.58159C27.3991 8.97045 27.6419 9.50738 27.6606 10.0748V13.445C27.6606 13.6035 27.5977 13.7554 27.4857 13.8674C27.3737 13.9794 27.2217 14.0423 27.0633 14.0423C26.9049 14.0423 26.753 13.9794 26.641 13.8674C26.5289 13.7554 26.466 13.6035 26.466 13.445V10.0748C26.4461 9.82518 26.3286 9.59341 26.1391 9.42969C25.9495 9.26598 25.7031 9.18348 25.4532 9.20004H10.5039C10.2541 9.18348 10.0078 9.266 9.8183 9.42973C9.62885 9.59346 9.51152 9.82523 9.49172 10.0748V29.9249C9.51145 30.1746 9.62875 30.4065 9.8182 30.5702C10.0077 30.734 10.254 30.8166 10.5039 30.8H25.4532C25.6123 30.8 25.765 30.8633 25.8775 30.9758C25.99 31.0883 26.0532 31.2409 26.0532 31.4C26.0532 31.5592 25.99 31.7118 25.8775 31.8243C25.765 31.9368 25.6123 32 25.4532 32ZM19.2801 21.2447H16.8906C16.7315 21.2447 16.5789 21.1815 16.4664 21.069C16.3538 20.9565 16.2906 20.8039 16.2906 20.6447C16.2906 20.4856 16.3538 20.333 16.4664 20.2205C16.5789 20.108 16.7315 20.0447 16.8906 20.0447H19.2801C19.4392 20.0447 19.5919 20.108 19.7044 20.2205C19.8169 20.333 19.8801 20.4856 19.8801 20.6447C19.8801 20.8039 19.8169 20.9565 19.7044 21.069C19.5919 21.1815 19.4392 21.2447 19.2801 21.2447ZM13.9041 21.2447H11.5149C11.3558 21.2447 11.2032 21.1815 11.0907 21.069C10.9781 20.9565 10.9149 20.8039 10.9149 20.6447C10.9149 20.4856 10.9781 20.333 11.0907 20.2205C11.2032 20.108 11.3558 20.0447 11.5149 20.0447H13.9041C13.9829 20.0448 14.0609 20.0604 14.1337 20.0906C14.2064 20.1209 14.2725 20.1651 14.3282 20.2209C14.3839 20.2767 14.428 20.3429 14.4581 20.4157C14.4882 20.4885 14.5036 20.5666 14.5035 20.6453C14.5034 20.7241 14.4878 20.8021 14.4576 20.8749C14.4274 20.9477 14.3831 21.0138 14.3274 21.0694C14.2716 21.1251 14.2054 21.1692 14.1326 21.1993C14.0597 21.2294 13.9817 21.2448 13.9029 21.2447H13.9041ZM19.2801 23.6447H16.8906C16.7315 23.6447 16.5789 23.5815 16.4664 23.469C16.3538 23.3565 16.2906 23.2039 16.2906 23.0447C16.2906 22.8856 16.3538 22.733 16.4664 22.6205C16.5789 22.508 16.7315 22.4447 16.8906 22.4447H19.2801C19.4392 22.4447 19.5919 22.508 19.7044 22.6205C19.8169 22.733 19.8801 22.8856 19.8801 23.0447C19.8801 23.2039 19.8169 23.3565 19.7044 23.469C19.5919 23.5815 19.4392 23.6447 19.2801 23.6447ZM13.9041 23.6447H11.5149C11.3558 23.6447 11.2032 23.5815 11.0907 23.469C10.9781 23.3565 10.9149 23.2039 10.9149 23.0447C10.9149 22.8856 10.9781 22.733 11.0907 22.6205C11.2032 22.508 11.3558 22.4447 11.5149 22.4447H13.9041C13.9829 22.4448 14.0609 22.4604 14.1337 22.4906C14.2064 22.5209 14.2725 22.5651 14.3282 22.6209C14.3839 22.6767 14.428 22.7429 14.4581 22.8157C14.4882 22.8885 14.5036 22.9665 14.5035 23.0453C14.5034 23.1241 14.4878 23.2021 14.4576 23.2749C14.4274 23.3477 14.3831 23.4138 14.3274 23.4694C14.2716 23.5251 14.2054 23.5692 14.1326 23.5993C14.0597 23.6294 13.9817 23.6448 13.9029 23.6447H13.9041ZM19.2801 26.0447H16.8906C16.7315 26.0447 16.5789 25.9815 16.4664 25.869C16.3538 25.7565 16.2906 25.6039 16.2906 25.4447C16.2906 25.2856 16.3538 25.133 16.4664 25.0205C16.5789 24.908 16.7315 24.8447 16.8906 24.8447H19.2801C19.4392 24.8447 19.5919 24.908 19.7044 25.0205C19.8169 25.133 19.8801 25.2856 19.8801 25.4447C19.8801 25.6039 19.8169 25.7565 19.7044 25.869C19.5919 25.9815 19.4392 26.0447 19.2801 26.0447ZM13.9041 26.0447H11.5149C11.3558 26.0447 11.2032 25.9815 11.0907 25.869C10.9781 25.7565 10.9149 25.6039 10.9149 25.4447C10.9149 25.2856 10.9781 25.133 11.0907 25.0205C11.2032 24.908 11.3558 24.8447 11.5149 24.8447H13.9041C13.9829 24.8448 14.0609 24.8604 14.1337 24.8906C14.2064 24.9209 14.2725 24.9651 14.3282 25.0209C14.3839 25.0767 14.428 25.1429 14.4581 25.2157C14.4882 25.2885 14.5036 25.3666 14.5035 25.4453C14.5034 25.5241 14.4878 25.6021 14.4576 25.6749C14.4274 25.7477 14.3831 25.8138 14.3274 25.8694C14.2716 25.9251 14.2054 25.9692 14.1326 25.9993C14.0597 26.0294 13.9817 26.0448 13.9029 26.0447H13.9041ZM24.513 14.0447H22.2666C22.1075 14.0447 21.9549 13.9815 21.8424 13.869C21.7298 13.7565 21.6666 13.6039 21.6666 13.4447C21.6666 13.2856 21.7298 13.133 21.8424 13.0205C21.9549 12.908 22.1075 12.8447 22.2666 12.8447H24.513C24.6721 12.8449 24.8247 12.9083 24.9371 13.0209C25.0495 13.1335 25.1126 13.2862 25.1124 13.4453C25.1123 13.6045 25.0489 13.757 24.9363 13.8694C24.8236 13.9818 24.6709 14.0449 24.5118 14.0447H24.513ZM19.2801 14.0447H16.8906C16.7315 14.0447 16.5789 13.9815 16.4664 13.869C16.3538 13.7565 16.2906 13.6039 16.2906 13.4447C16.2906 13.2856 16.3538 13.133 16.4664 13.0205C16.5789 12.908 16.7315 12.8447 16.8906 12.8447H19.2801C19.4392 12.8447 19.5919 12.908 19.7044 13.0205C19.8169 13.133 19.8801 13.2856 19.8801 13.4447C19.8801 13.6039 19.8169 13.7565 19.7044 13.869C19.5919 13.9815 19.4392 14.0447 19.2801 14.0447ZM13.9041 14.0447H11.5149C11.3558 14.0447 11.2032 13.9815 11.0907 13.869C10.9781 13.7565 10.9149 13.6039 10.9149 13.4447C10.9149 13.2856 10.9781 13.133 11.0907 13.0205C11.2032 12.908 11.3558 12.8447 11.5149 12.8447H13.9041C13.9829 12.8448 14.0609 12.8604 14.1337 12.8906C14.2064 12.9209 14.2725 12.9651 14.3282 13.0209C14.3839 13.0767 14.428 13.1429 14.4581 13.2157C14.4882 13.2885 14.5036 13.3665 14.5035 13.4453C14.5034 13.5241 14.4878 13.6021 14.4576 13.6749C14.4274 13.7477 14.3831 13.8138 14.3274 13.8694C14.2716 13.9251 14.2054 13.9692 14.1326 13.9993C14.0597 14.0294 13.9817 14.0448 13.9029 14.0447H13.9041ZM19.2801 16.4447H16.8906C16.7315 16.4447 16.5789 16.3815 16.4664 16.269C16.3538 16.1565 16.2906 16.0039 16.2906 15.8447C16.2906 15.6856 16.3538 15.533 16.4664 15.4205C16.5789 15.308 16.7315 15.2447 16.8906 15.2447H19.2801C19.4392 15.2447 19.5919 15.308 19.7044 15.4205C19.8169 15.533 19.8801 15.6856 19.8801 15.8447C19.8801 16.0039 19.8169 16.1565 19.7044 16.269C19.5919 16.3815 19.4392 16.4447 19.2801 16.4447ZM13.9041 16.4447H11.5149C11.3558 16.4447 11.2032 16.3815 11.0907 16.269C10.9781 16.1565 10.9149 16.0039 10.9149 15.8447C10.9149 15.6856 10.9781 15.533 11.0907 15.4205C11.2032 15.308 11.3558 15.2447 11.5149 15.2447H13.9041C13.9829 15.2448 14.0609 15.2604 14.1337 15.2906C14.2064 15.3209 14.2725 15.3651 14.3282 15.4209C14.3839 15.4767 14.428 15.5429 14.4581 15.6157C14.4882 15.6885 14.5036 15.7666 14.5035 15.8453C14.5034 15.9241 14.4878 16.0021 14.4576 16.0749C14.4274 16.1477 14.3831 16.2138 14.3274 16.2694C14.2716 16.3251 14.2054 16.3692 14.1326 16.3993C14.0597 16.4294 13.9817 16.4448 13.9029 16.4447H13.9041ZM19.2801 18.8447H16.8906C16.7315 18.8447 16.5789 18.7815 16.4664 18.669C16.3538 18.5565 16.2906 18.4039 16.2906 18.2447C16.2906 18.0856 16.3538 17.933 16.4664 17.8205C16.5789 17.708 16.7315 17.6447 16.8906 17.6447H19.2801C19.4392 17.6447 19.5919 17.708 19.7044 17.8205C19.8169 17.933 19.8801 18.0856 19.8801 18.2447C19.8801 18.4039 19.8169 18.5565 19.7044 18.669C19.5919 18.7815 19.4392 18.8447 19.2801 18.8447ZM13.9041 18.8447H11.5149C11.3558 18.8447 11.2032 18.7815 11.0907 18.669C10.9781 18.5565 10.9149 18.4039 10.9149 18.2447C10.9149 18.0856 10.9781 17.933 11.0907 17.8205C11.2032 17.708 11.3558 17.6447 11.5149 17.6447H13.9041C14.0632 17.6449 14.2158 17.7083 14.3282 17.8209C14.4406 17.9335 14.5037 18.0862 14.5035 18.2453C14.5034 18.4045 14.44 18.557 14.3274 18.6694C14.2147 18.7818 14.062 18.8449 13.9029 18.8447H13.9041ZM31.0467 30.0881C31.0167 30.0881 30.9411 30.0824 30.912 30.0782C27.6033 29.5901 24.369 28.6268 24.1356 22.9466H21.6027C21.4904 22.9463 21.3804 22.9143 21.2853 22.8545C21.1902 22.7947 21.1138 22.7094 21.0648 22.6083C21.0159 22.5072 20.9962 22.3944 21.0082 22.2826C21.0202 22.1709 21.0633 22.0649 21.1326 21.9764L25.62 16.2311C25.6758 16.1596 25.7471 16.1018 25.8286 16.062C25.9101 16.0222 25.9996 16.0016 26.0903 16.0016C26.1809 16.0016 26.2704 16.0222 26.3519 16.062C26.4334 16.1018 26.5047 16.1596 26.5605 16.2311L31.0473 21.9764C31.1166 22.0649 31.1597 22.1709 31.1717 22.2826C31.1837 22.3944 31.1641 22.5072 31.1151 22.6083C31.0661 22.7094 30.9897 22.7947 30.8946 22.8545C30.7995 22.9143 30.6896 22.9463 30.5772 22.9466H28.0218C27.8997 25.9847 29.0613 27.1589 31.4511 28.4105C31.6267 28.5027 31.7664 28.6508 31.8481 28.8314C31.9299 29.012 31.949 29.2148 31.9024 29.4075C31.8558 29.6002 31.7462 29.7718 31.591 29.8951C31.4357 30.0184 31.2438 30.0864 31.0455 30.0881H31.0467ZM22.8306 21.7466H24.7206C24.879 21.7469 25.0307 21.8099 25.1427 21.9219C25.2547 22.0338 25.3177 22.1856 25.3179 22.3439C25.3362 26.6639 27.0078 27.9761 29.3979 28.5734C27.5511 27.2663 26.5944 25.562 26.8662 22.2968C26.8781 22.1472 26.9459 22.0075 27.0562 21.9055C27.1664 21.8036 27.311 21.7468 27.4611 21.7466H29.3511L26.0901 17.5736L22.8306 21.7466Z"/>
</mask>
<path fill-rule="evenodd" clip-rule="evenodd" d="M25.4532 32H10.5039C9.93644 32.0163 9.38562 31.8071 8.97203 31.4182C8.55845 31.0293 8.31577 30.4924 8.29712 29.9249V10.0748C8.31585 9.50749 8.55856 8.97065 8.97214 8.58181C9.38572 8.19297 9.93649 7.98379 10.5039 8.00004H25.4532C26.0208 7.98363 26.5717 8.19273 26.9854 8.58159C27.3991 8.97045 27.6419 9.50738 27.6606 10.0748V13.445C27.6606 13.6035 27.5977 13.7554 27.4857 13.8674C27.3737 13.9794 27.2217 14.0423 27.0633 14.0423C26.9049 14.0423 26.753 13.9794 26.641 13.8674C26.5289 13.7554 26.466 13.6035 26.466 13.445V10.0748C26.4461 9.82518 26.3286 9.59341 26.1391 9.42969C25.9495 9.26598 25.7031 9.18348 25.4532 9.20004H10.5039C10.2541 9.18348 10.0078 9.266 9.8183 9.42973C9.62885 9.59346 9.51152 9.82523 9.49172 10.0748V29.9249C9.51145 30.1746 9.62875 30.4065 9.8182 30.5702C10.0077 30.734 10.254 30.8166 10.5039 30.8H25.4532C25.6123 30.8 25.765 30.8633 25.8775 30.9758C25.99 31.0883 26.0532 31.2409 26.0532 31.4C26.0532 31.5592 25.99 31.7118 25.8775 31.8243C25.765 31.9368 25.6123 32 25.4532 32ZM19.2801 21.2447H16.8906C16.7315 21.2447 16.5789 21.1815 16.4664 21.069C16.3538 20.9565 16.2906 20.8039 16.2906 20.6447C16.2906 20.4856 16.3538 20.333 16.4664 20.2205C16.5789 20.108 16.7315 20.0447 16.8906 20.0447H19.2801C19.4392 20.0447 19.5919 20.108 19.7044 20.2205C19.8169 20.333 19.8801 20.4856 19.8801 20.6447C19.8801 20.8039 19.8169 20.9565 19.7044 21.069C19.5919 21.1815 19.4392 21.2447 19.2801 21.2447ZM13.9041 21.2447H11.5149C11.3558 21.2447 11.2032 21.1815 11.0907 21.069C10.9781 20.9565 10.9149 20.8039 10.9149 20.6447C10.9149 20.4856 10.9781 20.333 11.0907 20.2205C11.2032 20.108 11.3558 20.0447 11.5149 20.0447H13.9041C13.9829 20.0448 14.0609 20.0604 14.1337 20.0906C14.2064 20.1209 14.2725 20.1651 14.3282 20.2209C14.3839 20.2767 14.428 20.3429 14.4581 20.4157C14.4882 20.4885 14.5036 20.5666 14.5035 20.6453C14.5034 20.7241 14.4878 20.8021 14.4576 20.8749C14.4274 20.9477 14.3831 21.0138 14.3274 21.0694C14.2716 21.1251 14.2054 21.1692 14.1326 21.1993C14.0597 21.2294 13.9817 21.2448 13.9029 21.2447H13.9041ZM19.2801 23.6447H16.8906C16.7315 23.6447 16.5789 23.5815 16.4664 23.469C16.3538 23.3565 16.2906 23.2039 16.2906 23.0447C16.2906 22.8856 16.3538 22.733 16.4664 22.6205C16.5789 22.508 16.7315 22.4447 16.8906 22.4447H19.2801C19.4392 22.4447 19.5919 22.508 19.7044 22.6205C19.8169 22.733 19.8801 22.8856 19.8801 23.0447C19.8801 23.2039 19.8169 23.3565 19.7044 23.469C19.5919 23.5815 19.4392 23.6447 19.2801 23.6447ZM13.9041 23.6447H11.5149C11.3558 23.6447 11.2032 23.5815 11.0907 23.469C10.9781 23.3565 10.9149 23.2039 10.9149 23.0447C10.9149 22.8856 10.9781 22.733 11.0907 22.6205C11.2032 22.508 11.3558 22.4447 11.5149 22.4447H13.9041C13.9829 22.4448 14.0609 22.4604 14.1337 22.4906C14.2064 22.5209 14.2725 22.5651 14.3282 22.6209C14.3839 22.6767 14.428 22.7429 14.4581 22.8157C14.4882 22.8885 14.5036 22.9665 14.5035 23.0453C14.5034 23.1241 14.4878 23.2021 14.4576 23.2749C14.4274 23.3477 14.3831 23.4138 14.3274 23.4694C14.2716 23.5251 14.2054 23.5692 14.1326 23.5993C14.0597 23.6294 13.9817 23.6448 13.9029 23.6447H13.9041ZM19.2801 26.0447H16.8906C16.7315 26.0447 16.5789 25.9815 16.4664 25.869C16.3538 25.7565 16.2906 25.6039 16.2906 25.4447C16.2906 25.2856 16.3538 25.133 16.4664 25.0205C16.5789 24.908 16.7315 24.8447 16.8906 24.8447H19.2801C19.4392 24.8447 19.5919 24.908 19.7044 25.0205C19.8169 25.133 19.8801 25.2856 19.8801 25.4447C19.8801 25.6039 19.8169 25.7565 19.7044 25.869C19.5919 25.9815 19.4392 26.0447 19.2801 26.0447ZM13.9041 26.0447H11.5149C11.3558 26.0447 11.2032 25.9815 11.0907 25.869C10.9781 25.7565 10.9149 25.6039 10.9149 25.4447C10.9149 25.2856 10.9781 25.133 11.0907 25.0205C11.2032 24.908 11.3558 24.8447 11.5149 24.8447H13.9041C13.9829 24.8448 14.0609 24.8604 14.1337 24.8906C14.2064 24.9209 14.2725 24.9651 14.3282 25.0209C14.3839 25.0767 14.428 25.1429 14.4581 25.2157C14.4882 25.2885 14.5036 25.3666 14.5035 25.4453C14.5034 25.5241 14.4878 25.6021 14.4576 25.6749C14.4274 25.7477 14.3831 25.8138 14.3274 25.8694C14.2716 25.9251 14.2054 25.9692 14.1326 25.9993C14.0597 26.0294 13.9817 26.0448 13.9029 26.0447H13.9041ZM24.513 14.0447H22.2666C22.1075 14.0447 21.9549 13.9815 21.8424 13.869C21.7298 13.7565 21.6666 13.6039 21.6666 13.4447C21.6666 13.2856 21.7298 13.133 21.8424 13.0205C21.9549 12.908 22.1075 12.8447 22.2666 12.8447H24.513C24.6721 12.8449 24.8247 12.9083 24.9371 13.0209C25.0495 13.1335 25.1126 13.2862 25.1124 13.4453C25.1123 13.6045 25.0489 13.757 24.9363 13.8694C24.8236 13.9818 24.6709 14.0449 24.5118 14.0447H24.513ZM19.2801 14.0447H16.8906C16.7315 14.0447 16.5789 13.9815 16.4664 13.869C16.3538 13.7565 16.2906 13.6039 16.2906 13.4447C16.2906 13.2856 16.3538 13.133 16.4664 13.0205C16.5789 12.908 16.7315 12.8447 16.8906 12.8447H19.2801C19.4392 12.8447 19.5919 12.908 19.7044 13.0205C19.8169 13.133 19.8801 13.2856 19.8801 13.4447C19.8801 13.6039 19.8169 13.7565 19.7044 13.869C19.5919 13.9815 19.4392 14.0447 19.2801 14.0447ZM13.9041 14.0447H11.5149C11.3558 14.0447 11.2032 13.9815 11.0907 13.869C10.9781 13.7565 10.9149 13.6039 10.9149 13.4447C10.9149 13.2856 10.9781 13.133 11.0907 13.0205C11.2032 12.908 11.3558 12.8447 11.5149 12.8447H13.9041C13.9829 12.8448 14.0609 12.8604 14.1337 12.8906C14.2064 12.9209 14.2725 12.9651 14.3282 13.0209C14.3839 13.0767 14.428 13.1429 14.4581 13.2157C14.4882 13.2885 14.5036 13.3665 14.5035 13.4453C14.5034 13.5241 14.4878 13.6021 14.4576 13.6749C14.4274 13.7477 14.3831 13.8138 14.3274 13.8694C14.2716 13.9251 14.2054 13.9692 14.1326 13.9993C14.0597 14.0294 13.9817 14.0448 13.9029 14.0447H13.9041ZM19.2801 16.4447H16.8906C16.7315 16.4447 16.5789 16.3815 16.4664 16.269C16.3538 16.1565 16.2906 16.0039 16.2906 15.8447C16.2906 15.6856 16.3538 15.533 16.4664 15.4205C16.5789 15.308 16.7315 15.2447 16.8906 15.2447H19.2801C19.4392 15.2447 19.5919 15.308 19.7044 15.4205C19.8169 15.533 19.8801 15.6856 19.8801 15.8447C19.8801 16.0039 19.8169 16.1565 19.7044 16.269C19.5919 16.3815 19.4392 16.4447 19.2801 16.4447ZM13.9041 16.4447H11.5149C11.3558 16.4447 11.2032 16.3815 11.0907 16.269C10.9781 16.1565 10.9149 16.0039 10.9149 15.8447C10.9149 15.6856 10.9781 15.533 11.0907 15.4205C11.2032 15.308 11.3558 15.2447 11.5149 15.2447H13.9041C13.9829 15.2448 14.0609 15.2604 14.1337 15.2906C14.2064 15.3209 14.2725 15.3651 14.3282 15.4209C14.3839 15.4767 14.428 15.5429 14.4581 15.6157C14.4882 15.6885 14.5036 15.7666 14.5035 15.8453C14.5034 15.9241 14.4878 16.0021 14.4576 16.0749C14.4274 16.1477 14.3831 16.2138 14.3274 16.2694C14.2716 16.3251 14.2054 16.3692 14.1326 16.3993C14.0597 16.4294 13.9817 16.4448 13.9029 16.4447H13.9041ZM19.2801 18.8447H16.8906C16.7315 18.8447 16.5789 18.7815 16.4664 18.669C16.3538 18.5565 16.2906 18.4039 16.2906 18.2447C16.2906 18.0856 16.3538 17.933 16.4664 17.8205C16.5789 17.708 16.7315 17.6447 16.8906 17.6447H19.2801C19.4392 17.6447 19.5919 17.708 19.7044 17.8205C19.8169 17.933 19.8801 18.0856 19.8801 18.2447C19.8801 18.4039 19.8169 18.5565 19.7044 18.669C19.5919 18.7815 19.4392 18.8447 19.2801 18.8447ZM13.9041 18.8447H11.5149C11.3558 18.8447 11.2032 18.7815 11.0907 18.669C10.9781 18.5565 10.9149 18.4039 10.9149 18.2447C10.9149 18.0856 10.9781 17.933 11.0907 17.8205C11.2032 17.708 11.3558 17.6447 11.5149 17.6447H13.9041C14.0632 17.6449 14.2158 17.7083 14.3282 17.8209C14.4406 17.9335 14.5037 18.0862 14.5035 18.2453C14.5034 18.4045 14.44 18.557 14.3274 18.6694C14.2147 18.7818 14.062 18.8449 13.9029 18.8447H13.9041ZM31.0467 30.0881C31.0167 30.0881 30.9411 30.0824 30.912 30.0782C27.6033 29.5901 24.369 28.6268 24.1356 22.9466H21.6027C21.4904 22.9463 21.3804 22.9143 21.2853 22.8545C21.1902 22.7947 21.1138 22.7094 21.0648 22.6083C21.0159 22.5072 20.9962 22.3944 21.0082 22.2826C21.0202 22.1709 21.0633 22.0649 21.1326 21.9764L25.62 16.2311C25.6758 16.1596 25.7471 16.1018 25.8286 16.062C25.9101 16.0222 25.9996 16.0016 26.0903 16.0016C26.1809 16.0016 26.2704 16.0222 26.3519 16.062C26.4334 16.1018 26.5047 16.1596 26.5605 16.2311L31.0473 21.9764C31.1166 22.0649 31.1597 22.1709 31.1717 22.2826C31.1837 22.3944 31.1641 22.5072 31.1151 22.6083C31.0661 22.7094 30.9897 22.7947 30.8946 22.8545C30.7995 22.9143 30.6896 22.9463 30.5772 22.9466H28.0218C27.8997 25.9847 29.0613 27.1589 31.4511 28.4105C31.6267 28.5027 31.7664 28.6508 31.8481 28.8314C31.9299 29.012 31.949 29.2148 31.9024 29.4075C31.8558 29.6002 31.7462 29.7718 31.591 29.8951C31.4357 30.0184 31.2438 30.0864 31.0455 30.0881H31.0467ZM22.8306 21.7466H24.7206C24.879 21.7469 25.0307 21.8099 25.1427 21.9219C25.2547 22.0338 25.3177 22.1856 25.3179 22.3439C25.3362 26.6639 27.0078 27.9761 29.3979 28.5734C27.5511 27.2663 26.5944 25.562 26.8662 22.2968C26.8781 22.1472 26.9459 22.0075 27.0562 21.9055C27.1664 21.8036 27.311 21.7468 27.4611 21.7466H29.3511L26.0901 17.5736L22.8306 21.7466Z" fill="#1677FF" stroke="#E1EDFF" stroke-width="0.4" mask="url(#path-2-inside-1_1181_4197)"/>
</g>
<defs>
<clipPath id="clip0_1181_4197">
<rect width="24" height="24" fill="white" transform="translate(8 8)"/>
</clipPath>
</defs>
</svg>
