<svg width="16" height="16" viewBox="0 0 16 16" fill="none" xmlns="http://www.w3.org/2000/svg">
<g clip-path="url(#clip0_10039_17921)">
<path d="M13.9487 16.0014H2.05128C1.50732 16.0005 0.985904 15.784 0.601368 15.3993C0.216831 15.0145 0.00056655 14.493 0 13.949L0 2.9728H2.24302C2.51007 2.9728 2.76617 2.86672 2.955 2.67789C3.14383 2.48906 3.24992 2.23295 3.24992 1.9659V0.0078125H13.9476C14.4914 0.00866237 15.0127 0.225052 15.3972 0.609558C15.7817 0.994064 15.9981 1.51532 15.9989 2.05909V13.949C15.9984 14.4928 15.7822 15.0142 15.3979 15.3989C15.0136 15.7836 14.4925 16.0003 13.9487 16.0014ZM7.99839 6.46159H2.65221C2.58609 6.46159 2.52063 6.47461 2.45954 6.49991C2.39846 6.52521 2.34296 6.56229 2.29621 6.60904C2.24947 6.65579 2.21238 6.71129 2.18708 6.77237C2.16178 6.83345 2.14876 6.89892 2.14876 6.96503C2.14876 7.03115 2.16178 7.09661 2.18708 7.15769C2.21238 7.21878 2.24947 7.27427 2.29621 7.32102C2.34296 7.36777 2.39846 7.40486 2.45954 7.43016C2.52063 7.45546 2.58609 7.46848 2.65221 7.46848H7.99732C8.13085 7.46848 8.2589 7.41544 8.35331 7.32102C8.44773 7.22661 8.50077 7.09856 8.50077 6.96503C8.50077 6.83151 8.44773 6.70346 8.35331 6.60904C8.2589 6.51463 8.13192 6.46159 7.99839 6.46159ZM7.99839 9.11379H2.65221C2.58609 9.11379 2.52063 9.12681 2.45954 9.15211C2.39846 9.17741 2.34296 9.2145 2.29621 9.26125C2.24947 9.308 2.21238 9.3635 2.18708 9.42458C2.16178 9.48566 2.14876 9.55112 2.14876 9.61724C2.14876 9.68335 2.16178 9.74882 2.18708 9.8099C2.21238 9.87098 2.24947 9.92648 2.29621 9.97323C2.34296 10.02 2.39846 10.0571 2.45954 10.0824C2.52063 10.1077 2.58609 10.1207 2.65221 10.1207H7.99732C8.13085 10.1207 8.2589 10.0676 8.35331 9.97323C8.44773 9.87881 8.50077 9.75076 8.50077 9.61724C8.50077 9.48372 8.44773 9.35566 8.35331 9.26125C8.2589 9.16683 8.13192 9.11379 7.99839 9.11379ZM7.99839 11.7628H2.65221C2.58609 11.7628 2.52063 11.7758 2.45954 11.8011C2.39846 11.8264 2.34296 11.8635 2.29621 11.9102C2.24947 11.957 2.21238 12.0125 2.18708 12.0736C2.16178 12.1347 2.14876 12.2001 2.14876 12.2662C2.14876 12.3323 2.16178 12.3978 2.18708 12.4589C2.21238 12.52 2.24947 12.5755 2.29621 12.6222C2.34296 12.669 2.39846 12.7061 2.45954 12.7314C2.52063 12.7567 2.58609 12.7697 2.65221 12.7697H7.99732C8.06344 12.7697 8.1289 12.7567 8.18998 12.7314C8.25106 12.7061 8.30656 12.669 8.35331 12.6222C8.40006 12.5755 8.43715 12.52 8.46245 12.4589C8.48775 12.3978 8.50077 12.3323 8.50077 12.2662C8.50077 12.2001 8.48775 12.1347 8.46245 12.0736C8.43715 12.0125 8.40006 11.957 8.35331 11.9102C8.30656 11.8635 8.25106 11.8264 8.18998 11.8011C8.1289 11.7758 8.06451 11.7628 7.99839 11.7628ZM11.7657 4.50671C11.7484 4.48619 11.7268 4.46971 11.7025 4.4584C11.6782 4.44709 11.6517 4.44123 11.6248 4.44123C11.598 4.44123 11.5715 4.44709 11.5472 4.4584C11.5228 4.46971 11.5013 4.48619 11.484 4.50671L10.0197 6.20665H10.581C10.6298 6.20665 10.6767 6.22606 10.7113 6.26061C10.7458 6.29516 10.7652 6.34202 10.7652 6.39089V12.082C10.7652 12.1309 10.7846 12.1777 10.8192 12.2123C10.8537 12.2468 10.9006 12.2662 10.9495 12.2662H12.2927C12.342 12.2662 12.3893 12.247 12.4245 12.2125C12.4597 12.1781 12.4801 12.1312 12.4812 12.082V6.39089C12.4808 6.36657 12.4853 6.34242 12.4944 6.31987C12.5035 6.29732 12.517 6.27684 12.5342 6.25964C12.5514 6.24244 12.5719 6.22889 12.5944 6.21978C12.617 6.21068 12.6411 6.20621 12.6655 6.20665H13.2193L11.7657 4.50671Z" fill="#817EB1"/>
<path d="M0 2.42405L2.6597 0V1.73957C2.6597 1.9177 2.58894 2.08853 2.46299 2.21448C2.33704 2.34043 2.16621 2.41119 1.98808 2.41119L0 2.42405Z" fill="#817EB1"/>
</g>
<defs>
<clipPath id="clip0_10039_17921">
<rect width="16" height="16" fill="white"/>
</clipPath>
</defs>
</svg>
