<svg width="40" height="40" viewBox="0 0 40 40" fill="none" xmlns="http://www.w3.org/2000/svg">
<circle cx="20" cy="20" r="20" fill="#E1EDFF"/>
<path d="M11.4688 10.1446V26.6417C11.4685 26.718 11.4979 26.7914 11.5505 26.8465C11.6032 26.9017 11.6752 26.9343 11.7514 26.9376H13.0625V28.2487C13.0658 28.3248 13.0984 28.3968 13.1535 28.4495C13.2087 28.5022 13.2821 28.5315 13.3583 28.5313H14.7031V29.8555C14.7012 29.8907 14.7066 29.926 14.719 29.9591C14.7313 29.9922 14.7505 30.0224 14.7751 30.0477C14.7997 30.073 14.8293 30.093 14.862 30.1063C14.8947 30.1196 14.9298 30.126 14.9652 30.1251H28.2486C28.285 30.1264 28.3212 30.1204 28.3553 30.1075C28.3893 30.0946 28.4204 30.075 28.4468 30.0499C28.4731 30.0247 28.4941 29.9946 28.5087 29.9612C28.5232 29.9278 28.5309 29.8919 28.5313 29.8555V13.3584C28.5315 13.2821 28.5021 13.2087 28.4495 13.1536C28.3968 13.0984 28.3248 13.0658 28.2486 13.0626H26.9375V11.7515C26.9342 11.6753 26.9016 11.6033 26.8465 11.5506C26.7913 11.4979 26.7179 11.4686 26.6417 11.4688H25.2969V10.1446C25.2988 10.1094 25.2934 10.0741 25.281 10.041C25.2687 10.0079 25.2495 9.97776 25.2249 9.95243C25.2003 9.9271 25.1707 9.90715 25.138 9.89383C25.1053 9.88052 25.0702 9.87412 25.0348 9.87506H11.7514C11.715 9.87374 11.6788 9.87971 11.6447 9.89262C11.6107 9.90554 11.5796 9.92513 11.5532 9.95026C11.5269 9.97538 11.5059 10.0055 11.4913 10.0389C11.4768 10.0723 11.4692 10.1082 11.4688 10.1446ZM26.9375 28.2487V13.6251H27.9688V29.5626H15.2656V28.5313H26.6417C26.7179 28.5315 26.7913 28.5022 26.8465 28.4495C26.9016 28.3968 26.9342 28.3248 26.9375 28.2487ZM25.2969 26.6417V12.0313H26.375V27.9688H13.625V26.9376H25.0348C25.1902 26.9376 25.2969 26.7969 25.2969 26.6417ZM12.0313 10.4376H24.7344V26.3751H12.0313V10.4376Z" fill="#1677FF"/>
<path d="M11.4688 10.1446V26.6417C11.4685 26.718 11.4979 26.7914 11.5505 26.8465C11.6032 26.9017 11.6752 26.9343 11.7514 26.9376H13.0625V28.2487C13.0658 28.3248 13.0984 28.3968 13.1535 28.4495C13.2087 28.5022 13.2821 28.5315 13.3583 28.5313H14.7031V29.8555C14.7012 29.8907 14.7066 29.926 14.719 29.9591C14.7313 29.9922 14.7505 30.0224 14.7751 30.0477C14.7997 30.073 14.8293 30.093 14.862 30.1063C14.8947 30.1196 14.9298 30.126 14.9652 30.1251H28.2486C28.285 30.1264 28.3212 30.1204 28.3553 30.1075C28.3893 30.0946 28.4204 30.075 28.4468 30.0499C28.4731 30.0247 28.4941 29.9946 28.5087 29.9612C28.5232 29.9278 28.5309 29.8919 28.5313 29.8555V13.3584C28.5315 13.2821 28.5021 13.2087 28.4495 13.1536C28.3968 13.0984 28.3248 13.0658 28.2486 13.0626H26.9375V11.7515C26.9342 11.6753 26.9016 11.6033 26.8465 11.5506C26.7913 11.4979 26.7179 11.4686 26.6417 11.4688H25.2969V10.1446C25.2988 10.1094 25.2934 10.0741 25.281 10.041C25.2687 10.0079 25.2495 9.97776 25.2249 9.95243C25.2003 9.9271 25.1707 9.90715 25.138 9.89383C25.1053 9.88052 25.0702 9.87412 25.0348 9.87506H11.7514C11.715 9.87374 11.6788 9.87971 11.6447 9.89262C11.6107 9.90554 11.5796 9.92513 11.5532 9.95026C11.5269 9.97538 11.5059 10.0055 11.4913 10.0389C11.4768 10.0723 11.4692 10.1082 11.4688 10.1446ZM26.9375 28.2487V13.6251H27.9688V29.5626H15.2656V28.5313H26.6417C26.7179 28.5315 26.7913 28.5022 26.8465 28.4495C26.9016 28.3968 26.9342 28.3248 26.9375 28.2487ZM25.2969 26.6417V12.0313H26.375V27.9688H13.625V26.9376H25.0348C25.1902 26.9376 25.2969 26.7969 25.2969 26.6417ZM12.0313 10.4376H24.7344V26.3751H12.0313V10.4376Z" stroke="#1677FF"/>
<path d="M23.428 24.7344H13.3584C13.2838 24.7344 13.2123 24.764 13.1595 24.8168C13.1068 24.8695 13.0771 24.941 13.0771 25.0156C13.0771 25.0902 13.1068 25.1618 13.1595 25.2145C13.2123 25.2672 13.2838 25.2969 13.3584 25.2969H23.428C23.5026 25.2969 23.5742 25.2672 23.6269 25.2145C23.6797 25.1618 23.7093 25.0902 23.7093 25.0156C23.7093 24.941 23.6797 24.8695 23.6269 24.8168C23.5742 24.764 23.5026 24.7344 23.428 24.7344ZM23.428 23.1406H13.3584C13.2838 23.1406 13.2123 23.1703 13.1595 23.223C13.1068 23.2757 13.0771 23.3473 13.0771 23.4219C13.0771 23.4965 13.1068 23.568 13.1595 23.6207C13.2123 23.6735 13.2838 23.7031 13.3584 23.7031H23.428C23.5026 23.7031 23.5742 23.6735 23.6269 23.6207C23.6797 23.568 23.7093 23.4965 23.7093 23.4219C23.7093 23.3473 23.6797 23.2757 23.6269 23.223C23.5742 23.1703 23.5026 23.1406 23.428 23.1406ZM13.3584 22.1094H17.0006C17.0752 22.1094 17.1467 22.0797 17.1995 22.027C17.2522 21.9743 17.2818 21.9027 17.2818 21.8281C17.2818 21.7535 17.2522 21.682 17.1995 21.6293C17.1467 21.5765 17.0752 21.5469 17.0006 21.5469H13.3584C13.2838 21.5469 13.2123 21.5765 13.1595 21.6293C13.1068 21.682 13.0771 21.7535 13.0771 21.8281C13.0771 21.9027 13.1068 21.9743 13.1595 22.027C13.2123 22.0797 13.2838 22.1094 13.3584 22.1094ZM16.2114 15.2188C16.2114 15.2933 16.241 15.3649 16.2938 15.4176C16.3465 15.4704 16.4181 15.5 16.4926 15.5H18.9002C18.8359 15.8032 18.67 16.0753 18.43 16.2713C18.19 16.4674 17.8902 16.5756 17.5803 16.5781H16.4928C16.4363 16.5788 16.3813 16.5962 16.3348 16.6283C16.2882 16.6603 16.2523 16.7055 16.2316 16.7581C16.2108 16.8106 16.2062 16.8682 16.2184 16.9234C16.2305 16.9786 16.2588 17.0289 16.2997 17.0679L19.0184 19.6376C19.0452 19.663 19.0768 19.6829 19.1113 19.6961C19.1458 19.7093 19.1825 19.7156 19.2194 19.7146C19.2564 19.7136 19.2927 19.7053 19.3265 19.6903C19.3602 19.6752 19.3906 19.6536 19.416 19.6268C19.4673 19.572 19.4948 19.4993 19.4927 19.4243C19.4906 19.3494 19.459 19.2783 19.4048 19.2265L17.1998 17.1406H17.5803C18.0403 17.1408 18.4849 16.975 18.8324 16.6736C19.1799 16.3721 19.4069 15.9554 19.4716 15.5H20.2938C20.3684 15.5 20.4399 15.4704 20.4927 15.4176C20.5454 15.3649 20.575 15.2933 20.575 15.2188C20.575 15.1442 20.5454 15.0726 20.4927 15.0199C20.4399 14.9671 20.3684 14.9375 20.2938 14.9375H19.4716C19.4103 14.5156 19.216 14.1875 18.9335 13.9062H20.2938C20.3684 13.9062 20.4399 13.8766 20.4927 13.8239C20.5454 13.7711 20.575 13.6996 20.575 13.625C20.575 13.5504 20.5454 13.4789 20.4927 13.4261C20.4399 13.3734 20.3684 13.3438 20.2938 13.3438H16.4926C16.4181 13.3438 16.3465 13.3734 16.2938 13.4261C16.241 13.4789 16.2114 13.5504 16.2114 13.625C16.2114 13.6996 16.241 13.7711 16.2938 13.8239C16.3465 13.8766 16.4181 13.9062 16.4926 13.9062H17.5801C18.2279 13.9062 18.7704 14.3281 18.9001 14.9375H16.4926C16.4181 14.9375 16.3465 14.9671 16.2938 15.0199C16.241 15.0726 16.2114 15.1442 16.2114 15.2188Z" fill="#1677FF"/>
</svg>
