<svg width="220" height="127" viewBox="0 0 220 127" fill="none" xmlns="http://www.w3.org/2000/svg">
<path fill-rule="evenodd" clip-rule="evenodd" d="M1.05372 57.5282C-2.07296 49.383 1.99542 40.2453 10.1407 37.1186L104.093 1.05375C112.238 -2.07292 121.376 1.99545 124.502 10.1407C127.045 16.7649 124.829 24.0454 119.532 28.2154V42.7987L151 30.7193C159.145 27.5927 168.283 31.661 171.409 39.8063C174.536 47.9515 170.468 57.0892 162.323 60.2159L144.168 67.1848H145.276V80.5879L197.907 60.3849C206.052 57.2582 215.19 61.3266 218.316 69.4719C221.443 77.6171 217.375 86.7548 209.23 89.8815L115.277 125.946C107.132 129.073 97.9944 125.005 94.8678 116.859C92.9381 111.832 93.749 106.427 96.5676 102.291H94.958V86.0748L68.3704 96.2808C60.2251 99.4074 51.0874 95.3391 47.9607 87.1938C44.8341 79.0485 48.9024 69.9108 57.0477 66.7842L74.2947 60.1637H69.2138V48.2855L21.4634 66.6152C13.3181 69.7419 4.18039 65.6735 1.05372 57.5282Z" fill="#F4F4FF"/>
<g filter="url(#filter0_d_11103_10194)">
<path d="M133.412 23.5518C132.513 22.65 131.011 22.8076 130.318 23.8764L96.9017 75.4312C96.181 76.543 94.5981 76.6595 93.7224 75.6652L83.0064 63.497C82.1094 62.4784 80.4799 62.6302 79.7863 63.7968L73.9253 73.656C73.4862 74.3945 73.5679 75.331 74.1282 75.9823L95.381 100.688C96.2451 101.693 97.8293 101.594 98.5628 100.491L142.285 34.7167C142.812 33.9244 142.708 32.8708 142.036 32.1972L133.412 23.5518Z" fill="url(#paint0_linear_11103_10194)"/>
<path d="M129.479 23.3325L96.0625 74.8873C95.7022 75.4432 94.9107 75.5014 94.4729 75.0043L83.7569 62.8361C82.4113 61.3082 79.9671 61.5358 78.9268 63.2858L73.0657 73.145C72.4071 74.2528 72.5297 75.6574 73.3701 76.6344L94.6229 101.34C95.919 102.847 98.2954 102.7 99.3956 101.045L143.118 35.2703C143.908 34.0819 143.751 32.5014 142.744 31.491L134.12 22.8456C132.771 21.4929 130.518 21.7293 129.479 23.3325Z" stroke="white" stroke-width="2"/>
</g>
<g filter="url(#filter1_d_11103_10194)">
<circle cx="119.69" cy="68.8828" r="17.5" fill="white"/>
</g>
<mask id="mask0_11103_10194" style="mask-type:luminance" maskUnits="userSpaceOnUse" x="113" y="61" width="13" height="14">
<path d="M125.67 61.3828H113.19V74.7828H125.67V61.3828Z" fill="white"/>
</mask>
<g mask="url(#mask0_11103_10194)">
<path d="M115.999 61.3828C115.858 61.3831 115.719 61.4181 115.596 61.4843C115.474 61.5505 115.372 61.6456 115.301 61.7601L113.491 64.6973H119.024V61.3828H115.999ZM113.189 65.4819V73.8594C113.189 74.1049 113.294 74.3403 113.479 74.5139C113.665 74.6875 113.917 74.785 114.179 74.785H124.682C124.944 74.785 125.196 74.6875 125.382 74.5139C125.568 74.3403 125.672 74.1049 125.672 73.8594V65.4819H113.189ZM121.336 69.0044L119.164 71.0355C119.125 71.072 119.079 71.101 119.028 71.1207C118.977 71.1405 118.922 71.1507 118.867 71.1507C118.812 71.1507 118.757 71.1405 118.706 71.1207C118.655 71.101 118.609 71.072 118.57 71.0355L117.552 70.0834C117.512 70.0471 117.481 70.0038 117.459 69.956C117.438 69.9082 117.426 69.8568 117.426 69.8049C117.426 69.753 117.436 69.7016 117.458 69.6536C117.479 69.6056 117.51 69.562 117.549 69.5252C117.588 69.4885 117.635 69.4595 117.686 69.4397C117.738 69.42 117.793 69.41 117.848 69.4102C117.904 69.4105 117.958 69.421 118.01 69.4413C118.061 69.4615 118.107 69.491 118.146 69.5281L118.867 70.2024L120.743 68.4486C120.782 68.4116 120.828 68.3821 120.879 68.3618C120.93 68.3416 120.985 68.3311 121.041 68.3308C121.096 68.3305 121.151 68.3406 121.202 68.3603C121.254 68.3801 121.3 68.4091 121.34 68.4458C121.379 68.4825 121.41 68.5261 121.431 68.5742C121.452 68.6222 121.463 68.6736 121.463 68.7255C121.462 68.7774 121.451 68.8287 121.429 68.8766C121.408 68.9244 121.376 68.9677 121.337 69.004M123.56 61.7592C123.489 61.6447 123.387 61.5497 123.264 61.4837C123.141 61.4176 123.002 61.3828 122.861 61.3828H119.864V64.6973H125.376L123.56 61.7592Z" fill="url(#paint1_linear_11103_10194)"/>
</g>
<defs>
<filter id="filter0_d_11103_10194" x="61.6445" y="14.9639" width="92.9751" height="102.42" filterUnits="userSpaceOnUse" color-interpolation-filters="sRGB">
<feFlood flood-opacity="0" result="BackgroundImageFix"/>
<feColorMatrix in="SourceAlpha" type="matrix" values="0 0 0 0 0 0 0 0 0 0 0 0 0 0 0 0 0 0 127 0" result="hardAlpha"/>
<feOffset dy="4"/>
<feGaussianBlur stdDeviation="5"/>
<feComposite in2="hardAlpha" operator="out"/>
<feColorMatrix type="matrix" values="0 0 0 0 0.243137 0 0 0 0 0.713726 0 0 0 0 0.262745 0 0 0 0.22 0"/>
<feBlend mode="normal" in2="BackgroundImageFix" result="effect1_dropShadow_11103_10194"/>
<feBlend mode="normal" in="SourceGraphic" in2="effect1_dropShadow_11103_10194" result="shape"/>
</filter>
<filter id="filter1_d_11103_10194" x="92.1904" y="45.3828" width="55" height="55" filterUnits="userSpaceOnUse" color-interpolation-filters="sRGB">
<feFlood flood-opacity="0" result="BackgroundImageFix"/>
<feColorMatrix in="SourceAlpha" type="matrix" values="0 0 0 0 0 0 0 0 0 0 0 0 0 0 0 0 0 0 127 0" result="hardAlpha"/>
<feOffset dy="4"/>
<feGaussianBlur stdDeviation="5"/>
<feComposite in2="hardAlpha" operator="out"/>
<feColorMatrix type="matrix" values="0 0 0 0 0 0 0 0 0 0 0 0 0 0 0 0 0 0 0.1 0"/>
<feBlend mode="normal" in2="BackgroundImageFix" result="effect1_dropShadow_11103_10194"/>
<feBlend mode="normal" in="SourceGraphic" in2="effect1_dropShadow_11103_10194" result="shape"/>
</filter>
<linearGradient id="paint0_linear_11103_10194" x1="72.4854" y1="34.9034" x2="141.413" y2="82.7077" gradientUnits="userSpaceOnUse">
<stop stop-color="#3EB643"/>
<stop offset="1" stop-color="#0A9B11"/>
</linearGradient>
<linearGradient id="paint1_linear_11103_10194" x1="114.155" y1="63.5607" x2="125.004" y2="63.9757" gradientUnits="userSpaceOnUse">
<stop stop-color="#322E80"/>
<stop offset="1" stop-color="#322E80" stop-opacity="0.7"/>
</linearGradient>
</defs>
</svg>
