<svg width="18" height="19" viewBox="0 0 18 19" fill="none" xmlns="http://www.w3.org/2000/svg">
<mask id="mask0_12081_1552" style="mask-type:luminance" maskUnits="userSpaceOnUse" x="0" y="0" width="18" height="19">
<path d="M17.9842 0H0.333496V18.2412H17.9842V0Z" fill="white"/>
</mask>
<g mask="url(#mask0_12081_1552)">
<path d="M4.30652 0C4.1064 0.000353753 3.90989 0.047975 3.73663 0.138104C3.56336 0.228233 3.41942 0.357712 3.31919 0.5136L0.75852 4.512H8.58452V0H4.30652ZM0.33252 5.58V16.9842C0.33252 17.3184 0.480019 17.6389 0.74257 17.8752C1.00512 18.1115 1.36122 18.2442 1.73252 18.2442H16.5865C16.9578 18.2442 17.3139 18.1115 17.5765 17.8752C17.839 17.6389 17.9865 17.3184 17.9865 16.9842V5.58H0.33252ZM11.8545 10.3752L8.78252 13.14C8.72741 13.1897 8.66194 13.2291 8.58987 13.2561C8.5178 13.283 8.44054 13.2968 8.36252 13.2968C8.28449 13.2968 8.20724 13.283 8.13517 13.2561C8.0631 13.2291 7.99763 13.1897 7.94252 13.14L6.50252 11.844C6.44645 11.7945 6.40182 11.7356 6.37123 11.6705C6.34064 11.6054 6.32468 11.5355 6.32428 11.4649C6.32389 11.3942 6.33906 11.3242 6.36892 11.2588C6.39878 11.1935 6.44274 11.1341 6.49826 11.0842C6.55377 11.0342 6.61974 10.9946 6.69235 10.9678C6.76496 10.9409 6.84277 10.9272 6.92128 10.9276C6.99979 10.9279 7.07744 10.9423 7.14974 10.9698C7.22205 10.9974 7.28757 11.0375 7.34252 11.088L8.36252 12.006L11.0152 9.6186C11.0701 9.56814 11.1357 9.52798 11.208 9.50044C11.2803 9.47291 11.3579 9.45855 11.4364 9.45819C11.5149 9.45783 11.5927 9.47149 11.6654 9.49836C11.738 9.52524 11.8039 9.5648 11.8594 9.61476C11.915 9.66473 11.9589 9.7241 11.9888 9.78945C12.0186 9.8548 12.0338 9.92482 12.0334 9.99548C12.033 10.0661 12.0171 10.136 11.9865 10.2011C11.9559 10.2662 11.9113 10.3251 11.8552 10.3746M14.9992 0.5124C14.8987 0.35656 14.7544 0.227208 14.5809 0.137285C14.4074 0.0473621 14.2107 2.17855e-05 14.0105 0L9.77252 0V4.512H17.5679L14.9992 0.5124Z" fill="#817EB1"/>
</g>
</svg>
