<svg width="79" height="53" viewBox="0 0 79 53" fill="none" xmlns="http://www.w3.org/2000/svg">
<ellipse cx="39.5" cy="44.5" rx="39.5" ry="8.5" fill="#F0F0F0"/>
<path d="M25.4596 1H53.0513C53.3404 1 53.609 1.12517 53.7989 1.34322L67 16.5V39.7574C67 40.553 66.6839 41.3161 66.1213 41.8787L65.1716 42.8284C64.4214 43.5786 63.404 44 62.3431 44H51L15.4176 43.5192C14.5005 43.5068 13.6155 43.1796 12.9109 42.5924L11.7196 41.5997C11.2636 41.2197 11 40.6568 11 40.0633V27.5V17.5L24.7005 1.35302C24.8905 1.12909 25.166 1 25.4596 1Z" fill="white"/>
<path d="M67 16.5L53.7989 1.34322C53.609 1.12517 53.3404 1 53.0513 1C44.6171 1 28.6746 1 25.4596 1C25.166 1 24.8905 1.12909 24.7005 1.35302L11 17.5M67 16.5H52.8673C52.3696 16.5 51.9477 16.8659 51.8773 17.3586L51.5 20L51.1838 21.8972C51.0683 22.5901 50.6283 23.1859 50 23.5V23.5L49.1158 23.7947C48.7079 23.9307 48.2808 24 47.8509 24H40H30.1056C29.7107 24 29.3247 23.8831 28.9962 23.6641L28.7209 23.4806C28.261 23.174 27.9484 22.6906 27.8576 22.1453L27.5 20L27.1608 18.3039C27.0673 17.8365 26.6569 17.5 26.1802 17.5H11M67 16.5V39.7574C67 40.553 66.6839 41.3161 66.1213 41.8787L65.1716 42.8284C64.4214 43.5786 63.404 44 62.3431 44H51L15.4176 43.5192C14.5005 43.5068 13.6155 43.1796 12.9109 42.5924L11.7196 41.5997C11.2636 41.2197 11 40.6568 11 40.0633V27.5V17.5" stroke="#DEDEDE" stroke-width="2"/>
</svg>
