<svg width="68" height="68" viewBox="0 0 68 68" fill="none" xmlns="http://www.w3.org/2000/svg">
<g filter="url(#filter0_d_1513_4704)">
<circle cx="34" cy="30" r="22" fill="#1677FF"/>
<circle cx="34" cy="30" r="21" stroke="white" stroke-width="2"/>
</g>
<path fill-rule="evenodd" clip-rule="evenodd" d="M43 27H25V36.75C25 37.347 25.237 37.9193 25.6593 38.3408C26.0808 38.763 26.653 39 27.25 39C30.388 39 37.612 39 40.75 39C41.347 39 41.9193 38.763 42.3408 38.3408C42.763 37.9193 43 37.347 43 36.75V27ZM31.75 30H36.25C36.664 30 37 29.664 37 29.25C37 28.836 36.664 28.5 36.25 28.5H31.75C31.336 28.5 31 28.836 31 29.25C31 29.664 31.336 30 31.75 30ZM25 25.5H43C43.8288 25.5 44.5 24.8288 44.5 24V22.5C44.5 21.6712 43.8288 21 43 21C39.8995 21 28.1005 21 25 21C24.1712 21 23.5 21.6712 23.5 22.5V24C23.5 24.8288 24.1712 25.5 25 25.5Z" fill="white"/>
<defs>
<filter id="filter0_d_1513_4704" x="0" y="0" width="68" height="68" filterUnits="userSpaceOnUse" color-interpolation-filters="sRGB">
<feFlood flood-opacity="0" result="BackgroundImageFix"/>
<feColorMatrix in="SourceAlpha" type="matrix" values="0 0 0 0 0 0 0 0 0 0 0 0 0 0 0 0 0 0 127 0" result="hardAlpha"/>
<feOffset dy="4"/>
<feGaussianBlur stdDeviation="6"/>
<feComposite in2="hardAlpha" operator="out"/>
<feColorMatrix type="matrix" values="0 0 0 0 0.505882 0 0 0 0 0.494118 0 0 0 0 0.694118 0 0 0 0.5 0"/>
<feBlend mode="normal" in2="BackgroundImageFix" result="effect1_dropShadow_1513_4704"/>
<feBlend mode="normal" in="SourceGraphic" in2="effect1_dropShadow_1513_4704" result="shape"/>
</filter>
</defs>
</svg>
