<svg width="18" height="18" viewBox="0 0 18 18" fill="none" xmlns="http://www.w3.org/2000/svg">
<path d="M8.25 2.25V6.75C8.25 7.14782 8.09196 7.52936 7.81066 7.81066C7.52936 8.09196 7.14782 8.25 6.75 8.25H2.25C1.85218 8.25 1.47064 8.09196 1.18934 7.81066C0.908035 7.52936 0.75 7.14782 0.75 6.75V2.25C0.75 1.85218 0.908035 1.47064 1.18934 1.18934C1.47064 0.908035 1.85218 0.75 2.25 0.75H6.75C7.14782 0.75 7.52936 0.908035 7.81066 1.18934C8.09196 1.47064 8.25 1.85218 8.25 2.25ZM6.75 9.75H2.25C1.85218 9.75 1.47064 9.90804 1.18934 10.1893C0.908035 10.4706 0.75 10.8522 0.75 11.25V15.75C0.75 16.1478 0.908035 16.5294 1.18934 16.8107C1.47064 17.092 1.85218 17.25 2.25 17.25H6.75C7.14782 17.25 7.52936 17.092 7.81066 16.8107C8.09196 16.5294 8.25 16.1478 8.25 15.75V11.25C8.25 10.8522 8.09196 10.4706 7.81066 10.1893C7.52936 9.90804 7.14782 9.75 6.75 9.75ZM15.75 0.75H11.25C10.8522 0.75 10.4706 0.908035 10.1893 1.18934C9.90804 1.47064 9.75 1.85218 9.75 2.25V6.75C9.75 7.14782 9.90804 7.52936 10.1893 7.81066C10.4706 8.09196 10.8522 8.25 11.25 8.25H15.75C16.1478 8.25 16.5294 8.09196 16.8107 7.81066C17.092 7.52936 17.25 7.14782 17.25 6.75V2.25C17.25 1.85218 17.092 1.47064 16.8107 1.18934C16.5294 0.908035 16.1478 0.75 15.75 0.75ZM10.5 14.25C10.6989 14.25 10.8897 14.171 11.0303 14.0303C11.171 13.8897 11.25 13.6989 11.25 13.5V10.5C11.25 10.3011 11.171 10.1103 11.0303 9.96967C10.8897 9.82902 10.6989 9.75 10.5 9.75C10.3011 9.75 10.1103 9.82902 9.96967 9.96967C9.82902 10.1103 9.75 10.3011 9.75 10.5V13.5C9.75 13.6989 9.82902 13.8897 9.96967 14.0303C10.1103 14.171 10.3011 14.25 10.5 14.25ZM16.5 11.25H14.25V10.5C14.25 10.3011 14.171 10.1103 14.0303 9.96967C13.8897 9.82902 13.6989 9.75 13.5 9.75C13.3011 9.75 13.1103 9.82902 12.9697 9.96967C12.829 10.1103 12.75 10.3011 12.75 10.5V15.75H10.5C10.3011 15.75 10.1103 15.829 9.96967 15.9697C9.82902 16.1103 9.75 16.3011 9.75 16.5C9.75 16.6989 9.82902 16.8897 9.96967 17.0303C10.1103 17.171 10.3011 17.25 10.5 17.25H13.5C13.6989 17.25 13.8897 17.171 14.0303 17.0303C14.171 16.8897 14.25 16.6989 14.25 16.5V12.75H16.5C16.6989 12.75 16.8897 12.671 17.0303 12.5303C17.171 12.3897 17.25 12.1989 17.25 12C17.25 11.8011 17.171 11.6103 17.0303 11.4697C16.8897 11.329 16.6989 11.25 16.5 11.25ZM16.5 14.25C16.3011 14.25 16.1103 14.329 15.9697 14.4697C15.829 14.6103 15.75 14.8011 15.75 15V16.5C15.75 16.6989 15.829 16.8897 15.9697 17.0303C16.1103 17.171 16.3011 17.25 16.5 17.25C16.6989 17.25 16.8897 17.171 17.0303 17.0303C17.171 16.8897 17.25 16.6989 17.25 16.5V15C17.25 14.8011 17.171 14.6103 17.0303 14.4697C16.8897 14.329 16.6989 14.25 16.5 14.25Z" fill="#727176"/>
</svg>
