<svg width="24" height="25" viewBox="0 0 24 25" fill="none" xmlns="http://www.w3.org/2000/svg">
<path d="M19 3.5H18V1.5H16V3.5H8V1.5H6V3.5H5C3.9 3.5 3 4.4 3 5.5V19.5C3 20.6 3.9 21.5 5 21.5H14C13.4 21 12.9 20.3 12.5 19.5H5V8.5H19V11.1C19.7 11.2 20.4 11.4 21 11.8V5.5C21 4.4 20.1 3.5 19 3.5ZM18 13C19.1 13 20.1 13.4 20.8 14.2L22 13V17H18L19.8 15.2C19.3 14.8 18.7 14.5 18 14.5C16.6 14.5 15.5 15.6 15.5 17C15.5 18.4 16.6 19.5 18 19.5C18.8 19.5 19.5 19.1 20 18.5H21.7C21.1 20 19.7 21 18 21C15.8 21 14 19.2 14 17C14 14.8 15.8 13 18 13Z" fill="#727176"/>
</svg>
