<svg width="68" height="68" viewBox="0 0 68 68" fill="none" xmlns="http://www.w3.org/2000/svg">
<g filter="url(#filter0_d_918_3310)">
<circle cx="34" cy="30" r="22" fill="#1677ff"/>
<circle cx="34" cy="30" r="21" stroke="white" stroke-width="2"/>
</g>
<g clip-path="url(#clip0_918_3310)">
<path fill-rule="evenodd" clip-rule="evenodd" d="M38.4 22.119C39.0832 22.1396 39.7331 22.4192 40.2179 22.901C40.7027 23.3828 40.9862 24.0309 41.011 24.714C41.03 26.774 41.017 28.834 41.011 30.894C40.989 31.5768 40.709 32.2258 40.2275 32.7103C39.7459 33.1948 39.0986 33.4788 38.416 33.505C33.729 33.549 29.041 33.519 24.353 33.505C23.6691 33.4841 23.0189 33.2037 22.5341 32.7209C22.0494 32.238 21.7666 31.5888 21.743 30.905C21.724 28.846 21.736 26.785 21.743 24.726C21.766 24.0441 22.0463 23.3962 22.5275 22.9126C23.0088 22.4289 23.6552 22.1454 24.337 22.119C29.025 22.075 33.712 22.104 38.4 22.119ZM23.493 30.16C23.493 30.398 23.493 30.6367 23.493 30.876C23.4986 31.1038 23.5904 31.3209 23.7498 31.4837C23.9092 31.6465 24.1244 31.7427 24.352 31.753L25.098 31.764L25.08 31.711C24.9414 31.3543 24.728 31.0313 24.4543 30.7638C24.1806 30.4963 23.8528 30.2904 23.493 30.16ZM39.268 30.16C38.904 30.2976 38.5732 30.5106 38.2975 30.7852C38.0217 31.0598 37.8072 31.3896 37.668 31.753H38.381C38.6088 31.7474 38.8259 31.6557 38.9887 31.4962C39.1515 31.3368 39.2477 31.1216 39.258 30.894C39.2627 30.6493 39.266 30.4047 39.268 30.16ZM31.396 24.745C31.8217 24.7475 32.2421 24.8386 32.6307 25.0125C33.0192 25.1864 33.3672 25.4393 33.6526 25.7551C33.9381 26.0709 34.1546 26.4427 34.2885 26.8468C34.4223 27.2509 34.4706 27.6784 34.4302 28.1021C34.3897 28.5259 34.2615 28.9365 34.0537 29.308C33.8458 29.6795 33.5629 30.0036 33.2229 30.2597C32.883 30.5159 32.4934 30.6984 32.079 30.7957C31.6646 30.8931 31.2345 30.903 30.816 30.825C30.0704 30.6854 29.4029 30.2744 28.9427 29.6714C28.4825 29.0683 28.2622 28.316 28.3244 27.56C28.3866 26.804 28.7268 26.0978 29.2794 25.5781C29.832 25.0583 30.5576 24.7619 31.316 24.746L31.396 24.745ZM25.086 23.869H24.371C24.1433 23.8755 23.9264 23.9677 23.7636 24.1271C23.6009 24.2865 23.5042 24.5015 23.493 24.729C23.493 24.977 23.487 25.229 23.484 25.474L23.535 25.456C23.8917 25.3175 24.2146 25.1044 24.4821 24.8308C24.7496 24.5573 24.9555 24.2287 25.086 23.869ZM37.666 23.859C37.8039 24.223 38.0171 24.5538 38.2919 24.8295C38.5666 25.1053 38.8965 25.3198 39.26 25.459C39.26 25.2217 39.26 24.9843 39.26 24.747C39.2544 24.5191 39.1625 24.3018 39.0029 24.139C38.8432 23.9762 38.6278 23.8801 38.4 23.87L37.666 23.859Z" fill="white"/>
<path d="M42.88 25.442C43.0855 25.4804 43.2721 25.587 43.4097 25.7445C43.5472 25.9019 43.6276 26.1012 43.638 26.31C43.638 28.323 43.645 30.336 43.638 32.348C43.61 33.3467 43.1993 34.2964 42.4907 35.0008C41.7821 35.7051 40.8299 36.1101 39.831 36.132H24.87C24.6866 36.1168 24.5123 36.0458 24.3706 35.9285C24.2288 35.8112 24.1264 35.6533 24.0772 35.476C24.0279 35.2987 24.0342 35.1106 24.0951 34.937C24.1561 34.7634 24.2688 34.6126 24.418 34.505C24.5508 34.4171 24.708 34.3737 24.867 34.381C29.867 34.381 34.858 34.428 39.854 34.381C40.3902 34.3592 40.8981 34.1345 41.2749 33.7524C41.6518 33.3704 41.8695 32.8595 41.884 32.323V26.31C41.89 26.1868 41.9208 26.066 41.9746 25.955C42.0284 25.8439 42.1041 25.7449 42.1971 25.6639C42.2901 25.5828 42.3986 25.5214 42.5159 25.4832C42.6333 25.4451 42.7571 25.4311 42.88 25.442Z" fill="white"/>
<path d="M45.507 28.07C45.7125 28.1084 45.8991 28.2149 46.0367 28.3724C46.1742 28.5299 46.2546 28.7292 46.265 28.938C46.265 30.609 46.265 32.28 46.265 33.95C46.2294 35.2192 45.7074 36.4263 44.807 37.3215C43.9065 38.2168 42.6965 38.7318 41.427 38.76H27.497C27.3552 38.7522 27.2171 38.7112 27.0939 38.6405C26.9707 38.5697 26.8658 38.4711 26.7875 38.3525C26.7093 38.234 26.6599 38.0987 26.6433 37.9576C26.6267 37.8165 26.6434 37.6735 26.692 37.54C26.75 37.4074 26.8394 37.291 26.9525 37.2008C27.0656 37.1105 27.1989 37.0491 27.341 37.022C27.3925 37.0128 27.4447 37.0081 27.497 37.008C32.147 37.008 36.797 37.023 41.445 37.008C42.2548 36.9839 43.0244 36.6501 43.5954 36.0754C44.1664 35.5007 44.4952 34.7289 44.514 33.919V28.938C44.52 28.815 44.5507 28.6945 44.6044 28.5837C44.658 28.4729 44.7334 28.374 44.8261 28.293C44.9188 28.212 45.0268 28.1505 45.1438 28.1121C45.2608 28.0738 45.3844 28.0595 45.507 28.07Z" fill="white"/>
<path fill-rule="evenodd" clip-rule="evenodd" d="M31.368 26.498C31.1541 26.4988 30.9437 26.5518 30.755 26.6524C30.5662 26.753 30.4049 26.8981 30.2849 27.0752C30.165 27.2523 30.0901 27.456 30.0668 27.6686C30.0435 27.8812 30.0724 28.0963 30.151 28.2952C30.2297 28.4941 30.3557 28.6707 30.5181 28.8099C30.6805 28.949 30.8745 29.0464 31.0831 29.0936C31.2917 29.1408 31.5087 29.1363 31.7152 29.0806C31.9217 29.0249 32.1114 28.9197 32.268 28.774C32.4457 28.591 32.5676 28.3613 32.6196 28.1117C32.6716 27.862 32.6515 27.6027 32.5616 27.3641C32.4717 27.1255 32.3158 26.9173 32.1121 26.7639C31.9084 26.6106 31.6652 26.5183 31.411 26.498H31.368Z" fill="white"/>
</g>
<defs>
<filter id="filter0_d_918_3310" x="0" y="0" width="68" height="68" filterUnits="userSpaceOnUse" color-interpolation-filters="sRGB">
<feFlood flood-opacity="0" result="BackgroundImageFix"/>
<feColorMatrix in="SourceAlpha" type="matrix" values="0 0 0 0 0 0 0 0 0 0 0 0 0 0 0 0 0 0 127 0" result="hardAlpha"/>
<feOffset dy="4"/>
<feGaussianBlur stdDeviation="6"/>
<feComposite in2="hardAlpha" operator="out"/>
<feColorMatrix type="matrix" values="0 0 0 0 0.505882 0 0 0 0 0.494118 0 0 0 0 0.694118 0 0 0 0.5 0"/>
<feBlend mode="normal" in2="BackgroundImageFix" result="effect1_dropShadow_918_3310"/>
<feBlend mode="normal" in="SourceGraphic" in2="effect1_dropShadow_918_3310" result="shape"/>
</filter>
<clipPath id="clip0_918_3310">
<rect width="28" height="28" fill="white" transform="translate(20 16)"/>
</clipPath>
</defs>
</svg>
