<svg width="40" height="40" viewBox="0 0 40 40" fill="none" xmlns="http://www.w3.org/2000/svg">
<circle cx="20" cy="20" r="20" fill="#E1EDFF"/>
<path fill-rule="evenodd" clip-rule="evenodd" d="M17.287 23.7264C17.4556 23.6817 17.6353 23.7281 17.7612 23.8488L19.3855 25.4068C19.5205 25.5363 19.5719 25.7303 19.5187 25.9097L19.1641 27.1064C19.0756 27.4052 18.8962 27.6689 18.6509 27.8611L16.3294 29.6797C15.6772 30.1905 14.7344 30.076 14.2236 29.4239C13.7127 28.7717 13.8272 27.8289 14.4794 27.318L16.4238 25.7948L16.9357 24.0676C16.9852 23.9004 17.1184 23.7711 17.287 23.7264ZM17.6613 25.1386L17.3373 26.232C17.3077 26.3316 17.248 26.4195 17.1662 26.4835L15.096 28.1052C14.8787 28.2755 14.8405 28.5898 15.0108 28.8072C15.1811 29.0246 15.4953 29.0627 15.7127 28.8925L18.0343 27.0738C18.116 27.0098 18.1758 26.9219 18.2053 26.8223L18.4734 25.9176L17.6613 25.1386ZM22 14C22.8285 14 23.5 13.3284 23.5 12.5C23.5 11.6716 22.8285 11 22 11C21.1716 11 20.5 11.6716 20.5 12.5C20.5 13.3284 21.1716 14 22 14ZM22 15C23.3807 15 24.5 13.8807 24.5 12.5C24.5 11.1193 23.3807 10 22 10C20.6193 10 19.5 11.1193 19.5 12.5C19.5 13.8807 20.6193 15 22 15Z" fill="#1677FF"/>
<path fill-rule="evenodd" clip-rule="evenodd" d="M18.8682 15.1821C19.5821 14.9168 20.3491 14.9324 21.0377 15.2884C21.6928 15.6271 22.1365 16.1998 22.4155 16.7991C22.52 17.0233 22.6165 17.2327 22.7067 17.4284C22.9266 17.9053 23.1071 18.2968 23.2793 18.6389C23.5225 19.1222 23.7004 19.4053 23.8574 19.5883C23.992 19.7451 24.108 19.8246 24.2566 19.8827C24.4322 19.9513 24.7185 20.014 25.2279 20.0293C25.9991 20.0524 26.6056 20.6964 26.5825 21.4676C26.5593 22.2389 25.9154 22.8454 25.1441 22.8222C24.4657 22.8019 23.8271 22.7147 23.24 22.4854C22.6258 22.2455 22.1413 21.879 21.7371 21.4082C21.6892 21.3523 21.6426 21.2952 21.5972 21.237L21.3959 22.2889L23.5795 24.4434C23.7185 24.5807 23.8273 24.7456 23.8987 24.9275L25.1408 28.0923C25.4227 28.8105 25.069 29.6213 24.3508 29.9032C23.6325 30.1851 22.8217 29.8314 22.5398 29.1131L21.4059 26.2242L17.4765 22.3469C17.1713 22.0458 17.0213 21.6213 17.0695 21.1953L17.2319 19.7601C16.7859 20.337 16.4106 21.0303 16.1489 21.8505C15.9143 22.5856 15.1282 22.9913 14.3931 22.7567C13.6581 22.5221 13.2523 21.736 13.4869 21.001C14.3707 18.2319 16.37 16.1466 18.8516 15.1884L18.8546 15.1872L18.8682 15.1821ZM19.2179 16.1189L19.2104 16.1218C17.019 16.9684 15.2335 18.8177 14.4396 21.305C14.3729 21.514 14.4882 21.7374 14.6972 21.8041C14.9061 21.8707 15.1295 21.7554 15.1962 21.5465C15.6931 19.9897 16.5587 18.8123 17.5763 17.9811C17.7338 17.8525 17.9535 17.8321 18.132 17.9294C18.3105 18.0268 18.4123 18.2226 18.3894 18.4246L18.0632 21.3078C18.0494 21.4288 18.0921 21.5495 18.1788 21.6351L22.1838 25.5869C22.2336 25.636 22.2725 25.695 22.2981 25.7601L23.4707 28.7478C23.5508 28.9519 23.7813 29.0525 23.9854 28.9723C24.1896 28.8922 24.2901 28.6618 24.21 28.4576L22.9678 25.2928C22.9475 25.2411 22.9166 25.1942 22.8771 25.1552L20.5035 22.8131C20.3847 22.6959 20.3322 22.5272 20.3636 22.3633L20.8539 19.8003C20.8939 19.5915 21.0614 19.4309 21.2717 19.3997C21.4819 19.3685 21.6889 19.4736 21.7877 19.6618C22.0127 20.0903 22.2382 20.4566 22.4959 20.7569C22.8037 21.1154 23.1563 21.3792 23.6038 21.5539C24.0437 21.7258 24.5563 21.8042 25.1741 21.8227C25.3933 21.8293 25.5763 21.6569 25.5829 21.4377C25.5895 21.2185 25.4171 21.0354 25.1979 21.0288C24.6282 21.0118 24.2157 20.9403 23.8928 20.8142C23.5777 20.6911 23.3298 20.5089 23.0986 20.2396C22.861 19.9628 22.6397 19.5924 22.386 19.0884C22.2053 18.7294 22.0181 18.3232 21.8015 17.8534L21.7987 17.8474C21.7084 17.6514 21.6126 17.4435 21.509 17.2212C21.2941 16.7598 20.9833 16.386 20.5784 16.1767C20.1646 15.9627 19.6938 15.9425 19.2179 16.1189Z" fill="#1677FF"/>
</svg>
