<svg width="30" height="30" viewBox="0 0 30 30" fill="none" xmlns="http://www.w3.org/2000/svg">
<g clip-path="url(#clip0_1401_4042)">
<path d="M0.640234 14.8205C0.639531 17.341 1.30328 19.8022 2.56539 21.9715L0.519531 29.3834L8.16391 27.3945C10.2782 28.5366 12.6472 29.1351 15.0545 29.1352H15.0609C23.0079 29.1352 29.477 22.7186 29.4804 14.8317C29.4819 11.01 27.9834 7.41628 25.2606 4.71255C22.5384 2.00907 18.9178 0.519414 15.0603 0.51767C7.11227 0.51767 0.643633 6.93395 0.640352 14.8205" fill="url(#paint0_linear_1401_4042)"/>
<path d="M0.125391 14.8158C0.12457 17.4271 0.812109 19.9763 2.11922 22.2233L0 29.9008L7.91848 27.8407C10.1003 29.021 12.5568 29.6434 15.0564 29.6443H15.0628C23.295 29.6443 29.9965 22.9969 30 14.8277C30.0014 10.8686 28.4489 7.1457 25.6289 4.34512C22.8086 1.54488 19.0586 0.00162791 15.0628 0C6.82922 0 0.128672 6.64651 0.125391 14.8158ZM4.84102 21.8363L4.54535 21.3706C3.30246 19.4097 2.64645 17.1436 2.64738 14.8167C2.65008 8.02663 8.2193 2.50233 15.0675 2.50233C18.3839 2.50372 21.5006 3.78651 23.8448 6.11395C26.1889 8.44163 27.4788 11.5358 27.478 14.8267C27.475 21.6169 21.9056 27.1419 15.0628 27.1419H15.0579C12.8298 27.1407 10.6446 26.547 8.73891 25.425L8.28539 25.1581L3.58641 26.3806L4.84102 21.8362V21.8363Z" fill="url(#paint1_linear_1401_4042)"/>
<path d="M11.3295 8.62186C11.0499 8.00523 10.7557 7.99279 10.4898 7.98197C10.272 7.97267 10.0231 7.97337 9.77446 7.97337C9.52556 7.97337 9.12114 8.06628 8.77931 8.43663C8.43712 8.80732 7.4729 9.70314 7.4729 11.5251C7.4729 13.3472 8.81036 15.108 8.99681 15.3553C9.18349 15.6022 11.5788 19.4608 15.3724 20.9452C18.5252 22.1788 19.1668 21.9335 19.8511 21.8716C20.5354 21.81 22.0593 20.976 22.3702 20.1113C22.6814 19.2466 22.6814 18.5055 22.5881 18.3506C22.4948 18.1963 22.2459 18.1036 21.8727 17.9185C21.4993 17.7333 19.6644 16.8373 19.3223 16.7137C18.9801 16.5902 18.7313 16.5286 18.4824 16.8994C18.2335 17.2697 17.5188 18.1036 17.3009 18.3506C17.0833 18.5981 16.8655 18.629 16.4924 18.4437C16.1189 18.2579 14.9169 17.8673 13.4908 16.6058C12.3813 15.6242 11.6322 14.412 11.4145 14.0412C11.1968 13.6709 11.3912 13.4702 11.5783 13.2857C11.746 13.1198 11.9517 12.8533 12.1385 12.6371C12.3246 12.4208 12.3867 12.2665 12.5111 12.0195C12.6357 11.7723 12.5734 11.556 12.4802 11.3708C12.3867 11.1856 11.6614 9.35407 11.3295 8.62186Z" fill="white"/>
</g>
<defs>
<linearGradient id="paint0_linear_1401_4042" x1="1448.56" y1="2887.09" x2="1448.56" y2="0.51767" gradientUnits="userSpaceOnUse">
<stop stop-color="#1FAF38"/>
<stop offset="1" stop-color="#60D669"/>
</linearGradient>
<linearGradient id="paint1_linear_1401_4042" x1="1500" y1="2990.08" x2="1500" y2="0" gradientUnits="userSpaceOnUse">
<stop stop-color="#F9F9F9"/>
<stop offset="1" stop-color="white"/>
</linearGradient>
<clipPath id="clip0_1401_4042">
<rect width="30" height="30" fill="white"/>
</clipPath>
</defs>
</svg>
