<svg width="30" height="30" viewBox="0 0 30 30" fill="none" xmlns="http://www.w3.org/2000/svg">
<g clip-path="url(#clip0_2586_20090)">
<path d="M12.2266 11.9167C14.988 11.9167 17.2266 9.67817 17.2266 6.91675C17.2266 4.15532 14.988 1.91675 12.2266 1.91675C9.46514 1.91675 7.22656 4.15532 7.22656 6.91675C7.22656 9.67817 9.46514 11.9167 12.2266 11.9167Z" fill="#727176"/>
<path d="M13.7013 26.5166C13.4259 26.2442 13.2462 25.8899 13.1891 25.5068C13.132 25.1237 13.2006 24.7324 13.3846 24.3916L13.8263 23.5582L12.918 23.2832C12.5476 23.1673 12.2251 22.9337 11.9995 22.6179C11.7739 22.302 11.6575 21.9212 11.668 21.5332V19.8249C11.6673 19.4386 11.7908 19.0624 12.0204 18.7517C12.25 18.4411 12.5735 18.2126 12.943 18.0999L13.8513 17.8249L13.418 16.9916C13.2394 16.6554 13.1714 16.2714 13.2238 15.8943C13.2761 15.5173 13.4462 15.1664 13.7096 14.8916C13.0685 14.8075 12.4229 14.763 11.7763 14.7582C9.86657 14.7133 7.97045 15.0903 6.22317 15.8624C4.47589 16.6345 2.92051 17.7826 1.66797 19.2249V25.6832C1.66797 25.9042 1.75577 26.1162 1.91205 26.2725C2.06833 26.4288 2.28029 26.5166 2.5013 26.5166H13.7013Z" fill="#727176"/>
<path d="M28.0839 19.5499L26.4172 19.0499C26.3017 18.6384 26.1396 18.2413 25.9339 17.8666L26.7672 16.3166C26.7994 16.2591 26.8112 16.1923 26.8006 16.1273C26.79 16.0622 26.7577 16.0026 26.7089 15.9583L25.5005 14.7416C25.454 14.6963 25.3947 14.6664 25.3306 14.656C25.2665 14.6456 25.2007 14.6551 25.1422 14.6833L23.6005 15.5166C23.2211 15.3105 22.8218 15.143 22.4089 15.0166L21.9005 13.3499C21.8782 13.2885 21.8373 13.2355 21.7836 13.1982C21.7299 13.1609 21.6659 13.1411 21.6005 13.1416H19.8672C19.8022 13.1434 19.7394 13.1652 19.6872 13.204C19.635 13.2427 19.596 13.2966 19.5755 13.3583L19.0755 15.0249C18.6546 15.1474 18.2491 15.318 17.8672 15.5333L16.3589 14.6999C16.3002 14.6688 16.2333 14.6568 16.1675 14.6658C16.1017 14.6748 16.0404 14.7042 15.9922 14.7499L14.7672 15.9499C14.719 15.9964 14.6872 16.0574 14.6767 16.1235C14.6661 16.1897 14.6774 16.2575 14.7089 16.3166L15.5422 17.8333C15.319 18.2097 15.1373 18.6093 15.0005 19.0249L13.3339 19.5333C13.2708 19.5515 13.2155 19.5899 13.1764 19.6426C13.1372 19.6953 13.1164 19.7593 13.1172 19.8249V21.5333C13.1164 21.5989 13.1372 21.663 13.1764 21.7156C13.2155 21.7683 13.2708 21.8067 13.3339 21.8249L15.0005 22.3333C15.1255 22.7414 15.2931 23.1353 15.5005 23.5083L14.6672 25.0916C14.6358 25.1508 14.6245 25.2186 14.635 25.2847C14.6455 25.3509 14.6773 25.4118 14.7255 25.4583L15.9672 26.6666C16.0154 26.7123 16.0767 26.7418 16.1425 26.7507C16.2083 26.7597 16.2752 26.7478 16.3339 26.7166L17.8922 25.8833C18.2631 26.0827 18.6542 26.242 19.0589 26.3583L19.5589 28.0666C19.5798 28.1296 19.6201 28.1844 19.6739 28.2233C19.7278 28.2622 19.7925 28.2832 19.8589 28.2833H21.5672C21.6322 28.2815 21.695 28.2597 21.7472 28.2209C21.7994 28.1822 21.8384 28.1283 21.8589 28.0666L22.3589 26.3583C22.7588 26.2434 23.1445 26.0841 23.5089 25.8833L25.0839 26.7166C25.1425 26.7478 25.2095 26.7597 25.2753 26.7507C25.3411 26.7418 25.4024 26.7123 25.4505 26.6666L26.6672 25.4583C26.7129 25.4101 26.7424 25.3488 26.7513 25.283C26.7603 25.2172 26.7484 25.1503 26.7172 25.0916L25.8839 23.5249C26.0832 23.1599 26.2425 22.7743 26.3589 22.3749L28.0255 21.8666C28.0882 21.8465 28.1432 21.8078 28.1834 21.7557C28.2235 21.7037 28.247 21.6406 28.2505 21.5749V19.8499C28.2526 19.7895 28.2381 19.7297 28.2088 19.6768C28.1794 19.624 28.1362 19.5801 28.0839 19.5499ZM20.7255 23.4833C20.1747 23.4849 19.6358 23.3231 19.1769 23.0183C18.7181 22.7134 18.3601 22.2793 18.1481 21.7709C17.9362 21.2624 17.8799 20.7025 17.9863 20.1621C18.0928 19.6216 18.3572 19.1249 18.7461 18.7348C19.1351 18.3447 19.631 18.0788 20.1711 17.9707C20.7113 17.8626 21.2713 17.9173 21.7804 18.1277C22.2895 18.3381 22.7247 18.6948 23.0309 19.1527C23.3371 19.6106 23.5005 20.1491 23.5005 20.6999C23.5005 21.4367 23.2084 22.1434 22.6883 22.6651C22.1681 23.1869 21.4623 23.4811 20.7255 23.4833Z" fill="#727176"/>
</g>
<defs>
<clipPath id="clip0_2586_20090">
<rect width="30" height="30" fill="white"/>
</clipPath>
</defs>
</svg>
