<svg width="30" height="30" viewBox="0 0 30 30" fill="none" xmlns="http://www.w3.org/2000/svg">
<path d="M15.0006 13.875C11.5956 13.875 10.9056 8.715 10.9056 8.715C10.5006 6.03 11.7306 3 14.9556 3C18.1956 3 19.4256 6.03 19.0206 8.715C19.0206 8.715 18.4056 13.875 15.0006 13.875ZM15.0006 17.73L19.0806 15C22.6656 15 25.8606 18.495 25.8606 21.795V25.53C25.8606 25.53 20.3856 27.225 15.0006 27.225C9.52562 27.225 4.14062 25.53 4.14062 25.53V21.795C4.14062 18.42 7.05063 15.075 10.8456 15.075L15.0006 17.73Z" fill="#727176"/>
</svg>
