<svg width="22" height="25" viewBox="0 0 22 25" fill="none" xmlns="http://www.w3.org/2000/svg">
<path d="M11.0006 10.875C7.59562 10.875 6.90563 5.715 6.90563 5.715C6.50063 3.03 7.73063 0 10.9556 0C14.1956 0 15.4256 3.03 15.0206 5.715C15.0206 5.715 14.4056 10.875 11.0006 10.875ZM11.0006 14.73L15.0806 12C18.6656 12 21.8606 15.495 21.8606 18.795V22.53C21.8606 22.53 16.3856 24.225 11.0006 24.225C5.52562 24.225 0.140625 22.53 0.140625 22.53V18.795C0.140625 15.42 3.05063 12.075 6.84563 12.075L11.0006 14.73Z" fill="#001A72"/>
</svg>
