<svg width="36" height="36" viewBox="0 0 36 36" fill="none" xmlns="http://www.w3.org/2000/svg">
<path d="M29.865 28.3452C29.923 28.3665 29.981 28.3878 30.0408 28.4097C31.2942 28.9239 32.1516 30.0221 32.6759 31.1577C32.8807 31.6654 33.0824 32.2205 32.9656 32.7664C32.8166 32.9994 32.621 33.1712 32.4091 33.3559C32.3532 33.4098 32.2974 33.4638 32.2398 33.5194C31.0545 34.605 29.4145 35 27.7942 35C26.0941 34.9782 24.5293 34.2405 23.3259 33.144C23.0984 32.8961 22.9793 32.7412 23.003 32.4118C23.0452 32.2278 23.0452 32.2278 23.1073 32.0295C23.1278 31.9542 23.1483 31.8789 23.1694 31.8013C23.572 30.4519 24.4115 29.2632 25.7244 28.5375C27.0164 27.9121 28.5107 27.812 29.865 28.3452Z" fill="black"/>
<path d="M29.865 28.3452C29.923 28.3665 29.981 28.3878 30.0408 28.4097C31.2942 28.9239 32.1516 30.0221 32.6759 31.1577C32.8807 31.6654 33.0824 32.2205 32.9656 32.7664C32.8166 32.9994 32.621 33.1712 32.4091 33.3559C32.3532 33.4098 32.2974 33.4638 32.2398 33.5194C31.0545 34.605 29.4145 35 27.7942 35C26.0941 34.9782 24.5293 34.2405 23.3259 33.144C23.0984 32.8961 22.9793 32.7412 23.003 32.4118C23.0452 32.2278 23.0452 32.2278 23.1073 32.0295C23.1278 31.9542 23.1483 31.8789 23.1694 31.8013C23.572 30.4519 24.4115 29.2632 25.7244 28.5375C27.0164 27.9121 28.5107 27.812 29.865 28.3452Z" fill="url(#paint0_linear_10879_2468)"/>
<path d="M9.86501 28.3452C9.92302 28.3665 9.98102 28.3878 10.0408 28.4097C11.2942 28.9239 12.1516 30.0221 12.6759 31.1577C12.8807 31.6654 13.0824 32.2205 12.9656 32.7664C12.8166 32.9994 12.621 33.1712 12.4091 33.3559C12.3532 33.4098 12.2974 33.4638 12.2398 33.5194C11.0545 34.605 9.41454 35 7.7942 35C6.09413 34.9782 4.52931 34.2405 3.32593 33.144C3.09837 32.8961 2.97933 32.7412 3.00295 32.4118C3.04519 32.2278 3.04519 32.2278 3.1073 32.0295C3.1278 31.9542 3.14829 31.8789 3.16941 31.8013C3.57199 30.4519 4.41153 29.2632 5.72436 28.5375C7.01643 27.9121 8.51074 27.812 9.86501 28.3452Z" fill="black"/>
<path d="M9.86501 28.3452C9.92302 28.3665 9.98102 28.3878 10.0408 28.4097C11.2942 28.9239 12.1516 30.0221 12.6759 31.1577C12.8807 31.6654 13.0824 32.2205 12.9656 32.7664C12.8166 32.9994 12.621 33.1712 12.4091 33.3559C12.3532 33.4098 12.2974 33.4638 12.2398 33.5194C11.0545 34.605 9.41454 35 7.7942 35C6.09413 34.9782 4.52931 34.2405 3.32593 33.144C3.09837 32.8961 2.97933 32.7412 3.00295 32.4118C3.04519 32.2278 3.04519 32.2278 3.1073 32.0295C3.1278 31.9542 3.14829 31.8789 3.16941 31.8013C3.57199 30.4519 4.41153 29.2632 5.72436 28.5375C7.01643 27.9121 8.51074 27.812 9.86501 28.3452Z" fill="url(#paint1_linear_10879_2468)"/>
<path d="M19.865 7.3452C19.923 7.36647 19.981 7.38775 20.0408 7.40967C21.2942 7.92394 22.1516 9.02211 22.6759 10.1577C22.8807 10.6654 23.0824 11.2205 22.9656 11.7664C22.8166 11.9994 22.621 12.1712 22.4091 12.3559C22.3532 12.4098 22.2974 12.4638 22.2398 12.5194C21.0545 13.605 19.4145 14 17.7942 14C16.0941 13.9782 14.5293 13.2405 13.3259 12.144C13.0984 11.8961 12.9793 11.7412 13.003 11.4118C13.0452 11.2278 13.0452 11.2278 13.1073 11.0295C13.1278 10.9542 13.1483 10.8789 13.1694 10.8013C13.572 9.45191 14.4115 8.26322 15.7244 7.53747C17.0164 6.91214 18.5107 6.81202 19.865 7.3452Z" fill="black"/>
<path d="M19.865 7.3452C19.923 7.36647 19.981 7.38775 20.0408 7.40967C21.2942 7.92394 22.1516 9.02211 22.6759 10.1577C22.8807 10.6654 23.0824 11.2205 22.9656 11.7664C22.8166 11.9994 22.621 12.1712 22.4091 12.3559C22.3532 12.4098 22.2974 12.4638 22.2398 12.5194C21.0545 13.605 19.4145 14 17.7942 14C16.0941 13.9782 14.5293 13.2405 13.3259 12.144C13.0984 11.8961 12.9793 11.7412 13.003 11.4118C13.0452 11.2278 13.0452 11.2278 13.1073 11.0295C13.1278 10.9542 13.1483 10.8789 13.1694 10.8013C13.572 9.45191 14.4115 8.26322 15.7244 7.53747C17.0164 6.91214 18.5107 6.81202 19.865 7.3452Z" fill="url(#paint2_linear_10879_2468)"/>
<path d="M17.9969 15C18.3027 15.08 18.3964 15.2071 18.585 15.5194C18.6293 15.8237 18.6198 16.1176 18.6079 16.4256C18.6055 16.548 18.6055 16.548 18.6029 16.6729C18.5986 16.8733 18.592 17.0737 18.585 17.274C18.6362 17.2736 18.6873 17.2732 18.7401 17.2727C19.9855 17.2625 21.2309 17.2549 22.4764 17.2501C23.0787 17.2477 23.6809 17.2445 24.2832 17.2392C24.8081 17.2346 25.3331 17.2316 25.858 17.2306C26.136 17.23 26.4139 17.2286 26.6919 17.2252C26.9536 17.2221 27.2152 17.2211 27.4769 17.2218C27.6186 17.2216 27.7603 17.2191 27.902 17.2166C28.5951 17.2218 28.5952 17.2218 28.823 17.4894C28.9836 17.8015 28.9972 18.0002 28.9986 18.3706C28.999 18.492 28.9995 18.6135 29 18.7386C28.9992 18.8014 28.9985 18.8641 28.9977 18.9288C28.9957 19.1205 28.9977 19.3117 29 19.5033C28.9995 19.6247 28.9991 19.7461 28.9986 19.8712C28.9981 19.9819 28.9977 20.0927 28.9973 20.2067C28.9365 20.5894 28.8223 20.7279 28.5822 20.9678C28.2903 21.0366 28.1822 21.0023 27.9344 20.7947C27.7736 20.5985 27.7736 20.5985 27.7001 20.4138C27.7001 19.8652 27.7001 19.3167 27.7001 18.7515C21.296 18.7515 14.8919 18.7515 8.29371 18.7515C8.29371 19.3001 8.29371 19.8486 8.29371 20.4138C7.99968 20.8755 7.99968 20.8755 7.74239 20.9621C7.49374 20.9677 7.38741 20.9659 7.19108 20.7832C6.95755 20.3431 7.01388 19.8416 7.01278 19.3269C7.0119 19.1337 7.00829 18.9408 7.00458 18.7476C7.00388 18.6241 7.00335 18.5006 7.003 18.3771C7.00201 18.2652 7.00102 18.1533 7 18.0381C7.04394 17.7366 7.09389 17.5793 7.27254 17.3697C7.59964 17.1446 8.00889 17.2151 8.37104 17.2216C8.46959 17.2217 8.56814 17.2217 8.66669 17.2214C8.93368 17.2213 9.20062 17.224 9.4676 17.2272C9.74681 17.2301 10.026 17.2304 10.3052 17.2309C10.8337 17.2323 11.3622 17.2361 11.8907 17.2408C12.4924 17.2459 13.0942 17.2485 13.6959 17.2508C14.9336 17.2556 16.1712 17.2637 17.4088 17.274C17.4024 17.0921 17.4024 17.0921 17.3959 16.9064C17.3925 16.7462 17.3891 16.5859 17.3859 16.4256C17.3812 16.3059 17.3812 16.3059 17.3765 16.1837C17.3701 15.7637 17.3722 15.5801 17.5803 15.2356C17.7764 15.0577 17.7764 15.0577 17.9969 15Z" fill="black"/>
<path d="M17.9969 15C18.3027 15.08 18.3964 15.2071 18.585 15.5194C18.6293 15.8237 18.6198 16.1176 18.6079 16.4256C18.6055 16.548 18.6055 16.548 18.6029 16.6729C18.5986 16.8733 18.592 17.0737 18.585 17.274C18.6362 17.2736 18.6873 17.2732 18.7401 17.2727C19.9855 17.2625 21.2309 17.2549 22.4764 17.2501C23.0787 17.2477 23.6809 17.2445 24.2832 17.2392C24.8081 17.2346 25.3331 17.2316 25.858 17.2306C26.136 17.23 26.4139 17.2286 26.6919 17.2252C26.9536 17.2221 27.2152 17.2211 27.4769 17.2218C27.6186 17.2216 27.7603 17.2191 27.902 17.2166C28.5951 17.2218 28.5952 17.2218 28.823 17.4894C28.9836 17.8015 28.9972 18.0002 28.9986 18.3706C28.999 18.492 28.9995 18.6135 29 18.7386C28.9992 18.8014 28.9985 18.8641 28.9977 18.9288C28.9957 19.1205 28.9977 19.3117 29 19.5033C28.9995 19.6247 28.9991 19.7461 28.9986 19.8712C28.9981 19.9819 28.9977 20.0927 28.9973 20.2067C28.9365 20.5894 28.8223 20.7279 28.5822 20.9678C28.2903 21.0366 28.1822 21.0023 27.9344 20.7947C27.7736 20.5985 27.7736 20.5985 27.7001 20.4138C27.7001 19.8652 27.7001 19.3167 27.7001 18.7515C21.296 18.7515 14.8919 18.7515 8.29371 18.7515C8.29371 19.3001 8.29371 19.8486 8.29371 20.4138C7.99968 20.8755 7.99968 20.8755 7.74239 20.9621C7.49374 20.9677 7.38741 20.9659 7.19108 20.7832C6.95755 20.3431 7.01388 19.8416 7.01278 19.3269C7.0119 19.1337 7.00829 18.9408 7.00458 18.7476C7.00388 18.6241 7.00335 18.5006 7.003 18.3771C7.00201 18.2652 7.00102 18.1533 7 18.0381C7.04394 17.7366 7.09389 17.5793 7.27254 17.3697C7.59964 17.1446 8.00889 17.2151 8.37104 17.2216C8.46959 17.2217 8.56814 17.2217 8.66669 17.2214C8.93368 17.2213 9.20062 17.224 9.4676 17.2272C9.74681 17.2301 10.026 17.2304 10.3052 17.2309C10.8337 17.2323 11.3622 17.2361 11.8907 17.2408C12.4924 17.2459 13.0942 17.2485 13.6959 17.2508C14.9336 17.2556 16.1712 17.2637 17.4088 17.274C17.4024 17.0921 17.4024 17.0921 17.3959 16.9064C17.3925 16.7462 17.3891 16.5859 17.3859 16.4256C17.3812 16.3059 17.3812 16.3059 17.3765 16.1837C17.3701 15.7637 17.3722 15.5801 17.5803 15.2356C17.7764 15.0577 17.7764 15.0577 17.9969 15Z" fill="url(#paint3_linear_10879_2468)"/>
<path d="M28.739 23.1093C29.2517 23.4078 29.7321 23.7593 29.9224 24.3384C30.0452 24.9463 30.0444 25.5054 29.757 26.0662C29.4122 26.529 29.0105 26.8649 28.434 26.9713C27.7722 27.0584 27.2419 26.9544 26.6977 26.5599C26.2647 26.1175 26.0142 25.6459 26 25.0223C26.0125 24.4265 26.1744 23.9462 26.6098 23.5252C27.2657 23.0134 27.9306 22.8776 28.739 23.1093Z" fill="black"/>
<path d="M28.739 23.1093C29.2517 23.4078 29.7321 23.7593 29.9224 24.3384C30.0452 24.9463 30.0444 25.5054 29.757 26.0662C29.4122 26.529 29.0105 26.8649 28.434 26.9713C27.7722 27.0584 27.2419 26.9544 26.6977 26.5599C26.2647 26.1175 26.0142 25.6459 26 25.0223C26.0125 24.4265 26.1744 23.9462 26.6098 23.5252C27.2657 23.0134 27.9306 22.8776 28.739 23.1093Z" fill="url(#paint4_linear_10879_2468)"/>
<path d="M8.73895 23.1093C9.2517 23.4078 9.73213 23.7593 9.92239 24.3384C10.0452 24.9463 10.0444 25.5054 9.75702 26.0662C9.41215 26.529 9.01046 26.8649 8.43405 26.9713C7.77218 27.0584 7.2419 26.9544 6.69766 26.5599C6.26473 26.1175 6.01422 25.6459 6 25.0223C6.01252 24.4265 6.17442 23.9462 6.6098 23.5252C7.26572 23.0134 7.93061 22.8776 8.73895 23.1093Z" fill="black"/>
<path d="M8.73895 23.1093C9.2517 23.4078 9.73213 23.7593 9.92239 24.3384C10.0452 24.9463 10.0444 25.5054 9.75702 26.0662C9.41215 26.529 9.01046 26.8649 8.43405 26.9713C7.77218 27.0584 7.2419 26.9544 6.69766 26.5599C6.26473 26.1175 6.01422 25.6459 6 25.0223C6.01252 24.4265 6.17442 23.9462 6.6098 23.5252C7.26572 23.0134 7.93061 22.8776 8.73895 23.1093Z" fill="url(#paint5_linear_10879_2468)"/>
<path d="M18.739 2.10932C19.2517 2.40775 19.7321 2.75928 19.9224 3.33836C20.0452 3.9463 20.0444 4.50539 19.757 5.06621C19.4122 5.52902 19.0105 5.86495 18.434 5.97128C17.7722 6.05843 17.2419 5.95444 16.6977 5.55989C16.2647 5.1175 16.0142 4.64589 16 4.0223C16.0125 3.42655 16.1744 2.94623 16.6098 2.52521C17.2657 2.01345 17.9306 1.87755 18.739 2.10932Z" fill="black"/>
<path d="M18.739 2.10932C19.2517 2.40775 19.7321 2.75928 19.9224 3.33836C20.0452 3.9463 20.0444 4.50539 19.757 5.06621C19.4122 5.52902 19.0105 5.86495 18.434 5.97128C17.7722 6.05843 17.2419 5.95444 16.6977 5.55989C16.2647 5.1175 16.0142 4.64589 16 4.0223C16.0125 3.42655 16.1744 2.94623 16.6098 2.52521C17.2657 2.01345 17.9306 1.87755 18.739 2.10932Z" fill="url(#paint6_linear_10879_2468)"/>
<defs>
<linearGradient id="paint0_linear_10879_2468" x1="23.7738" y1="29.1375" x2="32.4479" y2="29.6465" gradientUnits="userSpaceOnUse">
<stop stop-color="#322E80"/>
<stop offset="1" stop-color="#322E80" stop-opacity="0.7"/>
</linearGradient>
<linearGradient id="paint1_linear_10879_2468" x1="3.77381" y1="29.1375" x2="12.4479" y2="29.6465" gradientUnits="userSpaceOnUse">
<stop stop-color="#322E80"/>
<stop offset="1" stop-color="#322E80" stop-opacity="0.7"/>
</linearGradient>
<linearGradient id="paint2_linear_10879_2468" x1="13.7738" y1="8.1375" x2="22.4479" y2="8.64654" gradientUnits="userSpaceOnUse">
<stop stop-color="#322E80"/>
<stop offset="1" stop-color="#322E80" stop-opacity="0.7"/>
</linearGradient>
<linearGradient id="paint3_linear_10879_2468" x1="8.70238" y1="15.975" x2="27.4264" y2="18.7953" gradientUnits="userSpaceOnUse">
<stop stop-color="#322E80"/>
<stop offset="1" stop-color="#322E80" stop-opacity="0.7"/>
</linearGradient>
<linearGradient id="paint4_linear_10879_2468" x1="26.3095" y1="23.65" x2="29.7853" y2="23.7928" gradientUnits="userSpaceOnUse">
<stop stop-color="#322E80"/>
<stop offset="1" stop-color="#322E80" stop-opacity="0.7"/>
</linearGradient>
<linearGradient id="paint5_linear_10879_2468" x1="6.30952" y1="23.65" x2="9.78526" y2="23.7928" gradientUnits="userSpaceOnUse">
<stop stop-color="#322E80"/>
<stop offset="1" stop-color="#322E80" stop-opacity="0.7"/>
</linearGradient>
<linearGradient id="paint6_linear_10879_2468" x1="16.3095" y1="2.65" x2="19.7853" y2="2.79278" gradientUnits="userSpaceOnUse">
<stop stop-color="#322E80"/>
<stop offset="1" stop-color="#322E80" stop-opacity="0.7"/>
</linearGradient>
</defs>
</svg>
