<svg width="24" height="24" viewBox="0 0 24 24" fill="none" xmlns="http://www.w3.org/2000/svg">
<path d="M5.4 7.3316C4.332 7.3316 3.468 6.46765 3.468 5.39971C3.468 4.88734 3.67155 4.39595 4.03387 4.03365C4.39619 3.67135 4.8876 3.46781 5.4 3.46781C6.468 3.46781 7.332 4.33176 7.332 5.39971C7.332 5.91208 7.12845 6.40346 6.76613 6.76576C6.40381 7.12806 5.9124 7.3316 5.4 7.3316ZM5.4 0C2.4 0 0 2.39987 0 5.39971C0 9.44349 5.4 15.4312 5.4 15.4312C5.4 15.4312 10.8 9.44349 10.8 5.39971C10.8 2.39987 8.4 0 5.4 0ZM18.6 7.3316C18.0876 7.3316 17.5962 7.12806 17.2339 6.76576C16.8716 6.40346 16.668 5.91208 16.668 5.39971C16.668 5.14601 16.718 4.89479 16.8151 4.6604C16.9122 4.42601 17.0545 4.21304 17.2339 4.03365C17.4133 3.85426 17.6263 3.71195 17.8607 3.61487C18.0951 3.51778 18.3463 3.46781 18.6 3.46781C18.8537 3.46781 19.1049 3.51778 19.3393 3.61487C19.5737 3.71195 19.7867 3.85426 19.9661 4.03365C20.1455 4.21304 20.2878 4.42601 20.3849 4.6604C20.482 4.89479 20.532 5.14601 20.532 5.39971C20.532 5.91208 20.3285 6.40346 19.9661 6.76576C19.6038 7.12806 19.1124 7.3316 18.6 7.3316ZM18.6 0C15.6 0 13.2 2.39987 13.2 5.39971C13.2 9.44349 18.6 15.4312 18.6 15.4312C18.6 15.4312 24 9.44349 24 5.39971C24 2.39987 21.6 0 18.6 0ZM18.6 16.7991C17.076 16.7991 15.72 17.759 15.216 19.199H8.784C8.46602 18.3009 7.805 17.5655 6.94576 17.1539C6.08652 16.7423 5.09915 16.688 4.2 17.0031C3.7531 17.1597 3.34144 17.4028 2.98856 17.7185C2.63569 18.0343 2.34851 18.4165 2.14345 18.8434C1.93839 19.2702 1.81946 19.7332 1.79348 20.206C1.76749 20.6788 1.83495 21.1521 1.992 21.5988C2.31428 22.4992 2.97977 23.2356 3.84314 23.647C4.70651 24.0584 5.69761 24.1115 6.6 23.7947C7.62 23.4347 8.4 22.6188 8.784 21.5988H15.228C15.888 23.4707 17.952 24.4547 19.8 23.7947C20.2483 23.6397 20.6615 23.3977 21.0159 23.0825C21.3703 22.7674 21.659 22.3853 21.8653 21.9582C22.0716 21.5312 22.1914 21.0676 22.218 20.594C22.2445 20.1205 22.1773 19.6464 22.02 19.199C21.504 17.759 20.136 16.7991 18.6 16.7991ZM18.6 22.1988C18.1226 22.1988 17.6648 22.0092 17.3272 21.6716C16.9896 21.3341 16.8 20.8763 16.8 20.3989C16.8 19.9215 16.9896 19.4637 17.3272 19.1262C17.6648 18.7886 18.1226 18.599 18.6 18.599C19.0774 18.599 19.5352 18.7886 19.8728 19.1262C20.2104 19.4637 20.4 19.9215 20.4 20.3989C20.4 20.8763 20.2104 21.3341 19.8728 21.6716C19.5352 22.0092 19.0774 22.1988 18.6 22.1988Z" fill="#001A72"/>
</svg>
