<svg width="36" height="36" viewBox="0 0 36 36" fill="none" xmlns="http://www.w3.org/2000/svg">
<g id="bxs:category-alt">
<path id="Vector" d="M15.1111 5H6.44444C6.06135 5 5.69395 5.15218 5.42307 5.42307C5.15218 5.69395 5 6.06135 5 6.44444V15.1111C5 15.4942 5.15218 15.8616 5.42307 16.1325C5.69395 16.4034 6.06135 16.5556 6.44444 16.5556H15.1111C15.4942 16.5556 15.8616 16.4034 16.1325 16.1325C16.4034 15.8616 16.5556 15.4942 16.5556 15.1111V6.44444C16.5556 6.06135 16.4034 5.69395 16.1325 5.42307C15.8616 5.15218 15.4942 5 15.1111 5ZM29.5556 19.4444H20.8889C20.5058 19.4444 20.1384 19.5966 19.8675 19.8675C19.5966 20.1384 19.4444 20.5058 19.4444 20.8889V29.5556C19.4444 29.9386 19.5966 30.306 19.8675 30.5769C20.1384 30.8478 20.5058 31 20.8889 31H29.5556C29.9386 31 30.306 30.8478 30.5769 30.5769C30.8478 30.306 31 29.9386 31 29.5556V20.8889C31 20.5058 30.8478 20.1384 30.5769 19.8675C30.306 19.5966 29.9386 19.4444 29.5556 19.4444ZM25.2222 5C22.0358 5 19.4444 7.59133 19.4444 10.7778C19.4444 13.9642 22.0358 16.5556 25.2222 16.5556C28.4087 16.5556 31 13.9642 31 10.7778C31 7.59133 28.4087 5 25.2222 5ZM10.7778 19.4444C7.59133 19.4444 5 22.0358 5 25.2222C5 28.4087 7.59133 31 10.7778 31C13.9642 31 16.5556 28.4087 16.5556 25.2222C16.5556 22.0358 13.9642 19.4444 10.7778 19.4444Z" fill="url(#paint0_linear_1165_32936)"/>
</g>
<defs>
<linearGradient id="paint0_linear_1165_32936" x1="7.0119" y1="9.225" x2="29.6042" y2="10.1531" gradientUnits="userSpaceOnUse">
<stop stop-color="#322E80"/>
<stop offset="1" stop-color="#322E80" stop-opacity="0.7"/>
</linearGradient>
</defs>
</svg>
