<svg width="30" height="30" viewBox="0 0 30 30" fill="none" xmlns="http://www.w3.org/2000/svg">
<path d="M11.25 20.625C16.4277 20.625 20.625 16.4277 20.625 11.25C20.625 6.07233 16.4277 1.875 11.25 1.875C6.07233 1.875 1.875 6.07233 1.875 11.25C1.875 16.4277 6.07233 20.625 11.25 20.625Z" fill="#001A72" fill-opacity="0.6"/>
<path d="M9.9375 9.1875C10 9.3125 10.0625 9.4375 10.1875 9.5625C10.3125 9.6875 10.4375 9.8125 10.625 9.875C10.8125 10 11.0625 10.0625 11.3125 10.1875C11.75 10.375 12.1875 10.5625 12.5625 10.75C12.9375 10.9375 13.25 11.1875 13.5 11.4375C13.75 11.6875 14 12 14.125 12.3125C14.25 12.625 14.375 13.0625 14.375 13.5C14.375 13.9375 14.3125 14.3125 14.1875 14.625C14.0625 14.9375 13.875 15.25 13.625 15.5C13.375 15.75 13.0625 15.9375 12.75 16.0625C12.375 16.1875 12 16.3125 11.625 16.375V17.75H10.5V16.375C10.125 16.3125 9.75 16.25 9.375 16.125C9 16 8.6875 15.8125 8.4375 15.5C8.125 15.25 7.9375 14.875 7.75 14.5C7.5625 14.125 7.5 13.625 7.5 13.0625H9.5625C9.5625 13.375 9.625 13.6875 9.6875 13.875C9.75 14.125 9.875 14.25 10.0625 14.4375C10.1875 14.5625 10.375 14.6875 10.5625 14.75C10.75 14.8125 10.9375 14.8125 11.125 14.8125C11.375 14.8125 11.5625 14.8125 11.6875 14.75C11.875 14.6875 12 14.625 12.125 14.5C12.25 14.375 12.3125 14.25 12.375 14.125C12.4375 14 12.4375 13.8125 12.4375 13.625C12.4375 13.4375 12.4375 13.25 12.375 13.125C12.3125 13 12.25 12.8125 12.125 12.6875C12 12.5625 11.875 12.4375 11.6875 12.375C11.5 12.25 11.25 12.1875 11 12.0625C10.5625 11.875 10.125 11.6875 9.75 11.5C9.375 11.3125 9.0625 11.0625 8.8125 10.8125C8.5625 10.5625 8.3125 10.25 8.1875 9.9375C8.0625 9.625 7.9375 9.1875 7.9375 8.75C7.9375 8.375 8 8 8.125 7.6875C8.25 7.375 8.4375 7.0625 8.6875 6.8125C8.9375 6.5625 9.25 6.375 9.5625 6.1875C9.875 6.0625 10.3125 5.9375 10.6875 5.875V4.375H11.8125V5.875C12.1875 5.9375 12.5625 6.0625 12.9375 6.25C13.25 6.4375 13.5625 6.625 13.75 6.9375C14 7.1875 14.1875 7.5625 14.3125 7.9375C14.4375 8.3125 14.5 8.75 14.5 9.1875H12.4375C12.4375 8.625 12.3125 8.1875 12.0625 7.9375C11.8125 7.6875 11.5 7.5 11.125 7.5C10.9375 7.5 10.75 7.5625 10.5625 7.625C10.4375 7.6875 10.3125 7.75 10.1875 7.875C10.0625 8 10 8.125 10 8.25C9.9375 8.375 9.9375 8.5625 9.9375 8.75C9.875 8.875 9.9375 9.0625 9.9375 9.1875Z" fill="white"/>
<path d="M18.75 28.125C23.9277 28.125 28.125 23.9277 28.125 18.75C28.125 13.5723 23.9277 9.375 18.75 9.375C13.5723 9.375 9.375 13.5723 9.375 18.75C9.375 23.9277 13.5723 28.125 18.75 28.125Z" fill="#001A72"/>
<path d="M22.5 15.7433V16.5242C22.5 16.5957 22.477 16.6544 22.4311 16.7003C22.3852 16.7462 22.3265 16.7692 22.255 16.7692H20.9688C20.8514 17.5042 20.5222 18.1013 19.9812 18.5607C19.4402 19.02 18.7358 19.3008 17.8682 19.4028C18.7205 20.3113 19.8919 21.6792 21.3822 23.5064C21.4537 23.5881 21.4639 23.6748 21.4129 23.7667C21.372 23.8586 21.298 23.9045 21.1908 23.9045H19.6979C19.6163 23.9045 19.5525 23.8739 19.5065 23.8126C17.9447 21.9395 16.6739 20.4823 15.6939 19.4411C15.648 19.3952 15.625 19.339 15.625 19.2727V18.3004C15.625 18.234 15.6492 18.1766 15.6977 18.1281C15.7462 18.0796 15.8036 18.0554 15.87 18.0554H16.7274C17.4012 18.0554 17.9435 17.9457 18.3543 17.7262C18.7652 17.5067 19.0268 17.1877 19.1391 16.7692H15.87C15.7985 16.7692 15.7398 16.7462 15.6939 16.7003C15.648 16.6544 15.625 16.5957 15.625 16.5242V15.7433C15.625 15.6719 15.648 15.6132 15.6939 15.5672C15.7398 15.5213 15.7985 15.4983 15.87 15.4983H19.0319C18.741 14.9216 18.057 14.6332 16.9801 14.6332H15.87C15.8036 14.6332 15.7462 14.609 15.6977 14.5605C15.6492 14.512 15.625 14.4546 15.625 14.3882V13.37C15.625 13.2985 15.648 13.2398 15.6939 13.1939C15.7398 13.148 15.7985 13.125 15.87 13.125H22.2397C22.3112 13.125 22.3698 13.148 22.4158 13.1939C22.4617 13.2398 22.4847 13.2985 22.4847 13.37V14.1509C22.4847 14.2223 22.4617 14.281 22.4158 14.327C22.3698 14.3729 22.3112 14.3959 22.2397 14.3959H20.4559C20.6958 14.7072 20.8591 15.0747 20.9459 15.4983H22.255C22.3265 15.4983 22.3852 15.5213 22.4311 15.5672C22.477 15.6132 22.5 15.6719 22.5 15.7433Z" fill="white"/>
</svg>
