<svg width="24" height="24" viewBox="0 0 24 24" fill="none" xmlns="http://www.w3.org/2000/svg">
<g clip-path="url(#clip0_1_2)">
<path d="M14 8H4.66667C4.48986 8 4.32029 7.92976 4.19526 7.80474C4.07024 7.67971 4 7.51014 4 7.33333V4.66667C4 4.48986 4.07024 4.32029 4.19526 4.19526C4.32029 4.07024 4.48986 4 4.66667 4H14C14.1768 4 14.3464 4.07024 14.4714 4.19526C14.5964 4.32029 14.6667 4.48986 14.6667 4.66667V7.33333C14.6667 7.51014 14.5964 7.67971 14.4714 7.80474C14.3464 7.92976 14.1768 8 14 8Z" fill="#727176"/>
<path d="M14 9.38667H4.66667C4.48986 9.38667 4.32029 9.4569 4.19526 9.58193C4.07024 9.70695 4 9.87652 4 10.0533V12.6667C4 12.8435 4.07024 13.013 4.19526 13.1381C4.32029 13.2631 4.48986 13.3333 4.66667 13.3333H12.24L14.6667 10.8667V10.0533C14.6667 9.87652 14.5964 9.70695 14.4714 9.58193C14.3464 9.4569 14.1768 9.38667 14 9.38667Z" fill="#727176"/>
<path d="M7.37333 21.0067V20.9667L7.58667 20.04H2.66667V2.66667H16V9.5L17.3333 8.24V2C17.3333 1.82319 17.2631 1.65362 17.1381 1.5286C17.013 1.40357 16.8435 1.33333 16.6667 1.33333H2C1.82319 1.33333 1.65362 1.40357 1.5286 1.5286C1.40357 1.65362 1.33333 1.82319 1.33333 2V20.6667C1.33333 20.8435 1.40357 21.013 1.5286 21.1381C1.65362 21.2631 1.82319 21.3333 2 21.3333H7.33333C7.33883 21.2236 7.35219 21.1145 7.37333 21.0067Z" fill="#727176"/>
<path d="M14.6667 12.78L14.1467 13.3067C14.2757 13.2801 14.3939 13.2159 14.4865 13.1221C14.579 13.0284 14.6417 12.9093 14.6667 12.78Z" fill="#727176"/>
<path d="M4 17.96C4 18.1368 4.07024 18.3064 4.19526 18.4314C4.32029 18.5564 4.48986 18.6267 4.66667 18.6267H7.89333L8.09333 17.76L8.18 17.3933L9.60251 15.9575L5.33333 16L9.56 16L10.8933 14.6667H4.66667C4.48986 14.6667 4.32029 14.7369 4.19526 14.8619C4.07024 14.987 4 15.1565 4 15.3333V17.96Z" fill="#727176"/>
<path d="M22.3267 11.1133L20.08 8.86667C19.9803 8.76669 19.8618 8.68736 19.7314 8.63324C19.601 8.57911 19.4612 8.55125 19.32 8.55125C19.1788 8.55125 19.039 8.57911 18.9086 8.63324C18.7782 8.68736 18.6597 8.76669 18.56 8.86667L9.42 18.06L8.66667 21.2667C8.63846 21.405 8.63783 21.5476 8.6648 21.6861C8.69177 21.8247 8.74582 21.9566 8.82385 22.0743C8.90188 22.192 9.00236 22.2931 9.11953 22.3718C9.2367 22.4506 9.36825 22.5055 9.50667 22.5333C9.57538 22.5402 9.64462 22.5402 9.71333 22.5333C9.79502 22.5466 9.87832 22.5466 9.96 22.5333L13.1933 21.82L22.3267 12.6667C22.4264 12.5675 22.5056 12.4496 22.5597 12.3198C22.6137 12.1899 22.6415 12.0507 22.6415 11.91C22.6415 11.7693 22.6137 11.6301 22.5597 11.5002C22.5056 11.3704 22.4264 11.2525 22.3267 11.1533V11.1133Z" fill="#727176"/>
</g>
<defs>
<clipPath id="clip0_1_2">
<rect width="24" height="24" fill="white"/>
</clipPath>
</defs>
</svg>
