<svg width="36" height="36" viewBox="0 0 36 36" fill="none" xmlns="http://www.w3.org/2000/svg">
<path d="M21.5802 15.1C22.836 15.1 23.8552 16.1192 23.8552 17.375V21.6H23.85V22.9H12.15V19H12.1526V17.375C12.1526 16.1192 13.1705 15.1 14.4276 15.1H21.5802ZM31 17.375C31 16.7716 30.7603 16.193 30.3337 15.7663C29.907 15.3397 29.3284 15.1 28.725 15.1H24.3375C24.8484 15.7175 25.1552 16.5105 25.1552 17.375V19H25.15V22.9H30.025C30.2836 22.9 30.5316 22.7973 30.7144 22.6144C30.8973 22.4316 31 22.1836 31 21.925V17.375ZM10.85 21.6H10.8526V17.375L10.8643 17.089C10.9204 16.3585 11.2021 15.6635 11.6703 15.1H7.275L7.0878 15.1078C6.51879 15.1548 5.98825 15.414 5.60148 15.834C5.21472 16.254 5.00002 16.8041 5 17.375V21.925C5 22.4632 5.4368 22.9 5.975 22.9H10.85V21.6ZM18 6C19.0343 6 20.0263 6.41089 20.7577 7.14228C21.4891 7.87368 21.9 8.86566 21.9 9.9C21.9 10.9343 21.4891 11.9263 20.7577 12.6577C20.0263 13.3891 19.0343 13.8 18 13.8C16.9657 13.8 15.9737 13.3891 15.2423 12.6577C14.5109 11.9263 14.1 10.9343 14.1 9.9C14.1 8.86566 14.5109 7.87368 15.2423 7.14228C15.9737 6.41089 16.9657 6 18 6ZM26.45 7.3C27.312 7.3 28.1386 7.64241 28.7481 8.2519C29.3576 8.8614 29.7 9.68805 29.7 10.55C29.7 11.412 29.3576 12.2386 28.7481 12.8481C28.1386 13.4576 27.312 13.8 26.45 13.8C25.588 13.8 24.7614 13.4576 24.1519 12.8481C23.5424 12.2386 23.2 11.412 23.2 10.55C23.2 9.68805 23.5424 8.8614 24.1519 8.2519C24.7614 7.64241 25.588 7.3 26.45 7.3ZM9.55 7.3C10.412 7.3 11.2386 7.64241 11.8481 8.2519C12.4576 8.8614 12.8 9.68805 12.8 10.55C12.8 11.412 12.4576 12.2386 11.8481 12.8481C11.2386 13.4576 10.412 13.8 9.55 13.8C8.68805 13.8 7.8614 13.4576 7.2519 12.8481C6.64241 12.2386 6.3 11.412 6.3 10.55C6.3 9.68805 6.64241 8.8614 7.2519 8.2519C7.8614 7.64241 8.68805 7.3 9.55 7.3ZM5 25.175C5 24.9164 5.10272 24.6684 5.28557 24.4856C5.46842 24.3027 5.71641 24.2 5.975 24.2H30.025C30.2836 24.2 30.5316 24.3027 30.7144 24.4856C30.8973 24.6684 31 24.9164 31 25.175V25.825C31 27.1179 30.4864 28.3579 29.5721 29.2721C28.6579 30.1864 27.4179 30.7 26.125 30.7H9.875C8.58207 30.7 7.34209 30.1864 6.42785 29.2721C5.51361 28.3579 5 27.1179 5 25.825V25.175Z" fill="url(#paint0_linear_1165_32892)"/>
<defs>
<linearGradient id="paint0_linear_1165_32892" x1="7.0119" y1="10.0137" x2="29.6001" y2="10.9905" gradientUnits="userSpaceOnUse">
<stop stop-color="#322E80"/>
<stop offset="1" stop-color="#322E80" stop-opacity="0.7"/>
</linearGradient>
</defs>
</svg>
