<svg width="24" height="24" viewBox="0 0 24 24" fill="none" xmlns="http://www.w3.org/2000/svg">
<g clip-path="url(#clip0_3_4510)">
<path d="M14 8H4.66667C4.48986 8 4.32029 7.92976 4.19526 7.80474C4.07024 7.67971 4 7.51014 4 7.33333V4.66667C4 4.48986 4.07024 4.32029 4.19526 4.19526C4.32029 4.07024 4.48986 4 4.66667 4H14C14.1768 4 14.3464 4.07024 14.4714 4.19526C14.5964 4.32029 14.6667 4.48986 14.6667 4.66667V7.33333C14.6667 7.51014 14.5964 7.67971 14.4714 7.80474C14.3464 7.92976 14.1768 8 14 8Z" fill="#322E80"/>
<path d="M14 9.38667H4.66667C4.48986 9.38667 4.32029 9.45691 4.19526 9.58194C4.07024 9.70696 4 9.87653 4 10.0533V12.6667C4 12.8435 4.07024 13.0131 4.19526 13.1381C4.32029 13.2631 4.48986 13.3333 4.66667 13.3333H12.24L14.6667 10.8667V10.0533C14.6667 9.87653 14.5964 9.70696 14.4714 9.58194C14.3464 9.45691 14.1768 9.38667 14 9.38667Z" fill="#322E80"/>
<path d="M7.3735 21.0067V20.9667L7.58683 20.04H2.66683V2.66666H16.0002V9.5L17.3335 8.24V1.99999C17.3335 1.82318 17.2633 1.65361 17.1382 1.52859C17.0132 1.40357 16.8436 1.33333 16.6668 1.33333H2.00016C1.82335 1.33333 1.65378 1.40357 1.52876 1.52859C1.40373 1.65361 1.3335 1.82318 1.3335 1.99999V20.6667C1.3335 20.8435 1.40373 21.013 1.52876 21.1381C1.65378 21.2631 1.82335 21.3333 2.00016 21.3333H7.3335C7.33899 21.2236 7.35236 21.1145 7.3735 21.0067Z" fill="#322E80"/>
<path d="M14.6665 12.78L14.1465 13.3067C14.2755 13.2801 14.3937 13.2159 14.4863 13.1221C14.5788 13.0284 14.6415 12.9093 14.6665 12.78Z" fill="#322E80"/>
<path d="M4 17.96C4 18.1368 4.07024 18.3064 4.19526 18.4314C4.32029 18.5564 4.48986 18.6267 4.66667 18.6267H7.89333L8.09333 17.76L8.18 17.3933L9.60251 15.9575L5.33333 16L9.56 16L10.8933 14.6667H4.66667C4.48986 14.6667 4.32029 14.7369 4.19526 14.8619C4.07024 14.987 4 15.1565 4 15.3333V17.96Z" fill="#322E80"/>
<path d="M22.3267 11.1133L20.08 8.86667C19.9803 8.76669 19.8618 8.68736 19.7314 8.63324C19.601 8.57911 19.4612 8.55125 19.32 8.55125C19.1788 8.55125 19.039 8.57911 18.9086 8.63324C18.7781 8.68736 18.6597 8.76669 18.56 8.86667L9.41999 18.06L8.66665 21.2667C8.63845 21.405 8.63782 21.5476 8.66479 21.6861C8.69176 21.8247 8.74581 21.9566 8.82384 22.0743C8.90187 22.192 9.00235 22.2931 9.11952 22.3718C9.23668 22.4506 9.36824 22.5055 9.50665 22.5333C9.57537 22.5402 9.64461 22.5402 9.71332 22.5333C9.795 22.5466 9.8783 22.5466 9.95999 22.5333L13.1933 21.82L22.3267 12.6667C22.4264 12.5675 22.5056 12.4496 22.5597 12.3198C22.6137 12.1899 22.6415 12.0507 22.6415 11.91C22.6415 11.7693 22.6137 11.6301 22.5597 11.5002C22.5056 11.3704 22.4264 11.2525 22.3267 11.1533V11.1133Z" fill="#322E80"/>
</g>
<defs>
<clipPath id="clip0_3_4510">
<rect width="24" height="24" fill="white"/>
</clipPath>
</defs>
</svg>
