<svg width="30" height="30" viewBox="0 0 30 30" fill="none" xmlns="http://www.w3.org/2000/svg">
<path fill-rule="evenodd" clip-rule="evenodd" d="M4.80469 15.0008C4.80469 20.6408 9.36469 25.2008 15.0047 25.2008C20.6447 25.2008 25.2047 20.6408 25.2047 15.0008C25.2047 9.36078 20.6447 4.80078 15.0047 4.80078C9.36469 4.80078 4.80469 9.36078 4.80469 15.0008ZM6.00469 15.0008C6.00469 10.0208 10.0247 6.00078 15.0047 6.00078C19.9847 6.00078 24.0047 10.0208 24.0047 15.0008C24.0047 19.9808 19.9847 24.0008 15.0047 24.0008C10.0247 24.0008 6.00469 19.9808 6.00469 15.0008ZM20.3996 14.4004H9.59961V15.6004H20.3996V14.4004Z" fill="#E10000"/>
</svg>
