<svg width="30" height="30" viewBox="0 0 30 30" fill="none" xmlns="http://www.w3.org/2000/svg">
<path fill-rule="evenodd" clip-rule="evenodd" d="M15.0008 25.1998C9.36078 25.1998 4.80078 20.6398 4.80078 14.9998C4.80078 9.3598 9.36078 4.7998 15.0008 4.7998C20.6408 4.7998 25.2008 9.3598 25.2008 14.9998C25.2008 20.6398 20.6408 25.1998 15.0008 25.1998ZM15.0008 5.9998C10.0208 5.9998 6.00078 10.0198 6.00078 14.9998C6.00078 19.9798 10.0208 23.9998 15.0008 23.9998C19.9808 23.9998 24.0008 19.9798 24.0008 14.9998C24.0008 10.0198 19.9808 5.9998 15.0008 5.9998ZM15.6023 14.3994H20.4016V15.5994H15.6023V20.3996H14.4023V15.5994H9.60156V14.3994H14.4023V9.59961H15.6023V14.3994Z" fill="url(#paint0_linear_1715_17831)"/>
<defs>
<linearGradient id="paint0_linear_1715_17831" x1="6.37935" y1="8.1148" x2="24.1056" y2="8.84299" gradientUnits="userSpaceOnUse">
<stop stop-color="#322E80"/>
<stop offset="1" stop-color="#322E80" stop-opacity="0.7"/>
</linearGradient>
</defs>
</svg>
