<svg width="36" height="36" viewBox="0 0 36 36" fill="none" xmlns="http://www.w3.org/2000/svg">
<g id="fxemoji:email">
<g id="Group 1000001478">
<path id="Vector" d="M35.9848 28.5203C36.1213 28.1515 20.4517 16.3198 20.4517 16.3198C18.4899 14.8721 17.4582 14.8493 15.5183 16.3198C15.5183 16.3198 -0.128531 28.142 0.00316406 28.5057L0 28.5084C0.00161719 28.5115 0.00421875 28.5137 0.00639844 28.5166C0.139074 28.8783 0.332097 29.2148 0.577266 29.512C0.680836 29.6376 0.805641 29.7428 0.925664 29.8521L0.919828 29.8566C0.929391 29.8651 0.942117 29.869 0.95168 29.8776C1.46039 30.3314 2.10192 30.6253 2.81461 30.7091C2.82579 30.7105 2.83479 30.7163 2.84597 30.7176H2.889C2.99735 30.728 3.10036 30.754 3.21131 30.754H32.7933C34.2499 30.754 35.484 29.838 35.9743 28.5539C35.9801 28.5443 35.9891 28.5374 35.9944 28.5276L35.9848 28.5203Z" fill="#96A9B2"/>
<path id="Vector_2" d="M18.0059 14.9619L0.0820312 28.4048V9.36073C0.0820312 7.50448 1.58651 6 3.44276 6H32.569C34.4253 6 35.9297 7.50448 35.9297 9.36073V28.4048L18.0059 14.9619Z" fill="#B9C5C6"/>
<path id="Vector_3" d="M0.292969 8.19143L15.5961 20.2113C17.5276 21.6366 18.5435 21.6591 20.4535 20.2113L35.7327 8.21049C35.4676 7.72997 35.0707 7.35035 34.6169 7.04766L34.827 6.88298C34.3141 6.41604 33.6584 6.11334 32.9306 6.03516L3.08613 6.03621C2.36037 6.11334 1.70365 6.41709 1.19177 6.88298L1.40039 7.04562C0.951797 7.34409 0.558609 7.71717 0.292969 8.19143Z" fill="#EDECE6"/>
<path id="Vector_4" d="M0.284813 8.21688C0.150445 8.58005 15.5786 20.2294 15.5786 20.2294C17.5101 21.6547 18.526 21.6772 20.436 20.2294C20.436 20.2294 35.8417 8.58947 35.712 8.2313L35.7151 8.22869C35.7136 8.22553 35.711 8.22349 35.7089 8.22061C35.5783 7.8645 35.3882 7.53311 35.1468 7.24052C35.0448 7.11684 34.9219 7.01334 34.8038 6.90563L34.8096 6.9012C34.8002 6.89283 34.7876 6.88889 34.7782 6.88052C34.2773 6.43376 33.6457 6.14435 32.944 6.06173C32.9331 6.0604 32.9242 6.0547 32.9132 6.05337H32.8709C32.7642 6.04317 32.6627 6.01758 32.5535 6.01758H3.42722C1.99298 6.01758 0.777844 6.91955 0.295289 8.18384C0.289523 8.19326 0.280664 8.20008 0.275391 8.20971L0.284813 8.21688Z" fill="#DCE2E2"/>
<path id="Vector_5" d="M20.4889 9.51016H17.7726C17.6578 9.51016 17.5477 9.55576 17.4666 9.63692C17.3854 9.71808 17.3398 9.82816 17.3398 9.94294V11.4703C17.3398 11.585 17.3854 11.6951 17.4666 11.7763C17.5477 11.8574 17.6578 11.903 17.7726 11.903H19.9815C20.0962 11.903 20.2063 11.9486 20.2875 12.0298C20.3686 12.111 20.4142 12.221 20.4142 12.3358V13.1526C20.4142 13.2673 20.3686 13.3774 20.2875 13.4586C20.2063 13.5397 20.0962 13.5853 19.9815 13.5853H17.7726C17.6578 13.5853 17.5477 13.6309 17.4666 13.7121C17.3854 13.7933 17.3398 13.9033 17.3398 14.0181V15.6759C17.3398 15.7907 17.3854 15.9008 17.4666 15.982C17.5477 16.0631 17.6578 16.1087 17.7726 16.1087H20.6776C20.7924 16.1087 20.9025 16.1543 20.9836 16.2355C21.0648 16.3166 21.1104 16.4267 21.1104 16.5415V17.4162C21.1104 17.531 21.0648 17.6411 20.9836 17.7223C20.9025 17.8034 20.7924 17.849 20.6776 17.849H15.3507C15.236 17.849 15.1259 17.8034 15.0447 17.7223C14.9636 17.6411 14.918 17.531 14.918 17.4162V8.2316C14.918 8.11682 14.9636 8.00675 15.0447 7.92559C15.1259 7.84442 15.236 7.79883 15.3507 7.79883H20.6108C20.8744 7.79883 21.0768 8.03241 21.0392 8.29334L20.9173 9.13906C20.9025 9.24209 20.851 9.33632 20.7723 9.40448C20.6936 9.47264 20.593 9.51016 20.4889 9.51016Z" fill="#96A9B2"/>
</g>
</g>
</svg>
