<svg width="27" height="27" viewBox="0 0 27 27" fill="none" xmlns="http://www.w3.org/2000/svg">
<g id="Location" clip-path="url(#clip0_2396_2849)">
<g id="Vector">
<path d="M21.0205 3.5469C19.0098 1.58498 16.3093 0.490863 13.5 0.500027C10.5588 0.500027 7.90025 1.66678 5.9795 3.5469C4.99468 4.50176 4.21152 5.64457 3.67643 6.90763C3.14134 8.17069 2.86521 9.5283 2.86438 10.9C2.86438 13.9388 5.817 18.0078 7.73938 20L13.5 26.5L19.1144 20C21.0368 18.0062 24.1373 13.9388 24.1373 10.9C24.1358 9.52825 23.8592 8.17071 23.3238 6.90771C22.7885 5.64471 22.0053 4.50191 21.0205 3.5469ZM13.5 14.6814C13.034 14.6823 12.5724 14.5911 12.1417 14.4131C11.711 14.2351 11.3197 13.9738 10.9903 13.6442C10.6608 13.3146 10.3997 12.9232 10.2219 12.4924C10.0442 12.0617 9.95318 11.6 9.95425 11.134C9.95425 9.17265 11.537 7.5899 13.5 7.5899C15.463 7.5899 17.0458 9.17265 17.0458 11.134C17.0468 11.6 16.9559 12.0617 16.7781 12.4924C16.6003 12.9232 16.3392 13.3146 16.0097 13.6442C15.6803 13.9738 15.289 14.2351 14.8583 14.4131C14.4276 14.5911 13.966 14.6823 13.5 14.6814Z" fill="#827FB2"/>
<path d="M21.0205 3.5469C19.0098 1.58498 16.3093 0.490863 13.5 0.500027C10.5588 0.500027 7.90025 1.66678 5.9795 3.5469C4.99468 4.50176 4.21152 5.64457 3.67643 6.90763C3.14134 8.17069 2.86521 9.5283 2.86438 10.9C2.86438 13.9388 5.817 18.0078 7.73938 20L13.5 26.5L19.1144 20C21.0368 18.0062 24.1373 13.9388 24.1373 10.9C24.1358 9.52825 23.8592 8.17071 23.3238 6.90771C22.7885 5.64471 22.0053 4.50191 21.0205 3.5469ZM13.5 14.6814C13.034 14.6823 12.5724 14.5911 12.1417 14.4131C11.711 14.2351 11.3197 13.9738 10.9903 13.6442C10.6608 13.3146 10.3997 12.9232 10.2219 12.4924C10.0442 12.0617 9.95318 11.6 9.95425 11.134C9.95425 9.17265 11.537 7.5899 13.5 7.5899C15.463 7.5899 17.0458 9.17265 17.0458 11.134C17.0468 11.6 16.9559 12.0617 16.7781 12.4924C16.6003 12.9232 16.3392 13.3146 16.0097 13.6442C15.6803 13.9738 15.289 14.2351 14.8583 14.4131C14.4276 14.5911 13.966 14.6823 13.5 14.6814Z" fill="url(#paint0_linear_2396_2849)"/>
</g>
</g>
<defs>
<linearGradient id="paint0_linear_2396_2849" x1="4.5105" y1="4.72497" x2="23.0055" y2="5.34661" gradientUnits="userSpaceOnUse">
<stop stop-color="#322E80"/>
<stop offset="1" stop-color="#322E80" stop-opacity="0.7"/>
</linearGradient>
<clipPath id="clip0_2396_2849">
<rect width="26" height="26" fill="white" transform="translate(0.5 0.5)"/>
</clipPath>
</defs>
</svg>
