<svg width="36" height="36" viewBox="0 0 36 36" fill="none" xmlns="http://www.w3.org/2000/svg">
<path d="M7.88889 10.3333C7.12271 10.3333 6.38791 10.6377 5.84614 11.1795C5.30436 11.7212 5 12.456 5 13.2222V27.6667C5 28.4328 5.30436 29.1676 5.84614 29.7094C6.38791 30.2512 7.12271 30.5556 7.88889 30.5556H28.1111C28.8773 30.5556 29.6121 30.2512 30.1539 29.7094C30.6956 29.1676 31 28.4328 31 27.6667V13.2222C31 12.456 30.6956 11.7212 30.1539 11.1795C29.6121 10.6377 28.8773 10.3333 28.1111 10.3333H7.88889ZM7.88889 26.2222L12.9444 19.7222L16.5556 24.0556L21.6111 17.5556L28.1111 26.2222H7.88889ZM26.6667 6C27.4328 6 28.1676 6.30436 28.7094 6.84614C29.2512 7.38791 29.5556 8.12271 29.5556 8.88889H6.44444C6.44444 8.12271 6.74881 7.38791 7.29058 6.84614C7.83235 6.30436 8.56715 6 9.33333 6H26.6667Z" fill="url(#paint0_linear_1165_32839)"/>
<defs>
<linearGradient id="paint0_linear_1165_32839" x1="7.0119" y1="9.99027" x2="29.5996" y2="10.9728" gradientUnits="userSpaceOnUse">
<stop stop-color="#322E80"/>
<stop offset="1" stop-color="#322E80" stop-opacity="0.7"/>
</linearGradient>
</defs>
</svg>
