<svg width="36" height="36" viewBox="0 0 36 36" fill="none" xmlns="http://www.w3.org/2000/svg">
<path d="M18.1 17.35C17.238 17.35 16.4114 17.0076 15.8019 16.3981C15.1924 15.7886 14.85 14.962 14.85 14.1C14.85 13.238 15.1924 12.4114 15.8019 11.8019C16.4114 11.1924 17.238 10.85 18.1 10.85C18.962 10.85 19.7886 11.1924 20.3981 11.8019C21.0076 12.4114 21.35 13.238 21.35 14.1C21.35 14.5268 21.2659 14.9494 21.1026 15.3437C20.9393 15.738 20.6999 16.0963 20.3981 16.3981C20.0963 16.6999 19.738 16.9393 19.3437 17.1026C18.9494 17.2659 18.5268 17.35 18.1 17.35ZM18.1 5C15.6865 5 13.3719 5.95875 11.6653 7.66533C9.95875 9.37191 9 11.6865 9 14.1C9 20.925 18.1 31 18.1 31C18.1 31 27.2 20.925 27.2 14.1C27.2 11.6865 26.2413 9.37191 24.5347 7.66533C22.8281 5.95875 20.5135 5 18.1 5Z" fill="url(#paint0_linear_1165_32829)"/>
<defs>
<linearGradient id="paint0_linear_1165_32829" x1="10.4083" y1="9.225" x2="26.2365" y2="9.68015" gradientUnits="userSpaceOnUse">
<stop stop-color="#322E80"/>
<stop offset="1" stop-color="#322E80" stop-opacity="0.7"/>
</linearGradient>
</defs>
</svg>
