<svg width="36" height="36" viewBox="0 0 36 36" fill="none" xmlns="http://www.w3.org/2000/svg">
<g clip-path="url(#clip0_1165_32869)">
<path fill-rule="evenodd" clip-rule="evenodd" d="M13.5331 5H22.1998C23.1571 5 23.9331 5.77604 23.9331 6.73333V11.9333C23.9331 12.8906 23.1571 13.6667 22.1998 13.6667H13.5331C12.5758 13.6667 11.7998 12.8906 11.7998 11.9333V6.73333C11.7998 5.77604 12.5758 5 13.5331 5ZM24.9735 18.6933H10.7602V21.3627H9.37354V17.3067H17.1735V14.5333H18.5602V17.3067H26.3602V21.3627H24.9735V18.6933ZM5.73333 22.3333H14.4C15.3573 22.3333 16.1333 23.1094 16.1333 24.0667V29.2667C16.1333 30.224 15.3573 31 14.4 31H5.73333C4.77604 31 4 30.224 4 29.2667V24.0667C4 23.1094 4.77604 22.3333 5.73333 22.3333ZM30.0001 22.3333H21.3334C20.3761 22.3333 19.6001 23.1094 19.6001 24.0667V29.2667C19.6001 30.224 20.3761 31 21.3334 31H30.0001C30.9574 31 31.7334 30.224 31.7334 29.2667V24.0667C31.7334 23.1094 30.9574 22.3333 30.0001 22.3333Z" fill="url(#paint0_linear_1165_32869)"/>
</g>
<defs>
<linearGradient id="paint0_linear_1165_32869" x1="6.14604" y1="9.225" x2="30.2389" y2="10.2807" gradientUnits="userSpaceOnUse">
<stop stop-color="#322E80"/>
<stop offset="1" stop-color="#322E80" stop-opacity="0.7"/>
</linearGradient>
<clipPath id="clip0_1165_32869">
<rect width="36" height="36" fill="white"/>
</clipPath>
</defs>
</svg>
