<svg width="36" height="36" viewBox="0 0 36 36" fill="none" xmlns="http://www.w3.org/2000/svg">
<g id="ion:cloud-offline-sharp">
<g id="Vector">
<path d="M4.58562 6.42329L5.99988 5L31.4142 30.5768L29.9999 32L4.58562 6.42329ZM4.42 15.7815C2.83688 17.2344 2 19.2183 2 21.5191C2 23.7835 2.89875 25.8516 4.53063 27.343C6.1025 28.7796 8.2225 29.5703 10.5 29.5703H24.7575L8.90688 13.6183C7.15625 13.9574 5.58875 14.7084 4.42 15.7815ZM31.7869 28.0122C33.235 26.8517 34 25.1289 34 23.0287C34 19.1384 30.9725 17.0319 27.8906 16.5727C27.4831 13.9825 26.3875 11.7672 24.6963 10.1281C22.8977 8.38663 20.4958 7.41875 18 7.42968C16.0956 7.42968 14.3187 7.97187 12.8081 9.00216L31.7344 28.0519C31.75 28.0387 31.77 28.0261 31.7869 28.0122Z" fill="black"/>
<path d="M4.58562 6.42329L5.99988 5L31.4142 30.5768L29.9999 32L4.58562 6.42329ZM4.42 15.7815C2.83688 17.2344 2 19.2183 2 21.5191C2 23.7835 2.89875 25.8516 4.53063 27.343C6.1025 28.7796 8.2225 29.5703 10.5 29.5703H24.7575L8.90688 13.6183C7.15625 13.9574 5.58875 14.7084 4.42 15.7815ZM31.7869 28.0122C33.235 26.8517 34 25.1289 34 23.0287C34 19.1384 30.9725 17.0319 27.8906 16.5727C27.4831 13.9825 26.3875 11.7672 24.6963 10.1281C22.8977 8.38663 20.4958 7.41875 18 7.42968C16.0956 7.42968 14.3187 7.97187 12.8081 9.00216L31.7344 28.0519C31.75 28.0387 31.77 28.0261 31.7869 28.0122Z" fill="url(#paint0_linear_3816_1343)"/>
</g>
</g>
<defs>
<linearGradient id="paint0_linear_3816_1343" x1="4.47619" y1="9.3875" x2="32.2631" y2="10.7404" gradientUnits="userSpaceOnUse">
<stop stop-color="#322E80"/>
<stop offset="1" stop-color="#322E80" stop-opacity="0.7"/>
</linearGradient>
</defs>
</svg>
