<svg width="38" height="38" viewBox="0 0 38 38" fill="none" xmlns="http://www.w3.org/2000/svg">
<mask id="mask0_1165_32903" style="mask-type:luminance" maskUnits="userSpaceOnUse" x="8" y="6" width="23" height="26">
<path d="M30.6425 6H8V32H30.6425V6Z" fill="white"/>
</mask>
<g mask="url(#mask0_1165_32903)">
<path d="M13.0979 6C12.8412 6.0005 12.5891 6.06838 12.3668 6.19685C12.1446 6.32531 11.9599 6.50986 11.8313 6.73206L8.54648 12.4312H18.5857V6H13.0979ZM8 13.9534V30.2083C8 30.6847 8.18921 31.1415 8.52602 31.4783C8.86282 31.8151 9.31962 32.0043 9.79593 32.0043H28.8508C29.3271 32.0043 29.7839 31.8151 30.1207 31.4783C30.4575 31.1415 30.6467 30.6847 30.6467 30.2083V13.9534H8ZM22.7805 20.7882L18.8397 24.729C18.769 24.7999 18.6851 24.8561 18.5926 24.8944C18.5002 24.9328 18.4011 24.9525 18.301 24.9525C18.2009 24.9525 18.1018 24.9328 18.0093 24.8944C17.9169 24.8561 17.8329 24.7999 17.7622 24.729L15.9149 22.8818C15.843 22.8113 15.7858 22.7272 15.7465 22.6345C15.7073 22.5417 15.6868 22.4421 15.6863 22.3414C15.6858 22.2407 15.7052 22.1409 15.7436 22.0477C15.7819 21.9546 15.8383 21.87 15.9095 21.7988C15.9807 21.7275 16.0653 21.6711 16.1585 21.6328C16.2516 21.5945 16.3514 21.5751 16.4521 21.5756C16.5528 21.5761 16.6524 21.5966 16.7452 21.6358C16.838 21.675 16.922 21.7323 16.9925 21.8042L18.301 23.1127L21.7038 19.7098C21.7743 19.6379 21.8584 19.5806 21.9511 19.5414C22.0439 19.5022 22.1435 19.4817 22.2442 19.4812C22.3449 19.4807 22.4447 19.5001 22.5379 19.5384C22.631 19.5767 22.7156 19.6331 22.7869 19.7044C22.8581 19.7756 22.9145 19.8602 22.9528 19.9533C22.9911 20.0465 23.0105 20.1463 23.01 20.247C23.0095 20.3477 22.9891 20.4473 22.9498 20.5401C22.9106 20.6328 22.8533 20.7169 22.7814 20.7874M26.8145 6.73035C26.6856 6.50822 26.5006 6.32385 26.278 6.19568C26.0554 6.06751 25.8031 6.00003 25.5463 6H20.1097V12.4312H30.1097L26.8145 6.73035Z" fill="url(#paint0_linear_1165_32903)"/>
</g>
<defs>
<linearGradient id="paint0_linear_1165_32903" x1="9.75243" y1="10.2257" x2="29.4389" y2="10.93" gradientUnits="userSpaceOnUse">
<stop stop-color="#322E80"/>
<stop offset="1" stop-color="#322E80" stop-opacity="0.7"/>
</linearGradient>
</defs>
</svg>
