<svg width="30" height="30" viewBox="0 0 30 30" fill="none" xmlns="http://www.w3.org/2000/svg">
<g id="preferences">
<path id="Vector" d="M7.5 7.5H5C3.61929 7.5 2.5 8.61929 2.5 10V12.5C2.5 13.8807 3.61929 15 5 15H7.5C8.88071 15 10 13.8807 10 12.5V10C10 8.61929 8.88071 7.5 7.5 7.5Z" fill="#001A72"/>
<path id="Vector_2" d="M16.25 15H13.75C12.3693 15 11.25 16.1193 11.25 17.5V20C11.25 21.3807 12.3693 22.5 13.75 22.5H16.25C17.6307 22.5 18.75 21.3807 18.75 20V17.5C18.75 16.1193 17.6307 15 16.25 15Z" fill="#001A72"/>
<path id="Vector_3" d="M25 8.75H22.5C21.1193 8.75 20 9.86929 20 11.25V13.75C20 15.1307 21.1193 16.25 22.5 16.25H25C26.3807 16.25 27.5 15.1307 27.5 13.75V11.25C27.5 9.86929 26.3807 8.75 25 8.75Z" fill="#001A72"/>
<path id="Vector_4" d="M5 2.5H7.5V5H5V2.5ZM5 17.5H7.5V27.5H5V17.5ZM13.75 25H16.25V27.5H13.75V25ZM13.75 2.5H16.25V12.5H13.75V2.5ZM22.5 2.5H25V6.25H22.5V2.5ZM22.5 18.75H25V27.5H22.5V18.75Z" fill="#001A72"/>
</g>
</svg>
