<svg width="30" height="30" viewBox="0 0 30 30" fill="none" xmlns="http://www.w3.org/2000/svg">
<g id="person_apron">
<mask id="mask0_2548_5819" style="mask-type:alpha" maskUnits="userSpaceOnUse" x="0" y="0" width="30" height="30">
<rect id="Bounding box" width="30" height="30" fill="#D9D9D9"/>
</mask>
<g mask="url(#mask0_2548_5819)">
<path id="person_apron_2" d="M14.9998 15.0001C13.6248 15.0001 12.4477 14.5105 11.4685 13.5314C10.4893 12.5522 9.99975 11.3751 9.99975 10.0001C9.99975 8.62512 10.4893 7.44804 11.4685 6.46887C12.4477 5.48971 13.6248 5.00012 14.9998 5.00012C16.3748 5.00012 17.5518 5.48971 18.531 6.46887C19.5102 7.44804 19.9998 8.62512 19.9998 10.0001C19.9998 11.3751 19.5102 12.5522 18.531 13.5314C17.5518 14.5105 16.3748 15.0001 14.9998 15.0001ZM19.9998 25.0001V17.0001C20.5206 17.1668 21.031 17.3439 21.531 17.5314C22.031 17.7189 22.5206 17.9376 22.9998 18.1876C23.6248 18.5001 24.1143 18.9532 24.4685 19.547C24.8227 20.1407 24.9998 20.7918 24.9998 21.5001V25.0001H19.9998ZM12.4998 20.6251V16.4376C12.9164 16.3751 13.3331 16.3282 13.7498 16.297C14.1664 16.2657 14.5831 16.2501 14.9998 16.2501C15.4164 16.2501 15.8331 16.2657 16.2498 16.297C16.6664 16.3282 17.0831 16.3751 17.4998 16.4376V20.6251H12.4998ZM4.99976 25.0001V21.5001C4.99976 20.7918 5.17684 20.1407 5.53101 19.547C5.88517 18.9532 6.37476 18.5001 6.99976 18.1876C7.47892 17.9376 7.96851 17.7189 8.46851 17.5314C8.96851 17.3439 9.47892 17.1668 9.99975 17.0001V25.0001H4.99976Z" fill="#727176"/>
</g>
</g>
</svg>
