<svg width="30" height="30" viewBox="0 0 30 30" fill="none" xmlns="http://www.w3.org/2000/svg">
<path d="M8.75 2.5H3.75C3.41848 2.5 3.10054 2.6317 2.86612 2.86612C2.6317 3.10054 2.5 3.41848 2.5 3.75V26.25C2.5 26.5815 2.6317 26.8995 2.86612 27.1339C3.10054 27.3683 3.41848 27.5 3.75 27.5H8.75C9.08152 27.5 9.39946 27.3683 9.63388 27.1339C9.8683 26.8995 10 26.5815 10 26.25V3.75C10 3.41848 9.8683 3.10054 9.63388 2.86612C9.39946 2.6317 9.08152 2.5 8.75 2.5ZM6.25 26.25C5.75555 26.25 5.2722 26.1034 4.86107 25.8287C4.44995 25.554 4.12952 25.1635 3.9403 24.7067C3.75108 24.2499 3.70157 23.7472 3.79804 23.2623C3.8945 22.7773 4.1326 22.3319 4.48223 21.9822C4.83186 21.6326 5.27732 21.3945 5.76227 21.298C6.24723 21.2016 6.74989 21.2511 7.20671 21.4403C7.66352 21.6295 8.05397 21.95 8.32867 22.3611C8.60338 22.7722 8.75 23.2555 8.75 23.75C8.75 24.413 8.48661 25.0489 8.01777 25.5178C7.54893 25.9866 6.91304 26.25 6.25 26.25ZM8.75 15H3.75V3.75H8.75V15Z" fill="#727176"/>
<path d="M6.26172 25.0125C6.95207 25.0125 7.51172 24.4528 7.51172 23.7625C7.51172 23.0721 6.95207 22.5125 6.26172 22.5125C5.57136 22.5125 5.01172 23.0721 5.01172 23.7625C5.01172 24.4528 5.57136 25.0125 6.26172 25.0125Z" fill="#727176"/>
<path d="M12.5117 2.5V13.7625H18.7617V2.5H12.5117ZM21.2492 2.5V13.7625H27.4992V2.5H21.2492ZM12.5117 16.25V27.5H18.7617V16.25H12.5117ZM21.2492 16.25V27.5H27.4992V16.25H21.2492Z" fill="#727176"/>
</svg>
