<svg width="36" height="36" viewBox="0 0 36 36" fill="none" xmlns="http://www.w3.org/2000/svg">
<path d="M24.9584 30.7387H22.6975C22.0979 30.7387 21.5228 30.5005 21.0988 30.0765C20.6748 29.6525 20.4367 29.0774 20.4367 28.4778C20.4367 27.8782 20.6748 27.3031 21.0988 26.8791C21.5228 26.4551 22.0979 26.2169 22.6975 26.2169H24.9584V23.9561H22.6975C21.4983 23.9561 20.3482 24.4325 19.5002 25.2804C18.6522 26.1284 18.1758 27.2786 18.1758 28.4778C18.1758 29.677 18.6522 30.8272 19.5002 31.6751C20.3482 32.5231 21.4983 32.9995 22.6975 32.9995H24.9584V30.7387ZM34.0019 28.4778C34.0019 29.677 33.5255 30.8272 32.6775 31.6751C31.8295 32.5231 30.6794 32.9995 29.4801 32.9995H27.2193V30.7387H29.4801C30.0797 30.7387 30.6548 30.5005 31.0788 30.0765C31.5028 29.6525 31.741 29.0774 31.741 28.4778C31.741 27.8782 31.5028 27.3031 31.0788 26.8791C30.6548 26.4551 30.0797 26.2169 29.4801 26.2169H27.2193V23.9561H29.4801C30.6794 23.9561 31.8295 24.4325 32.6775 25.2804C33.5255 26.1284 34.0019 27.2786 34.0019 28.4778Z" fill="url(#paint0_linear_1165_32854)"/>
<path d="M23.8261 27.3481H28.3478V29.6089H23.8261V27.3481ZM15.913 28.4785C15.9153 28.0995 15.9493 27.7214 16.0148 27.3481H11.3913V25.7654C11.3913 23.5046 15.913 22.2611 18.1739 22.2611C18.6855 22.2677 19.1958 22.315 19.7 22.4024C20.6306 21.9387 21.6559 21.6968 22.6957 21.6959H28.3478V11.522C28.346 10.9229 28.1073 10.3489 27.6837 9.92527C27.26 9.50166 26.686 9.26289 26.087 9.2611H21.3617C21.1303 8.60029 20.6992 8.02775 20.1281 7.62267C19.557 7.21759 18.8741 7 18.1739 7C17.4737 7 16.7909 7.21759 16.2198 7.62267C15.6487 8.02775 15.2176 8.60029 14.9861 9.2611H10.2609C9.6618 9.26289 9.08778 9.50166 8.66417 9.92527C8.24056 10.3489 8.00179 10.9229 8 11.522V27.3481C8.00179 27.9471 8.24056 28.5211 8.66417 28.9448C9.08778 29.3684 9.6618 29.6071 10.2609 29.6089H16.0148C15.9493 29.2356 15.9153 28.8575 15.913 28.4785ZM18.1739 9.2611C18.3975 9.2611 18.616 9.3274 18.8019 9.45161C18.9878 9.57582 19.1327 9.75237 19.2183 9.95893C19.3039 10.1655 19.3262 10.3928 19.2826 10.6121C19.239 10.8314 19.1313 11.0328 18.9733 11.1909C18.8152 11.349 18.6137 11.4566 18.3944 11.5002C18.1752 11.5439 17.9479 11.5215 17.7413 11.4359C17.5348 11.3504 17.3582 11.2055 17.234 11.0196C17.1098 10.8337 17.0435 10.6151 17.0435 10.3915C17.0444 10.092 17.1638 9.80499 17.3756 9.59318C17.5874 9.38138 17.8744 9.26199 18.1739 9.2611ZM18.1739 13.7828C18.8446 13.7828 19.5003 13.9817 20.058 14.3544C20.6157 14.727 21.0504 15.2567 21.3071 15.8763C21.5637 16.496 21.6309 17.1779 21.5001 17.8358C21.3692 18.4936 21.0462 19.0979 20.5719 19.5722C20.0976 20.0464 19.4934 20.3694 18.8355 20.5003C18.1777 20.6311 17.4958 20.564 16.8761 20.3073C16.2564 20.0506 15.7268 19.6159 15.3541 19.0583C14.9815 18.5006 14.7826 17.8449 14.7826 17.1741C14.782 16.7286 14.8693 16.2874 15.0395 15.8756C15.2098 15.4639 15.4595 15.0898 15.7746 14.7748C16.0896 14.4598 16.4637 14.21 16.8754 14.0398C17.2871 13.8696 17.7284 13.7822 18.1739 13.7828Z" fill="url(#paint1_linear_1165_32854)"/>
<defs>
<linearGradient id="paint0_linear_1165_32854" x1="19.4004" y1="25.4256" x2="33.1046" y2="26.4108" gradientUnits="userSpaceOnUse">
<stop stop-color="#322E80"/>
<stop offset="1" stop-color="#322E80" stop-opacity="0.7"/>
</linearGradient>
<linearGradient id="paint1_linear_1165_32854" x1="9.57453" y1="10.6739" x2="27.2611" y2="11.3278" gradientUnits="userSpaceOnUse">
<stop stop-color="#322E80"/>
<stop offset="1" stop-color="#322E80" stop-opacity="0.7"/>
</linearGradient>
</defs>
</svg>
