<svg width="36" height="36" viewBox="0 0 36 36" fill="none" xmlns="http://www.w3.org/2000/svg">
<mask id="mask0_1152_33263" style="mask-type:alpha" maskUnits="userSpaceOnUse" x="0" y="0" width="36" height="36">
<rect width="36" height="36" fill="#D9D9D9"/>
</mask>
<g mask="url(#mask0_1152_33263)">
<path d="M18 18.2245C16.35 18.2245 14.9375 17.577 13.7625 16.2821C12.5875 14.9872 12 13.4306 12 11.6122C12 9.79388 12.5875 8.23724 13.7625 6.94235C14.9375 5.64745 16.35 5 18 5C19.65 5 21.0625 5.64745 22.2375 6.94235C23.4125 8.23724 24 9.79388 24 11.6122C24 13.4306 23.4125 14.9872 22.2375 16.2821C21.0625 17.577 19.65 18.2245 18 18.2245ZM24 31.449V20.8694C24.625 21.0898 25.2375 21.324 25.8375 21.5719C26.4375 21.8199 27.025 22.1092 27.6 22.4398C28.35 22.8531 28.9375 23.4523 29.3625 24.2375C29.7875 25.0227 30 25.8837 30 26.8204V31.449H24ZM15 25.6633V20.1255C15.5 20.0429 16 19.9809 16.5 19.9395C17 19.8982 17.5 19.8775 18 19.8775C18.5 19.8775 19 19.8982 19.5 19.9395C20 19.9809 20.5 20.0429 21 20.1255V25.6633H15ZM6 31.449V26.8204C6 25.8837 6.2125 25.0227 6.6375 24.2375C7.0625 23.4523 7.65 22.8531 8.4 22.4398C8.975 22.1092 9.5625 21.8199 10.1625 21.5719C10.7625 21.324 11.375 21.0898 12 20.8694V31.449H6Z" fill="url(#paint0_linear_1152_33263)"/>
</g>
<defs>
<linearGradient id="paint0_linear_1152_33263" x1="7.85714" y1="9.29795" x2="28.7177" y2="10.0756" gradientUnits="userSpaceOnUse">
<stop stop-color="#322E80"/>
<stop offset="1" stop-color="#322E80" stop-opacity="0.7"/>
</linearGradient>
</defs>
</svg>
