<svg width="34" height="30" viewBox="0 0 34 30" fill="none" xmlns="http://www.w3.org/2000/svg">
<path d="M27.5 9V6H24.5V3H27.5V0H30.5V3H33.5V6H30.5V9H27.5ZM15.5 24.75C17.375 24.75 18.969 24.094 20.282 22.782C21.595 21.47 22.251 19.876 22.25 18C22.249 16.124 21.593 14.5305 20.282 13.2195C18.971 11.9085 17.377 11.252 15.5 11.25C13.623 11.248 12.0295 11.9045 10.7195 13.2195C9.4095 14.5345 8.753 16.128 8.75 18C8.747 19.872 9.4035 21.466 10.7195 22.782C12.0355 24.098 13.629 24.754 15.5 24.75ZM15.5 21.75C14.45 21.75 13.5625 21.3875 12.8375 20.6625C12.1125 19.9375 11.75 19.05 11.75 18C11.75 16.95 12.1125 16.0625 12.8375 15.3375C13.5625 14.6125 14.45 14.25 15.5 14.25C16.55 14.25 17.4375 14.6125 18.1625 15.3375C18.8875 16.0625 19.25 16.95 19.25 18C19.25 19.05 18.8875 19.9375 18.1625 20.6625C17.4375 21.3875 16.55 21.75 15.5 21.75ZM3.5 30C2.675 30 1.969 29.7065 1.382 29.1195C0.795 28.5325 0.501 27.826 0.5 27V9C0.5 8.175 0.794 7.469 1.382 6.882C1.97 6.295 2.676 6.001 3.5 6H8.225L11 3H21.5V9H24.5V12H30.5V27C30.5 27.825 30.2065 28.5315 29.6195 29.1195C29.0325 29.7075 28.326 30.001 27.5 30H3.5Z" fill="url(#paint0_linear_13141_4329)"/>
<defs>
<linearGradient id="paint0_linear_13141_4329" x1="3.05357" y1="4.875" x2="31.7182" y2="6.17029" gradientUnits="userSpaceOnUse">
<stop stop-color="#322E80"/>
<stop offset="1" stop-color="#322E80" stop-opacity="0.7"/>
</linearGradient>
</defs>
</svg>
