<svg width="32" height="30" viewBox="0 0 32 30" fill="none" xmlns="http://www.w3.org/2000/svg">
<g id="Group 1000001394">
<g id="Clip path group">
<mask id="mask0_329_1373" style="mask-type:luminance" maskUnits="userSpaceOnUse" x="0" y="0" width="32" height="30">
<g id="clip-path">
<path id="Rectangle 1507" d="M31.25 0H0V30H31.25V0Z" fill="white"/>
</g>
</mask>
<g mask="url(#mask0_329_1373)">
<g id="Group 1953">
<path id="Path 2535" d="M0.000734863 30.469L2.12365 22.852C0.735497 20.4959 0.00427538 17.8358 0.000734863 15.129C-0.0392039 11.1751 1.55024 7.36626 4.42273 4.53244C7.29522 1.69861 11.2179 0.0694712 15.3362 0C19.4653 0.0652068 23.4014 1.68973 26.2916 4.52158C29.1818 7.35343 30.7932 11.1645 30.7768 15.129C30.7768 23.429 23.7726 30.468 15.3351 30.468C12.6926 30.4086 10.1125 29.6845 7.85282 28.368L0.000734863 30.469Z" fill="#EDEDED"/>
<path id="Path 2536" d="M8.27708 25.6369L8.75833 25.8999C10.73 27.1442 13.0323 27.8189 15.3917 27.8439C18.8287 27.7577 22.0919 26.3751 24.4746 23.9956C26.8573 21.6161 28.1677 18.4313 28.1219 15.1309C28.1625 13.5008 27.8632 11.8794 27.2414 10.362C26.6197 8.84463 25.6882 7.46192 24.5016 6.29523C23.315 5.12854 21.8974 4.20143 20.3321 3.56845C18.7668 2.93546 17.0855 2.60938 15.387 2.60938C13.6885 2.60938 12.0071 2.93546 10.4418 3.56845C8.87655 4.20143 7.45893 5.12854 6.27236 6.29523C5.0858 7.46192 4.15425 8.84463 3.53252 10.362C2.9108 11.8794 2.61145 13.5008 2.65208 15.1309C2.6465 17.5201 3.32581 19.8647 4.61562 21.9079L4.93437 22.3809L3.71354 26.7899L8.27708 25.6369Z" fill="#55CD6C"/>
<path id="Path 2537" d="M11.2497 8.09049L10.2413 8.03748C10.0852 8.03365 9.92977 8.05952 9.78407 8.11358C9.63837 8.16764 9.50525 8.24883 9.39238 8.35248C8.66338 8.93786 8.14387 9.72791 7.90695 10.6115C7.53507 12.1875 8.11528 14.0785 9.49862 15.9695C11.5597 18.956 14.6347 21.1648 18.2007 22.2205C18.7965 22.4145 19.4301 22.4774 20.0547 22.4047C20.6792 22.332 21.2788 22.1255 21.809 21.8005C22.1658 21.5718 22.4715 21.2771 22.7083 20.9337C22.9451 20.5903 23.1082 20.2051 23.1882 19.8005L23.3476 19.0655C23.3731 18.9545 23.3611 18.8387 23.3134 18.7347C23.2656 18.6308 23.1845 18.5442 23.082 18.4875L19.7392 16.9645C19.6313 16.9119 19.5071 16.8989 19.3899 16.928C19.2727 16.9571 19.1706 17.0262 19.1028 17.1225L17.7757 18.8035C17.7229 18.8584 17.6547 18.8976 17.5793 18.9162C17.5039 18.9348 17.4246 18.9321 17.3507 18.9085C14.949 18.0471 12.9642 16.3629 11.7788 14.1805C11.7466 14.1126 11.7345 14.0374 11.7439 13.9633C11.7533 13.8892 11.7837 13.819 11.832 13.7605L13.1059 12.3425C13.1603 12.2667 13.1976 12.1809 13.2155 12.0905C13.2335 12.0001 13.2316 11.9071 13.2101 11.8175L11.6715 8.40249C11.6434 8.31421 11.5874 8.2365 11.5112 8.18007C11.4351 8.12365 11.3426 8.0913 11.2465 8.08748" fill="#FEFEFE"/>
</g>
</g>
</g>
</g>
</svg>
