<?xml version="1.0" encoding="utf-8"?>
<!-- Generator: Adobe Illustrator 25.0.1, SVG Export Plug-In . SVG Version: 6.00 Build 0)  -->
<svg version="1.1" id="Layer_1" xmlns="http://www.w3.org/2000/svg" xmlns:xlink="http://www.w3.org/1999/xlink" x="0px" y="0px"
	 viewBox="0 0 30 30" style="enable-background:new 0 0 30 30;" xml:space="preserve">
<style type="text/css">
	.st0{fill:#FFFFFF;filter:url(#Adobe_OpacityMaskFilter);}
	.st1{mask:url(#mask0_966_43402_1_);}
	.st2{fill:#727176;}
</style>
<defs>
	<filter id="Adobe_OpacityMaskFilter" filterUnits="userSpaceOnUse" x="4.2" y="3.8" width="22.1" height="22.8">
		<feColorMatrix  type="matrix" values="1 0 0 0 0  0 1 0 0 0  0 0 1 0 0  0 0 0 1 0"/>
	</filter>
</defs>
<mask maskUnits="userSpaceOnUse" x="4.2" y="3.8" width="22.1" height="22.8" id="mask0_966_43402_1_">
	<path class="st0" d="M26.2,3.8H4.2v22.8h22.1V3.8z"/>
</mask>
<g class="st1">
	<path class="st2" d="M9.1,3.8c-0.3,0-0.5,0.1-0.7,0.2C8.2,4,8,4.2,7.9,4.4l-3.2,5h9.8V3.8H9.1z M4.2,10.7V25c0,0.4,0.2,0.8,0.5,1.1
		c0.3,0.3,0.8,0.5,1.2,0.5h18.6c0.5,0,0.9-0.2,1.2-0.5c0.3-0.3,0.5-0.7,0.5-1.1V10.7H4.2z M18.6,16.7l-3.8,3.5
		c-0.1,0.1-0.2,0.1-0.2,0.1c-0.1,0-0.2,0.1-0.3,0.1c-0.1,0-0.2,0-0.3-0.1c-0.1,0-0.2-0.1-0.2-0.1l-1.8-1.6c-0.1-0.1-0.1-0.1-0.2-0.2
		c0-0.1-0.1-0.2-0.1-0.3c0-0.1,0-0.2,0.1-0.3c0-0.1,0.1-0.2,0.2-0.2s0.2-0.1,0.2-0.1c0.1,0,0.2-0.1,0.3-0.1c0.1,0,0.2,0,0.3,0.1
		c0.1,0,0.2,0.1,0.2,0.1l1.3,1.1l3.3-3c0.1-0.1,0.2-0.1,0.2-0.1c0.1,0,0.2-0.1,0.3-0.1c0.1,0,0.2,0,0.3,0.1c0.1,0,0.2,0.1,0.2,0.1
		c0.1,0.1,0.1,0.1,0.2,0.2s0.1,0.2,0.1,0.3c0,0.1,0,0.2-0.1,0.3C18.7,16.6,18.6,16.7,18.6,16.7 M22.5,4.4C22.4,4.2,22.2,4,22,3.9
		c-0.2-0.1-0.5-0.2-0.7-0.2H16v5.6h9.7L22.5,4.4z"/>
</g>
</svg>
