<svg width="30" height="31" viewBox="0 0 30 31" fill="none" xmlns="http://www.w3.org/2000/svg">
<path opacity="0.3" d="M23.3125 24.6875L20.625 22V18H21.875V21.4875L24.1875 23.8L23.3125 24.6875ZM21.25 13C21.675 13 22.0875 13.0375 22.5 13.1V6.75H20V10.5H10V6.75H7.5V25.5H13.35C12.7158 24.1669 12.4295 22.6949 12.5177 21.2213C12.6059 19.7477 13.0658 18.3204 13.8545 17.0724C14.6432 15.8245 15.735 14.7966 17.0281 14.0845C18.3213 13.3724 19.7737 12.9993 21.25 13ZM15 6.75C14.3125 6.75 13.75 6.1875 13.75 5.5C13.75 4.8125 14.3125 4.25 15 4.25C15.6875 4.25 16.25 4.8125 16.25 5.5C16.25 6.1875 15.6875 6.75 15 6.75Z" fill="#727176"/>
<path d="M21.25 15.5C17.8 15.5 15 18.3 15 21.75C15 25.2 17.8 28 21.25 28C24.7 28 27.5 25.2 27.5 21.75C27.5 18.3 24.7 15.5 21.25 15.5ZM23.3125 24.6875L20.625 22V18H21.875V21.4875L24.1875 23.8L23.3125 24.6875ZM22.5 4.25H18.525C18 2.8 16.625 1.75 15 1.75C13.375 1.75 12 2.8 11.475 4.25H7.5C6.125 4.25 5 5.375 5 6.75V25.5C5 26.875 6.125 28 7.5 28H15.1375C14.398 27.2822 13.7963 26.4348 13.3625 25.5H7.5V6.75H10V10.5H20V6.75H22.5V13.1C23.3875 13.225 24.225 13.4875 25 13.85V6.75C25 5.375 23.875 4.25 22.5 4.25ZM15 6.75C14.3125 6.75 13.75 6.1875 13.75 5.5C13.75 4.8125 14.3125 4.25 15 4.25C15.6875 4.25 16.25 4.8125 16.25 5.5C16.25 6.1875 15.6875 6.75 15 6.75Z" fill="#727176"/>
</svg>
