<svg width="24" height="24" viewBox="0 0 24 24" fill="none" xmlns="http://www.w3.org/2000/svg">
<g id="Group 1971">
<g id="Clip path group">
<mask id="mask0_2698_331" style="mask-type:luminance" maskUnits="userSpaceOnUse" x="0" y="0" width="24" height="24">
<g id="clip-path">
<path id="Rectangle 1515" d="M23.5427 0.75H0.333374V23.5327H23.5427V0.75Z" fill="white"/>
</g>
</mask>
<g mask="url(#mask0_2698_331)">
<g id="Group 1970">
<path id="Path 2559" d="M15.8814 5.18703C15.8813 6.21357 15.5649 7.20832 14.9859 8.00178C14.407 8.79525 13.6014 9.33832 12.7064 9.53848C11.8114 9.73864 10.8825 9.58349 10.0778 9.09947C9.27311 8.61545 8.64251 7.83251 8.29343 6.88406C7.94435 5.93561 7.8984 4.88033 8.1634 3.89803C8.42841 2.91573 8.98797 2.0672 9.74675 1.49702C10.5055 0.926841 11.4166 0.670288 12.3247 0.77108C13.2327 0.871871 14.0816 1.32377 14.7267 2.04978C15.4662 2.88192 15.8815 4.0104 15.8814 5.18703Z" fill="#727176"/>
<path id="Path 2560" d="M22.41 6.81898C22.41 7.37375 22.2638 7.91607 21.9898 8.37735C21.7158 8.83863 21.3264 9.19815 20.8708 9.41046C20.4152 9.62276 19.9139 9.67831 19.4303 9.57008C18.9466 9.46185 18.5023 9.1947 18.1536 8.80241C17.8049 8.41012 17.5675 7.91032 17.4712 7.36621C17.375 6.82209 17.4244 6.2581 17.6131 5.74555C17.8019 5.233 18.1214 4.79492 18.5315 4.4867C18.9415 4.17849 19.4235 4.01398 19.9167 4.01398C20.5779 4.01398 21.2121 4.3095 21.6797 4.83554C22.1473 5.36158 22.41 6.07505 22.41 6.81898Z" fill="#727176"/>
<path id="Path 2561" d="M6.45334 6.81898C6.45334 7.37375 6.30711 7.91607 6.03314 8.37735C5.75917 8.83863 5.36976 9.19815 4.91417 9.41046C4.45857 9.62276 3.95724 9.67831 3.47358 9.57008C2.98992 9.46185 2.54566 9.1947 2.19696 8.80241C1.84826 8.41012 1.61079 7.91032 1.51458 7.36621C1.41838 6.82209 1.46776 6.2581 1.65647 5.74555C1.84518 5.233 2.16476 4.79492 2.57479 4.4867C2.98481 4.17849 3.46687 4.01398 3.96001 4.01398C4.62128 4.01398 5.25547 4.3095 5.72306 4.83554C6.19065 5.36158 6.45334 6.07505 6.45334 6.81898Z" fill="#727176"/>
<path id="Path 2562" d="M6.41604 12.1417C5.43471 11.2372 4.54604 11.3572 3.41137 11.3572C2.59778 11.3554 1.81678 11.7168 1.23973 12.362C0.662687 13.0073 0.336727 13.8837 0.333374 14.799L0.333374 20.3685C0.334785 20.7653 0.475883 21.1452 0.725779 21.4252C0.975675 21.7053 1.31401 21.8625 1.66671 21.8625C4.84071 21.8625 4.45871 21.927 4.45871 21.7087C4.45871 17.7622 4.04337 14.868 6.41671 12.1425" fill="#727176"/>
<path id="Path 2563" d="M13.018 11.3813C11.036 11.1953 9.31333 11.3813 7.82733 12.7635C5.34067 15.0045 5.81933 18.0217 5.81933 21.7125C5.82004 22.1859 5.9875 22.6396 6.28503 22.9743C6.58256 23.3091 6.98589 23.4975 7.40667 23.4983C16.9753 23.4983 17.356 23.8455 17.9233 22.4317C18.1093 21.954 18.0567 22.1055 18.0567 17.5327C18.0567 13.9005 15.2613 11.3828 13.0167 11.3828" fill="#727176"/>
<path id="Path 2564" d="M20.4647 11.358C19.3241 11.358 18.4401 11.2395 17.4601 12.1432C19.8154 14.8492 19.4181 17.5432 19.4181 21.7094C19.4181 21.9292 19.1007 21.8632 22.1627 21.8632C22.5281 21.8636 22.8787 21.7009 23.1375 21.4108C23.3964 21.1207 23.5424 20.727 23.5434 20.316V14.7997C23.5401 13.8844 23.2141 13.008 22.637 12.3628C22.06 11.7175 21.279 11.3562 20.4654 11.358" fill="#727176"/>
</g>
</g>
</g>
</g>
</svg>
