<svg width="30" height="31" viewBox="0 0 30 31" fill="none" xmlns="http://www.w3.org/2000/svg">
<path fill-rule="evenodd" clip-rule="evenodd" d="M3.75 6.75C3.75 6.08696 4.01339 5.45107 4.48223 4.98223C4.95107 4.51339 5.58696 4.25 6.25 4.25H23.75C24.413 4.25 25.0489 4.51339 25.5178 4.98223C25.9866 5.45107 26.25 6.08696 26.25 6.75V24.25C26.25 24.913 25.9866 25.5489 25.5178 26.0178C25.0489 26.4866 24.413 26.75 23.75 26.75H6.25C5.58696 26.75 4.95107 26.4866 4.48223 26.0178C4.01339 25.5489 3.75 24.913 3.75 24.25V6.75ZM17.4237 10.0688C16.9825 8.965 15.4012 9.0275 15.0462 10.1613L12.8562 17.1687L12.3713 16.1975C12.2664 15.9879 12.1052 15.8117 11.9059 15.6885C11.7065 15.5653 11.4768 15.5 11.2425 15.5H8.75C8.41848 15.5 8.10054 15.6317 7.86612 15.8661C7.6317 16.1005 7.5 16.4185 7.5 16.75C7.5 17.0815 7.6317 17.3995 7.86612 17.6339C8.10054 17.8683 8.41848 18 8.75 18H10.4775L11.9925 21.0312C12.5013 22.0475 13.9887 21.9275 14.3275 20.8438L16.395 14.2275L17.5863 17.2062C17.7775 17.6862 18.2425 18 18.7587 18H21.25C21.5815 18 21.8995 17.8683 22.1339 17.6339C22.3683 17.3995 22.5 17.0815 22.5 16.75C22.5 16.4185 22.3683 16.1005 22.1339 15.8661C21.8995 15.6317 21.5815 15.5 21.25 15.5H19.5963L17.4237 10.0688Z" fill="#727176"/>
</svg>
